<?xml version="1.0" standalone="no"?>
<!DOCTYPE svg PUBLIC "-//W3C//DTD SVG 1.1//EN" "http://www.w3.org/Graphics/SVG/1.1/DTD/svg11.dtd" >
<svg xmlns="http://www.w3.org/2000/svg" xmlns:xlink="http://www.w3.org/1999/xlink" version="1.1">
<metadata>
Created by FontForge 20170731 at Wed Jul  6 13:55:23 2022
 By Aleksey,,,
Copyright 2020 Dinamo (Johannes Breyer, Fabian Harb). All rights reserved.
</metadata>
<defs>
<font id="ABCFavoritExtended-Book" horiz-adv-x="1474" >
  <font-face 
    font-family="ABC Favorit Extended Book"
    font-weight="350"
    font-stretch="semi-expanded"
    units-per-em="2048"
    panose-1="2 11 4 5 3 2 2 6 2 3"
    ascent="1638"
    descent="-410"
    x-height="1024"
    cap-height="1434"
    bbox="-385 -575 5034 1911"
    underline-thickness="102"
    underline-position="-307"
    unicode-range="U+0020-FB02"
  />
<missing-glyph horiz-adv-x="1480" 
d="M1317 0h-1153v1434h1153v-1434zM307 1292v-1151h867v1151h-867z" />
    <glyph glyph-name="fi" unicode="fi" horiz-adv-x="1341" 
d="M506 0h-180v870h-283v154h283v193q0 107 55 162t158 55h284v-156h-223q-52 0 -73 -23.5t-21 -80.5v-150h668v-1024h-181v870h-487v-870zM1184 1208h-201v209h201v-209z" />
    <glyph glyph-name="fl" unicode="fl" horiz-adv-x="1347" 
d="M506 0h-180v870h-283v154h283v193q0 107 55 162t158 55h641v-1434h-181v1278h-399q-52 0 -73 -23.5t-21 -80.5v-150h291v-154h-291v-870z" />
    <glyph glyph-name="f_f" unicode="ff" horiz-adv-x="1650" 
d="M506 0h-180v870h-283v154h283v193q0 106 55.5 161.5t159.5 55.5h338v-156h-279q-52 0 -73 -23.5t-21 -80.5v-150h604v193q0 106 55.5 161.5t159.5 55.5h338v-156h-279q-52 0 -73 -23.5t-21 -80.5v-150h312v-154h-312v-870h-180v870h-604v-870z" />
    <glyph glyph-name="f_f_i" unicode="ffi" horiz-adv-x="2240" 
d="M506 0h-180v870h-283v154h283v193q0 107 55 162t158 55h340v-156h-279q-52 0 -73 -23.5t-21 -80.5v-150h604v190q0 107 55 163.5t158 56.5h340v-156h-279q-52 0 -73 -23.5t-21 -80.5v-150h785v-1024h-181v870h-604v-870h-180v870h-604v-870zM2083 1208h-201v209h201v-209
z" />
    <glyph glyph-name="f_f_l" unicode="ffl" horiz-adv-x="2240" 
d="M506 0h-180v870h-283v154h283v193q0 107 55 162t158 55h340v-156h-279q-52 0 -73 -23.5t-21 -80.5v-150h604v193q0 107 55 162t158 55h752v-1434h-181v1278h-510q-52 0 -73 -23.5t-21 -80.5v-150h312v-154h-312v-870h-180v870h-604v-870z" />
    <glyph glyph-name="w_w_w.liga" unicode="www" horiz-adv-x="4833" 
d="M4352 184l283 840h190l-377 -1024h-207l-282 807l-285 -807h-205l-280 766l-283 -766h-207l-282 807l-285 -807h-205l-280 766l-283 -766h-207l-283 807l-284 -807h-205l-377 1024h191l293 -823l286 823h191l299 -840l282 840h191l293 -823l286 823h191l299 -840l282 840
h191l293 -823l287 823h190z" />
    <glyph glyph-name=".notdef" horiz-adv-x="1480" 
d="M1317 0h-1153v1434h1153v-1434zM307 1292v-1151h867v1151h-867z" />
    <glyph glyph-name=".null" horiz-adv-x="0" 
 />
    <glyph glyph-name="nonmarkingreturn" horiz-adv-x="682" 
 />
    <glyph glyph-name="space" unicode=" " horiz-adv-x="561" 
 />
    <glyph glyph-name="exclam" unicode="!" horiz-adv-x="559" 
d="M326 399h-90l-50 584v451h189v-451zM393 0h-229v227h229v-227z" />
    <glyph glyph-name="quotedbl" unicode="&#x22;" horiz-adv-x="765" 
d="M252 997h-70l-49 273v164h176v-164zM578 997h-70l-49 273v164h176v-164z" />
    <glyph glyph-name="numbersign" unicode="#" horiz-adv-x="1630" 
d="M1536 1067v-158h-293l-96 -385h303v-157h-342l-92 -367h-172l92 367h-418l-94 -367h-174l94 367h-250v157h291l98 385h-301v158h342l94 367h175l-95 -367h412l92 367h172l-92 -367h254zM559 524h416l96 385h-414z" />
    <glyph glyph-name="dollar" unicode="$" horiz-adv-x="1478" 
d="M848 807l29 -4q475 -76 475 -406q0 -199 -154.5 -308t-443.5 -109q-53 0 -80 2l-47 -228h-166l51 248q-203 41 -315 156t-115 299h205q9 -223 262 -285l98 471l-39 6q-237 38 -341.5 129t-104.5 273q0 79 34.5 149t102.5 128t182.5 92t261.5 34q51 0 76 -2l47 227h166
l-53 -252q179 -42 281.5 -150t119.5 -269h-204q-13 93 -73 156t-159 93zM647 840l41 -6l94 448h-22h-33q-174 0 -273.5 -63.5t-99.5 -163.5q0 -91 70 -141t223 -74zM735 152h33q201 0 296 61.5t95 171.5q0 88 -77 143t-251 84l-22 4l-98 -464h24z" />
    <glyph glyph-name="percent" unicode="%" horiz-adv-x="1978" 
d="M465 614q-182 0 -283.5 112t-101.5 304q0 190 102 302t283 112q174 0 278.5 -113t104.5 -301q0 -189 -104 -302.5t-279 -113.5zM567 0h-170l1022 1434h170zM457 739h14q109 0 168 81t59 210q0 130 -59.5 209.5t-167.5 79.5h-14q-112 0 -170 -80t-58 -209q0 -131 58 -211
t170 -80zM1516 -10q-182 0 -284 112.5t-102 303.5q0 190 102.5 301.5t283.5 111.5q174 0 278 -112.5t104 -300.5q0 -189 -104 -302.5t-278 -113.5zM1507 115h15q109 0 168 81t59 210t-59.5 208.5t-167.5 79.5h-15q-112 0 -169.5 -79.5t-57.5 -208.5q0 -131 57.5 -211
t169.5 -80z" />
    <glyph glyph-name="ampersand" unicode="&#x26;" horiz-adv-x="1544" 
d="M1202 0h-647q-118 0 -216.5 46.5t-158 134t-59.5 198.5q0 126 70.5 214.5t179.5 131.5q-107 43 -173.5 128.5t-66.5 207.5q0 110 60.5 196.5t158.5 131.5t213 45h326v-164h-307q-114 0 -190.5 -61t-76.5 -169q0 -107 75 -168t196 -61h432v248h184v-248h285v-166h-285
v-645zM594 164h424v481h-424q-130 0 -209.5 -65.5t-79.5 -171.5q0 -115 78.5 -179.5t210.5 -64.5z" />
    <glyph glyph-name="quotesingle" unicode="'" horiz-adv-x="436" 
d="M250 997h-70l-47 273v164h174v-164z" />
    <glyph glyph-name="parenleft" unicode="(" horiz-adv-x="860" 
d="M805 -137v-160q-125 9 -228.5 52t-179 114t-131.5 163t-90 204t-50.5 231t-16.5 250q0 130 17 248.5t51.5 229.5t91 202.5t132 162.5t178.5 115.5t226 55.5v-160q-117 -18 -207 -73.5t-147.5 -134.5t-94 -185.5t-51 -218.5t-14.5 -242t14.5 -242t51 -218.5t94 -185.5
t147.5 -134.5t207 -73.5z" />
    <glyph glyph-name="parenright" unicode=")" horiz-adv-x="860" 
d="M57 1571v160q124 -9 227.5 -52t178.5 -114t131.5 -163t90.5 -204t50.5 -231t16.5 -250q0 -157 -23.5 -296.5t-76.5 -266t-132 -221t-197.5 -155.5t-265.5 -75v160q512 78 512 854t-512 854z" />
    <glyph glyph-name="asterisk" unicode="*" horiz-adv-x="954" 
d="M477 1096l-149 -213l-95 67l134 189h-252v114h252l-134 189l97 67l149 -213l148 213l94 -67l-131 -189h250v-114h-250l131 -189l-94 -67z" />
    <glyph glyph-name="plus" unicode="+" horiz-adv-x="1277" 
d="M731 31h-184v413h-449v166h449v414h184v-414h449v-166h-449v-413z" />
    <glyph glyph-name="comma" unicode="," horiz-adv-x="569" 
d="M180 -270h-98v123h98q115 0 115 110v37h-137v236h256v-277q0 -111 -62 -170t-172 -59z" />
    <glyph glyph-name="hyphen" unicode="-" horiz-adv-x="921" 
d="M772 541h-622v157h622v-157z" />
    <glyph glyph-name="period" unicode="." horiz-adv-x="555" 
d="M403 0h-251v236h251v-236z" />
    <glyph glyph-name="slash" unicode="/" horiz-adv-x="1001" 
d="M264 0h-192l663 1434h193z" />
    <glyph glyph-name="zero" unicode="0" horiz-adv-x="1544" 
d="M772 -20q-137 0 -252.5 45.5t-204.5 134t-139.5 231.5t-50.5 326t50.5 326t140 231.5t205 134t251.5 45.5t251.5 -45.5t205 -134t140 -231.5t50.5 -326t-50.5 -326t-139.5 -231.5t-204.5 -134t-252.5 -45.5zM758 143h28q62 0 120.5 15.5t119 56.5t105 103.5t72.5 165.5
t28 233q0 109 -19.5 199t-53.5 151t-77 105.5t-94.5 69t-100.5 36t-100 10.5h-28q-61 1 -119.5 -14.5t-119 -56t-105 -102.5t-73 -165t-28.5 -233t28.5 -233t73 -165.5t105 -103.5t119 -56.5t119.5 -15.5z" />
    <glyph glyph-name="one" unicode="1" horiz-adv-x="878" 
d="M68 1067l450 367h146v-1434h-181v1192l-415 -334v209z" />
    <glyph glyph-name="two" unicode="2" horiz-adv-x="1347" 
d="M858 561l-514 -389h881v-172h-1104v219l606 463q70 52 108.5 82t81 69t62.5 68.5t33.5 66t13.5 76.5q0 112 -94.5 179t-241.5 67h-28q-148 0 -237.5 -80.5t-94.5 -199.5h-195q6 198 158 321t383 123q237 0 387.5 -108t150.5 -293q0 -62 -18.5 -118.5t-45.5 -99.5
t-79 -94.5t-95 -87t-118 -92.5z" />
    <glyph glyph-name="three" unicode="3" horiz-adv-x="1396" 
d="M692 -20q-252 0 -411 106t-168 285h194q18 -107 121 -167.5t246 -60.5h28q165 0 268 70t103 184q0 111 -94 174.5t-262 63.5h-197v166h197q165 0 255.5 70t90.5 178q0 114 -96.5 177.5t-264.5 63.5h-28q-135 0 -231.5 -66.5t-108.5 -164.5h-195q5 170 158 282.5
t395 112.5q255 0 407 -107.5t152 -283.5q0 -69 -22 -127t-60 -98t-79.5 -67t-90.5 -46q110 -32 186.5 -117t76.5 -209q0 -195 -155.5 -307t-414.5 -112z" />
    <glyph glyph-name="four" unicode="4" horiz-adv-x="1439" 
d="M1085 1434v-942h285v-164h-285v-328h-180v328h-842v196l811 910h211zM905 1229l-659 -737h659v737z" />
    <glyph glyph-name="five" unicode="5" horiz-adv-x="1345" 
d="M715 893q225 0 369.5 -122.5t144.5 -315.5q0 -216 -156.5 -345.5t-413.5 -129.5q-238 0 -392.5 102t-180.5 293h195q29 -110 128.5 -171t235.5 -61h29q169 0 267.5 85t98.5 221q0 126 -98.5 203t-257.5 77h-29q-95 0 -185 -36t-140 -105h-193l174 846h881v-172h-748
l-100 -486q135 117 371 117z" />
    <glyph glyph-name="six" unicode="6" horiz-adv-x="1458" 
d="M766 944q150 0 274.5 -53.5t202.5 -163t78 -256.5q0 -226 -162.5 -358.5t-427.5 -132.5q-287 0 -447.5 165t-160.5 504q0 170 50.5 319t140 256t217.5 168.5t278 61.5q221 0 366.5 -98t170.5 -266h-195q-21 81 -106.5 140.5t-221.5 59.5h-28q-201 0 -338 -151.5
t-162 -399.5q68 99 193 152t278 53zM721 143h29q103 0 187.5 34.5t138.5 108t54 175.5t-54 175.5t-138.5 108.5t-187.5 35h-29q-77 0 -146.5 -20.5t-124.5 -58.5t-87.5 -99.5t-32.5 -138.5q0 -151 112.5 -235.5t278.5 -84.5z" />
    <glyph glyph-name="seven" unicode="7" horiz-adv-x="1261" 
d="M51 1262v172h1143v-189q-329 -167 -489 -458t-160 -746v-41h-189v59q0 423 165.5 733t445.5 470h-916z" />
    <glyph glyph-name="eight" unicode="8" horiz-adv-x="1363" 
d="M682 -20q-225 0 -368.5 107t-143.5 282q0 118 76.5 206.5t171.5 120.5q-51 12 -101 40t-95 70.5t-73 106t-28 136.5q0 177 157 291t404 114q248 0 404.5 -112t156.5 -293q0 -73 -28 -136.5t-73 -106t-95 -70.5t-101 -40q95 -32 171.5 -120.5t76.5 -206.5
q0 -175 -143.5 -282t-368.5 -107zM668 786h28q166 0 262.5 66.5t96.5 185.5q0 118 -97 185t-262 67h-28q-165 0 -262 -67t-97 -185q0 -119 96.5 -185.5t262.5 -66.5zM668 143h28q141 0 225.5 65t84.5 171q0 108 -85 176t-225 68h-28q-140 0 -225 -68t-85 -176
q0 -106 84.5 -171t225.5 -65z" />
    <glyph glyph-name="nine" unicode="9" horiz-adv-x="1458" 
d="M727 1454q287 0 447.5 -165.5t160.5 -504.5q0 -228 -86 -411t-243.5 -288t-356.5 -105q-221 0 -366 98t-170 266h194q21 -81 106.5 -141t221.5 -60h29q201 0 337.5 151.5t161.5 399.5q-68 -99 -193 -152t-278 -53q-112 0 -211.5 31.5t-176.5 90.5t-122 150t-45 202
q0 226 162.5 358.5t427.5 132.5zM709 653h28q105 0 192 34.5t143 108.5t56 175q0 151 -112.5 235t-278.5 84h-28q-103 0 -188 -34.5t-139 -108t-54 -174.5q0 -102 54 -176t139 -109t188 -35z" />
    <glyph glyph-name="colon" unicode=":" horiz-adv-x="550" 
d="M403 788h-251v236h251v-236zM403 0h-251v236h251v-236z" />
    <glyph glyph-name="semicolon" unicode=";" horiz-adv-x="628" 
d="M455 788h-252v236h252v-236zM223 -270h-98v123h96q60 0 87.5 27t27.5 83v37h-137v236h256v-277q0 -111 -61.5 -170t-170.5 -59z" />
    <glyph glyph-name="less" unicode="&#x3c;" horiz-adv-x="1234" 
d="M100 600l979 361v-185l-712 -246l712 -241v-197l-979 361v147z" />
    <glyph glyph-name="equal" unicode="=" horiz-adv-x="1439" 
d="M1280 631h-1120v166h1120v-166zM1280 258h-1120v164h1120v-164z" />
    <glyph glyph-name="greater" unicode="&#x3e;" horiz-adv-x="1236" 
d="M156 762v196l981 -360v-147l-981 -361v184l714 246z" />
    <glyph glyph-name="question" unicode="?" horiz-adv-x="1112" 
d="M465 414h-180v245q0 102 45 144.5t149 42.5h142q104 0 165.5 59.5t61.5 153.5t-65.5 149.5t-182.5 55.5h-512v170h541q177 0 291 -103t114 -270q0 -172 -120.5 -274.5t-319.5 -102.5h-45q-47 0 -65.5 -17.5t-18.5 -54.5v-198zM492 0h-230v227h230v-227z" />
    <glyph glyph-name="at" unicode="@" horiz-adv-x="2172" 
d="M1716 -256h-629q-217 0 -394 56t-306.5 164.5t-200.5 277.5t-71 385q0 163 48.5 302.5t137.5 242.5t211 176t271 110t317 37q214 0 393 -58t301 -159.5t190 -242.5t68 -304q0 -105 -27.5 -194t-73.5 -151t-107.5 -106t-129.5 -64.5t-139 -20.5h-201v137
q-42 -64 -129.5 -111t-200.5 -47q-190 0 -316 119t-126 321q0 200 126.5 315t318.5 115q115 0 197.5 -44t121.5 -105v129h164v-688h37q41 0 81.5 11.5t81.5 40t72 72t50.5 113.5t19.5 158q0 128 -50.5 238t-145.5 192.5t-243.5 129t-332.5 46.5q-370 0 -588.5 -193
t-218.5 -517q0 -342 211.5 -533.5t593.5 -191.5h618v-158zM1059 317h12q127 0 211 85t84 212q0 128 -81 207.5t-208 79.5h-12q-128 0 -206.5 -77t-78.5 -210q0 -134 75 -215.5t204 -81.5z" />
    <glyph glyph-name="A" unicode="A" horiz-adv-x="1613" 
d="M1606 0h-209l-176 375h-834l-176 -375h-203l680 1434h240zM805 1266l-338 -719h674z" />
    <glyph glyph-name="B" unicode="B" horiz-adv-x="1579" 
d="M1010 0h-805v1434h780q189 0 310.5 -103.5t121.5 -275.5q0 -117 -63.5 -203.5t-157.5 -122.5q111 -26 183.5 -115.5t72.5 -224.5q0 -174 -127 -281.5t-315 -107.5zM395 1262v-449h559q128 0 199.5 59.5t71.5 167.5q0 103 -72 162.5t-199 59.5h-559zM395 641v-469h574
q135 0 213 63.5t78 176.5q0 108 -78 168.5t-213 60.5h-574z" />
    <glyph glyph-name="C" unicode="C" horiz-adv-x="1660" 
d="M881 -20q-177 0 -322.5 55t-243.5 153t-151 233.5t-53 295.5q0 157 54.5 292.5t153 234t244 154.5t318.5 56q148 0 271.5 -37.5t207.5 -102t135.5 -148t65.5 -179.5h-205q-30 139 -157 217t-302 78h-33q-172 0 -301 -75.5t-194.5 -202.5t-65.5 -287t65.5 -287
t194.5 -202.5t301 -75.5h33q177 0 302.5 75.5t156.5 218.5h205q-31 -209 -213 -337.5t-467 -128.5z" />
    <glyph glyph-name="D" unicode="D" horiz-adv-x="1699" 
d="M856 0h-651v1434h651q338 0 533.5 -190t195.5 -527t-195.5 -527t-533.5 -190zM395 1262v-1090h441q270 0 413.5 139t143.5 406t-143.5 406t-413.5 139h-441z" />
    <glyph glyph-name="E" unicode="E" horiz-adv-x="1540" 
d="M395 651v-479h1043v-172h-1233v1434h1212v-172h-1022v-439h899v-172h-899z" />
    <glyph glyph-name="F" unicode="F" horiz-adv-x="1439" 
d="M395 0h-190v1434h1171v-172h-981v-480h867v-172h-867v-610z" />
    <glyph glyph-name="G" unicode="G" horiz-adv-x="1748" 
d="M895 -20q-362 0 -573 203t-211 534q0 161 54.5 296.5t154.5 233t248.5 152.5t328.5 55q320 0 501 -135.5t197 -351.5h-204q-5 45 -22.5 87t-54.5 84.5t-89 73.5t-132.5 50.5t-179.5 19.5h-32q-263 0 -420.5 -150t-157.5 -415q0 -264 158.5 -414.5t419.5 -150.5h32
q124 0 225 29t165.5 78t99.5 112.5t35 134.5v45h-535v172h547q82 0 124 -43t42 -125v-555h-178v190q-24 -34 -66 -68t-106.5 -67.5t-161.5 -54t-209 -20.5z" />
    <glyph glyph-name="H" unicode="H" horiz-adv-x="1736" 
d="M395 0h-190v1434h190v-629h946v629h191v-1434h-191v633h-946v-633z" />
    <glyph glyph-name="I" unicode="I" horiz-adv-x="600" 
d="M395 0h-190v1434h190v-1434z" />
    <glyph glyph-name="J" unicode="J" horiz-adv-x="958" 
d="M412 0h-353v178h316q107 0 152.5 46t45.5 153v1057h191v-1082q0 -179 -88.5 -265.5t-263.5 -86.5z" />
    <glyph glyph-name="K" unicode="K" horiz-adv-x="1595" 
d="M1593 0h-260l-637 700l-301 -256v-444h-190v1434h190v-758l885 758h281l-719 -611z" />
    <glyph glyph-name="L" unicode="L" horiz-adv-x="1429" 
d="M1393 0h-1188v1434h190v-1262h998v-172z" />
    <glyph glyph-name="M" unicode="M" horiz-adv-x="2125" 
d="M1065 166l539 1268h317v-1434h-190v1284l-545 -1284h-248l-543 1278v-1278h-190v1434h319z" />
    <glyph glyph-name="N" unicode="N" horiz-adv-x="1730" 
d="M1335 223v1211h191v-1434h-256l-875 1210v-1210h-190v1434h256z" />
    <glyph glyph-name="O" unicode="O" horiz-adv-x="1789" 
d="M897 -20q-225 0 -402.5 87.5t-280.5 256.5t-103 393t103 393t280.5 256.5t402.5 87.5t401.5 -87.5t278.5 -256t102 -393.5t-102 -393.5t-278.5 -256t-401.5 -87.5zM881 152h32q157 0 286.5 65.5t208.5 196t79 303.5t-79 303.5t-208.5 196t-286.5 65.5h-32
q-118 0 -222.5 -38.5t-184 -109t-125.5 -178.5t-46 -239t46 -239t125.5 -178.5t184 -109t222.5 -38.5z" />
    <glyph glyph-name="P" unicode="P" horiz-adv-x="1509" 
d="M395 0h-190v1434h733q220 0 358 -115t138 -315q0 -204 -137.5 -318.5t-358.5 -114.5h-543v-571zM395 1262v-519h512q164 0 249 66.5t85 194.5q0 126 -85 192t-249 66h-512z" />
    <glyph glyph-name="Q" unicode="Q" horiz-adv-x="1789" 
d="M1458 -379h-479q-82 0 -132 46t-50 124v195q-305 32 -495.5 227t-190.5 504q0 224 103 393t280.5 256.5t402.5 87.5t401.5 -87.5t278.5 -256t102 -393.5q0 -158 -51.5 -290t-144.5 -224.5t-221 -149t-281 -69.5v-101q0 -52 20 -71t72 -19h385v-172zM881 152h32
q157 0 286.5 65.5t208.5 196t79 303.5t-79 303.5t-208.5 196t-286.5 65.5h-32q-118 0 -222.5 -38.5t-184 -109t-125.5 -178.5t-46 -239t46 -239t125.5 -178.5t184 -109t222.5 -38.5z" />
    <glyph glyph-name="R" unicode="R" horiz-adv-x="1603" 
d="M395 0h-190v1434h772q202 0 331.5 -111t129.5 -281q0 -130 -66.5 -223.5t-161.5 -126.5q199 0 199 -211v-481h-190v430q0 89 -33 120.5t-125 31.5h-666v-582zM395 1262v-508h551q139 0 219 71t80 187q0 121 -78.5 185.5t-220.5 64.5h-551z" />
    <glyph glyph-name="S" unicode="S" horiz-adv-x="1484" 
d="M756 -20q-314 0 -491 121.5t-181 355.5h205q6 -149 124.5 -227t323.5 -78h33q199 0 294 62t95 171q0 88 -76.5 143t-248.5 84l-224 37q-237 38 -341.5 129t-104.5 273q0 79 34.5 149t102.5 128t182.5 92t261.5 34q283 0 448 -118.5t187 -327.5h-204q-19 131 -127.5 202.5
t-286.5 71.5h-33q-175 0 -274 -63.5t-99 -163.5q0 -91 70 -141t223 -74l230 -37q473 -77 473 -406q0 -199 -154 -308t-442 -109z" />
    <glyph glyph-name="T" unicode="T" horiz-adv-x="1456" 
d="M823 0h-190v1262h-598v172h1386v-172h-598v-1262z" />
    <glyph glyph-name="U" unicode="U" horiz-adv-x="1624" 
d="M811 -20q-307 0 -465 155t-158 430v869h191v-852q0 -210 106.5 -320t309.5 -110h32q204 0 311 109.5t107 320.5v852h191v-869q0 -273 -161 -429t-464 -156z" />
    <glyph glyph-name="V" unicode="V" horiz-adv-x="1628" 
d="M817 162l590 1272h213l-676 -1434h-258l-678 1434h217z" />
    <glyph glyph-name="W" unicode="W" horiz-adv-x="2150" 
d="M1563 172l356 1262h197l-428 -1434h-265l-348 1227l-358 -1227h-264l-412 1434h197l356 -1248l362 1248h254z" />
    <glyph glyph-name="X" unicode="X" horiz-adv-x="1492" 
d="M866 735l609 -735h-244l-486 588l-491 -588h-240l611 733l-580 701h244l459 -555l462 555h240z" />
    <glyph glyph-name="Y" unicode="Y" horiz-adv-x="1449" 
d="M727 780l469 654h231l-608 -826v-608h-190v608l-606 826h233z" />
    <glyph glyph-name="Z" unicode="Z" horiz-adv-x="1421" 
d="M1313 1268l-977 -1096h997v-172h-1245v166l977 1096h-956v172h1204v-166z" />
    <glyph glyph-name="bracketleft" unicode="[" horiz-adv-x="778" 
d="M719 -297h-526v2028h526v-158h-348v-1712h348v-158z" />
    <glyph glyph-name="backslash" unicode="\" horiz-adv-x="1003" 
d="M932 0h-195l-663 1434h194z" />
    <glyph glyph-name="bracketright" unicode="]" horiz-adv-x="778" 
d="M59 1731h527v-2028h-527v158h349v1712h-349v158z" />
    <glyph glyph-name="asciicircum" unicode="^" horiz-adv-x="1220" 
d="M709 1434l424 -850h-185l-342 694l-340 -694h-176l420 850h199z" />
    <glyph glyph-name="underscore" unicode="_" horiz-adv-x="1349" 
d="M1210 -158h-1071v158h1071v-158z" />
    <glyph glyph-name="grave" unicode="`" horiz-adv-x="456" 
d="M403 1161h-139l-209 273h205z" />
    <glyph glyph-name="a" unicode="a" horiz-adv-x="1230" 
d="M492 -20q-190 0 -295 83.5t-105 219.5q0 79 30 138.5t85.5 96.5t125 57t156.5 25l404 25v34q0 115 -76 174.5t-213 59.5h-33q-109 0 -182.5 -43.5t-83.5 -118.5h-184q15 137 144 225t323 88q231 0 358 -107t127 -282v-430q0 -99 14 -225h-169q-15 76 -15 164
q-41 -76 -152 -130t-259 -54zM510 131h29q65 0 126.5 16.5t113 48.5t83 84t31.5 117v86l-338 -18q-151 -9 -216 -52t-65 -120q0 -76 57.5 -119t178.5 -43z" />
    <glyph glyph-name="b" unicode="b" horiz-adv-x="1402" 
d="M752 -20q-122 0 -232.5 46.5t-171.5 127.5v-154h-180v1434h180v-570q53 78 162.5 129t245.5 51q160 0 282 -59t193.5 -180.5t71.5 -292.5q0 -245 -153 -388.5t-398 -143.5zM727 131h29q164 0 264 100.5t100 280.5t-100 280.5t-264 100.5h-29q-166 0 -272.5 -101
t-106.5 -280t106.5 -280t272.5 -101z" />
    <glyph glyph-name="c" unicode="c" horiz-adv-x="1257" 
d="M662 -20q-271 0 -416.5 145t-145.5 387q0 112 39 209t109.5 169t177.5 113t236 41q208 0 344 -95t159 -259h-184q-20 96 -102 149.5t-203 53.5h-29q-175 0 -269.5 -110t-94.5 -271t94.5 -271t269.5 -110h29q117 0 200 57t105 146h184q-24 -156 -161.5 -255t-341.5 -99z
" />
    <glyph glyph-name="d" unicode="d" horiz-adv-x="1402" 
d="M651 -20q-245 0 -398 143.5t-153 388.5q0 255 152 393.5t399 138.5q133 0 241 -50.5t163 -129.5v570h180v-1434h-180v154q-61 -81 -171.5 -127.5t-232.5 -46.5zM647 131h29q166 0 272.5 101t106.5 280t-106.5 280t-272.5 101h-29q-164 0 -264 -100.5t-100 -280.5
t100 -280.5t264 -100.5z" />
    <glyph glyph-name="e" unicode="e" horiz-adv-x="1261" 
d="M1159 553v-70h-874q6 -87 38 -155.5t82 -111t110.5 -64t127.5 -21.5h29q108 0 186.5 45t104.5 123h184q-28 -147 -161 -233t-327 -86q-160 0 -284.5 59t-199.5 183t-75 298q0 125 46.5 227t124.5 165.5t176 97.5t204 34q234 0 371 -135t137 -356zM293 627h676
q-7 132 -92 199t-211 67h-29q-140 0 -228.5 -71t-115.5 -195z" />
    <glyph glyph-name="f" unicode="f" horiz-adv-x="866" 
d="M506 0h-180v870h-283v154h283v193q0 106 55.5 161.5t159.5 55.5h338v-156h-279q-52 0 -73 -23.5t-21 -80.5v-150h311v-154h-311v-870z" />
    <glyph glyph-name="g" unicode="g" horiz-adv-x="1374" 
d="M627 -451q-246 0 -391 86.5t-164 227.5h188q24 -78 117 -120t235 -42h29q170 0 277.5 88t107.5 258v133q-55 -75 -155 -127.5t-238 -52.5q-112 0 -206.5 31.5t-168.5 93.5t-116 163.5t-42 233.5q0 104 28.5 191t78.5 147.5t118 102.5t145.5 61.5t162.5 19.5
q145 0 245.5 -53.5t147.5 -122.5v156h180v-999q0 -100 -37 -186t-107.5 -151t-182 -102t-252.5 -37zM631 152h28q93 0 175.5 43t137 129.5t54.5 197.5t-51 197.5t-131.5 130t-173.5 43.5h-29q-74 0 -136.5 -21.5t-113 -64.5t-79.5 -116t-29 -169q0 -187 97 -278.5t251 -91.5
z" />
    <glyph glyph-name="h" unicode="h" horiz-adv-x="1339" 
d="M348 0h-180v1434h180v-582q131 192 402 192q205 0 320.5 -116.5t115.5 -304.5v-623h-180v573q0 148 -68.5 234t-204.5 86h-28q-69 0 -133.5 -27.5t-114 -75.5t-79.5 -119.5t-30 -154.5v-516z" />
    <glyph glyph-name="i" unicode="i" horiz-adv-x="518" 
d="M360 1206h-204v211h204v-211zM348 0h-180v1024h180v-1024z" />
    <glyph glyph-name="j" unicode="j" horiz-adv-x="534" 
d="M379 1206h-203v211h203v-211zM156 -365h-418v158h354q54 0 75 20t21 74v1137h181v-1167q0 -105 -55.5 -163.5t-157.5 -58.5z" />
    <glyph glyph-name="k" unicode="k" horiz-adv-x="1243" 
d="M1231 0h-244l-452 494l-187 -150v-344h-180v1434h180v-895l596 485h264l-536 -424z" />
    <glyph glyph-name="l" unicode="l" horiz-adv-x="514" 
d="M348 0h-180v1434h180v-1434z" />
    <glyph glyph-name="m" unicode="m" horiz-adv-x="2134" 
d="M348 0h-180v1024h180v-147q120 167 375 167q133 0 237.5 -53t153.5 -157q62 108 171.5 159t236.5 51q118 0 207.5 -33t143.5 -92.5t80.5 -137.5t26.5 -173v-608h-180v580q0 144 -70.5 228.5t-211.5 84.5h-29q-144 0 -235 -105t-91 -280v-508h-180v580q0 144 -70 228.5
t-211 84.5h-28q-146 0 -236 -104.5t-90 -280.5v-508z" />
    <glyph glyph-name="n" unicode="n" horiz-adv-x="1339" 
d="M348 0h-180v1024h180v-176q57 88 159 142t243 54q205 0 320.5 -116.5t115.5 -304.5v-623h-180v573q0 148 -68.5 234t-204.5 86h-28q-69 0 -133.5 -27.5t-114 -75.5t-79.5 -119.5t-30 -154.5v-516z" />
    <glyph glyph-name="o" unicode="o" horiz-adv-x="1345" 
d="M674 -20q-257 0 -416.5 145.5t-159.5 386.5t159.5 386.5t416.5 145.5q255 0 414 -145.5t159 -386.5t-159 -386.5t-414 -145.5zM659 131h29q164 0 270.5 103t106.5 278t-106.5 278t-270.5 103h-29q-166 0 -272 -103t-106 -278t106 -278t272 -103z" />
    <glyph glyph-name="p" unicode="p" horiz-adv-x="1402" 
d="M348 -410h-180v1434h180v-156q57 80 169.5 128t232.5 48q248 0 400.5 -143t152.5 -389q0 -170 -72 -292t-194.5 -181t-282.5 -59q-136 0 -244.5 50t-161.5 128v-568zM727 131h29q164 0 264 100.5t100 280.5t-100 280.5t-264 100.5h-29q-166 0 -272.5 -101t-106.5 -280
t106.5 -280t272.5 -101z" />
    <glyph glyph-name="q" unicode="q" horiz-adv-x="1402" 
d="M1235 -410h-180v570q-54 -78 -163.5 -129t-244.5 -51q-159 0 -281 59t-194 181t-72 292q0 246 152.5 389t400.5 143q122 0 232 -48.5t170 -127.5v156h180v-1434zM645 131h29q167 0 274 101t107 280t-107 280t-274 101h-29q-164 0 -263 -100t-99 -281t99 -281t263 -100z
" />
    <glyph glyph-name="r" unicode="r" horiz-adv-x="870" 
d="M348 0h-180v1024h170v-209q41 107 120 158t214 51h155v-176h-163q-153 0 -234.5 -84.5t-81.5 -243.5v-520z" />
    <glyph glyph-name="s" unicode="s" horiz-adv-x="1146" 
d="M567 -20q-227 0 -352.5 88.5t-134.5 244.5h184q9 -90 89.5 -136t199.5 -46h29q128 0 199 34.5t71 104.5q0 56 -47.5 90t-167.5 58l-170 33q-168 31 -253 96.5t-85 189.5q0 146 124 226.5t314 80.5q230 0 353 -88t135 -245h-185q-10 79 -84.5 130.5t-203.5 51.5h-29
q-113 0 -177.5 -39t-64.5 -100q0 -55 44 -84.5t173 -55.5l160 -30q168 -31 257 -102.5t89 -198.5q0 -139 -125 -221t-342 -82z" />
    <glyph glyph-name="t" unicode="t" horiz-adv-x="909" 
d="M858 0h-338q-105 0 -163 59.5t-58 167.5v643h-266v154h266v332h180v-332h334v-154h-334v-610q0 -57 22.5 -79.5t78.5 -22.5h278v-158z" />
    <glyph glyph-name="u" unicode="u" horiz-adv-x="1323" 
d="M575 -20q-202 0 -310.5 108.5t-108.5 296.5v639h180v-592q0 -149 63.5 -225t198.5 -76h29q143 0 245.5 101t102.5 266v526h180v-1024h-180v188q-54 -94 -154.5 -151t-245.5 -57z" />
    <glyph glyph-name="v" unicode="v" horiz-adv-x="1218" 
d="M608 178l391 846h195l-479 -1024h-213l-475 1024h200z" />
    <glyph glyph-name="w" unicode="w" horiz-adv-x="1798" 
d="M1292 184l283 840h190l-376 -1024h-207l-283 807l-285 -807h-204l-377 1024h190l293 -823l287 823h190z" />
    <glyph glyph-name="x" unicode="x" horiz-adv-x="1183" 
d="M707 522l440 -522h-236l-323 383l-326 -383h-225l440 516l-428 508h236l309 -369l313 369h226z" />
    <glyph glyph-name="y" unicode="y" horiz-adv-x="1255" 
d="M522 -365h-411v158h354q52 0 71 19.5t19 70.5v170l-514 971h205l403 -770l385 770h203l-502 -963v-213q0 -213 -213 -213z" />
    <glyph glyph-name="z" unicode="z" horiz-adv-x="1142" 
d="M1030 866l-708 -710h739v-156h-971v158l711 710h-701v156h930v-158z" />
    <glyph glyph-name="braceleft" unicode="{" horiz-adv-x="811" 
d="M745 -297h-215q-132 0 -189.5 75t-57.5 238v424q0 79 -21 107t-82 28h-102v283h102q61 0 82 28t21 107v424q0 163 57.5 238.5t189.5 75.5h215v-158h-165q-74 0 -96.5 -31.5t-22.5 -122.5v-508q0 -174 -164 -174h-51v-41h51q164 0 164 -174v-508q0 -91 22.5 -122t96.5 -31
h165v-158z" />
    <glyph glyph-name="bar" unicode="|" horiz-adv-x="569" 
d="M375 -174h-182v1782h182v-1782z" />
    <glyph glyph-name="braceright" unicode="}" horiz-adv-x="808" 
d="M63 1733h216q133 0 191 -75t58 -239v-424q0 -79 21 -107t82 -28h100v-282h-100q-61 0 -82 -28.5t-21 -107.5v-424q0 -163 -58 -238t-191 -75h-216v158h168q74 0 96.5 31t22.5 122v508q0 174 164 174h51v41h-51q-164 0 -164 174v508q0 91 -22.5 122.5t-96.5 31.5h-168v158
z" />
    <glyph glyph-name="asciitilde" unicode="~" horiz-adv-x="1150" 
d="M807 709q-85 0 -207 59l-96 39q-75 35 -115 35q-80 0 -80 -117h-137v43q0 95 55 154t142 59q83 0 200 -55l90 -39q88 -39 125 -39q72 0 72 117h137v-43q0 -94 -52 -153.5t-134 -59.5z" />
    <glyph glyph-name="uni00A0" unicode="&#xa0;" horiz-adv-x="561" 
 />
    <glyph glyph-name="exclamdown" unicode="&#xa1;" horiz-adv-x="528" 
d="M152 1024h229v-227h-229v227zM219 625h88l51 -584v-451h-190v451z" />
    <glyph glyph-name="cent" unicode="&#xa2;" horiz-adv-x="1286" 
d="M989 334h189q-28 -161 -163.5 -257.5t-340.5 -96.5h-41l-45 -226h-162l49 250q-178 50 -272 184t-94 324q0 231 152 381.5t413 150.5h6l45 226h162l-47 -244q142 -33 231.5 -120.5t104.5 -215.5h-189q-13 67 -60 113t-118 67l-145 -731h24q116 0 197 55t104 140zM293 512
q0 -117 55 -211t160 -135l141 721q-117 -3 -199 -56t-119.5 -134.5t-37.5 -184.5z" />
    <glyph glyph-name="sterling" unicode="&#xa3;" horiz-adv-x="1331" 
d="M442 164h807v-164h-1147v164h99q72 0 107.5 39t43.5 116l27 263l-273 -58v166l291 62l27 252q15 143 60 235.5t135 143.5t227 51h301v-164h-303q-119 0 -170.5 -68.5t-67.5 -208.5l-22 -202l313 65v-166l-330 -69l-30 -283q-6 -65 -28 -104.5t-67 -69.5z" />
    <glyph glyph-name="currency" unicode="&#xa4;" horiz-adv-x="1591" 
d="M1368 625q0 -162 -92 -301l188 -183l-112 -114l-189 178q-158 -123 -370 -123q-206 0 -367 119l-184 -174l-113 114l184 178q-98 138 -98 306q0 167 92 295l-178 178l113 114l182 -174q153 119 369 119q217 0 372 -123l187 178l112 -114l-184 -185q88 -131 88 -288z
M793 244h10q163 0 274 108t111 273q0 163 -110.5 266.5t-274.5 103.5h-21q-166 0 -276.5 -102.5t-110.5 -267.5t116 -273t282 -108z" />
    <glyph glyph-name="yen" unicode="&#xa5;" horiz-adv-x="1538" 
d="M1243 1434h232l-447 -607l244 50v-160l-383 -78l-23 -31v-147l344 67v-159l-344 -68v-301h-190v264l-350 -69v159l350 70v172l-412 -82v160l318 63l-514 697h237l471 -650z" />
    <glyph glyph-name="brokenbar" unicode="&#xa6;" horiz-adv-x="581" 
d="M381 874h-182v734h182v-734zM381 -174h-182v754h182v-754z" />
    <glyph glyph-name="section" unicode="&#xa7;" horiz-adv-x="1214" 
d="M709 -123h-523v164h521q80 0 125 28.5t45 86.5q0 53 -36 85t-122 54l-293 70q-158 38 -240 108t-82 191q0 159 175 266q-109 77 -109 223q0 132 92 206.5t252 74.5h481v-164h-479q-170 0 -170 -111q0 -53 36.5 -86.5t121.5 -54.5l293 -72q158 -39 239.5 -108.5
t81.5 -190.5q0 -159 -174 -264q109 -77 109 -225q0 -131 -92.5 -206t-251.5 -75zM496 518l286 -69q95 39 128.5 83t33.5 95q0 35 -17 63t-50 47t-68 32t-82 24l-287 69q-95 -39 -128 -83t-33 -95q0 -35 17 -63t50 -47t68 -32t82 -24z" />
    <glyph glyph-name="dieresis" unicode="&#xa8;" horiz-adv-x="755" 
d="M268 1206h-209v201h209v-201zM696 1206h-209v201h209v-201z" />
    <glyph glyph-name="copyright" unicode="&#xa9;" horiz-adv-x="2127" 
d="M1063 -82q-201 0 -378 61.5t-303 167.5t-198.5 254.5t-72.5 315.5t72.5 315.5t198.5 254.5t303 167.5t378 61.5q162 0 309 -39.5t263.5 -112t202.5 -170.5t132.5 -220.5t46.5 -256.5t-46.5 -256.5t-132.5 -220.5t-202.5 -170.5t-263.5 -112t-309 -39.5zM1063 55
q228 0 414 87.5t290.5 239.5t104.5 335t-104.5 334.5t-290.5 239t-414 87.5t-413.5 -87.5t-289.5 -238.5t-104 -335q0 -137 61 -259.5t167.5 -211t257 -140t321.5 -51.5zM1069 326q-182 0 -294.5 104t-112.5 297q0 191 111 298.5t296 107.5q161 0 259.5 -75.5t109.5 -195.5
h-158q-12 64 -66 103t-139 39h-14q-115 0 -179.5 -78t-64.5 -199t64.5 -196.5t179.5 -75.5h14q82 0 136.5 39t74.5 102h154q-24 -120 -120.5 -195t-250.5 -75z" />
    <glyph glyph-name="ordfeminine" unicode="&#xaa;" horiz-adv-x="851" 
d="M354 840q-104 0 -169.5 47.5t-65.5 128.5q0 83 62 130t173 56l203 15v14q0 46 -35.5 72t-101.5 26h-12q-55 0 -93 -22.5t-43 -57.5h-139q7 86 87 140.5t196 54.5q126 0 204 -59.5t78 -161.5v-240q0 -58 11 -133h-134q-6 17 -10 76q-32 -41 -88.5 -63.5t-122.5 -22.5z
M371 954h14q76 0 124 32t48 89v43l-168 -14q-129 -9 -129 -80q0 -32 30 -51t81 -19z" />
    <glyph glyph-name="guillemotleft" unicode="&#xab;" horiz-adv-x="1228" 
d="M457 1024h217l-367 -438l367 -443h-217l-375 441zM920 1024h217l-367 -438l367 -443h-217l-375 441z" />
    <glyph glyph-name="logicalnot" unicode="&#xac;" horiz-adv-x="1331" 
d="M1165 260h-184v287h-821v164h1005v-451z" />
    <glyph glyph-name="uni00AD" unicode="&#xad;" horiz-adv-x="921" 
d="M772 541h-622v157h622v-157z" />
    <glyph glyph-name="registered" unicode="&#xae;" horiz-adv-x="2127" 
d="M1063 -82q-201 0 -378 61.5t-303 167.5t-198.5 254.5t-72.5 315.5t72.5 315.5t198.5 254.5t303 167.5t378 61.5q162 0 309 -39.5t263.5 -112t202.5 -170.5t132.5 -220.5t46.5 -256.5t-46.5 -256.5t-132.5 -220.5t-202.5 -170.5t-263.5 -112t-309 -39.5zM1063 55
q228 0 414 87.5t290.5 239.5t104.5 335t-104.5 334.5t-290.5 239t-414 87.5t-413.5 -87.5t-289.5 -238.5t-104 -335q0 -137 61 -259.5t167.5 -211t257 -140t321.5 -51.5zM899 344h-145v770h391q122 0 192 -59.5t70 -153.5q0 -79 -44 -129.5t-112 -64.5q72 0 109 -29.5
t37 -97.5v-236h-146v199q0 92 -100 92h-252v-291zM899 983v-225h205q158 0 158 116q0 59 -39.5 84t-120.5 25h-203z" />
    <glyph glyph-name="macron" unicode="&#xaf;" horiz-adv-x="778" 
d="M717 1206h-656v144h656v-144z" />
    <glyph glyph-name="degree" unicode="&#xb0;" horiz-adv-x="962" 
d="M481 696q-162 0 -270.5 108.5t-108.5 270.5t108.5 270.5t270.5 108.5q161 0 270 -109t109 -270t-109 -270t-270 -109zM481 850q89 0 152 65.5t63 159.5t-63 159.5t-152 65.5t-152 -65.5t-63 -159.5t63 -159.5t152 -65.5z" />
    <glyph glyph-name="plusminus" unicode="&#xb1;" horiz-adv-x="1394" 
d="M788 322h-182v264h-448v164h448v274h182v-274h449v-164h-449v-264zM1237 0h-1079v164h1079v-164z" />
    <glyph glyph-name="uni00B2" unicode="&#xb2;" horiz-adv-x="815" 
d="M733 850h-655v147l348 246q96 69 124 104.5t28 82.5q0 51 -45 82.5t-115 31.5h-15q-71 0 -122 -33.5t-52 -89.5h-147q1 109 96 178.5t234 69.5q136 0 225.5 -66t89.5 -171q0 -83 -47.5 -142t-142.5 -127l-269 -188h465v-125z" />
    <glyph glyph-name="uni00B3" unicode="&#xb3;" horiz-adv-x="823" 
d="M403 840q-145 0 -238 64.5t-93 172.5h147q5 -53 51.5 -83.5t124.5 -30.5h15q80 0 130 32t50 86q0 53 -45.5 84t-124.5 31h-131v121h131q77 0 120.5 31.5t43.5 85.5t-45 83t-127 29h-15q-73 0 -118 -32t-48 -80h-145q-3 104 88.5 169.5t233.5 65.5q144 0 234.5 -62
t90.5 -165q0 -58 -38 -106t-103 -76q67 -26 106 -75t39 -108q0 -109 -93 -173t-241 -64z" />
    <glyph glyph-name="acute" unicode="&#xb4;" horiz-adv-x="456" 
d="M193 1161h-140l144 273h204z" />
    <glyph glyph-name="uni00B5" unicode="&#xb5;" horiz-adv-x="1394" 
d="M375 -410h-178v1434h178v-606q0 -291 272 -291h27q141 0 243.5 99.5t102.5 262.5v535h178v-1024h-178v188q-50 -95 -151 -151.5t-246 -56.5q-148 0 -248 59v-449z" />
    <glyph glyph-name="paragraph" unicode="&#xb6;" horiz-adv-x="1505" 
d="M739 -410h-174v1033h-67q-180 0 -304 119t-124 286q0 168 123 287t299 119h909v-158h-178v-1686h-174v1686h-310v-1686z" />
    <glyph glyph-name="periodcentered" unicode="&#xb7;" horiz-adv-x="552" 
d="M403 594h-253v235h253v-235z" />
    <glyph glyph-name="cedilla" unicode="&#xb8;" horiz-adv-x="516" 
d="M211 -475h-150v131h150q119 0 119 76q0 38 -30 58t-83 20h-63v221h110v-123q88 -5 143.5 -53.5t55.5 -126.5q0 -97 -70 -150t-182 -53z" />
    <glyph glyph-name="uni00B9" unicode="&#xb9;" horiz-adv-x="600" 
d="M467 850h-145v629l-273 -187v154l309 213h109v-809z" />
    <glyph glyph-name="ordmasculine" unicode="&#xba;" horiz-adv-x="886" 
d="M442 840q-150 0 -243 83t-93 218q0 136 93 219.5t243 83.5t244 -83.5t94 -219.5t-94 -218.5t-244 -82.5zM436 956h15q85 0 135.5 50t50.5 135t-51 135.5t-137 50.5h-13q-84 0 -135 -51t-51 -135q0 -83 51 -134t135 -51z" />
    <glyph glyph-name="guillemotright" unicode="&#xbb;" horiz-adv-x="1228" 
d="M90 1024h219l375 -440l-375 -441h-217l367 441zM553 1024h219l375 -440l-375 -441h-217l367 441z" />
    <glyph glyph-name="onequarter" unicode="&#xbc;" horiz-adv-x="1914" 
d="M469 625h-145v628l-275 -186v154l309 213h111v-809zM387 0h-172l1022 1434h172zM1636 0h-137v182h-473v133l467 494h143v-504h146v-123h-146v-182zM1499 637l-321 -332h321v332z" />
    <glyph glyph-name="onehalf" unicode="&#xbd;" horiz-adv-x="1894" 
d="M469 625h-145v628l-275 -186v154l309 213h111v-809zM387 0h-172l1022 1434h172zM1763 0h-655v147l348 246q96 69 124 104.5t28 82.5q0 51 -45 82.5t-115 31.5h-14q-71 0 -122 -33.5t-52 -89.5h-148q1 109 96 178.5t234 69.5q136 0 225.5 -66t89.5 -171q0 -83 -47.5 -142
t-142.5 -127l-269 -188h465v-125z" />
    <glyph glyph-name="threequarters" unicode="&#xbe;" horiz-adv-x="2091" 
d="M403 614q-145 0 -238 65t-93 173h147q5 -53 52 -84t124 -31h15q80 0 130 32.5t50 86.5q0 53 -45.5 84t-124.5 31h-131v121h131q78 0 121 31t43 85t-45 83.5t-127 29.5h-15q-73 0 -118 -32.5t-48 -80.5h-145q-3 104 89 170t233 66q144 0 234.5 -62t90.5 -165
q0 -58 -38 -106.5t-103 -76.5q68 -26 106.5 -75t38.5 -107q0 -109 -93 -173.5t-241 -64.5zM610 0h-172l1022 1434h172zM1860 0h-138v182h-473v133l467 494h144v-504h145v-123h-145v-182zM1722 637l-321 -332h321v332z" />
    <glyph glyph-name="questiondown" unicode="&#xbf;" horiz-adv-x="1095" 
d="M612 1024h232v-227h-232v227zM639 610h180v-245q0 -102 -44.5 -144.5t-149.5 -42.5h-140q-104 0 -166.5 -59.5t-62.5 -153.5t66 -149.5t184 -55.5h512v-170h-543q-177 0 -290 103t-113 270q0 173 120 275t320 102h45q47 0 64.5 17t17.5 55v198z" />
    <glyph glyph-name="Agrave" unicode="&#xc0;" horiz-adv-x="1613" 
d="M743 1823l148 -262h-164l-225 262h241zM1606 0h-209l-176 375h-834l-176 -375h-203l680 1434h240zM805 1266l-338 -719h674z" />
    <glyph glyph-name="Aacute" unicode="&#xc1;" horiz-adv-x="1613" 
d="M879 1823h239l-225 -262h-162zM1606 0h-209l-176 375h-834l-176 -375h-203l680 1434h240zM805 1266l-338 -719h674z" />
    <glyph glyph-name="Acircumflex" unicode="&#xc2;" horiz-adv-x="1613" 
d="M1038 1561l-231 145l-234 -145h-182l291 262h250l289 -262h-183zM1606 0h-209l-176 375h-834l-176 -375h-203l680 1434h240zM805 1266l-338 -719h674z" />
    <glyph glyph-name="Atilde" unicode="&#xc3;" horiz-adv-x="1613" 
d="M629 1694q-90 0 -90 -113h-152v43q0 91 60 151t159 60q58 0 98.5 -12t92.5 -39l69 -39q73 -43 119 -43q90 0 90 113h152v-43q0 -91 -60 -151t-159 -60q-59 0 -100 13t-101 46l-68 37q-68 37 -110 37zM1606 0h-209l-176 375h-834l-176 -375h-203l680 1434h240zM805 1266
l-338 -719h674z" />
    <glyph glyph-name="Adieresis" unicode="&#xc4;" horiz-adv-x="1613" 
d="M477 1792h207v-197h-207v197zM918 1792h206v-197h-206v197zM1606 0h-209l-176 375h-834l-176 -375h-203l680 1434h240zM805 1266l-338 -719h674z" />
    <glyph glyph-name="Aring" unicode="&#xc5;" horiz-adv-x="1613" 
d="M805 1542q-94 0 -158.5 52.5t-64.5 131.5t64.5 132t158.5 53q96 0 160.5 -53t64.5 -132t-64.5 -131.5t-160.5 -52.5zM807 1806q-46 0 -74 -22.5t-28 -57.5q0 -34 28 -56.5t74 -22.5t73 22t27 57t-27 57.5t-73 22.5zM1606 0h-209l-176 375h-834l-176 -375h-203l680 1434
h240zM805 1266l-338 -719h674z" />
    <glyph glyph-name="AE" unicode="&#xc6;" horiz-adv-x="2353" 
d="M1372 653l68 -485h850v-168h-1012l-53 377h-760l-268 -377h-220l1022 1434h1168v-168h-879l62 -445h755v-168h-733zM1100 1272l-514 -723h614z" />
    <glyph glyph-name="Ccedilla" unicode="&#xc7;" horiz-adv-x="1660" 
d="M864 152h33q177 0 302.5 75.5t156.5 218.5h205q-30 -199 -197 -325.5t-430 -138.5v-74q88 -5 143.5 -53.5t55.5 -126.5q0 -97 -70 -150t-182 -53h-150v131h152q116 0 116 76q0 78 -112 78h-64v172q-219 11 -381.5 108.5t-246.5 259t-84 367.5q0 157 54.5 292.5t153 234
t244 154.5t318.5 56q148 0 271.5 -37.5t207.5 -102t135.5 -148t65.5 -179.5h-205q-30 139 -157 217t-302 78h-33q-172 0 -301 -75.5t-194.5 -202.5t-65.5 -287t65.5 -287t194.5 -202.5t301 -75.5z" />
    <glyph glyph-name="Egrave" unicode="&#xc8;" horiz-adv-x="1540" 
d="M750 1823l145 -262h-162l-225 262h242zM395 651v-479h1043v-172h-1233v1434h1212v-172h-1022v-439h899v-172h-899z" />
    <glyph glyph-name="Eacute" unicode="&#xc9;" horiz-adv-x="1540" 
d="M883 1823h239l-225 -262h-160zM395 651v-479h1043v-172h-1233v1434h1212v-172h-1022v-439h899v-172h-899z" />
    <glyph glyph-name="Ecircumflex" unicode="&#xca;" horiz-adv-x="1540" 
d="M1042 1561l-229 145l-233 -145h-185l291 262h250l291 -262h-185zM395 651v-479h1043v-172h-1233v1434h1212v-172h-1022v-439h899v-172h-899z" />
    <glyph glyph-name="Edieresis" unicode="&#xcb;" horiz-adv-x="1540" 
d="M481 1792h207v-197h-207v197zM922 1792h208v-197h-208v197zM395 651v-479h1043v-172h-1233v1434h1212v-172h-1022v-439h899v-172h-899z" />
    <glyph glyph-name="Igrave" unicode="&#xcc;" horiz-adv-x="600" 
d="M383 1561h-162l-225 262h242zM395 0h-190v1434h190v-1434z" />
    <glyph glyph-name="Iacute" unicode="&#xcd;" horiz-adv-x="600" 
d="M387 1561h-162l146 262h241zM395 0h-190v1434h190v-1434z" />
    <glyph glyph-name="Icircumflex" unicode="&#xce;" horiz-adv-x="600" 
d="M68 1561h-183l289 262h250l291 -262h-183l-231 145zM395 0h-190v1434h190v-1434z" />
    <glyph glyph-name="Idieresis" unicode="&#xcf;" horiz-adv-x="600" 
d="M178 1595h-209v197h209v-197zM618 1595h-206v197h206v-197zM395 0h-190v1434h190v-1434z" />
    <glyph glyph-name="Eth" unicode="&#xd0;" horiz-adv-x="1742" 
d="M248 1434h651q338 0 533.5 -190t195.5 -527t-195.5 -527t-533.5 -190h-651v635h-199v164h199v635zM438 172h441q270 0 413.5 139t143.5 406t-143.5 406t-413.5 139h-441v-463h385v-164h-385v-463z" />
    <glyph glyph-name="Ntilde" unicode="&#xd1;" horiz-adv-x="1730" 
d="M686 1694q-90 0 -90 -113h-152v43q0 91 61 151t161 60q58 0 97.5 -12t90.5 -39l70 -39q73 -43 120 -43q42 0 65.5 28.5t23.5 84.5h151v-43q0 -91 -60 -151t-159 -60q-59 0 -100 13t-101 46l-67 37q-65 37 -111 37zM1335 223v1211h191v-1434h-256l-875 1210v-1210h-190
v1434h256z" />
    <glyph glyph-name="Ograve" unicode="&#xd2;" horiz-adv-x="1789" 
d="M979 1561h-162l-225 262h242zM897 -20q-225 0 -402.5 87.5t-280.5 256.5t-103 393t103 393t280.5 256.5t402.5 87.5t401.5 -87.5t278.5 -256t102 -393.5t-102 -393.5t-278.5 -256t-401.5 -87.5zM881 152h32q157 0 286.5 65.5t208.5 196t79 303.5t-79 303.5t-208.5 196
t-286.5 65.5h-32q-118 0 -222.5 -38.5t-184 -109t-125.5 -178.5t-46 -239t46 -239t125.5 -178.5t184 -109t222.5 -38.5z" />
    <glyph glyph-name="Oacute" unicode="&#xd3;" horiz-adv-x="1789" 
d="M981 1561h-160l146 262h239zM897 -20q-225 0 -402.5 87.5t-280.5 256.5t-103 393t103 393t280.5 256.5t402.5 87.5t401.5 -87.5t278.5 -256t102 -393.5t-102 -393.5t-278.5 -256t-401.5 -87.5zM881 152h32q157 0 286.5 65.5t208.5 196t79 303.5t-79 303.5t-208.5 196
t-286.5 65.5h-32q-118 0 -222.5 -38.5t-184 -109t-125.5 -178.5t-46 -239t46 -239t125.5 -178.5t184 -109t222.5 -38.5z" />
    <glyph glyph-name="Ocircumflex" unicode="&#xd4;" horiz-adv-x="1789" 
d="M664 1561h-185l291 262h250l291 -262h-185l-229 145zM897 -20q-225 0 -402.5 87.5t-280.5 256.5t-103 393t103 393t280.5 256.5t402.5 87.5t401.5 -87.5t278.5 -256t102 -393.5t-102 -393.5t-278.5 -256t-401.5 -87.5zM881 152h32q157 0 286.5 65.5t208.5 196t79 303.5
t-79 303.5t-208.5 196t-286.5 65.5h-32q-118 0 -222.5 -38.5t-184 -109t-125.5 -178.5t-46 -239t46 -239t125.5 -178.5t184 -109t222.5 -38.5z" />
    <glyph glyph-name="Otilde" unicode="&#xd5;" horiz-adv-x="1789" 
d="M1096 1561q-59 0 -100 13t-101 46l-68 37q-65 37 -110 37q-90 0 -90 -113h-152v43q0 91 61 151t160 60q58 0 98.5 -12t90.5 -39l69 -39q73 -43 121 -43q88 0 88 113h152v-43q0 -91 -60 -151t-159 -60zM897 -20q-225 0 -402.5 87.5t-280.5 256.5t-103 393t103 393
t280.5 256.5t402.5 87.5t401.5 -87.5t278.5 -256t102 -393.5t-102 -393.5t-278.5 -256t-401.5 -87.5zM881 152h32q157 0 286.5 65.5t208.5 196t79 303.5t-79 303.5t-208.5 196t-286.5 65.5h-32q-118 0 -222.5 -38.5t-184 -109t-125.5 -178.5t-46 -239t46 -239t125.5 -178.5
t184 -109t222.5 -38.5z" />
    <glyph glyph-name="Odieresis" unicode="&#xd6;" horiz-adv-x="1789" 
d="M772 1595h-207v197h207v-197zM1214 1595h-208v197h208v-197zM897 -20q-225 0 -402.5 87.5t-280.5 256.5t-103 393t103 393t280.5 256.5t402.5 87.5t401.5 -87.5t278.5 -256t102 -393.5t-102 -393.5t-278.5 -256t-401.5 -87.5zM881 152h32q157 0 286.5 65.5t208.5 196
t79 303.5t-79 303.5t-208.5 196t-286.5 65.5h-32q-118 0 -222.5 -38.5t-184 -109t-125.5 -178.5t-46 -239t46 -239t125.5 -178.5t184 -109t222.5 -38.5z" />
    <glyph glyph-name="multiply" unicode="&#xd7;" horiz-adv-x="1314" 
d="M1028 961l109 -125l-353 -308l353 -307l-111 -125l-369 322l-370 -324l-111 127l354 307l-352 308l109 125l370 -322z" />
    <glyph glyph-name="Oslash" unicode="&#xd8;" horiz-adv-x="1808" 
d="M1571 1499l119 -121l-172 -172q172 -194 172 -489q0 -225 -102.5 -393.5t-279 -256t-401.5 -87.5q-282 0 -487 139l-182 -182l-119 122l172 172q-170 197 -170 486q0 224 103 393t280.5 256.5t402.5 87.5q281 0 482 -135zM313 717q0 -207 113 -352l831 823
q-145 94 -333 94h-33q-118 0 -222.5 -38.5t-184 -109t-125.5 -178.5t-46 -239zM1497 717q0 209 -115 356l-831 -825q146 -96 340 -96h33q157 0 286 65.5t208 196t79 303.5z" />
    <glyph glyph-name="Ugrave" unicode="&#xd9;" horiz-adv-x="1624" 
d="M895 1561h-164l-225 262h242zM811 -20q-307 0 -465 155t-158 430v869h191v-852q0 -210 106.5 -320t309.5 -110h32q204 0 311 109.5t107 320.5v852h191v-869q0 -273 -161 -429t-464 -156z" />
    <glyph glyph-name="Uacute" unicode="&#xda;" horiz-adv-x="1624" 
d="M897 1561h-162l148 262h239zM811 -20q-307 0 -465 155t-158 430v869h191v-852q0 -210 106.5 -320t309.5 -110h32q204 0 311 109.5t107 320.5v852h191v-869q0 -273 -161 -429t-464 -156z" />
    <glyph glyph-name="Ucircumflex" unicode="&#xdb;" horiz-adv-x="1624" 
d="M578 1561h-183l291 262h250l289 -262h-183l-231 145zM811 -20q-307 0 -465 155t-158 430v869h191v-852q0 -210 106.5 -320t309.5 -110h32q204 0 311 109.5t107 320.5v852h191v-869q0 -273 -161 -429t-464 -156z" />
    <glyph glyph-name="Udieresis" unicode="&#xdc;" horiz-adv-x="1624" 
d="M688 1595h-207v197h207v-197zM1128 1595h-206v197h206v-197zM811 -20q-307 0 -465 155t-158 430v869h191v-852q0 -210 106.5 -320t309.5 -110h32q204 0 311 109.5t107 320.5v852h191v-869q0 -273 -161 -429t-464 -156z" />
    <glyph glyph-name="Yacute" unicode="&#xdd;" horiz-adv-x="1449" 
d="M799 1823h239l-225 -262h-162zM727 780l469 654h231l-608 -826v-608h-190v608l-606 826h233z" />
    <glyph glyph-name="Thorn" unicode="&#xde;" horiz-adv-x="1536" 
d="M395 0h-190v1434h190v-291h543q220 0 358 -114.5t138 -311.5q0 -201 -137.5 -314.5t-358.5 -113.5h-543v-289zM395 971v-510h512q164 0 249 65.5t85 190.5q0 123 -85 188.5t-249 65.5h-512z" />
    <glyph glyph-name="germandbls" unicode="&#xdf;" horiz-adv-x="1277" 
d="M342 -379h-174v1366q0 203 132.5 335t358.5 132q113 0 204 -30.5t148 -82.5t87 -118t30 -140q0 -119 -68 -204.5t-149 -112.5q31 -8 64.5 -25t70.5 -46.5t66 -67.5t47.5 -92t18.5 -115q0 -134 -63.5 -230.5t-169 -143t-240.5 -46.5h-209v162h180q150 0 234.5 69.5
t84.5 194.5q0 118 -81 187t-224 69h-194v152h184q76 0 131.5 20t86 54.5t44.5 74t14 84.5q0 107 -77 171.5t-209 64.5h-21q-133 0 -220 -84.5t-87 -243.5v-1354z" />
    <glyph glyph-name="agrave" unicode="&#xe0;" horiz-adv-x="1230" 
d="M676 1161h-139l-209 273h207zM492 -20q-190 0 -295 83.5t-105 219.5q0 79 30 138.5t85.5 96.5t125 57t156.5 25l404 25v34q0 115 -76 174.5t-213 59.5h-33q-109 0 -182.5 -43.5t-83.5 -118.5h-184q15 137 144 225t323 88q231 0 358 -107t127 -282v-430q0 -99 14 -225
h-169q-15 76 -15 164q-41 -76 -152 -130t-259 -54zM510 131h29q65 0 126.5 16.5t113 48.5t83 84t31.5 117v86l-338 -18q-151 -9 -216 -52t-65 -120q0 -76 57.5 -119t178.5 -43z" />
    <glyph glyph-name="aacute" unicode="&#xe1;" horiz-adv-x="1230" 
d="M676 1161h-139l143 273h205zM492 -20q-190 0 -295 83.5t-105 219.5q0 79 30 138.5t85.5 96.5t125 57t156.5 25l404 25v34q0 115 -76 174.5t-213 59.5h-33q-109 0 -182.5 -43.5t-83.5 -118.5h-184q15 137 144 225t323 88q231 0 358 -107t127 -282v-430q0 -99 14 -225h-169
q-15 76 -15 164q-41 -76 -152 -130t-259 -54zM510 131h29q65 0 126.5 16.5t113 48.5t83 84t31.5 117v86l-338 -18q-151 -9 -216 -52t-65 -120q0 -76 57.5 -119t178.5 -43z" />
    <glyph glyph-name="acircumflex" unicode="&#xe2;" horiz-adv-x="1230" 
d="M360 1161h-159l299 273h217l297 -273h-160l-246 156zM492 -20q-190 0 -295 83.5t-105 219.5q0 79 30 138.5t85.5 96.5t125 57t156.5 25l404 25v34q0 115 -76 174.5t-213 59.5h-33q-109 0 -182.5 -43.5t-83.5 -118.5h-184q15 137 144 225t323 88q231 0 358 -107t127 -282
v-430q0 -99 14 -225h-169q-15 76 -15 164q-41 -76 -152 -130t-259 -54zM510 131h29q65 0 126.5 16.5t113 48.5t83 84t31.5 117v86l-338 -18q-151 -9 -216 -52t-65 -120q0 -76 57.5 -119t178.5 -43z" />
    <glyph glyph-name="atilde" unicode="&#xe3;" horiz-adv-x="1230" 
d="M809 1161q-55 0 -97.5 14t-105.5 48l-65 37q-70 38 -111 38t-64.5 -29t-23.5 -87h-145v45q0 93 59.5 154t151.5 61q53 0 93.5 -13.5t94.5 -42.5l70 -38q73 -43 118 -43q88 0 88 116h144v-45q0 -92 -59 -153.5t-148 -61.5zM492 -20q-190 0 -295 83.5t-105 219.5
q0 79 30 138.5t85.5 96.5t125 57t156.5 25l404 25v34q0 115 -76 174.5t-213 59.5h-33q-109 0 -182.5 -43.5t-83.5 -118.5h-184q15 137 144 225t323 88q231 0 358 -107t127 -282v-430q0 -99 14 -225h-169q-15 76 -15 164q-41 -76 -152 -130t-259 -54zM510 131h29
q65 0 126.5 16.5t113 48.5t83 84t31.5 117v86l-338 -18q-151 -9 -216 -52t-65 -120q0 -76 57.5 -119t178.5 -43z" />
    <glyph glyph-name="adieresis" unicode="&#xe4;" horiz-adv-x="1230" 
d="M498 1206h-209v201h209v-201zM926 1206h-209v201h209v-201zM492 -20q-190 0 -295 83.5t-105 219.5q0 79 30 138.5t85.5 96.5t125 57t156.5 25l404 25v34q0 115 -76 174.5t-213 59.5h-33q-109 0 -182.5 -43.5t-83.5 -118.5h-184q15 137 144 225t323 88q231 0 358 -107
t127 -282v-430q0 -99 14 -225h-169q-15 76 -15 164q-41 -76 -152 -130t-259 -54zM510 131h29q65 0 126.5 16.5t113 48.5t83 84t31.5 117v86l-338 -18q-151 -9 -216 -52t-65 -120q0 -76 57.5 -119t178.5 -43z" />
    <glyph glyph-name="aring" unicode="&#xe5;" horiz-adv-x="1230" 
d="M606 1161q-93 0 -156 55t-63 138t63 136.5t156 53.5t157 -54t64 -136q0 -83 -64 -138t-157 -55zM608 1268q48 0 76.5 24t28.5 62q0 37 -28 60.5t-77 23.5t-77.5 -23.5t-28.5 -60.5q0 -38 28.5 -62t77.5 -24zM492 -20q-190 0 -295 83.5t-105 219.5q0 79 30 138.5
t85.5 96.5t125 57t156.5 25l404 25v34q0 115 -76 174.5t-213 59.5h-33q-109 0 -182.5 -43.5t-83.5 -118.5h-184q15 137 144 225t323 88q231 0 358 -107t127 -282v-430q0 -99 14 -225h-169q-15 76 -15 164q-41 -76 -152 -130t-259 -54zM510 131h29q65 0 126.5 16.5t113 48.5
t83 84t31.5 117v86l-338 -18q-151 -9 -216 -52t-65 -120q0 -76 57.5 -119t178.5 -43z" />
    <glyph glyph-name="ae" unicode="&#xe6;" horiz-adv-x="2068" 
d="M487 -20q-186 0 -290.5 84.5t-104.5 218.5q0 78 30.5 138t86 97t125.5 57t155 25l402 25v34q0 115 -73.5 175.5t-209.5 60.5h-33q-108 0 -184 -45.5t-88 -118.5h-184q15 136 146.5 224.5t326.5 88.5q161 0 267.5 -51.5t154.5 -146.5q76 96 193.5 147t248.5 51
q233 0 370.5 -133t137.5 -346v-82h-877q6 -86 38.5 -155t82.5 -111.5t111.5 -65t128.5 -22.5h29q105 0 186 46.5t109 123.5h184q-32 -148 -166 -233.5t-326 -85.5q-155 0 -278 57.5t-195 169.5q-151 -227 -504 -227zM1098 627h676q-9 133 -94 200.5t-210 67.5h-28
q-130 0 -222.5 -69.5t-121.5 -198.5zM510 129h29q62 0 122.5 17.5t112.5 50.5t84.5 89t32.5 126v73l-348 -22q-271 -17 -271 -168q0 -77 58.5 -121.5t179.5 -44.5z" />
    <glyph glyph-name="ccedilla" unicode="&#xe7;" horiz-adv-x="1257" 
d="M647 131h29q117 0 200 57t105 146h184q-22 -151 -151 -249t-324 -105v-72q88 -5 143.5 -53.5t55.5 -126.5q0 -97 -70 -150t-182 -53h-150v131h150q119 0 119 76q0 38 -30 58t-83 20h-63v174q-233 23 -356.5 164.5t-123.5 363.5q0 112 39 209t109.5 169t177.5 113t236 41
q208 0 344 -95t159 -259h-184q-20 96 -102 149.5t-203 53.5h-29q-175 0 -269.5 -110t-94.5 -271t94.5 -271t269.5 -110z" />
    <glyph glyph-name="egrave" unicode="&#xe8;" horiz-adv-x="1261" 
d="M580 1434l141 -273h-139l-209 273h207zM1159 553v-70h-874q6 -87 38 -155.5t82 -111t110.5 -64t127.5 -21.5h29q108 0 186.5 45t104.5 123h184q-28 -147 -161 -233t-327 -86q-160 0 -284.5 59t-199.5 183t-75 298q0 125 46.5 227t124.5 165.5t176 97.5t204 34
q234 0 371 -135t137 -356zM293 627h676q-7 132 -92 199t-211 67h-29q-140 0 -228.5 -71t-115.5 -195z" />
    <glyph glyph-name="eacute" unicode="&#xe9;" horiz-adv-x="1261" 
d="M725 1434h205l-209 -273h-139zM1159 553v-70h-874q6 -87 38 -155.5t82 -111t110.5 -64t127.5 -21.5h29q108 0 186.5 45t104.5 123h184q-28 -147 -161 -233t-327 -86q-160 0 -284.5 59t-199.5 183t-75 298q0 125 46.5 227t124.5 165.5t176 97.5t204 34q234 0 371 -135
t137 -356zM293 627h676q-7 132 -92 199t-211 67h-29q-140 0 -228.5 -71t-115.5 -195z" />
    <glyph glyph-name="ecircumflex" unicode="&#xea;" horiz-adv-x="1261" 
d="M899 1161l-246 156l-247 -156h-160l299 273h217l297 -273h-160zM1159 553v-70h-874q6 -87 38 -155.5t82 -111t110.5 -64t127.5 -21.5h29q108 0 186.5 45t104.5 123h184q-28 -147 -161 -233t-327 -86q-160 0 -284.5 59t-199.5 183t-75 298q0 125 46.5 227t124.5 165.5
t176 97.5t204 34q234 0 371 -135t137 -356zM293 627h676q-7 132 -92 199t-211 67h-29q-140 0 -228.5 -71t-115.5 -195z" />
    <glyph glyph-name="edieresis" unicode="&#xeb;" horiz-adv-x="1261" 
d="M334 1407h209v-201h-209v201zM762 1407h209v-201h-209v201zM1159 553v-70h-874q6 -87 38 -155.5t82 -111t110.5 -64t127.5 -21.5h29q108 0 186.5 45t104.5 123h184q-28 -147 -161 -233t-327 -86q-160 0 -284.5 59t-199.5 183t-75 298q0 125 46.5 227t124.5 165.5
t176 97.5t204 34q234 0 371 -135t137 -356zM293 627h676q-7 132 -92 199t-211 67h-29q-140 0 -228.5 -71t-115.5 -195z" />
    <glyph glyph-name="igrave" unicode="&#xec;" horiz-adv-x="514" 
d="M326 1161h-140l-209 273h207zM348 0h-180v1024h180v-1024z" />
    <glyph glyph-name="iacute" unicode="&#xed;" horiz-adv-x="514" 
d="M326 1161h-140l144 273h205zM348 0h-180v1024h180v-1024z" />
    <glyph glyph-name="icircumflex" unicode="&#xee;" horiz-adv-x="514" 
d="M10 1161h-160l300 273h217l297 -273h-160l-246 156zM348 0h-180v1024h180v-1024z" />
    <glyph glyph-name="idieresis" unicode="&#xef;" horiz-adv-x="514" 
d="M147 1206h-208v201h208v-201zM575 1206h-208v201h208v-201zM348 0h-180v1024h180v-1024z" />
    <glyph glyph-name="eth" unicode="&#xf0;" horiz-adv-x="1368" 
d="M1186 1335l-191 -100q125 -106 190.5 -260.5t65.5 -345.5q0 -312 -147 -480.5t-436 -168.5q-260 0 -414 138.5t-154 360.5q0 215 153 354.5t406 139.5q64 0 131.5 -14t141.5 -51.5t119 -94.5q-42 217 -209 340l-230 -121l-57 115l150 80q-148 59 -343 59h-30v150
q319 9 542 -117l252 135zM655 129h21q73 0 140 22.5t121.5 64.5t87 110.5t32.5 152.5q0 83 -32.5 150.5t-87 108.5t-121.5 63t-140 22h-21q-163 0 -267.5 -89t-104.5 -255q0 -168 104.5 -259t267.5 -91z" />
    <glyph glyph-name="ntilde" unicode="&#xf1;" horiz-adv-x="1339" 
d="M893 1161q-55 0 -97.5 14t-103.5 48l-67 37q-67 38 -111 38q-40 0 -64 -29t-24 -87h-143v45q0 93 58.5 154t150.5 61q53 0 93.5 -13.5t96.5 -42.5l68 -38q77 -43 120 -43q86 0 86 116h146v-45q0 -93 -59.5 -154t-149.5 -61zM348 0h-180v1024h180v-176q57 88 159 142
t243 54q205 0 320.5 -116.5t115.5 -304.5v-623h-180v573q0 148 -68.5 234t-204.5 86h-28q-69 0 -133.5 -27.5t-114 -75.5t-79.5 -119.5t-30 -154.5v-516z" />
    <glyph glyph-name="ograve" unicode="&#xf2;" horiz-adv-x="1345" 
d="M741 1161h-139l-209 273h207zM674 -20q-257 0 -416.5 145.5t-159.5 386.5t159.5 386.5t416.5 145.5q255 0 414 -145.5t159 -386.5t-159 -386.5t-414 -145.5zM659 131h29q164 0 270.5 103t106.5 278t-106.5 278t-270.5 103h-29q-166 0 -272 -103t-106 -278t106 -278
t272 -103z" />
    <glyph glyph-name="oacute" unicode="&#xf3;" horiz-adv-x="1345" 
d="M741 1161h-139l143 273h205zM674 -20q-257 0 -416.5 145.5t-159.5 386.5t159.5 386.5t416.5 145.5q255 0 414 -145.5t159 -386.5t-159 -386.5t-414 -145.5zM659 131h29q164 0 270.5 103t106.5 278t-106.5 278t-270.5 103h-29q-166 0 -272 -103t-106 -278t106 -278
t272 -103z" />
    <glyph glyph-name="ocircumflex" unicode="&#xf4;" horiz-adv-x="1345" 
d="M426 1161h-160l299 273h217l297 -273h-159l-246 156zM674 -20q-257 0 -416.5 145.5t-159.5 386.5t159.5 386.5t416.5 145.5q255 0 414 -145.5t159 -386.5t-159 -386.5t-414 -145.5zM659 131h29q164 0 270.5 103t106.5 278t-106.5 278t-270.5 103h-29q-166 0 -272 -103
t-106 -278t106 -278t272 -103z" />
    <glyph glyph-name="otilde" unicode="&#xf5;" horiz-adv-x="1345" 
d="M874 1161q-55 0 -97 14t-105 48l-66 37q-70 38 -110 38q-41 0 -64.5 -29t-23.5 -87h-146v45q0 93 59.5 154t151.5 61q54 0 95 -13.5t94 -42.5l69 -38q73 -43 119 -43q88 0 88 116h143v-45q0 -92 -59 -153.5t-148 -61.5zM674 -20q-257 0 -416.5 145.5t-159.5 386.5
t159.5 386.5t416.5 145.5q255 0 414 -145.5t159 -386.5t-159 -386.5t-414 -145.5zM659 131h29q164 0 270.5 103t106.5 278t-106.5 278t-270.5 103h-29q-166 0 -272 -103t-106 -278t106 -278t272 -103z" />
    <glyph glyph-name="odieresis" unicode="&#xf6;" horiz-adv-x="1345" 
d="M563 1206h-209v201h209v-201zM991 1206h-209v201h209v-201zM674 -20q-257 0 -416.5 145.5t-159.5 386.5t159.5 386.5t416.5 145.5q255 0 414 -145.5t159 -386.5t-159 -386.5t-414 -145.5zM659 131h29q164 0 270.5 103t106.5 278t-106.5 278t-270.5 103h-29
q-166 0 -272 -103t-106 -278t106 -278t272 -103z" />
    <glyph glyph-name="divide" unicode="&#xf7;" horiz-adv-x="1372" 
d="M795 764h-215v217h215v-217zM1227 444h-1082v166h1082v-166zM795 74h-215v217h215v-217z" />
    <glyph glyph-name="oslash" unicode="&#xf8;" horiz-adv-x="1353" 
d="M1243 985l-117 -121q127 -143 127 -352q0 -241 -159.5 -386.5t-415.5 -145.5q-192 0 -330 81l-121 -124l-100 106l106 111q-131 140 -131 358q0 241 159.5 386.5t416.5 145.5q190 0 334 -86l125 129zM285 512q0 -139 69 -233l543 561q-86 53 -205 53h-28
q-166 0 -272.5 -103t-106.5 -278zM664 131h28q165 0 272 103t107 278q0 133 -65 227l-543 -559q85 -49 201 -49z" />
    <glyph glyph-name="ugrave" unicode="&#xf9;" horiz-adv-x="1323" 
d="M725 1161h-139l-209 273h205zM575 -20q-202 0 -310.5 108.5t-108.5 296.5v639h180v-592q0 -149 63.5 -225t198.5 -76h29q143 0 245.5 101t102.5 266v526h180v-1024h-180v188q-54 -94 -154.5 -151t-245.5 -57z" />
    <glyph glyph-name="uacute" unicode="&#xfa;" horiz-adv-x="1323" 
d="M725 1161h-139l143 273h205zM575 -20q-202 0 -310.5 108.5t-108.5 296.5v639h180v-592q0 -149 63.5 -225t198.5 -76h29q143 0 245.5 101t102.5 266v526h180v-1024h-180v188q-54 -94 -154.5 -151t-245.5 -57z" />
    <glyph glyph-name="ucircumflex" unicode="&#xfb;" horiz-adv-x="1323" 
d="M410 1161h-160l299 273h215l299 -273h-160l-246 156zM575 -20q-202 0 -310.5 108.5t-108.5 296.5v639h180v-592q0 -149 63.5 -225t198.5 -76h29q143 0 245.5 101t102.5 266v526h180v-1024h-180v188q-54 -94 -154.5 -151t-245.5 -57z" />
    <glyph glyph-name="udieresis" unicode="&#xfc;" horiz-adv-x="1323" 
d="M547 1206h-209v201h209v-201zM975 1206h-209v201h209v-201zM575 -20q-202 0 -310.5 108.5t-108.5 296.5v639h180v-592q0 -149 63.5 -225t198.5 -76h29q143 0 245.5 101t102.5 266v526h180v-1024h-180v188q-54 -94 -154.5 -151t-245.5 -57z" />
    <glyph glyph-name="yacute" unicode="&#xfd;" horiz-adv-x="1255" 
d="M709 1161h-140l144 273h205zM522 -365h-411v158h354q52 0 71 19.5t19 70.5v170l-514 971h205l403 -770l385 770h203l-502 -963v-213q0 -213 -213 -213z" />
    <glyph glyph-name="thorn" unicode="&#xfe;" horiz-adv-x="1400" 
d="M348 -410h-180v1844h180v-566q57 80 169.5 128t232.5 48q246 0 398 -143t152 -389q0 -128 -41 -230t-114.5 -167.5t-173 -100t-217.5 -34.5q-136 0 -244.5 50t-161.5 128v-568zM727 129h29q163 0 262.5 101t99.5 282t-99.5 282t-262.5 101h-29q-165 0 -272 -102
t-107 -281t107 -281t272 -102z" />
    <glyph glyph-name="ydieresis" unicode="&#xff;" horiz-adv-x="1255" 
d="M530 1206h-208v201h208v-201zM958 1206h-208v201h208v-201zM522 -365h-411v158h354q52 0 71 19.5t19 70.5v170l-514 971h205l403 -770l385 770h203l-502 -963v-213q0 -213 -213 -213z" />
    <glyph glyph-name="Amacron" unicode="&#x100;" horiz-adv-x="1613" 
d="M461 1741h700v-144h-700v144zM1606 0h-209l-176 375h-834l-176 -375h-203l680 1434h240zM805 1266l-338 -719h674z" />
    <glyph glyph-name="amacron" unicode="&#x101;" horiz-adv-x="1230" 
d="M924 1206h-656v144h656v-144zM492 -20q-190 0 -295 83.5t-105 219.5q0 79 30 138.5t85.5 96.5t125 57t156.5 25l404 25v34q0 115 -76 174.5t-213 59.5h-33q-109 0 -182.5 -43.5t-83.5 -118.5h-184q15 137 144 225t323 88q231 0 358 -107t127 -282v-430q0 -99 14 -225
h-169q-15 76 -15 164q-41 -76 -152 -130t-259 -54zM510 131h29q65 0 126.5 16.5t113 48.5t83 84t31.5 117v86l-338 -18q-151 -9 -216 -52t-65 -120q0 -76 57.5 -119t178.5 -43z" />
    <glyph glyph-name="Abreve" unicode="&#x102;" horiz-adv-x="1613" 
d="M807 1561q-160 0 -256 79t-102 203h151q8 -67 60 -108t147 -41q97 0 149 41t58 108h151q-5 -124 -100.5 -203t-257.5 -79zM1606 0h-209l-176 375h-834l-176 -375h-203l680 1434h240zM805 1266l-338 -719h674z" />
    <glyph glyph-name="abreve" unicode="&#x103;" horiz-adv-x="1230" 
d="M608 1161q-160 0 -255 84t-101 209h141q8 -72 62.5 -119t152.5 -47q97 0 151 47t62 119h142q-6 -125 -101 -209t-254 -84zM492 -20q-190 0 -295 83.5t-105 219.5q0 79 30 138.5t85.5 96.5t125 57t156.5 25l404 25v34q0 115 -76 174.5t-213 59.5h-33q-109 0 -182.5 -43.5
t-83.5 -118.5h-184q15 137 144 225t323 88q231 0 358 -107t127 -282v-430q0 -99 14 -225h-169q-15 76 -15 164q-41 -76 -152 -130t-259 -54zM510 131h29q65 0 126.5 16.5t113 48.5t83 84t31.5 117v86l-338 -18q-151 -9 -216 -52t-65 -120q0 -76 57.5 -119t178.5 -43z" />
    <glyph glyph-name="Aogonek" unicode="&#x104;" horiz-adv-x="1613" 
d="M1556 -281h66v-133h-92q-119 0 -182.5 47.5t-63.5 122.5q0 77 55.5 139.5t139.5 104.5h-82l-176 375h-834l-176 -375h-203l680 1434h240l678 -1434q-191 -105 -191 -205q0 -43 37.5 -59.5t103.5 -16.5zM805 1266l-338 -719h674z" />
    <glyph glyph-name="aogonek" unicode="&#x105;" horiz-adv-x="1230" 
d="M1036 -281h66v-133h-90q-119 0 -183.5 47.5t-64.5 122.5q0 77 55.5 139.5t138.5 104.5h-40q-15 76 -15 164q-41 -76 -152 -130t-259 -54q-190 0 -295 83.5t-105 219.5q0 79 30 138.5t85.5 96.5t125 57t156.5 25l404 25v34q0 115 -76 174.5t-213 59.5h-33
q-109 0 -182.5 -43.5t-83.5 -118.5h-184q15 137 144 225t323 88q231 0 358 -107t127 -282v-430q0 -99 14 -225h-2q-190 -104 -190 -205q0 -43 37.5 -59.5t103.5 -16.5zM893 397v86l-338 -18q-151 -9 -216 -52t-65 -120q0 -76 57.5 -119t178.5 -43h29q65 0 126.5 16.5
t113 48.5t83 84t31.5 117z" />
    <glyph glyph-name="Cacute" unicode="&#x106;" horiz-adv-x="1660" 
d="M965 1561h-160l145 262h240zM881 -20q-177 0 -322.5 55t-243.5 153t-151 233.5t-53 295.5q0 157 54.5 292.5t153 234t244 154.5t318.5 56q148 0 271.5 -37.5t207.5 -102t135.5 -148t65.5 -179.5h-205q-30 139 -157 217t-302 78h-33q-172 0 -301 -75.5t-194.5 -202.5
t-65.5 -287t65.5 -287t194.5 -202.5t301 -75.5h33q177 0 302.5 75.5t156.5 218.5h205q-31 -209 -213 -337.5t-467 -128.5z" />
    <glyph glyph-name="cacute" unicode="&#x107;" horiz-adv-x="1257" 
d="M731 1161h-139l143 273h205zM662 -20q-271 0 -416.5 145t-145.5 387q0 112 39 209t109.5 169t177.5 113t236 41q208 0 344 -95t159 -259h-184q-20 96 -102 149.5t-203 53.5h-29q-175 0 -269.5 -110t-94.5 -271t94.5 -271t269.5 -110h29q117 0 200 57t105 146h184
q-24 -156 -161.5 -255t-341.5 -99z" />
    <glyph glyph-name="Ccircumflex" unicode="&#x108;" horiz-adv-x="1660" 
d="M647 1561h-184l291 262h250l290 -262h-184l-229 145zM881 -20q-177 0 -322.5 55t-243.5 153t-151 233.5t-53 295.5q0 157 54.5 292.5t153 234t244 154.5t318.5 56q148 0 271.5 -37.5t207.5 -102t135.5 -148t65.5 -179.5h-205q-30 139 -157 217t-302 78h-33
q-172 0 -301 -75.5t-194.5 -202.5t-65.5 -287t65.5 -287t194.5 -202.5t301 -75.5h33q177 0 302.5 75.5t156.5 218.5h205q-31 -209 -213 -337.5t-467 -128.5z" />
    <glyph glyph-name="ccircumflex" unicode="&#x109;" horiz-adv-x="1257" 
d="M416 1161h-160l299 273h215l299 -273h-160l-245 156zM662 -20q-271 0 -416.5 145t-145.5 387q0 112 39 209t109.5 169t177.5 113t236 41q208 0 344 -95t159 -259h-184q-20 96 -102 149.5t-203 53.5h-29q-175 0 -269.5 -110t-94.5 -271t94.5 -271t269.5 -110h29
q117 0 200 57t105 146h184q-24 -156 -161.5 -255t-341.5 -99z" />
    <glyph glyph-name="Cdotaccent" unicode="&#x10a;" horiz-adv-x="1660" 
d="M989 1595h-217v215h217v-215zM881 -20q-177 0 -322.5 55t-243.5 153t-151 233.5t-53 295.5q0 157 54.5 292.5t153 234t244 154.5t318.5 56q148 0 271.5 -37.5t207.5 -102t135.5 -148t65.5 -179.5h-205q-30 139 -157 217t-302 78h-33q-172 0 -301 -75.5t-194.5 -202.5
t-65.5 -287t65.5 -287t194.5 -202.5t301 -75.5h33q177 0 302.5 75.5t156.5 218.5h205q-31 -209 -213 -337.5t-467 -128.5z" />
    <glyph glyph-name="cdotaccent" unicode="&#x10b;" horiz-adv-x="1257" 
d="M764 1206h-205v211h205v-211zM662 -20q-271 0 -416.5 145t-145.5 387q0 112 39 209t109.5 169t177.5 113t236 41q208 0 344 -95t159 -259h-184q-20 96 -102 149.5t-203 53.5h-29q-175 0 -269.5 -110t-94.5 -271t94.5 -271t269.5 -110h29q117 0 200 57t105 146h184
q-24 -156 -161.5 -255t-341.5 -99z" />
    <glyph glyph-name="Ccaron" unicode="&#x10c;" horiz-adv-x="1660" 
d="M1004 1561h-250l-283 262h182l228 -146l223 146h182zM881 -20q-177 0 -322.5 55t-243.5 153t-151 233.5t-53 295.5q0 157 54.5 292.5t153 234t244 154.5t318.5 56q148 0 271.5 -37.5t207.5 -102t135.5 -148t65.5 -179.5h-205q-30 139 -157 217t-302 78h-33
q-172 0 -301 -75.5t-194.5 -202.5t-65.5 -287t65.5 -287t194.5 -202.5t301 -75.5h33q177 0 302.5 75.5t156.5 218.5h205q-31 -209 -213 -337.5t-467 -128.5z" />
    <glyph glyph-name="ccaron" unicode="&#x10d;" horiz-adv-x="1257" 
d="M760 1161h-195l-299 273h162l236 -156l235 156h160zM662 -20q-271 0 -416.5 145t-145.5 387q0 112 39 209t109.5 169t177.5 113t236 41q208 0 344 -95t159 -259h-184q-20 96 -102 149.5t-203 53.5h-29q-175 0 -269.5 -110t-94.5 -271t94.5 -271t269.5 -110h29
q117 0 200 57t105 146h184q-24 -156 -161.5 -255t-341.5 -99z" />
    <glyph glyph-name="Dcaron" unicode="&#x10e;" horiz-adv-x="1699" 
d="M938 1561h-250l-282 262h182l227 -146l223 146h183zM856 0h-651v1434h651q338 0 533.5 -190t195.5 -527t-195.5 -527t-533.5 -190zM395 1262v-1090h441q270 0 413.5 139t143.5 406t-143.5 406t-413.5 139h-441z" />
    <glyph glyph-name="dcaron" unicode="&#x10f;" horiz-adv-x="1529" 
d="M651 -20q-245 0 -398 143.5t-153 388.5q0 255 152 393.5t399 138.5q133 0 241 -50.5t163 -129.5v570h180v-1434h-180v154q-61 -81 -171.5 -127.5t-232.5 -46.5zM1417 1034h-69v96h61q53 0 75.5 20t22.5 62v13h-116v209h221v-222q0 -82 -52.5 -130t-142.5 -48zM647 131h29
q166 0 272.5 101t106.5 280t-106.5 280t-272.5 101h-29q-164 0 -264 -100.5t-100 -280.5t100 -280.5t264 -100.5z" />
    <glyph glyph-name="Dcroat" unicode="&#x110;" horiz-adv-x="1742" 
d="M248 1434h651q338 0 533.5 -190t195.5 -527t-195.5 -527t-533.5 -190h-651v635h-199v164h199v635zM438 172h441q270 0 413.5 139t143.5 406t-143.5 406t-413.5 139h-441v-463h385v-164h-385v-463z" />
    <glyph glyph-name="dcroat" unicode="&#x111;" horiz-adv-x="1402" 
d="M1235 1303h188v-142h-188v-1161h-180v154q-61 -81 -171.5 -127.5t-232.5 -46.5q-245 0 -398 143.5t-153 388.5q0 255 152 393.5t399 138.5q133 0 241 -50.5t163 -129.5v297h-412v142h412v131h180v-131zM647 131h29q166 0 272.5 101t106.5 280t-106.5 280t-272.5 101h-29
q-164 0 -264 -100.5t-100 -280.5t100 -280.5t264 -100.5z" />
    <glyph glyph-name="Emacron" unicode="&#x112;" horiz-adv-x="1540" 
d="M465 1741h700v-144h-700v144zM395 651v-479h1043v-172h-1233v1434h1212v-172h-1022v-439h899v-172h-899z" />
    <glyph glyph-name="emacron" unicode="&#x113;" horiz-adv-x="1261" 
d="M313 1350h656v-144h-656v144zM1159 553v-70h-874q6 -87 38 -155.5t82 -111t110.5 -64t127.5 -21.5h29q108 0 186.5 45t104.5 123h184q-28 -147 -161 -233t-327 -86q-160 0 -284.5 59t-199.5 183t-75 298q0 125 46.5 227t124.5 165.5t176 97.5t204 34q234 0 371 -135
t137 -356zM293 627h676q-7 132 -92 199t-211 67h-29q-140 0 -228.5 -71t-115.5 -195z" />
    <glyph glyph-name="Ebreve" unicode="&#x114;" horiz-adv-x="1540" 
d="M813 1561q-162 0 -257.5 79t-100.5 203h151q8 -67 59.5 -108t147.5 -41q95 0 147 41t60 108h151q-6 -124 -102 -203t-256 -79zM395 651v-479h1043v-172h-1233v1434h1212v-172h-1022v-439h899v-172h-899z" />
    <glyph glyph-name="ebreve" unicode="&#x115;" horiz-adv-x="1261" 
d="M653 1161q-160 0 -255 84t-101 209h141q8 -72 62.5 -119t152.5 -47q97 0 151 47t62 119h142q-6 -125 -101 -209t-254 -84zM1159 553v-70h-874q6 -87 38 -155.5t82 -111t110.5 -64t127.5 -21.5h29q108 0 186.5 45t104.5 123h184q-28 -147 -161 -233t-327 -86
q-160 0 -284.5 59t-199.5 183t-75 298q0 125 46.5 227t124.5 165.5t176 97.5t204 34q234 0 371 -135t137 -356zM293 627h676q-7 132 -92 199t-211 67h-29q-140 0 -228.5 -71t-115.5 -195z" />
    <glyph glyph-name="Edotaccent" unicode="&#x116;" horiz-adv-x="1540" 
d="M705 1810h217v-215h-217v215zM395 651v-479h1043v-172h-1233v1434h1212v-172h-1022v-439h899v-172h-899z" />
    <glyph glyph-name="edotaccent" unicode="&#x117;" horiz-adv-x="1261" 
d="M551 1417h203v-211h-203v211zM1159 553v-70h-874q6 -87 38 -155.5t82 -111t110.5 -64t127.5 -21.5h29q108 0 186.5 45t104.5 123h184q-28 -147 -161 -233t-327 -86q-160 0 -284.5 59t-199.5 183t-75 298q0 125 46.5 227t124.5 165.5t176 97.5t204 34q234 0 371 -135
t137 -356zM293 627h676q-7 132 -92 199t-211 67h-29q-140 0 -228.5 -71t-115.5 -195z" />
    <glyph glyph-name="Eogonek" unicode="&#x118;" horiz-adv-x="1540" 
d="M1389 -281h65v-133h-90q-119 0 -183.5 47.5t-64.5 122.5q0 77 55.5 139.5t139.5 104.5h-1106v1434h1212v-172h-1022v-439h899v-172h-899v-479h1043v-172q-191 -105 -191 -205q0 -76 142 -76z" />
    <glyph glyph-name="eogonek" unicode="&#x119;" horiz-adv-x="1261" 
d="M1159 553v-70h-874q6 -87 38 -155.5t82 -111t110.5 -64t127.5 -21.5h29q108 0 186.5 45t104.5 123h184q-21 -113 -107 -191.5t-217 -109.5q-90 -50 -138 -99t-48 -104q0 -43 37.5 -59.5t103.5 -16.5h66v-133h-92q-119 0 -182.5 47.5t-63.5 122.5q0 128 158 224h-5
q-160 0 -284.5 59t-199.5 183t-75 298q0 125 46.5 227t124.5 165.5t176 97.5t204 34q234 0 371 -135t137 -356zM293 627h676q-7 132 -92 199t-211 67h-29q-140 0 -228.5 -71t-115.5 -195z" />
    <glyph glyph-name="Ecaron" unicode="&#x11a;" horiz-adv-x="1540" 
d="M1219 1823l-283 -262h-250l-283 262h183l227 -146l223 146h183zM395 651v-479h1043v-172h-1233v1434h1212v-172h-1022v-439h899v-172h-899z" />
    <glyph glyph-name="ecaron" unicode="&#x11b;" horiz-adv-x="1261" 
d="M1049 1434l-299 -273h-195l-297 273h160l237 -156l234 156h160zM1159 553v-70h-874q6 -87 38 -155.5t82 -111t110.5 -64t127.5 -21.5h29q108 0 186.5 45t104.5 123h184q-28 -147 -161 -233t-327 -86q-160 0 -284.5 59t-199.5 183t-75 298q0 125 46.5 227t124.5 165.5
t176 97.5t204 34q234 0 371 -135t137 -356zM293 627h676q-7 132 -92 199t-211 67h-29q-140 0 -228.5 -71t-115.5 -195z" />
    <glyph glyph-name="Gcircumflex" unicode="&#x11c;" horiz-adv-x="1748" 
d="M666 1561h-185l291 262h250l291 -262h-185l-229 145zM895 -20q-362 0 -573 203t-211 534q0 161 54.5 296.5t154.5 233t248.5 152.5t328.5 55q320 0 501 -135.5t197 -351.5h-204q-5 45 -22.5 87t-54.5 84.5t-89 73.5t-132.5 50.5t-179.5 19.5h-32q-263 0 -420.5 -150
t-157.5 -415q0 -264 158.5 -414.5t419.5 -150.5h32q124 0 225 29t165.5 78t99.5 112.5t35 134.5v45h-535v172h547q82 0 124 -43t42 -125v-555h-178v190q-24 -34 -66 -68t-106.5 -67.5t-161.5 -54t-209 -20.5z" />
    <glyph glyph-name="gcircumflex" unicode="&#x11d;" horiz-adv-x="1374" 
d="M403 1161h-159l297 273h217l299 -273h-162l-244 156zM627 -451q-246 0 -391 86.5t-164 227.5h188q24 -78 117 -120t235 -42h29q170 0 277.5 88t107.5 258v133q-55 -75 -155 -127.5t-238 -52.5q-112 0 -206.5 31.5t-168.5 93.5t-116 163.5t-42 233.5q0 104 28.5 191
t78.5 147.5t118 102.5t145.5 61.5t162.5 19.5q145 0 245.5 -53.5t147.5 -122.5v156h180v-999q0 -100 -37 -186t-107.5 -151t-182 -102t-252.5 -37zM631 152h28q93 0 175.5 43t137 129.5t54.5 197.5t-51 197.5t-131.5 130t-173.5 43.5h-29q-74 0 -136.5 -21.5t-113 -64.5
t-79.5 -116t-29 -169q0 -187 97 -278.5t251 -91.5z" />
    <glyph glyph-name="Gbreve" unicode="&#x11e;" horiz-adv-x="1748" 
d="M899 1561q-162 0 -257.5 79t-100.5 203h151q8 -67 59.5 -108t147.5 -41q95 0 147 41t60 108h151q-6 -124 -102 -203t-256 -79zM895 -20q-362 0 -573 203t-211 534q0 161 54.5 296.5t154.5 233t248.5 152.5t328.5 55q320 0 501 -135.5t197 -351.5h-204q-5 45 -22.5 87
t-54.5 84.5t-89 73.5t-132.5 50.5t-179.5 19.5h-32q-263 0 -420.5 -150t-157.5 -415q0 -264 158.5 -414.5t419.5 -150.5h32q124 0 225 29t165.5 78t99.5 112.5t35 134.5v45h-535v172h547q82 0 124 -43t42 -125v-555h-178v190q-24 -34 -66 -68t-106.5 -67.5t-161.5 -54
t-209 -20.5z" />
    <glyph glyph-name="gbreve" unicode="&#x11f;" horiz-adv-x="1374" 
d="M649 1161q-160 0 -254.5 84t-99.5 209h139q8 -72 62.5 -119t152.5 -47t152.5 47t62.5 119h140q-5 -125 -100 -209t-255 -84zM627 -451q-246 0 -391 86.5t-164 227.5h188q24 -78 117 -120t235 -42h29q170 0 277.5 88t107.5 258v133q-55 -75 -155 -127.5t-238 -52.5
q-112 0 -206.5 31.5t-168.5 93.5t-116 163.5t-42 233.5q0 104 28.5 191t78.5 147.5t118 102.5t145.5 61.5t162.5 19.5q145 0 245.5 -53.5t147.5 -122.5v156h180v-999q0 -100 -37 -186t-107.5 -151t-182 -102t-252.5 -37zM631 152h28q93 0 175.5 43t137 129.5t54.5 197.5
t-51 197.5t-131.5 130t-173.5 43.5h-29q-74 0 -136.5 -21.5t-113 -64.5t-79.5 -116t-29 -169q0 -187 97 -278.5t251 -91.5z" />
    <glyph glyph-name="Gdotaccent" unicode="&#x120;" horiz-adv-x="1748" 
d="M1008 1595h-217v215h217v-215zM895 -20q-362 0 -573 203t-211 534q0 161 54.5 296.5t154.5 233t248.5 152.5t328.5 55q320 0 501 -135.5t197 -351.5h-204q-5 45 -22.5 87t-54.5 84.5t-89 73.5t-132.5 50.5t-179.5 19.5h-32q-263 0 -420.5 -150t-157.5 -415
q0 -264 158.5 -414.5t419.5 -150.5h32q124 0 225 29t165.5 78t99.5 112.5t35 134.5v45h-535v172h547q82 0 124 -43t42 -125v-555h-178v190q-24 -34 -66 -68t-106.5 -67.5t-161.5 -54t-209 -20.5z" />
    <glyph glyph-name="gdotaccent" unicode="&#x121;" horiz-adv-x="1374" 
d="M750 1206h-203v211h203v-211zM627 -451q-246 0 -391 86.5t-164 227.5h188q24 -78 117 -120t235 -42h29q170 0 277.5 88t107.5 258v133q-55 -75 -155 -127.5t-238 -52.5q-112 0 -206.5 31.5t-168.5 93.5t-116 163.5t-42 233.5q0 104 28.5 191t78.5 147.5t118 102.5
t145.5 61.5t162.5 19.5q145 0 245.5 -53.5t147.5 -122.5v156h180v-999q0 -100 -37 -186t-107.5 -151t-182 -102t-252.5 -37zM631 152h28q93 0 175.5 43t137 129.5t54.5 197.5t-51 197.5t-131.5 130t-173.5 43.5h-29q-74 0 -136.5 -21.5t-113 -64.5t-79.5 -116t-29 -169
q0 -187 97 -278.5t251 -91.5z" />
    <glyph glyph-name="uni0122" unicode="&#x122;" horiz-adv-x="1748" 
d="M895 -20q-362 0 -573 203t-211 534q0 161 54.5 296.5t154.5 233t248.5 152.5t328.5 55q320 0 501 -135.5t197 -351.5h-204q-5 45 -22.5 87t-54.5 84.5t-89 73.5t-132.5 50.5t-179.5 19.5h-32q-263 0 -420.5 -150t-157.5 -415q0 -264 158.5 -414.5t419.5 -150.5h32
q124 0 225 29t165.5 78t99.5 112.5t35 134.5v45h-535v172h547q82 0 124 -43t42 -125v-555h-178v190q-24 -34 -66 -68t-106.5 -67.5t-161.5 -54t-209 -20.5zM809 -575h-72v96h64q52 0 75 19t23 61v14h-117v207h219v-221q0 -82 -51.5 -129t-140.5 -47z" />
    <glyph glyph-name="uni0123" unicode="&#x123;" horiz-adv-x="1374" 
d="M723 1614h70v-96h-62q-53 0 -75.5 -19t-22.5 -61v-15h117v-206h-222v221q0 82 52 129t143 47zM627 -451q-246 0 -391 86.5t-164 227.5h188q24 -78 117 -120t235 -42h29q170 0 277.5 88t107.5 258v133q-55 -75 -155 -127.5t-238 -52.5q-112 0 -206.5 31.5t-168.5 93.5
t-116 163.5t-42 233.5q0 104 28.5 191t78.5 147.5t118 102.5t145.5 61.5t162.5 19.5q145 0 245.5 -53.5t147.5 -122.5v156h180v-999q0 -100 -37 -186t-107.5 -151t-182 -102t-252.5 -37zM631 152h28q93 0 175.5 43t137 129.5t54.5 197.5t-51 197.5t-131.5 130t-173.5 43.5
h-29q-74 0 -136.5 -21.5t-113 -64.5t-79.5 -116t-29 -169q0 -187 97 -278.5t251 -91.5z" />
    <glyph glyph-name="Hcircumflex" unicode="&#x124;" horiz-adv-x="1736" 
d="M637 1561h-184l290 262h250l291 -262h-184l-230 145zM395 0h-190v1434h190v-629h946v629h191v-1434h-191v633h-946v-633z" />
    <glyph glyph-name="hcircumflex" unicode="&#x125;" horiz-adv-x="1339" 
d="M424 1530h-160l297 272h217l299 -272h-162l-243 156zM346 0h-180v1434h180v-582q131 192 404 192q203 0 318.5 -117t115.5 -304v-623h-180v573q0 148 -68 234t-203 86h-28q-145 0 -252 -106t-107 -271v-516z" />
    <glyph glyph-name="Hbar" unicode="&#x126;" horiz-adv-x="1806" 
d="M1567 1202h184v-151h-184v-1051h-191v633h-946v-633h-190v1051h-185v151h185v232h190v-232h946v232h191v-232zM430 805h946v246h-946v-246z" />
    <glyph glyph-name="hbar" unicode="&#x127;" horiz-adv-x="1339" 
d="M750 1044q205 0 320.5 -116.5t115.5 -304.5v-623h-180v573q0 148 -68.5 234t-204.5 86h-28q-69 0 -133.5 -27.5t-114 -75.5t-79.5 -119.5t-30 -154.5v-516h-180v1161h-184v139h184v134h180v-134h416v-139h-416v-309q131 192 402 192z" />
    <glyph glyph-name="Itilde" unicode="&#x128;" horiz-adv-x="600" 
d="M502 1561q-60 0 -101.5 13t-99.5 46l-70 37q-65 37 -110 37q-90 0 -90 -113h-152v43q0 91 61 151t160 60q58 0 98.5 -12t90.5 -39l69 -39q77 -43 121 -43q90 0 90 113h152v-43q0 -91 -60.5 -151t-158.5 -60zM395 0h-190v1434h190v-1434z" />
    <glyph glyph-name="itilde" unicode="&#x129;" horiz-adv-x="514" 
d="M459 1161q-55 0 -97.5 14t-105.5 48l-66 37q-70 38 -110 38q-41 0 -64.5 -29t-23.5 -87h-146v45q0 93 59.5 154t151.5 61q54 0 95 -13.5t94 -42.5l69 -38q73 -43 119 -43q88 0 88 116h144v-45q0 -92 -59 -153.5t-148 -61.5zM348 0h-180v1024h180v-1024z" />
    <glyph glyph-name="Imacron" unicode="&#x12a;" horiz-adv-x="600" 
d="M653 1597h-698v144h698v-144zM395 0h-190v1434h190v-1434z" />
    <glyph glyph-name="imacron" unicode="&#x12b;" horiz-adv-x="514" 
d="M573 1206h-655v144h655v-144zM348 0h-180v1024h180v-1024z" />
    <glyph glyph-name="Ibreve" unicode="&#x12c;" horiz-adv-x="600" 
d="M301 1561q-161 0 -256.5 79t-101.5 203h151q8 -67 59.5 -108t147.5 -41t147.5 41t59.5 108h151q-6 -124 -101.5 -203t-256.5 -79zM395 0h-190v1434h190v-1434z" />
    <glyph glyph-name="ibreve" unicode="&#x12d;" horiz-adv-x="514" 
d="M258 1161q-160 0 -255 84t-101 209h141q8 -72 62.5 -119t152.5 -47q97 0 151 47t62 119h141q-6 -125 -101 -209t-253 -84zM348 0h-180v1024h180v-1024z" />
    <glyph glyph-name="Iogonek" unicode="&#x12e;" horiz-adv-x="600" 
d="M346 -281h66v-133h-93q-119 0 -182 47.5t-63 122.5q0 77 55.5 139.5t138.5 104.5h-63v1434h190v-1434q-190 -104 -190 -205q0 -43 37.5 -59.5t103.5 -16.5z" />
    <glyph glyph-name="iogonek" unicode="&#x12f;" horiz-adv-x="514" 
d="M156 1417h202v-211h-202v211zM299 -281h63v-133h-90q-119 0 -182 47.5t-63 122.5q0 77 55.5 139.5t138.5 104.5h-53v1024h180v-1024q-190 -104 -190 -205q0 -44 37 -60t104 -16z" />
    <glyph glyph-name="Idotaccent" unicode="&#x130;" horiz-adv-x="600" 
d="M410 1595h-217v215h217v-215zM395 0h-190v1434h190v-1434z" />
    <glyph glyph-name="dotlessi" unicode="&#x131;" horiz-adv-x="514" 
d="M348 0h-180v1024h180v-1024z" />
    <glyph glyph-name="IJ" unicode="&#x132;" horiz-adv-x="1351" 
d="M807 0h-635v178h598q107 0 153 46t46 153v1057h190v-1082q0 -180 -88 -266t-264 -86zM362 403h-190v1031h190v-1031z" />
    <glyph glyph-name="ij" unicode="&#x133;" horiz-adv-x="1138" 
d="M358 1208h-200v209h200v-209zM981 1208h-201v209h201v-209zM758 -365h-590v158h526q54 0 75.5 20t21.5 74v1137h180v-1167q0 -105 -55 -163.5t-158 -58.5zM348 0h-180v1024h180v-1024z" />
    <glyph glyph-name="Jcircumflex" unicode="&#x134;" horiz-adv-x="958" 
d="M436 1561h-182l289 262h250l290 -262h-182l-231 145zM412 0h-353v178h316q107 0 152.5 46t45.5 153v1057h191v-1082q0 -179 -88.5 -265.5t-263.5 -86.5z" />
    <glyph glyph-name="jcircumflex" unicode="&#x135;" horiz-adv-x="534" 
d="M29 1161h-160l297 273h217l299 -273h-162l-244 156zM156 -365h-418v158h354q54 0 75 20t21 74v1137h181v-1167q0 -105 -55.5 -163.5t-157.5 -58.5z" />
    <glyph glyph-name="uni0136" unicode="&#x136;" horiz-adv-x="1595" 
d="M1561 1434l-719 -611l751 -823h-260l-637 700l-301 -256v-444h-190v1434h190v-758l885 758h281zM864 -385h-116v207h219v-221q0 -82 -52 -129t-141 -47h-72v96h64q52 0 75 19t23 61v14z" />
    <glyph glyph-name="uni0137" unicode="&#x137;" horiz-adv-x="1243" 
d="M1208 1024l-536 -424l559 -600h-244l-452 494l-187 -150v-344h-180v1434h180v-895l596 485h264zM631 -385h-117v207h221v-221q0 -82 -51.5 -129t-142.5 -47h-70v96h61q53 0 76 19t23 61v14z" />
    <glyph glyph-name="Lacute" unicode="&#x139;" horiz-adv-x="1429" 
d="M389 1561h-160l146 262h239zM1393 0h-1188v1434h190v-1262h998v-172z" />
    <glyph glyph-name="lacute" unicode="&#x13a;" horiz-adv-x="514" 
d="M330 1571h-140l144 272h205zM348 0h-180v1434h180v-1434z" />
    <glyph glyph-name="uni013B" unicode="&#x13b;" horiz-adv-x="1429" 
d="M1393 0h-1188v1434h190v-1262h998v-172zM711 -575h-72v96h63q52 0 75.5 19t23.5 61v14h-117v207h219v-221q0 -82 -51.5 -129t-140.5 -47z" />
    <glyph glyph-name="uni013C" unicode="&#x13c;" horiz-adv-x="514" 
d="M348 0h-180v1434h180v-1434zM172 -575h-72v96h64q52 0 75 19t23 61v14h-117v207h220v-221q0 -82 -52 -129t-141 -47z" />
    <glyph glyph-name="Lcaron" unicode="&#x13d;" horiz-adv-x="1431" 
d="M1393 0h-1188v1434h190v-1262h998v-172zM754 1034h-70v96h61q53 0 76 20t23 62v13h-117v209h221v-222q0 -82 -52 -130t-142 -48z" />
    <glyph glyph-name="lcaron" unicode="&#x13e;" horiz-adv-x="622" 
d="M348 0h-180v1434h180v-1434zM506 1034h-72v96h64q52 0 75 20t23 62v13h-117v209h219v-222q0 -82 -51.5 -130t-140.5 -48z" />
    <glyph glyph-name="Ldot" unicode="&#x13f;" horiz-adv-x="1431" 
d="M1393 0h-1188v1434h190v-1262h998v-172zM1094 639h-252v233h252v-233z" />
    <glyph glyph-name="ldot" unicode="&#x140;" horiz-adv-x="724" 
d="M348 0h-180v1434h180v-1434zM752 598h-252v233h252v-233z" />
    <glyph glyph-name="Lslash" unicode="&#x141;" horiz-adv-x="1480" 
d="M446 616v-444h1000v-172h-1190v526l-190 -90v187l190 90v721h190v-631l535 252v-187z" />
    <glyph glyph-name="lslash" unicode="&#x142;" horiz-adv-x="669" 
d="M432 950l201 103v-176l-201 -103v-774h-180v684l-191 -96v176l191 96v574h180v-484z" />
    <glyph glyph-name="Nacute" unicode="&#x143;" horiz-adv-x="1730" 
d="M936 1823h240l-226 -262h-159zM1335 223v1211h191v-1434h-256l-875 1210v-1210h-190v1434h256z" />
    <glyph glyph-name="nacute" unicode="&#x144;" horiz-adv-x="1339" 
d="M762 1161h-139l143 273h205zM348 0h-180v1024h180v-176q57 88 159 142t243 54q205 0 320.5 -116.5t115.5 -304.5v-623h-180v573q0 148 -68.5 234t-204.5 86h-28q-69 0 -133.5 -27.5t-114 -75.5t-79.5 -119.5t-30 -154.5v-516z" />
    <glyph glyph-name="uni0145" unicode="&#x145;" horiz-adv-x="1730" 
d="M1335 223v1211h191v-1434h-256l-875 1210v-1210h-190v1434h256zM866 -385h-116v207h219v-221q0 -82 -52 -129t-141 -47h-71v96h63q52 0 75 19t23 61v14z" />
    <glyph glyph-name="uni0146" unicode="&#x146;" horiz-adv-x="1339" 
d="M348 0h-180v1024h180v-176q57 88 159 142t243 54q205 0 320.5 -116.5t115.5 -304.5v-623h-180v573q0 148 -68.5 234t-204.5 86h-28q-69 0 -133.5 -27.5t-114 -75.5t-79.5 -119.5t-30 -154.5v-516zM582 -575h-70v96h61q53 0 76 19t23 61v14h-117v207h221v-221
q0 -82 -51.5 -129t-142.5 -47z" />
    <glyph glyph-name="Ncaron" unicode="&#x147;" horiz-adv-x="1730" 
d="M1272 1823l-283 -262h-250l-282 262h182l227 -146l224 146h182zM1335 223v1211h191v-1434h-256l-875 1210v-1210h-190v1434h256z" />
    <glyph glyph-name="ncaron" unicode="&#x148;" horiz-adv-x="1339" 
d="M791 1161h-195l-299 273h162l235 -156l236 156h160zM348 0h-180v1024h180v-176q57 88 159 142t243 54q205 0 320.5 -116.5t115.5 -304.5v-623h-180v573q0 148 -68.5 234t-204.5 86h-28q-69 0 -133.5 -27.5t-114 -75.5t-79.5 -119.5t-30 -154.5v-516z" />
    <glyph glyph-name="Eng" unicode="&#x14a;" horiz-adv-x="1730" 
d="M1276 -379h-330v172h277q60 0 86 27.5t26 85.5v78l-940 1226v-1210h-190v1434h256l874 -1141v1141h191v-1557q0 -114 -67.5 -185t-182.5 -71z" />
    <glyph glyph-name="eng" unicode="&#x14b;" horiz-adv-x="1339" 
d="M983 -365h-317v158h252q52 0 70 18.5t18 69.5v692q0 147 -68.5 233.5t-204.5 86.5h-28q-92 0 -173.5 -46.5t-132.5 -134t-51 -196.5v-516h-180v1024h180v-176q57 88 159 142t243 54q205 0 320.5 -116.5t115.5 -304.5v-783q0 -205 -203 -205z" />
    <glyph glyph-name="Omacron" unicode="&#x14c;" horiz-adv-x="1789" 
d="M1249 1597h-700v144h700v-144zM897 -20q-225 0 -402.5 87.5t-280.5 256.5t-103 393t103 393t280.5 256.5t402.5 87.5t401.5 -87.5t278.5 -256t102 -393.5t-102 -393.5t-278.5 -256t-401.5 -87.5zM881 152h32q157 0 286.5 65.5t208.5 196t79 303.5t-79 303.5t-208.5 196
t-286.5 65.5h-32q-118 0 -222.5 -38.5t-184 -109t-125.5 -178.5t-46 -239t46 -239t125.5 -178.5t184 -109t222.5 -38.5z" />
    <glyph glyph-name="omacron" unicode="&#x14d;" horiz-adv-x="1345" 
d="M989 1206h-655v144h655v-144zM674 -20q-257 0 -416.5 145.5t-159.5 386.5t159.5 386.5t416.5 145.5q255 0 414 -145.5t159 -386.5t-159 -386.5t-414 -145.5zM659 131h29q164 0 270.5 103t106.5 278t-106.5 278t-270.5 103h-29q-166 0 -272 -103t-106 -278t106 -278
t272 -103z" />
    <glyph glyph-name="Obreve" unicode="&#x14e;" horiz-adv-x="1789" 
d="M897 1561q-162 0 -257.5 79t-100.5 203h151q8 -67 59.5 -108t147.5 -41q95 0 147 41t60 108h151q-6 -124 -102 -203t-256 -79zM897 -20q-225 0 -402.5 87.5t-280.5 256.5t-103 393t103 393t280.5 256.5t402.5 87.5t401.5 -87.5t278.5 -256t102 -393.5t-102 -393.5
t-278.5 -256t-401.5 -87.5zM881 152h32q157 0 286.5 65.5t208.5 196t79 303.5t-79 303.5t-208.5 196t-286.5 65.5h-32q-118 0 -222.5 -38.5t-184 -109t-125.5 -178.5t-46 -239t46 -239t125.5 -178.5t184 -109t222.5 -38.5z" />
    <glyph glyph-name="obreve" unicode="&#x14f;" horiz-adv-x="1345" 
d="M674 1161q-160 0 -255.5 84t-101.5 209h142q8 -72 62.5 -119t152.5 -47q97 0 151 47t62 119h141q-6 -125 -101 -209t-253 -84zM674 -20q-257 0 -416.5 145.5t-159.5 386.5t159.5 386.5t416.5 145.5q255 0 414 -145.5t159 -386.5t-159 -386.5t-414 -145.5zM659 131h29
q164 0 270.5 103t106.5 278t-106.5 278t-270.5 103h-29q-166 0 -272 -103t-106 -278t106 -278t272 -103z" />
    <glyph glyph-name="Ohungarumlaut" unicode="&#x150;" horiz-adv-x="1789" 
d="M770 1561h-162l148 262h239zM1186 1561h-162l145 262h242zM897 -20q-225 0 -402.5 87.5t-280.5 256.5t-103 393t103 393t280.5 256.5t402.5 87.5t401.5 -87.5t278.5 -256t102 -393.5t-102 -393.5t-278.5 -256t-401.5 -87.5zM881 152h32q157 0 286.5 65.5t208.5 196
t79 303.5t-79 303.5t-208.5 196t-286.5 65.5h-32q-118 0 -222.5 -38.5t-184 -109t-125.5 -178.5t-46 -239t46 -239t125.5 -178.5t184 -109t222.5 -38.5z" />
    <glyph glyph-name="ohungarumlaut" unicode="&#x151;" horiz-adv-x="1345" 
d="M563 1161h-139l143 273h205zM918 1161h-140l144 273h204zM674 -20q-257 0 -416.5 145.5t-159.5 386.5t159.5 386.5t416.5 145.5q255 0 414 -145.5t159 -386.5t-159 -386.5t-414 -145.5zM659 131h29q164 0 270.5 103t106.5 278t-106.5 278t-270.5 103h-29
q-166 0 -272 -103t-106 -278t106 -278t272 -103z" />
    <glyph glyph-name="OE" unicode="&#x152;" horiz-adv-x="2844" 
d="M897 -20q-225 0 -402.5 87.5t-280.5 256.5t-103 393t103 393t280.5 256.5t402.5 87.5q201 0 358 -72.5t254 -210.5v263h1213v-172h-1022v-439h899v-172h-899v-479h1042v-172h-1233v266q-97 -139 -254 -212.5t-358 -73.5zM881 152h32q157 0 286.5 65.5t208.5 196t79 303.5
t-79 303.5t-208.5 196t-286.5 65.5h-32q-118 0 -222.5 -38.5t-184 -109t-125.5 -178.5t-46 -239t46 -239t125.5 -178.5t184 -109t222.5 -38.5z" />
    <glyph glyph-name="oe" unicode="&#x153;" horiz-adv-x="2220" 
d="M672 -20q-257 0 -415.5 145.5t-158.5 386.5t158.5 386.5t415.5 145.5q164 0 288.5 -64.5t192.5 -182.5q67 120 189 183.5t266 63.5q233 0 370.5 -133t137.5 -346v-82h-869q10 -169 111.5 -261.5t240.5 -92.5h29q105 0 186 46.5t109 123.5h184q-32 -148 -165.5 -233.5
t-325.5 -85.5q-159 0 -279.5 62t-185.5 183q-68 -118 -191.5 -181.5t-287.5 -63.5zM657 129h29q165 0 272 104t107 279t-107 279t-272 104h-29q-166 0 -272 -104t-106 -279t106 -279t272 -104zM1257 627h668q-9 133 -93.5 200.5t-209.5 67.5h-29q-127 0 -218 -69.5
t-118 -198.5z" />
    <glyph glyph-name="Racute" unicode="&#x154;" horiz-adv-x="1603" 
d="M844 1561h-160l145 262h240zM395 0h-190v1434h772q202 0 331.5 -111t129.5 -281q0 -130 -66.5 -223.5t-161.5 -126.5q199 0 199 -211v-481h-190v430q0 89 -33 120.5t-125 31.5h-666v-582zM395 1262v-508h551q139 0 219 71t80 187q0 121 -78.5 185.5t-220.5 64.5h-551z
" />
    <glyph glyph-name="racute" unicode="&#x155;" horiz-adv-x="870" 
d="M553 1161h-139l143 273h205zM348 0h-180v1024h170v-209q41 107 120 158t214 51h155v-176h-163q-153 0 -234.5 -84.5t-81.5 -243.5v-520z" />
    <glyph glyph-name="uni0156" unicode="&#x156;" horiz-adv-x="1603" 
d="M395 0h-190v1434h772q202 0 331.5 -111t129.5 -281q0 -130 -66.5 -223.5t-161.5 -126.5q199 0 199 -211v-481h-190v430q0 89 -33 120.5t-125 31.5h-666v-582zM395 1262v-508h551q139 0 219 71t80 187q0 121 -78.5 185.5t-220.5 64.5h-551zM719 -575h-72v96h64q52 0 75 19
t23 61v14h-117v207h219v-221q0 -82 -51.5 -129t-140.5 -47z" />
    <glyph glyph-name="uni0157" unicode="&#x157;" horiz-adv-x="870" 
d="M348 0h-180v1024h170v-209q41 107 120 158t214 51h155v-176h-163q-153 0 -234.5 -84.5t-81.5 -243.5v-520zM170 -575h-70v96h62q53 0 75.5 19t22.5 61v14h-117v207h222v-221q0 -82 -52 -129t-143 -47z" />
    <glyph glyph-name="Rcaron" unicode="&#x158;" horiz-adv-x="1603" 
d="M883 1561h-250l-283 262h182l228 -146l223 146h182zM395 0h-190v1434h772q202 0 331.5 -111t129.5 -281q0 -130 -66.5 -223.5t-161.5 -126.5q199 0 199 -211v-481h-190v430q0 89 -33 120.5t-125 31.5h-666v-582zM395 1262v-508h551q139 0 219 71t80 187
q0 121 -78.5 185.5t-220.5 64.5h-551z" />
    <glyph glyph-name="rcaron" unicode="&#x159;" horiz-adv-x="870" 
d="M582 1161h-195l-299 273h162l235 -156l236 156h160zM348 0h-180v1024h170v-209q41 107 120 158t214 51h155v-176h-163q-153 0 -234.5 -84.5t-81.5 -243.5v-520z" />
    <glyph glyph-name="Sacute" unicode="&#x15a;" horiz-adv-x="1484" 
d="M831 1561h-159l145 262h240zM756 -20q-314 0 -491 121.5t-181 355.5h205q6 -149 124.5 -227t323.5 -78h33q199 0 294 62t95 171q0 88 -76.5 143t-248.5 84l-224 37q-237 38 -341.5 129t-104.5 273q0 79 34.5 149t102.5 128t182.5 92t261.5 34q283 0 448 -118.5
t187 -327.5h-204q-19 131 -127.5 202.5t-286.5 71.5h-33q-175 0 -274 -63.5t-99 -163.5q0 -91 70 -141t223 -74l230 -37q473 -77 473 -406q0 -199 -154 -308t-442 -109z" />
    <glyph glyph-name="sacute" unicode="&#x15b;" horiz-adv-x="1146" 
d="M637 1161h-139l141 273h207zM567 -20q-227 0 -352.5 88.5t-134.5 244.5h184q9 -90 89.5 -136t199.5 -46h29q128 0 199 34.5t71 104.5q0 56 -47.5 90t-167.5 58l-170 33q-168 31 -253 96.5t-85 189.5q0 146 124 226.5t314 80.5q230 0 353 -88t135 -245h-185
q-10 79 -84.5 130.5t-203.5 51.5h-29q-113 0 -177.5 -39t-64.5 -100q0 -55 44 -84.5t173 -55.5l160 -30q168 -31 257 -102.5t89 -198.5q0 -139 -125 -221t-342 -82z" />
    <glyph glyph-name="Scircumflex" unicode="&#x15c;" horiz-adv-x="1484" 
d="M514 1561h-184l291 262h249l291 -262h-184l-229 145zM756 -20q-314 0 -491 121.5t-181 355.5h205q6 -149 124.5 -227t323.5 -78h33q199 0 294 62t95 171q0 88 -76.5 143t-248.5 84l-224 37q-237 38 -341.5 129t-104.5 273q0 79 34.5 149t102.5 128t182.5 92t261.5 34
q283 0 448 -118.5t187 -327.5h-204q-19 131 -127.5 202.5t-286.5 71.5h-33q-175 0 -274 -63.5t-99 -163.5q0 -91 70 -141t223 -74l230 -37q473 -77 473 -406q0 -199 -154 -308t-442 -109z" />
    <glyph glyph-name="scircumflex" unicode="&#x15d;" horiz-adv-x="1146" 
d="M322 1161h-160l297 273h217l299 -273h-162l-244 156zM567 -20q-227 0 -352.5 88.5t-134.5 244.5h184q9 -90 89.5 -136t199.5 -46h29q128 0 199 34.5t71 104.5q0 56 -47.5 90t-167.5 58l-170 33q-168 31 -253 96.5t-85 189.5q0 146 124 226.5t314 80.5q230 0 353 -88
t135 -245h-185q-10 79 -84.5 130.5t-203.5 51.5h-29q-113 0 -177.5 -39t-64.5 -100q0 -55 44 -84.5t173 -55.5l160 -30q168 -31 257 -102.5t89 -198.5q0 -139 -125 -221t-342 -82z" />
    <glyph glyph-name="Scedilla" unicode="&#x15e;" horiz-adv-x="1484" 
d="M649 840l230 -37q473 -77 473 -406q0 -193 -143.5 -301.5t-413.5 -115.5v-72q88 -5 143 -53.5t55 -126.5q0 -97 -70 -150t-182 -53h-149v131h151q117 0 117 76q0 78 -112 78h-64v172q-282 14 -439 134t-161 341h205q6 -149 124.5 -227t323.5 -78h33q199 0 294 62t95 171
q0 88 -76.5 143t-248.5 84l-224 37q-237 38 -341.5 129t-104.5 273q0 79 34.5 149t102.5 128t182.5 92t261.5 34q283 0 448 -118.5t187 -327.5h-204q-19 131 -127.5 202.5t-286.5 71.5h-33q-175 0 -274 -63.5t-99 -163.5q0 -91 70 -141t223 -74z" />
    <glyph glyph-name="scedilla" unicode="&#x15f;" horiz-adv-x="1146" 
d="M528 614l160 -30q168 -31 257 -102.5t89 -198.5q0 -131 -113.5 -212.5t-310.5 -90.5v-72q88 -5 144.5 -53.5t56.5 -126.5q0 -97 -70 -150t-182 -53h-149v131h149q117 0 117 76q0 38 -29 58t-82 20h-63v172q-196 12 -304.5 99t-117.5 232h184q9 -90 89.5 -136t199.5 -46
h29q128 0 199 34.5t71 104.5q0 56 -47.5 90t-167.5 58l-170 33q-168 31 -253 96.5t-85 189.5q0 146 124 226.5t314 80.5q230 0 353 -88t135 -245h-185q-10 79 -84.5 130.5t-203.5 51.5h-29q-113 0 -177.5 -39t-64.5 -100q0 -55 44 -84.5t173 -55.5z" />
    <glyph glyph-name="Scaron" unicode="&#x160;" horiz-adv-x="1484" 
d="M870 1561h-249l-283 262h182l228 -146l223 146h182zM756 -20q-314 0 -491 121.5t-181 355.5h205q6 -149 124.5 -227t323.5 -78h33q199 0 294 62t95 171q0 88 -76.5 143t-248.5 84l-224 37q-237 38 -341.5 129t-104.5 273q0 79 34.5 149t102.5 128t182.5 92t261.5 34
q283 0 448 -118.5t187 -327.5h-204q-19 131 -127.5 202.5t-286.5 71.5h-33q-175 0 -274 -63.5t-99 -163.5q0 -91 70 -141t223 -74l230 -37q473 -77 473 -406q0 -199 -154 -308t-442 -109z" />
    <glyph glyph-name="scaron" unicode="&#x161;" horiz-adv-x="1146" 
d="M666 1161h-195l-299 273h160l237 -156l234 156h160zM567 -20q-227 0 -352.5 88.5t-134.5 244.5h184q9 -90 89.5 -136t199.5 -46h29q128 0 199 34.5t71 104.5q0 56 -47.5 90t-167.5 58l-170 33q-168 31 -253 96.5t-85 189.5q0 146 124 226.5t314 80.5q230 0 353 -88
t135 -245h-185q-10 79 -84.5 130.5t-203.5 51.5h-29q-113 0 -177.5 -39t-64.5 -100q0 -55 44 -84.5t173 -55.5l160 -30q168 -31 257 -102.5t89 -198.5q0 -139 -125 -221t-342 -82z" />
    <glyph glyph-name="uni0162" unicode="&#x162;" horiz-adv-x="1456" 
d="M823 1262v-1262h-41v-92q88 -5 144.5 -53.5t56.5 -126.5q0 -97 -70 -150t-182 -53h-149v131h149q117 0 117 76q0 38 -29 58t-82 20h-63v190h-41v1262h-598v172h1386v-172h-598z" />
    <glyph glyph-name="uni0163" unicode="&#x163;" horiz-adv-x="909" 
d="M858 158v-158h-336v-92q88 -5 143.5 -53.5t55.5 -126.5q0 -97 -70 -150t-182 -53h-150v131h152q117 0 117 76q0 78 -113 78h-63v210q-113 53 -113 207v643h-266v154h266v332h180v-332h334v-154h-334v-610q0 -57 22.5 -79.5t78.5 -22.5h278z" />
    <glyph glyph-name="Tcaron" unicode="&#x164;" horiz-adv-x="1456" 
d="M852 1561h-250l-283 262h183l227 -146l223 146h185zM823 0h-190v1262h-598v172h1386v-172h-598v-1262z" />
    <glyph glyph-name="tcaron" unicode="&#x165;" horiz-adv-x="964" 
d="M924 1034h-72v96h63q52 0 75.5 20t23.5 62v13h-117v209h219v-222q0 -82 -51.5 -130t-140.5 -48zM858 0h-338q-105 0 -163 59.5t-58 167.5v643h-266v154h266v332h180v-332h334v-154h-334v-610q0 -57 22.5 -79.5t78.5 -22.5h278v-158z" />
    <glyph glyph-name="Tbar" unicode="&#x166;" horiz-adv-x="1527" 
d="M1456 1434v-172h-598v-404h459v-164h-459v-694h-190v694h-457v164h457v404h-598v172h1386z" />
    <glyph glyph-name="tbar" unicode="&#x167;" horiz-adv-x="942" 
d="M606 158h277v-158h-338q-105 0 -162 59.5t-57 167.5v267h-269v141h269v235h-269v154h269v332h180v-332h332v-154h-332v-235h332v-141h-332v-234q0 -57 21.5 -79.5t78.5 -22.5z" />
    <glyph glyph-name="Utilde" unicode="&#x168;" horiz-adv-x="1624" 
d="M1012 1561q-59 0 -100 13t-101 46l-68 37q-68 37 -110 37q-90 0 -90 -113h-152v43q0 91 60 151t159 60q58 0 98.5 -12t92.5 -39l69 -39q73 -43 119 -43q90 0 90 113h152v-43q0 -91 -60 -151t-159 -60zM811 -20q-307 0 -465 155t-158 430v869h191v-852q0 -210 106.5 -320
t309.5 -110h32q204 0 311 109.5t107 320.5v852h191v-869q0 -273 -161 -429t-464 -156z" />
    <glyph glyph-name="utilde" unicode="&#x169;" horiz-adv-x="1323" 
d="M856 1161q-55 0 -97.5 14t-103.5 48l-67 37q-66 38 -111 38q-40 0 -64 -29t-24 -87h-143v45q0 93 58.5 154t150.5 61q53 0 93.5 -13.5t96.5 -42.5l68 -38q77 -43 121 -43q86 0 86 116h145v-45q0 -93 -59.5 -154t-149.5 -61zM575 -20q-202 0 -310.5 108.5t-108.5 296.5
v639h180v-592q0 -149 63.5 -225t198.5 -76h29q143 0 245.5 101t102.5 266v526h180v-1024h-180v188q-54 -94 -154.5 -151t-245.5 -57z" />
    <glyph glyph-name="Umacron" unicode="&#x16a;" horiz-adv-x="1624" 
d="M1165 1597h-700v144h700v-144zM811 -20q-307 0 -465 155t-158 430v869h191v-852q0 -210 106.5 -320t309.5 -110h32q204 0 311 109.5t107 320.5v852h191v-869q0 -273 -161 -429t-464 -156z" />
    <glyph glyph-name="umacron" unicode="&#x16b;" horiz-adv-x="1323" 
d="M973 1206h-656v144h656v-144zM575 -20q-202 0 -310.5 108.5t-108.5 296.5v639h180v-592q0 -149 63.5 -225t198.5 -76h29q143 0 245.5 101t102.5 266v526h180v-1024h-180v188q-54 -94 -154.5 -151t-245.5 -57z" />
    <glyph glyph-name="Ubreve" unicode="&#x16c;" horiz-adv-x="1624" 
d="M811 1561q-160 0 -256 79t-102 203h151q8 -67 60 -108t147 -41q97 0 149 41t58 108h151q-5 -124 -100.5 -203t-257.5 -79zM811 -20q-307 0 -465 155t-158 430v869h191v-852q0 -210 106.5 -320t309.5 -110h32q204 0 311 109.5t107 320.5v852h191v-869q0 -273 -161 -429
t-464 -156z" />
    <glyph glyph-name="ubreve" unicode="&#x16d;" horiz-adv-x="1323" 
d="M655 1161q-158 0 -253 84t-101 209h141q8 -72 62 -119t151 -47q98 0 152.5 47t62.5 119h142q-6 -125 -101.5 -209t-255.5 -84zM575 -20q-202 0 -310.5 108.5t-108.5 296.5v639h180v-592q0 -149 63.5 -225t198.5 -76h29q143 0 245.5 101t102.5 266v526h180v-1024h-180v188
q-54 -94 -154.5 -151t-245.5 -57z" />
    <glyph glyph-name="Uring" unicode="&#x16e;" horiz-adv-x="1624" 
d="M809 1542q-94 0 -158.5 52.5t-64.5 131.5t64.5 132t158.5 53q96 0 160.5 -53t64.5 -132t-64.5 -131.5t-160.5 -52.5zM811 1647q46 0 73 22t27 57t-27 57.5t-73 22.5t-74 -22.5t-28 -57.5q0 -34 28 -56.5t74 -22.5zM811 -20q-307 0 -465 155t-158 430v869h191v-852
q0 -210 106.5 -320t309.5 -110h32q204 0 311 109.5t107 320.5v852h191v-869q0 -273 -161 -429t-464 -156z" />
    <glyph glyph-name="uring" unicode="&#x16f;" horiz-adv-x="1323" 
d="M655 1161q-94 0 -157.5 55t-63.5 138t63.5 136.5t157.5 53.5q93 0 157.5 -54t64.5 -136q0 -83 -64.5 -138t-157.5 -55zM657 1268q48 0 76.5 24t28.5 62q0 37 -28 60.5t-77 23.5q-50 0 -79 -23.5t-29 -60.5q0 -38 29 -62t79 -24zM575 -20q-202 0 -310.5 108.5
t-108.5 296.5v639h180v-592q0 -149 63.5 -225t198.5 -76h29q143 0 245.5 101t102.5 266v526h180v-1024h-180v188q-54 -94 -154.5 -151t-245.5 -57z" />
    <glyph glyph-name="Uhungarumlaut" unicode="&#x170;" horiz-adv-x="1624" 
d="M686 1561h-162l146 262h241zM1100 1561h-160l145 262h240zM811 -20q-307 0 -465 155t-158 430v869h191v-852q0 -210 106.5 -320t309.5 -110h32q204 0 311 109.5t107 320.5v852h191v-869q0 -273 -161 -429t-464 -156z" />
    <glyph glyph-name="uhungarumlaut" unicode="&#x171;" horiz-adv-x="1323" 
d="M547 1161h-139l141 273h207zM901 1161h-139l141 273h207zM575 -20q-202 0 -310.5 108.5t-108.5 296.5v639h180v-592q0 -149 63.5 -225t198.5 -76h29q143 0 245.5 101t102.5 266v526h180v-1024h-180v188q-54 -94 -154.5 -151t-245.5 -57z" />
    <glyph glyph-name="Uogonek" unicode="&#x172;" horiz-adv-x="1624" 
d="M1245 582v852h191v-869q0 -224 -109 -371t-317 -194q-191 -105 -191 -205q0 -76 142 -76h65v-133h-92q-119 0 -182.5 47.5t-63.5 122.5q0 128 158 224h-35q-307 0 -465 155t-158 430v869h191v-852q0 -210 106.5 -320t309.5 -110h32q204 0 311 109.5t107 320.5z" />
    <glyph glyph-name="uogonek" unicode="&#x173;" horiz-adv-x="1323" 
d="M1106 -281h65v-133h-92q-119 0 -182 47.5t-63 122.5q0 77 55.5 139.5t138.5 104.5h-53v188q-54 -94 -154.5 -151t-245.5 -57q-202 0 -310.5 108.5t-108.5 296.5v639h180v-592q0 -149 63.5 -225t198.5 -76h29q143 0 245.5 101t102.5 266v526h180v-1024
q-190 -104 -190 -205q0 -43 37.5 -59.5t103.5 -16.5z" />
    <glyph glyph-name="Wcircumflex" unicode="&#x174;" horiz-adv-x="2150" 
d="M1309 1561l-232 145l-233 -145h-182l290 262h250l289 -262h-182zM1563 172l356 1262h197l-428 -1434h-265l-348 1227l-358 -1227h-264l-412 1434h197l356 -1248l362 1248h254z" />
    <glyph glyph-name="wcircumflex" unicode="&#x175;" horiz-adv-x="1798" 
d="M1145 1161l-244 156l-248 -156h-159l297 273h217l299 -273h-162zM1292 184l283 840h190l-376 -1024h-207l-283 807l-285 -807h-204l-377 1024h190l293 -823l287 823h190z" />
    <glyph glyph-name="Ycircumflex" unicode="&#x176;" horiz-adv-x="1449" 
d="M958 1561l-231 145l-233 -145h-183l291 262h250l289 -262h-183zM727 780l469 654h231l-608 -826v-608h-190v608l-606 826h233z" />
    <glyph glyph-name="ycircumflex" unicode="&#x177;" horiz-adv-x="1255" 
d="M393 1161h-160l299 273h216l299 -273h-160l-246 156zM522 -365h-411v158h354q52 0 71 19.5t19 70.5v170l-514 971h205l403 -770l385 770h203l-502 -963v-213q0 -213 -213 -213z" />
    <glyph glyph-name="Ydieresis" unicode="&#x178;" horiz-adv-x="1449" 
d="M397 1792h207v-197h-207v197zM838 1792h206v-197h-206v197zM727 780l469 654h231l-608 -826v-608h-190v608l-606 826h233z" />
    <glyph glyph-name="Zacute" unicode="&#x179;" horiz-adv-x="1421" 
d="M782 1823h240l-225 -262h-160zM1313 1268l-977 -1096h997v-172h-1245v166l977 1096h-956v172h1204v-166z" />
    <glyph glyph-name="zacute" unicode="&#x17a;" horiz-adv-x="1142" 
d="M649 1434h205l-209 -273h-139zM1030 866l-708 -710h739v-156h-971v158l711 710h-701v156h930v-158z" />
    <glyph glyph-name="Zdotaccent" unicode="&#x17b;" horiz-adv-x="1421" 
d="M604 1810h217v-215h-217v215zM1313 1268l-977 -1096h997v-172h-1245v166l977 1096h-956v172h1204v-166z" />
    <glyph glyph-name="zdotaccent" unicode="&#x17c;" horiz-adv-x="1142" 
d="M475 1417h203v-211h-203v211zM1030 866l-708 -710h739v-156h-971v158l711 710h-701v156h930v-158z" />
    <glyph glyph-name="Zcaron" unicode="&#x17d;" horiz-adv-x="1421" 
d="M1118 1823l-282 -262h-250l-283 262h182l228 -146l223 146h182zM1313 1268l-977 -1096h997v-172h-1245v166l977 1096h-956v172h1204v-166z" />
    <glyph glyph-name="zcaron" unicode="&#x17e;" horiz-adv-x="1142" 
d="M973 1434l-299 -273h-195l-297 273h160l238 -156l233 156h160zM1030 866l-708 -710h739v-156h-971v158l711 710h-701v156h930v-158z" />
    <glyph glyph-name="florin" unicode="&#x192;" horiz-adv-x="980" 
d="M934 1270h-141q-105 0 -147 -48t-62 -169l-21 -127h314v-162h-338l-125 -791q-31 -206 -116.5 -294.5t-264.5 -88.5h-160v164h143q108 0 150.5 48t62.5 169l125 793h-256v162h281l20 125q33 209 117 296t262 87h156v-164z" />
    <glyph glyph-name="AEacute" unicode="&#x1fc;" horiz-adv-x="2353" 
d="M1552 1823h240l-225 -262h-160zM1372 653l68 -485h850v-168h-1012l-53 377h-760l-268 -377h-220l1022 1434h1168v-168h-879l62 -445h755v-168h-733zM1100 1272l-514 -723h614z" />
    <glyph glyph-name="aeacute" unicode="&#x1fd;" horiz-adv-x="2068" 
d="M1100 1161h-139l143 273h205zM487 -20q-186 0 -290.5 84.5t-104.5 218.5q0 78 30.5 138t86 97t125.5 57t155 25l402 25v34q0 115 -73.5 175.5t-209.5 60.5h-33q-108 0 -184 -45.5t-88 -118.5h-184q15 136 146.5 224.5t326.5 88.5q161 0 267.5 -51.5t154.5 -146.5
q76 96 193.5 147t248.5 51q233 0 370.5 -133t137.5 -346v-82h-877q6 -86 38.5 -155t82.5 -111.5t111.5 -65t128.5 -22.5h29q105 0 186 46.5t109 123.5h184q-32 -148 -166 -233.5t-326 -85.5q-155 0 -278 57.5t-195 169.5q-151 -227 -504 -227zM1098 627h676
q-9 133 -94 200.5t-210 67.5h-28q-130 0 -222.5 -69.5t-121.5 -198.5zM510 129h29q62 0 122.5 17.5t112.5 50.5t84.5 89t32.5 126v73l-348 -22q-271 -17 -271 -168q0 -77 58.5 -121.5t179.5 -44.5z" />
    <glyph glyph-name="Oslashacute" unicode="&#x1fe;" horiz-adv-x="1808" 
d="M971 1823h241l-225 -262h-162zM1571 1499l119 -121l-172 -172q172 -194 172 -489q0 -225 -102.5 -393.5t-279 -256t-401.5 -87.5q-282 0 -487 139l-182 -182l-119 122l172 172q-170 197 -170 486q0 224 103 393t280.5 256.5t402.5 87.5q281 0 482 -135zM313 717
q0 -207 113 -352l831 823q-145 94 -333 94h-33q-118 0 -222.5 -38.5t-184 -109t-125.5 -178.5t-46 -239zM1497 717q0 209 -115 356l-831 -825q146 -96 340 -96h33q157 0 286 65.5t208 196t79 303.5z" />
    <glyph glyph-name="oslashacute" unicode="&#x1ff;" horiz-adv-x="1353" 
d="M745 1434h207l-209 -273h-139zM1243 985l-117 -121q127 -143 127 -352q0 -241 -159.5 -386.5t-415.5 -145.5q-192 0 -330 81l-121 -124l-100 106l106 111q-131 140 -131 358q0 241 159.5 386.5t416.5 145.5q190 0 334 -86l125 129zM285 512q0 -139 69 -233l543 561
q-86 53 -205 53h-28q-166 0 -272.5 -103t-106.5 -278zM664 131h28q165 0 272 103t107 278q0 133 -65 227l-543 -559q85 -49 201 -49z" />
    <glyph glyph-name="uni0218" unicode="&#x218;" horiz-adv-x="1484" 
d="M756 -20q-314 0 -491 121.5t-181 355.5h205q6 -149 124.5 -227t323.5 -78h33q199 0 294 62t95 171q0 88 -76.5 143t-248.5 84l-224 37q-237 38 -341.5 129t-104.5 273q0 79 34.5 149t102.5 128t182.5 92t261.5 34q283 0 448 -118.5t187 -327.5h-204q-19 131 -127.5 202.5
t-286.5 71.5h-33q-175 0 -274 -63.5t-99 -163.5q0 -91 70 -141t223 -74l230 -37q473 -77 473 -406q0 -199 -154 -308t-442 -109zM651 -575h-71v96h63q52 0 75 19t23 61v14h-116v207h219v-221q0 -82 -52 -129t-141 -47z" />
    <glyph glyph-name="uni0219" unicode="&#x219;" horiz-adv-x="1146" 
d="M567 -20q-227 0 -352.5 88.5t-134.5 244.5h184q9 -90 89.5 -136t199.5 -46h29q128 0 199 34.5t71 104.5q0 56 -47.5 90t-167.5 58l-170 33q-168 31 -253 96.5t-85 189.5q0 146 124 226.5t314 80.5q230 0 353 -88t135 -245h-185q-10 79 -84.5 130.5t-203.5 51.5h-29
q-113 0 -177.5 -39t-64.5 -100q0 -55 44 -84.5t173 -55.5l160 -30q168 -31 257 -102.5t89 -198.5q0 -139 -125 -221t-342 -82zM467 -575h-72v96h64q53 0 75.5 19t22.5 61v14h-117v207h219v-221q0 -82 -51 -129t-141 -47z" />
    <glyph glyph-name="uni021A" unicode="&#x21a;" horiz-adv-x="1456" 
d="M823 0h-190v1262h-598v172h1386v-172h-598v-1262zM639 -575h-72v96h64q53 0 75.5 19t22.5 61v14h-117v207h219v-221q0 -82 -51 -129t-141 -47z" />
    <glyph glyph-name="uni021B" unicode="&#x21b;" horiz-adv-x="909" 
d="M858 0h-338q-105 0 -163 59.5t-58 167.5v643h-266v154h266v332h180v-332h334v-154h-334v-610q0 -57 22.5 -79.5t78.5 -22.5h278v-158zM379 -575h-72v96h64q52 0 75 19t23 61v14h-117v207h219v-221q0 -82 -51.5 -129t-140.5 -47z" />
    <glyph glyph-name="uni0226" unicode="&#x226;" horiz-adv-x="1613" 
d="M698 1810h217v-215h-217v215zM1606 0h-209l-176 375h-834l-176 -375h-203l680 1434h240zM805 1266l-338 -719h674z" />
    <glyph glyph-name="uni0227" unicode="&#x227;" horiz-adv-x="1230" 
d="M709 1206h-203v211h203v-211zM492 -20q-190 0 -295 83.5t-105 219.5q0 79 30 138.5t85.5 96.5t125 57t156.5 25l404 25v34q0 115 -76 174.5t-213 59.5h-33q-109 0 -182.5 -43.5t-83.5 -118.5h-184q15 137 144 225t323 88q231 0 358 -107t127 -282v-430q0 -99 14 -225
h-169q-15 76 -15 164q-41 -76 -152 -130t-259 -54zM510 131h29q65 0 126.5 16.5t113 48.5t83 84t31.5 117v86l-338 -18q-151 -9 -216 -52t-65 -120q0 -76 57.5 -119t178.5 -43z" />
    <glyph glyph-name="uni0232" unicode="&#x232;" horiz-adv-x="1449" 
d="M381 1741h700v-144h-700v144zM727 780l469 654h231l-608 -826v-608h-190v608l-606 826h233z" />
    <glyph glyph-name="uni0233" unicode="&#x233;" horiz-adv-x="1255" 
d="M956 1206h-655v144h655v-144zM522 -365h-411v158h354q52 0 71 19.5t19 70.5v170l-514 971h205l403 -770l385 770h203l-502 -963v-213q0 -213 -213 -213z" />
    <glyph glyph-name="uni0237" unicode="&#x237;" horiz-adv-x="534" 
d="M156 -365h-418v158h354q54 0 75 20t21 74v1137h181v-1167q0 -105 -55.5 -163.5t-157.5 -58.5z" />
    <glyph glyph-name="uni02BC" unicode="&#x2bc;" horiz-adv-x="589" 
d="M227 918h-98v122h96q115 0 115 111v37h-135v235h256v-276q0 -111 -62.5 -170t-171.5 -59z" />
    <glyph glyph-name="circumflex" unicode="&#x2c6;" horiz-adv-x="903" 
d="M205 1161h-160l299 273h215l299 -273h-160l-245 156z" />
    <glyph glyph-name="caron" unicode="&#x2c7;" horiz-adv-x="913" 
d="M555 1161h-195l-299 273h160l238 -156l233 156h160z" />
    <glyph glyph-name="breve" unicode="&#x2d8;" horiz-adv-x="800" 
d="M399 1161q-158 0 -253 84t-101 209h141q8 -72 62 -119t151 -47q98 0 152.5 47t62.5 119h142q-6 -125 -101.5 -209t-255.5 -84z" />
    <glyph glyph-name="dotaccent" unicode="&#x2d9;" horiz-adv-x="321" 
d="M262 1206h-203v211h203v-211z" />
    <glyph glyph-name="ring" unicode="&#x2da;" horiz-adv-x="561" 
d="M279 1161q-93 0 -156.5 55t-63.5 138q0 82 63.5 136t156.5 54q95 0 159 -54t64 -136q0 -83 -64.5 -138t-158.5 -55zM281 1268q50 0 78 24t28 62t-28 61t-78 23q-49 0 -78 -23.5t-29 -60.5t29 -61.5t78 -24.5z" />
    <glyph glyph-name="ogonek" unicode="&#x2db;" horiz-adv-x="456" 
d="M395 -414h-92q-119 0 -182.5 47.5t-63.5 122.5q0 87 71 156t169 108l82 -20q-191 -105 -191 -205q0 -76 142 -76h65v-133z" />
    <glyph glyph-name="tilde" unicode="&#x2dc;" horiz-adv-x="917" 
d="M659 1161q-55 0 -97 14t-103 48l-68 37q-67 38 -110 38q-40 0 -64 -29t-24 -87h-144v45q0 93 58.5 154t150.5 61q53 0 94 -13.5t97 -42.5l67 -38q77 -43 121 -43q86 0 86 116h145v-45q0 -93 -59.5 -154t-149.5 -61z" />
    <glyph glyph-name="hungarumlaut" unicode="&#x2dd;" horiz-adv-x="843" 
d="M209 1161h-139l143 273h205zM563 1161h-139l143 273h205z" />
    <glyph glyph-name="uni0394" unicode="&#x394;" horiz-adv-x="1581" 
d="M676 1434h229l629 -1280v-154h-1487v154zM1339 164l-548 1124l-551 -1124h1099z" />
    <glyph glyph-name="uni03A9" unicode="&#x3a9;" horiz-adv-x="1853" 
d="M735 0h-583v164h276q-136 90 -211.5 239.5t-75.5 323.5q0 164 60 301t165 230t249.5 144.5t312.5 51.5t312 -51.5t248.5 -144.5t164 -230t59.5 -301q0 -174 -75.5 -323.5t-211.5 -239.5h277v-164h-584v164q185 42 295.5 193.5t110.5 369.5q0 128 -47 235t-126.5 178
t-184.5 110.5t-222 39.5h-33q-118 0 -223.5 -39.5t-185 -110.5t-126 -178t-46.5 -235q0 -219 109 -370.5t296 -192.5v-164z" />
    <glyph glyph-name="uni03BC" unicode="&#x3bc;" horiz-adv-x="1335" 
d="M346 -410h-178v1434h178v-606q0 -291 272 -291h25q141 0 243.5 99.5t102.5 262.5v535h178v-1024h-178v188q-50 -95 -150.5 -151.5t-244.5 -56.5q-153 0 -248 59v-449z" />
    <glyph glyph-name="pi" unicode="&#x3c0;" horiz-adv-x="1597" 
d="M489 0h-178v872h-276v152h1464v-152h-280v-630q0 -47 20 -66.5t66 -19.5h190v-156h-238q-217 0 -217 215v657h-551v-872z" />
    <glyph glyph-name="Wgrave" unicode="&#x1e80;" horiz-adv-x="2150" 
d="M1014 1823l147 -262h-164l-225 262h242zM1563 172l356 1262h197l-428 -1434h-265l-348 1227l-358 -1227h-264l-412 1434h197l356 -1248l362 1248h254z" />
    <glyph glyph-name="wgrave" unicode="&#x1e81;" horiz-adv-x="1798" 
d="M825 1434l144 -273h-140l-208 273h204zM1292 184l283 840h190l-376 -1024h-207l-283 807l-285 -807h-204l-377 1024h190l293 -823l287 823h190z" />
    <glyph glyph-name="Wacute" unicode="&#x1e82;" horiz-adv-x="2150" 
d="M1149 1823h240l-226 -262h-162zM1563 172l356 1262h197l-428 -1434h-265l-348 1227l-358 -1227h-264l-412 1434h197l356 -1248l362 1248h254z" />
    <glyph glyph-name="wacute" unicode="&#x1e83;" horiz-adv-x="1798" 
d="M971 1434h207l-209 -273h-140zM1292 184l283 840h190l-376 -1024h-207l-283 807l-285 -807h-204l-377 1024h190l293 -823l287 823h190z" />
    <glyph glyph-name="Wdieresis" unicode="&#x1e84;" horiz-adv-x="2150" 
d="M748 1792h206v-197h-206v197zM1188 1792h207v-197h-207v197zM1563 172l356 1262h197l-428 -1434h-265l-348 1227l-358 -1227h-264l-412 1434h197l356 -1248l362 1248h254z" />
    <glyph glyph-name="wdieresis" unicode="&#x1e85;" horiz-adv-x="1798" 
d="M580 1407h211v-201h-211v201zM1008 1407h211v-201h-211v201zM1292 184l283 840h190l-376 -1024h-207l-283 807l-285 -807h-204l-377 1024h190l293 -823l287 823h190z" />
    <glyph glyph-name="uni1E9E" unicode="&#x1e9e;" horiz-adv-x="1570" 
d="M1182 750q116 -29 193 -124.5t77 -228.5q0 -180 -127 -288.5t-315 -108.5h-398v172h357q136 0 213.5 62t77.5 180q0 107 -78.5 167t-212.5 60h-357v172h287q125 0 196.5 60t71.5 165q0 106 -71.5 165t-196.5 59h-504v-1262h-190v1434h723q188 0 310 -103t122 -276
q0 -103 -48.5 -182.5t-129.5 -122.5z" />
    <glyph glyph-name="Ygrave" unicode="&#x1ef2;" horiz-adv-x="1449" 
d="M664 1823l147 -262h-164l-225 262h242zM727 780l469 654h231l-608 -826v-608h-190v608l-606 826h233z" />
    <glyph glyph-name="ygrave" unicode="&#x1ef3;" horiz-adv-x="1255" 
d="M709 1161h-140l-209 273h205zM522 -365h-411v158h354q52 0 71 19.5t19 70.5v170l-514 971h205l403 -770l385 770h203l-502 -963v-213q0 -213 -213 -213z" />
    <glyph glyph-name="uni2002" unicode="&#x2002;" horiz-adv-x="1024" 
 />
    <glyph glyph-name="uni2003" unicode="&#x2003;" horiz-adv-x="2048" 
 />
    <glyph glyph-name="uni2009" unicode="&#x2009;" horiz-adv-x="256" 
 />
    <glyph glyph-name="uni200A" unicode="&#x200a;" horiz-adv-x="153" 
 />
    <glyph glyph-name="endash" unicode="&#x2013;" horiz-adv-x="1372" 
d="M1223 541h-1073v157h1073v-157z" />
    <glyph glyph-name="emdash" unicode="&#x2014;" horiz-adv-x="2150" 
d="M2001 541h-1851v157h1851v-157z" />
    <glyph glyph-name="uni2015" unicode="&#x2015;" horiz-adv-x="2150" 
d="M2001 541h-1851v157h1851v-157z" />
    <glyph glyph-name="quoteleft" unicode="&#x2018;" horiz-adv-x="591" 
d="M381 1417h98v-123h-96q-60 0 -87.5 -27t-27.5 -83v-37h135v-236h-256v277q0 111 62.5 170t171.5 59z" />
    <glyph glyph-name="quoteright" unicode="&#x2019;" horiz-adv-x="589" 
d="M227 918h-98v122h96q115 0 115 111v37h-135v235h256v-276q0 -111 -62.5 -170t-171.5 -59z" />
    <glyph glyph-name="quotesinglbase" unicode="&#x201a;" horiz-adv-x="569" 
d="M180 -270h-98v123h98q115 0 115 110v37h-137v236h256v-277q0 -111 -62 -170t-172 -59z" />
    <glyph glyph-name="quotedblleft" unicode="&#x201c;" horiz-adv-x="1050" 
d="M383 1417h98v-123h-96q-60 0 -87.5 -27t-27.5 -83v-37h138v-236h-261v277q0 110 63.5 169.5t172.5 59.5zM840 1417h98v-123h-96q-60 0 -87.5 -27t-27.5 -83v-37h135v-236h-258v277q0 110 63.5 169.5t172.5 59.5z" />
    <glyph glyph-name="quotedblright" unicode="&#x201d;" horiz-adv-x="1048" 
d="M227 918h-98v122h96q115 0 115 111v37h-135v235h258v-276q0 -110 -63.5 -169.5t-172.5 -59.5zM684 918h-98v122h96q115 0 115 111v37h-138v235h261v-276q0 -110 -63.5 -169.5t-172.5 -59.5z" />
    <glyph glyph-name="quotedblbase" unicode="&#x201e;" horiz-adv-x="1028" 
d="M180 -270h-98v123h98q115 0 115 110v37h-137v236h258v-277q0 -111 -62.5 -170t-173.5 -59zM637 -270h-98v123h96q60 0 87.5 27t27.5 83v37h-136v236h258v-277q0 -111 -63 -170t-172 -59z" />
    <glyph glyph-name="dagger" unicode="&#x2020;" horiz-adv-x="1232" 
d="M707 -174h-181v1116h-413v158h413v508h181v-508h413v-158h-413v-1116z" />
    <glyph glyph-name="daggerdbl" unicode="&#x2021;" horiz-adv-x="1232" 
d="M707 -174h-181v504h-413v157h413v455h-413v158h413v508h181v-508h413v-158h-413v-455h413v-157h-413v-504z" />
    <glyph glyph-name="bullet" unicode="&#x2022;" horiz-adv-x="1114" 
d="M557 348q-163 0 -276 109t-113 260t113 259.5t276 108.5t276 -108.5t113 -259.5t-113 -260t-276 -109z" />
    <glyph glyph-name="ellipsis" unicode="&#x2026;" horiz-adv-x="1804" 
d="M403 0h-251v236h251v-236zM1028 0h-252v236h252v-236zM1653 0h-252v236h252v-236z" />
    <glyph glyph-name="perthousand" unicode="&#x2030;" horiz-adv-x="2596" 
d="M848 1030q0 -189 -104 -302.5t-279 -113.5q-182 0 -283.5 112t-101.5 304q0 190 102 302t283 112q174 0 278.5 -113t104.5 -301zM397 0l1022 1434h170l-1022 -1434h-170zM229 1030q0 -131 58 -211t170 -80h14q109 0 168 81t59 210q0 130 -59.5 209.5t-167.5 79.5h-14
q-112 0 -170 -80t-58 -209zM2134 819q176 0 280.5 -112.5t104.5 -300.5q0 -190 -104 -303t-281 -113q-208 0 -311 147q-103 -147 -307 -147q-182 0 -284 112.5t-102 303.5q0 190 102.5 301.5t283.5 111.5q204 0 307 -147q103 147 311 147zM1507 115h15q109 0 168 81t59 210
t-59.5 208.5t-167.5 79.5h-15q-112 0 -169.5 -79.5t-57.5 -208.5q0 -131 57.5 -211t169.5 -80zM2128 115h14q107 0 167.5 81.5t60.5 209.5q0 129 -60 208.5t-168 79.5h-14q-114 0 -172 -79.5t-58 -208.5q0 -131 58 -211t172 -80z" />
    <glyph glyph-name="guilsinglleft" unicode="&#x2039;" horiz-adv-x="765" 
d="M457 1024h217l-367 -438l367 -443h-217l-375 441z" />
    <glyph glyph-name="guilsinglright" unicode="&#x203a;" horiz-adv-x="765" 
d="M92 1024h217l375 -440l-375 -441h-219l369 441z" />
    <glyph glyph-name="fraction" unicode="&#x2044;" horiz-adv-x="428" 
d="M-213 0h-172l1022 1434h172z" />
    <glyph glyph-name="uni2070" unicode="&#x2070;" horiz-adv-x="927" 
d="M465 840q-182 0 -283.5 112t-101.5 303q0 190 102 302t283 112q174 0 278.5 -113t104.5 -301q0 -189 -104 -302t-279 -113zM459 965h12q109 0 169 80.5t60 209.5t-60.5 209t-168.5 80h-12q-114 0 -172 -79.5t-58 -209.5q0 -131 58 -210.5t172 -79.5z" />
    <glyph glyph-name="uni2074" unicode="&#x2074;" horiz-adv-x="854" 
d="M655 850h-137v182h-473v133l467 494h143v-504h146v-123h-146v-182zM518 1487l-321 -332h321v332z" />
    <glyph glyph-name="uni2075" unicode="&#x2075;" horiz-adv-x="794" 
d="M393 840q-149 0 -239 59.5t-97 163.5h152q12 -47 58 -71.5t118 -24.5h14q76 0 123 39t47 102q0 58 -47 92.5t-121 34.5h-10q-101 0 -168 -53h-139l104 477h512v-127h-401l-49 -215q65 45 172 45q128 0 211.5 -70t83.5 -180q0 -122 -92 -197t-232 -75z" />
    <glyph glyph-name="uni2076" unicode="&#x2076;" horiz-adv-x="860" 
d="M428 840q-167 0 -258.5 100t-91.5 283q0 195 111 320.5t278 125.5q142 0 226.5 -64t97.5 -161h-152q-12 46 -55.5 73t-110.5 27h-12q-90 0 -156 -64.5t-86 -172.5q34 40 96 63t138 23q136 0 227.5 -76t91.5 -195q0 -126 -93.5 -204t-250.5 -78zM424 965h14q83 0 135 41.5
t52 107.5q0 69 -52 112.5t-135 43.5h-12q-84 0 -137 -43t-53 -111t51 -109.5t137 -41.5z" />
    <glyph glyph-name="uni2077" unicode="&#x2077;" horiz-adv-x="706" 
d="M342 850h-149v59q0 200 80.5 363t207.5 262h-444v125h637v-131q-155 -83 -243.5 -240.5t-88.5 -386.5v-51z" />
    <glyph glyph-name="uni2078" unicode="&#x2078;" horiz-adv-x="794" 
d="M397 840q-127 0 -211 63t-84 164q0 54 33.5 102t89.5 74q-65 26 -105 78.5t-40 112.5q0 104 89 169.5t228 65.5q140 0 229 -65t89 -170q0 -60 -39.5 -112.5t-104.5 -78.5q53 -27 86 -75t33 -101q0 -102 -83 -164.5t-210 -62.5zM389 1311h14q73 0 117.5 30.5t44.5 85.5
t-43 86t-116 31h-15q-73 0 -117.5 -31t-44.5 -86q0 -54 44.5 -85t115.5 -31zM389 965h14q62 0 100 29.5t38 80.5t-39 83t-99 32h-14q-60 0 -98.5 -32t-38.5 -83t37.5 -80.5t99.5 -29.5z" />
    <glyph glyph-name="uni2079" unicode="&#x2079;" horiz-adv-x="862" 
d="M395 840q-141 0 -226.5 64t-96.5 159h151q12 -45 56 -71.5t110 -26.5h12q90 0 156 64.5t86 172.5q-34 -40 -95.5 -63t-137.5 -23q-136 -3 -228 74t-92 196q0 126 93.5 204.5t250.5 78.5q167 0 258.5 -100t91.5 -283q0 -195 -111 -320.5t-278 -125.5zM424 1239h12
q85 0 138 43t53 111t-51.5 109.5t-137.5 41.5h-14q-83 0 -134.5 -41.5t-51.5 -107.5q0 -69 51.5 -112.5t134.5 -43.5z" />
    <glyph glyph-name="uni20A9" unicode="&#x20a9;" horiz-adv-x="2152" 
d="M1921 1434h197l-197 -658h180v-141h-221l-190 -635h-265l-180 635h-340l-186 -635h-264l-183 635h-221v141h180l-188 658h197l186 -658h342l190 658h254l185 -658h338zM1077 1227l-131 -451h260zM467 635l129 -449l129 449h-258zM1436 635l129 -463l131 463h-260z" />
    <glyph glyph-name="Euro" unicode="&#x20ac;" horiz-adv-x="1636" 
d="M924 143h20q167 0 264 72.5t117 210.5h191q-23 -211 -176 -328.5t-404 -117.5q-214 0 -367 102.5t-225 292.5l-240 -47v159l199 39q-13 66 -16 172l-183 -36v159l191 37q35 280 204.5 438t436.5 158q251 0 404 -117.5t176 -328.5h-191q-20 137 -116.5 209.5t-264.5 72.5
h-20q-171 0 -284.5 -103t-150.5 -290l480 94v-160l-496 -98v-16q0 -85 12 -156l398 76v-160l-355 -67q54 -129 156 -198t240 -69z" />
    <glyph glyph-name="uni20BF" unicode="&#x20bf;" horiz-adv-x="1579" 
d="M1452 389q0 -165 -116.5 -271.5t-291.5 -115.5v-248h-157v246h-260v-246h-156v246h-266v1434h266v245h156v-245h260v245h157v-247q167 -18 270 -118.5t103 -258.5q0 -117 -63.5 -203.5t-157.5 -122.5q111 -26 183.5 -115.5t72.5 -224.5zM954 1262h-559v-449h559
q128 0 199.5 59.5t71.5 167.5q0 103 -72 162.5t-199 59.5zM395 172h574q135 0 213 63.5t78 176.5q0 108 -78 168.5t-213 60.5h-574v-469z" />
    <glyph glyph-name="uni2105" unicode="&#x2105;" horiz-adv-x="1665" 
d="M399 840q-148 0 -234.5 79t-86.5 220q0 138 89.5 221.5t233.5 83.5q123 0 202.5 -56.5t90.5 -148.5h-139q-9 39 -48 63.5t-99 24.5h-13q-83 0 -129.5 -51.5t-46.5 -136.5q0 -83 46.5 -133t129.5 -50h13q56 0 95 25t52 63h139q-14 -93 -94 -148.5t-201 -55.5zM397 0h-172
l1022 1434h172zM1257 -10q-150 0 -243.5 83t-93.5 218q0 136 93.5 219.5t243.5 83.5t244 -83.5t94 -219.5t-94 -218.5t-244 -82.5zM1251 106h13q86 0 136 50t50 135t-50 135.5t-136 50.5h-13q-86 0 -136 -51t-50 -135t50 -134.5t136 -50.5z" />
    <glyph glyph-name="uni2113" unicode="&#x2113;" horiz-adv-x="995" 
d="M442 504v-266q0 -46 18.5 -65t63.5 -19h283v-154h-336q-209 0 -209 215v195l-168 -88v174l168 86v512q0 174 86.5 267t245.5 93q87 0 155.5 -31t109 -83t61 -113.5t20.5 -128.5q0 -164 -95.5 -300.5t-277.5 -228.5zM442 1108v-432l37 18q144 72 214.5 174.5t70.5 216.5
q0 108 -47 163t-123 55q-70 0 -111 -48.5t-41 -146.5z" />
    <glyph glyph-name="uni2116" unicode="&#x2116;" horiz-adv-x="2508" 
d="M2066 840q-150 0 -243.5 83t-93.5 218q0 136 93.5 219.5t243.5 83.5t244 -83.5t94 -219.5t-94 -218.5t-244 -82.5zM471 1434l875 -1211v1211h190v-1434h-258l-875 1210v-1210h-190v1434h258zM2073 1327h-13q-86 0 -136 -51t-50 -135t50 -134.5t136 -50.5h13q86 0 136 50
t50 135t-50 135.5t-136 50.5zM2365 598h-645v119h645v-119z" />
    <glyph glyph-name="uni2117" unicode="&#x2117;" horiz-adv-x="2127" 
d="M1063 -82q-201 0 -378 61.5t-303 167.5t-198.5 254.5t-72.5 315.5t72.5 315.5t198.5 254.5t303 167.5t378 61.5q162 0 309 -39.5t263.5 -112t202.5 -170.5t132.5 -220.5t46.5 -256.5t-46.5 -256.5t-132.5 -220.5t-202.5 -170.5t-263.5 -112t-309 -39.5zM1063 55
q228 0 414 87.5t290.5 239.5t104.5 335t-104.5 334.5t-290.5 239t-414 87.5t-413.5 -87.5t-289.5 -238.5t-104 -335q0 -137 61 -259.5t167.5 -211t257 -140t321.5 -51.5zM950 344h-145v770h342q140 0 223.5 -61.5t83.5 -182.5q0 -122 -83 -182.5t-224 -60.5h-197v-283z
M950 983v-225h195q164 0 164 112q0 113 -164 113h-195z" />
    <glyph glyph-name="trademark" unicode="&#x2122;" horiz-adv-x="2281" 
d="M406 1288h-326v146h815v-146h-328v-633h-161v633zM1599 823l263 611h241v-779h-161v602l-265 -602h-155l-275 609v-609h-162v779h242z" />
    <glyph glyph-name="uni2126" unicode="&#x2126;" horiz-adv-x="1839" 
d="M727 0h-582v164h277q-136 90 -211.5 239.5t-75.5 323.5q0 164 60 301t165 230t249.5 144.5t312.5 51.5t311.5 -51.5t248 -144.5t163.5 -230t59 -301q0 -174 -75.5 -323.5t-211.5 -239.5h277v-164h-582v164q185 42 295.5 193.5t110.5 369.5q0 128 -47 235t-126.5 178
t-184.5 110.5t-222 39.5h-33q-118 0 -224 -39.5t-185.5 -110.5t-126.5 -178t-47 -235q0 -219 109 -370.5t296 -192.5v-164z" />
    <glyph glyph-name="uni2153" unicode="&#x2153;" horiz-adv-x="1896" 
d="M469 625h-145v628l-275 -186v154l309 213h111v-809zM387 0h-172l1022 1434h172zM1432 -10q-145 0 -238.5 64.5t-93.5 172.5h147q5 -53 51.5 -83.5t124.5 -30.5h15q80 0 130 32t50 86q0 53 -45.5 84t-124.5 31h-131v121h131q77 0 120.5 31.5t43.5 85.5t-45 83t-127 29h-15
q-73 0 -117.5 -32t-47.5 -80h-146q-3 104 88.5 169.5t233.5 65.5q144 0 234.5 -62t90.5 -165q0 -58 -38 -106t-103 -76q67 -26 106 -75t39 -108q0 -109 -92.5 -173t-240.5 -64z" />
    <glyph glyph-name="uni2154" unicode="&#x2154;" horiz-adv-x="2060" 
d="M733 625h-655v147l348 246q96 69 124 104t28 82q0 51 -45.5 83t-114.5 32h-15q-71 0 -122 -33.5t-52 -89.5h-145q0 109 94.5 178.5t233.5 69.5q136 0 225.5 -66.5t89.5 -171.5q0 -83 -47.5 -141.5t-142.5 -126.5l-269 -188h465v-125zM600 0h-170l1022 1434h172zM1647 -10
q-147 0 -239.5 64t-92.5 173h145q6 -53 52.5 -83.5t123.5 -30.5h15q82 0 132 32t50 86q0 53 -45.5 84t-126.5 31h-131v121h133q76 0 120 31.5t44 85.5t-45.5 83t-128.5 29h-15q-71 0 -115.5 -32t-49.5 -80h-146q-1 104 90.5 169.5t231.5 65.5q144 0 234.5 -62t90.5 -165
q0 -58 -37 -106t-102 -76q67 -26 106 -75t39 -108q0 -109 -93 -173t-240 -64z" />
    <glyph glyph-name="uni2155" unicode="&#x2155;" horiz-adv-x="1875" 
d="M469 625h-145v628l-275 -186v154l309 213h111v-809zM387 0h-172l1022 1434h172zM1421 -10q-149 0 -239 59.5t-97 163.5h152q12 -47 58 -71.5t118 -24.5h14q76 0 123 39t47 102q0 58 -46.5 92.5t-120.5 34.5h-11q-101 0 -168 -53h-139l105 477h512v-127h-402l-49 -215
q65 45 172 45q128 0 211.5 -70t83.5 -180q0 -122 -92 -197t-232 -75z" />
    <glyph glyph-name="uni2156" unicode="&#x2156;" horiz-adv-x="2039" 
d="M733 625h-655v147l348 246q96 69 124 104t28 82q0 51 -45.5 83t-114.5 32h-15q-71 0 -122 -33.5t-52 -89.5h-145q0 109 94.5 178.5t233.5 69.5q136 0 225.5 -66.5t89.5 -171.5q0 -83 -47.5 -141.5t-142.5 -126.5l-269 -188h465v-125zM600 0h-170l1022 1434h172zM1634 -10
q-148 0 -237.5 59.5t-96.5 163.5h152q12 -47 58 -71.5t118 -24.5h12q76 0 123 39t47 102q0 58 -45.5 92.5t-119.5 34.5h-13q-99 0 -166 -53h-139l105 477h512v-127h-404l-49 -215q65 45 174 45q127 0 211 -70.5t84 -179.5q0 -123 -92 -197.5t-234 -74.5z" />
    <glyph glyph-name="uni2157" unicode="&#x2157;" horiz-adv-x="2054" 
d="M403 614q-145 0 -238 65t-93 173h147q5 -53 52 -84t124 -31h15q80 0 130 32.5t50 86.5q0 53 -45.5 84t-124.5 31h-131v121h131q78 0 121 31t43 85t-45 83.5t-127 29.5h-15q-73 0 -118 -32.5t-48 -80.5h-145q-3 104 89 170t233 66q144 0 234.5 -62t90.5 -165
q0 -58 -38 -106.5t-103 -76.5q68 -26 106.5 -75t38.5 -107q0 -109 -93 -173.5t-241 -64.5zM610 0h-172l1022 1434h172zM1645 -10q-149 0 -239 59.5t-97 163.5h151q12 -47 58 -71.5t118 -24.5h15q76 0 123 39t47 102q0 58 -47 92.5t-121 34.5h-11q-100 0 -167 -53h-140
l105 477h512v-127h-402l-49 -215q65 45 172 45q128 0 211.5 -70t83.5 -180q0 -123 -91.5 -197.5t-231.5 -74.5z" />
    <glyph glyph-name="uni2158" unicode="&#x2158;" horiz-adv-x="2052" 
d="M655 625h-137v182h-473v133l467 494h143v-504h146v-123h-146v-182zM641 0h-172l1022 1434h172zM518 1262l-321 -332h321v332zM1675 -10q-149 0 -239 59.5t-97 163.5h152q12 -47 58 -71.5t118 -24.5h14q76 0 123 39t47 102q0 58 -47 92.5t-121 34.5h-10q-101 0 -168 -53
h-139l104 477h512v-127h-401l-49 -215q65 45 172 45q128 0 211.5 -70t83.5 -180q0 -122 -92 -197t-232 -75z" />
    <glyph glyph-name="uni2159" unicode="&#x2159;" horiz-adv-x="1949" 
d="M469 625h-145v628l-275 -186v154l309 213h111v-809zM387 0h-172l1022 1434h172zM1456 -10q-167 0 -258.5 100t-91.5 283q0 195 111 320.5t278 125.5q142 0 226.5 -64t97.5 -161h-152q-12 46 -55.5 73t-110.5 27h-12q-90 0 -156 -64.5t-86 -172.5q34 40 96 63t138 23
q136 0 227.5 -76t91.5 -195q0 -126 -93.5 -204t-250.5 -78zM1452 115h14q83 0 135 41.5t52 107.5q0 69 -52 112.5t-135 43.5h-12q-84 0 -137 -43t-53 -111t51 -109.5t137 -41.5z" />
    <glyph glyph-name="uni215A" unicode="&#x215a;" horiz-adv-x="2091" 
d="M393 614q-149 0 -238.5 60t-97.5 164h152q12 -47 58.5 -72t117.5 -25h14q76 0 123 39.5t47 102.5q0 58 -47 92.5t-121 34.5h-10q-100 0 -168 -54h-139l104 478h512v-127h-401l-49 -215q65 45 172 45q128 0 211.5 -70t83.5 -180q0 -123 -92 -198t-232 -75zM582 0h-172
l1022 1434h172zM1651 -10q-167 0 -259 100t-92 283q0 195 111.5 320.5t278.5 125.5q141 0 225.5 -64t97.5 -161h-151q-12 46 -55.5 73t-110.5 27h-13q-90 0 -155.5 -64.5t-85.5 -172.5q34 40 95.5 63t137.5 23q137 0 228.5 -76t91.5 -195q0 -126 -93.5 -204t-250.5 -78z
M1647 115h14q83 0 134.5 41.5t51.5 107.5q0 69 -51.5 112.5t-134.5 43.5h-12q-85 0 -138 -43t-53 -111t51.5 -109.5t137.5 -41.5z" />
    <glyph glyph-name="oneeighth" unicode="&#x215b;" horiz-adv-x="1875" 
d="M469 625h-145v628l-275 -186v154l309 213h111v-809zM387 0h-172l1022 1434h172zM1425 -10q-127 0 -211 63t-84 164q0 54 33.5 102t89.5 74q-65 26 -105 78.5t-40 112.5q0 104 89 169.5t228 65.5q140 0 229 -65t89 -170q0 -60 -39.5 -112.5t-104.5 -78.5q53 -27 86 -75
t33 -101q0 -102 -83 -164.5t-210 -62.5zM1417 461h15q73 0 117 31t44 86t-43 85.5t-116 30.5h-15q-73 0 -117.5 -30.5t-44.5 -85.5q0 -54 44.5 -85.5t115.5 -31.5zM1417 115h15q62 0 99.5 29.5t37.5 80.5t-38.5 83t-98.5 32h-15q-60 0 -98.5 -32t-38.5 -83t37.5 -80.5
t99.5 -29.5z" />
    <glyph glyph-name="threeeighths" unicode="&#x215c;" horiz-adv-x="2052" 
d="M403 614q-145 0 -238 65t-93 173h147q5 -53 52 -84t124 -31h15q80 0 130 32.5t50 86.5q0 53 -45.5 84t-124.5 31h-131v121h131q78 0 121 31t43 85t-45 83.5t-127 29.5h-15q-73 0 -118 -32.5t-48 -80.5h-145q-3 104 89 170t233 66q144 0 234.5 -62t90.5 -165
q0 -58 -38 -106.5t-103 -76.5q68 -26 106.5 -75t38.5 -107q0 -109 -93 -173.5t-241 -64.5zM610 0h-172l1022 1434h172zM1649 -10q-127 0 -211 63t-84 164q0 54 33.5 102t89.5 74q-65 26 -105.5 78.5t-40.5 112.5q0 104 89.5 169.5t228.5 65.5q140 0 228.5 -65t88.5 -170
q0 -60 -39 -112.5t-104 -78.5q53 -27 86 -75t33 -101q0 -102 -83 -164.5t-210 -62.5zM1640 461h15q73 0 117.5 31t44.5 86t-43.5 85.5t-116.5 30.5h-15q-73 0 -117 -30.5t-44 -85.5q0 -54 44 -85.5t115 -31.5zM1640 115h15q62 0 99.5 29.5t37.5 80.5t-38.5 83t-98.5 32h-15
q-60 0 -98.5 -32t-38.5 -83t37.5 -80.5t99.5 -29.5z" />
    <glyph glyph-name="fiveeighths" unicode="&#x215d;" horiz-adv-x="2015" 
d="M393 614q-149 0 -238.5 60t-97.5 164h152q12 -47 58.5 -72t117.5 -25h14q76 0 123 39.5t47 102.5q0 58 -47 92.5t-121 34.5h-10q-100 0 -168 -54h-139l104 478h512v-127h-401l-49 -215q65 45 172 45q128 0 211.5 -70t83.5 -180q0 -123 -92 -198t-232 -75zM582 0h-172
l1022 1434h172zM1620 -10q-127 0 -211 63t-84 164q0 54 33.5 102t89.5 74q-65 26 -105 78.5t-40 112.5q0 104 89 169.5t228 65.5q140 0 228.5 -65t88.5 -170q0 -60 -39 -112.5t-104 -78.5q53 -27 86 -75t33 -101q0 -102 -83 -164.5t-210 -62.5zM1612 461h14q73 0 117.5 31
t44.5 86t-43.5 85.5t-116.5 30.5h-14q-73 0 -117.5 -30.5t-44.5 -85.5q0 -54 44.5 -85.5t115.5 -31.5zM1612 115h14q62 0 99.5 29.5t37.5 80.5t-38.5 83t-98.5 32h-14q-60 0 -98.5 -32t-38.5 -83t37.5 -80.5t99.5 -29.5z" />
    <glyph glyph-name="seveneighths" unicode="&#x215e;" horiz-adv-x="1796" 
d="M342 625h-149v59q0 200 80.5 363t207.5 262h-444v125h637v-131q-155 -83 -243.5 -240.5t-88.5 -386.5v-51zM406 0h-173l1024 1434h170zM1444 -10q-126 0 -209.5 63t-83.5 164q0 54 33.5 102t87.5 74q-65 26 -105.5 78.5t-40.5 112.5q0 104 90 169.5t230 65.5t228.5 -65
t88.5 -170q0 -60 -40 -112.5t-105 -78.5q54 -26 86.5 -74t32.5 -102q0 -102 -83 -164.5t-210 -62.5zM1438 461h14q72 0 117 31.5t45 85.5q0 55 -44.5 85.5t-117.5 30.5h-14q-73 0 -117.5 -30.5t-44.5 -85.5q0 -54 45 -85.5t117 -31.5zM1438 115h14q61 0 99 30t38 80
q0 51 -39 83t-98 32h-14q-62 0 -101 -32t-39 -83q0 -50 39 -80t101 -30z" />
    <glyph glyph-name="uni215F" unicode="&#x215f;" horiz-adv-x="1028" 
d="M469 625h-145v628l-275 -186v154l309 213h111v-809zM387 0h-172l1022 1434h172z" />
    <glyph glyph-name="uni2160" unicode="&#x2160;" horiz-adv-x="1118" 
d="M1008 0h-897v147h360v1139h-360v148h897v-148h-361v-1139h361v-147z" />
    <glyph glyph-name="uni2161" unicode="&#x2161;" horiz-adv-x="1824" 
d="M1714 0h-1603v147h360v1139h-360v148h1603v-148h-360v-1139h360v-147zM647 1286v-1139h531v1139h-531z" />
    <glyph glyph-name="uni2162" unicode="&#x2162;" horiz-adv-x="2531" 
d="M2421 0h-2310v147h360v1139h-360v148h2310v-148h-361v-1139h361v-147zM647 1286v-1139h531v1139h-531zM1354 1286v-1139h530v1139h-530z" />
    <glyph glyph-name="uni2163" unicode="&#x2163;" horiz-adv-x="2568" 
d="M2167 0h-2050v147h360v1139h-360v148h1323v-148h-242l422 -1089l428 1089h-250v148h696v-148h-264l-454 -1139h391v-147zM653 1286v-1139h801l-442 1139h-359z" />
    <glyph glyph-name="uni2164" unicode="&#x2164;" horiz-adv-x="1898" 
d="M1503 0h-1122v147h401l-440 1139h-268v148h696v-148h-242l422 -1089l428 1089h-250v148h697v-148h-264l-455 -1139h397v-147z" />
    <glyph glyph-name="uni2165" unicode="&#x2165;" horiz-adv-x="2570" 
d="M2454 0h-2073v147h401l-440 1139h-268v148h696v-148h-242l422 -1089l428 1089h-250v148h1326v-148h-361v-1139h361v-147zM1561 1286l-455 -1139h809v1139h-354z" />
    <glyph glyph-name="uni2166" unicode="&#x2166;" horiz-adv-x="3268" 
d="M3150 0h-2769v147h401l-440 1139h-268v148h696v-148h-242l422 -1089l428 1089h-250v148h2022v-148h-361v-1139h361v-147zM1561 1286l-455 -1139h801v1139h-346zM2085 1286v-1139h528v1139h-528z" />
    <glyph glyph-name="uni2167" unicode="&#x2167;" horiz-adv-x="3971" 
d="M3854 0h-3473v147h401l-440 1139h-268v148h696v-148h-242l422 -1089l428 1089h-250v148h2726v-148h-360v-1139h360v-147zM1561 1286l-455 -1139h799v1139h-344zM2081 1286v-1139h530v1139h-530zM2787 1286v-1139h529v1139h-529z" />
    <glyph glyph-name="uni2168" unicode="&#x2168;" horiz-adv-x="2451" 
d="M2347 0h-2236v147h360v1139h-360v148h2216v-148h-250l-449 -559l459 -580h260v-147zM647 1286v-1139h314l460 574l-450 565h-324zM1184 1286l344 -432l346 432h-690zM1522 594l-357 -447h711z" />
    <glyph glyph-name="uni2169" unicode="&#x2169;" horiz-adv-x="1853" 
d="M1749 0h-1645v147h258l461 574l-450 565h-248v148h1604v-148h-250l-449 -559l459 -580h260v-147zM586 1286l344 -432l346 432h-690zM924 594l-357 -447h711z" />
    <glyph glyph-name="uni216C" unicode="&#x216c;" horiz-adv-x="1667" 
d="M1575 0h-1464v147h340v1139h-340v148h856v-148h-340v-1139h770v381h178v-528z" />
    <glyph glyph-name="uni216D" unicode="&#x216d;" horiz-adv-x="1730" 
d="M870 -20q-224 0 -396 97t-263.5 264t-91.5 376t91.5 376t263.5 264t396 97q105 0 198.5 -20t157.5 -52t106 -63.5t63 -61.5v177h176v-447h-176q-36 141 -170.5 230.5t-329.5 89.5h-21q-174 0 -307 -77.5t-202.5 -211t-69.5 -301.5t69.5 -301.5t202.5 -211t307 -77.5h21
q191 0 328.5 89t171.5 230h176v-446h-182v170q-22 -29 -63.5 -59.5t-104 -61t-155 -50t-196.5 -19.5z" />
    <glyph glyph-name="uni216E" unicode="&#x216e;" horiz-adv-x="1863" 
d="M922 0h-811v147h340v1139h-340v148h809q248 0 434 -85t288.5 -247.5t102.5 -384.5q0 -223 -102.5 -386t-287.5 -247t-433 -84zM627 1286v-1139h264q322 0 500 147t178 423q0 273 -175 421t-497 148h-270z" />
    <glyph glyph-name="uni216F" unicode="&#x216f;" horiz-adv-x="2566" 
d="M817 0h-706v147h340v1139h-340v148h634l545 -1256l533 1256h635v-148h-340v-1139h340v-147h-707v147h191v1121l-547 -1268h-217l-553 1274v-1127h192v-147z" />
    <glyph glyph-name="arrowleft" unicode="&#x2190;" horiz-adv-x="1910" 
d="M795 205l-117 -119l-637 635l637 637l117 -117l-435 -434h1489v-170h-1491z" />
    <glyph glyph-name="arrowup" unicode="&#x2191;" horiz-adv-x="1619" 
d="M895 0h-170v1198l-434 -436l-117 117l635 637l637 -637l-119 -117l-432 434v-1196z" />
    <glyph glyph-name="arrowright" unicode="&#x2192;" horiz-adv-x="1910" 
d="M1116 1237l117 119l637 -635l-637 -637l-117 117l434 434h-1489v170h1491z" />
    <glyph glyph-name="arrowdown" unicode="&#x2193;" horiz-adv-x="1619" 
d="M725 1434h170v-1198l432 436l119 -117l-635 -637l-637 637l117 117l434 -434v1196z" />
    <glyph glyph-name="uni2196" unicode="&#x2196;" horiz-adv-x="1343" 
d="M1241 422l-119 -119l-848 846l2 -612l-165 -2l-2 899h901l-2 -166h-613z" />
    <glyph glyph-name="uni2197" unicode="&#x2197;" horiz-adv-x="1341" 
d="M223 303l-121 119l848 846h-614l-2 166h899v-899h-164v612z" />
    <glyph glyph-name="uni2198" unicode="&#x2198;" horiz-adv-x="1343" 
d="M102 1012l119 118l848 -845l-2 612l166 2l2 -899h-901l2 166h612z" />
    <glyph glyph-name="uni2199" unicode="&#x2199;" horiz-adv-x="1343" 
d="M1120 1133l121 -119l-848 -848l615 2l2 -166l-899 -2v901l163 -2v-612z" />
    <glyph glyph-name="uni21A4" unicode="&#x21a4;" horiz-adv-x="2052" 
d="M815 205l-117 -119l-637 635l637 637l117 -117l-434 -434h1329v428h168v-1024h-168v426h-1331z" />
    <glyph glyph-name="uni21A5" unicode="&#x21a5;" horiz-adv-x="1753" 
d="M1389 0h-1024v168h426v1028l-433 -434l-118 117l637 637l634 -637l-116 -117l-434 436v-1030h428v-168z" />
    <glyph glyph-name="uni21A6" unicode="&#x21a6;" horiz-adv-x="2052" 
d="M1237 1237l117 119l637 -635l-637 -637l-117 117l434 434h-1329v-428h-168v1024h168v-426h1331z" />
    <glyph glyph-name="uni21A7" unicode="&#x21a7;" horiz-adv-x="1753" 
d="M365 1434h1024v-168h-426v-1028l432 434l118 -117l-636 -637l-635 637l116 117l435 -436v1030h-428v168z" />
    <glyph glyph-name="uni21B0" unicode="&#x21b0;" horiz-adv-x="2023" 
d="M1849 0h-168v637h-1323l437 -432l-117 -119l-637 635l637 637l117 -117l-435 -434h1489v-807z" />
    <glyph glyph-name="uni21B1" unicode="&#x21b1;" horiz-adv-x="2023" 
d="M342 0h-168v805h1491l-436 432l117 119l636 -635l-636 -637l-117 117l434 434h-1321v-635z" />
    <glyph glyph-name="uni21B2" unicode="&#x21b2;" horiz-adv-x="2023" 
d="M1681 1434h168v-805h-1491l437 -432l-117 -119l-637 635l637 637l117 -117l-435 -434h1321v635z" />
    <glyph glyph-name="uni21B3" unicode="&#x21b3;" horiz-adv-x="2023" 
d="M174 1434h168v-637h1323l-436 432l117 119l636 -635l-636 -637l-117 117l434 434h-1489v807z" />
    <glyph glyph-name="partialdiff" unicode="&#x2202;" horiz-adv-x="1351" 
d="M662 -20q-260 0 -411 140t-151 374q0 219 149.5 359t383.5 140q256 0 397 -141l-8 49q-22 101 -75 177.5t-128 122t-162 67.5t-186 22q-55 0 -118 -10t-97 -23v166q33 12 95 21.5t122 9.5q153 0 278 -42t212.5 -116.5t147.5 -179.5t88 -230t28 -268q0 -163 -41 -286.5
t-117 -199.5t-178 -114t-229 -38zM657 143h11q106 0 190 35.5t137.5 116.5t53.5 197q0 171 -104.5 259.5t-276.5 88.5h-21q-164 0 -266 -89t-102 -257q0 -115 52 -196t136 -118t190 -37z" />
    <glyph glyph-name="uni2206" unicode="&#x2206;" horiz-adv-x="1640" 
d="M707 1434h227l631 -1280v-154h-1489v154zM1370 164l-549 1124l-551 -1124h1100z" />
    <glyph glyph-name="product" unicode="&#x220f;" horiz-adv-x="1685" 
d="M522 0h-182v1270h-268v164h1542v-164h-268v-1270h-183v1270h-641v-1270z" />
    <glyph glyph-name="summation" unicode="&#x2211;" horiz-adv-x="1288" 
d="M113 1434h1058v-164h-827l485 -553l-491 -553h833v-164h-1058v172l487 543l-487 555v164z" />
    <glyph glyph-name="minus" unicode="&#x2212;" horiz-adv-x="1402" 
d="M1241 444h-1079v168h1079v-168z" />
    <glyph glyph-name="uni2215" unicode="&#x2215;" horiz-adv-x="978" 
d="M258 0h-192l663 1434h193z" />
    <glyph glyph-name="uni2219" unicode="&#x2219;" horiz-adv-x="1212" 
d="M606 348q-163 0 -276 109t-113 260t113 259.5t276 108.5t276 -108.5t113 -259.5t-113 -260t-276 -109z" />
    <glyph glyph-name="radical" unicode="&#x221a;" horiz-adv-x="1566" 
d="M895 1434h625v-164h-496l-338 -1270h-221l-410 1024h187l331 -831z" />
    <glyph glyph-name="infinity" unicode="&#x221e;" horiz-adv-x="1972" 
d="M541 348q-182 0 -301 107.5t-119 281.5q0 170 120 279.5t300 109.5q63 0 119 -14t99 -36t86 -58t74 -70.5t70 -83.5q46 61 86 103t93.5 81t119.5 58.5t144 19.5q180 0 298.5 -109t118.5 -280q0 -175 -118 -282t-299 -107q-79 0 -144.5 18t-118.5 54.5t-94 78t-86 101.5
q-48 -61 -89 -101.5t-95.5 -77.5t-119.5 -55t-144 -18zM541 504h10q100 0 176.5 59.5t155.5 173.5q-79 114 -155.5 174t-176.5 60h-10q-111 0 -179.5 -64t-68.5 -170q0 -110 67.5 -171.5t180.5 -61.5zM1415 504h10q117 0 184.5 61t67.5 172t-67.5 172.5t-184.5 61.5h-10
q-50 0 -95 -17t-85.5 -51t-73 -72t-71.5 -94q57 -79 99 -124.5t101 -77t125 -31.5z" />
    <glyph glyph-name="integral" unicode="&#x222b;" horiz-adv-x="917" 
d="M176 -205h-141v164h125q114 0 159.5 50t45.5 167v868q0 390 376 390h142v-164h-125q-114 0 -159.5 -50t-45.5 -167v-869q0 -389 -377 -389z" />
    <glyph glyph-name="approxequal" unicode="&#x2248;" horiz-adv-x="1353" 
d="M946 569q-64 0 -174.5 32.5t-209.5 65.5t-136 33q-55 0 -79.5 -32t-24.5 -78h-160v51q0 102 66.5 169t179.5 67q64 0 174.5 -33t209.5 -66t136 -33q56 0 81 28.5t25 72.5h158v-51q0 -103 -63 -164.5t-183 -61.5zM946 180q-64 0 -174.5 32.5t-209.5 65.5t-136 33
q-55 0 -79.5 -32t-24.5 -78h-160v51q0 102 66.5 168.5t179.5 66.5q64 0 174.5 -32.5t209.5 -65.5t136 -33q56 0 81 28.5t25 72.5h158v-51q0 -103 -63 -164.5t-183 -61.5z" />
    <glyph glyph-name="notequal" unicode="&#x2260;" horiz-adv-x="1439" 
d="M1280 797v-166h-432l-78 -209h510v-164h-571l-86 -227h-183l86 227h-366v164h428l78 209h-506v166h567l86 227h182l-86 -227h371z" />
    <glyph glyph-name="lessequal" unicode="&#x2264;" horiz-adv-x="1423" 
d="M145 756l1121 295v-174l-852 -213l852 -213v-185l-1121 295v195zM1266 35h-1121v164h1121v-164z" />
    <glyph glyph-name="greaterequal" unicode="&#x2265;" horiz-adv-x="1423" 
d="M158 864v187l1120 -295v-195l-1120 -295v174l852 213zM1278 35h-1120v164h1120v-164z" />
    <glyph glyph-name="angleleft" unicode="&#x2329;" horiz-adv-x="823" 
d="M795 -174h-197l-563 891l563 891h197l-557 -887z" />
    <glyph glyph-name="angleright" unicode="&#x232a;" horiz-adv-x="823" 
d="M29 1608h196l563 -891l-563 -891h-196l557 887z" />
    <glyph glyph-name="uni2460" unicode="&#x2460;" horiz-adv-x="2111" 
d="M1055 -82q-201 0 -378 61.5t-303 167.5t-199 254.5t-73 315.5t73 315.5t199 254.5t303 167.5t378 61.5q162 0 309 -39.5t263.5 -112t202.5 -170.5t132.5 -220.5t46.5 -256.5t-46.5 -256.5t-132.5 -220.5t-202.5 -170.5t-263.5 -112t-309 -39.5zM1055 55q171 0 321.5 51.5
t257 140t167.5 211t61 259.5q0 184 -104 335t-289.5 238.5t-413.5 87.5t-413.5 -87.5t-289.5 -238.5t-104 -335q0 -137 61 -259.5t167.5 -211t257 -140t321.5 -51.5zM1155 322h-145v628l-275 -186v154l309 212h111v-808z" />
    <glyph glyph-name="uni2461" unicode="&#x2461;" horiz-adv-x="2111" 
d="M1055 -82q-201 0 -378 61.5t-303 167.5t-199 254.5t-73 315.5t73 315.5t199 254.5t303 167.5t378 61.5q162 0 309 -39.5t263.5 -112t202.5 -170.5t132.5 -220.5t46.5 -256.5t-46.5 -256.5t-132.5 -220.5t-202.5 -170.5t-263.5 -112t-309 -39.5zM1055 55q171 0 321.5 51.5
t257 140t167.5 211t61 259.5q0 184 -104 335t-289.5 238.5t-413.5 87.5t-413.5 -87.5t-289.5 -238.5t-104 -335q0 -137 61 -259.5t167.5 -211t257 -140t321.5 -51.5zM1389 322h-656v147l348 246q96 69 124 104t28 82q0 51 -45.5 83t-114.5 32h-14q-71 0 -122 -33.5
t-52 -89.5h-148q1 109 96 178.5t234 69.5q136 0 225.5 -66.5t89.5 -171.5q0 -83 -47.5 -141.5t-142.5 -126.5l-268 -189h465v-124z" />
    <glyph glyph-name="uni2462" unicode="&#x2462;" horiz-adv-x="2111" 
d="M1055 -82q-201 0 -378 61.5t-303 167.5t-199 254.5t-73 315.5t73 315.5t199 254.5t303 167.5t378 61.5q162 0 309 -39.5t263.5 -112t202.5 -170.5t132.5 -220.5t46.5 -256.5t-46.5 -256.5t-132.5 -220.5t-202.5 -170.5t-263.5 -112t-309 -39.5zM1055 55q171 0 321.5 51.5
t257 140t167.5 211t61 259.5q0 184 -104 335t-289.5 238.5t-413.5 87.5t-413.5 -87.5t-289.5 -238.5t-104 -335q0 -137 61 -259.5t167.5 -211t257 -140t321.5 -51.5zM1049 313q-147 0 -239.5 64.5t-92.5 171.5h145q6 -52 52.5 -82.5t123.5 -30.5h15q82 0 132 32.5t50 86.5
q0 53 -45.5 83t-126.5 30h-131v120h133q76 0 120 32t44 85q0 55 -45.5 85t-128.5 30h-15q-71 0 -116 -32.5t-50 -80.5h-145q-1 103 91 169.5t231 66.5q144 0 234.5 -62.5t90.5 -165.5q0 -58 -37 -107t-102 -77q67 -25 106 -74t39 -106q0 -109 -93 -173.5t-240 -64.5z" />
    <glyph glyph-name="uni2463" unicode="&#x2463;" horiz-adv-x="2111" 
d="M1055 -82q-201 0 -378 61.5t-303 167.5t-199 254.5t-73 315.5t73 315.5t199 254.5t303 167.5t378 61.5q162 0 309 -39.5t263.5 -112t202.5 -170.5t132.5 -220.5t46.5 -256.5t-46.5 -256.5t-132.5 -220.5t-202.5 -170.5t-263.5 -112t-309 -39.5zM1055 55q171 0 321.5 51.5
t257 140t167.5 211t61 259.5q0 184 -104 335t-289.5 238.5t-413.5 87.5t-413.5 -87.5t-289.5 -238.5t-104 -335q0 -137 61 -259.5t167.5 -211t257 -140t321.5 -51.5zM1227 322h-137v182h-476v133l467 493h146v-503h145v-123h-145v-182zM1090 958l-322 -331h322v331z" />
    <glyph glyph-name="uni2464" unicode="&#x2464;" horiz-adv-x="2111" 
d="M1055 -82q-201 0 -378 61.5t-303 167.5t-199 254.5t-73 315.5t73 315.5t199 254.5t303 167.5t378 61.5q162 0 309 -39.5t263.5 -112t202.5 -170.5t132.5 -220.5t46.5 -256.5t-46.5 -256.5t-132.5 -220.5t-202.5 -170.5t-263.5 -112t-309 -39.5zM1055 55q171 0 321.5 51.5
t257 140t167.5 211t61 259.5q0 184 -104 335t-289.5 238.5t-413.5 87.5t-413.5 -87.5t-289.5 -238.5t-104 -335q0 -137 61 -259.5t167.5 -211t257 -140t321.5 -51.5zM1040 311q-149 0 -238 60t-97 164h153q12 -47 57.5 -72t116.5 -25h15q76 0 123 39.5t47 102.5
q0 58 -46 92.5t-120 34.5h-13q-98 0 -166 -54h-141l107 477h510v-126h-402l-49 -216q67 46 174 46q127 0 210 -70t83 -180q0 -123 -92 -198t-232 -75z" />
    <glyph glyph-name="uni2465" unicode="&#x2465;" horiz-adv-x="2111" 
d="M1055 -82q-201 0 -378 61.5t-303 167.5t-199 254.5t-73 315.5t73 315.5t199 254.5t303 167.5t378 61.5q162 0 309 -39.5t263.5 -112t202.5 -170.5t132.5 -220.5t46.5 -256.5t-46.5 -256.5t-132.5 -220.5t-202.5 -170.5t-263.5 -112t-309 -39.5zM1055 55q171 0 321.5 51.5
t257 140t167.5 211t61 259.5q0 184 -104 335t-289.5 238.5t-413.5 87.5t-413.5 -87.5t-289.5 -238.5t-104 -335q0 -137 61 -259.5t167.5 -211t257 -140t321.5 -51.5zM1022 311q-167 0 -258.5 100t-91.5 283q0 195 111 321t278 126q141 0 225.5 -64t97.5 -162h-151
q-12 47 -56 74t-110 27h-12q-90 0 -156 -65t-86 -173q34 40 96 63t138 23q137 0 228 -75.5t91 -194.5q0 -126 -93.5 -204.5t-250.5 -78.5zM1018 436h14q83 0 135 42t52 108q0 69 -52 112t-135 43h-12q-85 0 -138 -42.5t-53 -110.5t51.5 -110t137.5 -42z" />
    <glyph glyph-name="uni2466" unicode="&#x2466;" horiz-adv-x="2111" 
d="M1055 -82q-201 0 -378 61.5t-303 167.5t-199 254.5t-73 315.5t73 315.5t199 254.5t303 167.5t378 61.5q162 0 309 -39.5t263.5 -112t202.5 -170.5t132.5 -220.5t46.5 -256.5t-46.5 -256.5t-132.5 -220.5t-202.5 -170.5t-263.5 -112t-309 -39.5zM1055 55q171 0 321.5 51.5
t257 140t167.5 211t61 259.5q0 184 -104 335t-289.5 238.5t-413.5 87.5t-413.5 -87.5t-289.5 -238.5t-104 -335q0 -137 61 -259.5t167.5 -211t257 -140t321.5 -51.5zM1051 322h-150v59q0 200 81 363t208 262h-445v124h637v-131q-155 -83 -243 -240t-88 -386v-51z" />
    <glyph glyph-name="uni2467" unicode="&#x2467;" horiz-adv-x="2111" 
d="M1055 -82q-201 0 -378 61.5t-303 167.5t-199 254.5t-73 315.5t73 315.5t199 254.5t303 167.5t378 61.5q162 0 309 -39.5t263.5 -112t202.5 -170.5t132.5 -220.5t46.5 -256.5t-46.5 -256.5t-132.5 -220.5t-202.5 -170.5t-263.5 -112t-309 -39.5zM1055 55q171 0 321.5 51.5
t257 140t167.5 211t61 259.5q0 184 -104 335t-289.5 238.5t-413.5 87.5t-413.5 -87.5t-289.5 -238.5t-104 -335q0 -137 61 -259.5t167.5 -211t257 -140t321.5 -51.5zM1053 311q-125 0 -209 63.5t-84 164.5q0 54 33.5 102t89.5 74q-66 26 -106 78t-40 112q0 104 89.5 170
t228.5 66q140 0 228.5 -65.5t88.5 -170.5q0 -60 -39 -112t-104 -78q53 -26 85 -74t32 -102q0 -103 -82.5 -165.5t-210.5 -62.5zM1047 782h14q72 0 117 31.5t45 85.5q0 55 -44 86t-116 31h-14q-74 0 -118 -31t-44 -86t44 -86t116 -31zM1047 436h14q61 0 99 30.5t38 80.5
q0 51 -38.5 83t-98.5 32h-14q-60 0 -100 -32t-40 -83q0 -50 39 -80.5t101 -30.5z" />
    <glyph glyph-name="uni2468" unicode="&#x2468;" horiz-adv-x="2111" 
d="M1055 -82q-201 0 -378 61.5t-303 167.5t-199 254.5t-73 315.5t73 315.5t199 254.5t303 167.5t378 61.5q162 0 309 -39.5t263.5 -112t202.5 -170.5t132.5 -220.5t46.5 -256.5t-46.5 -256.5t-132.5 -220.5t-202.5 -170.5t-263.5 -112t-309 -39.5zM1055 55q171 0 321.5 51.5
t257 140t167.5 211t61 259.5q0 184 -104 335t-289.5 238.5t-413.5 87.5t-413.5 -87.5t-289.5 -238.5t-104 -335q0 -137 61 -259.5t167.5 -211t257 -140t321.5 -51.5zM1028 311q-141 0 -226 64.5t-95 159.5h149q12 -45 56 -72t110 -27h14q89 0 154.5 64.5t85.5 173.5
q-34 -40 -95 -63t-137 -23q-137 -3 -229 74t-92 196q0 126 94.5 204.5t249.5 78.5q167 0 258.5 -100t91.5 -283q0 -195 -110.5 -321t-278.5 -126zM1057 711h12q85 0 139 43t54 110q0 68 -52.5 110t-138.5 42h-12q-84 0 -136.5 -42t-52.5 -108q0 -69 52 -112t135 -43z" />
    <glyph glyph-name="uni24EA" unicode="&#x24ea;" horiz-adv-x="2111" 
d="M1055 -82q-201 0 -378 61.5t-303 167.5t-199 254.5t-73 315.5t73 315.5t199 254.5t303 167.5t378 61.5q162 0 309 -39.5t263.5 -112t202.5 -170.5t132.5 -220.5t46.5 -256.5t-46.5 -256.5t-132.5 -220.5t-202.5 -170.5t-263.5 -112t-309 -39.5zM1055 55q171 0 321.5 51.5
t257 140t167.5 211t61 259.5q0 184 -104 335t-289.5 238.5t-413.5 87.5t-413.5 -87.5t-289.5 -238.5t-104 -335q0 -137 61 -259.5t167.5 -211t257 -140t321.5 -51.5zM1057 311q-182 0 -283.5 112t-101.5 304q0 190 102 302t283 112q174 0 278.5 -113t104.5 -301
q0 -189 -104 -302.5t-279 -113.5zM1049 436h14q109 0 168 81t59 210q0 130 -59.5 209.5t-167.5 79.5h-14q-112 0 -170 -80t-58 -209q0 -131 58 -211t170 -80z" />
    <glyph glyph-name="uni24FF" unicode="&#x24ff;" horiz-adv-x="2111" 
d="M1055 -82q-201 0 -378 61.5t-303 167.5t-199 254.5t-73 315.5t73 315.5t199 254.5t303 167.5t378 61.5q162 0 309 -39.5t263.5 -112t202.5 -170.5t132.5 -220.5t46.5 -256.5t-46.5 -256.5t-132.5 -220.5t-202.5 -170.5t-263.5 -112t-309 -39.5zM1057 311q175 0 279 113.5
t104 302.5q0 188 -104.5 301t-278.5 113q-181 0 -283 -112t-102 -302q0 -192 101.5 -304t283.5 -112zM1063 436h-14q-112 0 -170 80t-58 211q0 129 58 209t170 80h14q108 0 167.5 -79.5t59.5 -209.5q0 -129 -59 -210t-168 -81z" />
    <glyph glyph-name="triagup" unicode="&#x25b2;" horiz-adv-x="1720" 
d="M1690 0h-1659l829 1475z" />
    <glyph glyph-name="lozenge" unicode="&#x25ca;" horiz-adv-x="1433" 
d="M811 0h-184l-555 717l555 717h184l551 -717zM287 717l432 -547l434 547l-434 557z" />
    <glyph glyph-name="uni2776" unicode="&#x2776;" horiz-adv-x="2111" 
d="M1055 -82q-201 0 -378 61.5t-303 167.5t-199 254.5t-73 315.5t73 315.5t199 254.5t303 167.5t378 61.5q162 0 309 -39.5t263.5 -112t202.5 -170.5t132.5 -220.5t46.5 -256.5t-46.5 -256.5t-132.5 -220.5t-202.5 -170.5t-263.5 -112t-309 -39.5zM1010 950v-628h145v808
h-111l-309 -212v-154z" />
    <glyph glyph-name="uni2777" unicode="&#x2777;" horiz-adv-x="2111" 
d="M1055 -82q-201 0 -378 61.5t-303 167.5t-199 254.5t-73 315.5t73 315.5t199 254.5t303 167.5t378 61.5q162 0 309 -39.5t263.5 -112t202.5 -170.5t132.5 -220.5t46.5 -256.5t-46.5 -256.5t-132.5 -220.5t-202.5 -170.5t-263.5 -112t-309 -39.5zM733 469v-147h656v124
h-465l268 189q95 68 142.5 126.5t47.5 141.5q0 105 -89.5 171.5t-225.5 66.5q-139 0 -234 -69.5t-96 -178.5h148q1 56 52 89.5t122 33.5h14q69 0 114.5 -32t45.5 -83q0 -47 -28 -82t-124 -104z" />
    <glyph glyph-name="uni2778" unicode="&#x2778;" horiz-adv-x="2111" 
d="M1055 -82q-201 0 -378 61.5t-303 167.5t-199 254.5t-73 315.5t73 315.5t199 254.5t303 167.5t378 61.5q162 0 309 -39.5t263.5 -112t202.5 -170.5t132.5 -220.5t46.5 -256.5t-46.5 -256.5t-132.5 -220.5t-202.5 -170.5t-263.5 -112t-309 -39.5zM1049 313q147 0 240 64.5
t93 173.5q0 57 -39 106t-106 74q65 28 102 77t37 107q0 103 -90.5 165.5t-234.5 62.5q-139 0 -231 -66.5t-91 -169.5h145q5 48 50 80.5t116 32.5h15q83 0 128.5 -30t45.5 -85q0 -53 -44 -85t-120 -32h-133v-120h131q81 0 126.5 -30t45.5 -83q0 -54 -50 -86.5t-132 -32.5h-15
q-77 0 -123.5 30.5t-52.5 82.5h-145q0 -107 92.5 -171.5t239.5 -64.5z" />
    <glyph glyph-name="uni2779" unicode="&#x2779;" horiz-adv-x="2111" 
d="M1055 -82q-201 0 -378 61.5t-303 167.5t-199 254.5t-73 315.5t73 315.5t199 254.5t303 167.5t378 61.5q162 0 309 -39.5t263.5 -112t202.5 -170.5t132.5 -220.5t46.5 -256.5t-46.5 -256.5t-132.5 -220.5t-202.5 -170.5t-263.5 -112t-309 -39.5zM1090 504v-182h137v182
h145v123h-145v503h-146l-467 -493v-133h476zM1090 627h-322l322 331v-331z" />
    <glyph glyph-name="uni277A" unicode="&#x277a;" horiz-adv-x="2111" 
d="M1055 -82q-201 0 -378 61.5t-303 167.5t-199 254.5t-73 315.5t73 315.5t199 254.5t303 167.5t378 61.5q162 0 309 -39.5t263.5 -112t202.5 -170.5t132.5 -220.5t46.5 -256.5t-46.5 -256.5t-132.5 -220.5t-202.5 -170.5t-263.5 -112t-309 -39.5zM1040 311q140 0 232 75
t92 198q0 110 -83 180t-210 70q-107 0 -174 -46l49 216h402v126h-510l-107 -477h141q68 54 166 54h13q74 0 120 -34.5t46 -92.5q0 -63 -47 -102.5t-123 -39.5h-15q-71 0 -116.5 25t-57.5 72h-153q8 -104 97 -164t238 -60z" />
    <glyph glyph-name="uni277B" unicode="&#x277b;" horiz-adv-x="2111" 
d="M1055 -82q-201 0 -378 61.5t-303 167.5t-199 254.5t-73 315.5t73 315.5t199 254.5t303 167.5t378 61.5q162 0 309 -39.5t263.5 -112t202.5 -170.5t132.5 -220.5t46.5 -256.5t-46.5 -256.5t-132.5 -220.5t-202.5 -170.5t-263.5 -112t-309 -39.5zM1022 311
q157 0 250.5 78.5t93.5 204.5q0 119 -91 194.5t-228 75.5q-76 0 -138 -23t-96 -63q20 108 86 173t156 65h12q66 0 110 -27t56 -74h151q-13 98 -97.5 162t-225.5 64q-167 0 -278 -126t-111 -321q0 -183 91.5 -283t258.5 -100zM1032 436h-14q-86 0 -137.5 42t-51.5 110
t53 110.5t138 42.5h12q83 0 135 -43t52 -112q0 -66 -52 -108t-135 -42z" />
    <glyph glyph-name="uni277C" unicode="&#x277c;" horiz-adv-x="2111" 
d="M1055 -82q-201 0 -378 61.5t-303 167.5t-199 254.5t-73 315.5t73 315.5t199 254.5t303 167.5t378 61.5q162 0 309 -39.5t263.5 -112t202.5 -170.5t132.5 -220.5t46.5 -256.5t-46.5 -256.5t-132.5 -220.5t-202.5 -170.5t-263.5 -112t-309 -39.5zM901 381v-59h150v51
q0 229 88 386t243 240v131h-637v-124h445q-127 -99 -208 -262t-81 -363z" />
    <glyph glyph-name="uni277D" unicode="&#x277d;" horiz-adv-x="2111" 
d="M1055 -82q-201 0 -378 61.5t-303 167.5t-199 254.5t-73 315.5t73 315.5t199 254.5t303 167.5t378 61.5q162 0 309 -39.5t263.5 -112t202.5 -170.5t132.5 -220.5t46.5 -256.5t-46.5 -256.5t-132.5 -220.5t-202.5 -170.5t-263.5 -112t-309 -39.5zM1053 311
q128 0 210.5 62.5t82.5 165.5q0 54 -32 102t-85 74q65 26 104 78t39 112q0 105 -88.5 170.5t-228.5 65.5q-139 0 -228.5 -66t-89.5 -170q0 -60 40 -112t106 -78q-56 -26 -89.5 -74t-33.5 -102q0 -101 84 -164.5t209 -63.5zM1061 782h-14q-72 0 -116 31t-44 86t44 86t118 31
h14q72 0 116 -31t44 -86q0 -54 -45 -85.5t-117 -31.5zM1061 436h-14q-62 0 -101 30.5t-39 80.5q0 51 40 83t100 32h14q60 0 98.5 -32t38.5 -83q0 -50 -38 -80.5t-99 -30.5z" />
    <glyph glyph-name="uni277E" unicode="&#x277e;" horiz-adv-x="2111" 
d="M1055 -82q-201 0 -378 61.5t-303 167.5t-199 254.5t-73 315.5t73 315.5t199 254.5t303 167.5t378 61.5q162 0 309 -39.5t263.5 -112t202.5 -170.5t132.5 -220.5t46.5 -256.5t-46.5 -256.5t-132.5 -220.5t-202.5 -170.5t-263.5 -112t-309 -39.5zM1028 311q168 0 278.5 126
t110.5 321q0 183 -91.5 283t-258.5 100q-155 0 -249.5 -78.5t-94.5 -204.5q0 -119 92 -196t229 -74q76 0 137 23t95 63q-20 -109 -85.5 -173.5t-154.5 -64.5h-14q-66 0 -110 27t-56 72h-149q10 -95 95 -159.5t226 -64.5zM1069 711h-12q-83 0 -135 43t-52 112q0 66 52.5 108
t136.5 42h12q86 0 138.5 -42t52.5 -110q0 -67 -54 -110t-139 -43z" />
    <glyph glyph-name="uni300A" unicode="&#x300a;" horiz-adv-x="1257" 
d="M1087 1608l-550 -887l550 -895h-354l-557 891l557 891h354z" />
    <glyph glyph-name="uni300B" unicode="&#x300b;" horiz-adv-x="1257" 
d="M524 1608l557 -891l-557 -891h-354l551 887l-551 895h354z" />
    <glyph glyph-name="uni300C" unicode="&#x300c;" horiz-adv-x="696" 
d="M307 791h-174v940h522v-158h-348v-782z" />
    <glyph glyph-name="uni300D" unicode="&#x300d;" horiz-adv-x="737" 
d="M436 643h174v-940h-522v158h348v782z" />
    <glyph glyph-name="uni300E" unicode="&#x300e;" horiz-adv-x="937" 
d="M553 655h-430v1076h774v-363h-344v-713zM270 1606v-824h136v711h346v113h-482z" />
    <glyph glyph-name="uni300F" unicode="&#x300f;" horiz-adv-x="978" 
d="M414 778h428v-1075h-774v363h346v712zM696 -172v823h-137v-710h-344v-113h481z" />
    <glyph glyph-name="uni3010" unicode="&#x3010;" horiz-adv-x="847" 
d="M846 -297h-653v2028h653q-240 -210 -357.5 -473t-117.5 -539q0 -179 47.5 -351t156 -346t271.5 -319z" />
    <glyph glyph-name="uni3011" unicode="&#x3011;" horiz-adv-x="847" 
d="M4 1733h651v-2028h-651q240 210 357.5 473t117.5 539q0 179 -47.5 351t-156 346t-271.5 319z" />
    <glyph glyph-name="uni3014" unicode="&#x3014;" horiz-adv-x="747" 
d="M741 -297h-237l-334 313v1401l336 314h233l-391 -373v-1280z" />
    <glyph glyph-name="uni3015" unicode="&#x3015;" horiz-adv-x="747" 
d="M6 1733h238l334 -314v-1401l-336 -313h-234l391 373v1280z" />
    <glyph glyph-name="uniE000" unicode="&#xe000;" horiz-adv-x="1105" 
d="M963 307h-820v819h820v-819zM297 973v-512h512v512h-512z" />
    <glyph glyph-name="uniE001" unicode="&#xe001;" horiz-adv-x="1413" 
d="M1270 154h-1127v1126h1127v-1126zM297 1126v-819h819v819h-819z" />
    <glyph glyph-name="uniE002" unicode="&#xe002;" horiz-adv-x="1802" 
d="M1618 0h-1434v1434h1434v-1434zM338 1280v-1126h1126v1126h-1126z" />
    <glyph glyph-name="uniE003" unicode="&#xe003;" horiz-adv-x="1105" 
d="M963 307h-820v819h820v-819zM297 973v-512h512v512h-512zM655 614h-204v205h204v-205z" />
    <glyph glyph-name="uniE004" unicode="&#xe004;" horiz-adv-x="1413" 
d="M1270 154h-1127v1126h1127v-1126zM297 1126v-819h819v819h-819zM963 461h-512v512h512v-512zM604 819v-205h205v205h-205z" />
    <glyph glyph-name="uniE005" unicode="&#xe005;" horiz-adv-x="1802" 
d="M1618 0h-1434v1434h1434v-1434zM338 1280v-1126h1126v1126h-1126zM1311 307h-819v819h819v-819zM645 973v-512h512v512h-512zM1004 614h-205v205h205v-205z" />
    <glyph glyph-name="uniE006" unicode="&#xe006;" horiz-adv-x="1105" 
d="M963 307h-820v819h820v-819z" />
    <glyph glyph-name="uniE007" unicode="&#xe007;" horiz-adv-x="1413" 
d="M1270 154h-1127v1126h1127v-1126z" />
    <glyph glyph-name="uniE008" unicode="&#xe008;" horiz-adv-x="1802" 
d="M1618 0h-1434v1434h1434v-1434z" />
    <glyph glyph-name="uniE00A" unicode="&#xe00a;" horiz-adv-x="851" 
d="M782 -297h-286q-115 0 -194 72t-79 180q0 98 76 180q-94 19 -131 79.5t-37 154.5v696q0 94 37 154t131 79q-76 82 -76 181q0 108 79 180t194 72h286v-158h-256q-51 0 -87 -30.5t-36 -76.5v-16q0 -46 36 -76.5t87 -30.5h103v-155h-174q-144 0 -144 -152v-639
q0 -151 144 -151h174v-156h-103q-51 0 -87 -30t-36 -76v-17q0 -46 36 -76t87 -30h256v-158z" />
    <glyph glyph-name="uniE00B" unicode="&#xe00b;" horiz-adv-x="870" 
d="M82 1731h287q114 0 193 -72t79 -180q0 -99 -76 -181q94 -19 131 -79t37 -154v-696q0 -94 -37 -154.5t-131 -79.5q76 -82 76 -180q0 -108 -79 -180t-193 -72h-287v158h254q52 0 88.5 30t36.5 76v17q0 46 -36.5 76t-88.5 30h-100v156h174q143 0 143 151v639q0 152 -143 152
h-174v155h100q52 0 88.5 30.5t36.5 76.5v16q0 46 -36.5 76.5t-88.5 30.5h-254v158z" />
    <glyph glyph-name="uniE010" unicode="&#xe010;" horiz-adv-x="1187" 
d="M594 225q-99 0 -190.5 39t-157.5 105t-105 157.5t-39 190.5q0 133 66 246t179.5 179t246.5 66t246 -66t179 -179t66 -246t-66 -246.5t-179 -179.5t-246 -66zM594 379q140 0 239 99.5t99 238.5t-99 238.5t-239 99.5t-239 -99.5t-99 -238.5t99 -238.5t239 -99.5z" />
    <glyph glyph-name="uniE011" unicode="&#xe011;" horiz-adv-x="1495" 
d="M748 72q-174 0 -323 87t-236 235.5t-87 322.5t87 322.5t236 235.5t323 87t322.5 -87t235.5 -235.5t87 -322.5t-87 -322.5t-235.5 -235.5t-322.5 -87zM748 225q133 0 246 66t179 179.5t66 246.5t-66 246t-179 179t-246 66t-246.5 -66t-179.5 -179t-66 -246
q0 -99 39 -190.5t105 -157.5t157.5 -105t190.5 -39z" />
    <glyph glyph-name="uniE012" unicode="&#xe012;" horiz-adv-x="1802" 
d="M901 -82q-161 0 -309 63.5t-255.5 171t-171 255.5t-63.5 309q0 162 63.5 310t171 255t255.5 170.5t309 63.5q162 0 310 -63.5t255 -170.5t170.5 -255t63.5 -310q0 -161 -63.5 -309t-170.5 -255.5t-255 -171t-310 -63.5zM901 72q174 0 322.5 87t235.5 235.5t87 322.5
t-87 322.5t-235.5 235.5t-322.5 87t-322.5 -87t-235.5 -235.5t-87 -322.5t87 -322.5t235.5 -235.5t322.5 -87z" />
    <glyph glyph-name="uniE013" unicode="&#xe013;" horiz-adv-x="1187" 
d="M594 225q-99 0 -190.5 39t-157.5 105t-105 157.5t-39 190.5q0 133 66 246t179.5 179t246.5 66t246 -66t179 -179t66 -246t-66 -246.5t-179 -179.5t-246 -66zM594 379q140 0 239 99.5t99 238.5t-99 238.5t-239 99.5t-239 -99.5t-99 -238.5t99 -238.5t239 -99.5zM594 532
q-75 0 -129.5 55t-54.5 130q0 76 54.5 130t129.5 54q76 0 130 -53.5t54 -130.5q0 -75 -54 -130t-130 -55z" />
    <glyph glyph-name="uniE014" unicode="&#xe014;" horiz-adv-x="1495" 
d="M748 72q-174 0 -323 87t-236 235.5t-87 322.5t87 322.5t236 235.5t323 87t322.5 -87t235.5 -235.5t87 -322.5t-87 -322.5t-235.5 -235.5t-322.5 -87zM748 225q133 0 246 66t179 179.5t66 246.5t-66 246t-179 179t-246 66t-246.5 -66t-179.5 -179t-66 -246
q0 -99 39 -190.5t105 -157.5t157.5 -105t190.5 -39zM748 379q-140 0 -239 99.5t-99 238.5t99 238.5t239 99.5q139 0 238 -99t99 -239t-99 -239t-238 -99zM748 532q76 0 130 55t54 130q0 77 -54 130.5t-130 53.5q-75 0 -130 -54t-55 -130q0 -75 55 -130t130 -55z" />
    <glyph glyph-name="uniE015" unicode="&#xe015;" horiz-adv-x="1802" 
d="M901 -82q-161 0 -309 63.5t-255.5 171t-171 255.5t-63.5 309q0 162 63.5 310t171 255t255.5 170.5t309 63.5q162 0 310 -63.5t255 -170.5t170.5 -255t63.5 -310q0 -161 -63.5 -309t-170.5 -255.5t-255 -171t-310 -63.5zM901 72q174 0 322.5 87t235.5 235.5t87 322.5
t-87 322.5t-235.5 235.5t-322.5 87t-322.5 -87t-235.5 -235.5t-87 -322.5t87 -322.5t235.5 -235.5t322.5 -87zM901 225q-133 0 -246 66t-179 179.5t-66 246.5t66 246t179 179t246 66t246.5 -66t179.5 -179t66 -246q0 -99 -39 -190.5t-105 -157.5t-157.5 -105t-190.5 -39z
M901 379q139 0 238.5 99.5t99.5 238.5t-99.5 238.5t-238.5 99.5t-238.5 -99.5t-99.5 -238.5t99.5 -238.5t238.5 -99.5zM901 532q-75 0 -129.5 55t-54.5 130q0 76 54.5 130t129.5 54q77 0 130.5 -53.5t53.5 -130.5q0 -75 -54 -130t-130 -55z" />
    <glyph glyph-name="uniE016" unicode="&#xe016;" horiz-adv-x="1310" 
d="M655 225q-133 0 -246 66t-179 179.5t-66 246.5t66 246t179 179t246 66t246.5 -66t179.5 -179t66 -246q0 -99 -39 -190.5t-105 -157.5t-157.5 -105t-190.5 -39z" />
    <glyph glyph-name="uniE017" unicode="&#xe017;" horiz-adv-x="1433" 
d="M717 102q-124 0 -238 49t-196.5 131.5t-131.5 196.5t-49 238q0 166 82.5 307.5t224.5 224t308 82.5t307.5 -82.5t224 -224t82.5 -307.5t-82.5 -308t-224 -224.5t-307.5 -82.5z" />
    <glyph glyph-name="uniE018" unicode="&#xe018;" horiz-adv-x="1679" 
d="M840 -20q-150 0 -286.5 58.5t-235.5 157.5t-157.5 235t-58.5 286t58.5 286t157.5 235t235.5 157.5t286.5 58.5q200 0 369.5 -99t268.5 -268.5t99 -369.5t-99 -369.5t-268.5 -268.5t-369.5 -99z" />
    <glyph glyph-name="uniF8FF" unicode="&#xf8ff;" horiz-adv-x="1961" 
d="M1942 1446q58 0 110 -12t74 -31q-1 -4 -1.5 -19t-2 -25t-4.5 -13q-18 -15 -62 -15q-45 0 -69 8q2 -55 -12.5 -103t-52.5 -81.5t-93 -28.5q-18 -58 -57.5 -99.5t-91.5 -61.5t-101 -28.5t-102 -8.5q-40 0 -56 2q0 -1 7 -23.5t18 -62t22.5 -87.5t23.5 -109t19 -116
q5 -6 29 -33.5t40 -45t43.5 -45.5t53.5 -52q44 -39 78 -84t45 -75q4 -8 4 -23q0 -30 -39 -37q-44 26 -84.5 65.5t-90.5 97t-85 91.5q-2 -10 -2 -31q0 -72 25 -184t28 -141q-31 -25 -59 -25q-24 0 -27 19q-27 45 -44 138t-25 183t-10 99q-49 2 -331.5 -29t-412.5 -62
q-1 -47 16 -91t44.5 -82t56.5 -74.5t57.5 -83.5t42.5 -93q-15 -22 -41 -22q-17 0 -35 12q-20 11 -42.5 37.5t-54 72t-42.5 60.5q-23 30 -48.5 86t-37.5 64q-20 -60 -37.5 -107.5t-35.5 -92t-32.5 -68.5t-23.5 -23h-16q-45 0 -45 37q0 58 37 165t90 199q-14 2 -105.5 9
t-168.5 24.5t-124 54.5q-10 13 -20 29q12 15 25 26t21.5 16.5t25.5 15.5t26 16q29 39 106.5 97.5t108.5 102.5q-12 10 -59 32t-85.5 48.5t-47.5 55.5q4 4 18 39q9 7 65.5 -15t121.5 -55q2 15 4 51t5.5 60t10.5 34q3 7 22 14t36 10l18 3q8 -5 15 -14.5t7 -16.5
q2 -16 -10.5 -83.5t-9.5 -102.5q52 4 135.5 30t167 56t225 63t293.5 50q-41 71 -41 157q0 77 35 115q132 1 202 -48.5t70 -127.5q0 -34 -12 -68q40 3 83.5 28t49.5 50q-19 18 -47 33.5t-45 30.5t-27 43q-32 35 -32 79q0 36 23.5 67t64.5 46q25 10 57 10q62 0 100.5 -48
t38.5 -122q0 -27 -2 -39q49 23 49 170q0 10 -1 32t-1 32q16 2 50 2zM1751 1204q6 15 6 35q0 33 -20 60.5t-56 37.5q-12 -21 -12 -41q0 -34 26.5 -61.5t55.5 -30.5zM1485 1042q3 1 7.5 4.5t12.5 21.5t8 44q-57 57 -116 57q-8 -28 -8 -49q0 -59 24 -80q6 -6 21 -6q3 0 51 8z
M618 459q68 6 216.5 30t299 43t265.5 19q-6 38 -20.5 89t-18.5 69q-5 27 -9 59.5t-6 49t-10 36.5t-22 37q-150 -14 -276.5 -41t-195.5 -52.5t-149 -55t-129 -42.5q13 -45 25.5 -102.5t20.5 -96t9 -42.5zM475 461q25 0 35 2q-11 28 -27.5 90t-31.5 96q-19 -17 -60 -51
t-65.5 -59t-42.5 -56q139 -22 192 -22z" />
    <glyph glyph-name="G.ss02" horiz-adv-x="1732" 
d="M920 -20q-186 0 -339 55t-255.5 152.5t-158.5 233t-56 296.5q0 214 95 381t274.5 261.5t416.5 94.5q320 0 501 -135.5t197 -351.5h-204q-19 149 -142 232t-336 83h-32q-258 0 -418 -151.5t-160 -413.5q0 -265 164.5 -415t443.5 -150h19q241 0 363 95.5t122 248.5v55h-510
v172h703v-201q0 -260 -180.5 -401t-507.5 -141z" />
    <glyph glyph-name="Gbreve.ss02" horiz-adv-x="1732" 
d="M920 1561q-162 0 -258 79.5t-101 202.5h152q8 -67 59.5 -108t147.5 -41q95 0 146.5 41t59.5 108h152q-6 -124 -102 -203t-256 -79zM920 -20q-186 0 -339 55t-255.5 152.5t-158.5 233t-56 296.5q0 214 95 381t274.5 261.5t416.5 94.5q320 0 501 -135.5t197 -351.5h-204
q-19 149 -142 232t-336 83h-32q-258 0 -418 -151.5t-160 -413.5q0 -265 164.5 -415t443.5 -150h19q241 0 363 95.5t122 248.5v55h-510v172h703v-201q0 -260 -180.5 -401t-507.5 -141z" />
    <glyph glyph-name="Gcircumflex.ss02" horiz-adv-x="1732" 
d="M686 1561h-184l291 262h249l291 -262h-184l-229 145zM920 -20q-186 0 -339 55t-255.5 152.5t-158.5 233t-56 296.5q0 214 95 381t274.5 261.5t416.5 94.5q320 0 501 -135.5t197 -351.5h-204q-19 149 -142 232t-336 83h-32q-258 0 -418 -151.5t-160 -413.5
q0 -265 164.5 -415t443.5 -150h19q241 0 363 95.5t122 248.5v55h-510v172h703v-201q0 -260 -180.5 -401t-507.5 -141z" />
    <glyph glyph-name="uni0122.ss02" horiz-adv-x="1732" 
d="M920 -20q-186 0 -339 55t-255.5 152.5t-158.5 233t-56 296.5q0 214 95 381t274.5 261.5t416.5 94.5q320 0 501 -135.5t197 -351.5h-204q-19 149 -142 232t-336 83h-32q-258 0 -418 -151.5t-160 -413.5q0 -265 164.5 -415t443.5 -150h19q241 0 363 95.5t122 248.5v55h-510
v172h703v-201q0 -260 -180.5 -401t-507.5 -141zM829 -575h-71v96h63q52 0 75.5 19t23.5 61v14h-117v207h219v-221q0 -82 -52 -129t-141 -47z" />
    <glyph glyph-name="Gdotaccent.ss02" horiz-adv-x="1732" 
d="M1028 1595h-217v215h217v-215zM920 -20q-186 0 -339 55t-255.5 152.5t-158.5 233t-56 296.5q0 214 95 381t274.5 261.5t416.5 94.5q320 0 501 -135.5t197 -351.5h-204q-19 149 -142 232t-336 83h-32q-258 0 -418 -151.5t-160 -413.5q0 -265 164.5 -415t443.5 -150h19
q241 0 363 95.5t122 248.5v55h-510v172h703v-201q0 -260 -180.5 -401t-507.5 -141z" />
    <glyph glyph-name="R.ss03" horiz-adv-x="1642" 
d="M395 0h-190v1434h784q210 0 337.5 -112.5t127.5 -281.5q0 -142 -76 -237.5t-180 -120.5q34 -1 58.5 -5.5t44.5 -17t32.5 -25t26 -39t22.5 -49.5t23 -65l168 -481h-205l-145 424q-19 54 -29.5 78t-30.5 45.5t-46.5 27t-72.5 5.5h-649v-580zM395 1262v-510h570
q138 0 217.5 73.5t79.5 190.5t-78 181.5t-219 64.5h-570z" />
    <glyph glyph-name="Racute.ss03" horiz-adv-x="1642" 
d="M879 1561h-162l147 262h240zM395 0h-190v1434h784q210 0 337.5 -112.5t127.5 -281.5q0 -142 -76 -237.5t-180 -120.5q34 -1 58.5 -5.5t44.5 -17t32.5 -25t26 -39t22.5 -49.5t23 -65l168 -481h-205l-145 424q-19 54 -29.5 78t-30.5 45.5t-46.5 27t-72.5 5.5h-649v-580z
M395 1262v-510h570q138 0 217.5 73.5t79.5 190.5t-78 181.5t-219 64.5h-570z" />
    <glyph glyph-name="Rcaron.ss03" horiz-adv-x="1642" 
d="M918 1561h-250l-285 262h184l226 -146l225 146h182zM395 0h-190v1434h784q210 0 337.5 -112.5t127.5 -281.5q0 -142 -76 -237.5t-180 -120.5q34 -1 58.5 -5.5t44.5 -17t32.5 -25t26 -39t22.5 -49.5t23 -65l168 -481h-205l-145 424q-19 54 -29.5 78t-30.5 45.5t-46.5 27
t-72.5 5.5h-649v-580zM395 1262v-510h570q138 0 217.5 73.5t79.5 190.5t-78 181.5t-219 64.5h-570z" />
    <glyph glyph-name="uni0156.ss03" horiz-adv-x="1642" 
d="M395 0h-190v1434h784q210 0 337.5 -112.5t127.5 -281.5q0 -142 -76 -237.5t-180 -120.5q34 -1 58.5 -5.5t44.5 -17t32.5 -25t26 -39t22.5 -49.5t23 -65l168 -481h-205l-145 424q-19 54 -29.5 78t-30.5 45.5t-46.5 27t-72.5 5.5h-649v-580zM395 1262v-510h570
q138 0 217.5 73.5t79.5 190.5t-78 181.5t-219 64.5h-570zM795 -575h-72v96h63q52 0 75.5 19t23.5 61v14h-117v207h219v-221q0 -82 -51.5 -129t-140.5 -47z" />
    <glyph glyph-name="a.ss01" horiz-adv-x="1398" 
d="M643 -20q-157 0 -279 61.5t-193 183.5t-71 287t71 287t193 183.5t279 61.5q278 0 414 -172v152h174v-1024h-174v154q-138 -174 -414 -174zM655 131h21q73 0 140 24t121.5 69.5t87 120t32.5 167.5t-32.5 167.5t-87 120t-121.5 69.5t-140 24h-21q-106 0 -188.5 -40.5
t-133 -128t-50.5 -212.5t50.5 -212.5t133 -128t188.5 -40.5z" />
    <glyph glyph-name="aacute.ss01" horiz-adv-x="1398" 
d="M745 1161h-139l144 273h204zM643 -20q-157 0 -279 61.5t-193 183.5t-71 287t71 287t193 183.5t279 61.5q278 0 414 -172v152h174v-1024h-174v154q-138 -174 -414 -174zM655 131h21q73 0 140 24t121.5 69.5t87 120t32.5 167.5t-32.5 167.5t-87 120t-121.5 69.5t-140 24
h-21q-106 0 -188.5 -40.5t-133 -128t-50.5 -212.5t50.5 -212.5t133 -128t188.5 -40.5z" />
    <glyph glyph-name="abreve.ss01" horiz-adv-x="1398" 
d="M678 1161q-160 0 -255 84t-101 209h141q8 -72 62.5 -119t152.5 -47q97 0 151 47t62 119h141q-6 -125 -101 -209t-253 -84zM643 -20q-157 0 -279 61.5t-193 183.5t-71 287t71 287t193 183.5t279 61.5q278 0 414 -172v152h174v-1024h-174v154q-138 -174 -414 -174zM655 131
h21q73 0 140 24t121.5 69.5t87 120t32.5 167.5t-32.5 167.5t-87 120t-121.5 69.5t-140 24h-21q-106 0 -188.5 -40.5t-133 -128t-50.5 -212.5t50.5 -212.5t133 -128t188.5 -40.5z" />
    <glyph glyph-name="acircumflex.ss01" horiz-adv-x="1398" 
d="M430 1161h-160l299 273h217l297 -273h-159l-246 156zM643 -20q-157 0 -279 61.5t-193 183.5t-71 287t71 287t193 183.5t279 61.5q278 0 414 -172v152h174v-1024h-174v154q-138 -174 -414 -174zM655 131h21q73 0 140 24t121.5 69.5t87 120t32.5 167.5t-32.5 167.5t-87 120
t-121.5 69.5t-140 24h-21q-106 0 -188.5 -40.5t-133 -128t-50.5 -212.5t50.5 -212.5t133 -128t188.5 -40.5z" />
    <glyph glyph-name="adieresis.ss01" horiz-adv-x="1398" 
d="M567 1206h-209v201h209v-201zM995 1206h-209v201h209v-201zM643 -20q-157 0 -279 61.5t-193 183.5t-71 287t71 287t193 183.5t279 61.5q278 0 414 -172v152h174v-1024h-174v154q-138 -174 -414 -174zM655 131h21q73 0 140 24t121.5 69.5t87 120t32.5 167.5t-32.5 167.5
t-87 120t-121.5 69.5t-140 24h-21q-106 0 -188.5 -40.5t-133 -128t-50.5 -212.5t50.5 -212.5t133 -128t188.5 -40.5z" />
    <glyph glyph-name="uni0227.ss01" horiz-adv-x="1398" 
d="M778 1206h-203v211h203v-211zM643 -20q-157 0 -279 61.5t-193 183.5t-71 287t71 287t193 183.5t279 61.5q278 0 414 -172v152h174v-1024h-174v154q-138 -174 -414 -174zM655 131h21q73 0 140 24t121.5 69.5t87 120t32.5 167.5t-32.5 167.5t-87 120t-121.5 69.5t-140 24
h-21q-106 0 -188.5 -40.5t-133 -128t-50.5 -212.5t50.5 -212.5t133 -128t188.5 -40.5z" />
    <glyph glyph-name="agrave.ss01" horiz-adv-x="1398" 
d="M745 1161h-139l-209 273h207zM643 -20q-157 0 -279 61.5t-193 183.5t-71 287t71 287t193 183.5t279 61.5q278 0 414 -172v152h174v-1024h-174v154q-138 -174 -414 -174zM655 131h21q73 0 140 24t121.5 69.5t87 120t32.5 167.5t-32.5 167.5t-87 120t-121.5 69.5t-140 24
h-21q-106 0 -188.5 -40.5t-133 -128t-50.5 -212.5t50.5 -212.5t133 -128t188.5 -40.5z" />
    <glyph glyph-name="amacron.ss01" horiz-adv-x="1398" 
d="M993 1206h-655v144h655v-144zM643 -20q-157 0 -279 61.5t-193 183.5t-71 287t71 287t193 183.5t279 61.5q278 0 414 -172v152h174v-1024h-174v154q-138 -174 -414 -174zM655 131h21q73 0 140 24t121.5 69.5t87 120t32.5 167.5t-32.5 167.5t-87 120t-121.5 69.5t-140 24
h-21q-106 0 -188.5 -40.5t-133 -128t-50.5 -212.5t50.5 -212.5t133 -128t188.5 -40.5z" />
    <glyph glyph-name="aogonek.ss01" horiz-adv-x="1398" 
d="M1182 -281h65v-133h-90q-119 0 -183.5 47.5t-64.5 122.5q0 77 55.5 139.5t139.5 104.5h-47v154q-138 -174 -414 -174q-157 0 -279 61.5t-193 183.5t-71 287t71 287t193 183.5t279 61.5q278 0 414 -172v152h174v-1024q-191 -105 -191 -205q0 -76 142 -76zM655 131h21
q73 0 140 24t121.5 69.5t87 120t32.5 167.5t-32.5 167.5t-87 120t-121.5 69.5t-140 24h-21q-106 0 -188.5 -40.5t-133 -128t-50.5 -212.5t50.5 -212.5t133 -128t188.5 -40.5z" />
    <glyph glyph-name="aring.ss01" horiz-adv-x="1398" 
d="M676 1161q-93 0 -156 55t-63 138t63 136.5t156 53.5t157 -54t64 -136q0 -83 -64 -138t-157 -55zM678 1268q48 0 76 24t28 62t-27.5 61t-76.5 23t-78 -23.5t-29 -60.5t29 -61.5t78 -24.5zM643 -20q-157 0 -279 61.5t-193 183.5t-71 287t71 287t193 183.5t279 61.5
q278 0 414 -172v152h174v-1024h-174v154q-138 -174 -414 -174zM655 131h21q73 0 140 24t121.5 69.5t87 120t32.5 167.5t-32.5 167.5t-87 120t-121.5 69.5t-140 24h-21q-106 0 -188.5 -40.5t-133 -128t-50.5 -212.5t50.5 -212.5t133 -128t188.5 -40.5z" />
    <glyph glyph-name="atilde.ss01" horiz-adv-x="1398" 
d="M879 1161q-55 0 -97.5 14t-105.5 48l-66 37q-70 38 -110 38q-41 0 -64.5 -29t-23.5 -87h-146v45q0 93 59.5 154t151.5 61q54 0 95 -13.5t94 -42.5l69 -38q73 -43 119 -43q88 0 88 116h143v-45q0 -92 -58.5 -153.5t-147.5 -61.5zM643 -20q-157 0 -279 61.5t-193 183.5
t-71 287t71 287t193 183.5t279 61.5q278 0 414 -172v152h174v-1024h-174v154q-138 -174 -414 -174zM655 131h21q73 0 140 24t121.5 69.5t87 120t32.5 167.5t-32.5 167.5t-87 120t-121.5 69.5t-140 24h-21q-106 0 -188.5 -40.5t-133 -128t-50.5 -212.5t50.5 -212.5t133 -128
t188.5 -40.5z" />
    <glyph glyph-name="i.loclTRK" horiz-adv-x="518" 
d="M360 1206h-204v211h204v-211zM348 0h-180v1024h180v-1024z" />
    <glyph glyph-name="y.ss04" horiz-adv-x="1226" 
d="M625 227l385 797h196l-604 -1239q-42 -87 -93.5 -118.5t-141.5 -31.5h-301v158h258q55 0 80.5 15.5t48.5 64.5l75 156l-508 995h203z" />
    <glyph glyph-name="yacute.ss04" horiz-adv-x="1226" 
d="M686 1434h207l-209 -273h-139zM625 227l385 797h196l-604 -1239q-42 -87 -93.5 -118.5t-141.5 -31.5h-301v158h258q55 0 80.5 15.5t48.5 64.5l75 156l-508 995h203z" />
    <glyph glyph-name="ycircumflex.ss04" horiz-adv-x="1226" 
d="M860 1161l-244 156l-247 -156h-160l297 273h217l299 -273h-162zM625 227l385 797h196l-604 -1239q-42 -87 -93.5 -118.5t-141.5 -31.5h-301v158h258q55 0 80.5 15.5t48.5 64.5l75 156l-508 995h203z" />
    <glyph glyph-name="ydieresis.ss04" horiz-adv-x="1226" 
d="M295 1407h211v-201h-211v201zM723 1407h211v-201h-211v201zM625 227l385 797h196l-604 -1239q-42 -87 -93.5 -118.5t-141.5 -31.5h-301v158h258q55 0 80.5 15.5t48.5 64.5l75 156l-508 995h203z" />
    <glyph glyph-name="ygrave.ss04" horiz-adv-x="1226" 
d="M541 1434l143 -273h-139l-209 273h205zM625 227l385 797h196l-604 -1239q-42 -87 -93.5 -118.5t-141.5 -31.5h-301v158h258q55 0 80.5 15.5t48.5 64.5l75 156l-508 995h203z" />
    <glyph glyph-name="uni0233.ss04" horiz-adv-x="1226" 
d="M276 1350h654v-144h-654v144zM625 227l385 797h196l-604 -1239q-42 -87 -93.5 -118.5t-141.5 -31.5h-301v158h258q55 0 80.5 15.5t48.5 64.5l75 156l-508 995h203z" />
    <glyph glyph-name="I_S_B_N" horiz-adv-x="5214" 
d="M3975 0h-190v872q0 276 156.5 429t467.5 153q305 0 465 -154t160 -428v-872h-190v856q0 209 -109.5 317.5t-308.5 108.5h-33q-204 0 -311 -107.5t-107 -318.5v-856zM1370 0h-1175v1434h188v-1262h995q332 0 332 207q0 89 -78 147t-252 86l-223 37q-235 39 -340.5 130.5
t-105.5 271.5q0 61 15.5 114.5t53 103.5t94.5 86t147 57.5t204 21.5h1775q186 0 309 -103t123 -274q0 -119 -64.5 -204.5t-164.5 -123.5q111 -26 187.5 -116.5t76.5 -223.5q0 -175 -127.5 -282t-314.5 -107h-807v815h752q127 0 198.5 59t71.5 166q0 103 -72 162.5t-198 59.5
h-1745q-324 0 -324 -207q0 -92 70 -143t225 -76l229 -37q234 -36 355 -140.5t121 -265.5q0 -194 -139 -293.5t-392 -99.5zM2408 643v-471h576q136 0 213.5 62.5t77.5 179.5q0 108 -78 168.5t-213 60.5h-576z" />
    <glyph glyph-name="a.sups" horiz-adv-x="755" 
d="M305 840q-104 0 -169.5 47.5t-65.5 128.5q0 83 62 130t173 56l203 15v14q0 46 -36.5 72t-100.5 26h-13q-56 0 -94 -22.5t-41 -57.5h-139q7 86 86.5 140.5t194.5 54.5q126 0 205 -60t79 -161v-240q0 -78 8 -133h-131q-10 30 -10 76q-32 -40 -89.5 -63t-121.5 -23zM322 954
h12q76 0 125 32t49 89v43l-168 -14q-129 -9 -129 -80q0 -32 30 -51t81 -19z" />
    <glyph glyph-name="a.sups.ss01" horiz-adv-x="841" 
d="M383 840q-144 0 -229.5 83.5t-85.5 217.5q0 135 85.5 219t229.5 84q133 0 207 -90v80h137v-584h-137v78q-76 -88 -207 -88zM389 954h10q87 0 138 51t51 136t-51 136.5t-138 51.5h-10q-85 0 -131.5 -51t-46.5 -137q0 -87 47 -137t131 -50z" />
    <glyph glyph-name="b.sups" horiz-adv-x="845" 
d="M465 840q-140 0 -209 86v-76h-141v809h141v-305q33 42 89.5 66t123.5 24q141 0 225 -83t84 -218q0 -133 -86.5 -218t-226.5 -85zM444 956h11q85 0 132.5 50t47.5 137t-47.5 137.5t-132.5 50.5h-11q-88 0 -137 -51t-49 -137q0 -87 49 -137t137 -50z" />
    <glyph glyph-name="c.sups" horiz-adv-x="751" 
d="M391 840q-149 0 -236 79t-87 220q0 138 90.5 221.5t234.5 83.5q123 0 202.5 -56.5t90.5 -148.5h-139q-9 39 -48.5 63.5t-99.5 24.5h-12q-84 0 -130 -51.5t-46 -136.5q0 -84 46 -133.5t130 -49.5h12q56 0 95.5 25t52.5 63h139q-14 -92 -94.5 -148t-200.5 -56z" />
    <glyph glyph-name="d.sups" horiz-adv-x="845" 
d="M381 840q-140 0 -226.5 84.5t-86.5 218.5q0 133 85 217t226 84q66 0 122 -24t89 -64v303h143v-809h-143v80q-35 -45 -91 -67.5t-118 -22.5zM391 956h12q87 0 137 50t50 137q0 85 -50 134.5t-137 49.5h-12q-86 0 -133 -48.5t-47 -135.5t47.5 -137t132.5 -50z" />
    <glyph glyph-name="e.sups" horiz-adv-x="751" 
d="M385 840q-147 0 -232 82t-85 221q0 130 88.5 215.5t226.5 85.5q135 0 216 -81.5t81 -213.5v-47h-473q7 -69 52.5 -107.5t117.5 -38.5h14q55 0 94 18.5t54 51.5h135q-15 -82 -94.5 -134t-194.5 -52zM213 1204h328q-6 59 -44.5 91t-105.5 32h-14q-66 0 -110.5 -31
t-53.5 -92z" />
    <glyph glyph-name="f.sups" horiz-adv-x="514" 
d="M319 850h-139v469h-151v117h151v77q0 65 41.5 105.5t108.5 40.5h194v-115h-153q-24 0 -38 -14.5t-14 -40.5v-53h168v-117h-168v-469z" />
    <glyph glyph-name="g.sups" horiz-adv-x="835" 
d="M383 604q-144 0 -230.5 53.5t-91.5 141.5h144q19 -78 172 -78h12q91 0 143 44t52 132v39q-74 -90 -207 -90q-139 0 -224 83t-85 216q0 134 85 216.5t228 82.5q133 0 203 -82v72h139v-551q0 -127 -92 -203t-248 -76zM381 963h18q80 0 132.5 51.5t52.5 130.5
q0 81 -51 131.5t-130 50.5h-14q-85 0 -133.5 -48t-48.5 -134q0 -85 46 -133.5t128 -48.5z" />
    <glyph glyph-name="h.sups" horiz-adv-x="817" 
d="M256 850h-141v809h141v-301q73 86 199 86q117 0 187.5 -66t70.5 -174v-354h-142v330q0 73 -34 111t-97 38h-14q-72 0 -121 -52t-49 -130v-297z" />
    <glyph glyph-name="i.sups" horiz-adv-x="368" 
d="M260 1511h-151v148h151v-148zM256 850h-141v586h141v-586z" />
    <glyph glyph-name="j.sups" horiz-adv-x="368" 
d="M262 1511h-153v148h153v-148zM106 614h-180v121h125q36 0 50 15.5t14 48.5v635h141v-674q0 -64 -40 -105t-110 -41z" />
    <glyph glyph-name="k.sups" horiz-adv-x="786" 
d="M256 850h-141v809h141v-461l289 238h203l-299 -238l319 -348h-186l-238 264l-88 -72v-192z" />
    <glyph glyph-name="l.sups" horiz-adv-x="368" 
d="M256 850h-141v809h141v-809z" />
    <glyph glyph-name="m.sups" horiz-adv-x="1247" 
d="M256 850h-141v584h141v-70q64 80 186 80q149 0 213 -107q76 107 222 107q125 0 194.5 -67t69.5 -183v-344h-142v330q0 147 -131 147h-12q-71 0 -114.5 -52.5t-43.5 -131.5v-293h-141v330q0 71 -32.5 109t-96.5 38h-14q-71 0 -114.5 -51.5t-43.5 -132.5v-293z" />
    <glyph glyph-name="n.sups" horiz-adv-x="821" 
d="M256 850h-141v584h141v-78q72 88 201 88q118 0 188 -67t70 -175v-352h-142v328q0 73 -34.5 111t-96.5 38h-14q-72 0 -122 -52t-50 -128v-297z" />
    <glyph glyph-name="o.sups" horiz-adv-x="806" 
d="M403 840q-150 0 -243.5 83t-93.5 218q0 136 93.5 219.5t243.5 83.5t244 -83.5t94 -219.5t-94 -218.5t-244 -82.5zM397 956h13q86 0 136 50t50 135t-50 135.5t-136 50.5h-13q-86 0 -136 -51t-50 -135t50 -134.5t136 -50.5z" />
    <glyph glyph-name="p.sups" horiz-adv-x="845" 
d="M256 625h-141v809h141v-80q35 45 91 67.5t118 22.5q141 0 227 -84t86 -219q0 -133 -85 -217t-226 -84q-66 0 -122.5 23t-88.5 63v-301zM444 956h11q85 0 132.5 49.5t47.5 135.5q0 88 -47 137t-133 49h-11q-87 0 -136.5 -49.5t-49.5 -134.5q0 -86 49.5 -136.5t136.5 -50.5
z" />
    <glyph glyph-name="q.sups" horiz-adv-x="845" 
d="M733 625h-143v301q-33 -40 -88.5 -63t-122.5 -23q-141 0 -226 83t-85 218q0 133 86.5 218t226.5 85q62 0 118 -22t91 -66v78h143v-809zM391 954h12q87 0 137 51t50 136t-50 135.5t-137 50.5h-12q-86 0 -133 -49.5t-47 -136.5t47.5 -137t132.5 -50z" />
    <glyph glyph-name="r.sups" horiz-adv-x="540" 
d="M256 850h-141v584h137v-105q50 105 170 105h90v-127h-104q-76 0 -114 -48t-38 -131v-278z" />
    <glyph glyph-name="s.sups" horiz-adv-x="694" 
d="M348 840q-131 0 -208 53.5t-79 142.5h140q2 -38 38.5 -61t102.5 -23h14q127 0 127 60q0 25 -21.5 40.5t-78.5 24.5l-92 17q-105 17 -155 57.5t-50 110.5q0 83 70.5 132.5t189.5 49.5q127 0 200.5 -53t78.5 -142h-140q-3 38 -39 61t-96 23h-14q-117 0 -117 -59
q0 -24 22 -38t85 -26l90 -16q202 -36 202 -174q0 -84 -72.5 -132t-197.5 -48z" />
    <glyph glyph-name="t.sups" horiz-adv-x="569" 
d="M512 850h-190q-68 0 -109 39.5t-41 103.5v324h-143v117h143v184h141v-184h179v-117h-179v-291q0 -55 58 -55h141v-121z" />
    <glyph glyph-name="u.sups" horiz-adv-x="806" 
d="M346 840q-112 0 -177 62.5t-65 168.5v363h144v-338q0 -142 123 -142h16q71 0 117.5 49.5t46.5 124.5v306h143v-584h-143v84q-64 -94 -205 -94z" />
    <glyph glyph-name="v.sups" horiz-adv-x="706" 
d="M426 850h-147l-267 584h146l196 -449l197 449h143z" />
    <glyph glyph-name="w.sups" horiz-adv-x="1067" 
d="M393 850h-133l-225 584h145l146 -414l143 414h133l141 -420l146 420h141l-219 -584h-135l-141 418z" />
    <glyph glyph-name="x.sups" horiz-adv-x="745" 
d="M203 850h-164l256 293l-252 291h170l162 -197l164 197h163l-249 -289l254 -295h-168l-166 201z" />
    <glyph glyph-name="y.sups" horiz-adv-x="716" 
d="M279 614h-224v121h189q45 0 45 45v113l-283 541h150l204 -400l201 400h150l-283 -541v-135q0 -64 -41 -104t-108 -40z" />
    <glyph glyph-name="y.sups.ss04" horiz-adv-x="712" 
d="M203 616h-170v121h147q31 0 48.5 13t29.5 43l37 88l-289 553h150l211 -408l192 408h146l-328 -691q-32 -68 -72.5 -97.5t-101.5 -29.5z" />
    <glyph glyph-name="z.sups" horiz-adv-x="702" 
d="M633 850h-561v98l358 367h-352v119h538v-105l-354 -358h371v-121z" />
    <glyph glyph-name="zero.zero" horiz-adv-x="1544" 
d="M772 1454q136 0 251.5 -45.5t205 -134t140 -231.5t50.5 -326t-50.5 -326t-139.5 -231.5t-204.5 -134t-252.5 -45.5t-252.5 45.5t-204.5 134t-139.5 231.5t-50.5 326t50.5 326t140 231.5t205 134t251.5 45.5zM313 717q0 -176 54 -307l720 755q-62 65 -141.5 95t-159.5 28
h-28q-61 1 -119.5 -14.5t-119 -56t-105 -102.5t-73 -165t-28.5 -233zM758 143h28q62 0 120.5 15.5t119 56.5t105 103.5t72.5 165.5t28 233q0 178 -49 301l-721 -754q118 -121 297 -121z" />
    <glyph glyph-name="zero.osf" horiz-adv-x="1435" 
d="M719 -20q-168 0 -305.5 67t-218 189.5t-80.5 275.5t81 275.5t218.5 189.5t304.5 67q166 0 303.5 -67t218 -189.5t80.5 -275.5t-80 -275.5t-217.5 -189.5t-304.5 -67zM715 131h14q173 0 291.5 104.5t118.5 276.5t-118.5 276.5t-291.5 104.5h-20q-174 0 -293 -104.5
t-119 -276.5q0 -114 58 -202.5t152.5 -133.5t207.5 -45z" />
    <glyph glyph-name="one.osf" horiz-adv-x="888" 
d="M692 0h-174v809l-426 -326v193l457 348h143v-1024z" />
    <glyph glyph-name="two.osf" horiz-adv-x="1126" 
d="M741 395l-403 -237h641v-158h-844v223l502 299q51 30 76.5 46.5t55.5 42t42 53t12 61.5q0 76 -68 122t-177 46h-17q-104 0 -176.5 -54.5t-73.5 -136.5h-180q0 142 127 242t311 100q190 0 313.5 -86t123.5 -227q0 -100 -61 -175.5t-204 -160.5z" />
    <glyph glyph-name="three.osf" horiz-adv-x="1343" 
d="M668 -430q-248 0 -404.5 106t-165.5 285h189q13 -113 114 -176.5t250 -63.5h27q160 0 260 74.5t100 192.5q0 113 -92 179t-254 66h-194v152h194q159 0 247.5 72.5t88.5 181.5q0 118 -94 186t-256 68h-27q-142 0 -238.5 -70.5t-105.5 -173.5h-184q6 170 156.5 282.5
t388.5 112.5q248 0 395 -107.5t147 -281.5q0 -70 -22.5 -129.5t-61.5 -100.5t-82 -68.5t-92 -45.5q114 -33 191.5 -116.5t77.5 -210.5q0 -192 -150.5 -303t-402.5 -111z" />
    <glyph glyph-name="four.osf" horiz-adv-x="1443" 
d="M1102 -410h-180v410h-840v186l827 838h193v-868h280v-156h-280v-410zM922 823l-658 -667h658v667z" />
    <glyph glyph-name="five.osf" horiz-adv-x="1318" 
d="M684 485q240 0 386.5 -124t146.5 -318q0 -213 -157 -342t-413 -129q-157 0 -281 45.5t-202 136.5t-90 217h184q23 -114 127 -182t246 -68h28q171 0 273 90.5t102 227.5q0 129 -100 212t-264 83h-29q-94 0 -186.5 -42t-141.5 -116h-188l174 850h879v-158h-748l-104 -501
q69 58 165.5 88t192.5 30z" />
    <glyph glyph-name="six.osf" horiz-adv-x="1445" 
d="M758 946q153 0 278 -58t199 -167.5t74 -249.5q0 -144 -76.5 -257t-208 -173.5t-293.5 -60.5q-281 0 -444.5 181t-163.5 509q0 169 54 316.5t146 249t217.5 160t264.5 58.5q214 0 354.5 -95.5t177.5 -268.5h-180q-30 100 -117.5 156.5t-222.5 56.5h-20q-208 0 -348.5 -161
t-163.5 -433q64 110 192 173.5t281 63.5zM723 131h20q163 0 273 91.5t110 238.5q0 148 -110 241t-273 93h-20q-161 0 -275 -94.5t-114 -237.5t114 -237.5t275 -94.5z" />
    <glyph glyph-name="seven.osf" horiz-adv-x="1241" 
d="M39 866v158h1143v-176q-216 -116 -359 -278.5t-219 -392.5t-76 -525v-62h-180v74q0 428 165.5 735t459.5 467h-934z" />
    <glyph glyph-name="eight.osf" horiz-adv-x="1345" 
d="M672 -20q-221 0 -362.5 107t-141.5 282q0 119 74.5 207t169.5 120q-50 14 -98.5 42.5t-93 71.5t-72 106t-27.5 135q0 174 154.5 288.5t396.5 114.5q243 0 397 -112.5t154 -290.5q0 -72 -27.5 -135t-71.5 -106t-92.5 -71.5t-97.5 -42.5q94 -32 169 -120t75 -207
q0 -175 -142 -282t-364 -107zM657 780h29q163 0 258.5 70t95.5 190q0 121 -95.5 192t-258.5 71h-29q-162 0 -258 -71t-96 -192q0 -120 96 -190t258 -70zM657 131h29q139 0 224 68t85 178t-85.5 181t-223.5 71h-29q-137 0 -222 -71t-85 -181t84.5 -178t222.5 -68z" />
    <glyph glyph-name="nine.osf" horiz-adv-x="1417" 
d="M696 1047q281 0 445 -181.5t164 -509.5q0 -169 -54 -316.5t-146 -249t-217.5 -160t-264.5 -58.5q-214 0 -355 96t-178 269h180q30 -100 117.5 -156.5t222.5 -56.5h21q208 0 348.5 160.5t163.5 432.5q-64 -110 -192 -173.5t-281 -63.5t-278 58t-199 167.5t-74 249.5
q0 145 76 257.5t207.5 173.5t293.5 61zM684 231h21q161 0 275 94.5t114 237.5t-114 237.5t-275 94.5h-21q-163 0 -273 -91.5t-110 -238.5q0 -148 110 -241t273 -93z" />
    <glyph glyph-name="zero.osf.zero" horiz-adv-x="1435" 
d="M719 1044q166 0 303.5 -67t218 -189.5t80.5 -275.5t-80 -275.5t-217.5 -189.5t-304.5 -67q-168 0 -305.5 67t-218 189.5t-80.5 275.5t81 275.5t218.5 189.5t304.5 67zM729 893h-20q-174 0 -293 -104.5t-119 -276.5q0 -128 74 -225l575 553q-95 53 -217 53zM715 131h14
q173 0 291.5 104.5t118.5 276.5q0 133 -74 229l-573 -557q100 -53 223 -53z" />
    <glyph glyph-name="zero.tf" 
d="M737 -20q-128 0 -237.5 45.5t-194.5 134t-133.5 231.5t-48.5 326t49 326t134 231.5t194.5 134t236.5 45.5t236.5 -45.5t195 -134t134.5 -231.5t49 -326t-48.5 -326t-134 -231.5t-195 -134t-237.5 -45.5zM723 143h29q57 0 111 15.5t110 56.5t97.5 103.5t68 165.5t26.5 233
t-26.5 233t-68 165t-97.5 103t-110 56.5t-111 15.5h-29q-56 0 -110 -15.5t-110.5 -56.5t-98.5 -103t-68.5 -165t-26.5 -233t26.5 -233t68.5 -165.5t98.5 -103.5t110.5 -56.5t110 -15.5z" />
    <glyph glyph-name="one.tf" 
d="M928 1434v-1266h422v-168h-1198v168h596v1018l-412 -326v213l452 361h140z" />
    <glyph glyph-name="two.tf" 
d="M920 561l-512 -389h880v-172h-1106v219l609 463q70 52 108.5 82t81 69t62.5 68.5t33.5 66t13.5 76.5q0 112 -94.5 179t-241.5 67h-29q-149 0 -239 -80.5t-95 -199.5h-194q6 198 158.5 321t383.5 123q237 0 388 -108t151 -293q0 -62 -19 -118.5t-46 -99.5t-79.5 -94.5
t-95.5 -86.5t-118 -93z" />
    <glyph glyph-name="three.tf" 
d="M731 -20q-252 0 -411 106t-168 285h194q18 -107 121 -167.5t246 -60.5h28q165 0 268 70t103 184q0 111 -94 174.5t-262 63.5h-197v166h197q165 0 255.5 70t90.5 178q0 114 -96.5 177.5t-264.5 63.5h-28q-135 0 -231.5 -66.5t-108.5 -164.5h-195q5 170 158 282.5
t395 112.5q255 0 407 -107.5t152 -283.5q0 -69 -22 -127t-60 -98t-79.5 -67t-90.5 -46q110 -32 186 -117t76 -209q0 -195 -155 -307t-414 -112z" />
    <glyph glyph-name="four.tf" 
d="M1053 1434v-942h284v-164h-284v-328h-181v328h-739v196l709 910h211zM872 1221l-563 -729h563v729z" />
    <glyph glyph-name="five.tf" 
d="M778 893q225 0 369.5 -122.5t144.5 -315.5q0 -216 -155.5 -345.5t-413.5 -129.5q-238 0 -392.5 102.5t-178.5 292.5h194q27 -110 127 -171t236 -61h28q170 0 268.5 85t98.5 221q0 126 -98.5 203t-257.5 77h-29q-95 0 -185.5 -36t-138.5 -105h-192l174 846h878v-172h-745
l-100 -486q135 117 368 117z" />
    <glyph glyph-name="six.tf" 
d="M770 944q140 0 255.5 -53.5t187 -163t71.5 -256.5q0 -226 -150.5 -358.5t-396.5 -132.5q-265 0 -415 165t-150 504q0 228 81.5 411.5t230 288.5t335.5 105q202 0 335.5 -98t158.5 -266h-195q-22 86 -95.5 143t-188.5 57h-29q-184 0 -309 -149.5t-150 -395.5
q65 97 176.5 148t247.5 51zM729 143h29q142 0 241 83.5t99 234.5t-99 235t-241 84h-29q-146 0 -248 -83.5t-102 -233.5q0 -151 101 -235.5t249 -84.5z" />
    <glyph glyph-name="seven.tf" 
d="M104 1260v174h1246v-191q-361 -170 -537 -459.5t-176 -742.5v-41h-186v59q0 421 179 730t482 471h-1008z" />
    <glyph glyph-name="eight.tf" 
d="M737 -20q-225 0 -368.5 107t-143.5 282q0 118 76.5 206.5t171.5 120.5q-51 12 -101 40t-95 70.5t-73 106t-28 136.5q0 177 157 291t404 114q248 0 404.5 -112t156.5 -293q0 -73 -28 -136.5t-73 -106t-95 -70.5t-101 -40q95 -32 171.5 -120.5t76.5 -206.5
q0 -175 -143.5 -282t-368.5 -107zM723 786h29q166 0 262 66.5t96 185.5q0 118 -96.5 185t-261.5 67h-29q-165 0 -261.5 -67t-96.5 -185q0 -119 96 -185.5t262 -66.5zM723 143h29q140 0 224.5 65t84.5 171q0 108 -84.5 176t-224.5 68h-29q-140 0 -224.5 -68t-84.5 -176
q0 -106 84.5 -171t224.5 -65z" />
    <glyph glyph-name="nine.tf" 
d="M737 1454q265 0 415.5 -165.5t150.5 -504.5q0 -227 -82 -410.5t-230.5 -288.5t-335.5 -105q-202 0 -335 98t-158 266h194q22 -86 96 -143.5t189 -57.5h29q184 0 308.5 149.5t149.5 395.5q-65 -97 -176 -148t-247 -51q-104 0 -197 31.5t-164 90.5t-112.5 150t-41.5 202
q0 226 150.5 358.5t396.5 132.5zM717 653h28q146 0 248.5 84t102.5 234q0 151 -101.5 235t-249.5 84h-28q-92 0 -167.5 -34.5t-124 -108t-48.5 -174.5q0 -151 99 -235.5t241 -84.5z" />
    <glyph glyph-name="zero.tf.zero" 
d="M737 1454q127 0 236.5 -45.5t195 -134t134.5 -231.5t49 -326t-48.5 -326t-134 -231.5t-195 -134t-237.5 -45.5t-237.5 45.5t-194.5 134t-133.5 231.5t-48.5 326t49 326t134 231.5t194.5 134t236.5 45.5zM752 1290h-29q-56 0 -110 -15.5t-110.5 -56.5t-98.5 -103
t-68.5 -165t-26.5 -233q0 -158 39 -277l709 695q-60 82 -140.5 118.5t-164.5 36.5zM723 143h29q57 0 111 15.5t110 56.5t97.5 103.5t68 165.5t26.5 233q0 146 -32 258l-703 -690q59 -73 137 -107.5t156 -34.5z" />
    <glyph glyph-name="zero.subs" horiz-adv-x="927" 
d="M465 -246q-182 0 -283.5 112t-101.5 304q0 190 102 302t283 112q174 0 278.5 -113t104.5 -301q0 -189 -104 -302.5t-279 -113.5zM459 -121h12q109 0 169 81t60 210t-60.5 209t-168.5 80h-12q-114 0 -172 -79.5t-58 -209.5q0 -131 58 -211t172 -80z" />
    <glyph glyph-name="one.subs" horiz-adv-x="600" 
d="M469 -236h-145v629l-275 -186v153l309 213h111v-809z" />
    <glyph glyph-name="two.subs" horiz-adv-x="815" 
d="M733 -236h-655v148l348 246q96 69 124 104t28 82q0 51 -45.5 83t-114.5 32h-15q-71 0 -122 -33.5t-52 -89.5h-145q0 109 94.5 178.5t233.5 69.5q136 0 225.5 -66.5t89.5 -171.5q0 -83 -47.5 -141.5t-142.5 -126.5l-269 -189h465v-125z" />
    <glyph glyph-name="three.subs" horiz-adv-x="823" 
d="M403 -244q-145 0 -238 64.5t-93 171.5h147q5 -52 52 -82.5t124 -30.5h15q80 0 130 32.5t50 86.5q0 53 -45.5 83t-124.5 30h-131v120h131q77 0 120.5 32t43.5 85q0 55 -45 85t-127 30h-15q-73 0 -118 -32.5t-48 -80.5h-145q-3 103 89 169.5t233 66.5q144 0 234.5 -62.5
t90.5 -165.5q0 -58 -38 -107t-103 -77q67 -25 106 -74t39 -106q0 -109 -93 -173.5t-241 -64.5z" />
    <glyph glyph-name="four.subs" horiz-adv-x="854" 
d="M655 -236h-137v183h-473v133l467 493h143v-503h146v-123h-146v-183zM518 401l-321 -331h321v331z" />
    <glyph glyph-name="five.subs" horiz-adv-x="794" 
d="M393 -246q-149 0 -239 59.5t-97 163.5h152q12 -47 58 -71.5t118 -24.5h14q76 0 123 39.5t47 102.5q0 58 -47 92.5t-121 34.5h-10q-100 0 -168 -54h-139l104 477h512v-127h-401l-49 -215q65 45 172 45q128 0 211.5 -69.5t83.5 -179.5q0 -123 -92 -198t-232 -75z" />
    <glyph glyph-name="six.subs" horiz-adv-x="860" 
d="M426 -246q-167 0 -258.5 100t-91.5 283q0 195 111 321t278 126q141 0 225.5 -64t97.5 -162h-151q-12 47 -56 74t-110 27h-12q-90 0 -156 -65t-86 -173q34 40 96 63t138 23q137 0 228 -75.5t91 -194.5q0 -126 -93.5 -204.5t-250.5 -78.5zM422 -121h14q83 0 135 42t52 108
q0 69 -52 112t-135 43h-12q-85 0 -138 -42.5t-53 -110.5t51.5 -110t137.5 -42z" />
    <glyph glyph-name="seven.subs" horiz-adv-x="706" 
d="M340 -236h-147v60q0 200 80.5 363t207.5 262h-444v124h637v-131q-156 -84 -245 -241t-89 -385v-52z" />
    <glyph glyph-name="eight.subs" horiz-adv-x="794" 
d="M397 -246q-127 0 -211 63.5t-84 164.5q0 54 33.5 102t89.5 74q-65 26 -105 78t-40 112q0 104 89.5 170t227.5 66q140 0 229 -65.5t89 -170.5q0 -60 -39.5 -112t-104.5 -78q53 -27 86 -75t33 -101q0 -103 -83 -165.5t-210 -62.5zM389 225h14q73 0 117.5 31t44.5 86t-43 86
t-116 31h-15q-73 0 -117.5 -31t-44.5 -86q0 -54 44.5 -85.5t115.5 -31.5zM389 -121h14q62 0 100 30t38 81t-39 82.5t-99 31.5h-14q-60 0 -98.5 -31.5t-38.5 -82.5t37.5 -81t99.5 -30z" />
    <glyph glyph-name="nine.subs" horiz-adv-x="862" 
d="M395 -246q-141 0 -226.5 64t-96.5 159h151q12 -45 56 -71.5t110 -26.5h12q90 0 156 65t86 173q-34 -40 -95.5 -63t-137.5 -23q-136 -3 -228 74t-92 196q0 126 93.5 204.5t250.5 78.5q167 0 258.5 -100t91.5 -283q0 -195 -111 -321t-278 -126zM424 154h12q85 0 138 42.5
t53 110.5t-51.5 110t-137.5 42h-14q-83 0 -134.5 -42t-51.5 -108q0 -69 51.5 -112t134.5 -43z" />
    <glyph glyph-name="zero.subs.zero" horiz-adv-x="925" 
d="M463 584q174 0 278.5 -113t104.5 -301q0 -189 -104 -302.5t-279 -113.5q-182 0 -283.5 112t-101.5 304q0 190 102 302t283 112zM469 459h-12q-114 0 -172 -79.5t-58 -209.5q0 -64 15 -117l379 344q-59 62 -152 62zM457 -121h12q109 0 169 81t60 210q0 65 -14 111
l-379 -344q58 -58 152 -58z" />
    <glyph glyph-name="zero.dnom" horiz-adv-x="927" 
d="M465 -10q-182 0 -283.5 112t-101.5 304q0 190 102 301.5t283 111.5q175 0 279 -112.5t104 -300.5q0 -189 -104 -302.5t-279 -113.5zM459 115h12q109 0 169 81t60 210t-60.5 208.5t-168.5 79.5h-12q-114 0 -172 -79.5t-58 -208.5q0 -131 58 -211t172 -80z" />
    <glyph glyph-name="one.dnom" horiz-adv-x="600" 
d="M467 0h-145v629l-273 -187v154l309 213h109v-809z" />
    <glyph glyph-name="two.dnom" horiz-adv-x="815" 
d="M735 0h-655v147l348 246q96 69 124 104.5t28 82.5q0 51 -45 82.5t-115 31.5h-14q-71 0 -122.5 -33.5t-52.5 -89.5h-147q1 109 96 178.5t234 69.5q136 0 225.5 -66t89.5 -171q0 -83 -47.5 -142t-142.5 -127l-269 -188h465v-125z" />
    <glyph glyph-name="three.dnom" horiz-adv-x="823" 
d="M403 -10q-145 0 -238 64.5t-93 172.5h147q5 -53 51.5 -83.5t124.5 -30.5h15q80 0 130 32t50 86q0 53 -45.5 84t-124.5 31h-131v121h131q77 0 120.5 31.5t43.5 85.5t-45 83t-127 29h-15q-73 0 -118 -32t-48 -80h-145q-3 104 88.5 169.5t233.5 65.5q144 0 234.5 -62
t90.5 -165q0 -58 -38 -106t-103 -76q67 -26 106 -75t39 -108q0 -109 -93 -173t-241 -64z" />
    <glyph glyph-name="four.dnom" horiz-adv-x="854" 
d="M655 0h-137v182h-473v133l467 494h143v-504h146v-123h-146v-182zM518 637l-321 -332h321v332z" />
    <glyph glyph-name="five.dnom" horiz-adv-x="794" 
d="M393 -10q-149 0 -239 59.5t-97 163.5h152q12 -47 58 -71.5t118 -24.5h14q76 0 123 39t47 102q0 58 -47 92.5t-121 34.5h-10q-101 0 -168 -53h-139l104 477h512v-127h-401l-49 -215q65 45 172 45q128 0 211.5 -70t83.5 -180q0 -122 -92 -197t-232 -75z" />
    <glyph glyph-name="six.dnom" horiz-adv-x="860" 
d="M428 -10q-167 0 -258.5 100t-91.5 283q0 195 111 320.5t278 125.5q142 0 226.5 -64t97.5 -161h-152q-12 46 -55.5 73t-110.5 27h-12q-90 0 -156 -64.5t-86 -172.5q34 40 96 63t138 23q136 0 227.5 -76t91.5 -195q0 -126 -93.5 -204t-250.5 -78zM424 115h14q83 0 135 41.5
t52 107.5q0 69 -52 112.5t-135 43.5h-12q-84 0 -137 -43t-53 -111t51 -109.5t137 -41.5z" />
    <glyph glyph-name="seven.dnom" horiz-adv-x="706" 
d="M342 0h-149v59q0 200 80.5 363t207.5 262h-444v125h637v-131q-155 -83 -243.5 -240.5t-88.5 -386.5v-51z" />
    <glyph glyph-name="eight.dnom" horiz-adv-x="794" 
d="M397 -10q-127 0 -211 63t-84 164q0 54 33.5 102t89.5 74q-65 26 -105 78.5t-40 112.5q0 104 89 169.5t228 65.5q140 0 229 -65t89 -170q0 -60 -39.5 -112.5t-104.5 -78.5q53 -27 86 -75t33 -101q0 -102 -83 -164.5t-210 -62.5zM389 461h14q73 0 117.5 31t44.5 86
t-43 85.5t-116 30.5h-15q-73 0 -117.5 -30.5t-44.5 -85.5q0 -54 44.5 -85.5t115.5 -31.5zM389 115h14q62 0 100 29.5t38 80.5t-39 83t-99 32h-14q-60 0 -98.5 -32t-38.5 -83t37.5 -80.5t99.5 -29.5z" />
    <glyph glyph-name="nine.dnom" horiz-adv-x="862" 
d="M395 -10q-141 0 -226.5 64t-96.5 159h151q12 -45 56 -71.5t110 -26.5h12q90 0 156 64.5t86 172.5q-34 -40 -95.5 -63t-137.5 -23q-136 -3 -228 74.5t-92 196.5q0 126 93.5 204t250.5 78q167 0 258.5 -100t91.5 -283q0 -195 -111 -320.5t-278 -125.5zM424 389h12
q85 0 138 43t53 111t-51.5 109.5t-137.5 41.5h-14q-83 0 -134.5 -41.5t-51.5 -107.5q0 -69 51.5 -112.5t134.5 -43.5z" />
    <glyph glyph-name="zero.dnom.zero" horiz-adv-x="925" 
d="M463 819q175 0 279 -112.5t104 -300.5q0 -189 -104 -302.5t-279 -113.5q-182 0 -283.5 112t-101.5 304q0 190 102 301.5t283 111.5zM469 694h-12q-114 0 -172 -79.5t-58 -208.5q0 -64 15 -117l379 344q-58 61 -152 61zM457 115h12q109 0 169 81t60 210q0 64 -14 110
l-379 -344q57 -57 152 -57z" />
    <glyph glyph-name="zero.numr" horiz-adv-x="927" 
d="M465 614q-182 0 -283.5 112t-101.5 304q0 190 102 302t283 112q174 0 278.5 -113t104.5 -301q0 -189 -104 -302.5t-279 -113.5zM459 739h12q109 0 169 81t60 210t-60.5 209t-168.5 80h-12q-114 0 -172 -79.5t-58 -209.5q0 -131 58 -211t172 -80z" />
    <glyph glyph-name="one.numr" horiz-adv-x="600" 
d="M469 625h-145v628l-275 -186v154l309 213h111v-809z" />
    <glyph glyph-name="two.numr" horiz-adv-x="815" 
d="M733 625h-655v147l348 246q96 69 124 104t28 82q0 51 -45.5 83t-114.5 32h-15q-71 0 -122 -33.5t-52 -89.5h-145q0 109 94.5 178.5t233.5 69.5q136 0 225.5 -66.5t89.5 -171.5q0 -83 -47.5 -141.5t-142.5 -126.5l-269 -188h465v-125z" />
    <glyph glyph-name="three.numr" horiz-adv-x="823" 
d="M403 614q-145 0 -238 65t-93 173h147q5 -53 52 -84t124 -31h15q80 0 130 32.5t50 86.5q0 53 -45.5 84t-124.5 31h-131v121h131q78 0 121 31t43 85t-45 83.5t-127 29.5h-15q-73 0 -118 -32.5t-48 -80.5h-145q-3 104 89 170t233 66q144 0 234.5 -62t90.5 -165
q0 -58 -38 -106.5t-103 -76.5q68 -26 106.5 -75t38.5 -107q0 -109 -93 -173.5t-241 -64.5z" />
    <glyph glyph-name="four.numr" horiz-adv-x="854" 
d="M655 625h-137v182h-473v133l467 494h143v-504h146v-123h-146v-182zM518 1262l-321 -332h321v332z" />
    <glyph glyph-name="five.numr" horiz-adv-x="794" 
d="M393 614q-149 0 -238.5 60t-97.5 164h152q12 -47 58.5 -72t117.5 -25h14q76 0 123 39.5t47 102.5q0 58 -47 92.5t-121 34.5h-10q-100 0 -168 -54h-139l104 478h512v-127h-401l-49 -215q65 45 172 45q128 0 211.5 -70t83.5 -180q0 -123 -92 -198t-232 -75z" />
    <glyph glyph-name="six.numr" horiz-adv-x="860" 
d="M428 614q-167 0 -258.5 100t-91.5 283q0 195 111 321t278 126q142 0 226.5 -64t97.5 -161h-152q-12 46 -55.5 73t-110.5 27h-12q-90 0 -156 -65t-86 -173q34 40 96 63t138 23q137 0 228 -75.5t91 -194.5q0 -126 -93.5 -204.5t-250.5 -78.5zM424 739h14q83 0 135 42
t52 108q0 69 -52 112t-135 43h-12q-85 0 -137.5 -42.5t-52.5 -110.5t51 -110t137 -42z" />
    <glyph glyph-name="seven.numr" horiz-adv-x="706" 
d="M342 625h-149v59q0 200 80.5 363t207.5 262h-444v125h637v-131q-155 -83 -243.5 -240.5t-88.5 -386.5v-51z" />
    <glyph glyph-name="eight.numr" horiz-adv-x="794" 
d="M397 614q-127 0 -211 63.5t-84 164.5q0 54 33.5 102t89.5 74q-65 26 -105 78t-40 112q0 104 89.5 170t227.5 66q140 0 229 -65.5t89 -170.5q0 -60 -39.5 -112t-104.5 -78q53 -27 86 -75t33 -101q0 -103 -83 -165.5t-210 -62.5zM389 1085h14q73 0 117.5 31t44.5 86t-43 86
t-116 31h-15q-73 0 -117.5 -31t-44.5 -86q0 -54 44.5 -85.5t115.5 -31.5zM389 739h14q62 0 100 30t38 81t-39 83t-99 32h-14q-60 0 -98.5 -32t-38.5 -83t37.5 -81t99.5 -30z" />
    <glyph glyph-name="nine.numr" horiz-adv-x="862" 
d="M395 614q-141 0 -226.5 64.5t-96.5 159.5h151q12 -45 56 -72t110 -27h12q90 0 156 65t86 173q-34 -40 -95.5 -63t-137.5 -23q-136 -3 -228 74t-92 196q0 126 93.5 204.5t250.5 78.5q167 0 258.5 -100t91.5 -283q0 -195 -111 -321t-278 -126zM424 1014h12q85 0 138 42.5
t53 110.5t-51.5 110t-137.5 42h-14q-83 0 -134.5 -42t-51.5 -108q0 -69 51.5 -112t134.5 -43z" />
    <glyph glyph-name="zero.numr.zero" horiz-adv-x="925" 
d="M463 1444q174 0 278.5 -113t104.5 -301q0 -189 -104 -302.5t-279 -113.5q-182 0 -283.5 112t-101.5 304q0 190 102 302t283 112zM469 1319h-12q-114 0 -172 -79.5t-58 -209.5q0 -64 15 -117l379 344q-59 62 -152 62zM457 739h12q109 0 169 81t60 210q0 65 -14 111
l-379 -344q58 -58 152 -58z" />
    <glyph glyph-name="uni2070.zero" horiz-adv-x="927" 
d="M465 1669q174 0 278.5 -113t104.5 -301q0 -189 -104 -302t-279 -113q-182 0 -283.5 112t-101.5 303q0 190 102 302t283 112zM471 1544h-12q-114 0 -172 -79.5t-58 -209.5q0 -63 15 -116l379 344q-58 61 -152 61zM459 965h12q109 0 169 80.5t60 209.5q0 65 -14 111
l-379 -344q57 -57 152 -57z" />
    <glyph glyph-name="exclamdown.case" horiz-adv-x="600" 
d="M186 1434h232v-228h-232v228zM256 1034h88l51 -583v-451h-190v451z" />
    <glyph glyph-name="questiondown.case" horiz-adv-x="1112" 
d="M623 1436h229v-228h-229v228zM649 1022h178v-246q0 -102 -44 -144t-148 -42h-141q-104 0 -166 -59.5t-62 -153.5t65.5 -149.5t182.5 -55.5h512v-170h-543q-177 0 -290 103t-113 270q0 173 120 275t320 102h45q48 0 66 17t18 54v199z" />
    <glyph glyph-name="question.ss06" horiz-adv-x="1163" 
d="M573 414h-182v178q0 79 25.5 118t95.5 70l158 72q42 19 68.5 32t60 35t52.5 44t32.5 53.5t13.5 68.5q0 88 -80.5 146.5t-232.5 58.5q-290 0 -326 -221h-182q9 177 154 281t354 104q217 0 359 -100t142 -260q0 -59 -19 -111.5t-47.5 -90t-68.5 -70.5t-73.5 -52.5
t-71.5 -36.5l-135 -63q-63 -29 -80 -51.5t-17 -75.5v-129zM596 0h-229v227h229v-227z" />
    <glyph glyph-name="questiondown.ss06" horiz-adv-x="1148" 
d="M561 1024h230v-227h-230v227zM584 610h182v-178q0 -79 -26 -118t-97 -70l-158 -72q-53 -24 -84.5 -41t-68.5 -45.5t-54.5 -65t-17.5 -81.5q0 -88 80 -146.5t233 -58.5q144 0 226.5 57t99.5 164h182q-9 -177 -154 -281t-354 -104q-217 0 -359 100t-142 260q0 232 278 361
l137 63q62 29 79.5 52t17.5 75v129z" />
    <glyph glyph-name="questiondown.ss06.case" horiz-adv-x="1165" 
d="M569 1434h230v-228h-230v228zM592 1020h182v-178q0 -79 -26 -118.5t-97 -70.5l-157 -71q-53 -24 -84.5 -41.5t-69 -46t-55 -65t-17.5 -81.5q0 -88 80.5 -146.5t233.5 -58.5q144 0 225.5 57.5t99.5 164.5h183q-9 -177 -154 -281t-354 -104q-143 0 -257 44.5t-179.5 127
t-65.5 188.5q0 231 278 360l138 64q62 29 79 52t17 75v129z" />
    <glyph glyph-name="period.tf" 
d="M864 0h-252v236h252v-236z" />
    <glyph glyph-name="comma.tf" 
d="M633 -270h-98v123h98q115 0 115 110v37h-138v236h256v-277q0 -111 -61.5 -170t-171.5 -59z" />
    <glyph glyph-name="colon.tf" 
d="M866 788h-254v236h254v-236zM866 0h-254v236h254v-236z" />
    <glyph glyph-name="semicolon.tf" 
d="M877 788h-252v236h252v-236zM643 -270h-98v123h98q115 0 115 110v37h-137v236h256v-277q0 -111 -62 -170t-172 -59z" />
    <glyph glyph-name="numbersign.tf" 
d="M1376 1067v-158h-237l-107 -385h258v-157h-299l-100 -367h-174l100 367h-346l-100 -367h-174l100 367h-201v157h242l106 385h-260v158h301l101 367h174l-101 -367h347l100 367h174l-100 -367h196zM512 524h346l107 385h-347z" />
    <glyph glyph-name="parenleft.case" horiz-adv-x="831" 
d="M725 150v-170q-127 15 -237.5 75t-192 154t-128 225.5t-46.5 282.5t46.5 282.5t128 225.5t192 154t237.5 75v-170q-188 -30 -306 -183t-118 -384t118 -384t306 -183z" />
    <glyph glyph-name="parenright.case" horiz-adv-x="831" 
d="M106 1284v170q127 -15 238 -75t193 -154t129 -225.5t47 -282.5t-47 -282.5t-129 -225.5t-193 -154t-238 -75v170q189 30 306.5 183t117.5 384t-117.5 384t-306.5 183z" />
    <glyph glyph-name="braceleft.case" horiz-adv-x="880" 
d="M770 0h-209q-134 0 -195 76t-61 235v129q0 78 -20.5 105.5t-81.5 27.5h-92v287h92q61 0 81.5 27.5t20.5 105.5v129q0 159 61.5 235.5t194.5 76.5h209v-164h-158q-79 0 -104 -31t-25 -119v-209q0 -174 -202 -174v-41q202 0 202 -174v-209q0 -88 24.5 -118.5t104.5 -30.5
h158v-164z" />
    <glyph glyph-name="braceright.case" horiz-adv-x="882" 
d="M113 1436h206q133 0 194.5 -76.5t61.5 -235.5v-129q0 -77 21 -105t82 -28h92v-287h-92q-61 0 -82 -28t-21 -105v-129q0 -159 -61 -235t-195 -76h-206v164h155q80 0 105.5 31t25.5 118v209q0 174 201 174v41q-201 0 -201 174v209q0 87 -25.5 118.5t-105.5 31.5h-155v164z
" />
    <glyph glyph-name="bracketleft.case" horiz-adv-x="782" 
d="M672 0h-459v1434h459v-162h-277v-1110h277v-162z" />
    <glyph glyph-name="bracketright.case" horiz-adv-x="782" 
d="M111 1434h458v-1434h-458v162h276v1110h-276v162z" />
    <glyph glyph-name="edgeleft.case" horiz-adv-x="888" 
d="M770 0h-276q-120 0 -202.5 72.5t-82.5 181.5q0 111 78 180q-84 29 -127 101t-43 163v37q0 92 43 163t127 101q-78 69 -78 181q0 108 83.5 181t201.5 73h276v-158h-262q-53 0 -88 -29t-35 -80v-8q0 -52 35 -81t88 -29h115v-156h-162q-74 0 -120 -45t-46 -121v-18
q0 -80 45.5 -124t120.5 -44h162v-156h-115q-52 0 -87.5 -31t-35.5 -82v-6q0 -52 34.5 -80t88.5 -28h262v-158z" />
    <glyph glyph-name="edgeright.case" horiz-adv-x="888" 
d="M119 1434h276q119 0 202 -72.5t83 -181.5q0 -113 -80 -181q85 -29 127.5 -100.5t42.5 -163.5v-37q0 -93 -42.5 -164t-127.5 -100q80 -68 80 -180q0 -108 -83.5 -181t-201.5 -73h-276v158h262q52 0 87.5 29t35.5 79v8q0 52 -35.5 81.5t-87.5 29.5h-115v156h162
q74 0 120 45t46 121v18q0 80 -45.5 124t-120.5 44h-162v156h115q51 0 87 30.5t36 81.5v6q0 52 -35.5 80.5t-87.5 28.5h-262v158z" />
    <glyph glyph-name="hyphen.case" horiz-adv-x="944" 
d="M782 639h-620v158h620v-158z" />
    <glyph glyph-name="uni00AD.case" horiz-adv-x="944" 
d="M782 639h-620v158h620v-158z" />
    <glyph glyph-name="endash.case" horiz-adv-x="1394" 
d="M1233 639h-1071v158h1071v-158z" />
    <glyph glyph-name="emdash.case" horiz-adv-x="2172" 
d="M2011 639h-1849v158h1849v-158z" />
    <glyph glyph-name="uni2015.case" horiz-adv-x="2172" 
d="M2011 639h-1849v158h1849v-158z" />
    <glyph glyph-name="guillemotleft.case" horiz-adv-x="1257" 
d="M465 1157h217l-367 -438l367 -443h-217l-375 441zM928 1157h217l-367 -438l367 -443h-217l-375 441z" />
    <glyph glyph-name="guillemotright.case" horiz-adv-x="1257" 
d="M113 1157h217l375 -440l-375 -441h-217l366 439zM575 1157h218l374 -440l-374 -441h-218l367 439z" />
    <glyph glyph-name="guilsinglleft.case" horiz-adv-x="851" 
d="M481 1157h217l-366 -438l366 -443h-217l-375 441z" />
    <glyph glyph-name="guilsinglright.case" horiz-adv-x="851" 
d="M154 1157h217l374 -440l-374 -441h-219l368 441z" />
    <glyph glyph-name="space.tf" 
 />
    <glyph glyph-name="uni20BF.tf" 
d="M1440 389q0 -166 -117.5 -272t-292.5 -117v-246h-158v246h-258v-246h-157v246h-267v1434h267v245h157v-245h258v245h158v-247q167 -18 271 -118.5t104 -258.5q0 -117 -64.5 -203.5t-158.5 -122.5q111 -26 184.5 -115.5t73.5 -224.5zM942 1262h-561v-449h561
q127 0 198.5 59.5t71.5 167.5q0 103 -72 162.5t-198 59.5zM381 172h575q135 0 213 63.5t78 176.5q0 108 -78 168.5t-213 60.5h-575v-469z" />
    <glyph glyph-name="cent.tf" 
d="M1083 334h189q-28 -161 -162.5 -257.5t-339.5 -96.5q-29 0 -43 2l-45 -228h-162l49 250q-178 50 -271 184t-93 324q0 112 38 209t109 169t178.5 113t239.5 41h4l45 226h162l-47 -244q142 -31 231.5 -119t104.5 -217h-189q-13 67 -60 113t-118 67l-145 -731h24
q116 0 197 55t104 140zM387 512q0 -117 55 -211t160 -135l141 721q-87 -2 -156 -33t-112 -82.5t-65.5 -117.5t-22.5 -142z" />
    <glyph glyph-name="currency.tf" 
d="M1253 682q0 -148 -84 -272l170 -164l-102 -105l-170 162q-141 -110 -334 -110q-187 0 -327 108l-166 -160l-103 105l166 160q-88 125 -88 276q0 144 82 266l-160 160l103 102l161 -155q140 106 332 106q197 0 338 -110l166 159l102 -102l-165 -166q79 -115 79 -260z
M733 338h10q148 0 247.5 96.5t99.5 247.5q0 146 -99.5 239t-247.5 93h-18q-149 0 -248.5 -92t-99.5 -240q0 -150 103.5 -247t252.5 -97z" />
    <glyph glyph-name="dollar.tf" 
d="M834 807l26 -4q426 -76 426 -406q0 -199 -138.5 -308t-397.5 -109q-49 0 -72 2l-43 -228h-150l47 248q-184 40 -284 155t-103 300h185q3 -110 64.5 -182.5t170.5 -102.5l88 471l-35 6q-213 37 -307 128t-94 274q0 79 31 149t92 128t164 92t235 34q45 0 68 -2l43 227h149
l-47 -252q160 -41 253 -149.5t108 -269.5h-185q-24 189 -208 249zM653 840l37 -6l84 448h-20h-29q-157 0 -246.5 -63.5t-89.5 -163.5q0 -91 63.5 -141t200.5 -74zM733 152h29q180 0 266 62t86 171q0 88 -69.5 143t-225.5 84l-20 4l-88 -464h22z" />
    <glyph glyph-name="Euro.tf" 
d="M821 143h21q142 0 223 73t96 210h189q-20 -211 -155.5 -328.5t-360.5 -117.5q-187 0 -317.5 98.5t-192.5 283.5l-213 -43v160l176 37q-15 107 -15 184l-161 -32v159l170 35q29 280 173 436t380 156q225 0 360.5 -117.5t155.5 -328.5h-189q-15 137 -96 209.5t-223 72.5
h-21q-143 0 -231.5 -101t-118.5 -288l463 96v-159l-475 -99v-22q0 -79 10 -164l379 78v-160l-344 -72q86 -256 317 -256z" />
    <glyph glyph-name="florin.tf" 
d="M1188 1270h-144q-55 0 -91 -12t-59 -40.5t-35.5 -66t-22.5 -98.5l-21 -127h315v-162h-339l-123 -791q-33 -207 -118 -295t-265 -88h-160v164h143q109 0 152 48t61 169l125 793h-256v162h281l20 125q33 209 117 296t262 87h158v-164z" />
    <glyph glyph-name="sterling.tf" 
d="M516 164h805v-164h-1145v164h96q72 0 108.5 39t45.5 116l27 263l-273 -58v166l291 62l27 252q23 216 120.5 323t301.5 107h301v-164h-303q-62 0 -106 -18.5t-70.5 -56.5t-40.5 -85.5t-21 -116.5l-23 -202l312 65v-166l-328 -69l-31 -283q-7 -65 -29 -104.5t-65 -69.5z
" />
    <glyph glyph-name="uni20A9.tf" 
d="M1270 1434h196l-118 -650h116v-141h-141l-117 -643h-268l-111 643h-182l-115 -643h-268l-112 643h-140v141h115l-113 650h197l106 -650h189l117 650h245l115 -650h186zM737 1169l-67 -385h133zM338 643l65 -405l74 405h-139zM1006 643l71 -412l68 412h-139z" />
    <glyph glyph-name="yen.tf" 
d="M1210 1434h232l-447 -607l244 50v-160l-383 -78l-22 -31v-147l344 67v-159l-344 -68v-301h-191v264l-350 -69v159l350 70v172l-412 -82v160l318 63l-514 697h237l471 -650z" />
    <glyph glyph-name="plus.case" horiz-adv-x="1282" 
d="M733 221h-184v414h-449v166h449v413h184v-413h449v-166h-449v-414z" />
    <glyph glyph-name="minus.case" horiz-adv-x="1402" 
d="M1241 635h-1079v168h1079v-168z" />
    <glyph glyph-name="multiply.case" horiz-adv-x="1339" 
d="M1040 1151l111 -125l-354 -307l352 -307l-109 -125l-368 321l-373 -323l-109 127l353 307l-353 307l111 125l369 -322z" />
    <glyph glyph-name="divide.case" horiz-adv-x="1372" 
d="M795 954h-213v217h213v-217zM1227 635h-1080v166h1080v-166zM795 264h-213v217h213v-217z" />
    <glyph glyph-name="equal.case" horiz-adv-x="1443" 
d="M1282 821h-1120v166h1120v-166zM1282 449h-1120v163h1120v-163z" />
    <glyph glyph-name="notequal.case" horiz-adv-x="1456" 
d="M1288 987v-166h-432l-78 -209h510v-163h-571l-86 -228h-182l86 228h-367v163h428l78 209h-506v166h567l86 227h183l-86 -227h370z" />
    <glyph glyph-name="greater.case" horiz-adv-x="1255" 
d="M176 952v197l979 -361v-147l-979 -360v184l713 246z" />
    <glyph glyph-name="less.case" horiz-adv-x="1253" 
d="M98 791l979 360v-184l-712 -246l712 -242v-196l-979 360v148z" />
    <glyph glyph-name="greaterequal.case" horiz-adv-x="1478" 
d="M188 1055v186l1121 -295v-194l-1121 -295v174l852 213zM1309 225h-1121v164h1121v-164z" />
    <glyph glyph-name="lessequal.case" horiz-adv-x="1478" 
d="M170 946l1120 295v-174l-852 -213l852 -213v-184l-1120 295v194zM1290 225h-1120v164h1120v-164z" />
    <glyph glyph-name="plusminus.case" horiz-adv-x="1443" 
d="M813 512h-182v264h-449v164h449v274h182v-274h449v-164h-449v-264zM1262 190h-1080v164h1080v-164z" />
    </font>
</defs>
</svg>
