<?xml version="1.0" standalone="no"?>
<!DOCTYPE svg PUBLIC "-//W3C//DTD SVG 1.1//EN" "http://www.w3.org/Graphics/SVG/1.1/DTD/svg11.dtd" >
<svg xmlns="http://www.w3.org/2000/svg" xmlns:xlink="http://www.w3.org/1999/xlink" version="1.1">
<metadata>
Created by FontForge 20170731 at Wed Jul  6 13:55:22 2022
 By Aleksey,,,
Copyright 2020 Dinamo (Johannes Breyer, Fabian Harb). All rights reserved.
</metadata>
<defs>
<font id="ABCFavoritExtended-Light" horiz-adv-x="1474" >
  <font-face 
    font-family="ABC Favorit Extended Light"
    font-weight="300"
    font-stretch="semi-expanded"
    units-per-em="2048"
    panose-1="2 11 3 5 3 2 2 6 2 3"
    ascent="1638"
    descent="-410"
    x-height="1024"
    cap-height="1434"
    bbox="-369 -512 5028 1911"
    underline-thickness="102"
    underline-position="-307"
    unicode-range="U+0020-FB02"
  />
<missing-glyph horiz-adv-x="1454" 
d="M1290 0h-1126v1434h1126v-1434zM266 1327v-1221h922v1221h-922z" />
    <glyph glyph-name="fi" unicode="fi" horiz-adv-x="1269" 
d="M471 0h-139v907h-289v117h289v186q0 105 58.5 164.5t152.5 59.5h227v-117h-184q-63 0 -89 -33t-26 -110v-150h621v-1024h-140v907h-481v-907zM1100 1208h-160v174h160v-174z" />
    <glyph glyph-name="fl" unicode="fl" horiz-adv-x="1269" 
d="M471 0h-139v907h-289v117h289v186q0 105 58.5 164.5t152.5 59.5h549v-1434h-140v1317h-366q-63 0 -89 -33t-26 -110v-150h299v-117h-299v-907z" />
    <glyph glyph-name="f_f" unicode="ff" horiz-adv-x="1581" 
d="M471 0h-139v907h-289v117h289v186q0 105 58.5 164.5t152.5 59.5h309v-117h-266q-63 0 -89 -33t-26 -110v-150h604v186q0 105 58.5 164.5t152.5 59.5h309v-117h-266q-63 0 -89 -33t-26 -110v-150h320v-117h-320v-907h-139v907h-604v-907z" />
    <glyph glyph-name="f_f_i" unicode="ffi" horiz-adv-x="2095" 
d="M471 0h-139v907h-289v117h289v186q0 105 58.5 164.5t152.5 59.5h309v-117h-266q-63 0 -89 -33t-26 -110v-150h584v186q0 105 58.5 164.5t152.5 59.5h309v-117h-266q-63 0 -89 -33t-26 -110v-150h723v-1024h-139v907h-584v-907h-139v907h-584v-907zM1925 1208h-160v174
h160v-174z" />
    <glyph glyph-name="f_f_l" unicode="ffl" horiz-adv-x="2095" 
d="M471 0h-139v907h-289v117h289v186q0 105 58.5 164.5t152.5 59.5h309v-117h-266q-63 0 -89 -33t-26 -110v-150h584v186q0 105 58.5 164.5t152.5 59.5h651v-1434h-139v1317h-469q-63 0 -89 -33t-26 -110v-150h319v-117h-319v-907h-139v907h-584v-907z" />
    <glyph glyph-name="w_w_w.liga" unicode="www" horiz-adv-x="4841" 
d="M4368 143l310 881h149l-383 -1024h-166l-303 850l-305 -850h-164l-307 823l-309 -823h-166l-303 850l-305 -850h-164l-307 823l-310 -823h-166l-303 850l-305 -850h-164l-383 1024h150l321 -866l312 866h137l326 -881l309 881h149l322 -866l311 866h137l326 -881l309 881
h150l321 -866l312 866h137z" />
    <glyph glyph-name=".notdef" horiz-adv-x="1454" 
d="M1290 0h-1126v1434h1126v-1434zM266 1327v-1221h922v1221h-922z" />
    <glyph glyph-name=".null" horiz-adv-x="0" 
 />
    <glyph glyph-name="nonmarkingreturn" horiz-adv-x="682" 
 />
    <glyph glyph-name="space" unicode=" " horiz-adv-x="569" 
 />
    <glyph glyph-name="exclam" unicode="!" horiz-adv-x="528" 
d="M295 420h-62l-40 584v430h143v-430zM352 0h-178v184h178v-184z" />
    <glyph glyph-name="quotedbl" unicode="&#x22;" horiz-adv-x="739" 
d="M225 1004h-45l-39 266v164h133v-164zM551 1004h-45l-39 266v164h133v-164z" />
    <glyph glyph-name="numbersign" unicode="#" horiz-adv-x="1603" 
d="M1509 1047v-117h-284l-107 -426h305v-117h-336l-96 -387h-141l96 387h-457l-100 -387h-141l100 387h-254v117h283l110 426h-305v117h334l100 387h142l-101 -387h455l96 387h142l-97 -387h256zM518 504h459l106 426h-454z" />
    <glyph glyph-name="dollar" unicode="$" horiz-adv-x="1460" 
d="M813 793l55 -9q232 -37 346.5 -134.5t114.5 -264.5q0 -190 -151.5 -297.5t-432.5 -107.5q-36 0 -102 4l-49 -230h-139l51 248q-198 40 -306.5 153.5t-111.5 295.5h164q4 -122 77.5 -201.5t205.5 -112.5l110 522l-45 9q-229 38 -330.5 125t-101.5 260q0 78 34 148.5
t100.5 128t178 91t254.5 33.5q51 0 78 -2l47 227h139l-51 -245q182 -39 287.5 -148.5t122.5 -271.5h-164q-15 109 -85.5 182t-188.5 102zM639 821l39 -6l106 502h-32h-33q-186 0 -293 -73.5t-107 -186.5q0 -100 76.5 -154.5t243.5 -81.5zM727 117h33q214 0 316 70t102 192
q0 100 -83.5 161t-271.5 91l-43 6l-110 -518q18 -2 57 -2z" />
    <glyph glyph-name="percent" unicode="%" horiz-adv-x="1957" 
d="M459 614q-173 0 -275 113t-102 301t102.5 302t274.5 114t272 -113.5t100 -302.5t-100 -301.5t-272 -112.5zM547 0h-139l1019 1434h140zM455 717h8q80 0 136.5 46.5t81 115t24.5 149.5t-24.5 150t-81 116t-136.5 47h-8q-80 0 -137 -47t-82 -116t-25 -150t25 -149.5
t82 -115t137 -46.5zM1501 -10q-173 0 -275 112.5t-102 300.5t102.5 302t274.5 114t272.5 -113.5t100.5 -302.5t-100.5 -301t-272.5 -112zM1497 92h8q80 0 136.5 46.5t81 115t24.5 149.5t-24.5 150t-81 116.5t-136.5 47.5h-8q-80 0 -137 -47.5t-82 -116.5t-25 -150t25 -149.5
t82 -115t137 -46.5z" />
    <glyph glyph-name="ampersand" unicode="&#x26;" horiz-adv-x="1509" 
d="M1171 0h-651q-167 0 -278 102.5t-111 276.5q0 124 63.5 217.5t172.5 130.5q-103 42 -164.5 128.5t-61.5 209.5q0 169 115 269t283 100h313v-138h-299q-113 0 -188.5 -66.5t-75.5 -185.5q0 -113 77.5 -180t198.5 -67h461v256h145v-256h277v-138h-277v-659zM567 137h459
v522h-461q-129 0 -207.5 -65t-78.5 -184q0 -133 78 -203t210 -70z" />
    <glyph glyph-name="quotesingle" unicode="'" horiz-adv-x="413" 
d="M225 1004h-45l-39 266v164h133v-164z" />
    <glyph glyph-name="parenleft" unicode="(" horiz-adv-x="829" 
d="M778 -180v-117q-197 11 -348.5 142.5t-234 358t-82.5 513.5q0 285 83 511t234.5 358.5t347.5 144.5v-117q-239 -22 -385.5 -269t-146.5 -628q0 -251 66 -449.5t187 -315t279 -132.5z" />
    <glyph glyph-name="parenright" unicode=")" horiz-adv-x="829" 
d="M51 1614v117q197 -11 348.5 -142.5t234.5 -358t83 -513.5q0 -213 -48.5 -397t-135.5 -316.5t-211 -212t-271 -88.5v117q239 22 386 269t147 628q0 251 -66.5 449.5t-187.5 315t-279 132.5z" />
    <glyph glyph-name="asterisk" unicode="*" horiz-adv-x="952" 
d="M475 1106l-149 -213l-84 59l135 193h-256v102h256l-135 193l86 59l149 -213l150 213l84 -59l-136 -193h256v-102h-256l136 -193l-86 -59z" />
    <glyph glyph-name="plus" unicode="+" horiz-adv-x="1259" 
d="M698 31h-137v428h-459v137h459v428h137v-428h459v-137h-459v-428z" />
    <glyph glyph-name="comma" unicode="," horiz-adv-x="534" 
d="M182 -236h-82v91h78q98 0 98 98v47h-114v205h215v-246q0 -93 -51 -144t-144 -51z" />
    <glyph glyph-name="hyphen" unicode="-" horiz-adv-x="905" 
d="M750 563h-594v113h594v-113z" />
    <glyph glyph-name="period" unicode="." horiz-adv-x="512" 
d="M358 0h-204v205h204v-205z" />
    <glyph glyph-name="slash" unicode="/" horiz-adv-x="966" 
d="M225 0h-147l661 1434h148z" />
    <glyph glyph-name="zero" unicode="0" horiz-adv-x="1525" 
d="M762 -20q-134 0 -247 45.5t-200 134t-136.5 231.5t-49.5 326t49.5 326t137 231.5t200.5 134t246 45.5q134 0 247.5 -45.5t201 -134t137 -231.5t49.5 -326t-49.5 -326t-137 -231.5t-201 -134t-247.5 -45.5zM748 117h28q66 0 128.5 16t126.5 59t111 108t77 172.5t30 244.5
t-30 244.5t-77 172.5t-111 107t-126.5 57.5t-128.5 14.5h-28q-65 1 -127.5 -14.5t-126 -57.5t-111 -107t-77.5 -172.5t-30 -244.5t30 -244.5t77.5 -172.5t111.5 -108t125.5 -59t127.5 -16z" />
    <glyph glyph-name="one" unicode="1" horiz-adv-x="856" 
d="M63 1055l451 379h119v-1434h-139v1251l-431 -356v160z" />
    <glyph glyph-name="two" unicode="2" horiz-adv-x="1325" 
d="M881 612l-605 -473h924v-139h-1077v197l655 512q76 59 113 90.5t78 76.5t57 88t16 95q0 118 -102 188t-260 70h-29q-160 0 -257.5 -86.5t-102.5 -214.5h-154q6 195 155 316.5t374 121.5q151 0 269 -46t186.5 -135.5t68.5 -209.5q0 -58 -16 -110.5t-39.5 -93t-67.5 -86
t-83 -78.5t-103 -83z" />
    <glyph glyph-name="three" unicode="3" horiz-adv-x="1380" 
d="M686 -20q-246 0 -402 104.5t-165 280.5h153q20 -118 130.5 -183t265.5 -65h28q177 0 287.5 75.5t110.5 198.5q0 121 -101 189.5t-282 68.5h-185v137h185q178 0 275 76t97 195q0 123 -103.5 191.5t-283.5 68.5h-28q-147 0 -251 -72.5t-118 -179.5h-154q5 167 155 278
t386 111q249 0 397 -107.5t148 -283.5q0 -69 -22 -127t-60 -98.5t-79.5 -68t-90.5 -46.5q110 -32 186 -116t76 -208q0 -195 -151 -307t-404 -112z" />
    <glyph glyph-name="four" unicode="4" horiz-adv-x="1415" 
d="M1053 1434v-957h290v-135h-290v-342h-140v342h-847v168l811 924h176zM913 1284l-710 -807h710v807z" />
    <glyph glyph-name="five" unicode="5" horiz-adv-x="1327" 
d="M696 893q221 0 365.5 -122t144.5 -316q0 -216 -151.5 -345.5t-403.5 -129.5q-232 0 -382.5 101t-176.5 288h154q30 -120 137 -186t254 -66h29q183 0 288 91.5t105 240.5q0 138 -106 222.5t-277 84.5h-29q-105 0 -202.5 -40.5t-149.5 -121.5h-152l174 840h852v-142h-753
l-109 -532q136 133 389 133z" />
    <glyph glyph-name="six" unicode="6" horiz-adv-x="1439" 
d="M754 944q147 0 269 -53.5t198.5 -163t76.5 -256.5q0 -226 -158 -358.5t-417 -132.5q-280 0 -437 165t-157 504q0 228 85 411.5t239 288.5t348 105q217 0 358 -96.5t164 -261.5h-154q-21 88 -114.5 154.5t-239.5 66.5h-29q-218 0 -363.5 -166t-164.5 -436q64 111 197 170
t299 59zM713 117h28q82 0 154.5 22t129.5 63.5t90.5 108.5t33.5 150q0 110 -58 190.5t-149 118t-201 37.5h-28q-83 0 -157 -22t-133 -63.5t-93.5 -108.5t-34.5 -150q0 -110 59 -190.5t152 -118t207 -37.5z" />
    <glyph glyph-name="seven" unicode="7" horiz-adv-x="1234" 
d="M51 1292v142h1116v-158q-332 -170 -494.5 -469.5t-162.5 -765.5v-41h-148v59q0 437 165.5 755.5t443.5 477.5h-920z" />
    <glyph glyph-name="eight" unicode="8" horiz-adv-x="1347" 
d="M674 -20q-219 0 -358.5 108t-139.5 283q0 117 72 205t162 120q-49 12 -96.5 39.5t-90.5 70t-69.5 105.5t-26.5 136q0 178 153 292.5t394 114.5q242 0 394.5 -113t152.5 -294q0 -73 -26.5 -136t-69.5 -105.5t-90.5 -70t-96.5 -39.5q89 -32 161 -119.5t72 -205.5
q0 -175 -139 -283t-358 -108zM659 772h29q180 0 282.5 68t102.5 198q0 131 -103.5 205t-281.5 74h-29q-178 0 -281.5 -74t-103.5 -205q0 -130 102 -198t283 -68zM659 117h29q153 0 244.5 71.5t91.5 190.5q0 118 -91 188t-245 70h-29q-154 0 -244.5 -70t-90.5 -188
q0 -119 91 -190.5t244 -71.5z" />
    <glyph glyph-name="nine" unicode="9" horiz-adv-x="1441" 
d="M719 1454q280 0 437 -165.5t157 -504.5q0 -227 -85 -410.5t-239 -288.5t-348 -105q-217 0 -358 96.5t-164 261.5h153q21 -88 115 -154.5t240 -66.5h28q218 0 364 166t165 436q-64 -111 -197 -170.5t-299 -59.5q-109 0 -207 31.5t-173.5 90.5t-120 150t-44.5 202
q0 226 158.5 358.5t417.5 132.5zM700 627h29q83 0 157 22t133 63.5t93.5 108.5t34.5 150q0 110 -59 190.5t-152 118t-207 37.5h-29q-82 0 -154.5 -22t-129.5 -63.5t-90 -108.5t-33 -150t33 -150t90 -109t129.5 -64.5t154.5 -22.5z" />
    <glyph glyph-name="colon" unicode=":" horiz-adv-x="512" 
d="M358 819h-204v205h204v-205zM358 0h-204v205h204v-205z" />
    <glyph glyph-name="semicolon" unicode=";" horiz-adv-x="602" 
d="M420 819h-205v205h205v-205zM225 -236h-82v91h78q98 0 98 98v47h-114v205h215v-246q0 -93 -51 -144t-144 -51z" />
    <glyph glyph-name="less" unicode="&#x3c;" horiz-adv-x="1216" 
d="M102 584l953 362v-153l-736 -263l736 -264v-160l-953 363v115z" />
    <glyph glyph-name="equal" unicode="=" horiz-adv-x="1421" 
d="M1257 645h-1093v137h1093v-137zM1257 270h-1093v138h1093v-138z" />
    <glyph glyph-name="greater" unicode="&#x3e;" horiz-adv-x="1216" 
d="M162 784v160l952 -362v-115l-952 -363v154l735 264z" />
    <glyph glyph-name="question" unicode="?" horiz-adv-x="1091" 
d="M428 420h-133v260q0 92 36 128t128 36h172q111 0 174 67.5t63 165.5q0 96 -69.5 159.5t-188.5 63.5h-520v134h549q155 0 262 -101.5t107 -253.5q0 -165 -104.5 -266.5t-274.5 -101.5h-131q-42 0 -56 -18t-14 -52v-221zM451 0h-179v184h179v-184z" />
    <glyph glyph-name="at" unicode="@" horiz-adv-x="2146" 
d="M1663 -256h-563q-172 0 -321 35t-271 107.5t-209 177.5t-134.5 250.5t-47.5 320.5q0 159 51 297.5t141.5 240.5t212 175t265 110t298.5 37q266 0 479 -96.5t335 -272.5t122 -401q0 -110 -32 -201.5t-83 -151t-117 -100.5t-131.5 -59t-129.5 -18h-152v157
q-30 -71 -121 -124.5t-211 -53.5q-189 0 -314.5 119.5t-125.5 320.5q0 200 125.5 315t314.5 115q119 0 203.5 -46t128.5 -117v143h127v-713h19q30 0 60 4t67 15.5t69 30.5t63.5 51t53.5 74t35.5 103.5t13.5 135.5q0 145 -58.5 267.5t-163 207t-253 131.5t-324.5 47
q-237 0 -425 -89.5t-297 -259.5t-109 -394q0 -364 229.5 -569t626.5 -205h553v-117zM1047 291h16q130 0 221.5 89t91.5 234q0 149 -93 231.5t-220 82.5h-16q-131 0 -218.5 -81.5t-87.5 -232.5q0 -147 86 -235t220 -88z" />
    <glyph glyph-name="A" unicode="A" horiz-adv-x="1591" 
d="M1581 0h-162l-190 393h-873l-190 -393h-156l701 1434h172zM793 1292l-369 -762h737z" />
    <glyph glyph-name="B" unicode="B" horiz-adv-x="1576" 
d="M995 0h-778v1434h754q190 0 311 -105t121 -274q0 -114 -62.5 -200.5t-150.5 -125.5q101 -25 174.5 -115.5t73.5 -224.5q0 -116 -61 -205.5t-161 -136.5t-221 -47zM367 1296v-501h573q148 0 229.5 67t81.5 193q0 110 -83 175.5t-228 65.5h-573zM367 657v-520h587
q151 0 241.5 72t90.5 188q0 122 -89.5 191t-242.5 69h-587z" />
    <glyph glyph-name="C" unicode="C" horiz-adv-x="1650" 
d="M874 -20q-174 0 -317 55t-238.5 153t-147.5 233.5t-52 295.5q0 157 53.5 292.5t150 234t239 154.5t312.5 56q145 0 266 -37t203.5 -101t133.5 -146.5t65 -176.5h-164q-33 153 -166.5 238.5t-320.5 85.5h-33q-181 0 -316 -80.5t-203.5 -215.5t-68.5 -304t68.5 -304
t203.5 -215.5t316 -80.5h33q188 0 320.5 83.5t166.5 239.5h164q-31 -206 -210 -333t-458 -127z" />
    <glyph glyph-name="D" unicode="D" horiz-adv-x="1693" 
d="M842 0h-625v1434h625q338 0 533.5 -190t195.5 -527t-195.5 -527t-533.5 -190zM367 1296v-1159h454q280 0 439 149.5t159 430.5t-159 430t-439 149h-454z" />
    <glyph glyph-name="E" unicode="E" horiz-adv-x="1531" 
d="M367 668v-531h1056v-137h-1206v1434h1186v-138h-1036v-491h913v-137h-913z" />
    <glyph glyph-name="F" unicode="F" horiz-adv-x="1429" 
d="M367 0h-150v1434h1145v-138h-995v-532h880v-137h-880v-627z" />
    <glyph glyph-name="G" unicode="G" horiz-adv-x="1738" 
d="M889 -20q-356 0 -563 203t-207 534q0 161 53.5 296.5t151.5 233t244 152.5t323 55q314 0 492 -134t194 -347h-164q-6 49 -24.5 95t-57.5 92.5t-94 80.5t-140.5 55t-189.5 21h-33q-275 0 -439.5 -159t-164.5 -441q0 -281 165.5 -440.5t438.5 -159.5h33q130 0 236.5 31.5
t175 85.5t105 124t36.5 148v61h-563v138h547q75 0 114 -38t39 -112v-555h-137v209q-26 -37 -69.5 -73t-111.5 -73t-170 -60t-220 -23z" />
    <glyph glyph-name="H" unicode="H" horiz-adv-x="1734" 
d="M367 0h-150v1434h150v-648h1001v648h150v-1434h-150v649h-1001v-649z" />
    <glyph glyph-name="I" unicode="I" horiz-adv-x="583" 
d="M367 0h-150v1434h150v-1434z" />
    <glyph glyph-name="J" unicode="J" horiz-adv-x="940" 
d="M397 0h-340v137h303q122 0 174 52t52 173v1072h149v-1096q0 -168 -90 -253t-248 -85z" />
    <glyph glyph-name="K" unicode="K" horiz-adv-x="1581" 
d="M1571 0h-207l-659 727l-338 -289v-438h-150v1434h150v-816l952 816h219l-717 -611z" />
    <glyph glyph-name="L" unicode="L" horiz-adv-x="1413" 
d="M1378 0h-1161v1434h150v-1297h1011v-137z" />
    <glyph glyph-name="M" unicode="M" horiz-adv-x="2123" 
d="M1063 131l594 1303h250v-1434h-150v1319l-600 -1319h-192l-598 1313v-1313h-150v1434h252z" />
    <glyph glyph-name="N" unicode="N" horiz-adv-x="1728" 
d="M1362 201v1233h149v-1434h-188l-956 1233v-1233h-150v1434h189z" />
    <glyph glyph-name="O" unicode="O" horiz-adv-x="1779" 
d="M891 -20q-221 0 -395 87.5t-275.5 256.5t-101.5 393t101.5 393t275.5 256.5t395 87.5t394.5 -87.5t274.5 -256.5t101 -393t-101 -393t-274.5 -256.5t-394.5 -87.5zM874 117h33q124 0 233 41t191 115.5t130 189.5t48 254t-48 254t-130 189.5t-191 115.5t-233 41h-33
q-124 0 -233 -41t-192 -115.5t-131 -189.5t-48 -254t48 -254t131 -189.5t192 -115.5t233 -41z" />
    <glyph glyph-name="P" unicode="P" horiz-adv-x="1499" 
d="M367 0h-150v1434h719q214 0 348.5 -113t134.5 -309q0 -199 -134 -311.5t-349 -112.5h-569v-588zM367 1296v-571h538q178 0 270.5 73.5t92.5 213.5q0 138 -92.5 211t-270.5 73h-538z" />
    <glyph glyph-name="Q" unicode="Q" horiz-adv-x="1779" 
d="M1440 -358h-453q-74 0 -126 47t-52 116v181q-150 15 -276.5 72.5t-218.5 149.5t-143.5 223t-51.5 286q0 224 101.5 393t275.5 256.5t395 87.5t394.5 -87.5t274.5 -256.5t101 -393q0 -158 -52.5 -290t-146 -224.5t-222.5 -149t-282 -69.5v-101q0 -59 24 -81.5t85 -22.5
h373v-137zM874 117h33q124 0 233 41t191 115.5t130 189.5t48 254t-48 254t-130 189.5t-191 115.5t-233 41h-33q-124 0 -233 -41t-192 -115.5t-131 -189.5t-48 -254t48 -254t131 -189.5t192 -115.5t233 -41z" />
    <glyph glyph-name="R" unicode="R" horiz-adv-x="1601" 
d="M367 0h-150v1434h758q196 0 322 -111t126 -281q0 -131 -65 -224t-162 -126q85 0 142 -56t57 -155v-481h-150v430q0 98 -38.5 133t-145.5 35h-694v-598zM367 1296v-561h577q153 0 240.5 78t87.5 209q0 130 -86.5 202t-241.5 72h-577z" />
    <glyph glyph-name="S" unicode="S" 
d="M750 -20q-308 0 -481 120t-177 351h164q6 -163 131.5 -248.5t343.5 -85.5h33q214 0 316 70t102 192q0 100 -83.5 161t-271.5 91l-223 37q-229 38 -330.5 125t-101.5 260q0 78 34 148.5t100.5 128t178 91t254.5 33.5q277 0 439 -117t184 -323h-164q-20 145 -136 224
t-306 79h-33q-186 0 -292.5 -73.5t-106.5 -186.5q0 -100 76 -154.5t243 -81.5l229 -37q232 -37 346.5 -134.5t114.5 -264.5q0 -190 -151 -297.5t-432 -107.5z" />
    <glyph glyph-name="T" unicode="T" horiz-adv-x="1423" 
d="M786 0h-149v1296h-604v138h1358v-138h-605v-1296z" />
    <glyph glyph-name="U" unicode="U" horiz-adv-x="1617" 
d="M809 -20q-301 0 -455.5 155t-154.5 430v869h149v-852q0 -227 114 -346t331 -119h32q217 0 331 119t114 346v852h149v-869q0 -273 -157.5 -429t-452.5 -156z" />
    <glyph glyph-name="V" unicode="V" horiz-adv-x="1605" 
d="M807 133l616 1301h172l-690 -1434h-203l-692 1434h176z" />
    <glyph glyph-name="W" unicode="W" horiz-adv-x="2127" 
d="M1552 127l383 1307h156l-434 -1434h-223l-369 1266l-379 -1266h-223l-420 1434h156l383 -1297l391 1297h198z" />
    <glyph glyph-name="X" unicode="X" horiz-adv-x="1478" 
d="M838 735l614 -735h-199l-514 616l-520 -616h-194l616 731l-586 703h199l487 -584l492 584h194z" />
    <glyph glyph-name="Y" unicode="Y" horiz-adv-x="1427" 
d="M717 762l495 672h191l-615 -820v-614h-149v614l-614 820h192z" />
    <glyph glyph-name="Z" unicode="Z" horiz-adv-x="1394" 
d="M1286 1303l-991 -1166h1012v-137h-1219v131l991 1165h-970v138h1177v-131z" />
    <glyph glyph-name="bracketleft" unicode="[" horiz-adv-x="757" 
d="M700 -297h-497v2028h497v-117h-364v-1794h364v-117z" />
    <glyph glyph-name="backslash" unicode="\" horiz-adv-x="972" 
d="M895 0h-154l-661 1434h153z" />
    <glyph glyph-name="bracketright" unicode="]" horiz-adv-x="757" 
d="M57 1731h498v-2028h-498v117h365v1794h-365v117z" />
    <glyph glyph-name="asciicircum" unicode="^" horiz-adv-x="1208" 
d="M686 1434l428 -850h-143l-369 723l-366 -723h-140l424 850h166z" />
    <glyph glyph-name="underscore" unicode="_" horiz-adv-x="1331" 
d="M1188 -117h-1045v117h1045v-117z" />
    <glyph glyph-name="grave" unicode="`" horiz-adv-x="440" 
d="M387 1167h-111l-221 267h174z" />
    <glyph glyph-name="a" unicode="a" horiz-adv-x="1224" 
d="M494 -20q-188 0 -290 84t-102 221q0 76 29.5 134t83 94t121 56t151.5 25l431 24v41q0 129 -83.5 199t-232.5 70h-33q-119 0 -200.5 -52t-94.5 -139h-143q15 134 141 220.5t314 86.5q225 0 348 -106.5t123 -282.5v-430q0 -99 14 -225h-129q-14 71 -14 166
q-48 -78 -163 -132t-271 -54zM508 96h29q92 0 177.5 36t144.5 110.5t59 171.5v90l-365 -19q-166 -10 -237.5 -57.5t-71.5 -134.5q0 -92 64.5 -144.5t199.5 -52.5z" />
    <glyph glyph-name="b" unicode="b" horiz-adv-x="1394" 
d="M748 -20q-138 0 -251.5 48t-179.5 136v-164h-139v1434h139v-578q58 84 170 136t265 52q237 0 385.5 -139t148.5 -393q0 -163 -70 -284.5t-191 -184.5t-277 -63zM725 96h29q176 0 283.5 109.5t107.5 306.5t-107.5 306.5t-283.5 109.5h-29q-178 0 -293 -110.5t-115 -305.5
t115 -305.5t293 -110.5z" />
    <glyph glyph-name="c" unicode="c" horiz-adv-x="1247" 
d="M655 -20q-260 0 -404.5 146t-144.5 386q0 229 150.5 380.5t398.5 151.5q202 0 335 -94t155 -254h-144q-21 109 -110.5 170.5t-220.5 61.5h-29q-96 0 -172.5 -34t-123.5 -92t-72 -132t-25 -158t25 -158t72 -132t123.5 -92t172.5 -34h29q126 0 216.5 65.5t114.5 166.5h144
q-22 -153 -156.5 -250.5t-333.5 -97.5z" />
    <glyph glyph-name="d" unicode="d" horiz-adv-x="1394" 
d="M647 -20q-156 0 -277 63t-191 184.5t-70 284.5q0 255 150 393.5t394 138.5q279 0 424 -188v578h140v-1434h-140v164q-66 -88 -179 -136t-251 -48zM641 96h29q178 0 292.5 110.5t114.5 305.5t-114.5 305.5t-292.5 110.5h-29q-176 0 -283.5 -109.5t-107.5 -306.5
t107.5 -306.5t283.5 -109.5z" />
    <glyph glyph-name="e" unicode="e" horiz-adv-x="1249" 
d="M1141 551v-55h-893q4 -98 39 -176.5t90 -126t121.5 -72.5t138.5 -25h29q111 0 200.5 55t118.5 142h143q-29 -143 -158.5 -228t-316.5 -85q-116 0 -214.5 34.5t-172.5 100.5t-115.5 170t-41.5 235q0 101 29 187t79.5 147.5t118.5 104.5t146.5 64t162.5 21
q224 0 360 -135.5t136 -357.5zM254 612h737q-6 149 -101 232.5t-231 83.5h-28q-156 0 -254.5 -85.5t-122.5 -230.5z" />
    <glyph glyph-name="f" unicode="f" horiz-adv-x="837" 
d="M471 0h-139v907h-289v117h289v186q0 105 58.5 164.5t152.5 59.5h309v-117h-266q-63 0 -89 -33t-26 -110v-150h320v-117h-320v-907z" />
    <glyph glyph-name="g" unicode="g" horiz-adv-x="1366" 
d="M621 -451q-240 0 -381 85t-160 223h147q26 -92 126 -141.5t253 -49.5h29q182 0 298 97.5t116 281.5v150q-60 -81 -164.5 -138t-255.5 -57q-115 0 -208.5 31t-164 93.5t-109 163.5t-38.5 234q0 129 45 231.5t120.5 164.5t167.5 94t193 32q71 0 134.5 -14t104.5 -33
t79.5 -48t56.5 -47.5t39 -43.5v166h139v-995q0 -100 -35.5 -186.5t-104.5 -152.5t-178.5 -103.5t-248.5 -37.5zM625 117h28q74 0 145 28t127 78.5t90 128.5t34 170q0 122 -55 216.5t-142 142t-188 47.5h-29q-79 0 -147 -23.5t-122 -70.5t-85 -127t-31 -185t29.5 -184.5
t81.5 -127t118.5 -70.5t145.5 -23z" />
    <glyph glyph-name="h" unicode="h" horiz-adv-x="1333" 
d="M317 0h-139v1434h139v-588q141 198 422 198q200 0 315 -117t115 -304v-623h-139v573q0 165 -74.5 260t-224.5 95h-29q-155 0 -270 -116t-115 -296v-516z" />
    <glyph glyph-name="i" unicode="i" horiz-adv-x="495" 
d="M326 1208h-160v174h160v-174zM317 0h-139v1024h139v-1024z" />
    <glyph glyph-name="j" unicode="j" horiz-adv-x="516" 
d="M348 1208h-160v174h160v-174zM129 -338h-393v117h340q69 0 96 26.5t27 96.5v1122h139v-1126q0 -101 -57 -168.5t-152 -67.5z" />
    <glyph glyph-name="k" unicode="k" horiz-adv-x="1228" 
d="M1208 0h-194l-473 518l-224 -178v-340h-139v1434h139v-947l658 537h207l-533 -422z" />
    <glyph glyph-name="l" unicode="l" horiz-adv-x="495" 
d="M317 0h-139v1434h139v-1434z" />
    <glyph glyph-name="m" unicode="m" horiz-adv-x="2127" 
d="M317 0h-139v1024h139v-156q124 176 392 176q130 0 233 -58.5t152 -166.5q64 115 174 170t239 55q117 0 205.5 -33t143 -92.5t81.5 -137.5t27 -173v-608h-139v580q0 160 -77.5 254t-231.5 94h-29q-154 0 -250 -115t-96 -305v-508h-140v580q0 160 -75.5 254t-225.5 94h-28
q-158 0 -256.5 -115t-98.5 -305v-508z" />
    <glyph glyph-name="n" unicode="n" horiz-adv-x="1333" 
d="M317 0h-139v1024h139v-188q51 89 162 148.5t260 59.5q200 0 315 -117t115 -304v-623h-139v573q0 165 -74.5 260t-224.5 95h-29q-155 0 -270 -116t-115 -296v-516z" />
    <glyph glyph-name="o" unicode="o" horiz-adv-x="1335" 
d="M668 -20q-251 0 -406.5 145.5t-155.5 386.5t155.5 386.5t406.5 145.5q250 0 405.5 -145.5t155.5 -386.5t-155.5 -386.5t-405.5 -145.5zM653 96h29q176 0 290.5 112.5t114.5 303.5t-114.5 303.5t-290.5 112.5h-29q-177 0 -291 -112.5t-114 -303.5t114 -303.5t291 -112.5z
" />
    <glyph glyph-name="p" unicode="p" horiz-adv-x="1394" 
d="M317 -410h-139v1434h139v-170q56 87 173.5 138.5t250.5 51.5q243 0 394 -143.5t151 -388.5q0 -128 -42 -230.5t-115 -167.5t-170.5 -99.5t-210.5 -34.5q-155 0 -264 50t-167 132v-572zM725 96h29q176 0 283.5 109.5t107.5 306.5t-107.5 306.5t-283.5 109.5h-29
q-178 0 -293 -110.5t-115 -305.5t115 -305.5t293 -110.5z" />
    <glyph glyph-name="q" unicode="q" horiz-adv-x="1392" 
d="M1214 -410h-139v578q-62 -82 -170.5 -135t-259.5 -53q-112 0 -209.5 35t-171 100t-116 167.5t-42.5 229.5q0 244 151.5 388t393.5 144q142 0 252.5 -52t171.5 -138v170h139v-1434zM639 96h29q178 0 292.5 110.5t114.5 305.5t-114.5 305.5t-292.5 110.5h-29
q-176 0 -283.5 -109.5t-107.5 -306.5t107.5 -306.5t283.5 -109.5z" />
    <glyph glyph-name="r" unicode="r" horiz-adv-x="854" 
d="M317 0h-139v1024h129v-197q43 100 129.5 148.5t225.5 48.5h149v-141h-145q-168 0 -258.5 -91t-90.5 -257v-535z" />
    <glyph glyph-name="s" unicode="s" horiz-adv-x="1138" 
d="M563 -20q-219 0 -341.5 87t-131.5 240h143q9 -104 97 -157.5t219 -53.5h29q138 0 217 43.5t79 122.5q0 71 -54.5 110t-184.5 64l-170 33q-162 31 -244 95t-82 184q0 98 59 166t153 99t214 31q224 0 341.5 -86.5t129.5 -240.5h-143q-10 93 -91 152t-224 59h-29
q-125 0 -196.5 -48t-71.5 -116q0 -69 48.5 -102t196.5 -62l160 -31q160 -31 245 -102t85 -195q0 -138 -119.5 -215t-333.5 -77z" />
    <glyph glyph-name="t" unicode="t" horiz-adv-x="872" 
d="M829 0h-313q-102 0 -156.5 61t-54.5 170v676h-274v117h274v332h139v-332h340v-117h-340v-647q0 -79 31.5 -111t106.5 -32h247v-117z" />
    <glyph glyph-name="u" unicode="u" horiz-adv-x="1316" 
d="M573 -20q-195 0 -301 109.5t-106 297.5v637h139v-592q0 -167 69 -251.5t218 -84.5h29q156 0 267 110t111 292v526h140v-1024h-140v193q-58 -95 -165 -154t-261 -59z" />
    <glyph glyph-name="v" unicode="v" horiz-adv-x="1202" 
d="M600 145l418 879h153l-491 -1024h-160l-487 1024h160z" />
    <glyph glyph-name="w" unicode="w" horiz-adv-x="1781" 
d="M1284 143l309 881h150l-383 -1024h-166l-303 850l-305 -850h-164l-383 1024h149l322 -866l311 866h137z" />
    <glyph glyph-name="x" unicode="x" horiz-adv-x="1169" 
d="M676 520l448 -520h-186l-356 414l-359 -414h-178l449 516l-439 508h187l346 -401l348 401h178z" />
    <glyph glyph-name="y" unicode="y" horiz-adv-x="1241" 
d="M500 -338h-383v117h346q61 0 83.5 23t22.5 83v187l-522 952h160l432 -793l422 793h156l-508 -944v-209q0 -107 -51 -158t-158 -51z" />
    <glyph glyph-name="z" unicode="z" horiz-adv-x="1116" 
d="M1004 901l-730 -780h760v-121h-944v123l729 780h-719v121h904v-123z" />
    <glyph glyph-name="braceleft" unicode="{" horiz-adv-x="780" 
d="M719 -297h-195q-127 0 -181 70.5t-54 232.5v434q0 84 -21 114t-82 30h-108v266h108q61 0 82 29.5t21 113.5v432q0 162 54 234t181 72h195v-117h-174q-75 0 -99 -33.5t-24 -126.5v-543q0 -174 -164 -174h-47v-41h47q164 0 164 -174v-542q0 -93 24 -126.5t99 -33.5h174
v-117z" />
    <glyph glyph-name="bar" unicode="|" horiz-adv-x="542" 
d="M340 -174h-137v1782h137v-1782z" />
    <glyph glyph-name="braceright" unicode="}" horiz-adv-x="778" 
d="M59 1733h195q127 0 181 -70.5t54 -232.5v-435q0 -84 21 -113.5t82 -29.5h108v-266h-108q-61 0 -82 -30t-21 -114v-432q0 -162 -54 -233.5t-181 -71.5h-195v117h174q75 0 99 33.5t24 126.5v542q0 174 164 174h47v41h-47q-164 0 -164 174v543q0 93 -24 126.5t-99 33.5h-174
v117z" />
    <glyph glyph-name="asciitilde" unicode="~" horiz-adv-x="1144" 
d="M797 711q-15 0 -31.5 2.5t-28.5 5t-28 8t-24 8.5t-23.5 9.5t-18.5 7.5l-182 69q-61 23 -94 23q-39 0 -58.5 -28t-19.5 -95h-111v20q0 106 53.5 160.5t139.5 54.5q15 0 30 -2t26.5 -4t26 -6.5t22 -7t21.5 -8t17 -6.5l186 -74q62 -25 93 -25q39 0 58 27.5t19 95.5h109v-20
q0 -101 -49.5 -158t-132.5 -57z" />
    <glyph glyph-name="uni00A0" unicode="&#xa0;" horiz-adv-x="569" 
 />
    <glyph glyph-name="exclamdown" unicode="&#xa1;" horiz-adv-x="491" 
d="M158 1024h178v-184h-178v184zM215 604h61l41 -584v-430h-143v430z" />
    <glyph glyph-name="cent" unicode="&#xa2;" horiz-adv-x="1265" 
d="M1008 328h143q-34 -161 -160 -254.5t-323 -93.5q-42 0 -60 2l-45 -228h-129l49 248q-177 50 -272.5 186.5t-95.5 323.5q0 233 147 382.5t406 149.5h22l45 226h129l-47 -242q140 -31 227.5 -118t102.5 -214h-143q-15 78 -70.5 135t-140.5 82l-160 -809h24h21q128 0 216 63
t114 161zM256 512q0 -136 64 -240.5t188 -144.5l160 801h-11q-99 0 -177 -33.5t-126 -91.5t-73 -132t-25 -159z" />
    <glyph glyph-name="sterling" unicode="&#xa3;" horiz-adv-x="1304" 
d="M399 137h822v-137h-1117v137h93q78 0 117 44.5t48 135.5l31 289l-284 -59v129l297 63l28 267q23 214 120 321t294 107h272v-138h-278q-134 0 -192.5 -74.5t-74.5 -226.5l-24 -225l319 68v-129l-331 -70l-33 -303q-8 -78 -31 -122.5t-76 -76.5z" />
    <glyph glyph-name="currency" unicode="&#xa4;" horiz-adv-x="1587" 
d="M1354 625q0 -166 -94 -303l194 -195l-90 -90l-193 184q-158 -139 -380 -139q-216 0 -377 135l-189 -180l-90 90l189 188q-97 140 -97 310q0 166 95 301l-187 186l90 90l187 -178q158 133 379 133q224 0 383 -137l190 182l90 -90l-190 -190q90 -133 90 -297zM791 219h10
q175 0 293 114t118 292q0 177 -117 286t-294 109h-21q-177 0 -294 -109t-117 -286t122.5 -291.5t299.5 -114.5z" />
    <glyph glyph-name="yen" unicode="&#xa5;" horiz-adv-x="1513" 
d="M1257 1434h191l-498 -664l295 61v-129l-409 -84l-2 -4v-165l350 71v-129l-350 -72v-319h-150v289l-356 -72v129l356 72v168l-418 -86v129l352 73l-548 732h192l500 -672z" />
    <glyph glyph-name="brokenbar" unicode="&#xa6;" horiz-adv-x="555" 
d="M346 881h-137v727h137v-727zM346 -174h-137v747h137v-747z" />
    <glyph glyph-name="section" unicode="&#xa7;" horiz-adv-x="1191" 
d="M688 -123h-500v137h498q90 0 143.5 35t53.5 105q0 60 -41.5 99t-134.5 60l-258 56q-343 73 -343 290q0 172 183 275q-117 77 -117 223q0 128 92.5 202.5t245.5 74.5h459v-138h-457q-90 0 -143.5 -34.5t-53.5 -104.5q0 -122 177 -160l258 -55q342 -72 342 -291
q0 -171 -183 -274q117 -77 117 -223q0 -128 -92.5 -202.5t-245.5 -74.5zM485 496l283 -62q105 45 142.5 94t37.5 103q0 132 -235 184l-283 62q-105 -45 -142.5 -94t-37.5 -103q0 -132 235 -184z" />
    <glyph glyph-name="dieresis" unicode="&#xa8;" horiz-adv-x="720" 
d="M217 1208h-158v164h158v-164zM662 1208h-158v164h158v-164z" />
    <glyph glyph-name="copyright" unicode="&#xa9;" horiz-adv-x="2113" 
d="M1057 -82q-200 0 -376 63.5t-299.5 171t-195 254.5t-71.5 310t71.5 310t195 254.5t299.5 171t376 63.5t376 -63.5t299.5 -171t195 -254.5t71.5 -310t-71.5 -310t-195 -254.5t-299.5 -171t-376 -63.5zM1057 20q178 0 334.5 55.5t265.5 149.5t172 222t63 270t-63 270
t-172 222t-265.5 149t-334.5 55t-334.5 -55t-266 -149t-172.5 -222t-63 -270t63 -270t172.5 -222t266 -149.5t334.5 -55.5zM1059 328q-85 0 -158 25t-129.5 73t-88.5 124.5t-32 172.5q0 183 112 294t296 111q145 0 244 -72t116 -192h-133q-11 67 -73.5 114.5t-153.5 47.5
h-10q-116 0 -192.5 -84t-76.5 -219q0 -134 76 -213.5t193 -79.5h10q88 0 153 46.5t80 115.5h133q-30 -129 -129 -196.5t-237 -67.5z" />
    <glyph glyph-name="ordfeminine" unicode="&#xaa;" horiz-adv-x="849" 
d="M346 840q-95 0 -157 47t-62 127q0 84 61 130t162 56l221 21v18q0 51 -43.5 80t-109.5 29h-6q-62 0 -109 -26.5t-47 -74.5h-121q6 93 87.5 145t195.5 52t194 -56.5t80 -152.5v-258q0 -84 6 -127h-110q-10 55 -10 84q-28 -39 -92.5 -66.5t-139.5 -27.5zM377 936h6
q82 0 135 35t53 102v62l-188 -17q-60 -5 -97.5 -29t-37.5 -67q0 -42 36 -64t93 -22z" />
    <glyph glyph-name="guillemotleft" unicode="&#xab;" horiz-adv-x="1185" 
d="M475 1024h170l-383 -438l385 -443h-172l-389 441zM1087 1024l-382 -438l385 -443h-172l-390 441l390 440h169z" />
    <glyph glyph-name="logicalnot" unicode="&#xac;" horiz-adv-x="1310" 
d="M1143 266h-144v293h-833v137h977v-430z" />
    <glyph glyph-name="uni00AD" unicode="&#xad;" horiz-adv-x="905" 
d="M750 563h-594v113h594v-113z" />
    <glyph glyph-name="registered" unicode="&#xae;" horiz-adv-x="2113" 
d="M1057 -82q-200 0 -376 63.5t-299.5 171t-195 254.5t-71.5 310t71.5 310t195 254.5t299.5 171t376 63.5t376 -63.5t299.5 -171t195 -254.5t71.5 -310t-71.5 -310t-195 -254.5t-299.5 -171t-376 -63.5zM1057 20q178 0 334.5 55.5t265.5 149.5t172 222t63 270t-63 270
t-172 222t-265.5 149t-334.5 55t-334.5 -55t-266 -149t-172.5 -222t-63 -270t63 -270t172.5 -222t266 -149.5t334.5 -55.5zM895 342h-129v770h360q126 0 201.5 -59.5t75.5 -151.5q0 -79 -41.5 -130t-97.5 -64q59 -2 94 -37.5t35 -108.5v-219h-129v203q0 50 -24.5 73
t-76.5 23h-268v-299zM895 1006v-263h205q174 0 174 134q0 70 -44 99.5t-130 29.5h-205z" />
    <glyph glyph-name="macron" unicode="&#xaf;" horiz-adv-x="755" 
d="M694 1208h-633v113h633v-113z" />
    <glyph glyph-name="degree" unicode="&#xb0;" horiz-adv-x="970" 
d="M485 696q-164 0 -271.5 108.5t-107.5 270.5t107.5 270.5t271.5 108.5q162 0 270.5 -108.5t108.5 -270.5t-108.5 -270.5t-270.5 -108.5zM485 815q104 0 178 76.5t74 183.5t-74 183.5t-178 76.5t-178 -76.5t-74 -183.5t74 -183.5t178 -76.5z" />
    <glyph glyph-name="plusminus" unicode="&#xb1;" horiz-adv-x="1380" 
d="M760 307h-139v285h-457v137h457v295h139v-295h457v-137h-457v-285zM1217 0h-1053v137h1053v-137z" />
    <glyph glyph-name="uni00B2" unicode="&#xb2;" horiz-adv-x="796" 
d="M711 850h-627v141l299 217q118 86 154 127t36 99q0 59 -48.5 96t-121.5 37h-10q-66 0 -122 -36.5t-56 -94.5h-127q0 103 92 168t221 65q132 0 216.5 -63t84.5 -172q0 -36 -11.5 -68.5t-26.5 -56.5t-44.5 -52t-50.5 -45t-59 -45l-297 -215h498v-102z" />
    <glyph glyph-name="uni00B3" unicode="&#xb3;" horiz-adv-x="806" 
d="M391 840q-129 0 -222 60.5t-93 162.5h125q5 -53 56 -87t128 -34h10q85 0 141 38t56 103q0 59 -50.5 93t-127.5 34h-131v97h135q77 0 122.5 32.5t45.5 92.5q0 66 -49.5 100.5t-135.5 34.5h-10q-77 0 -125 -32t-53 -81h-125q0 100 91 157.5t222 57.5t220.5 -59.5
t89.5 -165.5q0 -63 -41.5 -112.5t-112.5 -74.5q76 -23 118 -72t42 -114q0 -105 -97.5 -168t-228.5 -63z" />
    <glyph glyph-name="acute" unicode="&#xb4;" horiz-adv-x="440" 
d="M164 1167h-111l158 267h174z" />
    <glyph glyph-name="uni00B5" unicode="&#xb5;" horiz-adv-x="1386" 
d="M340 -410h-133v1434h133v-635q0 -297 317 -297h21q95 0 178 44t137 132.5t54 202.5v553h133v-1024h-133v193q-47 -102 -154.5 -157.5t-259.5 -55.5q-180 0 -293 86v-476z" />
    <glyph glyph-name="paragraph" unicode="&#xb6;" horiz-adv-x="1417" 
d="M651 -410h-139v1076h-41q-175 0 -287 112.5t-112 272.5t110 271.5t277 111.5h858v-117h-184v-1727h-140v1727h-342v-1727z" />
    <glyph glyph-name="periodcentered" unicode="&#xb7;" horiz-adv-x="516" 
d="M360 594h-204v205h204v-205z" />
    <glyph glyph-name="cedilla" unicode="&#xb8;" horiz-adv-x="495" 
d="M215 -461h-154v115h156q54 0 86.5 21t32.5 65q0 41 -33 62.5t-86 21.5h-59v207h96v-123q79 -2 133.5 -49.5t54.5 -124.5q0 -88 -59 -141.5t-168 -53.5z" />
    <glyph glyph-name="uni00B9" unicode="&#xb9;" horiz-adv-x="583" 
d="M444 850h-116v649l-281 -192v127l320 225h77v-809z" />
    <glyph glyph-name="ordmasculine" unicode="&#xba;" horiz-adv-x="884" 
d="M442 840q-150 0 -239.5 81.5t-89.5 219.5t90 220.5t239 82.5q150 0 240 -82.5t90 -220.5t-90 -219.5t-240 -81.5zM438 936h11q93 0 145.5 56t52.5 149t-54 150t-147 57h-8q-92 0 -146 -57.5t-54 -149.5t53.5 -148.5t146.5 -56.5z" />
    <glyph glyph-name="guillemotright" unicode="&#xbb;" horiz-adv-x="1185" 
d="M96 1024h172l389 -440l-389 -441h-170l383 439zM539 1024h172l389 -440l-389 -441h-170l383 439z" />
    <glyph glyph-name="onequarter" unicode="&#xbc;" horiz-adv-x="1871" 
d="M446 625h-116v649l-281 -193v127l320 226h77v-809zM356 0h-141l1020 1434h141zM1593 0h-114v197h-471v114l458 498h127v-510h142v-102h-142v-197zM1479 659l-353 -360h353v360z" />
    <glyph glyph-name="onehalf" unicode="&#xbd;" horiz-adv-x="1857" 
d="M446 625h-116v649l-281 -193v127l320 226h77v-809zM356 0h-141l1020 1434h141zM1720 0h-626v141l299 217q118 86 154 127t36 99q0 59 -48.5 96t-121.5 37h-10q-66 0 -122 -36.5t-56 -94.5h-127q0 103 92 168t221 65q132 0 216.5 -63t84.5 -172q0 -36 -11.5 -68.5
t-26.5 -56.5t-44.5 -52t-50.5 -45t-59 -45l-297 -215h497v-102z" />
    <glyph glyph-name="threequarters" unicode="&#xbe;" horiz-adv-x="2048" 
d="M391 614q-129 0 -222 61t-93 163h125q5 -53 56 -87t128 -34h10q85 0 141 38t56 103q0 59 -50.5 93t-127.5 34h-131v96h135q77 0 122.5 32.5t45.5 92.5q0 66 -49.5 100.5t-135.5 34.5h-10q-77 0 -125 -31.5t-53 -80.5h-125q0 100 91 157.5t222 57.5t220.5 -59.5
t89.5 -165.5q0 -63 -41.5 -112.5t-112.5 -74.5q76 -23 118 -72t42 -114q0 -105 -97.5 -168.5t-228.5 -63.5zM580 0h-142l1020 1434h141zM1817 0h-115v197h-471v114l459 498h127v-510h141v-102h-141v-197zM1702 659l-352 -360h352v360z" />
    <glyph glyph-name="questiondown" unicode="&#xbf;" horiz-adv-x="1069" 
d="M631 1024h178v-184h-178v184zM653 604h133v-260q0 -92 -35.5 -128t-127.5 -36h-172q-111 0 -174.5 -68t-63.5 -165q0 -96 69.5 -159.5t188.5 -63.5h520v-134h-549q-155 0 -261.5 101.5t-106.5 253.5q0 165 104.5 266.5t274.5 101.5h131q42 0 55.5 18t13.5 52v221z" />
    <glyph glyph-name="Agrave" unicode="&#xc0;" horiz-adv-x="1591" 
d="M713 1823l159 -256h-131l-221 256h193zM1581 0h-162l-190 393h-873l-190 -393h-156l701 1434h172zM793 1292l-369 -762h737z" />
    <glyph glyph-name="Aacute" unicode="&#xc1;" horiz-adv-x="1591" 
d="M909 1823h193l-221 -256h-131zM1581 0h-162l-190 393h-873l-190 -393h-156l701 1434h172zM793 1292l-369 -762h737z" />
    <glyph glyph-name="Acircumflex" unicode="&#xc2;" horiz-adv-x="1591" 
d="M1047 1567l-250 153l-250 -153h-148l297 256h201l297 -256h-147zM1581 0h-162l-190 393h-873l-190 -393h-156l701 1434h172zM793 1292l-369 -762h737z" />
    <glyph glyph-name="Atilde" unicode="&#xc3;" horiz-adv-x="1591" 
d="M606 1716q-106 0 -106 -129h-115v27q0 97 58 158t165 61q52 0 86 -11t76 -36l74 -45q5 -3 28.5 -18.5t34 -21t33.5 -12t47 -6.5q105 0 105 129h114v-26q0 -97 -57 -158t-162 -61q-56 0 -91.5 13.5t-104.5 55.5l-70 43q-22 13 -31 18.5t-33 12t-51 6.5zM1581 0h-162
l-190 393h-873l-190 -393h-156l701 1434h172zM793 1292l-369 -762h737z" />
    <glyph glyph-name="Adieresis" unicode="&#xc4;" horiz-adv-x="1591" 
d="M479 1761h172v-164h-172v164zM901 1761h172v-164h-172v164zM1581 0h-162l-190 393h-873l-190 -393h-156l701 1434h172zM793 1292l-369 -762h737z" />
    <glyph glyph-name="Aring" unicode="&#xc5;" horiz-adv-x="1591" 
d="M795 1554q-86 0 -148.5 53t-62.5 126t62.5 125.5t148.5 52.5t148.5 -52.5t62.5 -125.5t-62.5 -126t-148.5 -53zM797 1817q-46 0 -75.5 -23.5t-29.5 -60.5t29.5 -60.5t75.5 -23.5q44 0 72 23.5t28 60.5t-28 60.5t-72 23.5zM1581 0h-162l-190 393h-873l-190 -393h-156
l701 1434h172zM793 1292l-369 -762h737z" />
    <glyph glyph-name="AE" unicode="&#xc6;" horiz-adv-x="2334" 
d="M1341 668l76 -531h850v-137h-981l-55 393h-782l-285 -393h-182l1040 1434h1122v-138h-891l70 -491h760v-137h-742zM1102 1298l-555 -768h663z" />
    <glyph glyph-name="Ccedilla" unicode="&#xc7;" horiz-adv-x="1650" 
d="M858 117h33q188 0 320.5 83.5t166.5 239.5h164q-30 -197 -195 -322.5t-425 -137.5v-72q79 -2 133.5 -49.5t54.5 -124.5q0 -88 -59 -141.5t-168 -53.5h-154v115h156q54 0 86.5 21t32.5 65q0 41 -33 62.5t-86 21.5h-60v158q-218 10 -379 107t-244 259t-83 369
q0 157 53.5 292.5t150 234t239 154.5t312.5 56q145 0 266 -37t203.5 -101t133.5 -146.5t65 -176.5h-164q-33 153 -166.5 238.5t-320.5 85.5h-33q-181 0 -316 -80.5t-203.5 -215.5t-68.5 -304t68.5 -304t203.5 -215.5t316 -80.5z" />
    <glyph glyph-name="Egrave" unicode="&#xc8;" horiz-adv-x="1531" 
d="M727 1823l160 -256h-131l-221 256h192zM367 668v-531h1056v-137h-1206v1434h1186v-138h-1036v-491h913v-137h-913z" />
    <glyph glyph-name="Eacute" unicode="&#xc9;" horiz-adv-x="1531" 
d="M924 1823h192l-221 -256h-131zM367 668v-531h1056v-137h-1206v1434h1186v-138h-1036v-491h913v-137h-913z" />
    <glyph glyph-name="Ecircumflex" unicode="&#xca;" horiz-adv-x="1531" 
d="M1061 1567l-250 153l-250 -153h-147l297 256h200l297 -256h-147zM367 668v-531h1056v-137h-1206v1434h1186v-138h-1036v-491h913v-137h-913z" />
    <glyph glyph-name="Edieresis" unicode="&#xcb;" horiz-adv-x="1531" 
d="M494 1761h172v-164h-172v164zM915 1761h172v-164h-172v164zM367 668v-531h1056v-137h-1206v1434h1186v-138h-1036v-491h913v-137h-913z" />
    <glyph glyph-name="Igrave" unicode="&#xcc;" horiz-adv-x="583" 
d="M369 1567h-131l-222 256h193zM367 0h-150v1434h150v-1434z" />
    <glyph glyph-name="Iacute" unicode="&#xcd;" horiz-adv-x="583" 
d="M377 1567h-131l160 256h192zM367 0h-150v1434h150v-1434z" />
    <glyph glyph-name="Icircumflex" unicode="&#xce;" horiz-adv-x="583" 
d="M43 1567h-147l297 256h200l297 -256h-147l-250 153zM367 0h-150v1434h150v-1434z" />
    <glyph glyph-name="Idieresis" unicode="&#xcf;" horiz-adv-x="583" 
d="M147 1597h-172v164h172v-164zM569 1597h-172v164h172v-164zM367 0h-150v1434h150v-1434z" />
    <glyph glyph-name="Eth" unicode="&#xd0;" horiz-adv-x="1708" 
d="M231 1434h625q338 0 533.5 -190t195.5 -527t-195.5 -527t-533.5 -190h-625v653h-151v127h151v654zM381 137h455q280 0 439 149.5t159 430.5t-159 430t-439 149h-455v-516h354v-127h-354v-516z" />
    <glyph glyph-name="Ntilde" unicode="&#xd1;" horiz-adv-x="1728" 
d="M674 1716q-107 0 -107 -129h-114v27q0 97 58 158t165 61q52 0 86 -11t76 -36l73 -45q4 -2 28.5 -18.5t35 -21.5t33.5 -11.5t47 -6.5q104 0 104 129h115v-26q0 -97 -57 -158t-162 -61q-56 0 -92 13.5t-105 55.5l-70 43q-2 1 -6 4q-47 29 -89 32q-9 1 -19 1zM1362 201v1233
h149v-1434h-188l-956 1233v-1233h-150v1434h189z" />
    <glyph glyph-name="Ograve" unicode="&#xd2;" horiz-adv-x="1779" 
d="M967 1567h-131l-222 256h193zM891 -20q-221 0 -395 87.5t-275.5 256.5t-101.5 393t101.5 393t275.5 256.5t395 87.5t394.5 -87.5t274.5 -256.5t101 -393t-101 -393t-274.5 -256.5t-394.5 -87.5zM874 117h33q124 0 233 41t191 115.5t130 189.5t48 254t-48 254t-130 189.5
t-191 115.5t-233 41h-33q-124 0 -233 -41t-192 -115.5t-131 -189.5t-48 -254t48 -254t131 -189.5t192 -115.5t233 -41z" />
    <glyph glyph-name="Oacute" unicode="&#xd3;" horiz-adv-x="1779" 
d="M975 1567h-131l160 256h192zM891 -20q-221 0 -395 87.5t-275.5 256.5t-101.5 393t101.5 393t275.5 256.5t395 87.5t394.5 -87.5t274.5 -256.5t101 -393t-101 -393t-274.5 -256.5t-394.5 -87.5zM874 117h33q124 0 233 41t191 115.5t130 189.5t48 254t-48 254t-130 189.5
t-191 115.5t-233 41h-33q-124 0 -233 -41t-192 -115.5t-131 -189.5t-48 -254t48 -254t131 -189.5t192 -115.5t233 -41z" />
    <glyph glyph-name="Ocircumflex" unicode="&#xd4;" horiz-adv-x="1779" 
d="M641 1567h-147l297 256h200l297 -256h-147l-250 153zM891 -20q-221 0 -395 87.5t-275.5 256.5t-101.5 393t101.5 393t275.5 256.5t395 87.5t394.5 -87.5t274.5 -256.5t101 -393t-101 -393t-274.5 -256.5t-394.5 -87.5zM874 117h33q124 0 233 41t191 115.5t130 189.5
t48 254t-48 254t-130 189.5t-191 115.5t-233 41h-33q-124 0 -233 -41t-192 -115.5t-131 -189.5t-48 -254t48 -254t131 -189.5t192 -115.5t233 -41z" />
    <glyph glyph-name="Otilde" unicode="&#xd5;" horiz-adv-x="1779" 
d="M1081 1567q-56 0 -91.5 13.5t-104.5 55.5l-70 43q-22 13 -31 18.5t-33 12t-51 6.5q-106 0 -106 -129h-115v27q0 97 58 158t165 61q52 0 86 -11t76 -36l74 -45q5 -3 28.5 -18.5t34 -21t33.5 -12t47 -6.5q105 0 105 129h114v-26q0 -97 -57 -158t-162 -61zM891 -20
q-221 0 -395 87.5t-275.5 256.5t-101.5 393t101.5 393t275.5 256.5t395 87.5t394.5 -87.5t274.5 -256.5t101 -393t-101 -393t-274.5 -256.5t-394.5 -87.5zM874 117h33q124 0 233 41t191 115.5t130 189.5t48 254t-48 254t-130 189.5t-191 115.5t-233 41h-33q-124 0 -233 -41
t-192 -115.5t-131 -189.5t-48 -254t48 -254t131 -189.5t192 -115.5t233 -41z" />
    <glyph glyph-name="Odieresis" unicode="&#xd6;" horiz-adv-x="1779" 
d="M745 1597h-172v164h172v-164zM1167 1597h-172v164h172v-164zM891 -20q-221 0 -395 87.5t-275.5 256.5t-101.5 393t101.5 393t275.5 256.5t395 87.5t394.5 -87.5t274.5 -256.5t101 -393t-101 -393t-274.5 -256.5t-394.5 -87.5zM874 117h33q124 0 233 41t191 115.5
t130 189.5t48 254t-48 254t-130 189.5t-191 115.5t-233 41h-33q-124 0 -233 -41t-192 -115.5t-131 -189.5t-48 -254t48 -254t131 -189.5t192 -115.5t233 -41z" />
    <glyph glyph-name="multiply" unicode="&#xd7;" horiz-adv-x="1198" 
d="M705 528l354 -309l-92 -104l-371 321l-367 -319l-88 102l353 307l-355 308l92 106l369 -322l369 320l88 -102z" />
    <glyph glyph-name="Oslash" unicode="&#xd8;" horiz-adv-x="1798" 
d="M1657 1389l-168 -168q182 -198 182 -504q0 -224 -101 -393t-274.5 -256.5t-394.5 -87.5q-293 0 -495 151l-179 -178l-94 100l170 170q-174 196 -174 494q0 224 101.5 393t275.5 256.5t395 87.5q282 0 483 -143l179 178zM281 717q0 -231 127 -387l874 878
q-154 109 -364 109h-33q-124 0 -233 -41t-192 -115.5t-131 -189.5t-48 -254zM885 117h33q124 0 233 41t191 115.5t130 189.5t48 254q0 238 -136 397l-876 -881q159 -116 377 -116z" />
    <glyph glyph-name="Ugrave" unicode="&#xd9;" horiz-adv-x="1617" 
d="M885 1567h-131l-222 256h193zM809 -20q-301 0 -455.5 155t-154.5 430v869h149v-852q0 -227 114 -346t331 -119h32q217 0 331 119t114 346v852h149v-869q0 -273 -157.5 -429t-452.5 -156z" />
    <glyph glyph-name="Uacute" unicode="&#xda;" horiz-adv-x="1617" 
d="M893 1567h-131l160 256h192zM809 -20q-301 0 -455.5 155t-154.5 430v869h149v-852q0 -227 114 -346t331 -119h32q217 0 331 119t114 346v852h149v-869q0 -273 -157.5 -429t-452.5 -156z" />
    <glyph glyph-name="Ucircumflex" unicode="&#xdb;" horiz-adv-x="1617" 
d="M559 1567h-147l297 256h200l297 -256h-147l-250 153zM809 -20q-301 0 -455.5 155t-154.5 430v869h149v-852q0 -227 114 -346t331 -119h32q217 0 331 119t114 346v852h149v-869q0 -273 -157.5 -429t-452.5 -156z" />
    <glyph glyph-name="Udieresis" unicode="&#xdc;" horiz-adv-x="1617" 
d="M664 1597h-172v164h172v-164zM1085 1597h-172v164h172v-164zM809 -20q-301 0 -455.5 155t-154.5 430v869h149v-852q0 -227 114 -346t331 -119h32q217 0 331 119t114 346v852h149v-869q0 -273 -157.5 -429t-452.5 -156z" />
    <glyph glyph-name="Yacute" unicode="&#xdd;" horiz-adv-x="1427" 
d="M829 1823h193l-221 -256h-131zM717 762l495 672h191l-615 -820v-614h-149v614l-614 820h192z" />
    <glyph glyph-name="Thorn" unicode="&#xde;" horiz-adv-x="1527" 
d="M367 0h-150v1434h150v-310h569q214 0 348.5 -109t134.5 -298q0 -193 -134 -301.5t-349 -108.5h-569v-307zM367 987v-543h538q178 0 270.5 70t92.5 203q0 131 -92.5 200.5t-270.5 69.5h-538z" />
    <glyph glyph-name="germandbls" unicode="&#xdf;" horiz-adv-x="1269" 
d="M311 -379h-133v1366q0 204 128 335.5t351 131.5q214 0 334.5 -108t120.5 -263q0 -120 -67.5 -206t-147.5 -111q40 -10 82.5 -34t85 -64.5t69.5 -105.5t27 -142q0 -134 -61.5 -230.5t-164 -143t-233.5 -46.5h-217v127h189q162 0 254 78.5t92 218.5q0 126 -88.5 200
t-243.5 74h-203v119h193q83 0 144 22.5t94.5 61t49 82.5t15.5 94q0 117 -85.5 188.5t-227.5 71.5h-21q-145 0 -240.5 -93t-95.5 -269v-1354z" />
    <glyph glyph-name="agrave" unicode="&#xe0;" horiz-adv-x="1224" 
d="M662 1167h-111l-221 267h174zM494 -20q-188 0 -290 84t-102 221q0 76 29.5 134t83 94t121 56t151.5 25l431 24v41q0 129 -83.5 199t-232.5 70h-33q-119 0 -200.5 -52t-94.5 -139h-143q15 134 141 220.5t314 86.5q225 0 348 -106.5t123 -282.5v-430q0 -99 14 -225h-129
q-14 71 -14 166q-48 -78 -163 -132t-271 -54zM508 96h29q92 0 177.5 36t144.5 110.5t59 171.5v90l-365 -19q-166 -10 -237.5 -57.5t-71.5 -134.5q0 -92 64.5 -144.5t199.5 -52.5z" />
    <glyph glyph-name="aacute" unicode="&#xe1;" horiz-adv-x="1224" 
d="M662 1167h-111l158 267h174zM494 -20q-188 0 -290 84t-102 221q0 76 29.5 134t83 94t121 56t151.5 25l431 24v41q0 129 -83.5 199t-232.5 70h-33q-119 0 -200.5 -52t-94.5 -139h-143q15 134 141 220.5t314 86.5q225 0 348 -106.5t123 -282.5v-430q0 -99 14 -225h-129
q-14 71 -14 166q-48 -78 -163 -132t-271 -54zM508 96h29q92 0 177.5 36t144.5 110.5t59 171.5v90l-365 -19q-166 -10 -237.5 -57.5t-71.5 -134.5q0 -92 64.5 -144.5t199.5 -52.5z" />
    <glyph glyph-name="acircumflex" unicode="&#xe2;" horiz-adv-x="1224" 
d="M346 1167h-139l321 267h158l322 -267h-142l-260 160zM494 -20q-188 0 -290 84t-102 221q0 76 29.5 134t83 94t121 56t151.5 25l431 24v41q0 129 -83.5 199t-232.5 70h-33q-119 0 -200.5 -52t-94.5 -139h-143q15 134 141 220.5t314 86.5q225 0 348 -106.5t123 -282.5v-430
q0 -99 14 -225h-129q-14 71 -14 166q-48 -78 -163 -132t-271 -54zM508 96h29q92 0 177.5 36t144.5 110.5t59 171.5v90l-365 -19q-166 -10 -237.5 -57.5t-71.5 -134.5q0 -92 64.5 -144.5t199.5 -52.5z" />
    <glyph glyph-name="atilde" unicode="&#xe3;" horiz-adv-x="1224" 
d="M799 1169q-92 0 -199 70l-65 43q-63 39 -115 39q-46 0 -73.5 -33.5t-27.5 -97.5h-112v27q0 99 59 159t152 60q87 0 164 -52l69 -45q3 -2 14 -9t14.5 -9t13.5 -8t15 -8t14.5 -6.5t17 -6.5t17 -4t19 -3t19.5 -1q96 0 96 131h113v-26q0 -98 -59 -159t-146 -61zM494 -20
q-188 0 -290 84t-102 221q0 76 29.5 134t83 94t121 56t151.5 25l431 24v41q0 129 -83.5 199t-232.5 70h-33q-119 0 -200.5 -52t-94.5 -139h-143q15 134 141 220.5t314 86.5q225 0 348 -106.5t123 -282.5v-430q0 -99 14 -225h-129q-14 71 -14 166q-48 -78 -163 -132t-271 -54
zM508 96h29q92 0 177.5 36t144.5 110.5t59 171.5v90l-365 -19q-166 -10 -237.5 -57.5t-71.5 -134.5q0 -92 64.5 -144.5t199.5 -52.5z" />
    <glyph glyph-name="adieresis" unicode="&#xe4;" horiz-adv-x="1224" 
d="M463 1208h-158v164h158v-164zM907 1208h-157v164h157v-164zM494 -20q-188 0 -290 84t-102 221q0 76 29.5 134t83 94t121 56t151.5 25l431 24v41q0 129 -83.5 199t-232.5 70h-33q-119 0 -200.5 -52t-94.5 -139h-143q15 134 141 220.5t314 86.5q225 0 348 -106.5
t123 -282.5v-430q0 -99 14 -225h-129q-14 71 -14 166q-48 -78 -163 -132t-271 -54zM508 96h29q92 0 177.5 36t144.5 110.5t59 171.5v90l-365 -19q-166 -10 -237.5 -57.5t-71.5 -134.5q0 -92 64.5 -144.5t199.5 -52.5z" />
    <glyph glyph-name="aring" unicode="&#xe5;" horiz-adv-x="1224" 
d="M606 1169q-90 0 -155.5 57t-65.5 134t65.5 133.5t155.5 56.5q91 0 157 -56.5t66 -133.5t-66.5 -134t-156.5 -57zM608 1264q51 0 83 26.5t32 69.5t-32 69.5t-83 26.5t-83.5 -26.5t-32.5 -69.5t32.5 -69.5t83.5 -26.5zM494 -20q-188 0 -290 84t-102 221q0 76 29.5 134
t83 94t121 56t151.5 25l431 24v41q0 129 -83.5 199t-232.5 70h-33q-119 0 -200.5 -52t-94.5 -139h-143q15 134 141 220.5t314 86.5q225 0 348 -106.5t123 -282.5v-430q0 -99 14 -225h-129q-14 71 -14 166q-48 -78 -163 -132t-271 -54zM508 96h29q92 0 177.5 36t144.5 110.5
t59 171.5v90l-365 -19q-166 -10 -237.5 -57.5t-71.5 -134.5q0 -92 64.5 -144.5t199.5 -52.5z" />
    <glyph glyph-name="ae" unicode="&#xe6;" horiz-adv-x="2058" 
d="M494 -20q-188 0 -290 84t-102 221q0 148 105.5 223.5t279.5 85.5l431 24v41q0 129 -83.5 199t-232.5 70h-33q-119 0 -200.5 -52t-94.5 -139h-143q15 134 141 220.5t314 86.5q317 0 426 -213q73 104 190 158.5t252 54.5q224 0 360 -135.5t136 -357.5v-55h-893
q4 -98 39 -176.5t90 -126t121.5 -72.5t138.5 -25h29q111 0 200.5 55t118.5 142h143q-29 -143 -158.5 -228t-316.5 -85q-158 0 -280.5 62t-190.5 183q-140 -245 -497 -245zM1063 612h737q-6 149 -101 232.5t-231 83.5h-28q-156 0 -254.5 -85.5t-122.5 -230.5zM508 96h29
q92 0 177.5 36t144.5 110.5t59 171.5v90l-365 -19q-166 -9 -237.5 -57t-71.5 -135q0 -92 64.5 -144.5t199.5 -52.5z" />
    <glyph glyph-name="ccedilla" unicode="&#xe7;" horiz-adv-x="1247" 
d="M641 96h29q126 0 216.5 65.5t114.5 166.5h144q-22 -148 -150 -245t-319 -103v-72q79 -2 133.5 -49.5t54.5 -124.5q0 -88 -59 -141.5t-168 -53.5h-154v115h156q54 0 86.5 21t32.5 65q0 41 -33 62.5t-86 21.5h-59v160q-225 21 -349.5 163.5t-124.5 364.5q0 229 150.5 380.5
t398.5 151.5q202 0 335 -94t155 -254h-144q-21 109 -110.5 170.5t-220.5 61.5h-29q-96 0 -172.5 -34t-123.5 -92t-72 -132t-25 -158t25 -158t72 -132t123.5 -92t172.5 -34z" />
    <glyph glyph-name="egrave" unicode="&#xe8;" horiz-adv-x="1249" 
d="M545 1434l157 -267h-110l-221 267h174zM1141 551v-55h-893q4 -98 39 -176.5t90 -126t121.5 -72.5t138.5 -25h29q111 0 200.5 55t118.5 142h143q-29 -143 -158.5 -228t-316.5 -85q-116 0 -214.5 34.5t-172.5 100.5t-115.5 170t-41.5 235q0 101 29 187t79.5 147.5
t118.5 104.5t146.5 64t162.5 21q224 0 360 -135.5t136 -357.5zM254 612h737q-6 149 -101 232.5t-231 83.5h-28q-156 0 -254.5 -85.5t-122.5 -230.5z" />
    <glyph glyph-name="eacute" unicode="&#xe9;" horiz-adv-x="1249" 
d="M750 1434h174l-222 -267h-110zM1141 551v-55h-893q4 -98 39 -176.5t90 -126t121.5 -72.5t138.5 -25h29q111 0 200.5 55t118.5 142h143q-29 -143 -158.5 -228t-316.5 -85q-116 0 -214.5 34.5t-172.5 100.5t-115.5 170t-41.5 235q0 101 29 187t79.5 147.5t118.5 104.5
t146.5 64t162.5 21q224 0 360 -135.5t136 -357.5zM254 612h737q-6 149 -101 232.5t-231 83.5h-28q-156 0 -254.5 -85.5t-122.5 -230.5z" />
    <glyph glyph-name="ecircumflex" unicode="&#xea;" horiz-adv-x="1249" 
d="M907 1167l-260 160l-260 -160h-139l321 267h158l322 -267h-142zM1141 551v-55h-893q4 -98 39 -176.5t90 -126t121.5 -72.5t138.5 -25h29q111 0 200.5 55t118.5 142h143q-29 -143 -158.5 -228t-316.5 -85q-116 0 -214.5 34.5t-172.5 100.5t-115.5 170t-41.5 235
q0 101 29 187t79.5 147.5t118.5 104.5t146.5 64t162.5 21q224 0 360 -135.5t136 -357.5zM254 612h737q-6 149 -101 232.5t-231 83.5h-28q-156 0 -254.5 -85.5t-122.5 -230.5z" />
    <glyph glyph-name="edieresis" unicode="&#xeb;" horiz-adv-x="1249" 
d="M346 1372h158v-164h-158v164zM791 1372h157v-164h-157v164zM1141 551v-55h-893q4 -98 39 -176.5t90 -126t121.5 -72.5t138.5 -25h29q111 0 200.5 55t118.5 142h143q-29 -143 -158.5 -228t-316.5 -85q-116 0 -214.5 34.5t-172.5 100.5t-115.5 170t-41.5 235q0 101 29 187
t79.5 147.5t118.5 104.5t146.5 64t162.5 21q224 0 360 -135.5t136 -357.5zM254 612h737q-6 149 -101 232.5t-231 83.5h-28q-156 0 -254.5 -85.5t-122.5 -230.5z" />
    <glyph glyph-name="igrave" unicode="&#xec;" horiz-adv-x="495" 
d="M303 1167h-110l-222 267h174zM317 0h-139v1024h139v-1024z" />
    <glyph glyph-name="iacute" unicode="&#xed;" horiz-adv-x="495" 
d="M303 1167h-110l157 267h174zM317 0h-139v1024h139v-1024z" />
    <glyph glyph-name="icircumflex" unicode="&#xee;" horiz-adv-x="495" 
d="M-12 1167h-140l322 267h158l321 -267h-141l-260 160zM317 0h-139v1024h139v-1024z" />
    <glyph glyph-name="idieresis" unicode="&#xef;" horiz-adv-x="495" 
d="M104 1208h-157v164h157v-164zM549 1208h-158v164h158v-164zM317 0h-139v1024h139v-1024z" />
    <glyph glyph-name="eth" unicode="&#xf0;" horiz-adv-x="1361" 
d="M1151 1343l-184 -96q132 -109 199 -267.5t67 -350.5q0 -313 -143.5 -481t-427.5 -168q-253 0 -403 138t-150 361q0 105 38.5 195.5t108.5 157t175 104t231 37.5q51 0 105.5 -9.5t113.5 -30.5t113.5 -61t90.5 -94q-43 267 -233 408l-236 -125l-49 96l174 94
q-152 70 -346 70q-24 0 -55 -2v117q312 6 526 -119l234 127zM649 94h21q78 0 150.5 24.5t130.5 71t93 121.5t35 168q0 92 -35 166t-93 119.5t-130 69.5t-151 24h-21q-174 0 -286.5 -98t-112.5 -281q0 -124 54.5 -212.5t143 -130.5t201.5 -42z" />
    <glyph glyph-name="ntilde" unicode="&#xf1;" horiz-adv-x="1333" 
d="M883 1169q-92 0 -199 70l-66 43q-63 39 -114 39q-46 0 -73.5 -33.5t-27.5 -97.5h-112v27q0 99 59 159t152 60q87 0 164 -52l69 -45q3 -2 14 -9t14.5 -9t13.5 -8t15 -8t14.5 -6.5t17 -6.5t17 -4t19 -3t19.5 -1q96 0 96 131h112v-26q0 -98 -58.5 -159t-145.5 -61zM317 0
h-139v1024h139v-188q51 89 162 148.5t260 59.5q200 0 315 -117t115 -304v-623h-139v573q0 165 -74.5 260t-224.5 95h-29q-155 0 -270 -116t-115 -296v-516z" />
    <glyph glyph-name="ograve" unicode="&#xf2;" horiz-adv-x="1335" 
d="M723 1167h-111l-221 267h174zM668 -20q-251 0 -406.5 145.5t-155.5 386.5t155.5 386.5t406.5 145.5q250 0 405.5 -145.5t155.5 -386.5t-155.5 -386.5t-405.5 -145.5zM653 96h29q176 0 290.5 112.5t114.5 303.5t-114.5 303.5t-290.5 112.5h-29q-177 0 -291 -112.5
t-114 -303.5t114 -303.5t291 -112.5z" />
    <glyph glyph-name="oacute" unicode="&#xf3;" horiz-adv-x="1335" 
d="M723 1167h-111l158 267h174zM668 -20q-251 0 -406.5 145.5t-155.5 386.5t155.5 386.5t406.5 145.5q250 0 405.5 -145.5t155.5 -386.5t-155.5 -386.5t-405.5 -145.5zM653 96h29q176 0 290.5 112.5t114.5 303.5t-114.5 303.5t-290.5 112.5h-29q-177 0 -291 -112.5
t-114 -303.5t114 -303.5t291 -112.5z" />
    <glyph glyph-name="ocircumflex" unicode="&#xf4;" horiz-adv-x="1335" 
d="M408 1167h-140l322 267h158l321 -267h-141l-260 160zM668 -20q-251 0 -406.5 145.5t-155.5 386.5t155.5 386.5t406.5 145.5q250 0 405.5 -145.5t155.5 -386.5t-155.5 -386.5t-405.5 -145.5zM653 96h29q176 0 290.5 112.5t114.5 303.5t-114.5 303.5t-290.5 112.5h-29
q-177 0 -291 -112.5t-114 -303.5t114 -303.5t291 -112.5z" />
    <glyph glyph-name="otilde" unicode="&#xf5;" horiz-adv-x="1335" 
d="M860 1169q-48 0 -92.5 15t-105.5 55l-66 43q-63 39 -115 39q-46 0 -73 -33.5t-27 -97.5h-113v27q0 99 59 159t152 60q87 0 164 -52l70 -45q3 -2 15.5 -10t16.5 -10.5t15 -8.5t17 -8.5t17 -7t19.5 -6t19.5 -3t23 -1.5q96 0 96 131h113v-26q0 -98 -59 -159t-146 -61z
M668 -20q-251 0 -406.5 145.5t-155.5 386.5t155.5 386.5t406.5 145.5q250 0 405.5 -145.5t155.5 -386.5t-155.5 -386.5t-405.5 -145.5zM653 96h29q176 0 290.5 112.5t114.5 303.5t-114.5 303.5t-290.5 112.5h-29q-177 0 -291 -112.5t-114 -303.5t114 -303.5t291 -112.5z" />
    <glyph glyph-name="odieresis" unicode="&#xf6;" horiz-adv-x="1335" 
d="M524 1208h-157v164h157v-164zM969 1208h-158v164h158v-164zM668 -20q-251 0 -406.5 145.5t-155.5 386.5t155.5 386.5t406.5 145.5q250 0 405.5 -145.5t155.5 -386.5t-155.5 -386.5t-405.5 -145.5zM653 96h29q176 0 290.5 112.5t114.5 303.5t-114.5 303.5t-290.5 112.5
h-29q-177 0 -291 -112.5t-114 -303.5t114 -303.5t291 -112.5z" />
    <glyph glyph-name="divide" unicode="&#xf7;" horiz-adv-x="1380" 
d="M772 778h-162v176h162v-176zM1217 459h-1053v137h1053v-137zM772 100h-162v176h162v-176z" />
    <glyph glyph-name="oslash" unicode="&#xf8;" horiz-adv-x="1341" 
d="M1206 989l-106 -115q131 -144 131 -362q0 -241 -155.5 -386.5t-405.5 -145.5q-187 0 -328 86l-106 -115l-84 82l98 106q-141 141 -141 373q0 241 155 386.5t406 145.5q198 0 340 -94l112 121zM250 512q0 -165 90 -276l584 622q-106 70 -240 70h-29q-177 0 -291 -112.5
t-114 -303.5zM655 96h29q176 0 291 112.5t115 303.5q0 155 -82 264l-580 -618q95 -62 227 -62z" />
    <glyph glyph-name="ugrave" unicode="&#xf9;" horiz-adv-x="1316" 
d="M709 1167h-111l-221 267h174zM573 -20q-195 0 -301 109.5t-106 297.5v637h139v-592q0 -167 69 -251.5t218 -84.5h29q156 0 267 110t111 292v526h140v-1024h-140v193q-58 -95 -165 -154t-261 -59z" />
    <glyph glyph-name="uacute" unicode="&#xfa;" horiz-adv-x="1316" 
d="M709 1167h-111l158 267h174zM573 -20q-195 0 -301 109.5t-106 297.5v637h139v-592q0 -167 69 -251.5t218 -84.5h29q156 0 267 110t111 292v526h140v-1024h-140v193q-58 -95 -165 -154t-261 -59z" />
    <glyph glyph-name="ucircumflex" unicode="&#xfb;" horiz-adv-x="1316" 
d="M393 1167h-139l321 267h158l322 -267h-142l-260 160zM573 -20q-195 0 -301 109.5t-106 297.5v637h139v-592q0 -167 69 -251.5t218 -84.5h29q156 0 267 110t111 292v526h140v-1024h-140v193q-58 -95 -165 -154t-261 -59z" />
    <glyph glyph-name="udieresis" unicode="&#xfc;" horiz-adv-x="1316" 
d="M510 1208h-158v164h158v-164zM954 1208h-157v164h157v-164zM573 -20q-195 0 -301 109.5t-106 297.5v637h139v-592q0 -167 69 -251.5t218 -84.5h29q156 0 267 110t111 292v526h140v-1024h-140v193q-58 -95 -165 -154t-261 -59z" />
    <glyph glyph-name="yacute" unicode="&#xfd;" horiz-adv-x="1241" 
d="M688 1167h-110l157 267h174zM500 -338h-383v117h346q61 0 83.5 23t22.5 83v187l-522 952h160l432 -793l422 793h156l-508 -944v-209q0 -107 -51 -158t-158 -51z" />
    <glyph glyph-name="thorn" unicode="&#xfe;" horiz-adv-x="1394" 
d="M317 -410h-139v1844h139v-580q56 87 173.5 138.5t250.5 51.5q243 0 394 -143.5t151 -388.5q0 -128 -42 -230.5t-115 -167.5t-170.5 -99.5t-210.5 -34.5q-155 0 -264 50t-167 132v-572zM725 96h29q176 0 283.5 109.5t107.5 306.5t-107.5 306.5t-283.5 109.5h-29
q-178 0 -293 -110.5t-115 -305.5t115 -305.5t293 -110.5z" />
    <glyph glyph-name="ydieresis" unicode="&#xff;" horiz-adv-x="1241" 
d="M489 1208h-157v164h157v-164zM934 1208h-158v164h158v-164zM500 -338h-383v117h346q61 0 83.5 23t22.5 83v187l-522 952h160l432 -793l422 793h156l-508 -944v-209q0 -107 -51 -158t-158 -51z" />
    <glyph glyph-name="Amacron" unicode="&#x100;" horiz-adv-x="1591" 
d="M465 1712h682v-117h-682v117zM1581 0h-162l-190 393h-873l-190 -393h-156l701 1434h172zM793 1292l-369 -762h737z" />
    <glyph glyph-name="amacron" unicode="&#x101;" horiz-adv-x="1224" 
d="M891 1208h-633v113h633v-113zM494 -20q-188 0 -290 84t-102 221q0 76 29.5 134t83 94t121 56t151.5 25l431 24v41q0 129 -83.5 199t-232.5 70h-33q-119 0 -200.5 -52t-94.5 -139h-143q15 134 141 220.5t314 86.5q225 0 348 -106.5t123 -282.5v-430q0 -99 14 -225h-129
q-14 71 -14 166q-48 -78 -163 -132t-271 -54zM508 96h29q92 0 177.5 36t144.5 110.5t59 171.5v90l-365 -19q-166 -10 -237.5 -57.5t-71.5 -134.5q0 -92 64.5 -144.5t199.5 -52.5z" />
    <glyph glyph-name="Abreve" unicode="&#x102;" horiz-adv-x="1591" 
d="M797 1567q-145 0 -243.5 76.5t-102.5 199.5h122q10 -76 70 -120t154 -44t154 44t69 120h123q-4 -123 -102.5 -199.5t-243.5 -76.5zM1581 0h-162l-190 393h-873l-190 -393h-156l701 1434h172zM793 1292l-369 -762h737z" />
    <glyph glyph-name="abreve" unicode="&#x103;" horiz-adv-x="1224" 
d="M606 1169q-150 0 -250.5 84t-105.5 203h110q11 -80 78 -131t168 -51t168 51t78 131h111q-5 -119 -106 -203t-251 -84zM494 -20q-188 0 -290 84t-102 221q0 76 29.5 134t83 94t121 56t151.5 25l431 24v41q0 129 -83.5 199t-232.5 70h-33q-119 0 -200.5 -52t-94.5 -139
h-143q15 134 141 220.5t314 86.5q225 0 348 -106.5t123 -282.5v-430q0 -99 14 -225h-129q-14 71 -14 166q-48 -78 -163 -132t-271 -54zM508 96h29q92 0 177.5 36t144.5 110.5t59 171.5v90l-365 -19q-166 -10 -237.5 -57.5t-71.5 -134.5q0 -92 64.5 -144.5t199.5 -52.5z" />
    <glyph glyph-name="Aogonek" unicode="&#x104;" horiz-adv-x="1591" 
d="M1516 -283h92v-116h-92q-232 0 -232 159q0 65 50.5 129.5t144.5 110.5h-60l-190 393h-873l-190 -393h-156l701 1434h172l698 -1434q-190 -107 -190 -205q0 -78 125 -78zM793 1292l-369 -762h737z" />
    <glyph glyph-name="aogonek" unicode="&#x105;" horiz-adv-x="1224" 
d="M1006 -283h92v-116h-92q-232 0 -232 159q0 65 50.5 129.5t144.5 110.5h-27q-14 71 -14 166q-48 -78 -163 -132t-271 -54q-188 0 -290 84t-102 221q0 76 29.5 134t83 94t121 56t151.5 25l431 24v41q0 129 -83.5 199t-232.5 70h-33q-119 0 -200.5 -52t-94.5 -139h-143
q15 134 141 220.5t314 86.5q225 0 348 -106.5t123 -282.5v-430q0 -99 14 -225q-190 -107 -190 -205q0 -78 125 -78zM918 414v90l-365 -19q-166 -10 -237.5 -57.5t-71.5 -134.5q0 -92 64.5 -144.5t199.5 -52.5h29q92 0 177.5 36t144.5 110.5t59 171.5z" />
    <glyph glyph-name="Cacute" unicode="&#x106;" horiz-adv-x="1650" 
d="M958 1567h-131l160 256h193zM874 -20q-174 0 -317 55t-238.5 153t-147.5 233.5t-52 295.5q0 157 53.5 292.5t150 234t239 154.5t312.5 56q145 0 266 -37t203.5 -101t133.5 -146.5t65 -176.5h-164q-33 153 -166.5 238.5t-320.5 85.5h-33q-181 0 -316 -80.5t-203.5 -215.5
t-68.5 -304t68.5 -304t203.5 -215.5t316 -80.5h33q188 0 320.5 83.5t166.5 239.5h164q-31 -206 -210 -333t-458 -127z" />
    <glyph glyph-name="cacute" unicode="&#x107;" horiz-adv-x="1247" 
d="M711 1167h-111l158 267h174zM655 -20q-260 0 -404.5 146t-144.5 386q0 229 150.5 380.5t398.5 151.5q202 0 335 -94t155 -254h-144q-21 109 -110.5 170.5t-220.5 61.5h-29q-96 0 -172.5 -34t-123.5 -92t-72 -132t-25 -158t25 -158t72 -132t123.5 -92t172.5 -34h29
q126 0 216.5 65.5t114.5 166.5h144q-22 -153 -156.5 -250.5t-333.5 -97.5z" />
    <glyph glyph-name="Ccircumflex" unicode="&#x108;" horiz-adv-x="1650" 
d="M625 1567h-148l297 256h201l297 -256h-148l-250 153zM874 -20q-174 0 -317 55t-238.5 153t-147.5 233.5t-52 295.5q0 157 53.5 292.5t150 234t239 154.5t312.5 56q145 0 266 -37t203.5 -101t133.5 -146.5t65 -176.5h-164q-33 153 -166.5 238.5t-320.5 85.5h-33
q-181 0 -316 -80.5t-203.5 -215.5t-68.5 -304t68.5 -304t203.5 -215.5t316 -80.5h33q188 0 320.5 83.5t166.5 239.5h164q-31 -206 -210 -333t-458 -127z" />
    <glyph glyph-name="ccircumflex" unicode="&#x109;" horiz-adv-x="1247" 
d="M395 1167h-139l322 267h157l322 -267h-142l-260 160zM655 -20q-260 0 -404.5 146t-144.5 386q0 229 150.5 380.5t398.5 151.5q202 0 335 -94t155 -254h-144q-21 109 -110.5 170.5t-220.5 61.5h-29q-96 0 -172.5 -34t-123.5 -92t-72 -132t-25 -158t25 -158t72 -132
t123.5 -92t172.5 -34h29q126 0 216.5 65.5t114.5 166.5h144q-22 -153 -156.5 -250.5t-333.5 -97.5z" />
    <glyph glyph-name="Cdotaccent" unicode="&#x10a;" horiz-adv-x="1650" 
d="M954 1597h-159v175h159v-175zM874 -20q-174 0 -317 55t-238.5 153t-147.5 233.5t-52 295.5q0 157 53.5 292.5t150 234t239 154.5t312.5 56q145 0 266 -37t203.5 -101t133.5 -146.5t65 -176.5h-164q-33 153 -166.5 238.5t-320.5 85.5h-33q-181 0 -316 -80.5t-203.5 -215.5
t-68.5 -304t68.5 -304t203.5 -215.5t316 -80.5h33q188 0 320.5 83.5t166.5 239.5h164q-31 -206 -210 -333t-458 -127z" />
    <glyph glyph-name="cdotaccent" unicode="&#x10b;" horiz-adv-x="1247" 
d="M733 1208h-160v174h160v-174zM655 -20q-260 0 -404.5 146t-144.5 386q0 229 150.5 380.5t398.5 151.5q202 0 335 -94t155 -254h-144q-21 109 -110.5 170.5t-220.5 61.5h-29q-96 0 -172.5 -34t-123.5 -92t-72 -132t-25 -158t25 -158t72 -132t123.5 -92t172.5 -34h29
q126 0 216.5 65.5t114.5 166.5h144q-22 -153 -156.5 -250.5t-333.5 -97.5z" />
    <glyph glyph-name="Ccaron" unicode="&#x10c;" horiz-adv-x="1650" 
d="M975 1567h-201l-276 256h147l229 -152l230 152h147zM874 -20q-174 0 -317 55t-238.5 153t-147.5 233.5t-52 295.5q0 157 53.5 292.5t150 234t239 154.5t312.5 56q145 0 266 -37t203.5 -101t133.5 -146.5t65 -176.5h-164q-33 153 -166.5 238.5t-320.5 85.5h-33
q-181 0 -316 -80.5t-203.5 -215.5t-68.5 -304t68.5 -304t203.5 -215.5t316 -80.5h33q188 0 320.5 83.5t166.5 239.5h164q-31 -206 -210 -333t-458 -127z" />
    <glyph glyph-name="ccaron" unicode="&#x10d;" horiz-adv-x="1247" 
d="M735 1167h-157l-322 267h141l260 -160l261 160h139zM655 -20q-260 0 -404.5 146t-144.5 386q0 229 150.5 380.5t398.5 151.5q202 0 335 -94t155 -254h-144q-21 109 -110.5 170.5t-220.5 61.5h-29q-96 0 -172.5 -34t-123.5 -92t-72 -132t-25 -158t25 -158t72 -132
t123.5 -92t172.5 -34h29q126 0 216.5 65.5t114.5 166.5h144q-22 -153 -156.5 -250.5t-333.5 -97.5z" />
    <glyph glyph-name="Dcaron" unicode="&#x10e;" horiz-adv-x="1693" 
d="M913 1567h-200l-277 256h148l229 -152l229 152h148zM842 0h-625v1434h625q338 0 533.5 -190t195.5 -527t-195.5 -527t-533.5 -190zM367 1296v-1159h454q280 0 439 149.5t159 430.5t-159 430t-439 149h-454z" />
    <glyph glyph-name="dcaron" unicode="&#x10f;" horiz-adv-x="1437" 
d="M647 -20q-156 0 -277 63t-191 184.5t-70 284.5q0 255 150 393.5t394 138.5q279 0 424 -188v578h140v-1434h-140v164q-66 -88 -179 -136t-251 -48zM1378 1106h-41v76h37q45 0 63.5 18t18.5 60v20h-84v154h168v-174q0 -70 -44 -112t-118 -42zM641 96h29q178 0 292.5 110.5
t114.5 305.5t-114.5 305.5t-292.5 110.5h-29q-176 0 -283.5 -109.5t-107.5 -306.5t107.5 -306.5t283.5 -109.5z" />
    <glyph glyph-name="Dcroat" unicode="&#x110;" horiz-adv-x="1708" 
d="M231 1434h625q338 0 533.5 -190t195.5 -527t-195.5 -527t-533.5 -190h-625v653h-151v127h151v654zM381 137h455q280 0 439 149.5t159 430.5t-159 430t-439 149h-455v-516h354v-127h-354v-516z" />
    <glyph glyph-name="dcroat" unicode="&#x111;" horiz-adv-x="1394" 
d="M1217 1286h186v-106h-186v-1180h-140v164q-66 -88 -179 -136t-251 -48q-156 0 -277 63t-191 184.5t-70 284.5q0 255 150 393.5t394 138.5q279 0 424 -188v324h-426v106h426v148h140v-148zM641 96h29q178 0 292.5 110.5t114.5 305.5t-114.5 305.5t-292.5 110.5h-29
q-176 0 -283.5 -109.5t-107.5 -306.5t107.5 -306.5t283.5 -109.5z" />
    <glyph glyph-name="Emacron" unicode="&#x112;" horiz-adv-x="1531" 
d="M479 1712h682v-117h-682v117zM367 668v-531h1056v-137h-1206v1434h1186v-138h-1036v-491h913v-137h-913z" />
    <glyph glyph-name="emacron" unicode="&#x113;" horiz-adv-x="1249" 
d="M299 1321h633v-113h-633v113zM1141 551v-55h-893q4 -98 39 -176.5t90 -126t121.5 -72.5t138.5 -25h29q111 0 200.5 55t118.5 142h143q-29 -143 -158.5 -228t-316.5 -85q-116 0 -214.5 34.5t-172.5 100.5t-115.5 170t-41.5 235q0 101 29 187t79.5 147.5t118.5 104.5
t146.5 64t162.5 21q224 0 360 -135.5t136 -357.5zM254 612h737q-6 149 -101 232.5t-231 83.5h-28q-156 0 -254.5 -85.5t-122.5 -230.5z" />
    <glyph glyph-name="Ebreve" unicode="&#x114;" horiz-adv-x="1531" 
d="M811 1567q-145 0 -243.5 76.5t-102.5 199.5h123q11 -77 70 -120.5t153 -43.5t154 44t69 120h123q-4 -123 -102.5 -199.5t-243.5 -76.5zM367 668v-531h1056v-137h-1206v1434h1186v-138h-1036v-491h913v-137h-913z" />
    <glyph glyph-name="ebreve" unicode="&#x115;" horiz-adv-x="1249" 
d="M647 1169q-150 0 -250.5 84t-105.5 203h110q11 -80 78 -131t168 -51t168 51t78 131h111q-5 -119 -106 -203t-251 -84zM1141 551v-55h-893q4 -98 39 -176.5t90 -126t121.5 -72.5t138.5 -25h29q111 0 200.5 55t118.5 142h143q-29 -143 -158.5 -228t-316.5 -85
q-116 0 -214.5 34.5t-172.5 100.5t-115.5 170t-41.5 235q0 101 29 187t79.5 147.5t118.5 104.5t146.5 64t162.5 21q224 0 360 -135.5t136 -357.5zM254 612h737q-6 149 -101 232.5t-231 83.5h-28q-156 0 -254.5 -85.5t-122.5 -230.5z" />
    <glyph glyph-name="Edotaccent" unicode="&#x116;" horiz-adv-x="1531" 
d="M731 1772h160v-175h-160v175zM367 668v-531h1056v-137h-1206v1434h1186v-138h-1036v-491h913v-137h-913z" />
    <glyph glyph-name="edotaccent" unicode="&#x117;" horiz-adv-x="1249" 
d="M565 1382h160v-174h-160v174zM1141 551v-55h-893q4 -98 39 -176.5t90 -126t121.5 -72.5t138.5 -25h29q111 0 200.5 55t118.5 142h143q-29 -143 -158.5 -228t-316.5 -85q-116 0 -214.5 34.5t-172.5 100.5t-115.5 170t-41.5 235q0 101 29 187t79.5 147.5t118.5 104.5
t146.5 64t162.5 21q224 0 360 -135.5t136 -357.5zM254 612h737q-6 149 -101 232.5t-231 83.5h-28q-156 0 -254.5 -85.5t-122.5 -230.5z" />
    <glyph glyph-name="Eogonek" unicode="&#x118;" horiz-adv-x="1531" 
d="M1358 -283h92v-116h-92q-232 0 -232 159q0 65 50.5 129.5t144.5 110.5h-1104v1434h1186v-138h-1036v-491h913v-137h-913v-531h1056v-137q-190 -107 -190 -205q0 -78 125 -78z" />
    <glyph glyph-name="eogonek" unicode="&#x119;" horiz-adv-x="1249" 
d="M1141 551v-55h-893q4 -98 39 -176.5t90 -126t121.5 -72.5t138.5 -25h29q111 0 200.5 55t118.5 142h143q-23 -109 -104.5 -185.5t-206.5 -107.5q-188 -107 -188 -205q0 -78 125 -78h92v-116h-92q-232 0 -232 159q0 58 41 116.5t117 103.5h-27q-116 0 -214.5 34.5
t-172.5 100.5t-115.5 170t-41.5 235q0 101 29 187t79.5 147.5t118.5 104.5t146.5 64t162.5 21q224 0 360 -135.5t136 -357.5zM254 612h737q-6 149 -101 232.5t-231 83.5h-28q-156 0 -254.5 -85.5t-122.5 -230.5z" />
    <glyph glyph-name="Ecaron" unicode="&#x11a;" horiz-adv-x="1531" 
d="M1188 1823l-277 -256h-200l-277 256h148l229 -152l229 152h148zM367 668v-531h1056v-137h-1206v1434h1186v-138h-1036v-491h913v-137h-913z" />
    <glyph glyph-name="ecaron" unicode="&#x11b;" horiz-adv-x="1249" 
d="M1049 1434l-322 -267h-158l-321 267h141l260 -160l260 160h140zM1141 551v-55h-893q4 -98 39 -176.5t90 -126t121.5 -72.5t138.5 -25h29q111 0 200.5 55t118.5 142h143q-29 -143 -158.5 -228t-316.5 -85q-116 0 -214.5 34.5t-172.5 100.5t-115.5 170t-41.5 235
q0 101 29 187t79.5 147.5t118.5 104.5t146.5 64t162.5 21q224 0 360 -135.5t136 -357.5zM254 612h737q-6 149 -101 232.5t-231 83.5h-28q-156 0 -254.5 -85.5t-122.5 -230.5z" />
    <glyph glyph-name="Gcircumflex" unicode="&#x11c;" horiz-adv-x="1738" 
d="M643 1567h-147l297 256h200l297 -256h-147l-250 153zM889 -20q-356 0 -563 203t-207 534q0 161 53.5 296.5t151.5 233t244 152.5t323 55q314 0 492 -134t194 -347h-164q-6 49 -24.5 95t-57.5 92.5t-94 80.5t-140.5 55t-189.5 21h-33q-275 0 -439.5 -159t-164.5 -441
q0 -281 165.5 -440.5t438.5 -159.5h33q130 0 236.5 31.5t175 85.5t105 124t36.5 148v61h-563v138h547q75 0 114 -38t39 -112v-555h-137v209q-26 -37 -69.5 -73t-111.5 -73t-170 -60t-220 -23z" />
    <glyph glyph-name="gcircumflex" unicode="&#x11d;" horiz-adv-x="1366" 
d="M377 1167h-139l321 267h158l321 -267h-141l-260 160zM621 -451q-240 0 -381 85t-160 223h147q26 -92 126 -141.5t253 -49.5h29q182 0 298 97.5t116 281.5v150q-60 -81 -164.5 -138t-255.5 -57q-115 0 -208.5 31t-164 93.5t-109 163.5t-38.5 234q0 129 45 231.5
t120.5 164.5t167.5 94t193 32q71 0 134.5 -14t104.5 -33t79.5 -48t56.5 -47.5t39 -43.5v166h139v-995q0 -100 -35.5 -186.5t-104.5 -152.5t-178.5 -103.5t-248.5 -37.5zM625 117h28q74 0 145 28t127 78.5t90 128.5t34 170q0 122 -55 216.5t-142 142t-188 47.5h-29
q-79 0 -147 -23.5t-122 -70.5t-85 -127t-31 -185t29.5 -184.5t81.5 -127t118.5 -70.5t145.5 -23z" />
    <glyph glyph-name="Gbreve" unicode="&#x11e;" horiz-adv-x="1738" 
d="M893 1567q-145 0 -243.5 76.5t-102.5 199.5h123q11 -77 70 -120.5t153 -43.5t154 44t69 120h123q-4 -123 -102.5 -199.5t-243.5 -76.5zM889 -20q-356 0 -563 203t-207 534q0 161 53.5 296.5t151.5 233t244 152.5t323 55q314 0 492 -134t194 -347h-164q-6 49 -24.5 95
t-57.5 92.5t-94 80.5t-140.5 55t-189.5 21h-33q-275 0 -439.5 -159t-164.5 -441q0 -281 165.5 -440.5t438.5 -159.5h33q130 0 236.5 31.5t175 85.5t105 124t36.5 148v61h-563v138h547q75 0 114 -38t39 -112v-555h-137v209q-26 -37 -69.5 -73t-111.5 -73t-170 -60t-220 -23z
" />
    <glyph glyph-name="gbreve" unicode="&#x11f;" horiz-adv-x="1366" 
d="M637 1169q-150 0 -250.5 84t-105.5 203h110q11 -80 78 -131t168 -51t168 51t78 131h110q-5 -119 -105.5 -203t-250.5 -84zM621 -451q-240 0 -381 85t-160 223h147q26 -92 126 -141.5t253 -49.5h29q182 0 298 97.5t116 281.5v150q-60 -81 -164.5 -138t-255.5 -57
q-115 0 -208.5 31t-164 93.5t-109 163.5t-38.5 234q0 129 45 231.5t120.5 164.5t167.5 94t193 32q71 0 134.5 -14t104.5 -33t79.5 -48t56.5 -47.5t39 -43.5v166h139v-995q0 -100 -35.5 -186.5t-104.5 -152.5t-178.5 -103.5t-248.5 -37.5zM625 117h28q74 0 145 28t127 78.5
t90 128.5t34 170q0 122 -55 216.5t-142 142t-188 47.5h-29q-79 0 -147 -23.5t-122 -70.5t-85 -127t-31 -185t29.5 -184.5t81.5 -127t118.5 -70.5t145.5 -23z" />
    <glyph glyph-name="Gdotaccent" unicode="&#x120;" horiz-adv-x="1738" 
d="M973 1597h-160v175h160v-175zM889 -20q-356 0 -563 203t-207 534q0 161 53.5 296.5t151.5 233t244 152.5t323 55q314 0 492 -134t194 -347h-164q-6 49 -24.5 95t-57.5 92.5t-94 80.5t-140.5 55t-189.5 21h-33q-275 0 -439.5 -159t-164.5 -441q0 -281 165.5 -440.5
t438.5 -159.5h33q130 0 236.5 31.5t175 85.5t105 124t36.5 148v61h-563v138h547q75 0 114 -38t39 -112v-555h-137v209q-26 -37 -69.5 -73t-111.5 -73t-170 -60t-220 -23z" />
    <glyph glyph-name="gdotaccent" unicode="&#x121;" horiz-adv-x="1366" 
d="M715 1208h-160v174h160v-174zM621 -451q-240 0 -381 85t-160 223h147q26 -92 126 -141.5t253 -49.5h29q182 0 298 97.5t116 281.5v150q-60 -81 -164.5 -138t-255.5 -57q-115 0 -208.5 31t-164 93.5t-109 163.5t-38.5 234q0 129 45 231.5t120.5 164.5t167.5 94t193 32
q71 0 134.5 -14t104.5 -33t79.5 -48t56.5 -47.5t39 -43.5v166h139v-995q0 -100 -35.5 -186.5t-104.5 -152.5t-178.5 -103.5t-248.5 -37.5zM625 117h28q74 0 145 28t127 78.5t90 128.5t34 170q0 122 -55 216.5t-142 142t-188 47.5h-29q-79 0 -147 -23.5t-122 -70.5t-85 -127
t-31 -185t29.5 -184.5t81.5 -127t118.5 -70.5t145.5 -23z" />
    <glyph glyph-name="uni0122" unicode="&#x122;" horiz-adv-x="1738" 
d="M889 -20q-356 0 -563 203t-207 534q0 161 53.5 296.5t151.5 233t244 152.5t323 55q314 0 492 -134t194 -347h-164q-6 49 -24.5 95t-57.5 92.5t-94 80.5t-140.5 55t-189.5 21h-33q-275 0 -439.5 -159t-164.5 -441q0 -281 165.5 -440.5t438.5 -159.5h33q130 0 236.5 31.5
t175 85.5t105 124t36.5 148v61h-563v138h547q75 0 114 -38t39 -112v-555h-137v209q-26 -37 -69.5 -73t-111.5 -73t-170 -60t-220 -23zM815 -512h-41v76h37q45 0 63.5 18t18.5 60v20h-84v154h168v-174q0 -70 -44 -112t-118 -42z" />
    <glyph glyph-name="uni0123" unicode="&#x123;" horiz-adv-x="1366" 
d="M717 1550h41v-75h-37q-45 0 -63.5 -18t-18.5 -60v-21h84v-153h-168v174q0 70 44 111.5t118 41.5zM621 -451q-240 0 -381 85t-160 223h147q26 -92 126 -141.5t253 -49.5h29q182 0 298 97.5t116 281.5v150q-60 -81 -164.5 -138t-255.5 -57q-115 0 -208.5 31t-164 93.5
t-109 163.5t-38.5 234q0 129 45 231.5t120.5 164.5t167.5 94t193 32q71 0 134.5 -14t104.5 -33t79.5 -48t56.5 -47.5t39 -43.5v166h139v-995q0 -100 -35.5 -186.5t-104.5 -152.5t-178.5 -103.5t-248.5 -37.5zM625 117h28q74 0 145 28t127 78.5t90 128.5t34 170
q0 122 -55 216.5t-142 142t-188 47.5h-29q-79 0 -147 -23.5t-122 -70.5t-85 -127t-31 -185t29.5 -184.5t81.5 -127t118.5 -70.5t145.5 -23z" />
    <glyph glyph-name="Hcircumflex" unicode="&#x124;" horiz-adv-x="1734" 
d="M618 1567h-147l297 256h201l297 -256h-148l-250 153zM367 0h-150v1434h150v-648h1001v648h150v-1434h-150v649h-1001v-649z" />
    <glyph glyph-name="hcircumflex" unicode="&#x125;" horiz-adv-x="1333" 
d="M410 1536h-140l322 266h158l321 -266h-141l-260 160zM317 0h-139v1434h139v-588q141 198 422 198q200 0 315 -117t115 -304v-623h-139v573q0 165 -74.5 260t-224.5 95h-29q-155 0 -270 -116t-115 -296v-516z" />
    <glyph glyph-name="Hbar" unicode="&#x126;" horiz-adv-x="1792" 
d="M1546 1190h189v-127h-189v-1063h-149v649h-1002v-649h-149v1063h-189v127h189v244h149v-244h1002v244h149v-244zM395 786h1002v277h-1002v-277z" />
    <glyph glyph-name="hbar" unicode="&#x127;" horiz-adv-x="1333" 
d="M739 1044q200 0 315 -117t115 -304v-623h-139v573q0 165 -74.5 260t-224.5 95h-29q-155 0 -270 -116t-115 -296v-516h-139v1180h-184v106h184v148h139v-148h428v-106h-428v-334q141 198 422 198z" />
    <glyph glyph-name="Itilde" unicode="&#x128;" horiz-adv-x="583" 
d="M483 1567q-56 0 -91.5 13.5t-104.5 55.5l-70 43q-22 13 -31 18.5t-33 12t-51 6.5q-106 0 -106 -129h-115v27q0 97 58 158t165 61q52 0 86 -11t76 -36l74 -45q5 -3 28.5 -18.5t34 -21t33.5 -12t47 -6.5q105 0 105 129h114v-26q0 -97 -57 -158t-162 -61zM367 0h-150v1434
h150v-1434z" />
    <glyph glyph-name="itilde" unicode="&#x129;" horiz-adv-x="495" 
d="M440 1169q-48 0 -92.5 15t-105.5 55l-66 43q-63 39 -115 39q-46 0 -73 -33.5t-27 -97.5h-113v27q0 99 59 159t152 60q87 0 164 -52l70 -45q3 -2 15.5 -10t16.5 -10.5t15 -8.5t17 -8.5t17 -7t19.5 -6t19.5 -3t23 -1.5q96 0 96 131h113v-26q0 -98 -59 -159t-146 -61zM317 0
h-139v1024h139v-1024z" />
    <glyph glyph-name="Imacron" unicode="&#x12a;" horiz-adv-x="583" 
d="M643 1595h-682v117h682v-117zM367 0h-150v1434h150v-1434z" />
    <glyph glyph-name="imacron" unicode="&#x12b;" horiz-adv-x="495" 
d="M532 1208h-632v113h632v-113zM317 0h-139v1024h139v-1024z" />
    <glyph glyph-name="Ibreve" unicode="&#x12c;" horiz-adv-x="583" 
d="M293 1567q-145 0 -243.5 76.5t-102.5 199.5h123q11 -77 70 -120.5t153 -43.5t154 44t69 120h123q-4 -123 -102.5 -199.5t-243.5 -76.5zM367 0h-150v1434h150v-1434z" />
    <glyph glyph-name="ibreve" unicode="&#x12d;" horiz-adv-x="495" 
d="M248 1169q-150 0 -251 84t-106 203h111q11 -80 78 -131t168 -51t168 51t78 131h110q-5 -119 -105.5 -203t-250.5 -84zM317 0h-139v1024h139v-1024z" />
    <glyph glyph-name="Iogonek" unicode="&#x12e;" horiz-adv-x="583" 
d="M301 -283h92v-116h-92q-231 0 -231 159q0 65 50 129.5t144 110.5h-47v1434h150v-1434q-191 -108 -191 -205q0 -78 125 -78z" />
    <glyph glyph-name="iogonek" unicode="&#x12f;" horiz-adv-x="495" 
d="M166 1382h160v-174h-160v174zM252 -283h92v-116h-92q-232 0 -232 159q0 65 50.5 129.5t144.5 110.5h-37v1024h139v-1024q-190 -107 -190 -205q0 -78 125 -78z" />
    <glyph glyph-name="Idotaccent" unicode="&#x130;" horiz-adv-x="583" 
d="M373 1597h-160v175h160v-175zM367 0h-150v1434h150v-1434z" />
    <glyph glyph-name="dotlessi" unicode="&#x131;" horiz-adv-x="495" 
d="M317 0h-139v1024h139v-1024z" />
    <glyph glyph-name="IJ" unicode="&#x132;" horiz-adv-x="1325" 
d="M782 0h-620v137h583q122 0 174 52t52 173v1072h149v-1096q0 -169 -89 -253.5t-249 -84.5zM311 403h-149v1031h149v-1031z" />
    <glyph glyph-name="ij" unicode="&#x133;" horiz-adv-x="1132" 
d="M330 1208h-160v174h160v-174zM965 1208h-160v174h160v-174zM745 -338h-567v117h514q69 0 96 26.5t27 96.5v1122h139v-1126q0 -101 -57 -168.5t-152 -67.5zM317 0h-139v1024h139v-1024z" />
    <glyph glyph-name="Jcircumflex" unicode="&#x134;" horiz-adv-x="940" 
d="M412 1567h-148l297 256h201l297 -256h-148l-249 153zM397 0h-340v137h303q122 0 174 52t52 173v1072h149v-1096q0 -168 -90 -253t-248 -85z" />
    <glyph glyph-name="jcircumflex" unicode="&#x135;" horiz-adv-x="516" 
d="M-2 1167h-139l321 267h158l321 -267h-141l-260 160zM129 -338h-393v117h340q69 0 96 26.5t27 96.5v1122h139v-1126q0 -101 -57 -168.5t-152 -67.5z" />
    <glyph glyph-name="uni0136" unicode="&#x136;" horiz-adv-x="1581" 
d="M1538 1434l-717 -611l750 -823h-207l-659 727l-338 -289v-438h-150v1434h150v-816l952 816h219zM862 -338h-84v154h168v-174q0 -70 -44 -112t-118 -42h-41v76h37q45 0 63.5 18t18.5 60v20z" />
    <glyph glyph-name="uni0137" unicode="&#x137;" horiz-adv-x="1228" 
d="M1182 1024l-533 -422l559 -602h-194l-473 518l-224 -178v-340h-139v1434h139v-947l658 537h207zM629 -338h-84v154h168v-174q0 -70 -44 -112t-118 -42h-41v76h37q45 0 63.5 18t18.5 60v20z" />
    <glyph glyph-name="Lacute" unicode="&#x139;" horiz-adv-x="1413" 
d="M387 1567h-131l160 256h192zM1378 0h-1161v1434h150v-1297h1011v-137z" />
    <glyph glyph-name="lacute" unicode="&#x13a;" horiz-adv-x="495" 
d="M303 1577h-110l157 266h174zM317 0h-139v1434h139v-1434z" />
    <glyph glyph-name="uni013B" unicode="&#x13b;" horiz-adv-x="1413" 
d="M1378 0h-1161v1434h150v-1297h1011v-137zM721 -512h-41v76h37q45 0 63.5 18t18.5 60v20h-84v154h168v-174q0 -70 -44 -112t-118 -42z" />
    <glyph glyph-name="uni013C" unicode="&#x13c;" horiz-adv-x="495" 
d="M317 0h-139v1434h139v-1434zM170 -512h-41v76h37q45 0 63.5 18t18.5 60v20h-84v154h168v-174q0 -70 -44 -112t-118 -42z" />
    <glyph glyph-name="Lcaron" unicode="&#x13d;" horiz-adv-x="1413" 
d="M1378 0h-1161v1434h150v-1297h1011v-137zM743 1106h-41v76h37q45 0 63.5 18t18.5 60v20h-84v154h168v-174q0 -70 -44 -112t-118 -42z" />
    <glyph glyph-name="lcaron" unicode="&#x13e;" horiz-adv-x="538" 
d="M317 0h-139v1434h139v-1434zM467 1106h-41v76h37q45 0 63.5 18t18.5 60v20h-84v154h168v-174q0 -70 -44 -112t-118 -42z" />
    <glyph glyph-name="Ldot" unicode="&#x13f;" horiz-adv-x="1415" 
d="M1378 0h-1161v1434h150v-1297h1011v-137zM1028 653h-205v205h205v-205z" />
    <glyph glyph-name="ldot" unicode="&#x140;" horiz-adv-x="643" 
d="M317 0h-139v1434h139v-1434zM672 612h-205v205h205v-205z" />
    <glyph glyph-name="Lslash" unicode="&#x141;" horiz-adv-x="1449" 
d="M403 623v-486h1012v-137h-1161v551l-186 -88v149l186 88v734h149v-662l543 256v-147z" />
    <glyph glyph-name="lslash" unicode="&#x142;" horiz-adv-x="630" 
d="M389 924l205 102v-137l-205 -105v-784h-139v715l-199 -101v140l199 100v580h139v-510z" />
    <glyph glyph-name="Nacute" unicode="&#x143;" horiz-adv-x="1728" 
d="M977 1823h192l-221 -256h-131zM1362 201v1233h149v-1434h-188l-956 1233v-1233h-150v1434h189z" />
    <glyph glyph-name="nacute" unicode="&#x144;" horiz-adv-x="1333" 
d="M745 1167h-110l158 267h174zM317 0h-139v1024h139v-188q51 89 162 148.5t260 59.5q200 0 315 -117t115 -304v-623h-139v573q0 165 -74.5 260t-224.5 95h-29q-155 0 -270 -116t-115 -296v-516z" />
    <glyph glyph-name="uni0145" unicode="&#x145;" horiz-adv-x="1728" 
d="M1362 201v1233h149v-1434h-188l-956 1233v-1233h-150v1434h189zM864 -338h-84v154h168v-174q0 -70 -44 -112t-118 -42h-41v76h37q45 0 63.5 18t18.5 60v20z" />
    <glyph glyph-name="uni0146" unicode="&#x146;" horiz-adv-x="1333" 
d="M317 0h-139v1024h139v-188q51 89 162 148.5t260 59.5q200 0 315 -117t115 -304v-623h-139v573q0 165 -74.5 260t-224.5 95h-29q-155 0 -270 -116t-115 -296v-516zM592 -512h-41v76h37q45 0 63.5 18t18.5 60v20h-84v154h168v-174q0 -70 -44 -112t-118 -42z" />
    <glyph glyph-name="Ncaron" unicode="&#x147;" horiz-adv-x="1728" 
d="M1241 1823l-276 -256h-201l-277 256h148l229 -152l230 152h147zM1362 201v1233h149v-1434h-188l-956 1233v-1233h-150v1434h189z" />
    <glyph glyph-name="ncaron" unicode="&#x148;" horiz-adv-x="1333" 
d="M770 1167h-158l-321 267h141l260 -160l260 160h140zM317 0h-139v1024h139v-188q51 89 162 148.5t260 59.5q200 0 315 -117t115 -304v-623h-139v573q0 165 -74.5 260t-224.5 95h-29q-155 0 -270 -116t-115 -296v-516z" />
    <glyph glyph-name="Eng" unicode="&#x14a;" horiz-adv-x="1728" 
d="M1290 -358h-332v137h291q62 0 87.5 23.5t25.5 84.5v66l-995 1280v-1233h-150v1434h189l956 -1233v1233h149v-1557q0 -109 -57.5 -172t-163.5 -63z" />
    <glyph glyph-name="eng" unicode="&#x14b;" horiz-adv-x="1333" 
d="M989 -338h-313v117h252q61 0 81.5 21.5t20.5 80.5v692q0 165 -74.5 260t-224.5 95h-29q-155 0 -270 -116t-115 -296v-516h-139v1024h139v-186q52 87 162.5 146.5t259.5 59.5q200 0 315 -117t115 -304v-777q0 -86 -45 -135t-135 -49z" />
    <glyph glyph-name="Omacron" unicode="&#x14c;" horiz-adv-x="1779" 
d="M1241 1595h-682v117h682v-117zM891 -20q-221 0 -395 87.5t-275.5 256.5t-101.5 393t101.5 393t275.5 256.5t395 87.5t394.5 -87.5t274.5 -256.5t101 -393t-101 -393t-274.5 -256.5t-394.5 -87.5zM874 117h33q124 0 233 41t191 115.5t130 189.5t48 254t-48 254t-130 189.5
t-191 115.5t-233 41h-33q-124 0 -233 -41t-192 -115.5t-131 -189.5t-48 -254t48 -254t131 -189.5t192 -115.5t233 -41z" />
    <glyph glyph-name="omacron" unicode="&#x14d;" horiz-adv-x="1335" 
d="M952 1208h-633v113h633v-113zM668 -20q-251 0 -406.5 145.5t-155.5 386.5t155.5 386.5t406.5 145.5q250 0 405.5 -145.5t155.5 -386.5t-155.5 -386.5t-405.5 -145.5zM653 96h29q176 0 290.5 112.5t114.5 303.5t-114.5 303.5t-290.5 112.5h-29q-177 0 -291 -112.5
t-114 -303.5t114 -303.5t291 -112.5z" />
    <glyph glyph-name="Obreve" unicode="&#x14e;" horiz-adv-x="1779" 
d="M891 1567q-145 0 -243.5 76.5t-102.5 199.5h123q11 -77 70 -120.5t153 -43.5t154 44t69 120h123q-4 -123 -102.5 -199.5t-243.5 -76.5zM891 -20q-221 0 -395 87.5t-275.5 256.5t-101.5 393t101.5 393t275.5 256.5t395 87.5t394.5 -87.5t274.5 -256.5t101 -393t-101 -393
t-274.5 -256.5t-394.5 -87.5zM874 117h33q124 0 233 41t191 115.5t130 189.5t48 254t-48 254t-130 189.5t-191 115.5t-233 41h-33q-124 0 -233 -41t-192 -115.5t-131 -189.5t-48 -254t48 -254t131 -189.5t192 -115.5t233 -41z" />
    <glyph glyph-name="obreve" unicode="&#x14f;" horiz-adv-x="1335" 
d="M668 1169q-150 0 -251 84t-106 203h111q11 -80 78 -131t168 -51t167.5 51t77.5 131h111q-5 -119 -105.5 -203t-250.5 -84zM668 -20q-251 0 -406.5 145.5t-155.5 386.5t155.5 386.5t406.5 145.5q250 0 405.5 -145.5t155.5 -386.5t-155.5 -386.5t-405.5 -145.5zM653 96h29
q176 0 290.5 112.5t114.5 303.5t-114.5 303.5t-290.5 112.5h-29q-177 0 -291 -112.5t-114 -303.5t114 -303.5t291 -112.5z" />
    <glyph glyph-name="Ohungarumlaut" unicode="&#x150;" horiz-adv-x="1779" 
d="M750 1567h-132l160 256h193zM1176 1567h-132l160 256h193zM891 -20q-221 0 -395 87.5t-275.5 256.5t-101.5 393t101.5 393t275.5 256.5t395 87.5t394.5 -87.5t274.5 -256.5t101 -393t-101 -393t-274.5 -256.5t-394.5 -87.5zM874 117h33q124 0 233 41t191 115.5t130 189.5
t48 254t-48 254t-130 189.5t-191 115.5t-233 41h-33q-124 0 -233 -41t-192 -115.5t-131 -189.5t-48 -254t48 -254t131 -189.5t192 -115.5t233 -41z" />
    <glyph glyph-name="ohungarumlaut" unicode="&#x151;" horiz-adv-x="1335" 
d="M526 1167h-110l157 267h175zM913 1167h-110l158 267h174zM668 -20q-251 0 -406.5 145.5t-155.5 386.5t155.5 386.5t406.5 145.5q250 0 405.5 -145.5t155.5 -386.5t-155.5 -386.5t-405.5 -145.5zM653 96h29q176 0 290.5 112.5t114.5 303.5t-114.5 303.5t-290.5 112.5h-29
q-177 0 -291 -112.5t-114 -303.5t114 -303.5t291 -112.5z" />
    <glyph glyph-name="OE" unicode="&#x152;" horiz-adv-x="2826" 
d="M891 -20q-221 0 -395 87.5t-275.5 256.5t-101.5 393t101.5 393t275.5 256.5t395 87.5q198 0 358.5 -74.5t261.5 -218.5v273h1186v-138h-1036v-491h913v-137h-913v-531h1057v-137h-1207v272q-101 -144 -261.5 -218t-358.5 -74zM874 117h33q124 0 233 41t191 115.5
t130 189.5t48 254t-48 254t-130 189.5t-191 115.5t-233 41h-33q-124 0 -233 -41t-192 -115.5t-131 -189.5t-48 -254t48 -254t131 -189.5t192 -115.5t233 -41z" />
    <glyph glyph-name="oe" unicode="&#x153;" horiz-adv-x="2205" 
d="M666 -20q-251 0 -405.5 145.5t-154.5 386.5t154.5 386.5t405.5 145.5q164 0 291 -68t196 -192q66 126 186.5 193t262.5 67q224 0 359.5 -135.5t135.5 -357.5v-55h-870q4 -98 36.5 -176.5t84 -126t114.5 -72.5t131 -25h29q111 0 201 55t119 142h143q-29 -143 -158.5 -228
t-316.5 -85q-153 0 -272.5 66.5t-184.5 193.5q-69 -124 -196 -192t-291 -68zM653 96h29q176 0 290.5 112.5t114.5 303.5t-114.5 303.5t-290.5 112.5h-29q-177 0 -291 -112.5t-114 -303.5t114 -303.5t291 -112.5zM1233 612h715q-6 149 -101 232.5t-231 83.5h-29
q-147 0 -238.5 -85.5t-115.5 -230.5z" />
    <glyph glyph-name="Racute" unicode="&#x154;" horiz-adv-x="1601" 
d="M813 1567h-131l160 256h192zM367 0h-150v1434h758q196 0 322 -111t126 -281q0 -131 -65 -224t-162 -126q85 0 142 -56t57 -155v-481h-150v430q0 98 -38.5 133t-145.5 35h-694v-598zM367 1296v-561h577q153 0 240.5 78t87.5 209q0 130 -86.5 202t-241.5 72h-577z" />
    <glyph glyph-name="racute" unicode="&#x155;" horiz-adv-x="854" 
d="M537 1167h-111l158 267h174zM317 0h-139v1024h129v-197q43 100 129.5 148.5t225.5 48.5h149v-141h-145q-168 0 -258.5 -91t-90.5 -257v-535z" />
    <glyph glyph-name="uni0156" unicode="&#x156;" horiz-adv-x="1601" 
d="M367 0h-150v1434h758q196 0 322 -111t126 -281q0 -131 -65 -224t-162 -126q85 0 142 -56t57 -155v-481h-150v430q0 98 -38.5 133t-145.5 35h-694v-598zM367 1296v-561h577q153 0 240.5 78t87.5 209q0 130 -86.5 202t-241.5 72h-577zM729 -512h-41v76h37q45 0 63.5 18
t18.5 60v20h-84v154h168v-174q0 -70 -44 -112t-118 -42z" />
    <glyph glyph-name="uni0157" unicode="&#x157;" horiz-adv-x="854" 
d="M317 0h-139v1024h129v-197q43 100 129.5 148.5t225.5 48.5h149v-141h-145q-168 0 -258.5 -91t-90.5 -257v-535zM180 -512h-41v76h37q45 0 63.5 18t18.5 60v20h-84v154h168v-174q0 -70 -44 -112t-118 -42z" />
    <glyph glyph-name="Rcaron" unicode="&#x158;" horiz-adv-x="1601" 
d="M829 1567h-200l-277 256h148l229 -152l229 152h148zM367 0h-150v1434h758q196 0 322 -111t126 -281q0 -131 -65 -224t-162 -126q85 0 142 -56t57 -155v-481h-150v430q0 98 -38.5 133t-145.5 35h-694v-598zM367 1296v-561h577q153 0 240.5 78t87.5 209q0 130 -86.5 202
t-241.5 72h-577z" />
    <glyph glyph-name="rcaron" unicode="&#x159;" horiz-adv-x="854" 
d="M561 1167h-158l-321 267h141l260 -160l260 160h140zM317 0h-139v1024h129v-197q43 100 129.5 148.5t225.5 48.5h149v-141h-145q-168 0 -258.5 -91t-90.5 -257v-535z" />
    <glyph glyph-name="Sacute" unicode="&#x15a;" 
d="M825 1567h-131l160 256h193zM750 -20q-308 0 -481 120t-177 351h164q6 -163 131.5 -248.5t343.5 -85.5h33q214 0 316 70t102 192q0 100 -83.5 161t-271.5 91l-223 37q-229 38 -330.5 125t-101.5 260q0 78 34 148.5t100.5 128t178 91t254.5 33.5q277 0 439 -117t184 -323
h-164q-20 145 -136 224t-306 79h-33q-186 0 -292.5 -73.5t-106.5 -186.5q0 -100 76 -154.5t243 -81.5l229 -37q232 -37 346.5 -134.5t114.5 -264.5q0 -190 -151 -297.5t-432 -107.5z" />
    <glyph glyph-name="sacute" unicode="&#x15b;" horiz-adv-x="1138" 
d="M618 1167h-110l158 267h174zM563 -20q-219 0 -341.5 87t-131.5 240h143q9 -104 97 -157.5t219 -53.5h29q138 0 217 43.5t79 122.5q0 71 -54.5 110t-184.5 64l-170 33q-162 31 -244 95t-82 184q0 98 59 166t153 99t214 31q224 0 341.5 -86.5t129.5 -240.5h-143
q-10 93 -91 152t-224 59h-29q-125 0 -196.5 -48t-71.5 -116q0 -69 48.5 -102t196.5 -62l160 -31q160 -31 245 -102t85 -195q0 -138 -119.5 -215t-333.5 -77z" />
    <glyph glyph-name="Scircumflex" unicode="&#x15c;" 
d="M492 1567h-148l297 256h201l297 -256h-148l-250 153zM750 -20q-308 0 -481 120t-177 351h164q6 -163 131.5 -248.5t343.5 -85.5h33q214 0 316 70t102 192q0 100 -83.5 161t-271.5 91l-223 37q-229 38 -330.5 125t-101.5 260q0 78 34 148.5t100.5 128t178 91t254.5 33.5
q277 0 439 -117t184 -323h-164q-20 145 -136 224t-306 79h-33q-186 0 -292.5 -73.5t-106.5 -186.5q0 -100 76 -154.5t243 -81.5l229 -37q232 -37 346.5 -134.5t114.5 -264.5q0 -190 -151 -297.5t-432 -107.5z" />
    <glyph glyph-name="scircumflex" unicode="&#x15d;" horiz-adv-x="1138" 
d="M303 1167h-139l321 267h158l322 -267h-142l-260 160zM563 -20q-219 0 -341.5 87t-131.5 240h143q9 -104 97 -157.5t219 -53.5h29q138 0 217 43.5t79 122.5q0 71 -54.5 110t-184.5 64l-170 33q-162 31 -244 95t-82 184q0 98 59 166t153 99t214 31q224 0 341.5 -86.5
t129.5 -240.5h-143q-10 93 -91 152t-224 59h-29q-125 0 -196.5 -48t-71.5 -116q0 -69 48.5 -102t196.5 -62l160 -31q160 -31 245 -102t85 -195q0 -138 -119.5 -215t-333.5 -77z" />
    <glyph glyph-name="Scedilla" unicode="&#x15e;" 
d="M643 821l229 -37q232 -37 346.5 -134.5t114.5 -264.5q0 -184 -143 -291.5t-408 -113.5v-72q79 -2 134 -49.5t55 -124.5q0 -88 -59.5 -141.5t-168.5 -53.5h-153v115h155q54 0 86.5 21t32.5 65q0 41 -33 62.5t-86 21.5h-59v158q-279 11 -434.5 130t-159.5 339h164
q6 -163 131.5 -248.5t343.5 -85.5h33q214 0 316 70t102 192q0 100 -83.5 161t-271.5 91l-223 37q-229 38 -330.5 125t-101.5 260q0 78 34 148.5t100.5 128t178 91t254.5 33.5q277 0 439 -117t184 -323h-164q-20 145 -136 224t-306 79h-33q-186 0 -292.5 -73.5t-106.5 -186.5
q0 -100 76 -154.5t243 -81.5z" />
    <glyph glyph-name="scedilla" unicode="&#x15f;" horiz-adv-x="1138" 
d="M526 600l160 -31q160 -31 245 -102t85 -195q0 -132 -109.5 -208t-306.5 -84v-72q79 -2 133.5 -49.5t54.5 -124.5q0 -88 -59 -141.5t-168 -53.5h-153v115h155q54 0 86.5 21t32.5 65q0 41 -33 62.5t-86 21.5h-59v158q-192 12 -298.5 97.5t-115.5 227.5h143
q9 -104 97 -157.5t219 -53.5h29q138 0 217 43.5t79 122.5q0 71 -54.5 110t-184.5 64l-170 33q-162 31 -244 95t-82 184q0 98 59 166t153 99t214 31q224 0 341.5 -86.5t129.5 -240.5h-143q-10 93 -91 152t-224 59h-29q-125 0 -196.5 -48t-71.5 -116q0 -69 48.5 -102
t196.5 -62z" />
    <glyph glyph-name="Scaron" unicode="&#x160;" 
d="M842 1567h-201l-276 256h147l229 -152l230 152h147zM750 -20q-308 0 -481 120t-177 351h164q6 -163 131.5 -248.5t343.5 -85.5h33q214 0 316 70t102 192q0 100 -83.5 161t-271.5 91l-223 37q-229 38 -330.5 125t-101.5 260q0 78 34 148.5t100.5 128t178 91t254.5 33.5
q277 0 439 -117t184 -323h-164q-20 145 -136 224t-306 79h-33q-186 0 -292.5 -73.5t-106.5 -186.5q0 -100 76 -154.5t243 -81.5l229 -37q232 -37 346.5 -134.5t114.5 -264.5q0 -190 -151 -297.5t-432 -107.5z" />
    <glyph glyph-name="scaron" unicode="&#x161;" horiz-adv-x="1138" 
d="M643 1167h-158l-321 267h141l260 -160l260 160h140zM563 -20q-219 0 -341.5 87t-131.5 240h143q9 -104 97 -157.5t219 -53.5h29q138 0 217 43.5t79 122.5q0 71 -54.5 110t-184.5 64l-170 33q-162 31 -244 95t-82 184q0 98 59 166t153 99t214 31q224 0 341.5 -86.5
t129.5 -240.5h-143q-10 93 -91 152t-224 59h-29q-125 0 -196.5 -48t-71.5 -116q0 -69 48.5 -102t196.5 -62l160 -31q160 -31 245 -102t85 -195q0 -138 -119.5 -215t-333.5 -77z" />
    <glyph glyph-name="uni0162" unicode="&#x162;" horiz-adv-x="1423" 
d="M786 1296v-1296h-26v-92q79 -2 133.5 -49.5t54.5 -124.5q0 -88 -59 -141.5t-168 -53.5h-154v115h156q54 0 86.5 21t32.5 65q0 41 -33 62.5t-86 21.5h-59v176h-27v1296h-604v138h1358v-138h-605z" />
    <glyph glyph-name="uni0163" unicode="&#x163;" horiz-adv-x="872" 
d="M829 0h-313h-18v-92q79 -2 133.5 -49.5t54.5 -124.5q0 -88 -59 -141.5t-168 -53.5h-154v115h156q54 0 86.5 21t32.5 65q0 41 -33 62.5t-86 21.5h-60v203q-96 56 -96 204v676h-274v117h274v332h139v-332h340v-117h-340v-647q0 -79 31.5 -111t106.5 -32h247v-117z" />
    <glyph glyph-name="Tcaron" unicode="&#x164;" horiz-adv-x="1423" 
d="M813 1567h-201l-276 256h147l230 -152l229 152h148zM786 0h-149v1296h-604v138h1358v-138h-605v-1296z" />
    <glyph glyph-name="tcaron" unicode="&#x165;" horiz-adv-x="872" 
d="M840 1106h-41v76h37q45 0 63.5 18t18.5 60v20h-84v154h167v-174q0 -70 -43.5 -112t-117.5 -42zM829 0h-313q-102 0 -156.5 61t-54.5 170v676h-274v117h274v332h139v-332h340v-117h-340v-647q0 -79 31.5 -111t106.5 -32h247v-117z" />
    <glyph glyph-name="Tbar" unicode="&#x166;" horiz-adv-x="1495" 
d="M1425 1434v-138h-604v-456h449v-127h-449v-713h-149v713h-447v127h447v456h-604v138h1357z" />
    <glyph glyph-name="tbar" unicode="&#x167;" horiz-adv-x="911" 
d="M612 117h248v-117h-313q-102 0 -156.5 61t-54.5 170v281h-275v106h275v289h-275v117h275v332h139v-332h340v-117h-340v-289h338v-106h-338v-252q0 -79 31 -111t106 -32z" />
    <glyph glyph-name="Utilde" unicode="&#x168;" horiz-adv-x="1617" 
d="M999 1567q-56 0 -91.5 13.5t-104.5 55.5l-70 43q-22 13 -31 18.5t-33 12t-51 6.5q-106 0 -106 -129h-115v27q0 97 58.5 158t165.5 61q52 0 85.5 -10.5t75.5 -36.5l74 -45q5 -3 28.5 -18.5t34 -21t33.5 -12t47 -6.5q105 0 105 129h115v-26q0 -97 -57.5 -158t-162.5 -61z
M809 -20q-301 0 -455.5 155t-154.5 430v869h149v-852q0 -227 114 -346t331 -119h32q217 0 331 119t114 346v852h149v-869q0 -273 -157.5 -429t-452.5 -156z" />
    <glyph glyph-name="utilde" unicode="&#x169;" horiz-adv-x="1316" 
d="M846 1169q-92 0 -199 70l-65 43q-63 39 -115 39q-46 0 -73 -33.5t-27 -97.5h-113v27q0 99 59 159t152 60q87 0 164 -52l69 -45q3 -2 14 -9t14.5 -9t13.5 -8t15 -8t14.5 -6.5t17 -6.5t17 -4t19 -3t19.5 -1q96 0 96 131h113v-26q0 -98 -59 -159t-146 -61zM573 -20
q-195 0 -301 109.5t-106 297.5v637h139v-592q0 -167 69 -251.5t218 -84.5h29q156 0 267 110t111 292v526h140v-1024h-140v193q-58 -95 -165 -154t-261 -59z" />
    <glyph glyph-name="Umacron" unicode="&#x16a;" horiz-adv-x="1617" 
d="M1159 1595h-682v117h682v-117zM809 -20q-301 0 -455.5 155t-154.5 430v869h149v-852q0 -227 114 -346t331 -119h32q217 0 331 119t114 346v852h149v-869q0 -273 -157.5 -429t-452.5 -156z" />
    <glyph glyph-name="umacron" unicode="&#x16b;" horiz-adv-x="1316" 
d="M938 1208h-633v113h633v-113zM573 -20q-195 0 -301 109.5t-106 297.5v637h139v-592q0 -167 69 -251.5t218 -84.5h29q156 0 267 110t111 292v526h140v-1024h-140v193q-58 -95 -165 -154t-261 -59z" />
    <glyph glyph-name="Ubreve" unicode="&#x16c;" horiz-adv-x="1617" 
d="M809 1567q-145 0 -243.5 76.5t-102.5 199.5h123q11 -77 70 -120.5t153 -43.5t154 44t69 120h123q-4 -123 -102.5 -199.5t-243.5 -76.5zM809 -20q-301 0 -455.5 155t-154.5 430v869h149v-852q0 -227 114 -346t331 -119h32q217 0 331 119t114 346v852h149v-869
q0 -273 -157.5 -429t-452.5 -156z" />
    <glyph glyph-name="ubreve" unicode="&#x16d;" horiz-adv-x="1316" 
d="M653 1169q-150 0 -250.5 84t-105.5 203h111q11 -80 77.5 -131t167.5 -51t168 51t78 131h111q-5 -119 -106 -203t-251 -84zM573 -20q-195 0 -301 109.5t-106 297.5v637h139v-592q0 -167 69 -251.5t218 -84.5h29q156 0 267 110t111 292v526h140v-1024h-140v193
q-58 -95 -165 -154t-261 -59z" />
    <glyph glyph-name="Uring" unicode="&#x16e;" horiz-adv-x="1617" 
d="M807 1554q-86 0 -148.5 53t-62.5 126t62.5 125.5t148.5 52.5t148.5 -52.5t62.5 -125.5t-62.5 -126t-148.5 -53zM809 1649q44 0 72 23.5t28 60.5t-28 60.5t-72 23.5q-46 0 -75 -23.5t-29 -60.5t29 -60.5t75 -23.5zM809 -20q-301 0 -455.5 155t-154.5 430v869h149v-852
q0 -227 114 -346t331 -119h32q217 0 331 119t114 346v852h149v-869q0 -273 -157.5 -429t-452.5 -156z" />
    <glyph glyph-name="uring" unicode="&#x16f;" horiz-adv-x="1316" 
d="M653 1169q-90 0 -155.5 57t-65.5 134t65.5 133.5t155.5 56.5q91 0 157.5 -56.5t66.5 -133.5t-66.5 -134t-157.5 -57zM655 1264q51 0 83 26.5t32 69.5t-32 69.5t-83 26.5t-83.5 -26.5t-32.5 -69.5t32.5 -69.5t83.5 -26.5zM573 -20q-195 0 -301 109.5t-106 297.5v637h139
v-592q0 -167 69 -251.5t218 -84.5h29q156 0 267 110t111 292v526h140v-1024h-140v193q-58 -95 -165 -154t-261 -59z" />
    <glyph glyph-name="Uhungarumlaut" unicode="&#x170;" horiz-adv-x="1617" 
d="M668 1567h-131l159 256h193zM1094 1567h-131l159 256h193zM809 -20q-301 0 -455.5 155t-154.5 430v869h149v-852q0 -227 114 -346t331 -119h32q217 0 331 119t114 346v852h149v-869q0 -273 -157.5 -429t-452.5 -156z" />
    <glyph glyph-name="uhungarumlaut" unicode="&#x171;" horiz-adv-x="1316" 
d="M512 1167h-111l158 267h174zM899 1167h-111l158 267h174zM573 -20q-195 0 -301 109.5t-106 297.5v637h139v-592q0 -167 69 -251.5t218 -84.5h29q156 0 267 110t111 292v526h140v-1024h-140v193q-58 -95 -165 -154t-261 -59z" />
    <glyph glyph-name="Uogonek" unicode="&#x172;" horiz-adv-x="1617" 
d="M1270 582v852h149v-869q0 -224 -107.5 -371t-310.5 -194q-190 -107 -190 -205q0 -78 125 -78h92v-116h-92q-231 0 -231 159q0 59 40.5 117.5t118.5 104.5q-18 -2 -55 -2q-301 0 -455.5 155t-154.5 430v869h149v-852q0 -227 114 -346t331 -119h32q217 0 331 119t114 346z
" />
    <glyph glyph-name="uogonek" unicode="&#x173;" horiz-adv-x="1316" 
d="M1073 -283h92v-116h-92q-231 0 -231 159q0 65 50 129.5t144 110.5h-37v193q-58 -95 -165 -154t-261 -59q-195 0 -301 109.5t-106 297.5v637h139v-592q0 -167 69 -251.5t218 -84.5h29q156 0 267 110t111 292v526h140v-1024q-191 -108 -191 -205q0 -78 125 -78z" />
    <glyph glyph-name="Wcircumflex" unicode="&#x174;" horiz-adv-x="2127" 
d="M1317 1567l-250 153l-250 -153h-147l297 256h200l297 -256h-147zM1552 127l383 1307h156l-434 -1434h-223l-369 1266l-379 -1266h-223l-420 1434h156l383 -1297l391 1297h198z" />
    <glyph glyph-name="wcircumflex" unicode="&#x175;" horiz-adv-x="1781" 
d="M1151 1167l-260 160l-260 -160h-139l321 267h158l321 -267h-141zM1284 143l309 881h150l-383 -1024h-166l-303 850l-305 -850h-164l-383 1024h149l322 -866l311 866h137z" />
    <glyph glyph-name="Ycircumflex" unicode="&#x176;" horiz-adv-x="1427" 
d="M967 1567l-250 153l-250 -153h-148l297 256h201l297 -256h-147zM717 762l495 672h191l-615 -820v-614h-149v614l-614 820h192z" />
    <glyph glyph-name="ycircumflex" unicode="&#x177;" horiz-adv-x="1241" 
d="M373 1167h-140l322 267h158l321 -267h-141l-260 160zM500 -338h-383v117h346q61 0 83.5 23t22.5 83v187l-522 952h160l432 -793l422 793h156l-508 -944v-209q0 -107 -51 -158t-158 -51z" />
    <glyph glyph-name="Ydieresis" unicode="&#x178;" horiz-adv-x="1427" 
d="M399 1761h172v-164h-172v164zM821 1761h172v-164h-172v164zM717 762l495 672h191l-615 -820v-614h-149v614l-614 820h192z" />
    <glyph glyph-name="Zacute" unicode="&#x179;" horiz-adv-x="1394" 
d="M811 1823h193l-222 -256h-131zM1286 1303l-991 -1166h1012v-137h-1219v131l991 1165h-970v138h1177v-131z" />
    <glyph glyph-name="zacute" unicode="&#x17a;" horiz-adv-x="1116" 
d="M666 1434h174l-222 -267h-110zM1004 901l-730 -780h760v-121h-944v123l729 780h-719v121h904v-123z" />
    <glyph glyph-name="Zdotaccent" unicode="&#x17b;" horiz-adv-x="1394" 
d="M618 1772h160v-175h-160v175zM1286 1303l-991 -1166h1012v-137h-1219v131l991 1165h-970v138h1177v-131z" />
    <glyph glyph-name="zdotaccent" unicode="&#x17c;" horiz-adv-x="1116" 
d="M481 1382h160v-174h-160v174zM1004 901l-730 -780h760v-121h-944v123l729 780h-719v121h904v-123z" />
    <glyph glyph-name="Zcaron" unicode="&#x17d;" horiz-adv-x="1394" 
d="M1075 1823l-276 -256h-201l-276 256h147l229 -152l230 152h147zM1286 1303l-991 -1166h1012v-137h-1219v131l991 1165h-970v138h1177v-131z" />
    <glyph glyph-name="zcaron" unicode="&#x17e;" horiz-adv-x="1116" 
d="M965 1434l-322 -267h-158l-321 267h141l260 -160l260 160h140zM1004 901l-730 -780h760v-121h-944v123l729 780h-719v121h904v-123z" />
    <glyph glyph-name="florin" unicode="&#x192;" horiz-adv-x="962" 
d="M911 1296h-133q-116 0 -161 -52t-66 -189l-23 -144h326v-127h-344l-127 -823q-30 -198 -109.5 -284.5t-246.5 -86.5h-150v138h133q119 0 165 52.5t67 188.5l125 815h-265v127h285l23 150q32 208 111 290.5t247 82.5h143v-138z" />
    <glyph glyph-name="AEacute" unicode="&#x1fc;" horiz-adv-x="2334" 
d="M1585 1823h193l-222 -256h-131zM1341 668l76 -531h850v-137h-981l-55 393h-782l-285 -393h-182l1040 1434h1122v-138h-891l70 -491h760v-137h-742zM1102 1298l-555 -768h663z" />
    <glyph glyph-name="aeacute" unicode="&#x1fd;" horiz-adv-x="2058" 
d="M1083 1167h-110l157 267h175zM494 -20q-188 0 -290 84t-102 221q0 148 105.5 223.5t279.5 85.5l431 24v41q0 129 -83.5 199t-232.5 70h-33q-119 0 -200.5 -52t-94.5 -139h-143q15 134 141 220.5t314 86.5q317 0 426 -213q73 104 190 158.5t252 54.5q224 0 360 -135.5
t136 -357.5v-55h-893q4 -98 39 -176.5t90 -126t121.5 -72.5t138.5 -25h29q111 0 200.5 55t118.5 142h143q-29 -143 -158.5 -228t-316.5 -85q-158 0 -280.5 62t-190.5 183q-140 -245 -497 -245zM1063 612h737q-6 149 -101 232.5t-231 83.5h-28q-156 0 -254.5 -85.5
t-122.5 -230.5zM508 96h29q92 0 177.5 36t144.5 110.5t59 171.5v90l-365 -19q-166 -9 -237.5 -57t-71.5 -135q0 -92 64.5 -144.5t199.5 -52.5z" />
    <glyph glyph-name="Oslashacute" unicode="&#x1fe;" horiz-adv-x="1798" 
d="M1014 1823h192l-221 -256h-131zM1657 1389l-168 -168q182 -198 182 -504q0 -224 -101 -393t-274.5 -256.5t-394.5 -87.5q-293 0 -495 151l-179 -178l-94 100l170 170q-174 196 -174 494q0 224 101.5 393t275.5 256.5t395 87.5q282 0 483 -143l179 178zM281 717
q0 -231 127 -387l874 878q-154 109 -364 109h-33q-124 0 -233 -41t-192 -115.5t-131 -189.5t-48 -254zM885 117h33q124 0 233 41t191 115.5t130 189.5t48 254q0 238 -136 397l-876 -881q159 -116 377 -116z" />
    <glyph glyph-name="oslashacute" unicode="&#x1ff;" horiz-adv-x="1341" 
d="M772 1434h174l-221 -267h-111zM1206 989l-106 -115q131 -144 131 -362q0 -241 -155.5 -386.5t-405.5 -145.5q-187 0 -328 86l-106 -115l-84 82l98 106q-141 141 -141 373q0 241 155 386.5t406 145.5q198 0 340 -94l112 121zM250 512q0 -165 90 -276l584 622
q-106 70 -240 70h-29q-177 0 -291 -112.5t-114 -303.5zM655 96h29q176 0 291 112.5t115 303.5q0 155 -82 264l-580 -618q95 -62 227 -62z" />
    <glyph glyph-name="uni0218" unicode="&#x218;" 
d="M750 -20q-308 0 -481 120t-177 351h164q6 -163 131.5 -248.5t343.5 -85.5h33q214 0 316 70t102 192q0 100 -83.5 161t-271.5 91l-223 37q-229 38 -330.5 125t-101.5 260q0 78 34 148.5t100.5 128t178 91t254.5 33.5q277 0 439 -117t184 -323h-164q-20 145 -136 224
t-306 79h-33q-186 0 -292.5 -73.5t-106.5 -186.5q0 -100 76 -154.5t243 -81.5l229 -37q232 -37 346.5 -134.5t114.5 -264.5q0 -190 -151 -297.5t-432 -107.5zM657 -512h-41v76h37q45 0 63.5 18t18.5 60v20h-84v154h168v-174q0 -70 -44 -112t-118 -42z" />
    <glyph glyph-name="uni0219" unicode="&#x219;" horiz-adv-x="1138" 
d="M563 -20q-219 0 -341.5 87t-131.5 240h143q9 -104 97 -157.5t219 -53.5h29q138 0 217 43.5t79 122.5q0 71 -54.5 110t-184.5 64l-170 33q-162 31 -244 95t-82 184q0 98 59 166t153 99t214 31q224 0 341.5 -86.5t129.5 -240.5h-143q-10 93 -91 152t-224 59h-29
q-125 0 -196.5 -48t-71.5 -116q0 -69 48.5 -102t196.5 -62l160 -31q160 -31 245 -102t85 -195q0 -138 -119.5 -215t-333.5 -77zM475 -512h-41v76h37q45 0 63.5 18t18.5 60v20h-84v154h168v-174q0 -70 -44 -112t-118 -42z" />
    <glyph glyph-name="uni021A" unicode="&#x21a;" horiz-adv-x="1423" 
d="M786 0h-149v1296h-604v138h1358v-138h-605v-1296zM635 -512h-41v76h37q45 0 63.5 18t18.5 60v20h-84v154h168v-174q0 -70 -44 -112t-118 -42z" />
    <glyph glyph-name="uni021B" unicode="&#x21b;" horiz-adv-x="872" 
d="M829 0h-313q-102 0 -156.5 61t-54.5 170v676h-274v117h274v332h139v-332h340v-117h-340v-647q0 -79 31.5 -111t106.5 -32h247v-117zM373 -512h-41v76h37q45 0 63.5 18t18.5 60v20h-84v154h168v-174q0 -70 -44 -112t-118 -42z" />
    <glyph glyph-name="uni0226" unicode="&#x226;" horiz-adv-x="1591" 
d="M717 1772h160v-175h-160v175zM1581 0h-162l-190 393h-873l-190 -393h-156l701 1434h172zM793 1292l-369 -762h737z" />
    <glyph glyph-name="uni0227" unicode="&#x227;" horiz-adv-x="1224" 
d="M684 1208h-160v174h160v-174zM494 -20q-188 0 -290 84t-102 221q0 76 29.5 134t83 94t121 56t151.5 25l431 24v41q0 129 -83.5 199t-232.5 70h-33q-119 0 -200.5 -52t-94.5 -139h-143q15 134 141 220.5t314 86.5q225 0 348 -106.5t123 -282.5v-430q0 -99 14 -225h-129
q-14 71 -14 166q-48 -78 -163 -132t-271 -54zM508 96h29q92 0 177.5 36t144.5 110.5t59 171.5v90l-365 -19q-166 -10 -237.5 -57.5t-71.5 -134.5q0 -92 64.5 -144.5t199.5 -52.5z" />
    <glyph glyph-name="uni0232" unicode="&#x232;" horiz-adv-x="1427" 
d="M385 1712h682v-117h-682v117zM717 762l495 672h191l-615 -820v-614h-149v614l-614 820h192z" />
    <glyph glyph-name="uni0233" unicode="&#x233;" horiz-adv-x="1241" 
d="M918 1208h-633v113h633v-113zM500 -338h-383v117h346q61 0 83.5 23t22.5 83v187l-522 952h160l432 -793l422 793h156l-508 -944v-209q0 -107 -51 -158t-158 -51z" />
    <glyph glyph-name="uni0237" unicode="&#x237;" horiz-adv-x="516" 
d="M129 -338h-393v117h340q69 0 96 26.5t27 96.5v1122h139v-1126q0 -101 -57 -168.5t-152 -67.5z" />
    <glyph glyph-name="uni02BC" unicode="&#x2bc;" horiz-adv-x="550" 
d="M219 952h-82v90h78q98 0 98 99v47h-114v205h215v-246q0 -93 -51 -144t-144 -51z" />
    <glyph glyph-name="circumflex" unicode="&#x2c6;" horiz-adv-x="890" 
d="M184 1167h-139l322 267h157l322 -267h-141l-261 160z" />
    <glyph glyph-name="caron" unicode="&#x2c7;" horiz-adv-x="923" 
d="M541 1167h-158l-322 267h142l260 -160l260 160h139z" />
    <glyph glyph-name="breve" unicode="&#x2d8;" horiz-adv-x="802" 
d="M401 1169q-150 0 -250.5 84t-105.5 203h111q11 -80 77.5 -131t167.5 -51t168 51t78 131h111q-5 -119 -106 -203t-251 -84z" />
    <glyph glyph-name="dotaccent" unicode="&#x2d9;" horiz-adv-x="278" 
d="M219 1208h-160v174h160v-174z" />
    <glyph glyph-name="ring" unicode="&#x2da;" horiz-adv-x="563" 
d="M281 1169q-90 0 -156 57t-66 134t66 133.5t156 56.5q91 0 157 -56.5t66 -133.5t-66.5 -134t-156.5 -57zM283 1264q51 0 82.5 26.5t31.5 69.5t-31.5 69.5t-82.5 26.5t-84 -26.5t-33 -69.5t33 -69.5t84 -26.5z" />
    <glyph glyph-name="ogonek" unicode="&#x2db;" horiz-adv-x="442" 
d="M381 -399h-92q-232 0 -232 159q0 73 62.5 143.5t177.5 116.5l57 -20q-190 -107 -190 -205q0 -78 125 -78h92v-116z" />
    <glyph glyph-name="tilde" unicode="&#x2dc;" horiz-adv-x="894" 
d="M641 1169q-92 0 -199 70l-65 43q-63 39 -115 39q-46 0 -73 -33.5t-27 -97.5h-113v27q0 99 59 159t152 60q87 0 164 -52l70 -45q3 -2 15.5 -10t16.5 -10.5t15 -8.5t17 -8.5t17 -7t19.5 -6t19.5 -3t23 -1.5q96 0 96 131h113v-26q0 -98 -59 -159t-146 -61z" />
    <glyph glyph-name="hungarumlaut" unicode="&#x2dd;" horiz-adv-x="860" 
d="M180 1167h-110l157 267h174zM567 1167h-110l157 267h174z" />
    <glyph glyph-name="uni0394" unicode="&#x394;" horiz-adv-x="1544" 
d="M684 1434h174l641 -1307v-127h-1454v127zM1331 137l-561 1163l-561 -1163h1122z" />
    <glyph glyph-name="uni03A9" unicode="&#x3a9;" horiz-adv-x="1845" 
d="M717 0h-555v137h276q-135 93 -210.5 250t-75.5 340q0 218 101.5 385t276 254.5t394.5 87.5t394 -87.5t275 -254.5t101 -385q0 -183 -75.5 -340t-211.5 -250h276v-137h-555v137q181 44 297.5 204.5t116.5 385.5q0 107 -32 201.5t-89 165t-133 121.5t-165 76.5t-183 25.5
h-33q-123 0 -232.5 -41t-192.5 -115.5t-131 -187t-48 -246.5q0 -228 113 -387.5t301 -202.5v-137z" />
    <glyph glyph-name="uni03BC" unicode="&#x3bc;" horiz-adv-x="1329" 
d="M311 -410h-133v1434h133v-635q0 -297 318 -297h20q95 0 178 44t137 132.5t54 202.5v553h133v-1024h-133v193q-47 -102 -154.5 -157.5t-259.5 -55.5q-180 0 -293 86v-476z" />
    <glyph glyph-name="pi" unicode="&#x3c0;" horiz-adv-x="1558" 
d="M449 0h-138v907h-274v117h1423v-117h-276v-692q0 -98 92 -98h184v-117h-194q-219 0 -219 215v692h-598v-907z" />
    <glyph glyph-name="Wgrave" unicode="&#x1e80;" horiz-adv-x="2127" 
d="M983 1823l160 -256h-131l-221 256h192zM1552 127l383 1307h156l-434 -1434h-223l-369 1266l-379 -1266h-223l-420 1434h156l383 -1297l391 1297h198z" />
    <glyph glyph-name="wgrave" unicode="&#x1e81;" horiz-adv-x="1781" 
d="M788 1434l158 -267h-110l-222 267h174zM1284 143l309 881h150l-383 -1024h-166l-303 850l-305 -850h-164l-383 1024h149l322 -866l311 866h137z" />
    <glyph glyph-name="Wacute" unicode="&#x1e82;" horiz-adv-x="2127" 
d="M1180 1823h192l-221 -256h-131zM1552 127l383 1307h156l-434 -1434h-223l-369 1266l-379 -1266h-223l-420 1434h156l383 -1297l391 1297h198z" />
    <glyph glyph-name="wacute" unicode="&#x1e83;" horiz-adv-x="1781" 
d="M993 1434h174l-221 -267h-110zM1284 143l309 881h150l-383 -1024h-166l-303 850l-305 -850h-164l-383 1024h149l322 -866l311 866h137z" />
    <glyph glyph-name="Wdieresis" unicode="&#x1e84;" horiz-adv-x="2127" 
d="M750 1761h172v-164h-172v164zM1171 1761h172v-164h-172v164zM1552 127l383 1307h156l-434 -1434h-223l-369 1266l-379 -1266h-223l-420 1434h156l383 -1297l391 1297h198z" />
    <glyph glyph-name="wdieresis" unicode="&#x1e85;" horiz-adv-x="1781" 
d="M590 1372h158v-164h-158v164zM1034 1372h158v-164h-158v164zM1284 143l309 881h150l-383 -1024h-166l-303 850l-305 -850h-164l-383 1024h149l322 -866l311 866h137z" />
    <glyph glyph-name="uni1E9E" unicode="&#x1e9e;" horiz-adv-x="1552" 
d="M1159 752q119 -28 199 -125t80 -236q0 -118 -60.5 -208t-160.5 -136.5t-222 -46.5h-391v137h350q156 0 244 68t88 201q0 115 -90 183t-242 68h-350v138h281q140 0 223.5 68t83.5 184q0 120 -82.5 184.5t-224.5 64.5h-518v-1296h-150v1434h696q188 0 309 -102t121 -275
q0 -103 -51.5 -184t-132.5 -121z" />
    <glyph glyph-name="Ygrave" unicode="&#x1ef2;" horiz-adv-x="1427" 
d="M633 1823l160 -256h-131l-222 256h193zM717 762l495 672h191l-615 -820v-614h-149v614l-614 820h192z" />
    <glyph glyph-name="ygrave" unicode="&#x1ef3;" horiz-adv-x="1241" 
d="M688 1167h-110l-222 267h174zM500 -338h-383v117h346q61 0 83.5 23t22.5 83v187l-522 952h160l432 -793l422 793h156l-508 -944v-209q0 -107 -51 -158t-158 -51z" />
    <glyph glyph-name="uni2002" unicode="&#x2002;" horiz-adv-x="1024" 
 />
    <glyph glyph-name="uni2003" unicode="&#x2003;" horiz-adv-x="2048" 
 />
    <glyph glyph-name="uni2009" unicode="&#x2009;" horiz-adv-x="256" 
 />
    <glyph glyph-name="uni200A" unicode="&#x200a;" horiz-adv-x="153" 
 />
    <glyph glyph-name="endash" unicode="&#x2013;" horiz-adv-x="1355" 
d="M1200 563h-1044v113h1044v-113z" />
    <glyph glyph-name="emdash" unicode="&#x2014;" horiz-adv-x="2134" 
d="M1978 563h-1822v113h1822v-113z" />
    <glyph glyph-name="uni2015" unicode="&#x2015;" horiz-adv-x="2134" 
d="M1978 563h-1822v113h1822v-113z" />
    <glyph glyph-name="quoteleft" unicode="&#x2018;" horiz-adv-x="552" 
d="M348 1382h82v-90h-78q-98 0 -98 -98v-47h115v-205h-215v246q0 93 50.5 143.5t143.5 50.5z" />
    <glyph glyph-name="quoteright" unicode="&#x2019;" horiz-adv-x="550" 
d="M219 952h-82v90h78q98 0 98 99v47h-114v205h215v-246q0 -93 -51 -144t-144 -51z" />
    <glyph glyph-name="quotesinglbase" unicode="&#x201a;" horiz-adv-x="534" 
d="M182 -236h-82v91h78q98 0 98 98v47h-114v205h215v-246q0 -93 -51 -144t-144 -51z" />
    <glyph glyph-name="quotedblleft" unicode="&#x201c;" horiz-adv-x="995" 
d="M348 1382h82v-90h-78q-98 0 -98 -98v-47h115v-205h-215v246q0 93 50.5 143.5t143.5 50.5zM791 1382h81v-90h-77q-99 0 -99 -98v-47h115v-205h-215v246q0 92 51 143t144 51z" />
    <glyph glyph-name="quotedblright" unicode="&#x201d;" horiz-adv-x="993" 
d="M219 952h-82v90h78q98 0 98 99v47h-114v205h215v-246q0 -93 -51 -144t-144 -51zM662 952h-82v90h77q99 0 99 99v47h-115v205h215v-246q0 -93 -50.5 -144t-143.5 -51z" />
    <glyph glyph-name="quotedblbase" unicode="&#x201e;" horiz-adv-x="976" 
d="M182 -236h-82v91h78q98 0 98 98v47h-114v205h215v-246q0 -93 -51 -144t-144 -51zM625 -236h-82v91h78q98 0 98 98v47h-115v205h215v-246q0 -93 -50.5 -144t-143.5 -51z" />
    <glyph glyph-name="dagger" unicode="&#x2020;" horiz-adv-x="1206" 
d="M672 -174h-137v1124h-422v117h422v541h137v-541h422v-117h-422v-1124z" />
    <glyph glyph-name="daggerdbl" unicode="&#x2021;" horiz-adv-x="1206" 
d="M672 -174h-137v539h-422v116h422v469h-422v117h422v541h137v-541h422v-117h-422v-469h422v-116h-422v-539z" />
    <glyph glyph-name="bullet" unicode="&#x2022;" horiz-adv-x="1081" 
d="M541 369q-155 0 -262 102.5t-107 245.5t107 245.5t262 102.5t261.5 -102.5t106.5 -245.5t-106.5 -245.5t-261.5 -102.5z" />
    <glyph glyph-name="ellipsis" unicode="&#x2026;" horiz-adv-x="1761" 
d="M358 0h-204v205h204v-205zM983 0h-205v205h205v-205zM1608 0h-205v205h205v-205z" />
    <glyph glyph-name="perthousand" unicode="&#x2030;" horiz-adv-x="2576" 
d="M831 1028q0 -189 -100 -301.5t-272 -112.5q-173 0 -275 113t-102 301t102.5 302t274.5 114t272 -113.5t100 -302.5zM408 0l1019 1434h140l-1020 -1434h-139zM211 1028q0 -81 25 -149.5t82 -115t137 -46.5h8q80 0 136.5 46.5t81 115t24.5 149.5t-24.5 150t-81 116
t-136.5 47h-8q-80 0 -137 -47t-82 -116t-25 -150zM2124 819q172 0 272.5 -113.5t100.5 -302.5t-100.5 -301t-272.5 -112q-103 0 -183.5 42.5t-130.5 121.5q-46 -79 -125.5 -121.5t-183.5 -42.5q-173 0 -275 112.5t-102 300.5t102.5 302t274.5 114q103 0 183 -43t126 -121
q50 78 131 121t183 43zM1497 92h8q80 0 136.5 46.5t81 115t24.5 149.5t-24.5 150t-81 116.5t-136.5 47.5h-8q-80 0 -137 -47.5t-82 -116.5t-25 -150t25 -149.5t82 -115t137 -46.5zM2120 92h8q80 0 136.5 46.5t81 115t24.5 149.5t-24.5 150t-81 116.5t-136.5 47.5h-8
q-80 0 -137 -47.5t-82 -116.5t-25 -150t25 -149.5t82 -115t137 -46.5z" />
    <glyph glyph-name="guilsinglleft" unicode="&#x2039;" horiz-adv-x="743" 
d="M645 1024l-383 -438l385 -443h-172l-389 441l389 440h170z" />
    <glyph glyph-name="guilsinglright" unicode="&#x203a;" horiz-adv-x="743" 
d="M98 1024h170l389 -440l-389 -441h-172l385 443z" />
    <glyph glyph-name="fraction" unicode="&#x2044;" horiz-adv-x="423" 
d="M-227 0h-142l1020 1434h142z" />
    <glyph glyph-name="uni2070" unicode="&#x2070;" horiz-adv-x="917" 
d="M461 840q-173 0 -275 112.5t-102 300.5t102.5 302t274.5 114t272.5 -113.5t100.5 -302.5t-100.5 -301t-272.5 -112zM457 942h8q80 0 136.5 46.5t81 115t24.5 149.5t-24.5 150t-81 116.5t-136.5 47.5h-8q-80 0 -137 -47.5t-82 -116.5t-25 -150t25 -149.5t82 -115
t137 -46.5z" />
    <glyph glyph-name="uni2074" unicode="&#x2074;" horiz-adv-x="829" 
d="M633 850h-115v197h-471v114l459 498h127v-510h141v-102h-141v-197zM518 1509l-352 -360h352v360z" />
    <glyph glyph-name="uni2075" unicode="&#x2075;" horiz-adv-x="790" 
d="M387 840q-140 0 -228 57t-98 160h125q9 -55 65 -85t134 -30h8q83 0 137 46t54 118q0 70 -52 109.5t-137 39.5h-6q-101 0 -184 -59h-109l90 463h510v-103h-420l-53 -253q73 55 193 55q132 0 212.5 -69.5t80.5 -178.5q0 -123 -92 -196.5t-230 -73.5z" />
    <glyph glyph-name="uni2076" unicode="&#x2076;" horiz-adv-x="845" 
d="M422 840q-157 0 -247.5 103.5t-90.5 287.5q0 199 106 318.5t265 119.5q76 0 136.5 -20t96 -52.5t55.5 -68.5t25 -74h-121q-14 48 -65 79.5t-123 31.5h-13q-98 0 -168.5 -77.5t-82.5 -209.5q30 51 101 83t159 32q125 0 213 -73t88 -192q0 -126 -89.5 -207t-244.5 -81z
M422 942h6q88 0 147.5 49.5t59.5 124.5q0 76 -57 125t-146 49h-6q-88 0 -146.5 -49t-58.5 -125t56 -125t145 -49z" />
    <glyph glyph-name="uni2077" unicode="&#x2077;" horiz-adv-x="686" 
d="M319 850h-124v74q0 361 315 632h-473v103h616v-109q-48 -40 -83.5 -73t-86 -94.5t-83.5 -123.5t-57 -151t-24 -184v-74z" />
    <glyph glyph-name="uni2078" unicode="&#x2078;" horiz-adv-x="788" 
d="M391 840q-121 0 -206 57.5t-85 159.5q0 67 43.5 117.5t114.5 72.5q-74 22 -122 76t-48 121q0 105 85 165t222 60t223.5 -60t86.5 -165q0 -68 -47.5 -121.5t-122.5 -75.5q68 -22 108.5 -72.5t40.5 -117.5q0 -102 -85.5 -159.5t-207.5 -57.5zM387 1305h10q75 0 129 34
t54 95q0 63 -52 98t-127 35h-10q-75 0 -126.5 -35t-51.5 -98q0 -61 51.5 -95t122.5 -34zM387 942h10q68 0 115 35.5t47 97.5q0 58 -47.5 94.5t-114.5 36.5h-10q-67 0 -114.5 -36.5t-47.5 -94.5q0 -62 47 -97.5t115 -35.5z" />
    <glyph glyph-name="uni2079" unicode="&#x2079;" horiz-adv-x="845" 
d="M391 840q-76 0 -137.5 20.5t-97.5 52t-56 65.5t-22 66h121q14 -41 65.5 -70.5t122.5 -29.5h12q98 0 169 77.5t83 209.5q-30 -51 -101 -83t-159 -32q-123 -8 -212 67.5t-89 196.5q0 126 89.5 207.5t244.5 81.5q157 0 247.5 -103.5t90.5 -287.5q0 -199 -106 -318.5
t-265 -119.5zM414 1219h6q88 0 146.5 49t58.5 125t-56 125t-145 49h-6q-88 0 -147.5 -49.5t-59.5 -124.5q0 -77 57 -125.5t146 -48.5z" />
    <glyph glyph-name="uni20A9" unicode="&#x20a9;" horiz-adv-x="2134" 
d="M1942 1434h155l-201 -660h199v-112h-231l-201 -662h-223l-193 662h-356l-199 -662h-223l-195 662h-231v112h199l-193 660h156l194 -660h381l199 660h199l192 -660h379zM1071 1266l-147 -492h290zM432 662l156 -525l157 525h-313zM1403 662l156 -535l157 535h-313z" />
    <glyph glyph-name="Euro" unicode="&#x20ac;" horiz-adv-x="1617" 
d="M918 117h20q181 0 285.5 77.5t124.5 225.5h143q-23 -208 -170 -324t-391 -116q-224 0 -379.5 112.5t-220.5 317.5l-228 -43v127l197 38q-11 68 -14 164l-183 -37v127l187 37q28 296 197.5 463.5t443.5 167.5q244 0 391 -116t170 -324h-143q-20 148 -124.5 225.5
t-285.5 77.5h-20q-199 0 -326 -122.5t-158 -342.5l506 100v-127l-514 -102v-6q0 -85 12 -158l416 80v-127l-385 -74q54 -155 170 -238t279 -83z" />
    <glyph glyph-name="uni20BF" unicode="&#x20bf;" horiz-adv-x="1576" 
d="M1438 389q0 -166 -119 -273t-293 -116v-246h-127v246h-266v-246h-127v246h-289v1434h289v245h127v-245h266v245h127v-247q169 -15 273 -117.5t104 -259.5q0 -114 -62.5 -200.5t-150.5 -125.5q101 -25 174.5 -115.5t73.5 -224.5zM940 1296h-573v-501h573q148 0 229.5 67
t81.5 193q0 110 -83 175.5t-228 65.5zM367 137h587q151 0 241.5 72t90.5 188q0 122 -89.5 191t-242.5 69h-587v-520z" />
    <glyph glyph-name="uni2105" unicode="&#x2105;" horiz-adv-x="1622" 
d="M393 840q-141 0 -225 75.5t-84 219.5q0 145 86.5 227t226.5 82q115 0 197 -55t94 -148h-127q-10 50 -54.5 78.5t-105.5 28.5h-6q-93 0 -139.5 -60.5t-46.5 -152.5q0 -90 46 -144.5t140 -54.5h6q60 0 102 28t56 76h125q-13 -94 -95.5 -147t-195.5 -53zM358 0h-141
l1020 1434h141zM1214 -10q-150 0 -239.5 81.5t-89.5 219.5t90 220.5t239 82.5q150 0 240 -82.5t90 -220.5t-90 -219.5t-240 -81.5zM1210 86h11q93 0 145.5 56t52.5 149t-53.5 150t-146.5 57h-9q-92 0 -146 -57.5t-54 -149.5t53.5 -148.5t146.5 -56.5z" />
    <glyph glyph-name="uni2113" unicode="&#x2113;" horiz-adv-x="978" 
d="M403 514v-311q0 -46 20 -66t66 -20h293v-117h-331q-96 0 -141.5 53.5t-45.5 161.5v223l-168 -90v133l168 90v535q0 166 84 257t236 91q84 0 150.5 -31t106.5 -81.5t60.5 -110.5t20.5 -123q0 -161 -94.5 -292.5t-270.5 -219.5zM403 1108v-463l66 35q311 158 311 416
q0 117 -54 179t-142 62q-83 0 -132 -57.5t-49 -171.5z" />
    <glyph glyph-name="uni2116" unicode="&#x2116;" horiz-adv-x="2488" 
d="M2044 840q-150 0 -240 81.5t-90 219.5t90 220.5t240 82.5t240 -82.5t90 -220.5t-90 -219.5t-240 -81.5zM412 1434l956 -1233v1233h150v-1434h-189l-956 1233v-1233h-150v1434h189zM2048 1348h-8q-92 0 -146.5 -57.5t-54.5 -149.5t54 -148.5t147 -56.5h10q93 0 146 56
t53 149t-54 150t-147 57zM2359 621h-630v96h630v-96z" />
    <glyph glyph-name="uni2117" unicode="&#x2117;" horiz-adv-x="2113" 
d="M1057 -82q-200 0 -376 63.5t-299.5 171t-195 254.5t-71.5 310t71.5 310t195 254.5t299.5 171t376 63.5t376 -63.5t299.5 -171t195 -254.5t71.5 -310t-71.5 -310t-195 -254.5t-299.5 -171t-376 -63.5zM1057 20q178 0 334.5 55.5t265.5 149.5t172 222t63 270t-63 270
t-172 222t-265.5 149t-334.5 55t-334.5 -55t-266 -149t-172.5 -222t-63 -270t63 -270t172.5 -222t266 -149.5t334.5 -55.5zM944 342h-129v770h350q77 0 140 -23t105 -78t42 -134t-42.5 -133.5t-105.5 -77.5t-141 -23h-219v-301zM944 1006v-256h203q176 0 176 129
q0 38 -14.5 64t-40.5 39.5t-55 18.5t-66 5h-203z" />
    <glyph glyph-name="trademark" unicode="&#x2122;" horiz-adv-x="2258" 
d="M408 1327h-330v107h788v-107h-329v-672h-129v672zM1587 784l287 650h199v-779h-129v654l-285 -654h-143l-295 652v-652h-129v779h200z" />
    <glyph glyph-name="uni2126" unicode="&#x2126;" horiz-adv-x="1820" 
d="M705 0h-555v137h276q-136 93 -211.5 250t-75.5 340q0 218 101.5 385t276 254.5t394.5 87.5t394 -87.5t275 -254.5t101 -385q0 -183 -75.5 -340t-210.5 -250h276v-137h-555v137q181 44 297.5 204.5t116.5 385.5q0 107 -32 201.5t-89 165t-133 121.5t-165 76.5t-183 25.5
h-33q-123 0 -232.5 -41t-192.5 -115.5t-131 -187t-48 -246.5q0 -228 113 -387.5t301 -202.5v-137z" />
    <glyph glyph-name="uni2153" unicode="&#x2153;" horiz-adv-x="1861" 
d="M446 625h-116v649l-281 -193v127l320 226h77v-809zM356 0h-141l1020 1434h141zM1399 -10q-130 0 -223 61t-93 162h125q5 -53 56.5 -87t128.5 -34h10q85 0 140.5 38t55.5 103q0 59 -50.5 93t-127.5 34h-131v97h135q77 0 122.5 32.5t45.5 92.5q0 66 -49.5 100.5
t-134.5 34.5h-10q-77 0 -125 -32t-53 -81h-125q0 100 91 157.5t222 57.5t220 -59.5t89 -165.5q0 -63 -41 -112t-112 -74q76 -23 117.5 -72.5t41.5 -114.5q0 -105 -97 -168t-228 -63z" />
    <glyph glyph-name="uni2154" unicode="&#x2154;" horiz-adv-x="2021" 
d="M713 625h-627v141l299 217q118 86 154 126.5t36 98.5q0 59 -48 96t-121 37h-11q-66 0 -122 -36.5t-56 -94.5h-127q0 103 92 168.5t221 65.5q132 0 217 -63t85 -173q0 -44 -14 -81t-47 -72t-58 -55.5t-74 -57.5l-297 -215h498v-102zM569 0h-141l1020 1434h141zM1612 -10
q-130 0 -223 61t-93 162h125q5 -53 56.5 -87t128.5 -34h10q85 0 140.5 38t55.5 103q0 59 -50.5 93t-127.5 34h-131v97h135q77 0 122.5 32.5t45.5 92.5q0 66 -49.5 100.5t-134.5 34.5h-10q-77 0 -125 -32t-53 -81h-125q0 100 91 157.5t222 57.5t220 -59.5t89 -165.5
q0 -63 -41 -112t-112 -74q76 -23 117.5 -72.5t41.5 -114.5q0 -105 -97 -168t-228 -63z" />
    <glyph glyph-name="uni2155" unicode="&#x2155;" horiz-adv-x="1853" 
d="M446 625h-116v649l-281 -193v127l320 226h77v-809zM356 0h-141l1020 1434h141zM1395 -10q-140 0 -228 57t-98 160h125q9 -55 65 -85t134 -30h8q83 0 136.5 46t53.5 118q0 71 -51.5 110.5t-136.5 39.5h-6q-101 0 -185 -60h-108l90 463h510v-102h-420l-53 -254
q73 55 192 55q132 0 212.5 -69.5t80.5 -178.5q0 -123 -92 -196.5t-229 -73.5z" />
    <glyph glyph-name="uni2156" unicode="&#x2156;" horiz-adv-x="2013" 
d="M713 625h-627v141l299 217q118 86 154 126.5t36 98.5q0 59 -48 96t-121 37h-11q-66 0 -122 -36.5t-56 -94.5h-127q0 103 92 168.5t221 65.5q132 0 217 -63t85 -173q0 -44 -14 -81t-47 -72t-58 -55.5t-74 -57.5l-297 -215h498v-102zM569 0h-141l1020 1434h141zM1608 -10
q-140 0 -228 57t-98 160h125q9 -55 65 -85t134 -30h8q83 0 136.5 46t53.5 118q0 71 -51.5 110.5t-136.5 39.5h-6q-101 0 -185 -60h-108l90 463h510v-102h-420l-53 -254q73 55 192 55q132 0 212.5 -69.5t80.5 -178.5q0 -123 -92 -196.5t-229 -73.5z" />
    <glyph glyph-name="uni2157" unicode="&#x2157;" horiz-adv-x="2029" 
d="M391 614q-129 0 -222 61t-93 163h125q5 -53 56 -87t128 -34h10q85 0 141 38t56 103q0 59 -50.5 93t-127.5 34h-131v96h135q77 0 122.5 32.5t45.5 92.5q0 66 -49.5 100.5t-135.5 34.5h-10q-77 0 -125 -31.5t-53 -80.5h-125q0 100 91 157.5t222 57.5t220.5 -59.5
t89.5 -165.5q0 -63 -41.5 -112.5t-112.5 -74.5q76 -23 118 -72t42 -114q0 -105 -97.5 -168.5t-228.5 -63.5zM580 0h-142l1020 1434h141zM1618 -10q-140 0 -228 57t-98 160h125q9 -55 65 -85t134 -30h8q83 0 137 46t54 118q0 71 -52 110.5t-137 39.5h-6q-100 0 -184 -60h-109
l90 463h510v-102h-420l-53 -254q73 55 193 55q132 0 212 -69.5t80 -178.5q0 -123 -92 -196.5t-229 -73.5z" />
    <glyph glyph-name="uni2158" unicode="&#x2158;" horiz-adv-x="2017" 
d="M633 625h-115v196h-471v115l459 498h127v-510h141v-103h-141v-196zM602 0h-141l1020 1434h141zM518 1284l-352 -360h352v360zM1640 -10q-140 0 -227.5 57t-97.5 160h125q9 -55 65 -85t133 -30h9q83 0 136.5 46t53.5 118q0 71 -51.5 110.5t-136.5 39.5h-7q-100 0 -184 -60
h-108l90 463h510v-102h-420l-53 -254q73 55 192 55q132 0 212.5 -69.5t80.5 -178.5q0 -123 -92 -196.5t-230 -73.5z" />
    <glyph glyph-name="uni2159" unicode="&#x2159;" horiz-adv-x="1912" 
d="M446 625h-116v649l-281 -193v127l320 226h77v-809zM356 0h-141l1020 1434h141zM1430 -10q-157 0 -247.5 103.5t-90.5 287.5q0 199 105.5 318.5t264.5 119.5q76 0 136.5 -20t96.5 -52.5t56 -68.5t25 -74h-121q-14 48 -65 79.5t-124 31.5h-12q-98 0 -169 -77.5t-83 -209.5
q30 51 101 83t159 32q125 0 213 -72.5t88 -191.5q0 -126 -89.5 -207.5t-243.5 -81.5zM1430 92h6q88 0 147 49.5t59 124.5q0 77 -56.5 125.5t-145.5 48.5h-6q-88 0 -146.5 -49t-58.5 -125t56 -125t145 -49z" />
    <glyph glyph-name="uni215A" unicode="&#x215a;" horiz-adv-x="2064" 
d="M387 614q-140 0 -228 57t-98 160h125q9 -55 65 -84.5t134 -29.5h8q83 0 137 46t54 118q0 70 -52 109.5t-137 39.5h-6q-101 0 -184 -59h-109l90 463h510v-103h-420l-53 -254q74 56 193 56q132 0 212.5 -69.5t80.5 -178.5q0 -123 -92.5 -197t-229.5 -74zM563 0h-141
l1020 1434h141zM1636 -10q-157 0 -247.5 103.5t-90.5 287.5q0 199 106 318.5t265 119.5q76 0 136.5 -20t96 -52.5t55.5 -68.5t25 -74h-120q-14 48 -65 79.5t-124 31.5h-12q-98 0 -169 -77.5t-83 -209.5q30 51 101 83t159 32q125 0 213 -72.5t88 -191.5q0 -126 -89.5 -207.5
t-244.5 -81.5zM1636 92h6q88 0 147.5 49.5t59.5 124.5q0 77 -56.5 125.5t-145.5 48.5h-7q-88 0 -146 -49t-58 -125t55.5 -125t144.5 -49z" />
    <glyph glyph-name="oneeighth" unicode="&#x215b;" horiz-adv-x="1849" 
d="M446 625h-116v649l-281 -193v127l320 226h77v-809zM356 0h-141l1020 1434h141zM1399 -10q-121 0 -206 57.5t-85 159.5q0 67 43.5 117.5t114.5 72.5q-74 22 -122 76t-48 121q0 105 85 165t222 60t223 -60t86 -165q0 -68 -47.5 -121.5t-122.5 -75.5q68 -22 109 -72.5
t41 -117.5q0 -102 -85.5 -159.5t-207.5 -57.5zM1395 455h10q75 0 128.5 34t53.5 95q0 63 -51.5 98t-126.5 35h-10q-75 0 -126.5 -35t-51.5 -98q0 -61 51.5 -95t122.5 -34zM1395 92h10q68 0 115 35.5t47 97.5q0 58 -47.5 94.5t-114.5 36.5h-10q-67 0 -114.5 -36.5
t-47.5 -94.5q0 -62 47 -97.5t115 -35.5z" />
    <glyph glyph-name="threeeighths" unicode="&#x215c;" horiz-adv-x="2025" 
d="M391 614q-129 0 -222 61t-93 163h125q5 -53 56 -87t128 -34h10q85 0 141 38t56 103q0 59 -50.5 93t-127.5 34h-131v96h135q77 0 122.5 32.5t45.5 92.5q0 66 -49.5 100.5t-135.5 34.5h-10q-77 0 -125 -31.5t-53 -80.5h-125q0 100 91 157.5t222 57.5t220.5 -59.5
t89.5 -165.5q0 -63 -41.5 -112.5t-112.5 -74.5q76 -23 118 -72t42 -114q0 -105 -97.5 -168.5t-228.5 -63.5zM580 0h-142l1020 1434h141zM1622 -10q-121 0 -206 57.5t-85 159.5q0 67 43.5 117.5t114.5 72.5q-74 22 -122 76t-48 121q0 105 85 165t222 60t223 -60t86 -165
q0 -68 -47.5 -121.5t-122.5 -75.5q68 -22 109 -72.5t41 -117.5q0 -102 -85.5 -159.5t-207.5 -57.5zM1618 455h10q75 0 128.5 34t53.5 95q0 63 -51.5 98t-126.5 35h-10q-75 0 -126.5 -35t-51.5 -98q0 -61 51.5 -95t122.5 -34zM1618 92h10q68 0 115 35.5t47 97.5
q0 58 -47.5 94.5t-114.5 36.5h-10q-67 0 -114.5 -36.5t-47.5 -94.5q0 -62 47 -97.5t115 -35.5z" />
    <glyph glyph-name="fiveeighths" unicode="&#x215d;" horiz-adv-x="2000" 
d="M387 614q-140 0 -228 57t-98 160h125q9 -55 65 -84.5t134 -29.5h8q83 0 137 46t54 118q0 70 -52 109.5t-137 39.5h-6q-101 0 -184 -59h-109l90 463h510v-103h-420l-53 -254q74 56 193 56q132 0 212.5 -69.5t80.5 -178.5q0 -123 -92.5 -197t-229.5 -74zM563 0h-141
l1020 1434h141zM1606 -10q-121 0 -206 57.5t-85 159.5q0 67 43.5 117.5t114.5 72.5q-74 22 -122 76t-48 121q0 105 85 165t222 60t223 -60t86 -165q0 -68 -47.5 -121.5t-122.5 -75.5q68 -22 108.5 -72.5t40.5 -117.5q0 -102 -85 -159.5t-207 -57.5zM1602 455h10q74 0 128 34
t54 95q0 63 -51.5 98t-126.5 35h-10q-75 0 -127 -35t-52 -98q0 -61 52 -95t123 -34zM1602 92h10q68 0 115 35.5t47 97.5q0 58 -47.5 94.5t-114.5 36.5h-10q-67 0 -114.5 -36.5t-47.5 -94.5q0 -62 47 -97.5t115 -35.5z" />
    <glyph glyph-name="seveneighths" unicode="&#x215e;" horiz-adv-x="1761" 
d="M319 625h-124v73q0 91 21.5 177.5t53.5 151.5t77 126.5t82.5 101t80.5 76.5h-473v103h616v-109q-48 -40 -83.5 -73t-86 -95t-83.5 -124t-57 -151t-24 -184v-73zM373 0h-142l1020 1434h142zM1415 -10q-121 0 -206 57.5t-85 159.5q0 67 43.5 117.5t114.5 72.5
q-74 22 -122 76t-48 121q0 105 85 165t222 60t223.5 -60t86.5 -165q0 -68 -47.5 -121.5t-122.5 -75.5q68 -22 108.5 -72.5t40.5 -117.5q0 -102 -85.5 -159.5t-207.5 -57.5zM1411 455h10q75 0 129 34t54 95q0 63 -52 98t-127 35h-10q-75 0 -126.5 -35t-51.5 -98
q0 -61 51.5 -95t122.5 -34zM1411 92h10q68 0 115 35.5t47 97.5q0 58 -47.5 94.5t-114.5 36.5h-10q-67 0 -114.5 -36.5t-47.5 -94.5q0 -62 47 -97.5t115 -35.5z" />
    <glyph glyph-name="uni215F" unicode="&#x215f;" horiz-adv-x="1007" 
d="M446 625h-116v649l-281 -193v127l320 226h77v-809zM356 0h-141l1020 1434h141z" />
    <glyph glyph-name="uni2160" unicode="&#x2160;" horiz-adv-x="1087" 
d="M979 0h-870v117h364v1200h-364v117h870v-117h-365v-1200h365v-117z" />
    <glyph glyph-name="uni2161" unicode="&#x2161;" horiz-adv-x="1794" 
d="M1686 0h-1577v117h364v1200h-364v117h1577v-117h-365v-1200h365v-117zM614 1317v-1200h566v1200h-566z" />
    <glyph glyph-name="uni2162" unicode="&#x2162;" horiz-adv-x="2500" 
d="M2392 0h-2283v117h364v1200h-364v117h2283v-117h-364v-1200h364v-117zM614 1317v-1200h566v1200h-566zM1321 1317v-1200h565v1200h-565z" />
    <glyph glyph-name="uni2163" unicode="&#x2163;" horiz-adv-x="2533" 
d="M2132 0h-2013v117h364v1200h-364v117h1290v-117h-244l445 -1106l442 1106h-244v117h652v-117h-260l-482 -1200h414v-117zM625 1317v-1200h872l-481 1200h-391z" />
    <glyph glyph-name="uni2164" unicode="&#x2164;" horiz-adv-x="1849" 
d="M1470 0h-1091v117h434l-481 1200h-262v117h655v-117h-244l445 -1106l442 1106h-244v117h656v-117h-264l-482 -1200h436v-117z" />
    <glyph glyph-name="uni2165" unicode="&#x2165;" horiz-adv-x="2537" 
d="M2415 0h-2036v117h434l-481 1200h-262v117h655v-117h-244l445 -1106l442 1106h-244v117h1291v-117h-365v-1200h365v-117zM1516 1317l-482 -1200h875v1200h-393z" />
    <glyph glyph-name="uni2166" unicode="&#x2166;" horiz-adv-x="3241" 
d="M3119 0h-2740v117h434l-481 1200h-262v117h655v-117h-244l445 -1106l442 1106h-244v117h1995v-117h-364v-1200h364v-117zM1516 1317l-482 -1200h875v1200h-393zM2050 1317v-1200h563v1200h-563z" />
    <glyph glyph-name="uni2167" unicode="&#x2167;" horiz-adv-x="3946" 
d="M3824 0h-3445v117h434l-481 1200h-262v117h655v-117h-244l445 -1106l442 1106h-244v117h2700v-117h-365v-1200h365v-117zM1516 1317l-482 -1200h875v1200h-393zM2050 1317v-1200h563v1200h-563zM2755 1317v-1200h563v1200h-563z" />
    <glyph glyph-name="uni2168" unicode="&#x2168;" horiz-adv-x="2420" 
d="M2318 0h-2209v117h364v1200h-364v117h2189v-117h-248l-455 -592l465 -608h258v-117zM614 1317v-1200h344l465 604l-454 596h-355zM1143 1317l368 -481l371 481h-739zM1507 612l-381 -495h760z" />
    <glyph glyph-name="uni2169" unicode="&#x2169;" horiz-adv-x="1822" 
d="M1720 0h-1618v117h258l465 604l-454 596h-248v117h1577v-117h-248l-455 -592l465 -608h258v-117zM545 1317l368 -481l371 481h-739zM909 612l-381 -495h760z" />
    <glyph glyph-name="uni216C" unicode="&#x216c;" horiz-adv-x="1648" 
d="M1552 0h-1443v117h344v1200h-344v117h829v-117h-344v-1200h817v403h141v-520z" />
    <glyph glyph-name="uni216D" unicode="&#x216d;" horiz-adv-x="1712" 
d="M883 -20q-230 0 -404.5 97t-265 263.5t-90.5 376.5t90.5 376.5t265 263.5t404.5 97q178 0 313 -56.5t215 -158.5v195h137v-441h-137q-39 158 -182 251t-336 93h-21q-143 0 -260.5 -50.5t-192.5 -136t-116 -197t-41 -236.5t41 -236.5t116 -197.5t192.5 -136.5t260.5 -50.5
h21q196 0 338.5 90.5t179.5 253.5h137v-440h-137v184q-83 -97 -218.5 -150.5t-309.5 -53.5z" />
    <glyph glyph-name="uni216E" unicode="&#x216e;" horiz-adv-x="1841" 
d="M885 0h-776v117h346v1200h-346v117h770q251 0 440.5 -86t294 -248.5t104.5 -380.5q0 -225 -105 -389t-292 -247t-436 -83zM592 1317v-1200h242q356 0 550.5 150.5t194.5 447.5q0 290 -187.5 446t-537.5 156h-262z" />
    <glyph glyph-name="uni216F" unicode="&#x216f;" horiz-adv-x="2547" 
d="M795 0h-686v117h344v1200h-344v119h577l590 -1270l590 1270h573v-119h-344v-1200h344v-117h-686v117h205v1188l-606 -1305h-158l-604 1305v-1188h205v-117z" />
    <glyph glyph-name="arrowleft" unicode="&#x2190;" horiz-adv-x="1894" 
d="M776 182l-98 -98l-637 637l637 637l98 -98l-469 -469h1526v-140h-1526z" />
    <glyph glyph-name="arrowup" unicode="&#x2191;" horiz-adv-x="1622" 
d="M881 0h-140v1249l-469 -469l-98 99l637 637l637 -637l-98 -99l-469 469v-1249z" />
    <glyph glyph-name="arrowright" unicode="&#x2192;" horiz-adv-x="1894" 
d="M1118 1260l99 98l636 -637l-636 -637l-99 98l469 469h-1526v140h1526z" />
    <glyph glyph-name="arrowdown" unicode="&#x2193;" horiz-adv-x="1622" 
d="M741 1434h140v-1250l469 469l98 -98l-637 -637l-637 637l98 98l469 -469v1250z" />
    <glyph glyph-name="uni2196" unicode="&#x2196;" horiz-adv-x="1331" 
d="M1229 412l-99 -99l-882 883v-664h-139v902h901v-140h-664z" />
    <glyph glyph-name="uni2197" unicode="&#x2197;" horiz-adv-x="1331" 
d="M201 313l-99 99l883 882h-663v140h901v-902h-140v664z" />
    <glyph glyph-name="uni2198" unicode="&#x2198;" horiz-adv-x="1331" 
d="M102 1022l99 98l882 -882v663h140v-901h-901v139h663z" />
    <glyph glyph-name="uni2199" unicode="&#x2199;" horiz-adv-x="1331" 
d="M1130 1120l99 -98l-883 -883h664v-139h-901v901h139v-663z" />
    <glyph glyph-name="uni21A4" unicode="&#x21a4;" horiz-adv-x="2052" 
d="M797 182l-99 -98l-637 637l637 637l99 -98l-469 -469h1413v442h137v-1024h-137v442h-1413z" />
    <glyph glyph-name="uni21A5" unicode="&#x21a5;" horiz-adv-x="1755" 
d="M1391 0h-1024v133h442v1116l-469 -469l-98 99l637 637l637 -637l-99 -99l-469 469v-1116h443v-133z" />
    <glyph glyph-name="uni21A6" unicode="&#x21a6;" horiz-adv-x="2052" 
d="M1255 1260l99 98l637 -637l-637 -637l-99 98l469 469h-1413v-442h-137v1024h137v-442h1413z" />
    <glyph glyph-name="uni21A7" unicode="&#x21a7;" horiz-adv-x="1755" 
d="M367 1434h1024v-134h-443v-1116l469 469l99 -98l-637 -637l-637 637l98 98l469 -469v1116h-442v134z" />
    <glyph glyph-name="uni21B0" unicode="&#x21b0;" horiz-adv-x="2007" 
d="M1833 0h-137v651h-1389l469 -469l-98 -98l-637 637l637 637l98 -98l-469 -469h1526v-791z" />
    <glyph glyph-name="uni21B1" unicode="&#x21b1;" horiz-adv-x="2007" 
d="M311 0h-137v791h1526l-469 469l98 98l637 -637l-637 -637l-98 98l469 469h-1389v-651z" />
    <glyph glyph-name="uni21B2" unicode="&#x21b2;" horiz-adv-x="2007" 
d="M1696 1434h137v-791h-1526l469 -469l-98 -98l-637 637l637 637l98 -99l-469 -469h1389v652z" />
    <glyph glyph-name="uni21B3" unicode="&#x21b3;" horiz-adv-x="2007" 
d="M174 1434h137v-652h1389l-469 469l98 99l637 -637l-637 -637l-98 98l469 469h-1526v791z" />
    <glyph glyph-name="partialdiff" unicode="&#x2202;" horiz-adv-x="1349" 
d="M659 -20q-254 0 -402 140t-148 374q0 221 147.5 360t384.5 139q284 0 416 -155l-19 69q-23 88 -63.5 157.5t-91.5 116.5t-113.5 78t-128.5 44.5t-139 13.5q-133 0 -236 -31v137q111 31 238 31q172 0 309 -64t224.5 -177.5t133.5 -265t46 -329.5q0 -163 -41.5 -286.5
t-117 -199.5t-176 -114t-223.5 -38zM655 117h11q83 0 155 23t128 68t88 118t32 166q0 185 -110.5 279.5t-292.5 94.5h-21q-181 0 -285 -93t-104 -279q0 -185 109 -281t290 -96z" />
    <glyph glyph-name="uni2206" unicode="&#x2206;" horiz-adv-x="1609" 
d="M717 1434h174l641 -1307v-127h-1454v127zM1364 137l-561 1163l-561 -1163h1122z" />
    <glyph glyph-name="product" unicode="&#x220f;" horiz-adv-x="1660" 
d="M494 0h-148v1296h-272v138h1513v-138h-272v-1296h-148v1296h-673v-1296z" />
    <glyph glyph-name="summation" unicode="&#x2211;" horiz-adv-x="1257" 
d="M111 1434h1026v-138h-828l502 -579l-516 -580h842v-137h-1026v139l512 572l-512 589v134z" />
    <glyph glyph-name="minus" unicode="&#x2212;" horiz-adv-x="1380" 
d="M1217 461h-1053v137h1053v-137z" />
    <glyph glyph-name="uni2215" unicode="&#x2215;" horiz-adv-x="931" 
d="M213 0h-147l661 1434h147z" />
    <glyph glyph-name="uni2219" unicode="&#x2219;" horiz-adv-x="1179" 
d="M590 369q-155 0 -262 102.5t-107 245.5t107 245.5t262 102.5t261.5 -102.5t106.5 -245.5t-106.5 -245.5t-261.5 -102.5z" />
    <glyph glyph-name="radical" unicode="&#x221a;" horiz-adv-x="1581" 
d="M922 1434h579v-134h-477l-365 -1300h-172l-430 1024h150l364 -872z" />
    <glyph glyph-name="infinity" unicode="&#x221e;" horiz-adv-x="1961" 
d="M537 348q-176 0 -293 107.5t-117 281.5t117 281.5t293 107.5q47 0 89 -8t75 -19.5t67.5 -33.5t58 -41t54.5 -52t50.5 -56.5t51.5 -63.5q46 58 72 88.5t71 72t84 62t95.5 36t121.5 15.5q176 0 292 -107.5t116 -281.5t-116 -281.5t-292 -107.5q-65 0 -121 14t-96 34.5
t-83.5 59.5t-71.5 71t-72 87q-43 -54 -72 -87t-72.5 -71.5t-84 -59t-96.5 -34.5t-121 -14zM537 481h10q106 0 184 62t174 194q-96 132 -174 194t-184 62h-10q-128 0 -199.5 -67t-71.5 -189t71.5 -189t199.5 -67zM1417 481h10q128 0 198.5 66.5t70.5 189.5t-70.5 189.5
t-198.5 66.5h-10q-106 0 -184 -62t-174 -194q96 -132 174 -194t184 -62z" />
    <glyph glyph-name="integral" unicode="&#x222b;" horiz-adv-x="886" 
d="M162 -205h-129v137h112q126 0 175 55t49 187v870q0 390 354 390h129v-138h-113q-126 0 -174.5 -54.5t-48.5 -186.5v-871q0 -389 -354 -389z" />
    <glyph glyph-name="approxequal" unicode="&#x2248;" horiz-adv-x="1335" 
d="M924 569q-58 0 -164.5 41.5t-202.5 83t-129 41.5q-71 0 -98 -39t-27 -106h-137v51q0 102 66.5 169t179.5 67q58 0 164 -41.5t202 -83t129 -41.5q71 0 98 35t27 100h137v-51q0 -103 -63 -164.5t-182 -61.5zM924 180q-58 0 -164.5 41.5t-202.5 83t-129 41.5q-71 0 -98 -39
t-27 -106h-137v51q0 102 66.5 168.5t179.5 66.5q58 0 164 -41t202 -82.5t129 -41.5q71 0 98 35t27 100h137v-51q0 -103 -63 -164.5t-182 -61.5z" />
    <glyph glyph-name="notequal" unicode="&#x2260;" horiz-adv-x="1421" 
d="M1257 782v-137h-428l-90 -237h518v-138h-571l-92 -239h-148l93 239h-375v138h428l90 237h-518v137h571l92 242h148l-92 -242h374z" />
    <glyph glyph-name="lessequal" unicode="&#x2264;" horiz-adv-x="1406" 
d="M152 733l1093 311v-145l-889 -242l889 -241v-150l-1093 312v155zM1245 47h-1093v137h1093v-137z" />
    <glyph glyph-name="greaterequal" unicode="&#x2265;" horiz-adv-x="1406" 
d="M162 895v149l1093 -311v-155l-1093 -312v146l889 241zM1255 47h-1093v137h1093v-137z" />
    <glyph glyph-name="angleleft" unicode="&#x2329;" horiz-adv-x="800" 
d="M768 -174h-152l-577 891l577 891h152l-571 -887z" />
    <glyph glyph-name="angleright" unicode="&#x232a;" horiz-adv-x="800" 
d="M33 1608h151l578 -891l-578 -891h-151l571 887z" />
    <glyph glyph-name="uni2460" unicode="&#x2460;" horiz-adv-x="2088" 
d="M1044 -82q-200 0 -376 63.5t-299.5 171t-195 254.5t-71.5 310t71.5 310t195 254.5t299.5 171t376 63.5t376 -63.5t300 -171t195.5 -254.5t71.5 -310t-71.5 -310t-195.5 -254.5t-300 -171t-376 -63.5zM1044 20q178 0 334 55.5t264.5 149.5t171 222t62.5 270t-62.5 270
t-171 222t-264.5 149t-334 55t-334 -55t-264 -149t-170.5 -222t-62.5 -270t62.5 -270t170.5 -222t264 -149.5t334 -55.5zM1128 322h-116v649l-281 -193v127l320 225h77v-808z" />
    <glyph glyph-name="uni2461" unicode="&#x2461;" horiz-adv-x="2088" 
d="M1044 -82q-200 0 -376 63.5t-299.5 171t-195 254.5t-71.5 310t71.5 310t195 254.5t299.5 171t376 63.5t376 -63.5t300 -171t195.5 -254.5t71.5 -310t-71.5 -310t-195.5 -254.5t-300 -171t-376 -63.5zM1044 20q178 0 334 55.5t264.5 149.5t171 222t62.5 270t-62.5 270
t-171 222t-264.5 149t-334 55t-334 -55t-264 -149t-170.5 -222t-62.5 -270t62.5 -270t170.5 -222t264 -149.5t334 -55.5zM1370 322h-627v141l299 217q119 86 155 127t36 98q0 59 -48.5 96t-121.5 37h-10q-66 0 -122.5 -36.5t-56.5 -94.5h-126q0 103 92 168.5t221 65.5
q131 0 216 -63t85 -173q0 -44 -14 -81t-47 -72t-58 -55.5t-74 -57.5l-297 -215h498v-102z" />
    <glyph glyph-name="uni2462" unicode="&#x2462;" horiz-adv-x="2088" 
d="M1044 -82q-200 0 -376 63.5t-299.5 171t-195 254.5t-71.5 310t71.5 310t195 254.5t299.5 171t376 63.5t376 -63.5t300 -171t195.5 -254.5t71.5 -310t-71.5 -310t-195.5 -254.5t-300 -171t-376 -63.5zM1044 20q178 0 334 55.5t264.5 149.5t171 222t62.5 270t-62.5 270
t-171 222t-264.5 149t-334 55t-334 -55t-264 -149t-170.5 -222t-62.5 -270t62.5 -270t170.5 -222t264 -149.5t334 -55.5zM1034 311q-129 0 -222 61t-93 163h125q5 -53 56 -87t128 -34h10q85 0 141 38t56 103q0 59 -50.5 93t-127.5 34h-131v96h135q77 0 122.5 32.5t45.5 92.5
q0 66 -49.5 100.5t-135.5 34.5h-10q-77 0 -125 -31.5t-53 -80.5h-125q0 100 91 157.5t222 57.5t220.5 -60t89.5 -166q0 -63 -41.5 -112t-112.5 -74q76 -23 118 -72t42 -114q0 -105 -97.5 -168.5t-228.5 -63.5z" />
    <glyph glyph-name="uni2463" unicode="&#x2463;" horiz-adv-x="2088" 
d="M1044 -82q-200 0 -376 63.5t-299.5 171t-195 254.5t-71.5 310t71.5 310t195 254.5t299.5 171t376 63.5t376 -63.5t300 -171t195.5 -254.5t71.5 -310t-71.5 -310t-195.5 -254.5t-300 -171t-376 -63.5zM1044 20q178 0 334 55.5t264.5 149.5t171 222t62.5 270t-62.5 270
t-171 222t-264.5 149t-334 55t-334 -55t-264 -149t-170.5 -222t-62.5 -270t62.5 -270t170.5 -222t264 -149.5t334 -55.5zM1198 322h-115v196h-471v115l459 497h127v-509h141v-103h-141v-196zM1083 981l-352 -360h352v360z" />
    <glyph glyph-name="uni2464" unicode="&#x2464;" horiz-adv-x="2088" 
d="M1044 -82q-200 0 -376 63.5t-299.5 171t-195 254.5t-71.5 310t71.5 310t195 254.5t299.5 171t376 63.5t376 -63.5t300 -171t195.5 -254.5t71.5 -310t-71.5 -310t-195.5 -254.5t-300 -171t-376 -63.5zM1044 20q178 0 334 55.5t264.5 149.5t171 222t62.5 270t-62.5 270
t-171 222t-264.5 149t-334 55t-334 -55t-264 -149t-170.5 -222t-62.5 -270t62.5 -270t170.5 -222t264 -149.5t334 -55.5zM1016 311q-140 0 -228 57t-98 160h125q9 -55 65 -84.5t134 -29.5h8q83 0 136.5 46t53.5 118q0 71 -51.5 110t-136.5 39h-6q-101 0 -184 -59h-109
l90 462h510v-102h-420l-53 -254q73 55 192 55q132 0 212.5 -69t80.5 -178q0 -123 -92 -197t-229 -74z" />
    <glyph glyph-name="uni2465" unicode="&#x2465;" horiz-adv-x="2088" 
d="M1044 -82q-200 0 -376 63.5t-299.5 171t-195 254.5t-71.5 310t71.5 310t195 254.5t299.5 171t376 63.5t376 -63.5t300 -171t195.5 -254.5t71.5 -310t-71.5 -310t-195.5 -254.5t-300 -171t-376 -63.5zM1044 20q178 0 334 55.5t264.5 149.5t171 222t62.5 270t-62.5 270
t-171 222t-264.5 149t-334 55t-334 -55t-264 -149t-170.5 -222t-62.5 -270t62.5 -270t170.5 -222t264 -149.5t334 -55.5zM1024 311q-157 0 -247.5 103.5t-90.5 287.5q0 199 106 319t265 120q76 0 136.5 -20t96 -52.5t55.5 -68.5t25 -74h-121q-14 48 -64.5 79t-123.5 31h-12
q-98 0 -169 -77t-83 -209q29 51 100 82.5t160 31.5q125 0 213 -72.5t88 -191.5q0 -126 -89.5 -207.5t-244.5 -81.5zM1024 414h6q88 0 147.5 49.5t59.5 124.5q0 76 -57 125t-146 49h-6q-88 0 -146.5 -49t-58.5 -125t56 -125t145 -49z" />
    <glyph glyph-name="uni2466" unicode="&#x2466;" horiz-adv-x="2088" 
d="M1044 -82q-200 0 -376 63.5t-299.5 171t-195 254.5t-71.5 310t71.5 310t195 254.5t299.5 171t376 63.5t376 -63.5t300 -171t195.5 -254.5t71.5 -310t-71.5 -310t-195.5 -254.5t-300 -171t-376 -63.5zM1044 20q178 0 334 55.5t264.5 149.5t171 222t62.5 270t-62.5 270
t-171 222t-264.5 149t-334 55t-334 -55t-264 -149t-170.5 -222t-62.5 -270t62.5 -270t170.5 -222t264 -149.5t334 -55.5zM1028 322h-125v73q0 91 21.5 177.5t53.5 151.5t77 126.5t83 101t81 76.5h-474v102h617v-108q-48 -40 -83.5 -73t-86 -95t-83.5 -124t-57 -151t-24 -184
v-73z" />
    <glyph glyph-name="uni2467" unicode="&#x2467;" horiz-adv-x="2088" 
d="M1044 -82q-200 0 -376 63.5t-299.5 171t-195 254.5t-71.5 310t71.5 310t195 254.5t299.5 171t376 63.5t376 -63.5t300 -171t195.5 -254.5t71.5 -310t-71.5 -310t-195.5 -254.5t-300 -171t-376 -63.5zM1044 20q178 0 334 55.5t264.5 149.5t171 222t62.5 270t-62.5 270
t-171 222t-264.5 149t-334 55t-334 -55t-264 -149t-170.5 -222t-62.5 -270t62.5 -270t170.5 -222t264 -149.5t334 -55.5zM1038 311q-121 0 -205.5 57.5t-84.5 159.5q0 67 43 118t114 73q-74 22 -122 75.5t-48 120.5q0 105 85.5 165.5t221.5 60.5q137 0 223.5 -60.5
t86.5 -165.5q0 -68 -47.5 -121t-122.5 -75q68 -22 108.5 -72.5t40.5 -118.5q0 -102 -85.5 -159.5t-207.5 -57.5zM1034 776h10q75 0 129 34t54 95q0 63 -51.5 98t-126.5 35h-11q-75 0 -126.5 -35t-51.5 -98q0 -61 51.5 -95t122.5 -34zM1034 414h10q68 0 115 35.5t47 97.5
q0 58 -47.5 94.5t-114.5 36.5h-10q-67 0 -114.5 -36.5t-47.5 -94.5q0 -62 47 -97.5t115 -35.5z" />
    <glyph glyph-name="uni2468" unicode="&#x2468;" horiz-adv-x="2088" 
d="M1044 -82q-200 0 -376 63.5t-299.5 171t-195 254.5t-71.5 310t71.5 310t195 254.5t299.5 171t376 63.5t376 -63.5t300 -171t195.5 -254.5t71.5 -310t-71.5 -310t-195.5 -254.5t-300 -171t-376 -63.5zM1044 20q178 0 334 55.5t264.5 149.5t171 222t62.5 270t-62.5 270
t-171 222t-264.5 149t-334 55t-334 -55t-264 -149t-170.5 -222t-62.5 -270t62.5 -270t170.5 -222t264 -149.5t334 -55.5zM1022 311q-76 0 -137.5 20.5t-97.5 52.5t-56 66t-22 66h120q14 -41 66 -70.5t123 -29.5h12q98 0 169 77t83 209q-29 -51 -100 -82.5t-160 -31.5
q-123 -8 -212 67.5t-89 196.5q0 126 89.5 207.5t244.5 81.5q157 0 247.5 -103.5t90.5 -287.5q0 -199 -106 -319t-265 -120zM1044 690h7q88 0 146 49t58 125t-55.5 125t-144.5 49h-6q-88 0 -147.5 -49.5t-59.5 -124.5q0 -77 56.5 -125.5t145.5 -48.5z" />
    <glyph glyph-name="uni24EA" unicode="&#x24ea;" horiz-adv-x="2088" 
d="M1044 -82q-200 0 -376 63.5t-299.5 171t-195 254.5t-71.5 310t71.5 310t195 254.5t299.5 171t376 63.5t376 -63.5t300 -171t195.5 -254.5t71.5 -310t-71.5 -310t-195.5 -254.5t-300 -171t-376 -63.5zM1044 20q178 0 334 55.5t264.5 149.5t171 222t62.5 270t-62.5 270
t-171 222t-264.5 149t-334 55t-334 -55t-264 -149t-170.5 -222t-62.5 -270t62.5 -270t170.5 -222t264 -149.5t334 -55.5zM1047 311q-173 0 -275 113t-102 301t102.5 302t274.5 114t272 -113.5t100 -302.5t-100 -301.5t-272 -112.5zM1042 414h9q61 0 108.5 26.5t75.5 71.5
t42.5 99t14.5 114t-14.5 114.5t-42.5 99.5t-75.5 72t-108.5 27h-9q-61 0 -108.5 -27t-76.5 -72t-43.5 -99.5t-14.5 -114.5t14.5 -114t43.5 -99t76.5 -71.5t108.5 -26.5z" />
    <glyph glyph-name="uni24FF" unicode="&#x24ff;" horiz-adv-x="2088" 
d="M1044 -82q-200 0 -376 63.5t-299.5 171t-195 254.5t-71.5 310t71.5 310t195 254.5t299.5 171t376 63.5t376 -63.5t300 -171t195.5 -254.5t71.5 -310t-71.5 -310t-195.5 -254.5t-300 -171t-376 -63.5zM1047 311q172 0 272 112.5t100 301.5t-100 302.5t-272 113.5
t-274.5 -114t-102.5 -302t102 -301t275 -113zM1051 414h-9q-61 0 -108.5 26.5t-76.5 71.5t-43.5 99t-14.5 114t14.5 114.5t43.5 99.5t76.5 72t108.5 27h9q61 0 108.5 -27t75.5 -72t42.5 -99.5t14.5 -114.5t-14.5 -114t-42.5 -99t-75.5 -71.5t-108.5 -26.5z" />
    <glyph glyph-name="triagup" unicode="&#x25b2;" horiz-adv-x="1720" 
d="M1690 0h-1659l829 1475z" />
    <glyph glyph-name="lozenge" unicode="&#x25ca;" horiz-adv-x="1382" 
d="M768 0h-143l-553 717l553 717h143l543 -717zM236 717l460 -578l461 578l-461 588z" />
    <glyph glyph-name="uni2776" unicode="&#x2776;" horiz-adv-x="2088" 
d="M1044 -82q-200 0 -376 63.5t-299.5 171t-195 254.5t-71.5 310t71.5 310t195 254.5t299.5 171t376 63.5t376 -63.5t300 -171t195.5 -254.5t71.5 -310t-71.5 -310t-195.5 -254.5t-300 -171t-376 -63.5zM1012 971v-649h116v808h-77l-320 -225v-127z" />
    <glyph glyph-name="uni2777" unicode="&#x2777;" horiz-adv-x="2088" 
d="M1044 -82q-200 0 -376 63.5t-299.5 171t-195 254.5t-71.5 310t71.5 310t195 254.5t299.5 171t376 63.5t376 -63.5t300 -171t195.5 -254.5t71.5 -310t-71.5 -310t-195.5 -254.5t-300 -171t-376 -63.5zM743 463v-141h627v102h-498l297 215q49 37 74 57.5t58 55.5t47 72
t14 81q0 110 -85 173t-216 63q-129 0 -221 -65.5t-92 -168.5h126q0 58 56.5 94.5t122.5 36.5h10q73 0 121.5 -37t48.5 -96q0 -57 -36 -98t-155 -127z" />
    <glyph glyph-name="uni2778" unicode="&#x2778;" horiz-adv-x="2088" 
d="M1044 -82q-200 0 -376 63.5t-299.5 171t-195 254.5t-71.5 310t71.5 310t195 254.5t299.5 171t376 63.5t376 -63.5t300 -171t195.5 -254.5t71.5 -310t-71.5 -310t-195.5 -254.5t-300 -171t-376 -63.5zM1034 311q131 0 228.5 63.5t97.5 168.5q0 65 -42 114t-118 72
q71 25 112.5 74t41.5 112q0 106 -89.5 166t-220.5 60t-222 -57.5t-91 -157.5h125q5 49 53 80.5t125 31.5h10q86 0 135.5 -34.5t49.5 -100.5q0 -60 -45.5 -92.5t-122.5 -32.5h-135v-96h131q77 0 127.5 -34t50.5 -93q0 -65 -56 -103t-141 -38h-10q-77 0 -128 34t-56 87h-125
q0 -102 93 -163t222 -61z" />
    <glyph glyph-name="uni2779" unicode="&#x2779;" horiz-adv-x="2088" 
d="M1044 -82q-200 0 -376 63.5t-299.5 171t-195 254.5t-71.5 310t71.5 310t195 254.5t299.5 171t376 63.5t376 -63.5t300 -171t195.5 -254.5t71.5 -310t-71.5 -310t-195.5 -254.5t-300 -171t-376 -63.5zM1083 518v-196h115v196h141v103h-141v509h-127l-459 -497v-115h471z
M1083 621h-352l352 360v-360z" />
    <glyph glyph-name="uni277A" unicode="&#x277a;" horiz-adv-x="2088" 
d="M1044 -82q-200 0 -376 63.5t-299.5 171t-195 254.5t-71.5 310t71.5 310t195 254.5t299.5 171t376 63.5t376 -63.5t300 -171t195.5 -254.5t71.5 -310t-71.5 -310t-195.5 -254.5t-300 -171t-376 -63.5zM1016 311q137 0 229 74t92 197q0 109 -80.5 178t-212.5 69
q-119 0 -192 -55l53 254h420v102h-510l-90 -462h109q83 59 184 59h6q85 0 136.5 -39t51.5 -110q0 -72 -53.5 -118t-136.5 -46h-8q-78 0 -134 29.5t-65 84.5h-125q10 -103 98 -160t228 -57z" />
    <glyph glyph-name="uni277B" unicode="&#x277b;" horiz-adv-x="2088" 
d="M1044 -82q-200 0 -376 63.5t-299.5 171t-195 254.5t-71.5 310t71.5 310t195 254.5t299.5 171t376 63.5t376 -63.5t300 -171t195.5 -254.5t71.5 -310t-71.5 -310t-195.5 -254.5t-300 -171t-376 -63.5zM1024 311q155 0 244.5 81.5t89.5 207.5q0 119 -88 191.5t-213 72.5
q-89 0 -160 -31.5t-100 -82.5q12 132 83 209t169 77h12q73 0 123.5 -31t64.5 -79h121q-5 38 -25 74t-55.5 68.5t-96 52.5t-136.5 20q-159 0 -265 -120t-106 -319q0 -184 90.5 -287.5t247.5 -103.5zM1030 414h-6q-89 0 -145 49t-56 125t58.5 125t146.5 49h6q89 0 146 -49
t57 -125q0 -75 -59.5 -124.5t-147.5 -49.5z" />
    <glyph glyph-name="uni277C" unicode="&#x277c;" horiz-adv-x="2088" 
d="M1044 -82q-200 0 -376 63.5t-299.5 171t-195 254.5t-71.5 310t71.5 310t195 254.5t299.5 171t376 63.5t376 -63.5t300 -171t195.5 -254.5t71.5 -310t-71.5 -310t-195.5 -254.5t-300 -171t-376 -63.5zM903 395v-73h125v73q0 95 24 184t57 151t83.5 124t86 95t83.5 73v108
h-617v-102h474q-43 -37 -81 -76.5t-83 -101t-77 -126.5t-53.5 -151.5t-21.5 -177.5z" />
    <glyph glyph-name="uni277D" unicode="&#x277d;" horiz-adv-x="2088" 
d="M1044 -82q-200 0 -376 63.5t-299.5 171t-195 254.5t-71.5 310t71.5 310t195 254.5t299.5 171t376 63.5t376 -63.5t300 -171t195.5 -254.5t71.5 -310t-71.5 -310t-195.5 -254.5t-300 -171t-376 -63.5zM1038 311q122 0 207.5 57.5t85.5 159.5q0 68 -40.5 118.5t-108.5 72.5
q75 22 122.5 75t47.5 121q0 105 -86.5 165.5t-223.5 60.5q-136 0 -221.5 -60.5t-85.5 -165.5q0 -67 48 -120.5t122 -75.5q-71 -22 -114 -73t-43 -118q0 -102 84.5 -159.5t205.5 -57.5zM1044 776h-10q-71 0 -122.5 34t-51.5 95q0 63 51.5 98t126.5 35h11q75 0 126.5 -35
t51.5 -98q0 -61 -54 -95t-129 -34zM1044 414h-10q-68 0 -115 35.5t-47 97.5q0 58 47.5 94.5t114.5 36.5h10q67 0 114.5 -36.5t47.5 -94.5q0 -62 -47 -97.5t-115 -35.5z" />
    <glyph glyph-name="uni277E" unicode="&#x277e;" horiz-adv-x="2088" 
d="M1044 -82q-200 0 -376 63.5t-299.5 171t-195 254.5t-71.5 310t71.5 310t195 254.5t299.5 171t376 63.5t376 -63.5t300 -171t195.5 -254.5t71.5 -310t-71.5 -310t-195.5 -254.5t-300 -171t-376 -63.5zM1022 311q159 0 265 120t106 319q0 184 -90.5 287.5t-247.5 103.5
q-155 0 -244.5 -81.5t-89.5 -207.5q0 -121 89 -196.5t212 -67.5q89 0 160 31.5t100 82.5q-12 -132 -83 -209t-169 -77h-12q-71 0 -123 29.5t-66 70.5h-120q2 -32 22 -66t56 -66t97.5 -52.5t137.5 -20.5zM1051 690h-7q-89 0 -145.5 48.5t-56.5 125.5q0 75 59.5 124.5
t147.5 49.5h6q89 0 144.5 -49t55.5 -125t-58 -125t-146 -49z" />
    <glyph glyph-name="uni300A" unicode="&#x300a;" horiz-adv-x="1206" 
d="M750 -174h-154l-557 891l557 891h154l-551 -887zM1171 -174h-151l-557 891l557 891h151l-550 -887z" />
    <glyph glyph-name="uni300B" unicode="&#x300b;" horiz-adv-x="1206" 
d="M35 1608h151l557 -891l-557 -891h-151l551 887zM457 1608h153l557 -891l-557 -891h-153l551 887z" />
    <glyph glyph-name="uni300C" unicode="&#x300c;" horiz-adv-x="669" 
d="M266 791h-133v940h496v-117h-363v-823z" />
    <glyph glyph-name="uni300D" unicode="&#x300d;" horiz-adv-x="710" 
d="M451 643h133v-940h-496v117h363v823z" />
    <glyph glyph-name="uni300E" unicode="&#x300e;" horiz-adv-x="911" 
d="M518 682h-395v1051h747v-340h-352v-711zM256 1618v-821h129v708h352v113h-481z" />
    <glyph glyph-name="uni300F" unicode="&#x300f;" horiz-adv-x="952" 
d="M420 752h395v-1051h-747v340h352v711zM682 -184v821h-129v-709h-352v-112h481z" />
    <glyph glyph-name="uni3010" unicode="&#x3010;" horiz-adv-x="800" 
d="M791 -297h-588v2028h588q-228 -211 -341.5 -474t-113.5 -538q0 -272 112.5 -536t342.5 -480z" />
    <glyph glyph-name="uni3011" unicode="&#x3011;" horiz-adv-x="800" 
d="M10 1733h588v-2028h-588q228 211 341.5 474t113.5 538q0 272 -112.5 536t-342.5 480z" />
    <glyph glyph-name="uni3014" unicode="&#x3014;" horiz-adv-x="690" 
d="M680 -297h-199l-317 299v1430l321 299h191l-379 -359v-1304z" />
    <glyph glyph-name="uni3015" unicode="&#x3015;" horiz-adv-x="690" 
d="M10 1733h199l317 -299v-1430l-321 -299h-191l379 358v1305z" />
    <glyph glyph-name="uniE000" unicode="&#xe000;" horiz-adv-x="1105" 
d="M963 307h-820v819h820v-819zM297 973v-512h512v512h-512z" />
    <glyph glyph-name="uniE001" unicode="&#xe001;" horiz-adv-x="1413" 
d="M1270 154h-1127v1126h1127v-1126zM297 1126v-819h819v819h-819z" />
    <glyph glyph-name="uniE002" unicode="&#xe002;" horiz-adv-x="1802" 
d="M1618 0h-1434v1434h1434v-1434zM338 1280v-1126h1126v1126h-1126z" />
    <glyph glyph-name="uniE003" unicode="&#xe003;" horiz-adv-x="1105" 
d="M963 307h-820v819h820v-819zM297 973v-512h512v512h-512zM655 614h-204v205h204v-205z" />
    <glyph glyph-name="uniE004" unicode="&#xe004;" horiz-adv-x="1413" 
d="M1270 154h-1127v1126h1127v-1126zM297 1126v-819h819v819h-819zM963 461h-512v512h512v-512zM604 819v-205h205v205h-205z" />
    <glyph glyph-name="uniE005" unicode="&#xe005;" horiz-adv-x="1802" 
d="M1618 0h-1434v1434h1434v-1434zM338 1280v-1126h1126v1126h-1126zM1311 307h-819v819h819v-819zM645 973v-512h512v512h-512zM1004 614h-205v205h205v-205z" />
    <glyph glyph-name="uniE006" unicode="&#xe006;" horiz-adv-x="1105" 
d="M963 307h-820v819h820v-819z" />
    <glyph glyph-name="uniE007" unicode="&#xe007;" horiz-adv-x="1413" 
d="M1270 154h-1127v1126h1127v-1126z" />
    <glyph glyph-name="uniE008" unicode="&#xe008;" horiz-adv-x="1802" 
d="M1618 0h-1434v1434h1434v-1434z" />
    <glyph glyph-name="uniE00A" unicode="&#xe00a;" horiz-adv-x="833" 
d="M764 -297h-266q-110 0 -190.5 72.5t-80.5 183.5q0 90 78 174q-170 37 -170 234v700q0 196 170 233q-78 84 -78 175q0 111 80.5 183.5t190.5 72.5h266v-117h-252q-67 0 -107 -35.5t-40 -95.5v-17q0 -60 40 -96.5t107 -36.5h98v-116h-159q-179 0 -179 -179v-643
q0 -178 179 -178h159v-117h-98q-67 0 -107 -36.5t-40 -96.5v-16q0 -60 40 -95.5t107 -35.5h252v-117z" />
    <glyph glyph-name="uniE00B" unicode="&#xe00b;" horiz-adv-x="833" 
d="M70 1731h266q110 0 190 -72.5t80 -183.5q0 -91 -78 -175q170 -37 170 -233v-700q0 -197 -170 -234q78 -84 78 -174q0 -111 -80 -183.5t-190 -72.5h-266v117h252q67 0 107 35.5t40 95.5v16q0 60 -40 96.5t-107 36.5h-99v117h160q178 0 178 178v643q0 179 -178 179h-160
v116h99q67 0 107 36.5t40 96.5v17q0 60 -40 95.5t-107 35.5h-252v117z" />
    <glyph glyph-name="uniE010" unicode="&#xe010;" horiz-adv-x="1187" 
d="M594 225q-99 0 -190.5 39t-157.5 105t-105 157.5t-39 190.5q0 133 66 246t179.5 179t246.5 66t246 -66t179 -179t66 -246t-66 -246.5t-179 -179.5t-246 -66zM594 379q140 0 239 99.5t99 238.5t-99 238.5t-239 99.5t-239 -99.5t-99 -238.5t99 -238.5t239 -99.5z" />
    <glyph glyph-name="uniE011" unicode="&#xe011;" horiz-adv-x="1495" 
d="M748 72q-174 0 -323 87t-236 235.5t-87 322.5t87 322.5t236 235.5t323 87t322.5 -87t235.5 -235.5t87 -322.5t-87 -322.5t-235.5 -235.5t-322.5 -87zM748 225q133 0 246 66t179 179.5t66 246.5t-66 246t-179 179t-246 66t-246.5 -66t-179.5 -179t-66 -246
q0 -99 39 -190.5t105 -157.5t157.5 -105t190.5 -39z" />
    <glyph glyph-name="uniE012" unicode="&#xe012;" horiz-adv-x="1802" 
d="M901 -82q-161 0 -309 63.5t-255.5 171t-171 255.5t-63.5 309q0 162 63.5 310t171 255t255.5 170.5t309 63.5q162 0 310 -63.5t255 -170.5t170.5 -255t63.5 -310q0 -161 -63.5 -309t-170.5 -255.5t-255 -171t-310 -63.5zM901 72q174 0 322.5 87t235.5 235.5t87 322.5
t-87 322.5t-235.5 235.5t-322.5 87t-322.5 -87t-235.5 -235.5t-87 -322.5t87 -322.5t235.5 -235.5t322.5 -87z" />
    <glyph glyph-name="uniE013" unicode="&#xe013;" horiz-adv-x="1187" 
d="M594 225q-99 0 -190.5 39t-157.5 105t-105 157.5t-39 190.5q0 133 66 246t179.5 179t246.5 66t246 -66t179 -179t66 -246t-66 -246.5t-179 -179.5t-246 -66zM594 379q140 0 239 99.5t99 238.5t-99 238.5t-239 99.5t-239 -99.5t-99 -238.5t99 -238.5t239 -99.5zM594 532
q-75 0 -129.5 55t-54.5 130q0 76 54.5 130t129.5 54q76 0 130 -53.5t54 -130.5q0 -75 -54 -130t-130 -55z" />
    <glyph glyph-name="uniE014" unicode="&#xe014;" horiz-adv-x="1495" 
d="M748 72q-174 0 -323 87t-236 235.5t-87 322.5t87 322.5t236 235.5t323 87t322.5 -87t235.5 -235.5t87 -322.5t-87 -322.5t-235.5 -235.5t-322.5 -87zM748 225q133 0 246 66t179 179.5t66 246.5t-66 246t-179 179t-246 66t-246.5 -66t-179.5 -179t-66 -246
q0 -99 39 -190.5t105 -157.5t157.5 -105t190.5 -39zM748 379q-140 0 -239 99.5t-99 238.5t99 238.5t239 99.5q139 0 238 -99t99 -239t-99 -239t-238 -99zM748 532q76 0 130 55t54 130q0 77 -54 130.5t-130 53.5q-75 0 -130 -54t-55 -130q0 -75 55 -130t130 -55z" />
    <glyph glyph-name="uniE015" unicode="&#xe015;" horiz-adv-x="1802" 
d="M901 -82q-161 0 -309 63.5t-255.5 171t-171 255.5t-63.5 309q0 162 63.5 310t171 255t255.5 170.5t309 63.5q162 0 310 -63.5t255 -170.5t170.5 -255t63.5 -310q0 -161 -63.5 -309t-170.5 -255.5t-255 -171t-310 -63.5zM901 72q174 0 322.5 87t235.5 235.5t87 322.5
t-87 322.5t-235.5 235.5t-322.5 87t-322.5 -87t-235.5 -235.5t-87 -322.5t87 -322.5t235.5 -235.5t322.5 -87zM901 225q-133 0 -246 66t-179 179.5t-66 246.5t66 246t179 179t246 66t246.5 -66t179.5 -179t66 -246q0 -99 -39 -190.5t-105 -157.5t-157.5 -105t-190.5 -39z
M901 379q139 0 238.5 99.5t99.5 238.5t-99.5 238.5t-238.5 99.5t-238.5 -99.5t-99.5 -238.5t99.5 -238.5t238.5 -99.5zM901 532q-75 0 -129.5 55t-54.5 130q0 76 54.5 130t129.5 54q77 0 130.5 -53.5t53.5 -130.5q0 -75 -54 -130t-130 -55z" />
    <glyph glyph-name="uniE016" unicode="&#xe016;" horiz-adv-x="1310" 
d="M655 225q-133 0 -246 66t-179 179.5t-66 246.5t66 246t179 179t246 66t246.5 -66t179.5 -179t66 -246q0 -99 -39 -190.5t-105 -157.5t-157.5 -105t-190.5 -39z" />
    <glyph glyph-name="uniE017" unicode="&#xe017;" horiz-adv-x="1433" 
d="M717 102q-124 0 -238 49t-196.5 131.5t-131.5 196.5t-49 238q0 166 82.5 307.5t224.5 224t308 82.5t307.5 -82.5t224 -224t82.5 -307.5t-82.5 -308t-224 -224.5t-307.5 -82.5z" />
    <glyph glyph-name="uniE018" unicode="&#xe018;" horiz-adv-x="1679" 
d="M840 -20q-150 0 -286.5 58.5t-235.5 157.5t-157.5 235t-58.5 286t58.5 286t157.5 235t235.5 157.5t286.5 58.5q200 0 369.5 -99t268.5 -268.5t99 -369.5t-99 -369.5t-268.5 -268.5t-369.5 -99z" />
    <glyph glyph-name="uniF8FF" unicode="&#xf8ff;" horiz-adv-x="1961" 
d="M1942 1446q58 0 110 -12t74 -31q-1 -4 -1.5 -19t-2 -25t-4.5 -13q-18 -15 -62 -15q-45 0 -69 8q2 -55 -12.5 -103t-52.5 -81.5t-93 -28.5q-18 -58 -57.5 -99.5t-91.5 -61.5t-101 -28.5t-102 -8.5q-40 0 -56 2q0 -1 7 -23.5t18 -62t22.5 -87.5t23.5 -109t19 -116
q5 -6 29 -33.5t40 -45t43.5 -45.5t53.5 -52q44 -39 78 -84t45 -75q4 -8 4 -23q0 -30 -39 -37q-44 26 -84.5 65.5t-90.5 97t-85 91.5q-2 -10 -2 -31q0 -72 25 -184t28 -141q-31 -25 -59 -25q-24 0 -27 19q-27 45 -44 138t-25 183t-10 99q-49 2 -331.5 -29t-412.5 -62
q-1 -47 16 -91t44.5 -82t56.5 -74.5t57.5 -83.5t42.5 -93q-15 -22 -41 -22q-17 0 -35 12q-20 11 -42.5 37.5t-54 72t-42.5 60.5q-23 30 -48.5 86t-37.5 64q-20 -60 -37.5 -107.5t-35.5 -92t-32.5 -68.5t-23.5 -23h-16q-45 0 -45 37q0 58 37 165t90 199q-14 2 -105.5 9
t-168.5 24.5t-124 54.5q-10 13 -20 29q12 15 25 26t21.5 16.5t25.5 15.5t26 16q29 39 106.5 97.5t108.5 102.5q-12 10 -59 32t-85.5 48.5t-47.5 55.5q4 4 18 39q9 7 65.5 -15t121.5 -55q2 15 4 51t5.5 60t10.5 34q3 7 22 14t36 10l18 3q8 -5 15 -14.5t7 -16.5
q2 -16 -10.5 -83.5t-9.5 -102.5q52 4 135.5 30t167 56t225 63t293.5 50q-41 71 -41 157q0 77 35 115q132 1 202 -48.5t70 -127.5q0 -34 -12 -68q40 3 83.5 28t49.5 50q-19 18 -47 33.5t-45 30.5t-27 43q-32 35 -32 79q0 36 23.5 67t64.5 46q25 10 57 10q62 0 100.5 -48
t38.5 -122q0 -27 -2 -39q49 23 49 170q0 10 -1 32t-1 32q16 2 50 2zM1751 1204q6 15 6 35q0 33 -20 60.5t-56 37.5q-12 -21 -12 -41q0 -34 26.5 -61.5t55.5 -30.5zM1485 1042q3 1 7.5 4.5t12.5 21.5t8 44q-57 57 -116 57q-8 -28 -8 -49q0 -59 24 -80q6 -6 21 -6q3 0 51 8z
M618 459q68 6 216.5 30t299 43t265.5 19q-6 38 -20.5 89t-18.5 69q-5 27 -9 59.5t-6 49t-10 36.5t-22 37q-150 -14 -276.5 -41t-195.5 -52.5t-149 -55t-129 -42.5q13 -45 25.5 -102.5t20.5 -96t9 -42.5zM475 461q25 0 35 2q-11 28 -27.5 90t-31.5 96q-19 -17 -60 -51
t-65.5 -59t-42.5 -56q139 -22 192 -22z" />
    <glyph glyph-name="G.ss02" horiz-adv-x="1720" 
d="M913 -20q-184 0 -334 55t-250.5 152.5t-155 233t-54.5 296.5q0 160 54.5 296t153 233.5t244 152.5t320.5 55q314 0 492 -134t194 -347h-164q-21 161 -151 252.5t-355 91.5h-33q-271 0 -437.5 -160.5t-166.5 -439.5q0 -282 171.5 -441t463.5 -159h19q255 0 384.5 105.5
t129.5 273.5v71h-545v138h696v-183q0 -260 -177.5 -401t-498.5 -141z" />
    <glyph glyph-name="Gbreve.ss02" horiz-adv-x="1720" 
d="M913 1567q-145 0 -243.5 76.5t-102.5 199.5h123q11 -77 70 -120.5t153 -43.5t154.5 44t69.5 120h123q-4 -123 -103 -199.5t-244 -76.5zM913 -20q-184 0 -334 55t-250.5 152.5t-155 233t-54.5 296.5q0 160 54.5 296t153 233.5t244 152.5t320.5 55q314 0 492 -134t194 -347
h-164q-21 161 -151 252.5t-355 91.5h-33q-271 0 -437.5 -160.5t-166.5 -439.5q0 -282 171.5 -441t463.5 -159h19q255 0 384.5 105.5t129.5 273.5v71h-545v138h696v-183q0 -260 -177.5 -401t-498.5 -141z" />
    <glyph glyph-name="Gcircumflex.ss02" horiz-adv-x="1720" 
d="M664 1567h-148l297 256h201l297 -256h-148l-250 153zM913 -20q-184 0 -334 55t-250.5 152.5t-155 233t-54.5 296.5q0 160 54.5 296t153 233.5t244 152.5t320.5 55q314 0 492 -134t194 -347h-164q-21 161 -151 252.5t-355 91.5h-33q-271 0 -437.5 -160.5t-166.5 -439.5
q0 -282 171.5 -441t463.5 -159h19q255 0 384.5 105.5t129.5 273.5v71h-545v138h696v-183q0 -260 -177.5 -401t-498.5 -141z" />
    <glyph glyph-name="uni0122.ss02" horiz-adv-x="1720" 
d="M913 -20q-184 0 -334 55t-250.5 152.5t-155 233t-54.5 296.5q0 160 54.5 296t153 233.5t244 152.5t320.5 55q314 0 492 -134t194 -347h-164q-21 161 -151 252.5t-355 91.5h-33q-271 0 -437.5 -160.5t-166.5 -439.5q0 -282 171.5 -441t463.5 -159h19q255 0 384.5 105.5
t129.5 273.5v71h-545v138h696v-183q0 -260 -177.5 -401t-498.5 -141zM836 -512h-41v76h36q45 0 63.5 18t18.5 60v20h-84v154h168v-174q0 -70 -43.5 -112t-117.5 -42z" />
    <glyph glyph-name="Gdotaccent.ss02" horiz-adv-x="1720" 
d="M993 1597h-159v175h159v-175zM913 -20q-184 0 -334 55t-250.5 152.5t-155 233t-54.5 296.5q0 160 54.5 296t153 233.5t244 152.5t320.5 55q314 0 492 -134t194 -347h-164q-21 161 -151 252.5t-355 91.5h-33q-271 0 -437.5 -160.5t-166.5 -439.5q0 -282 171.5 -441
t463.5 -159h19q255 0 384.5 105.5t129.5 273.5v71h-545v138h696v-183q0 -260 -177.5 -401t-498.5 -141z" />
    <glyph glyph-name="R.ss03" horiz-adv-x="1636" 
d="M367 0h-150v1434h744q226 0 352.5 -116t126.5 -286q0 -133 -73 -228t-161 -122q34 -1 58.5 -9.5t41 -21t32 -40.5t26 -54t27.5 -76l168 -481h-164l-146 424q-15 42 -23.5 62t-21.5 44t-25 33t-32 18.5t-44.5 12t-60.5 2.5h-675v-596zM367 1296v-563h583q158 0 248 78
t90 211q0 125 -90 199.5t-248 74.5h-583z" />
    <glyph glyph-name="Racute.ss03" horiz-adv-x="1636" 
d="M850 1567h-131l160 256h192zM367 0h-150v1434h744q226 0 352.5 -116t126.5 -286q0 -133 -73 -228t-161 -122q34 -1 58.5 -9.5t41 -21t32 -40.5t26 -54t27.5 -76l168 -481h-164l-146 424q-15 42 -23.5 62t-21.5 44t-25 33t-32 18.5t-44.5 12t-60.5 2.5h-675v-596z
M367 1296v-563h583q158 0 248 78t90 211q0 125 -90 199.5t-248 74.5h-583z" />
    <glyph glyph-name="Rcaron.ss03" horiz-adv-x="1636" 
d="M866 1567h-200l-277 256h148l229 -152l229 152h148zM367 0h-150v1434h744q226 0 352.5 -116t126.5 -286q0 -133 -73 -228t-161 -122q34 -1 58.5 -9.5t41 -21t32 -40.5t26 -54t27.5 -76l168 -481h-164l-146 424q-15 42 -23.5 62t-21.5 44t-25 33t-32 18.5t-44.5 12
t-60.5 2.5h-675v-596zM367 1296v-563h583q158 0 248 78t90 211q0 125 -90 199.5t-248 74.5h-583z" />
    <glyph glyph-name="uni0156.ss03" horiz-adv-x="1636" 
d="M367 0h-150v1434h744q226 0 352.5 -116t126.5 -286q0 -133 -73 -228t-161 -122q34 -1 58.5 -9.5t41 -21t32 -40.5t26 -54t27.5 -76l168 -481h-164l-146 424q-15 42 -23.5 62t-21.5 44t-25 33t-32 18.5t-44.5 12t-60.5 2.5h-675v-596zM367 1296v-563h583q158 0 248 78
t90 211q0 125 -90 199.5t-248 74.5h-583zM805 -512h-41v76h37q45 0 63.5 18t18.5 60v20h-84v154h168v-174q0 -70 -44 -112t-118 -42z" />
    <glyph glyph-name="a.ss01" horiz-adv-x="1390" 
d="M657 -20q-249 0 -398.5 141t-149.5 391t149.5 391t398.5 141q144 0 250 -52.5t172 -137.5v170h133v-1024h-133v174q-150 -194 -422 -194zM649 96h21q79 0 151 26t130 76t93 131t35 183t-35 183t-93 131t-130 76t-151 26h-21q-175 0 -287 -107t-112 -309t112 -309
t287 -107z" />
    <glyph glyph-name="aacute.ss01" horiz-adv-x="1390" 
d="M727 1167h-111l158 267h174zM657 -20q-249 0 -398.5 141t-149.5 391t149.5 391t398.5 141q144 0 250 -52.5t172 -137.5v170h133v-1024h-133v174q-150 -194 -422 -194zM649 96h21q79 0 151 26t130 76t93 131t35 183t-35 183t-93 131t-130 76t-151 26h-21q-175 0 -287 -107
t-112 -309t112 -309t287 -107z" />
    <glyph glyph-name="abreve.ss01" horiz-adv-x="1390" 
d="M672 1169q-150 0 -251 84t-106 203h111q11 -80 78 -131t168 -51t168 51t78 131h110q-5 -119 -105.5 -203t-250.5 -84zM657 -20q-249 0 -398.5 141t-149.5 391t149.5 391t398.5 141q144 0 250 -52.5t172 -137.5v170h133v-1024h-133v174q-150 -194 -422 -194zM649 96h21
q79 0 151 26t130 76t93 131t35 183t-35 183t-93 131t-130 76t-151 26h-21q-175 0 -287 -107t-112 -309t112 -309t287 -107z" />
    <glyph glyph-name="acircumflex.ss01" horiz-adv-x="1390" 
d="M412 1167h-140l322 267h158l321 -267h-141l-260 160zM657 -20q-249 0 -398.5 141t-149.5 391t149.5 391t398.5 141q144 0 250 -52.5t172 -137.5v170h133v-1024h-133v174q-150 -194 -422 -194zM649 96h21q79 0 151 26t130 76t93 131t35 183t-35 183t-93 131t-130 76
t-151 26h-21q-175 0 -287 -107t-112 -309t112 -309t287 -107z" />
    <glyph glyph-name="adieresis.ss01" horiz-adv-x="1390" 
d="M528 1208h-157v164h157v-164zM973 1208h-158v164h158v-164zM657 -20q-249 0 -398.5 141t-149.5 391t149.5 391t398.5 141q144 0 250 -52.5t172 -137.5v170h133v-1024h-133v174q-150 -194 -422 -194zM649 96h21q79 0 151 26t130 76t93 131t35 183t-35 183t-93 131t-130 76
t-151 26h-21q-175 0 -287 -107t-112 -309t112 -309t287 -107z" />
    <glyph glyph-name="uni0227.ss01" horiz-adv-x="1390" 
d="M750 1208h-160v174h160v-174zM657 -20q-249 0 -398.5 141t-149.5 391t149.5 391t398.5 141q144 0 250 -52.5t172 -137.5v170h133v-1024h-133v174q-150 -194 -422 -194zM649 96h21q79 0 151 26t130 76t93 131t35 183t-35 183t-93 131t-130 76t-151 26h-21
q-175 0 -287 -107t-112 -309t112 -309t287 -107z" />
    <glyph glyph-name="agrave.ss01" horiz-adv-x="1390" 
d="M727 1167h-111l-221 267h174zM657 -20q-249 0 -398.5 141t-149.5 391t149.5 391t398.5 141q144 0 250 -52.5t172 -137.5v170h133v-1024h-133v174q-150 -194 -422 -194zM649 96h21q79 0 151 26t130 76t93 131t35 183t-35 183t-93 131t-130 76t-151 26h-21
q-175 0 -287 -107t-112 -309t112 -309t287 -107z" />
    <glyph glyph-name="amacron.ss01" horiz-adv-x="1390" 
d="M956 1208h-632v113h632v-113zM657 -20q-249 0 -398.5 141t-149.5 391t149.5 391t398.5 141q144 0 250 -52.5t172 -137.5v170h133v-1024h-133v174q-150 -194 -422 -194zM649 96h21q79 0 151 26t130 76t93 131t35 183t-35 183t-93 131t-130 76t-151 26h-21
q-175 0 -287 -107t-112 -309t112 -309t287 -107z" />
    <glyph glyph-name="aogonek.ss01" horiz-adv-x="1390" 
d="M1147 -283h92v-116h-92q-232 0 -232 159q0 65 50.5 129.5t144.5 110.5h-31v174q-150 -194 -422 -194q-249 0 -398.5 141t-149.5 391t149.5 391t398.5 141q144 0 250 -52.5t172 -137.5v170h133v-1024q-190 -107 -190 -205q0 -78 125 -78zM649 96h21q79 0 151 26t130 76
t93 131t35 183t-35 183t-93 131t-130 76t-151 26h-21q-175 0 -287 -107t-112 -309t112 -309t287 -107z" />
    <glyph glyph-name="aring.ss01" horiz-adv-x="1390" 
d="M672 1169q-90 0 -155.5 57t-65.5 134t65.5 133.5t155.5 56.5q91 0 157 -56.5t66 -133.5t-66.5 -134t-156.5 -57zM674 1264q51 0 82.5 26.5t31.5 69.5t-31.5 69.5t-82.5 26.5t-84 -26.5t-33 -69.5t33 -69.5t84 -26.5zM657 -20q-249 0 -398.5 141t-149.5 391t149.5 391
t398.5 141q144 0 250 -52.5t172 -137.5v170h133v-1024h-133v174q-150 -194 -422 -194zM649 96h21q79 0 151 26t130 76t93 131t35 183t-35 183t-93 131t-130 76t-151 26h-21q-175 0 -287 -107t-112 -309t112 -309t287 -107z" />
    <glyph glyph-name="atilde.ss01" horiz-adv-x="1390" 
d="M864 1169q-48 0 -92.5 15t-105.5 55l-66 43q-63 39 -115 39q-46 0 -73 -33.5t-27 -97.5h-113v27q0 99 59 159t152 60q87 0 164 -52l70 -45q3 -2 15.5 -10t16.5 -10.5t15 -8.5t17 -8.5t17 -7t19.5 -6t19.5 -3t23 -1.5q96 0 96 131h113v-26q0 -98 -59 -159t-146 -61z
M657 -20q-249 0 -398.5 141t-149.5 391t149.5 391t398.5 141q144 0 250 -52.5t172 -137.5v170h133v-1024h-133v174q-150 -194 -422 -194zM649 96h21q79 0 151 26t130 76t93 131t35 183t-35 183t-93 131t-130 76t-151 26h-21q-175 0 -287 -107t-112 -309t112 -309t287 -107z
" />
    <glyph glyph-name="i.loclTRK" horiz-adv-x="495" 
d="M326 1208h-160v174h160v-174zM317 0h-139v1024h139v-1024z" />
    <glyph glyph-name="y.ss04" horiz-adv-x="1212" 
d="M618 197l410 827h156l-617 -1239q-36 -71 -82.5 -97t-126.5 -26h-286v117h243q59 0 87.5 19t56.5 77l84 170l-514 979h159z" />
    <glyph glyph-name="yacute.ss04" horiz-adv-x="1212" 
d="M709 1434h174l-221 -267h-111zM618 197l410 827h156l-617 -1239q-36 -71 -82.5 -97t-126.5 -26h-286v117h243q59 0 87.5 19t56.5 77l84 170l-514 979h159z" />
    <glyph glyph-name="ycircumflex.ss04" horiz-adv-x="1212" 
d="M866 1167l-260 160l-260 -160h-139l321 267h158l322 -267h-142zM618 197l410 827h156l-617 -1239q-36 -71 -82.5 -97t-126.5 -26h-286v117h243q59 0 87.5 19t56.5 77l84 170l-514 979h159z" />
    <glyph glyph-name="ydieresis.ss04" horiz-adv-x="1212" 
d="M305 1372h158v-164h-158v164zM750 1372h157v-164h-157v164zM618 197l410 827h156l-617 -1239q-36 -71 -82.5 -97t-126.5 -26h-286v117h243q59 0 87.5 19t56.5 77l84 170l-514 979h159z" />
    <glyph glyph-name="ygrave.ss04" horiz-adv-x="1212" 
d="M504 1434l158 -267h-111l-221 267h174zM618 197l410 827h156l-617 -1239q-36 -71 -82.5 -97t-126.5 -26h-286v117h243q59 0 87.5 19t56.5 77l84 170l-514 979h159z" />
    <glyph glyph-name="uni0233.ss04" horiz-adv-x="1212" 
d="M258 1321h633v-113h-633v113zM618 197l410 827h156l-617 -1239q-36 -71 -82.5 -97t-126.5 -26h-286v117h243q59 0 87.5 19t56.5 77l84 170l-514 979h159z" />
    <glyph glyph-name="I_S_B_N" horiz-adv-x="5226" 
d="M3957 0h-150v872q0 277 151 429.5t460 152.5q304 0 457 -153t153 -429v-872h-150v856q0 223 -120 342t-324 119h-33q-218 0 -331 -116.5t-113 -344.5v-856zM1393 0h-1176v1434h139v-1297h1030q367 0 367 242q0 99 -86.5 164t-277.5 96l-224 37q-227 36 -329.5 122
t-102.5 253q0 61 15 114.5t51 103.5t92 86t143.5 57.5t198.5 21.5h1761q186 0 309 -102.5t123 -270.5q0 -123 -62.5 -207.5t-168.5 -122.5q105 -28 185.5 -119.5t80.5 -222.5q0 -118 -60.5 -207.5t-160 -135.5t-221.5 -46h-778v801h722q148 0 230 65t82 185q0 113 -83 179
t-229 66h-1730q-359 0 -359 -241q0 -102 78.5 -158t251.5 -84l230 -37q228 -37 344 -136t116 -253q0 -190 -132.5 -288.5t-368.5 -98.5zM2390 664v-527h588q155 0 243.5 69t88.5 197q0 122 -89.5 191.5t-242.5 69.5h-588z" />
    <glyph glyph-name="a.sups" horiz-adv-x="743" 
d="M291 840q-95 0 -157 47t-62 127q0 84 61 130t162 56l221 21v18q0 51 -44 80t-110 29h-6q-62 0 -108.5 -26.5t-46.5 -74.5h-121q6 93 87 145t195 52t194.5 -56.5t80.5 -152.5v-258q0 -84 6 -127h-111q-10 55 -10 84q-28 -39 -92 -66.5t-139 -27.5zM322 936h6q82 0 135 35
t53 102v62l-188 -17q-60 -5 -97.5 -29t-37.5 -67q0 -42 36 -64t93 -22z" />
    <glyph glyph-name="a.sups.ss01" horiz-adv-x="825" 
d="M360 840q-139 0 -215.5 86.5t-76.5 216.5q0 128 80.5 214.5t220.5 86.5q81 0 136.5 -30.5t86.5 -74.5v95h117v-584h-117v92q-83 -102 -232 -102zM387 936h2q95 0 147 57t52 150t-52 149t-147 56h-2q-95 0 -147 -57t-52 -148q0 -93 53 -150t146 -57z" />
    <glyph glyph-name="b.sups" horiz-adv-x="835" 
d="M459 840q-64 0 -124.5 26t-92.5 74v-90h-125v809h125v-326q28 45 87.5 78t135.5 33q140 0 221.5 -85.5t81.5 -213.5q0 -130 -81.5 -217.5t-227.5 -87.5zM442 936h2q94 0 146.5 58t52.5 151t-52 148t-147 55h-2q-96 0 -147 -56t-51 -149q0 -94 51 -150.5t147 -56.5z" />
    <glyph glyph-name="c.sups" horiz-adv-x="737" 
d="M379 840q-141 0 -225 75.5t-84 219.5q0 145 86.5 227t226.5 82q115 0 197 -55t94 -148h-127q-10 50 -54.5 78.5t-105.5 28.5h-6q-93 0 -139.5 -60.5t-46.5 -152.5q0 -90 46 -144.5t140 -54.5h6q60 0 102 28t56 76h125q-13 -94 -95.5 -147t-195.5 -53z" />
    <glyph glyph-name="d.sups" horiz-adv-x="835" 
d="M377 840q-146 0 -227.5 87.5t-81.5 217.5q0 128 81.5 213.5t221.5 85.5q76 0 135.5 -33t87.5 -78v326h125v-809h-125v90q-32 -48 -92.5 -74t-124.5 -26zM391 936h2q96 0 147.5 56.5t51.5 150.5q0 93 -51.5 149t-147.5 56h-2q-95 0 -146.5 -55t-51.5 -148q0 -94 52 -151.5
t146 -57.5z" />
    <glyph glyph-name="e.sups" horiz-adv-x="743" 
d="M375 840q-140 0 -223.5 81.5t-83.5 215.5q0 131 85.5 219t223.5 88t217.5 -85t79.5 -218q0 -27 -2 -41h-492q9 -79 60 -121.5t135 -42.5h10q57 0 105.5 23.5t64.5 68.5h109q-20 -86 -100 -137t-189 -51zM182 1190h377q-3 67 -48 112.5t-130 45.5h-10q-78 0 -127.5 -41.5
t-61.5 -116.5z" />
    <glyph glyph-name="f.sups" horiz-adv-x="483" 
d="M297 850h-121v491h-151v93h151v73q0 68 40 110t110 42h180v-88h-141q-37 0 -52.5 -15.5t-15.5 -56.5v-65h164v-93h-164v-491z" />
    <glyph glyph-name="g.sups" horiz-adv-x="833" 
d="M387 604q-144 0 -226.5 51t-90.5 136h118q21 -48 64.5 -69.5t132.5 -21.5h6q211 0 211 205v33q-29 -40 -87.5 -69t-147.5 -29q-136 0 -217.5 87t-81.5 214q0 130 81.5 216.5t227.5 86.5q145 0 225 -92v82h117v-545q0 -132 -86 -208.5t-246 -76.5zM379 936h18
q94 0 150.5 56.5t56.5 150.5q0 92 -56 148.5t-147 56.5h-14q-91 0 -147 -56.5t-56 -148.5q0 -94 53.5 -150.5t141.5 -56.5z" />
    <glyph glyph-name="h.sups" horiz-adv-x="811" 
d="M242 850h-125v809h125v-322q30 46 85 76.5t124 30.5q119 0 186.5 -65.5t67.5 -170.5v-358h-125v338q0 78 -40 119t-110 41h-12q-75 0 -125.5 -54t-50.5 -137v-307z" />
    <glyph glyph-name="i.sups" horiz-adv-x="354" 
d="M244 1530h-133v129h133v-129zM238 850h-121v584h121v-584z" />
    <glyph glyph-name="j.sups" horiz-adv-x="354" 
d="M244 1530h-133v129h133v-129zM86 614h-184v97h151q35 0 49.5 15t14.5 52v656h121v-672q0 -65 -41 -106.5t-111 -41.5z" />
    <glyph glyph-name="k.sups" horiz-adv-x="757" 
d="M238 850h-121v809h121v-483l309 258h166l-287 -238l303 -346h-151l-238 274l-102 -84v-190z" />
    <glyph glyph-name="l.sups" horiz-adv-x="354" 
d="M238 850h-121v809h121v-809z" />
    <glyph glyph-name="m.sups" horiz-adv-x="1224" 
d="M242 850h-125v584h125v-84q22 39 74 66.5t122 27.5q150 0 207 -109q39 54 100 81.5t127 27.5q119 0 182.5 -68t63.5 -178v-348h-125v338q0 80 -29.5 120t-107.5 40h-6q-73 0 -121.5 -58t-48.5 -133v-307h-125v338q0 75 -34.5 117.5t-102.5 42.5h-6q-78 0 -124 -57
t-46 -138v-303z" />
    <glyph glyph-name="n.sups" horiz-adv-x="811" 
d="M242 850h-125v584h125v-97q30 46 85 76.5t124 30.5q119 0 186.5 -65.5t67.5 -170.5v-358h-125v338q0 78 -40 119t-110 41h-12q-75 0 -125.5 -54t-50.5 -137v-307z" />
    <glyph glyph-name="o.sups" horiz-adv-x="794" 
d="M397 840q-150 0 -239.5 81.5t-89.5 219.5t90 220.5t239 82.5q150 0 240 -82.5t90 -220.5t-90 -219.5t-240 -81.5zM393 936h10q93 0 146 56t53 149t-54 150t-147 57h-8q-92 0 -146 -57.5t-54 -149.5t53.5 -148.5t146.5 -56.5z" />
    <glyph glyph-name="p.sups" horiz-adv-x="835" 
d="M242 625h-125v809h125v-91q32 49 92.5 75t124.5 26q146 0 227.5 -87.5t81.5 -217.5q0 -128 -81.5 -213.5t-221.5 -85.5q-76 0 -135.5 32.5t-87.5 77.5v-325zM442 936h2q95 0 147 55t52 148t-52.5 151t-146.5 58h-2q-96 0 -147 -56.5t-51 -150.5q0 -93 51 -149t147 -56z
" />
    <glyph glyph-name="q.sups" horiz-adv-x="835" 
d="M719 625h-125v325q-28 -45 -87.5 -77.5t-135.5 -32.5q-140 0 -221.5 85.5t-81.5 213.5q0 130 81.5 217.5t227.5 87.5q64 0 124.5 -26t92.5 -75v91h125v-809zM391 936h2q96 0 147.5 56t51.5 149q0 94 -51.5 150.5t-147.5 56.5h-2q-94 0 -146 -57.5t-52 -151.5
q0 -93 51.5 -148t146.5 -55z" />
    <glyph glyph-name="r.sups" horiz-adv-x="520" 
d="M238 850h-121v584h121v-127q22 61 72 94t118 33h68v-109h-93q-58 0 -96.5 -32.5t-53.5 -79.5t-15 -107v-256z" />
    <glyph glyph-name="s.sups" horiz-adv-x="692" 
d="M354 840q-133 0 -210.5 53t-77.5 147h120q0 -50 43.5 -77t120.5 -27h12q140 0 140 76q0 64 -113 80l-117 14q-192 23 -192 162q0 82 71.5 129t192.5 47t194.5 -53.5t73.5 -143.5h-120q0 49 -40.5 75t-105.5 26h-12q-64 0 -99.5 -18t-35.5 -50q0 -34 22.5 -50.5
t97.5 -27.5l99 -14q100 -15 151.5 -58.5t51.5 -107.5q0 -88 -71.5 -135t-195.5 -47z" />
    <glyph glyph-name="t.sups" horiz-adv-x="532" 
d="M479 850h-155q-72 0 -114 40.5t-42 102.5v348h-143v93h143v184h123v-184h176v-93h-176v-319q0 -39 17.5 -57.5t62.5 -18.5h108v-96z" />
    <glyph glyph-name="u.sups" horiz-adv-x="792" 
d="M336 840q-108 0 -169 65t-61 168v361h125v-340q0 -77 37.5 -119.5t100.5 -42.5h12q70 0 120 56t50 136v310h125v-584h-125v92q-23 -40 -78 -71t-137 -31z" />
    <glyph glyph-name="v.sups" horiz-adv-x="684" 
d="M408 850h-132l-262 584h125l205 -484l205 484h121z" />
    <glyph glyph-name="w.sups" horiz-adv-x="1052" 
d="M377 850h-111l-237 584h129l161 -435l154 435h117l143 -453l164 453h121l-225 -584h-111l-156 457z" />
    <glyph glyph-name="x.sups" horiz-adv-x="724" 
d="M184 850h-141l254 293l-250 291h143l175 -217l176 217h139l-250 -289l252 -295h-145l-175 217z" />
    <glyph glyph-name="y.sups" horiz-adv-x="698" 
d="M256 614h-195v97h160q62 0 62 63v127l-279 533h125l217 -418l223 418h127l-288 -533v-143q0 -61 -42 -102.5t-110 -41.5z" />
    <glyph glyph-name="y.sups.ss04" horiz-adv-x="690" 
d="M203 614h-180v97h149q28 0 44.5 15t35.5 56l45 97l-291 555h129l223 -422l195 422h129l-315 -672q-18 -37 -26 -52.5t-23.5 -39t-29.5 -32.5t-35.5 -16.5t-49.5 -7.5z" />
    <glyph glyph-name="z.sups" horiz-adv-x="679" 
d="M614 850h-546v63l370 428h-364v93h520v-80l-363 -408h383v-96z" />
    <glyph glyph-name="zero.zero" horiz-adv-x="1525" 
d="M762 1454q134 0 247.5 -45.5t201 -134t137 -231.5t49.5 -326t-49.5 -326t-137 -231.5t-201 -134t-247.5 -45.5t-247 45.5t-200 134t-136.5 231.5t-49.5 326t49.5 326t137 231.5t200.5 134t246 45.5zM776 1313h-28q-65 1 -127.5 -14.5t-126 -57.5t-111 -107t-77.5 -172.5
t-30 -244.5q0 -216 74 -361l754 824q-126 137 -328 133zM748 117h28q66 0 128.5 16t126.5 59t111 108t77 172.5t30 244.5q0 208 -65 344l-750 -819q125 -125 314 -125z" />
    <glyph glyph-name="zero.osf" horiz-adv-x="1417" 
d="M709 -20q-167 0 -302 69t-211.5 191t-76.5 272t76.5 272t211.5 191t302 69t301.5 -69t211 -191t76.5 -272t-76.5 -272t-211 -191t-301.5 -69zM705 96h14q188 0 313 119t125 297t-125 297t-313 119h-21q-188 0 -313 -119t-125 -297t127 -297t318 -119z" />
    <glyph glyph-name="one.osf" horiz-adv-x="870" 
d="M664 0h-134v852l-440 -328v152l471 348h103v-1024z" />
    <glyph glyph-name="two.osf" horiz-adv-x="1103" 
d="M756 434l-484 -311h682v-123h-817v186l514 330q96 63 142.5 111t46.5 112q0 78 -73.5 133.5t-199.5 55.5h-16q-116 0 -197 -62.5t-82 -154.5h-139q0 140 124 236.5t302 96.5q188 0 305 -80.5t117 -224.5q0 -84 -52.5 -156t-172.5 -149z" />
    <glyph glyph-name="three.osf" horiz-adv-x="1325" 
d="M659 -430q-243 0 -394.5 104.5t-160.5 280.5h148q13 -123 122.5 -195.5t268.5 -72.5h27q171 0 279 83.5t108 211.5q0 123 -99 196.5t-274 73.5h-188v115h188q173 0 268 78.5t95 199.5q0 127 -102.5 205t-274.5 78h-27q-152 0 -257 -80t-114 -193h-143q8 168 154 278.5
t376 110.5q240 0 384.5 -109t144.5 -278q0 -73 -23 -134t-62.5 -101.5t-82 -67t-90.5 -43.5q111 -33 189.5 -119t78.5 -215q0 -189 -147 -298t-392 -109z" />
    <glyph glyph-name="four.osf" horiz-adv-x="1417" 
d="M1069 -410h-139v410h-846v166l821 858h164v-907h287v-117h-287v-410zM930 883l-733 -766h733v766z" />
    <glyph glyph-name="five.osf" horiz-adv-x="1298" 
d="M670 483q229 0 376.5 -126.5t147.5 -319.5q0 -210 -155 -338.5t-402 -128.5q-229 0 -384 109t-175 290h143q24 -129 135.5 -205.5t264.5 -76.5h28q182 0 293 99t111 251q0 144 -108 237t-286 93h-28q-102 0 -202 -51.5t-153 -141.5h-147l174 850h852v-123h-752l-114 -555
q69 66 173 101.5t208 35.5z" />
    <glyph glyph-name="six.osf" horiz-adv-x="1429" 
d="M731 946q241 0 399 -131.5t158 -343.5q0 -144 -76.5 -257t-204 -173.5t-280.5 -60.5q-283 0 -440.5 177t-157.5 513q0 170 51.5 316.5t140.5 249t213 160.5t265 58q205 0 344 -94.5t174 -263.5h-139q-31 112 -126.5 176.5t-240.5 64.5h-20q-222 0 -371 -175.5
t-170 -479.5q57 120 187 192t294 72zM717 96h20q180 0 295 102.5t115 262.5q0 161 -115 264.5t-295 103.5h-20q-183 0 -300.5 -102.5t-117.5 -263.5t117.5 -264t300.5 -103z" />
    <glyph glyph-name="seven.osf" horiz-adv-x="1212" 
d="M39 901v123h1116v-139q-661 -360 -661 -1192v-103h-140v103q0 427 165 737t458 471h-938z" />
    <glyph glyph-name="eight.osf" horiz-adv-x="1327" 
d="M664 -20q-209 0 -349.5 108.5t-140.5 282.5q0 119 68 206t155 119q-48 18 -92 47.5t-86 72.5t-67 105t-25 134q0 170 152 284.5t385 114.5q234 0 385 -112.5t151 -286.5q0 -72 -25 -134t-66.5 -105t-85.5 -72t-91 -48q86 -32 154.5 -119t68.5 -206q0 -115 -65.5 -205
t-177 -138t-248.5 -48zM649 762h29q171 0 276 78.5t105 206.5q0 131 -104.5 210.5t-276.5 79.5h-29q-172 0 -276.5 -79.5t-104.5 -210.5q0 -128 105 -206.5t276 -78.5zM649 96h29q148 0 242 77.5t94 199.5q0 120 -94 196t-242 76h-29q-147 0 -240.5 -76t-93.5 -196
q0 -121 94 -199t240 -78z" />
    <glyph glyph-name="nine.osf" horiz-adv-x="1398" 
d="M684 1047q282 0 440 -177.5t158 -513.5q0 -170 -51.5 -316.5t-140.5 -249t-213 -160.5t-265 -58q-205 0 -344 94.5t-174 263.5h139q31 -112 126.5 -176.5t240.5 -64.5h21q222 0 370.5 175.5t169.5 479.5q-57 -120 -187 -192t-294 -72q-241 0 -399 131.5t-158 343.5
q0 144 76.5 257.5t204 174t280.5 60.5zM674 197h20q183 0 300.5 102.5t117.5 263.5t-117.5 264t-300.5 103h-20q-180 0 -295 -102.5t-115 -262.5q0 -161 115 -264.5t295 -103.5z" />
    <glyph glyph-name="zero.osf.zero" horiz-adv-x="1417" 
d="M709 1044q167 0 301.5 -69t211 -191t76.5 -272t-76.5 -272t-211 -191t-301.5 -69t-302 69t-211.5 191t-76.5 272t76.5 272t211.5 191t302 69zM260 512q0 -148 92 -260l619 604q-112 72 -252 72h-21q-188 0 -313 -119t-125 -297zM705 96h14q188 0 313 119t125 297
q0 147 -92 260l-619 -602q113 -74 259 -74z" />
    <glyph glyph-name="zero.tf" 
d="M737 -20q-100 0 -188.5 28t-164.5 87t-130.5 145t-85.5 208t-31 269q0 183 47.5 326t130.5 231.5t190 134t232 45.5t232 -45.5t190 -134t130.5 -231.5t47.5 -326q0 -147 -31 -269t-85.5 -208t-130.5 -145t-164.5 -87t-188.5 -28zM723 117h29q61 0 118.5 16t117 59
t104 108t72.5 172.5t28 244.5t-28 244.5t-72.5 172.5t-104 108t-117 59t-118.5 16h-29q-60 0 -117 -16t-117 -59t-104.5 -108t-73 -172.5t-28.5 -244.5t28.5 -244.5t73 -172.5t104.5 -108t117 -59t117 -16z" />
    <glyph glyph-name="one.tf" 
d="M909 1434v-1301h428v-133h-1171v133h604v1096l-420 -328v172l461 361h98z" />
    <glyph glyph-name="two.tf" 
d="M954 612l-604 -473h924v-139h-1077v197l655 512q76 59 113 90.5t78 76.5t57 88t16 95q0 118 -102 188t-260 70h-29q-160 0 -257.5 -86.5t-102.5 -214.5h-154q6 195 154.5 316.5t373.5 121.5q151 0 269.5 -46t187 -135.5t68.5 -209.5q0 -58 -16 -110.5t-39.5 -93t-68 -86
t-83.5 -78.5t-103 -83z" />
    <glyph glyph-name="three.tf" 
d="M733 -20q-246 0 -402 104.5t-165 280.5h153q20 -118 130.5 -183t265.5 -65h28q177 0 287.5 75.5t110.5 198.5q0 121 -101 189.5t-282 68.5h-185v137h185q178 0 275 76t97 195q0 123 -103.5 191.5t-283.5 68.5h-28q-147 0 -251 -72.5t-118 -179.5h-153q5 167 154.5 278
t385.5 111q249 0 397 -107.5t148 -283.5q0 -69 -22 -127t-60 -98.5t-79.5 -68t-90.5 -46.5q110 -32 186 -116t76 -208q0 -195 -151 -307t-404 -112z" />
    <glyph glyph-name="four.tf" 
d="M1032 1434v-957h291v-135h-291v-342h-139v342h-746v168l709 924h176zM893 1276l-610 -799h610v799z" />
    <glyph glyph-name="five.tf" 
d="M770 893q221 0 365.5 -122t144.5 -316q0 -216 -151.5 -345.5t-403.5 -129.5q-232 0 -382.5 101t-176.5 288h153q30 -120 137.5 -186t254.5 -66h28q183 0 288.5 91.5t105.5 240.5q0 138 -106 222.5t-277 84.5h-29q-105 0 -202.5 -40.5t-149.5 -121.5h-152l174 840h852
v-142h-754l-108 -532q136 133 389 133z" />
    <glyph glyph-name="six.tf" 
d="M756 944q104 0 197.5 -31.5t165 -90t113.5 -149.5t42 -202q0 -224 -152 -357.5t-387 -133.5q-255 0 -402 165.5t-147 503.5q0 170 46.5 319t128.5 256t200.5 168.5t255.5 61.5q198 0 328.5 -96.5t152.5 -261.5h-153q-19 89 -101.5 155t-212.5 66h-28q-197 0 -326 -160
t-149 -424q65 103 177.5 157t250.5 54zM729 117h29q99 0 180.5 37t133.5 117t52 190t-52 190.5t-133.5 118t-180.5 37.5h-29q-101 0 -185 -37t-138 -117t-54 -190q0 -164 108.5 -255t268.5 -91z" />
    <glyph glyph-name="seven.tf" 
d="M117 1290v144h1218v-160q-243 -122 -399.5 -287t-238 -399.5t-81.5 -546.5v-41h-147v59q0 436 181 754t485 477h-1018z" />
    <glyph glyph-name="eight.tf" 
d="M737 -20q-219 0 -358 108t-139 283q0 118 72 205.5t161 119.5q-49 12 -96.5 39.5t-90.5 70t-69.5 105.5t-26.5 136q0 178 153 292.5t394 114.5q242 0 394.5 -113t152.5 -294q0 -73 -26.5 -136t-69.5 -105.5t-90.5 -70t-96.5 -39.5q90 -32 162 -120t72 -205
q0 -175 -139.5 -283t-358.5 -108zM723 772h29q180 0 282.5 68t102.5 198q0 131 -103.5 205t-281.5 74h-29q-178 0 -281.5 -74t-103.5 -205q0 -130 102 -198t283 -68zM723 117h29q153 0 244 71.5t91 190.5q0 118 -90.5 188t-244.5 70h-29q-154 0 -245 -70t-91 -188
q0 -119 91.5 -190.5t244.5 -71.5z" />
    <glyph glyph-name="nine.tf" 
d="M739 1454q255 0 402 -166t147 -504q0 -228 -79 -411t-224 -288t-328 -105q-198 0 -328.5 96.5t-152.5 261.5h154q19 -89 101 -155t212 -66h29q197 0 326 159.5t149 423.5q-65 -103 -177.5 -157t-250.5 -54q-104 0 -197.5 31.5t-165 90.5t-113.5 150t-42 202
q0 224 151.5 357.5t386.5 133.5zM717 627h28q101 0 185 37t138 117t54 190q0 164 -108.5 255t-268.5 91h-28q-74 0 -139 -22t-116.5 -63.5t-81.5 -108.5t-30 -150t30 -150t81.5 -109t117 -64.5t138.5 -22.5z" />
    <glyph glyph-name="zero.tf.zero" 
d="M737 1454q125 0 232 -45.5t190 -134t130.5 -231.5t47.5 -326q0 -147 -31 -269t-85.5 -208t-130.5 -145t-164.5 -87t-188.5 -28t-188.5 28t-164.5 87t-130.5 145t-85.5 208t-31 269q0 183 47.5 326t130.5 231.5t190 134t232 45.5zM752 1317h-29q-60 0 -117 -16t-117 -59
t-104.5 -108t-73 -172.5t-28.5 -244.5q0 -181 49 -311l753 737q-63 91 -151.5 132.5t-181.5 41.5zM723 117h29q61 0 118.5 16t117 59t104 108t72.5 172.5t28 244.5q0 173 -43 297l-750 -735q63 -84 149.5 -123t174.5 -39z" />
    <glyph glyph-name="zero.subs" horiz-adv-x="917" 
d="M461 -246q-173 0 -275 113t-102 301t102.5 302t274.5 114t272.5 -113.5t100.5 -302.5t-100.5 -301.5t-272.5 -112.5zM457 -143h8q80 0 136.5 46.5t81 115t24.5 149.5t-24.5 150t-81 116t-136.5 47h-8q-80 0 -137 -47t-82 -116t-25 -150t25 -149.5t82 -115t137 -46.5z" />
    <glyph glyph-name="one.subs" horiz-adv-x="583" 
d="M446 -236h-116v650l-281 -193v127l320 225h77v-809z" />
    <glyph glyph-name="two.subs" horiz-adv-x="796" 
d="M713 -236h-627v142l299 217q118 86 154 126.5t36 98.5q0 59 -48 96t-121 37h-11q-66 0 -122 -36.5t-56 -94.5h-127q0 103 92 168.5t221 65.5q132 0 217 -63t85 -173q0 -44 -14 -81t-47 -72t-58 -55.5t-74 -57.5l-297 -215h498v-103z" />
    <glyph glyph-name="three.subs" horiz-adv-x="806" 
d="M391 -246q-129 0 -222 60.5t-93 162.5h125q5 -53 55.5 -86.5t128.5 -33.5h10q85 0 141 38t56 103q0 59 -50.5 93t-127.5 34h-131v96h135q77 0 122.5 32.5t45.5 92.5q0 66 -49.5 100.5t-135.5 34.5h-10q-77 0 -125 -31.5t-53 -80.5h-125q0 100 91 157.5t222 57.5
t220.5 -60t89.5 -166q0 -63 -41.5 -112t-112.5 -74q76 -23 118 -72t42 -114q0 -105 -97.5 -168.5t-228.5 -63.5z" />
    <glyph glyph-name="four.subs" horiz-adv-x="829" 
d="M633 -236h-115v197h-471v115l459 497h127v-510h141v-102h-141v-197zM518 424l-352 -361h352v361z" />
    <glyph glyph-name="five.subs" horiz-adv-x="790" 
d="M387 -246q-140 0 -228 57t-98 160h125q9 -55 65 -84.5t134 -29.5h8q84 0 137.5 45.5t53.5 117.5q0 71 -52 110.5t-137 39.5h-6q-101 0 -184 -59h-109l90 462h510v-102h-420l-53 -254q73 55 193 55q132 0 212.5 -69t80.5 -178q0 -123 -92.5 -197t-229.5 -74z" />
    <glyph glyph-name="six.subs" horiz-adv-x="845" 
d="M420 -246q-157 0 -247.5 103.5t-90.5 287.5q0 199 106 319t265 120q76 0 136.5 -20t96 -52.5t55.5 -68.5t25 -74h-121q-14 48 -64.5 79t-123.5 31h-13q-98 0 -168.5 -77t-82.5 -209q29 51 100 82.5t160 31.5q125 0 213 -72.5t88 -191.5q0 -126 -89.5 -207.5t-244.5 -81.5
zM420 -143h6q88 0 147.5 49.5t59.5 124.5q0 77 -57 125.5t-146 48.5h-6q-88 0 -146.5 -49t-58.5 -125t56 -125t145 -49z" />
    <glyph glyph-name="seven.subs" horiz-adv-x="686" 
d="M317 -236h-124v74q0 91 21.5 177.5t53.5 151.5t77 126.5t82.5 101t80.5 76.5h-473v102h616v-108q-48 -40 -83.5 -73t-86 -95t-83.5 -124t-57 -151t-24 -184v-74z" />
    <glyph glyph-name="eight.subs" horiz-adv-x="788" 
d="M391 -246q-121 0 -206 57.5t-85 159.5q0 67 43.5 118t114.5 73q-74 22 -122 75.5t-48 120.5q0 105 85.5 165.5t221.5 60.5q137 0 223.5 -60.5t86.5 -165.5q0 -68 -47.5 -121t-122.5 -75q68 -22 108.5 -72.5t40.5 -118.5q0 -102 -85.5 -159.5t-207.5 -57.5zM387 219h10
q75 0 129 34t54 95q0 63 -52 98t-127 35h-10q-75 0 -126.5 -35t-51.5 -98q0 -61 51.5 -95t122.5 -34zM387 -143h10q68 0 115 35.5t47 97.5q0 58 -47.5 94.5t-114.5 36.5h-10q-67 0 -114.5 -36.5t-47.5 -94.5q0 -62 47 -97.5t115 -35.5z" />
    <glyph glyph-name="nine.subs" horiz-adv-x="845" 
d="M391 -246q-76 0 -137.5 20.5t-97.5 52.5t-56 66t-22 66h121q14 -41 65.5 -70.5t122.5 -29.5h12q98 0 169 77t83 209q-29 -51 -100 -82.5t-160 -31.5q-123 -8 -212 67.5t-89 196.5q0 126 89.5 207.5t244.5 81.5q157 0 247.5 -103.5t90.5 -287.5q0 -199 -106 -319
t-265 -120zM414 133h6q88 0 146.5 49t58.5 125t-56 125t-145 49h-6q-88 0 -147.5 -49.5t-59.5 -124.5q0 -77 57 -125.5t146 -48.5z" />
    <glyph glyph-name="zero.subs.zero" horiz-adv-x="915" 
d="M459 584q172 0 272 -113.5t100 -302.5t-100 -301.5t-272 -112.5q-173 0 -275 113t-102 301t102.5 302t274.5 114zM463 481h-8q-80 0 -137 -47t-82 -116t-25 -150q0 -68 18 -129l402 362q-64 80 -168 80zM455 -143h8q80 0 136.5 46.5t81 115t24.5 149.5q0 66 -19 131
l-401 -365q64 -77 170 -77z" />
    <glyph glyph-name="zero.dnom" horiz-adv-x="917" 
d="M461 -10q-173 0 -275 112.5t-102 300.5t102.5 302t274.5 114t272.5 -113.5t100.5 -302.5t-100.5 -301t-272.5 -112zM457 92h8q80 0 136.5 46.5t81 115t24.5 149.5t-24.5 150t-81 116.5t-136.5 47.5h-8q-80 0 -137 -47.5t-82 -116.5t-25 -150t25 -149.5t82 -115t137 -46.5
z" />
    <glyph glyph-name="one.dnom" horiz-adv-x="583" 
d="M444 0h-116v649l-281 -192v127l320 225h77v-809z" />
    <glyph glyph-name="two.dnom" horiz-adv-x="796" 
d="M713 0h-627v141l299 217q118 86 154 127t36 99q0 59 -48 96t-121 37h-11q-66 0 -122 -36.5t-56 -94.5h-127q0 103 92 168t221 65q132 0 217 -63t85 -172q0 -36 -11.5 -69t-26.5 -56.5t-45 -52t-50.5 -44.5t-59.5 -45l-297 -215h498v-102z" />
    <glyph glyph-name="three.dnom" horiz-adv-x="806" 
d="M391 -10q-129 0 -222 60.5t-93 162.5h125q5 -53 56 -87t128 -34h10q85 0 141 38t56 103q0 59 -50.5 93t-127.5 34h-131v97h135q77 0 122.5 32.5t45.5 92.5q0 66 -49.5 100.5t-135.5 34.5h-10q-77 0 -125 -32t-53 -81h-125q0 100 91 157.5t222 57.5t220.5 -59.5
t89.5 -165.5q0 -63 -41.5 -112t-112.5 -74q76 -23 118 -72.5t42 -114.5q0 -105 -97.5 -168t-228.5 -63z" />
    <glyph glyph-name="four.dnom" horiz-adv-x="829" 
d="M633 0h-115v197h-471v114l459 498h127v-510h141v-102h-141v-197zM518 659l-352 -360h352v360z" />
    <glyph glyph-name="five.dnom" horiz-adv-x="790" 
d="M387 -10q-140 0 -228 57t-98 160h125q9 -55 65 -85t134 -30h8q83 0 137 46t54 118q0 71 -52 110.5t-137 39.5h-6q-100 0 -184 -60h-109l90 463h510v-102h-420l-53 -254q73 55 193 55q132 0 212.5 -69.5t80.5 -178.5q0 -123 -92 -196.5t-230 -73.5z" />
    <glyph glyph-name="six.dnom" horiz-adv-x="845" 
d="M422 -10q-157 0 -247.5 103.5t-90.5 287.5q0 199 106 318.5t265 119.5q76 0 136.5 -20t96 -52.5t55.5 -68.5t25 -74h-121q-14 48 -65 79.5t-123 31.5h-13q-98 0 -168.5 -77.5t-82.5 -209.5q30 51 101 83t159 32q125 0 213 -72.5t88 -191.5q0 -126 -89.5 -207.5
t-244.5 -81.5zM422 92h6q88 0 147.5 49.5t59.5 124.5q0 76 -57 125t-146 49h-6q-88 0 -146.5 -49t-58.5 -125t56 -125t145 -49z" />
    <glyph glyph-name="seven.dnom" horiz-adv-x="686" 
d="M319 0h-124v74q0 91 21.5 177.5t53.5 151.5t77 126.5t82.5 101t80.5 76.5h-473v102h616v-109q-48 -40 -83.5 -73t-86 -94.5t-83.5 -123.5t-57 -151t-24 -184v-74z" />
    <glyph glyph-name="eight.dnom" horiz-adv-x="788" 
d="M391 -10q-121 0 -206 57.5t-85 159.5q0 67 43.5 117.5t114.5 72.5q-74 22 -122 76t-48 121q0 105 85 165t222 60t223.5 -60t86.5 -165q0 -68 -47.5 -121.5t-122.5 -75.5q68 -22 108.5 -72.5t40.5 -117.5q0 -102 -85.5 -159.5t-207.5 -57.5zM387 455h10q75 0 129 34t54 95
q0 63 -52 98t-127 35h-10q-75 0 -126.5 -35t-51.5 -98q0 -61 51.5 -95t122.5 -34zM387 92h10q68 0 115 35.5t47 97.5q0 58 -47.5 94.5t-114.5 36.5h-10q-67 0 -114.5 -36.5t-47.5 -94.5q0 -62 47 -97.5t115 -35.5z" />
    <glyph glyph-name="nine.dnom" horiz-adv-x="845" 
d="M391 -10q-76 0 -137.5 20.5t-97.5 52.5t-56 66t-22 66h121q15 -41 66 -71t122 -30h12q98 0 169 77.5t83 209.5q-30 -51 -101 -83t-159 -32q-123 -8 -212 67.5t-89 196.5q0 126 89.5 207.5t244.5 81.5q157 0 247.5 -103.5t90.5 -287.5q0 -199 -106 -318.5t-265 -119.5z
M414 369h6q88 0 146.5 49t58.5 125t-56 125t-145 49h-6q-88 0 -147.5 -49.5t-59.5 -124.5q0 -77 57 -125.5t146 -48.5z" />
    <glyph glyph-name="zero.dnom.zero" horiz-adv-x="915" 
d="M459 819q172 0 272 -113.5t100 -302.5t-100 -301t-272 -112q-173 0 -275 112.5t-102 300.5t102.5 302t274.5 114zM463 717h-8q-80 0 -137 -47.5t-82 -116.5t-25 -150q0 -67 18 -129l402 363q-64 80 -168 80zM455 92h8q80 0 136.5 46.5t81 115t24.5 149.5q0 67 -19 132
l-401 -365q65 -78 170 -78z" />
    <glyph glyph-name="zero.numr" horiz-adv-x="917" 
d="M461 614q-173 0 -275 113t-102 301t102.5 302t274.5 114t272.5 -113.5t100.5 -302.5t-100.5 -301.5t-272.5 -112.5zM457 717h8q80 0 136.5 46.5t81 115t24.5 149.5t-24.5 150t-81 116t-136.5 47h-8q-80 0 -137 -47t-82 -116t-25 -150t25 -149.5t82 -115t137 -46.5z" />
    <glyph glyph-name="one.numr" horiz-adv-x="583" 
d="M446 625h-116v649l-281 -193v127l320 226h77v-809z" />
    <glyph glyph-name="two.numr" horiz-adv-x="796" 
d="M713 625h-627v141l299 217q118 86 154 126.5t36 98.5q0 59 -48 96t-121 37h-11q-66 0 -122 -36.5t-56 -94.5h-127q0 103 92 168.5t221 65.5q132 0 217 -63t85 -173q0 -44 -14 -81t-47 -72t-58 -55.5t-74 -57.5l-297 -215h498v-102z" />
    <glyph glyph-name="three.numr" horiz-adv-x="806" 
d="M391 614q-129 0 -222 61t-93 163h125q5 -53 56 -87t128 -34h10q85 0 141 38t56 103q0 59 -50.5 93t-127.5 34h-131v96h135q77 0 122.5 32.5t45.5 92.5q0 66 -49.5 100.5t-135.5 34.5h-10q-77 0 -125 -31.5t-53 -80.5h-125q0 100 91 157.5t222 57.5t220.5 -59.5
t89.5 -165.5q0 -63 -41.5 -112.5t-112.5 -74.5q76 -23 118 -72t42 -114q0 -105 -97.5 -168.5t-228.5 -63.5z" />
    <glyph glyph-name="four.numr" horiz-adv-x="829" 
d="M633 625h-115v196h-471v115l459 498h127v-510h141v-103h-141v-196zM518 1284l-352 -360h352v360z" />
    <glyph glyph-name="five.numr" horiz-adv-x="790" 
d="M387 614q-140 0 -228 57t-98 160h125q9 -55 65 -84.5t134 -29.5h8q83 0 137 46t54 118q0 70 -52 109.5t-137 39.5h-6q-101 0 -184 -59h-109l90 463h510v-103h-420l-53 -254q74 56 193 56q132 0 212.5 -69.5t80.5 -178.5q0 -123 -92.5 -197t-229.5 -74z" />
    <glyph glyph-name="six.numr" horiz-adv-x="845" 
d="M422 614q-157 0 -247.5 104t-90.5 288q0 199 106 318.5t265 119.5q76 0 136.5 -20t96 -52.5t55.5 -68.5t25 -74h-121q-14 48 -64.5 79t-123.5 31h-13q-98 0 -168.5 -77t-82.5 -209q29 51 100 82.5t160 31.5q125 0 213 -72.5t88 -191.5q0 -126 -89.5 -207.5t-244.5 -81.5z
M422 717h6q88 0 147.5 49.5t59.5 124.5q0 76 -57 125t-146 49h-6q-88 0 -146.5 -49t-58.5 -125t56 -125t145 -49z" />
    <glyph glyph-name="seven.numr" horiz-adv-x="686" 
d="M319 625h-124v73q0 91 21.5 177.5t53.5 151.5t77 126.5t82.5 101t80.5 76.5h-473v103h616v-109q-48 -40 -83.5 -73t-86 -95t-83.5 -124t-57 -151t-24 -184v-73z" />
    <glyph glyph-name="eight.numr" horiz-adv-x="788" 
d="M391 614q-121 0 -206 57.5t-85 159.5q0 67 43.5 118t114.5 73q-74 22 -122 76t-48 121q0 105 85 165t222 60t223.5 -60t86.5 -165q0 -68 -47.5 -121.5t-122.5 -75.5q68 -22 108.5 -72.5t40.5 -118.5q0 -102 -85.5 -159.5t-207.5 -57.5zM387 1079h10q75 0 129 34t54 95
q0 63 -52 98t-127 35h-10q-75 0 -126.5 -35t-51.5 -98q0 -61 51.5 -95t122.5 -34zM387 717h10q68 0 115 35.5t47 97.5q0 58 -47.5 94.5t-114.5 36.5h-10q-67 0 -114.5 -36.5t-47.5 -94.5q0 -62 47 -97.5t115 -35.5z" />
    <glyph glyph-name="nine.numr" horiz-adv-x="845" 
d="M391 614q-76 0 -137.5 20.5t-97.5 52.5t-56 66t-22 66h121q14 -41 65.5 -70.5t122.5 -29.5h12q98 0 169 77.5t83 209.5q-30 -51 -101 -83t-159 -32q-123 -8 -212 67.5t-89 196.5q0 126 89.5 207.5t244.5 81.5q157 0 247.5 -103.5t90.5 -287.5q0 -199 -106 -319t-265 -120
zM414 993h6q88 0 146.5 49t58.5 125t-56 125t-145 49h-6q-88 0 -147.5 -49.5t-59.5 -124.5q0 -77 57 -125.5t146 -48.5z" />
    <glyph glyph-name="zero.numr.zero" horiz-adv-x="915" 
d="M459 1444q172 0 272 -113.5t100 -302.5t-100 -301.5t-272 -112.5q-173 0 -275 113t-102 301t102.5 302t274.5 114zM463 1341h-8q-80 0 -137 -47t-82 -116t-25 -150q0 -68 18 -129l402 363q-63 79 -168 79zM455 717h8q80 0 136.5 46.5t81 115t24.5 149.5q0 66 -19 131
l-401 -364q65 -78 170 -78z" />
    <glyph glyph-name="uni2070.zero" horiz-adv-x="917" 
d="M461 1669q172 0 272.5 -113.5t100.5 -302.5t-100.5 -301t-272.5 -112q-173 0 -275 112.5t-102 300.5t102.5 302t274.5 114zM465 1567h-8q-80 0 -137 -47.5t-82 -116.5t-25 -150q0 -67 18 -129l402 363q-64 80 -168 80zM457 942h8q80 0 136.5 46.5t81 115t24.5 149.5
q0 66 -19 131l-401 -364q65 -78 170 -78z" />
    <glyph glyph-name="exclamdown.case" horiz-adv-x="569" 
d="M197 1434h178v-185h-178v185zM254 1014h61l41 -584v-430h-143v430z" />
    <glyph glyph-name="questiondown.case" horiz-adv-x="1089" 
d="M641 1436h178v-185h-178v185zM664 1016h133v-260q0 -92 -36 -128t-128 -36h-172q-111 0 -174.5 -68t-63.5 -166q0 -96 69.5 -159.5t188.5 -63.5h520v-133h-548q-155 0 -262 101t-107 253q0 165 104.5 267t274.5 102h131q42 0 56 18t14 52v221z" />
    <glyph glyph-name="question.ss06" horiz-adv-x="1144" 
d="M549 420h-148v184q0 57 27 95.5t90 70.5l154 78q46 23 74 38t64.5 40.5t57 49t35.5 56t15 68.5q0 91 -93 156t-247 65q-157 0 -249 -64t-104 -182h-147q9 179 147 279t353 100q127 0 237.5 -43t180 -126.5t69.5 -190.5q0 -56 -20.5 -106.5t-49.5 -86t-73.5 -69.5
t-78 -53.5t-77.5 -41.5l-117 -59q-61 -31 -80.5 -55t-19.5 -70v-133zM567 0h-178v184h178v-184z" />
    <glyph glyph-name="questiondown.ss06" horiz-adv-x="1130" 
d="M571 1024h179v-184h-179v184zM590 604h147v-184q0 -57 -26.5 -95.5t-89.5 -70.5l-154 -78q-46 -23 -74 -38t-64.5 -40.5t-57 -49t-35.5 -56t-15 -68.5q0 -91 93 -156t247 -65q157 0 248.5 64t103.5 182h148q-9 -179 -147 -279t-353 -100q-127 0 -237.5 43t-180 126.5
t-69.5 190.5q0 56 20.5 106.5t49.5 86t73.5 69.5t78 53.5t77.5 41.5l116 59q62 31 81.5 55t19.5 70v133z" />
    <glyph glyph-name="questiondown.ss06.case" horiz-adv-x="1146" 
d="M580 1434h178v-185h-178v185zM598 1014h147v-185q0 -57 -26.5 -95t-89.5 -70l-154 -78q-46 -23 -74 -38t-64.5 -40.5t-57 -49t-35.5 -56t-15 -68.5q0 -91 93 -156t247 -65q157 0 249 63.5t104 181.5h147q-9 -179 -147 -278.5t-353 -99.5q-127 0 -237.5 43t-180 126.5
t-69.5 190.5q0 56 20.5 106.5t49.5 86t73.5 69.5t78 53t77.5 41l117 60q61 31 80.5 55t19.5 70v133z" />
    <glyph glyph-name="period.tf" 
d="M840 0h-205v205h205v-205z" />
    <glyph glyph-name="comma.tf" 
d="M651 -236h-82v91h78q98 0 98 98v47h-114v205h215v-246q0 -93 -51 -144t-144 -51z" />
    <glyph glyph-name="colon.tf" 
d="M840 819h-205v205h205v-205zM840 0h-205v205h205v-205z" />
    <glyph glyph-name="semicolon.tf" 
d="M856 819h-205v205h205v-205zM662 -236h-82v91h77q99 0 99 98v47h-115v205h215v-246q0 -93 -50.5 -144t-143.5 -51z" />
    <glyph glyph-name="numbersign.tf" 
d="M1362 1047v-117h-234l-114 -426h262v-117h-295l-104 -387h-134l105 387h-399l-105 -387h-133l104 387h-204v117h237l115 426h-264v117h297l104 387h133l-104 -387h399l105 387h133l-105 -387h201zM481 504h400l114 426h-399z" />
    <glyph glyph-name="parenleft.case" horiz-adv-x="804" 
d="M700 117v-137q-107 15 -210.5 76t-185 155t-131.5 227t-50 279t50 279t131.5 227t185 155t210.5 76v-137q-83 -15 -159.5 -64t-137 -124.5t-97 -183t-36.5 -228.5t36 -228t97 -182.5t137.5 -124.5t159.5 -65z" />
    <glyph glyph-name="parenright.case" horiz-adv-x="804" 
d="M104 1317v137q107 -15 210.5 -76t185.5 -155t132 -227t50 -279t-50 -279t-132 -227t-185.5 -155t-210.5 -76v137q83 15 160 64t137.5 124.5t97 183t36.5 228.5t-36.5 228t-97 182.5t-137.5 124.5t-160 65z" />
    <glyph glyph-name="braceleft.case" horiz-adv-x="854" 
d="M743 0h-194q-125 0 -182.5 74t-57.5 223v143q0 78 -20.5 105.5t-81.5 27.5h-92v287h92q61 0 81.5 27.5t20.5 105.5v144q0 149 57.5 223t182.5 74h194v-138h-143q-87 0 -115 -31t-28 -118v-236q0 -174 -195 -174v-41q195 0 195 -174v-235q0 -87 28 -118.5t115 -31.5h143
v-137z" />
    <glyph glyph-name="braceright.case" horiz-adv-x="856" 
d="M111 1436h194q125 0 182.5 -74t57.5 -223v-144q0 -78 20.5 -105.5t81.5 -27.5h92v-287h-92q-61 0 -81.5 -27.5t-20.5 -105.5v-143q0 -149 -57.5 -223t-182.5 -74h-194v137h143q87 0 115 31.5t28 118.5v235q0 174 195 174v41q-195 0 -195 174v236q0 87 -28 118t-115 31
h-143v138z" />
    <glyph glyph-name="bracketleft.case" horiz-adv-x="757" 
d="M647 0h-424v1434h424v-138h-276v-1159h276v-137z" />
    <glyph glyph-name="bracketright.case" horiz-adv-x="757" 
d="M111 1434h424v-1434h-424v137h276v1159h-276v138z" />
    <glyph glyph-name="edgeleft.case" horiz-adv-x="874" 
d="M756 0h-267q-110 0 -190 72.5t-80 183.5q0 90 78 174q-170 37 -170 234v106q0 197 170 234q-78 84 -78 174q0 111 80 183.5t190 72.5h267v-117h-252q-68 0 -108 -35.5t-40 -95.5v-17q0 -60 40.5 -96.5t107.5 -36.5h98v-116h-160q-178 0 -178 -179v-49q0 -178 178 -178
h160v-117h-98q-67 0 -107.5 -36.5t-40.5 -96.5v-16q0 -60 40 -95.5t108 -35.5h252v-117z" />
    <glyph glyph-name="edgeright.case" horiz-adv-x="874" 
d="M119 1434h266q110 0 190 -72.5t80 -183.5q0 -91 -77 -174q170 -37 170 -234v-106q0 -197 -170 -234q77 -83 77 -174q0 -111 -80 -183.5t-190 -72.5h-266v117h252q67 0 107 35.5t40 95.5v16q0 60 -40 96.5t-107 36.5h-99v117h160q178 0 178 178v49q0 179 -178 179h-160
v116h99q67 0 107 36.5t40 96.5v17q0 60 -40 95.5t-107 35.5h-252v117z" />
    <glyph glyph-name="hyphen.case" horiz-adv-x="925" 
d="M760 662h-594v112h594v-112z" />
    <glyph glyph-name="uni00AD.case" horiz-adv-x="925" 
d="M760 662h-594v112h594v-112z" />
    <glyph glyph-name="endash.case" horiz-adv-x="1376" 
d="M1210 662h-1044v112h1044v-112z" />
    <glyph glyph-name="emdash.case" horiz-adv-x="2154" 
d="M1989 662h-1823v112h1823v-112z" />
    <glyph glyph-name="uni2015.case" horiz-adv-x="2154" 
d="M1989 662h-1823v112h1823v-112z" />
    <glyph glyph-name="guillemotleft.case" horiz-adv-x="1271" 
d="M500 1157h170l-383 -438l385 -443h-172l-389 441zM1112 1157l-383 -438l385 -443h-172l-389 441l389 440h170z" />
    <glyph glyph-name="guillemotright.case" horiz-adv-x="1273" 
d="M160 1157h172l389 -440l-389 -441h-170l383 439zM602 1157h172l389 -440l-389 -441h-170l383 439z" />
    <glyph glyph-name="guilsinglleft.case" horiz-adv-x="829" 
d="M670 1157l-383 -438l385 -443h-172l-389 441l389 440h170z" />
    <glyph glyph-name="guilsinglright.case" horiz-adv-x="829" 
d="M160 1157h170l389 -440l-389 -441h-172l385 443z" />
    <glyph glyph-name="space.tf" 
 />
    <glyph glyph-name="uni20BF.tf" 
d="M1417 389q0 -166 -118.5 -273t-292.5 -116v-246h-127v246h-267v-246h-127v246h-288v1434h288v245h127v-245h267v245h127v-247q169 -15 272.5 -117.5t103.5 -259.5q0 -114 -62.5 -200.5t-150.5 -125.5q101 -25 174.5 -115.5t73.5 -224.5zM920 1296h-574v-501h574
q148 0 229.5 67t81.5 193q0 110 -83 175.5t-228 65.5zM346 137h588q151 0 241.5 72t90.5 188q0 122 -89.5 191t-242.5 69h-588v-520z" />
    <glyph glyph-name="cent.tf" 
d="M1112 328h143q-34 -161 -160 -254.5t-323 -93.5q-41 0 -59 2l-45 -228h-129l49 248q-177 50 -273 186.5t-96 323.5q0 233 147 382.5t406 149.5h23l45 226h129l-47 -242q140 -31 227 -117.5t102 -214.5h-143q-15 78 -70.5 135t-140.5 82l-160 -809h25h20q128 0 216 63
t114 161zM360 512q0 -136 64 -240.5t188 -144.5l160 801h-10q-99 0 -177 -33.5t-126.5 -91.5t-73.5 -132t-25 -159z" />
    <glyph glyph-name="currency.tf" 
d="M1241 682q0 -150 -84 -274l174 -175l-80 -81l-174 165q-143 -124 -342 -124q-200 0 -338 122l-172 -163l-80 81l170 170q-88 125 -88 279q0 150 84 270l-166 168l80 80l168 -160q143 121 342 121q204 0 346 -123l170 162l80 -80l-170 -172q80 -119 80 -266zM735 315h8
q159 0 265 103t106 264q0 159 -105.5 256.5t-265.5 97.5h-18q-159 0 -265 -98t-106 -256q0 -160 110.5 -263.5t270.5 -103.5z" />
    <glyph glyph-name="dollar.tf" 
d="M813 793l49 -9q209 -37 312.5 -134.5t103.5 -264.5q0 -190 -136.5 -297.5t-389.5 -107.5q-33 0 -95 4l-43 -230h-125l48 248q-178 40 -276 154t-101 295h147q4 -122 70 -201.5t184 -112.5l101 522l-41 9q-206 38 -298 125t-92 260q0 78 30.5 148.5t91 128t161 91
t229.5 33.5q45 0 68 -2l43 227h127l-47 -245q163 -40 258.5 -149t110.5 -271h-148q-13 109 -77 181.5t-169 102.5zM655 821l35 -6l94 502h-26h-31q-167 0 -262.5 -73.5t-95.5 -186.5q0 -100 68 -154.5t218 -81.5zM735 117h29q193 0 285 70t92 192q0 100 -75.5 161t-244.5 91
l-39 6l-98 -518q16 -2 51 -2z" />
    <glyph glyph-name="Euro.tf" 
d="M821 117h21q312 0 350 303h141q-20 -209 -149 -324.5t-350 -115.5q-199 0 -324.5 104.5t-179.5 300.5l-203 -41v129l178 37q-14 85 -14 203l-164 -35v129l168 35q24 294 158 453t381 159q221 0 350 -115.5t149 -324.5h-141q-38 303 -350 303h-21q-335 0 -381 -445
l484 101v-129l-492 -103v-24q0 -88 10 -180l396 81v-129l-371 -75q81 -297 354 -297z" />
    <glyph glyph-name="florin.tf" 
d="M1169 1296h-133q-116 0 -161 -52t-66 -189l-23 -144h326v-127h-344l-127 -823q-30 -198 -109.5 -284.5t-246.5 -86.5h-150v138h133q119 0 165 52.5t67 188.5l125 815h-265v127h285l23 150q32 208 111 290.5t247 82.5h143v-138z" />
    <glyph glyph-name="sterling.tf" 
d="M485 137h822v-137h-1117v137h93q78 0 117.5 44.5t48.5 135.5l30 289l-284 -59v129l297 63l28 267q23 214 120 321t294 107h272v-138h-278q-133 0 -191.5 -74.5t-74.5 -226.5l-25 -225l319 68v-129l-331 -70l-33 -303q-8 -78 -31 -122.5t-76 -76.5z" />
    <glyph glyph-name="uni20A9.tf" 
d="M1313 1434h155l-129 -660h127v-112h-149l-129 -662h-223l-119 662h-219l-123 -662h-223l-123 662h-150v112h129l-123 660h156l117 -660h233l127 660h199l121 -660h229zM739 1257l-90 -483h176zM307 662l92 -517l101 517h-193zM987 662l96 -527l93 527h-189z" />
    <glyph glyph-name="yen.tf" 
d="M1237 1434h190l-497 -664l295 61v-129l-410 -84l-2 -4v-165l350 71v-129l-350 -72v-319h-149v289l-357 -72v129l357 72v168l-418 -86v129l352 73l-549 732h193l499 -672z" />
    <glyph glyph-name="plus.case" horiz-adv-x="1263" 
d="M700 221h-137v428h-459v137h459v428h137v-428h459v-137h-459v-428z" />
    </font>
</defs>
</svg>
