<?xml version="1.0" standalone="no"?>
<!DOCTYPE svg PUBLIC "-//W3C//DTD SVG 1.1//EN" "http://www.w3.org/Graphics/SVG/1.1/DTD/svg11.dtd" >
<svg xmlns="http://www.w3.org/2000/svg" xmlns:xlink="http://www.w3.org/1999/xlink" version="1.1">
<metadata>
Created by FontForge 20170731 at Wed Jul  6 13:55:23 2022
 By Aleksey,,,
Copyright 2020 Dinamo (Johannes Breyer, Fabian Harb). All rights reserved.
</metadata>
<defs>
<font id="ABCFavoritExtended-Bold" horiz-adv-x="1474" >
  <font-face 
    font-family="ABC Favorit Extended"
    font-weight="700"
    font-stretch="semi-expanded"
    units-per-em="2048"
    panose-1="2 11 8 5 3 2 2 6 2 3"
    ascent="1638"
    descent="-410"
    x-height="1024"
    cap-height="1434"
    bbox="-389 -633 5077 1946"
    underline-thickness="102"
    underline-position="-307"
    unicode-range="U+0020-FB02"
  />
<missing-glyph horiz-adv-x="1536" 
d="M1372 0h-1208v1434h1208v-1434zM389 1225v-1016h758v1016h-758z" />
    <glyph glyph-name="fi" unicode="fi" horiz-adv-x="1443" 
d="M575 0h-272v805h-262v219h262v174q0 109 65.5 172.5t186.5 63.5h295v-226h-184q-48 0 -69.5 -15.5t-21.5 -59.5v-109h723v-1024h-272v805h-451v-805zM1307 1149h-293v285h293v-285z" />
    <glyph glyph-name="fl" unicode="fl" horiz-adv-x="1433" 
d="M575 0h-272v805h-262v219h262v174q0 109 65.5 172.5t186.5 63.5h733v-1434h-272v1208h-350q-48 0 -69.5 -15.5t-21.5 -59.5v-109h254v-219h-254v-805z" />
    <glyph glyph-name="f_f" unicode="ff" horiz-adv-x="1720" 
d="M575 0h-272v805h-262v219h262v174q0 109 65.5 172.5t186.5 63.5h356v-226h-245q-48 0 -69.5 -15.5t-21.5 -59.5v-109h533v174q0 109 65.5 172.5t186.5 63.5h377v-226h-267q-48 0 -69 -15.5t-21 -59.5v-109h295v-219h-295v-805h-272v805h-533v-805z" />
    <glyph glyph-name="f_f_i" unicode="ffi" horiz-adv-x="2330" 
d="M575 0h-272v805h-262v219h262v174q0 109 65.5 172.5t186.5 63.5h377v-226h-266q-48 0 -69.5 -15.5t-21.5 -59.5v-109h533v174q0 109 65.5 172.5t186.5 63.5h377v-226h-267q-48 0 -69 -15.5t-21 -59.5v-109h805v-1024h-272v805h-533v-805h-272v805h-533v-805zM2193 1149
h-292v285h292v-285z" />
    <glyph glyph-name="f_f_l" unicode="ffl" horiz-adv-x="2330" 
d="M575 0h-272v805h-262v219h262v174q0 109 65.5 172.5t186.5 63.5h377v-226h-266q-48 0 -69.5 -15.5t-21.5 -59.5v-109h533v174q0 109 65.5 172.5t186.5 63.5h825v-1434h-272v1208h-443q-48 0 -69 -15.5t-21 -59.5v-109h295v-219h-295v-805h-272v805h-533v-805z" />
    <glyph glyph-name="w_w_w.liga" unicode="www" horiz-adv-x="4849" 
d="M4344 336l227 688h283l-373 -1024h-283l-237 688l-240 -688h-280l-248 680l-248 -680h-283l-237 688l-240 -688h-280l-248 680l-248 -680h-283l-237 688l-240 -688h-280l-373 1024h283l235 -676l227 676h293l238 -688l227 688h316l235 -676l227 676h293l238 -688l227 688
h316l235 -676l227 676h293z" />
    <glyph glyph-name=".notdef" horiz-adv-x="1536" 
d="M1372 0h-1208v1434h1208v-1434zM389 1225v-1016h758v1016h-758z" />
    <glyph glyph-name=".null" horiz-adv-x="0" 
 />
    <glyph glyph-name="nonmarkingreturn" horiz-adv-x="682" 
 />
    <glyph glyph-name="space" unicode=" " horiz-adv-x="536" 
 />
    <glyph glyph-name="exclam" unicode="!" horiz-adv-x="620" 
d="M383 389h-143l-70 563v482h283v-482zM473 0h-328v301h328v-301z" />
    <glyph glyph-name="quotedbl" unicode="&#x22;" horiz-adv-x="823" 
d="M291 942h-105l-65 277v215h235v-215zM637 942h-105l-65 277v215h235v-215z" />
    <glyph glyph-name="numbersign" unicode="#" horiz-adv-x="1687" 
d="M1595 1106v-240h-303l-78 -303h295v-239h-356l-84 -324h-252l84 324h-317l-84 -324h-252l84 324h-242v239h303l78 303h-293v240h354l84 328h252l-84 -328h318l84 328h252l-84 -328h241zM645 563h318l77 303h-317z" />
    <glyph glyph-name="dollar" unicode="$" horiz-adv-x="1517" 
d="M969 1174l-70 -332q500 -82 500 -439q0 -204 -161.5 -313.5t-463.5 -109.5h-53l-47 -226h-240l53 256q-196 48 -302 166.5t-109 304.5h297q9 -156 168 -217l71 346q-240 43 -348 140t-108 280q0 85 36.5 160t108 134.5t190.5 94.5t273 35h22l48 225h239l-53 -256
q182 -45 286 -159t121 -281h-297q-18 137 -161 191zM440 1049q0 -73 53.5 -111t174.5 -59l67 325q-138 -1 -216.5 -45t-78.5 -110zM772 229h16q166 0 246 44.5t80 119.5q0 70 -61.5 112.5t-200.5 65.5l-8 2z" />
    <glyph glyph-name="percent" unicode="%" horiz-adv-x="2058" 
d="M461 614q-99 0 -175.5 35t-121.5 94.5t-67.5 131.5t-22.5 153t22.5 153.5t67.5 132.5t121.5 95t175.5 35t175.5 -35t121.5 -95t67.5 -132.5t22.5 -153.5t-22.5 -153t-67.5 -131.5t-121.5 -94.5t-175.5 -35zM651 0h-260l1024 1434h260zM457 803h8q79 0 120.5 58.5
t41.5 166.5t-41.5 167.5t-120.5 59.5h-8q-79 0 -120.5 -59.5t-41.5 -167.5t41.5 -166.5t120.5 -58.5zM1597 -10q-80 0 -145.5 23t-109.5 62t-74.5 92.5t-44 112.5t-13.5 123q0 81 22.5 153.5t67.5 132.5t121.5 95t175.5 35t175.5 -35t122 -95t68 -132.5t22.5 -153.5
t-22.5 -153t-68 -131.5t-122 -94t-175.5 -34.5zM1593 178h9q79 0 120 58.5t41 166.5q0 109 -41 168.5t-120 59.5h-9q-79 0 -120 -59.5t-41 -168.5q0 -108 41 -166.5t120 -58.5z" />
    <glyph glyph-name="ampersand" unicode="&#x26;" horiz-adv-x="1576" 
d="M1255 0h-720q-114 0 -211.5 44.5t-159.5 132.5t-62 202q0 127 74 218t199 130q-118 43 -190 128.5t-72 209.5q0 114 58 199.5t151.5 127.5t207.5 42h404v-215h-322q-106 0 -169.5 -46t-63.5 -141q0 -96 64.5 -146t168.5 -50h377v247h266v-247h275v-215h-275v-621z
M612 215h377v406h-377q-108 0 -175.5 -49t-67.5 -150q0 -102 68.5 -154.5t174.5 -52.5z" />
    <glyph glyph-name="quotesingle" unicode="'" horiz-adv-x="477" 
d="M291 942h-105l-65 277v215h235v-215z" />
    <glyph glyph-name="parenleft" unicode="(" horiz-adv-x="903" 
d="M844 -74v-223q-160 12 -289 76.5t-214 162t-142.5 226t-82 265t-24.5 284.5q0 146 25.5 281.5t83 263t143 224.5t214 162.5t286.5 82.5v-224q-107 -21 -190.5 -73t-138 -124.5t-89.5 -169t-49.5 -200t-14.5 -223.5t14.5 -223.5t49.5 -200t89.5 -169t138 -125t190.5 -73.5
z" />
    <glyph glyph-name="parenright" unicode=")" horiz-adv-x="903" 
d="M59 1507v224q160 -12 289 -76.5t214 -162t142.5 -226t82 -265t24.5 -284.5q0 -146 -25.5 -281.5t-83 -263t-143 -224.5t-214 -162.5t-286.5 -82.5v223q107 21 190.5 73.5t138 125t89.5 169t49.5 200t14.5 223.5t-14.5 223.5t-49.5 200t-89.5 169t-138 124.5t-190.5 73z
" />
    <glyph glyph-name="asterisk" unicode="*" horiz-adv-x="974" 
d="M485 1022l-133 -188l-166 110l111 158h-195v188h195l-111 158l166 111l133 -189l131 189l166 -111l-110 -158h202v-188h-202l110 -158l-166 -110z" />
    <glyph glyph-name="plus" unicode="+" horiz-adv-x="1312" 
d="M793 31h-273v379h-430v235h430v379h273v-379h430v-235h-430v-379z" />
    <glyph glyph-name="comma" unicode="," horiz-adv-x="618" 
d="M195 -307h-125v157h114q123 0 123 130v20h-160v301h328v-332q0 -114 -74.5 -195t-205.5 -81z" />
    <glyph glyph-name="hyphen" unicode="-" horiz-adv-x="950" 
d="M813 508h-676v223h676v-223z" />
    <glyph glyph-name="period" unicode="." horiz-adv-x="606" 
d="M467 0h-328v301h328v-301z" />
    <glyph glyph-name="slash" unicode="/" horiz-adv-x="1058" 
d="M348 0h-282l643 1434h282z" />
    <glyph glyph-name="zero" unicode="0" horiz-adv-x="1570" 
d="M784 -20q-143 0 -263.5 45.5t-213 134t-144.5 231.5t-52 326t52.5 326t144.5 231.5t213 134t263 45.5t263 -45.5t214 -134t146 -231.5t53 -326t-52.5 -326t-145.5 -231.5t-214 -134t-264 -45.5zM770 219h29q53 0 103 13.5t101.5 49t90 90t62.5 143.5t24 202
q0 95 -16.5 173t-46 131t-66.5 91.5t-81 60t-86 31.5t-85 10h-29q-52 0 -102 -13.5t-101.5 -49t-89.5 -89.5t-62 -143t-24 -202t24 -202t62 -143.5t89.5 -90t101.5 -49t102 -13.5z" />
    <glyph glyph-name="one" unicode="1" horiz-adv-x="911" 
d="M70 1073l419 361h232v-1434h-272v1098l-379 -324v299z" />
    <glyph glyph-name="two" unicode="2" horiz-adv-x="1392" 
d="M864 537l-461 -287h873v-250h-1159v365l604 376q146 92 205 154.5t59 136.5q0 82 -73.5 132t-196.5 50h-29q-120 0 -191.5 -65.5t-76.5 -163.5h-287q6 211 163 340t406 129q252 0 409 -109t157 -298q0 -82 -26.5 -151t-83 -131t-123.5 -113.5t-169 -114.5z" />
    <glyph glyph-name="three" unicode="3" horiz-adv-x="1421" 
d="M705 -20q-264 0 -432 113t-177 302h287q14 -83 99 -129.5t204 -46.5h29q137 0 221 52t84 143q0 83 -78 133.5t-213 50.5h-205v240h205q135 0 208 52t73 140q0 83 -80 133.5t-215 50.5h-29q-111 0 -188 -51.5t-88 -128.5h-287q5 181 166.5 300.5t415.5 119.5
q267 0 426 -107.5t159 -283.5q0 -69 -22 -127t-60 -98t-79.5 -67t-90.5 -46q110 -32 186 -117t76 -209q0 -195 -162 -307t-433 -112z" />
    <glyph glyph-name="four" unicode="4" horiz-adv-x="1492" 
d="M1161 1434v-906h264v-237h-264v-291h-272v291h-823v272l776 871h319zM889 1130l-539 -602h539v602z" />
    <glyph glyph-name="five" unicode="5" horiz-adv-x="1374" 
d="M731 924q247 0 392 -130t145 -339q0 -218 -160 -346.5t-432 -128.5q-258 0 -418 107t-186 312h286q23 -85 105 -132.5t194 -47.5h29q139 0 220 64t81 166q0 105 -81 170t-210 65h-28q-77 0 -151.5 -31t-113.5 -90h-286l180 871h934v-250h-725l-70 -340q127 80 295 80z
" />
    <glyph glyph-name="six" unicode="6" horiz-adv-x="1488" 
d="M782 975q118 0 221.5 -31.5t184 -91.5t127.5 -155t47 -214q0 -228 -170 -365.5t-447 -137.5q-300 0 -467 165t-167 504q0 170 52.5 319t145 256t225.5 168.5t289 61.5q231 0 384 -104.5t179 -284.5h-286q-15 60 -84 104.5t-178 44.5h-29q-150 0 -261.5 -100.5
t-154.5 -271.5q151 133 389 133zM735 219h29q131 0 223 68.5t92 185.5q0 87 -45 148t-114.5 87.5t-155.5 26.5h-29q-66 0 -123 -15.5t-103 -46t-72.5 -81.5t-26.5 -117q0 -117 94.5 -186.5t230.5 -69.5z" />
    <glyph glyph-name="seven" unicode="7" horiz-adv-x="1316" 
d="M53 1184v250h1198v-267q-212 -104 -350 -254.5t-210.5 -368t-72.5 -503.5v-41h-280v59q0 377 145 665t396 460h-826z" />
    <glyph glyph-name="eight" unicode="8" horiz-adv-x="1392" 
d="M696 -20q-237 0 -387.5 107t-150.5 282q0 120 75.5 208.5t178.5 118.5q-55 12 -106.5 40t-96.5 70.5t-72.5 106t-27.5 136.5q0 177 164 291t423 114q260 0 424 -112t164 -293q0 -73 -27.5 -136.5t-72.5 -106t-96.5 -70.5t-106.5 -40q103 -30 178.5 -118.5t75.5 -208.5
q0 -175 -151 -282t-388 -107zM682 823h29q134 0 213.5 54.5t79.5 144.5q0 92 -78 142t-215 50h-29q-137 0 -215 -50t-78 -142q0 -90 79.5 -144.5t213.5 -54.5zM682 219h29q111 0 177 51t66 131q0 82 -65.5 132.5t-177.5 50.5h-29q-112 0 -178 -50.5t-66 -132.5
q0 -79 66.5 -130.5t177.5 -51.5z" />
    <glyph glyph-name="nine" unicode="9" horiz-adv-x="1488" 
d="M743 1454q300 0 467.5 -165.5t167.5 -504.5q0 -170 -52.5 -319t-145 -255.5t-225.5 -168t-289 -61.5q-231 0 -384.5 104.5t-179.5 284.5h287q15 -60 84 -105t178 -45h29q150 0 261.5 101t154.5 272q-151 -133 -389 -133q-118 0 -221.5 31.5t-184 91t-127.5 154.5t-47 214
q0 228 170 366t446 138zM725 698h29q66 0 123 15.5t103 46t72.5 81.5t26.5 117q0 117 -94.5 186.5t-230.5 69.5h-29q-131 0 -223 -68t-92 -185q0 -129 90.5 -196t224.5 -67z" />
    <glyph glyph-name="colon" unicode=":" horiz-adv-x="606" 
d="M467 723h-328v301h328v-301zM467 0h-328v301h328v-301z" />
    <glyph glyph-name="semicolon" unicode=";" horiz-adv-x="655" 
d="M500 723h-328v301h328v-301zM219 -307h-125v157h115q123 0 123 130v20h-160v301h328v-332q0 -114 -74.5 -195t-206.5 -81z" />
    <glyph glyph-name="less" unicode="&#x3c;" horiz-adv-x="1263" 
d="M90 647l1034 348v-266l-663 -201l663 -202v-273l-1034 348v246z" />
    <glyph glyph-name="equal" unicode="=" 
d="M1325 614h-1175v236h1175v-236zM1325 205h-1175v235h1175v-235z" />
    <glyph glyph-name="greater" unicode="&#x3e;" horiz-adv-x="1263" 
d="M139 725v272l1035 -348v-246l-1035 -348v267l664 202z" />
    <glyph glyph-name="question" unicode="?" horiz-adv-x="1159" 
d="M537 410h-265v219q0 260 240 260h125q78 0 125 41.5t47 109.5q0 62 -46 103t-134 41h-541v250h559q200 0 320 -107.5t120 -284.5q0 -174 -124.5 -283.5t-333.5 -109.5h-2q-50 0 -70 -16t-20 -55v-168zM567 0h-327v301h327v-301z" />
    <glyph glyph-name="at" unicode="@" horiz-adv-x="2201" 
d="M1778 -256h-664q-177 0 -330.5 34t-279.5 105t-216 174.5t-139 248t-49 319.5q0 199 80 364.5t217.5 275t322 170t394.5 60.5q214 0 397.5 -58t311 -159t200 -241t72.5 -300q0 -106 -29.5 -197.5t-78 -153.5t-110 -106t-124.5 -64.5t-123 -20.5h-293v112
q-44 -60 -130.5 -96.5t-184.5 -36.5q-124 0 -224.5 60.5t-155 160t-54.5 215.5q0 178 123.5 306t310.5 128q98 0 184.5 -36.5t130.5 -96.5v113h236v-645h39q34 0 72 19t76.5 58.5t63.5 112.5t25 168q0 117 -47.5 215.5t-137.5 172t-231 114.5t-319 41q-347 0 -557.5 -178.5
t-210.5 -476.5q0 -206 100 -355.5t276.5 -225t410.5 -75.5h645v-225zM1079 377h17q107 0 169 70t62 163q0 91 -62.5 161.5t-168.5 70.5h-17q-102 0 -165.5 -65t-63.5 -167q0 -105 63 -169t166 -64z" />
    <glyph glyph-name="A" unicode="A" horiz-adv-x="1656" 
d="M1655 0h-305l-154 336h-741l-154 -336h-299l670 1434h315zM825 1141l-256 -555h512z" />
    <glyph glyph-name="B" unicode="B" horiz-adv-x="1593" 
d="M1022 0h-840v1434h815q197 0 325 -103t128 -276q0 -117 -64.5 -203.5t-162.5 -122.5q115 -26 188.5 -115.5t73.5 -224.5q0 -116 -62.5 -205.5t-167.5 -136.5t-233 -47zM465 1184v-332h502q95 0 146.5 43.5t51.5 128.5q0 72 -53 116t-145 44h-502zM465 602v-352h516
q101 0 160 48t59 130q0 86 -57.5 130t-161.5 44h-516z" />
    <glyph glyph-name="C" unicode="C" horiz-adv-x="1681" 
d="M891 -20q-183 0 -334 55t-252 153t-156 233.5t-55 295.5q0 157 56.5 292.5t158.5 234t252.5 154.5t329.5 56q154 0 282.5 -39.5t215.5 -107.5t140.5 -155.5t69.5 -188.5h-296q-27 114 -135.5 177.5t-260.5 63.5h-33q-227 0 -361 -138.5t-134 -348.5t134 -349t361 -139h33
q153 0 260.5 62t135.5 180h296q-34 -221 -222.5 -356t-485.5 -135z" />
    <glyph glyph-name="D" unicode="D" horiz-adv-x="1716" 
d="M868 0h-686v1434h686q348 0 549 -190.5t201 -526.5t-201 -526.5t-549 -190.5zM465 1184v-934h383q239 0 362 118.5t123 348.5t-123 348.5t-362 118.5h-383z" />
    <glyph glyph-name="E" unicode="E" horiz-adv-x="1562" 
d="M465 612v-362h1005v-250h-1288v1434h1268v-250h-985v-322h862v-250h-862z" />
    <glyph glyph-name="F" unicode="F" horiz-adv-x="1462" 
d="M465 0h-283v1434h1227v-250h-944v-363h829v-250h-829v-571z" />
    <glyph glyph-name="G" unicode="G" horiz-adv-x="1773" 
d="M905 -20q-249 0 -433.5 93.5t-281 259.5t-96.5 384q0 161 56.5 296.5t160 233t256.5 152.5t340 55q168 0 303.5 -39t225 -108t140 -162t58.5 -203h-297q-4 37 -19 72t-47 70.5t-77 61.5t-114.5 42t-155.5 16h-33q-234 0 -373 -129t-139 -358q0 -228 140.5 -358
t371.5 -130h33q107 0 197 23.5t146 61t86.5 82t30.5 89.5v17h-471v250h547q94 0 144.5 -51.5t50.5 -145.5v-555h-271v160q-24 -30 -60.5 -58.5t-93.5 -57.5t-141.5 -46.5t-183.5 -17.5z" />
    <glyph glyph-name="H" unicode="H" horiz-adv-x="1746" 
d="M465 0h-283v1434h283v-590h817v590h283v-1434h-283v594h-817v-594z" />
    <glyph glyph-name="I" unicode="I" horiz-adv-x="647" 
d="M465 0h-283v1434h283v-1434z" />
    <glyph glyph-name="J" unicode="J" horiz-adv-x="993" 
d="M442 0h-381v260h334q78 0 111 32.5t33 110.5v1031h282v-1076q0 -184 -92 -271t-287 -87z" />
    <glyph glyph-name="K" unicode="K" horiz-adv-x="1613" 
d="M1628 0h-373l-585 647l-205 -174v-473h-283v1434h283v-633l739 633h391l-716 -611z" />
    <glyph glyph-name="L" unicode="L" horiz-adv-x="1466" 
d="M1425 0h-1243v1434h283v-1184h960v-250z" />
    <glyph glyph-name="M" unicode="M" horiz-adv-x="2136" 
d="M1069 285l471 1149h414v-1434h-283v1065l-436 -1065h-336l-434 1059v-1059h-283v1434h416z" />
    <glyph glyph-name="N" unicode="N" horiz-adv-x="1740" 
d="M1276 381v1053h283v-1434h-349l-745 1071v-1071h-283v1434h361z" />
    <glyph glyph-name="O" unicode="O" horiz-adv-x="1812" 
d="M907 -20q-233 0 -416.5 87.5t-290 256t-106.5 393.5t106.5 393.5t290 256t416.5 87.5t416 -87.5t289 -256t106 -393.5t-106 -393.5t-289 -256t-416 -87.5zM891 229h33q140 0 254.5 56.5t185 169t70.5 262.5q0 113 -41 206t-111 154t-162 94t-196 33h-33
q-104 0 -196.5 -33t-163 -94t-111.5 -154t-41 -206q0 -150 71 -262.5t186 -169t255 -56.5z" />
    <glyph glyph-name="P" unicode="P" horiz-adv-x="1531" 
d="M465 0h-283v1434h760q230 0 377 -125t147 -328q0 -223 -144 -341t-380 -118h-477v-522zM465 1184v-412h446q133 0 202 53t69 154q0 100 -69 152.5t-202 52.5h-446z" />
    <glyph glyph-name="Q" unicode="Q" horiz-adv-x="1812" 
d="M1497 -410h-524q-87 0 -142.5 51t-62.5 144v201q-147 15 -270.5 72.5t-213 149.5t-140 223t-50.5 286q0 225 106.5 393.5t290 256t416.5 87.5t416 -87.5t289 -256t106 -393.5q0 -158 -51 -290t-142.5 -224.5t-217 -149t-275.5 -69.5v-101q0 -35 14 -49t48 -14h403v-230z
M891 229h33q140 0 254.5 56.5t185 169t70.5 262.5q0 113 -41 206t-111 154t-162 94t-196 33h-33q-104 0 -196.5 -33t-163 -94t-111.5 -154t-41 -206q0 -150 71 -262.5t186 -169t255 -56.5z" />
    <glyph glyph-name="R" unicode="R" horiz-adv-x="1611" 
d="M465 0h-283v1434h799q214 0 351.5 -111t137.5 -281q0 -130 -67 -223.5t-162 -126.5q110 0 155.5 -50.5t45.5 -160.5v-481h-283v420q0 72 -26.5 97.5t-98.5 25.5h-569v-543zM465 1184v-391h485q102 0 158.5 51.5t56.5 144.5q0 88 -57.5 141.5t-157.5 53.5h-485z" />
    <glyph glyph-name="S" unicode="S" horiz-adv-x="1505" 
d="M766 -20q-327 0 -510.5 127.5t-187.5 373.5h297q6 -124 107 -188t276 -64h32q166 0 246 44.5t80 119.5q0 70 -61.5 112.5t-200.5 65.5l-223 37q-250 42 -362 139t-112 283q0 85 36.5 160t108 134.5t191 94.5t273.5 35q295 0 468 -125t195 -346h-297q-15 105 -107 163
t-243 58h-33q-144 0 -225.5 -44t-81.5 -111q0 -73 53 -111t174 -59l230 -37q502 -82 502 -439q0 -204 -161.5 -313.5t-463.5 -109.5z" />
    <glyph glyph-name="T" unicode="T" horiz-adv-x="1519" 
d="M901 0h-283v1184h-577v250h1438v-250h-578v-1184z" />
    <glyph glyph-name="U" unicode="U" horiz-adv-x="1634" 
d="M817 -20q-321 0 -486 155t-165 430v869h283v-852q0 -172 90 -262.5t262 -90.5h33q172 0 262 90.5t90 262.5v852h282v-869q0 -273 -167.5 -429t-483.5 -156z" />
    <glyph glyph-name="V" unicode="V" horiz-adv-x="1669" 
d="M838 299l520 1135h309l-670 -1434h-325l-672 1434h313z" />
    <glyph glyph-name="W" unicode="W" horiz-adv-x="2195" 
d="M1579 373l293 1061h295l-424 -1434h-344l-299 1063l-307 -1063h-347l-409 1434h295l295 -1051l301 1051h358z" />
    <glyph glyph-name="X" unicode="X" horiz-adv-x="1519" 
d="M928 735l590 -735h-338l-422 526l-424 -526h-334l592 733l-561 701h338l393 -492l397 492h334z" />
    <glyph glyph-name="Y" unicode="Y" horiz-adv-x="1497" 
d="M752 864l403 570h324l-588 -809v-625h-283v623l-590 811h326z" />
    <glyph glyph-name="Z" unicode="Z" horiz-adv-x="1480" 
d="M1370 1184l-897 -934h918v-250h-1301v250l897 934h-876v250h1259v-250z" />
    <glyph glyph-name="bracketleft" unicode="[" horiz-adv-x="819" 
d="M756 -297h-580v2028h580v-220h-307v-1589h307v-219z" />
    <glyph glyph-name="backslash" unicode="\" horiz-adv-x="1058" 
d="M993 0h-286l-639 1434h286z" />
    <glyph glyph-name="bracketright" unicode="]" horiz-adv-x="819" 
d="M63 1731h580v-2028h-580v219h308v1589h-308v220z" />
    <glyph glyph-name="asciicircum" unicode="^" horiz-adv-x="1241" 
d="M748 1434l419 -850h-284l-265 544l-264 -544h-280l420 850h254z" />
    <glyph glyph-name="underscore" unicode="_" horiz-adv-x="1368" 
d="M1247 -215h-1126v215h1126v-215z" />
    <glyph glyph-name="grave" unicode="`" horiz-adv-x="552" 
d="M500 1128h-199l-246 308h312z" />
    <glyph glyph-name="a" unicode="a" horiz-adv-x="1251" 
d="M504 -20q-201 0 -313.5 84t-112.5 219q0 85 32.5 149.5t91.5 104t134 61.5t168 27l348 24v25q0 73 -61.5 112t-172.5 39h-32q-84 0 -139 -31t-64 -87h-277q15 148 151 242.5t343 94.5q246 0 380 -107t134 -282v-430q0 -99 14 -225h-251q-15 76 -15 162
q-38 -75 -134 -128.5t-224 -53.5zM524 199h29q75 0 140.5 19t112 63.5t46.5 107.5v64l-283 -21q-217 -16 -217 -123q0 -110 172 -110z" />
    <glyph glyph-name="b" unicode="b" horiz-adv-x="1419" 
d="M799 -20q-126 0 -226 39.5t-155 109.5v-129h-273v1434h273v-545q53 70 150.5 112.5t234.5 42.5q88 0 167.5 -21.5t146.5 -65.5t115.5 -106.5t75.5 -149t27 -189.5q0 -162 -72 -284t-193 -185t-271 -63zM733 199h29q134 0 216.5 82t82.5 231t-82.5 231t-216.5 82h-29
q-138 0 -226.5 -82.5t-88.5 -230.5t88.5 -230.5t226.5 -82.5z" />
    <glyph glyph-name="c" unicode="c" horiz-adv-x="1275" 
d="M674 -20q-145 0 -257.5 39t-185 110t-110 168t-37.5 215q0 112 40.5 209t114.5 169t186 113t249 41q220 0 362.5 -101.5t167.5 -276.5h-276q-15 74 -80 116.5t-160 42.5h-29q-145 0 -223 -90t-78 -223t78 -223t223 -90h29q92 0 157 45t83 114h276q-25 -167 -169.5 -272.5
t-360.5 -105.5z" />
    <glyph glyph-name="d" unicode="d" horiz-adv-x="1419" 
d="M621 -20q-150 0 -271.5 63t-193.5 185t-72 284q0 103 27 189.5t75.5 149t115.5 106.5t146.5 65.5t167.5 21.5q137 0 234.5 -42.5t150.5 -112.5v545h273v-1434h-273v129q-55 -70 -154.5 -109.5t-225.5 -39.5zM657 199h29q138 0 226.5 82.5t88.5 230.5t-88.5 230.5
t-226.5 82.5h-29q-134 0 -216.5 -82t-82.5 -231t82.5 -231t216.5 -82z" />
    <glyph glyph-name="e" unicode="e" horiz-adv-x="1286" 
d="M1198 535v-109h-829q25 -111 103.5 -169t180.5 -58h29q86 0 145.5 32.5t81.5 92.5h277q-29 -158 -170 -251t-344 -93q-126 0 -232.5 34.5t-186 100.5t-124.5 170t-45 235q0 101 32.5 187t88.5 147t130 104.5t157 64.5t170 21q250 0 393 -137.5t143 -371.5zM373 635h540
q-6 98 -72 144t-167 46h-29q-107 0 -176 -49.5t-96 -140.5z" />
    <glyph glyph-name="f" unicode="f" horiz-adv-x="915" 
d="M575 0h-272v805h-262v219h262v174q0 109 65.5 172.5t186.5 63.5h377v-226h-266q-48 0 -69.5 -15.5t-21.5 -59.5v-109h295v-219h-295v-805z" />
    <glyph glyph-name="g" unicode="g" horiz-adv-x="1390" 
d="M637 -451q-258 0 -410.5 93t-171.5 245h281q20 -58 95.5 -88t191.5 -30h28q142 0 232 71.5t90 206.5v107q-130 -154 -357 -154q-83 0 -159.5 19t-144.5 60.5t-118.5 102t-80 148t-29.5 192.5q0 130 44 232t119.5 164t168.5 94t198 32q237 0 359 -149v129h272v-1001
q0 -100 -39 -185.5t-114 -150t-191.5 -101.5t-263.5 -37zM641 219h29q121 0 212 84t91 219q0 136 -87 219.5t-206 83.5h-29q-127 0 -210 -75.5t-83 -227.5q0 -153 79 -228t204 -75z" />
    <glyph glyph-name="h" unicode="h" horiz-adv-x="1353" 
d="M418 0h-273v1434h273v-560q120 170 362 170q211 0 325 -116t114 -305v-623h-273v573q0 117 -51.5 184.5t-155.5 67.5h-28q-118 0 -205.5 -87t-87.5 -222v-516z" />
    <glyph glyph-name="i" unicode="i" horiz-adv-x="563" 
d="M428 1149h-293v285h293v-285zM418 0h-273v1024h273v-1024z" />
    <glyph glyph-name="j" unicode="j" horiz-adv-x="583" 
d="M449 1149h-293v285h293v-285zM203 -410h-449v230h330q46 0 64 18t18 64v1122h272v-1198q0 -102 -65 -169t-170 -67z" />
    <glyph glyph-name="k" unicode="k" horiz-adv-x="1261" 
d="M1266 0h-340l-410 449l-98 -78v-371h-273v1434h273v-787l463 377h364l-536 -424z" />
    <glyph glyph-name="l" unicode="l" horiz-adv-x="563" 
d="M418 0h-273v1434h273v-1434z" />
    <glyph glyph-name="m" unicode="m" horiz-adv-x="2148" 
d="M418 0h-273v1024h273v-123q105 143 325 143q132 0 233 -46t152 -138q62 95 171 139.5t239 44.5q123 0 216 -33t149 -92.5t83 -137.5t27 -173v-608h-272v580q0 112 -54.5 178.5t-162.5 66.5h-29q-125 0 -203 -86.5t-78 -230.5v-508h-272v580q0 112 -58 178.5t-175 66.5
h-29q-117 0 -189.5 -86t-72.5 -231v-508z" />
    <glyph glyph-name="n" unicode="n" horiz-adv-x="1353" 
d="M418 0h-273v1024h273v-150q121 170 362 170q214 0 326.5 -115.5t112.5 -305.5v-623h-273v573q0 117 -51.5 184.5t-155.5 67.5h-28q-118 0 -205.5 -87t-87.5 -222v-516z" />
    <glyph glyph-name="o" unicode="o" horiz-adv-x="1368" 
d="M684 -20q-269 0 -435.5 145.5t-166.5 386.5t166.5 386.5t435.5 145.5q268 0 435 -145.5t167 -386.5t-167 -386.5t-435 -145.5zM670 199h28q137 0 225.5 85t88.5 228t-88.5 228t-225.5 85h-28q-138 0 -226 -84.5t-88 -228.5t88 -228.5t226 -84.5z" />
    <glyph glyph-name="p" unicode="p" horiz-adv-x="1419" 
d="M418 -410h-273v1434h273v-129q55 70 155 109.5t226 39.5q150 0 271 -63t193 -185t72 -284q0 -103 -27 -189.5t-75.5 -149t-115.5 -106.5t-146.5 -65.5t-167.5 -21.5q-137 0 -234.5 42.5t-150.5 112.5v-545zM733 199h29q134 0 216.5 82t82.5 231t-82.5 231t-216.5 82h-29
q-138 0 -226.5 -82.5t-88.5 -230.5t88.5 -230.5t226.5 -82.5z" />
    <glyph glyph-name="q" unicode="q" horiz-adv-x="1419" 
d="M1274 -410h-273v545q-53 -70 -150.5 -112.5t-234.5 -42.5q-88 0 -167.5 21.5t-146.5 65.5t-115.5 106.5t-75.5 149t-27 189.5q0 162 72 284t193.5 185t271.5 63q126 0 225.5 -39.5t154.5 -109.5v129h273v-1434zM657 199h29q138 0 226.5 82.5t88.5 230.5t-88.5 230.5
t-226.5 82.5h-29q-134 0 -216.5 -82t-82.5 -231t82.5 -231t216.5 -82z" />
    <glyph glyph-name="r" unicode="r" horiz-adv-x="903" 
d="M418 0h-273v1024h263v-195q35 101 98 148t176 47h178v-244h-192q-121 0 -185.5 -67.5t-64.5 -198.5v-514z" />
    <glyph glyph-name="s" unicode="s" horiz-adv-x="1175" 
d="M582 -20q-239 0 -372 95.5t-142 262.5h276q6 -69 68 -104t155 -35h29q205 0 205 84q0 32 -32.5 52.5t-117.5 37.5l-170 33q-181 36 -272.5 109t-91.5 210q0 100 63 173.5t167 109.5t235 36q246 0 374 -94.5t140 -263.5h-277q-6 61 -64.5 100t-158.5 39h-29
q-84 0 -130 -22t-46 -58q0 -32 31 -51t121 -37l159 -30q182 -34 277.5 -111.5t95.5 -218.5q0 -146 -126.5 -231.5t-366.5 -85.5z" />
    <glyph glyph-name="t" unicode="t" horiz-adv-x="964" 
d="M909 0h-370q-263 0 -263 225v580h-247v219h247v332h273v-332h315v-219h-315v-498q0 -46 18 -64t64 -18h278v-225z" />
    <glyph glyph-name="u" unicode="u" horiz-adv-x="1335" 
d="M561 -20q-211 0 -318.5 107.5t-107.5 297.5v639h273v-592q0 -116 48 -174.5t150 -58.5h29q117 0 200 82t83 217v526h272v-1024h-272v166q-44 -81 -138.5 -133.5t-218.5 -52.5z" />
    <glyph glyph-name="v" unicode="v" horiz-adv-x="1241" 
d="M623 309l323 715h287l-471 -1024h-283l-467 1024h293z" />
    <glyph glyph-name="w" unicode="w" horiz-adv-x="1822" 
d="M1294 336l228 688h282l-372 -1024h-283l-238 688l-239 -688h-281l-373 1024h283l236 -676l227 676h293z" />
    <glyph glyph-name="x" unicode="x" horiz-adv-x="1206" 
d="M766 520l418 -520h-330l-254 315l-256 -315h-321l417 516l-407 508h329l244 -303l246 303h322z" />
    <glyph glyph-name="y" unicode="y" horiz-adv-x="1280" 
d="M543 -414h-465v234h360q46 0 64 18t18 64v174l-495 948h299l338 -655l315 655h299l-483 -946v-242q0 -131 -62 -190.5t-188 -59.5z" />
    <glyph glyph-name="z" unicode="z" horiz-adv-x="1193" 
d="M1083 799l-618 -559h649v-240h-1026v225l619 559h-609v240h985v-225z" />
    <glyph glyph-name="braceleft" unicode="{" horiz-adv-x="864" 
d="M797 -297h-246q-147 0 -212 76.5t-65 240.5v461q0 48 -17 69t-64 21h-119v291h119q47 0 64 21t17 69v461q0 164 65 241t212 77h246v-220h-185q-42 0 -53.5 -16.5t-11.5 -71.5v-512q0 -99 -43 -136.5t-121 -37.5h-53v-41h53q164 0 164 -174v-512q0 -55 11.5 -71.5
t53.5 -16.5h185v-219z" />
    <glyph glyph-name="bar" unicode="|" horiz-adv-x="622" 
d="M446 -174h-270v1782h270v-1782z" />
    <glyph glyph-name="braceright" unicode="}" horiz-adv-x="864" 
d="M68 1733h245q147 0 212 -77t65 -241v-461q0 -48 17 -69t65 -21h119v-291h-119q-48 0 -65 -21t-17 -69v-460q0 -164 -65 -241t-212 -77h-245v219h184q42 0 53.5 16.5t11.5 71.5v512q0 99 43 136.5t121 37.5h54v41h-54q-164 0 -164 174v512q0 55 -11.5 71.5t-53.5 16.5
h-184v220z" />
    <glyph glyph-name="asciitilde" unicode="~" horiz-adv-x="1157" 
d="M811 696q-13 0 -26 1t-22 2t-23 4t-20 4.5t-22 6.5t-20 6.5t-23.5 8.5t-23.5 8l-70 23q-119 39 -149 39q-33 0 -48 -18.5t-16 -63.5h-194v53q0 98 58 166t148 68q16 0 34.5 -2t30.5 -3.5t35 -7.5t29.5 -8t35.5 -10.5t32 -9.5l78 -27q115 -35 135 -35q30 0 45.5 22.5
t15.5 59.5h195v-53q0 -98 -59.5 -166t-155.5 -68z" />
    <glyph glyph-name="uni00A0" unicode="&#xa0;" horiz-adv-x="536" 
 />
    <glyph glyph-name="exclamdown" unicode="&#xa1;" horiz-adv-x="593" 
d="M135 1024h328v-301h-328v301zM225 635h144l69 -563v-482h-282v482z" />
    <glyph glyph-name="cent" unicode="&#xa2;" horiz-adv-x="1312" 
d="M836 799l-119 -600q86 4 146.5 48.5t78.5 110.5h277q-25 -167 -169.5 -272.5t-361.5 -105.5h-14l-45 -226h-213l49 254q-180 50 -273.5 182t-93.5 322q0 227 154 376.5t418 155.5l45 226h213l-49 -248q142 -39 231.5 -131.5t108.5 -224.5h-277q-18 90 -106 133zM373 512
q0 -88 35.5 -160t103.5 -112l115 583q-122 -17 -188 -104t-66 -207z" />
    <glyph glyph-name="sterling" unicode="&#xa3;" horiz-adv-x="1382" 
d="M518 240h785v-240h-1205v240h107q65 0 94 28t35 94l18 177l-254 -54v226l277 57l24 236q25 238 126.5 334t330.5 96h344v-240h-350q-90 0 -129 -42t-51 -159l-17 -166l295 62v-225l-319 -68l-21 -193q-7 -60 -24.5 -95.5t-65.5 -67.5z" />
    <glyph glyph-name="currency" unicode="&#xa4;" horiz-adv-x="1642" 
d="M1421 625q0 -143 -75 -271l188 -180l-184 -184l-193 184q-150 -92 -340 -92q-184 0 -334 88l-188 -180l-184 184l182 174q-80 129 -80 277q0 141 74 264l-176 176l184 184l186 -178q147 86 336 86q190 0 342 -90l191 182l184 -184l-182 -182q69 -117 69 -258zM809 322h16
q145 0 232.5 83t87.5 220q0 132 -87.5 212.5t-232.5 80.5h-16q-145 0 -232.5 -80.5t-87.5 -212.5q0 -137 87.5 -220t232.5 -83z" />
    <glyph glyph-name="yen" unicode="&#xa5;" horiz-adv-x="1587" 
d="M1204 1434h324l-395 -545l194 39v-226l-385 -75l-2 -2v-127l326 63v-225l-326 -64v-272h-283v217l-327 -63v225l327 63v127l-389 -75v225l279 55l-479 660h325l408 -570z" />
    <glyph glyph-name="brokenbar" unicode="&#xa6;" horiz-adv-x="630" 
d="M451 850h-271v758h271v-758zM451 -174h-271v778h271v-778z" />
    <glyph glyph-name="section" unicode="&#xa7;" horiz-adv-x="1249" 
d="M707 -123h-533v215h539q54 0 82 23.5t28 64.5q0 67 -96 92l-367 95q-268 69 -268 286q0 75 46.5 143t131.5 115q-110 82 -110 228q0 60 21 111t64.5 93t121.5 66.5t182 24.5h491v-215h-497q-54 0 -82.5 -24t-28.5 -65q0 -67 96 -92l385 -102q128 -34 189 -102t61 -160
q0 -87 -46.5 -158t-131.5 -117q111 -83 111 -227q0 -60 -21 -111t-64.5 -93t-121.5 -66.5t-182 -24.5zM485 565l291 -71q60 21 87.5 60t27.5 81q0 81 -121 110l-291 72q-60 -21 -87 -60t-27 -81q0 -82 120 -111z" />
    <glyph glyph-name="dieresis" unicode="&#xa8;" horiz-adv-x="854" 
d="M330 1155h-271v268h271v-268zM795 1155h-271v268h271v-268z" />
    <glyph glyph-name="copyright" unicode="&#xa9;" horiz-adv-x="2140" 
d="M1071 -80q-274 0 -496.5 103t-349.5 286t-127 410t127 410t349.5 286t496.5 103t496 -103t348.5 -286t126.5 -410t-126.5 -410t-348.5 -286t-496 -103zM1071 98q213 0 392 79.5t284.5 222.5t105.5 319t-105.5 319t-284.5 222t-392 79q-214 0 -393.5 -79t-285 -222
t-105.5 -319t105.5 -319t285 -222.5t393.5 -79.5zM1057 313q-109 0 -192.5 35t-133 95t-74 132.5t-24.5 153.5t24.5 153.5t74 132.5t133 95t192.5 35q192 0 293.5 -85t117.5 -220h-231q-24 116 -176 116h-8q-87 0 -142 -55.5t-55 -171.5t55 -171.5t142 -55.5h8
q74 0 120 31.5t58 91.5h229q-8 -65 -35 -120t-75.5 -99t-125 -68.5t-175.5 -24.5z" />
    <glyph glyph-name="ordfeminine" unicode="&#xaa;" horiz-adv-x="858" 
d="M311 840q-87 0 -147 46.5t-60 125.5q0 76 55.5 123.5t155.5 56.5l205 20v17q0 67 -96 67h-8q-86 0 -101 -45h-190q5 88 82.5 140.5t216.5 52.5q137 0 215 -59.5t78 -178.5v-227q0 -74 8 -129h-182q-5 19 -8 74q-77 -84 -224 -84zM367 987h8q65 0 107 26t42 74v17
l-159 -19q-26 -3 -45 -16.5t-19 -32.5q0 -49 66 -49z" />
    <glyph glyph-name="guillemotleft" unicode="&#xab;" horiz-adv-x="1294" 
d="M408 1024h305l-328 -438l332 -443h-309l-338 441zM1212 1024l-327 -438l332 -443h-310l-338 441l338 440h305z" />
    <glyph glyph-name="logicalnot" unicode="&#xac;" horiz-adv-x="1366" 
d="M1206 236h-272v276h-787v236h1059v-512z" />
    <glyph glyph-name="uni00AD" unicode="&#xad;" horiz-adv-x="950" 
d="M813 508h-676v223h676v-223z" />
    <glyph glyph-name="registered" unicode="&#xae;" horiz-adv-x="2140" 
d="M1071 -80q-274 0 -496.5 103t-349.5 286t-127 410t127 410t349.5 286t496.5 103t496 -103t348.5 -286t126.5 -410t-126.5 -410t-348.5 -286t-496 -103zM1071 98q213 0 392 79.5t284.5 222.5t105.5 319t-105.5 319t-284.5 222t-392 79q-214 0 -393.5 -79t-285 -222
t-105.5 -319t105.5 -319t285 -222.5t393.5 -79.5zM938 334h-213v790h420q128 0 201 -63t73 -164q0 -82 -46 -131.5t-120 -65.5q79 0 117.5 -28t38.5 -94v-244h-213v203q0 40 -15 55.5t-57 15.5h-186v-274zM938 942v-158h172q46 0 71 21t25 59t-26.5 58t-73.5 20h-168z" />
    <glyph glyph-name="macron" unicode="&#xaf;" horiz-adv-x="849" 
d="M788 1157h-727v215h727v-215z" />
    <glyph glyph-name="degree" unicode="&#xb0;" horiz-adv-x="937" 
d="M469 696q-161 0 -270 109t-109 270t109 270t270 109t270 -109t109 -270t-109 -270t-270 -109zM469 918q62 0 103.5 45t41.5 112q0 63 -41.5 105.5t-103.5 42.5t-103.5 -42.5t-41.5 -105.5q0 -67 41.5 -112t103.5 -45z" />
    <glyph glyph-name="plusminus" unicode="&#xb1;" horiz-adv-x="1417" 
d="M844 348h-273v215h-430v236h430v225h273v-225h432v-236h-432v-215zM1276 0h-1135v233h1135v-233z" />
    <glyph glyph-name="uni00B2" unicode="&#xb2;" horiz-adv-x="843" 
d="M754 850h-668v172l342 274q62 49 78 71q18 24 18 48q0 32 -28.5 53t-77.5 21h-8q-45 0 -76 -26t-33 -62h-219q7 122 104.5 195t245.5 73q147 0 235.5 -73.5t88.5 -161.5q0 -73 -41.5 -128t-132.5 -128l-185 -146l357 2v-184z" />
    <glyph glyph-name="uni00B3" unicode="&#xb3;" horiz-adv-x="845" 
d="M410 840q-144 0 -242 63.5t-98 175.5h221q1 -27 36.5 -44t80.5 -17h10q56 0 88.5 22t32.5 58q0 35 -32 54t-87 19h-107v172h107q54 0 83 20t29 54q0 33 -27.5 53.5t-80.5 20.5h-10q-42 0 -73 -16.5t-36 -40.5h-221q0 111 97 173t239 62q138 0 236 -62t98 -169
q0 -134 -129 -178q135 -51 135 -191q0 -74 -51 -127t-129 -77.5t-170 -24.5z" />
    <glyph glyph-name="acute" unicode="&#xb4;" horiz-adv-x="552" 
d="M252 1128h-199l133 308h312z" />
    <glyph glyph-name="uni00B5" unicode="&#xb5;" horiz-adv-x="1406" 
d="M442 -410h-266v1434h266v-588q0 -122 64.5 -181.5t159.5 -59.5h16q144 0 213.5 77.5t69.5 219.5v532h266v-1024h-266v137q-122 -157 -351 -157q-92 0 -172 22v-412z" />
    <glyph glyph-name="paragraph" unicode="&#xb6;" horiz-adv-x="1593" 
d="M817 -410h-270v971h-53q-123 0 -222 59.5t-152.5 158.5t-53.5 218q0 183 123.5 310t312.5 127h995v-215h-194v-1629h-271v1629h-215v-1629z" />
    <glyph glyph-name="periodcentered" unicode="&#xb7;" horiz-adv-x="606" 
d="M467 563h-328v301h328v-301z" />
    <glyph glyph-name="cedilla" unicode="&#xb8;" horiz-adv-x="555" 
d="M250 -502h-189v154h199q40 0 64 15.5t24 45.5q0 25 -21 43.5t-57 18.5h-116v256h147v-123q83 0 142 -50.5t59 -144.5q0 -98 -71 -156.5t-181 -58.5z" />
    <glyph glyph-name="uni00B9" unicode="&#xb9;" horiz-adv-x="686" 
d="M559 850h-215v551l-285 -182v229l318 211h182v-809z" />
    <glyph glyph-name="ordmasculine" unicode="&#xba;" horiz-adv-x="876" 
d="M438 840q-158 0 -252 85t-94 216t94 217t252 86t252 -86t94 -217t-94 -216t-252 -85zM434 1004h8q62 0 97.5 36t35.5 101q0 66 -35.5 102.5t-97.5 36.5h-8q-62 0 -97.5 -36.5t-35.5 -102.5q0 -65 35.5 -101t97.5 -36z" />
    <glyph glyph-name="guillemotright" unicode="&#xbb;" horiz-adv-x="1294" 
d="M78 1024h309l338 -440l-338 -441h-305l328 439zM578 1024h309l338 -440l-338 -441h-305l327 439z" />
    <glyph glyph-name="onequarter" unicode="&#xbc;" horiz-adv-x="1959" 
d="M559 625h-215v551l-285 -183v230l318 211h182v-809zM508 0h-211l948 1434h211zM1704 0h-199v127h-442v223l397 459h244v-510h129v-172h-129v-127zM1505 580l-256 -281h256v281z" />
    <glyph glyph-name="onehalf" unicode="&#xbd;" horiz-adv-x="1947" 
d="M559 625h-215v551l-285 -183v230l318 211h182v-809zM508 0h-211l948 1434h211zM1819 0h-668v172l342 274q62 49 78 71q18 25 18 48q0 32 -28.5 53t-77.5 21h-8q-45 0 -76 -26t-33 -62h-219q7 122 104.5 195t245.5 73q147 0 235.5 -73.5t88.5 -161.5q0 -73 -41.5 -128
t-132.5 -128l-185 -146l357 2v-184z" />
    <glyph glyph-name="threequarters" unicode="&#xbe;" horiz-adv-x="2078" 
d="M410 614q-144 0 -242 64t-98 176h221q1 -27 36.5 -44t80.5 -17h10q56 0 88.5 21.5t32.5 57.5q0 35 -32 54.5t-87 19.5h-107v172h107q54 0 83 20t29 54q0 33 -27.5 53.5t-80.5 20.5h-10q-42 0 -73 -17t-36 -41h-221q0 111 97 173.5t239 62.5q89 0 164 -26t122.5 -80
t47.5 -126q0 -134 -129 -178q135 -51 135 -190q0 -109 -103 -169.5t-247 -60.5zM668 0h-211l948 1434h211zM1864 0h-199v127h-442v223l397 459h244v-510h129v-172h-129v-127zM1665 580l-256 -281h256v281z" />
    <glyph glyph-name="questiondown" unicode="&#xbf;" horiz-adv-x="1140" 
d="M586 1024h327v-301h-327v301zM616 614h265v-219q0 -260 -240 -260h-125q-78 0 -125 -41.5t-47 -109.5q0 -62 46 -103t134 -41h541v-250h-559q-200 0 -320 107.5t-120 284.5q0 174 124.5 283.5t333.5 109.5h2q50 0 70 16t20 55v168z" />
    <glyph glyph-name="Agrave" unicode="&#xc0;" horiz-adv-x="1656" 
d="M823 1823l103 -297h-189l-235 297h321zM1655 0h-305l-154 336h-741l-154 -336h-299l670 1434h315zM825 1141l-256 -555h512z" />
    <glyph glyph-name="Aacute" unicode="&#xc1;" horiz-adv-x="1656" 
d="M840 1823h321l-235 -297h-189zM1655 0h-305l-154 336h-741l-154 -336h-299l670 1434h315zM825 1141l-256 -555h512z" />
    <glyph glyph-name="Acircumflex" unicode="&#xc2;" horiz-adv-x="1656" 
d="M1014 1526l-185 123l-184 -123h-229l266 297h295l266 -297h-229zM1655 0h-305l-154 336h-741l-154 -336h-299l670 1434h315zM825 1141l-256 -555h512z" />
    <glyph glyph-name="Atilde" unicode="&#xc3;" horiz-adv-x="1656" 
d="M664 1636q-43 0 -66 -26t-23 -64h-196v58q0 96 76 166.5t180 70.5q30 0 57 -4.5t42 -9.5t39.5 -15t35.5 -14l70 -26q12 -4 38 -16t45.5 -18.5t34.5 -6.5q43 0 64.5 25.5t21.5 64.5h197v-58q0 -101 -61 -169t-170 -68q-49 0 -91.5 11.5t-111.5 37.5l-74 29q-12 4 -36 14.5
t-38.5 14t-33.5 3.5zM1655 0h-305l-154 336h-741l-154 -336h-299l670 1434h315zM825 1141l-256 -555h512z" />
    <glyph glyph-name="Adieresis" unicode="&#xc4;" horiz-adv-x="1656" 
d="M457 1812h270v-245h-270v245zM932 1812h270v-245h-270v245zM1655 0h-305l-154 336h-741l-154 -336h-299l670 1434h315zM825 1141l-256 -555h512z" />
    <glyph glyph-name="Aring" unicode="&#xc5;" horiz-adv-x="1656" 
d="M829 1495q-109 0 -182.5 64.5t-73.5 160.5q0 90 74.5 158t181.5 68t181.5 -68t74.5 -158q0 -96 -73.5 -160.5t-182.5 -64.5zM829 1802q-42 0 -72 -24.5t-30 -57.5t30 -57.5t72 -24.5t71.5 24.5t29.5 57.5t-29.5 57.5t-71.5 24.5zM1655 0h-305l-154 336h-741l-154 -336
h-299l670 1434h315zM825 1141l-256 -555h512z" />
    <glyph glyph-name="AE" unicode="&#xc6;" horiz-adv-x="2394" 
d="M1440 614l51 -368h846v-246h-1084l-47 338h-700l-238 -338h-299l1012 1434h1233v-246h-852l45 -328h745v-246h-712zM1092 1167l-410 -579h489z" />
    <glyph glyph-name="Ccedilla" unicode="&#xc7;" horiz-adv-x="1681" 
d="M874 229h33q153 0 260.5 62t135.5 180h296q-33 -206 -200.5 -338.5t-433.5 -150.5v-74q83 0 141.5 -50.5t58.5 -144.5q0 -98 -71 -156.5t-181 -58.5h-188v154h199q40 0 64 15.5t24 45.5q0 25 -21 43.5t-57 18.5h-117v207q-223 14 -387.5 112.5t-250 259t-85.5 363.5
q0 157 56.5 292.5t158.5 234t252.5 154.5t329.5 56q154 0 282.5 -39.5t215.5 -107.5t140.5 -155.5t69.5 -188.5h-296q-27 114 -135.5 177.5t-260.5 63.5h-33q-227 0 -361 -138.5t-134 -348.5t134 -349t361 -139z" />
    <glyph glyph-name="Egrave" unicode="&#xc8;" horiz-adv-x="1562" 
d="M811 1823l102 -297h-188l-236 297h322zM465 612v-362h1005v-250h-1288v1434h1268v-250h-985v-322h862v-250h-862z" />
    <glyph glyph-name="Eacute" unicode="&#xc9;" horiz-adv-x="1562" 
d="M827 1823h322l-236 -297h-188zM465 612v-362h1005v-250h-1288v1434h1268v-250h-985v-322h862v-250h-862z" />
    <glyph glyph-name="Ecircumflex" unicode="&#xca;" horiz-adv-x="1562" 
d="M1001 1526l-184 123l-184 -123h-230l267 297h295l266 -297h-230zM465 612v-362h1005v-250h-1288v1434h1268v-250h-985v-322h862v-250h-862z" />
    <glyph glyph-name="Edieresis" unicode="&#xcb;" horiz-adv-x="1562" 
d="M444 1812h271v-245h-271v245zM920 1812h270v-245h-270v245zM465 612v-362h1005v-250h-1288v1434h1268v-250h-985v-322h862v-250h-862z" />
    <glyph glyph-name="Igrave" unicode="&#xcc;" horiz-adv-x="647" 
d="M426 1526h-188l-236 297h322zM465 0h-283v1434h283v-1434z" />
    <glyph glyph-name="Iacute" unicode="&#xcd;" horiz-adv-x="647" 
d="M426 1526h-188l102 297h322zM465 0h-283v1434h283v-1434z" />
    <glyph glyph-name="Icircumflex" unicode="&#xce;" horiz-adv-x="647" 
d="M145 1526h-229l266 297h295l266 -297h-229l-184 123zM465 0h-283v1434h283v-1434z" />
    <glyph glyph-name="Idieresis" unicode="&#xcf;" horiz-adv-x="647" 
d="M227 1567h-270v245h270v-245zM702 1567h-270v245h270v-245zM465 0h-283v1434h283v-1434z" />
    <glyph glyph-name="Eth" unicode="&#xd0;" horiz-adv-x="1796" 
d="M262 1434h686q348 0 549 -190.5t201 -526.5t-201 -526.5t-549 -190.5h-686v594h-223v246h223v594zM545 250h383q239 0 362 118.5t123 348.5t-123 348.5t-362 118.5h-383v-344h368v-246h-368v-344z" />
    <glyph glyph-name="Ntilde" unicode="&#xd1;" horiz-adv-x="1740" 
d="M705 1636q-43 0 -66 -26t-23 -64h-196v58q0 96 76 166.5t180 70.5q30 0 57 -4.5t42 -9.5t39.5 -15t35.5 -14l70 -26q12 -4 38 -16t45.5 -18.5t34.5 -6.5q43 0 64.5 25.5t21.5 64.5h197v-58q0 -101 -61 -169t-170 -68q-49 0 -91.5 11.5t-111.5 37.5l-74 29q-12 4 -36 14.5
t-38.5 14t-33.5 3.5zM1276 381v1053h283v-1434h-349l-745 1071v-1071h-283v1434h361z" />
    <glyph glyph-name="Ograve" unicode="&#xd2;" horiz-adv-x="1812" 
d="M1004 1526h-189l-235 297h321zM907 -20q-233 0 -416.5 87.5t-290 256t-106.5 393.5t106.5 393.5t290 256t416.5 87.5t416 -87.5t289 -256t106 -393.5t-106 -393.5t-289 -256t-416 -87.5zM891 229h33q140 0 254.5 56.5t185 169t70.5 262.5q0 113 -41 206t-111 154t-162 94
t-196 33h-33q-104 0 -196.5 -33t-163 -94t-111.5 -154t-41 -206q0 -150 71 -262.5t186 -169t255 -56.5z" />
    <glyph glyph-name="Oacute" unicode="&#xd3;" horiz-adv-x="1812" 
d="M1004 1526h-189l103 297h321zM907 -20q-233 0 -416.5 87.5t-290 256t-106.5 393.5t106.5 393.5t290 256t416.5 87.5t416 -87.5t289 -256t106 -393.5t-106 -393.5t-289 -256t-416 -87.5zM891 229h33q140 0 254.5 56.5t185 169t70.5 262.5q0 113 -41 206t-111 154t-162 94
t-196 33h-33q-104 0 -196.5 -33t-163 -94t-111.5 -154t-41 -206q0 -150 71 -262.5t186 -169t255 -56.5z" />
    <glyph glyph-name="Ocircumflex" unicode="&#xd4;" horiz-adv-x="1812" 
d="M723 1526h-229l266 297h295l266 -297h-229l-185 123zM907 -20q-233 0 -416.5 87.5t-290 256t-106.5 393.5t106.5 393.5t290 256t416.5 87.5t416 -87.5t289 -256t106 -393.5t-106 -393.5t-289 -256t-416 -87.5zM891 229h33q140 0 254.5 56.5t185 169t70.5 262.5
q0 113 -41 206t-111 154t-162 94t-196 33h-33q-104 0 -196.5 -33t-163 -94t-111.5 -154t-41 -206q0 -150 71 -262.5t186 -169t255 -56.5z" />
    <glyph glyph-name="Otilde" unicode="&#xd5;" horiz-adv-x="1812" 
d="M1126 1526q-49 0 -91 11.5t-111 37.5l-74 29q-12 4 -29.5 11.5t-27 11t-24 6.5t-28.5 3q-43 0 -65.5 -26t-22.5 -64h-196v58q0 96 76 166.5t180 70.5q30 0 57 -4.5t42 -9.5t39.5 -15t35.5 -14l69 -26q12 -4 38.5 -16t46 -18.5t34.5 -6.5q43 0 64.5 25.5t21.5 64.5h197
v-58q0 -101 -61.5 -169t-170.5 -68zM907 -20q-233 0 -416.5 87.5t-290 256t-106.5 393.5t106.5 393.5t290 256t416.5 87.5t416 -87.5t289 -256t106 -393.5t-106 -393.5t-289 -256t-416 -87.5zM891 229h33q140 0 254.5 56.5t185 169t70.5 262.5q0 113 -41 206t-111 154
t-162 94t-196 33h-33q-104 0 -196.5 -33t-163 -94t-111.5 -154t-41 -206q0 -150 71 -262.5t186 -169t255 -56.5z" />
    <glyph glyph-name="Odieresis" unicode="&#xd6;" horiz-adv-x="1812" 
d="M805 1567h-270v245h270v-245zM1280 1567h-270v245h270v-245zM907 -20q-233 0 -416.5 87.5t-290 256t-106.5 393.5t106.5 393.5t290 256t416.5 87.5t416 -87.5t289 -256t106 -393.5t-106 -393.5t-289 -256t-416 -87.5zM891 229h33q140 0 254.5 56.5t185 169t70.5 262.5
q0 113 -41 206t-111 154t-162 94t-196 33h-33q-104 0 -196.5 -33t-163 -94t-111.5 -154t-41 -206q0 -150 71 -262.5t186 -169t255 -56.5z" />
    <glyph glyph-name="multiply" unicode="&#xd7;" horiz-adv-x="1236" 
d="M801 522l327 -284l-157 -183l-355 307l-350 -305l-155 179l327 284l-329 287l157 180l355 -307l352 305l153 -178z" />
    <glyph glyph-name="Oslash" unicode="&#xd8;" horiz-adv-x="1837" 
d="M1575 1534l178 -184l-176 -172q154 -194 154 -461q0 -225 -106 -393.5t-289 -256t-416 -87.5q-262 0 -459 110l-197 -190l-178 184l176 172q-156 189 -156 461q0 224 107 393t290.5 256.5t416.5 87.5q259 0 458 -111zM391 717q0 -148 72 -266l719 700q-112 53 -246 53
h-33q-104 0 -196.5 -33t-163 -94t-111.5 -154t-41 -206zM1446 717q0 149 -72 264l-717 -698q114 -54 246 -54h33q140 0 254.5 56.5t185 169t70.5 262.5z" />
    <glyph glyph-name="Ugrave" unicode="&#xd9;" horiz-adv-x="1634" 
d="M913 1526h-188l-236 297h322zM817 -20q-321 0 -486 155t-165 430v869h283v-852q0 -172 90 -262.5t262 -90.5h33q172 0 262 90.5t90 262.5v852h282v-869q0 -273 -167.5 -429t-483.5 -156z" />
    <glyph glyph-name="Uacute" unicode="&#xda;" horiz-adv-x="1634" 
d="M913 1526h-188l102 297h322zM817 -20q-321 0 -486 155t-165 430v869h283v-852q0 -172 90 -262.5t262 -90.5h33q172 0 262 90.5t90 262.5v852h282v-869q0 -273 -167.5 -429t-483.5 -156z" />
    <glyph glyph-name="Ucircumflex" unicode="&#xdb;" horiz-adv-x="1634" 
d="M633 1526h-230l267 297h295l266 -297h-230l-184 123zM817 -20q-321 0 -486 155t-165 430v869h283v-852q0 -172 90 -262.5t262 -90.5h33q172 0 262 90.5t90 262.5v852h282v-869q0 -273 -167.5 -429t-483.5 -156z" />
    <glyph glyph-name="Udieresis" unicode="&#xdc;" horiz-adv-x="1634" 
d="M715 1567h-271v245h271v-245zM1190 1567h-270v245h270v-245zM817 -20q-321 0 -486 155t-165 430v869h283v-852q0 -172 90 -262.5t262 -90.5h33q172 0 262 90.5t90 262.5v852h282v-869q0 -273 -167.5 -429t-483.5 -156z" />
    <glyph glyph-name="Yacute" unicode="&#xdd;" horiz-adv-x="1497" 
d="M762 1823h321l-235 -297h-189zM752 864l403 570h324l-588 -809v-625h-283v623l-590 811h326z" />
    <glyph glyph-name="Thorn" unicode="&#xde;" horiz-adv-x="1554" 
d="M465 0h-283v1434h283v-252h477q232 0 377 -124.5t145 -340.5q0 -220 -144.5 -343.5t-377.5 -123.5h-477v-250zM465 932v-432h446q133 0 202 55.5t69 161.5q0 105 -69 160t-202 55h-446z" />
    <glyph glyph-name="germandbls" unicode="&#xdf;" horiz-adv-x="1294" 
d="M412 -379h-267v1366q0 204 139.5 335.5t381.5 131.5q122 0 218.5 -30.5t155.5 -82.5t90 -117.5t31 -140.5q0 -63 -20.5 -119.5t-54 -95t-69.5 -64.5t-73 -38q40 -10 83 -35.5t85.5 -66.5t70 -105t27.5 -139q0 -200 -139 -310t-360 -110h-187v229h158q119 0 186.5 54.5
t67.5 150.5q0 93 -64 148t-176 55h-172v240h162q112 0 161.5 52t49.5 130t-60 127t-161 49h-21q-109 0 -176 -66.5t-67 -193.5v-1354z" />
    <glyph glyph-name="agrave" unicode="&#xe0;" horiz-adv-x="1251" 
d="M705 1128h-199l-246 308h311zM504 -20q-201 0 -313.5 84t-112.5 219q0 85 32.5 149.5t91.5 104t134 61.5t168 27l348 24v25q0 73 -61.5 112t-172.5 39h-32q-84 0 -139 -31t-64 -87h-277q15 148 151 242.5t343 94.5q246 0 380 -107t134 -282v-430q0 -99 14 -225h-251
q-15 76 -15 162q-38 -75 -134 -128.5t-224 -53.5zM524 199h29q75 0 140.5 19t112 63.5t46.5 107.5v64l-283 -21q-217 -16 -217 -123q0 -110 172 -110z" />
    <glyph glyph-name="aacute" unicode="&#xe1;" horiz-adv-x="1251" 
d="M700 1128h-198l133 308h311zM504 -20q-201 0 -313.5 84t-112.5 219q0 85 32.5 149.5t91.5 104t134 61.5t168 27l348 24v25q0 73 -61.5 112t-172.5 39h-32q-84 0 -139 -31t-64 -87h-277q15 148 151 242.5t343 94.5q246 0 380 -107t134 -282v-430q0 -99 14 -225h-251
q-15 76 -15 162q-38 -75 -134 -128.5t-224 -53.5zM524 199h29q75 0 140.5 19t112 63.5t46.5 107.5v64l-283 -21q-217 -16 -217 -123q0 -110 172 -110z" />
    <glyph glyph-name="acircumflex" unicode="&#xe2;" horiz-adv-x="1251" 
d="M383 1128h-229l317 308h256l320 -308h-230l-215 144zM504 -20q-201 0 -313.5 84t-112.5 219q0 85 32.5 149.5t91.5 104t134 61.5t168 27l348 24v25q0 73 -61.5 112t-172.5 39h-32q-84 0 -139 -31t-64 -87h-277q15 148 151 242.5t343 94.5q246 0 380 -107t134 -282v-430
q0 -99 14 -225h-251q-15 76 -15 162q-38 -75 -134 -128.5t-224 -53.5zM524 199h29q75 0 140.5 19t112 63.5t46.5 107.5v64l-283 -21q-217 -16 -217 -123q0 -110 172 -110z" />
    <glyph glyph-name="atilde" unicode="&#xe3;" horiz-adv-x="1251" 
d="M807 1128q-28 0 -61 7.5t-58 16t-72 26.5l-73 28q-13 5 -36.5 15t-38.5 14t-34 4q-33 0 -50 -26t-17 -64h-197v57q0 96 70 167t166 71q30 0 57 -4.5t42 -9.5t39.5 -15t35.5 -14l69 -27q12 -4 38.5 -16t46 -18.5t34.5 -6.5q33 0 49.5 25.5t16.5 64.5h196v-57
q0 -101 -58 -169.5t-165 -68.5zM504 -20q-201 0 -313.5 84t-112.5 219q0 85 32.5 149.5t91.5 104t134 61.5t168 27l348 24v25q0 73 -61.5 112t-172.5 39h-32q-84 0 -139 -31t-64 -87h-277q15 148 151 242.5t343 94.5q246 0 380 -107t134 -282v-430q0 -99 14 -225h-251
q-15 76 -15 162q-38 -75 -134 -128.5t-224 -53.5zM524 199h29q75 0 140.5 19t112 63.5t46.5 107.5v64l-283 -21q-217 -16 -217 -123q0 -110 172 -110z" />
    <glyph glyph-name="adieresis" unicode="&#xe4;" horiz-adv-x="1251" 
d="M502 1155h-271v268h271v-268zM967 1155h-271v268h271v-268zM504 -20q-201 0 -313.5 84t-112.5 219q0 85 32.5 149.5t91.5 104t134 61.5t168 27l348 24v25q0 73 -61.5 112t-172.5 39h-32q-84 0 -139 -31t-64 -87h-277q15 148 151 242.5t343 94.5q246 0 380 -107t134 -282
v-430q0 -99 14 -225h-251q-15 76 -15 162q-38 -75 -134 -128.5t-224 -53.5zM524 199h29q75 0 140.5 19t112 63.5t46.5 107.5v64l-283 -21q-217 -16 -217 -123q0 -110 172 -110z" />
    <glyph glyph-name="aring" unicode="&#xe5;" horiz-adv-x="1251" 
d="M600 1128q-117 0 -190.5 66t-73.5 166q0 93 74.5 162t189.5 69t189.5 -69t74.5 -162q0 -100 -73.5 -166t-190.5 -66zM602 1272q44 0 74.5 26t30.5 62t-30.5 62t-74.5 26q-43 0 -74.5 -26.5t-31.5 -61.5t31.5 -61.5t74.5 -26.5zM504 -20q-201 0 -313.5 84t-112.5 219
q0 85 32.5 149.5t91.5 104t134 61.5t168 27l348 24v25q0 73 -61.5 112t-172.5 39h-32q-84 0 -139 -31t-64 -87h-277q15 148 151 242.5t343 94.5q246 0 380 -107t134 -282v-430q0 -99 14 -225h-251q-15 76 -15 162q-38 -75 -134 -128.5t-224 -53.5zM524 199h29q75 0 140.5 19
t112 63.5t46.5 107.5v64l-283 -21q-217 -16 -217 -123q0 -110 172 -110z" />
    <glyph glyph-name="ae" unicode="&#xe6;" horiz-adv-x="2093" 
d="M504 -20q-202 0 -314 83.5t-112 219.5q0 85 32.5 149.5t91.5 104t134 61.5t168 27l348 24v25q0 73 -61.5 112t-172.5 39h-32q-84 0 -139 -31t-64 -87h-277q15 148 151 242.5t343 94.5q306 0 430 -170q83 83 198 126.5t240 43.5q250 0 393.5 -138t143.5 -371v-109h-829
q25 -111 103.5 -169t180.5 -58h29q86 0 145.5 32.5t81.5 92.5h277q-29 -158 -170 -251t-344 -93q-152 0 -275 49.5t-200 144.5q-147 -194 -500 -194zM1180 635h540q-6 98 -72 144t-167 46h-29q-107 0 -176 -49.5t-96 -140.5zM524 199h29q75 0 140.5 19t112 63.5t46.5 107.5
v64l-283 -21q-217 -16 -217 -123q0 -110 172 -110z" />
    <glyph glyph-name="ccedilla" unicode="&#xe7;" horiz-adv-x="1275" 
d="M659 199h29q92 0 157 45t83 114h276q-24 -157 -154 -260.5t-329 -115.5v-74q83 0 142 -50.5t59 -144.5q0 -98 -71 -156.5t-181 -58.5h-189v154h199q40 0 64 15.5t24 45.5q0 25 -21 43.5t-57 18.5h-117v211q-239 24 -364 165t-125 361q0 112 40.5 209t114.5 169t186 113
t249 41q220 0 362.5 -101.5t167.5 -276.5h-276q-15 74 -80 116.5t-160 42.5h-29q-145 0 -223 -90t-78 -223t78 -223t223 -90z" />
    <glyph glyph-name="egrave" unicode="&#xe8;" horiz-adv-x="1286" 
d="M635 1436l133 -308h-199l-245 308h311zM1198 535v-109h-829q25 -111 103.5 -169t180.5 -58h29q86 0 145.5 32.5t81.5 92.5h277q-29 -158 -170 -251t-344 -93q-126 0 -232.5 34.5t-186 100.5t-124.5 170t-45 235q0 101 32.5 187t88.5 147t130 104.5t157 64.5t170 21
q250 0 393 -137.5t143 -371.5zM373 635h540q-6 98 -72 144t-167 46h-29q-107 0 -176 -49.5t-96 -140.5z" />
    <glyph glyph-name="eacute" unicode="&#xe9;" horiz-adv-x="1286" 
d="M698 1436h312l-246 -308h-199zM1198 535v-109h-829q25 -111 103.5 -169t180.5 -58h29q86 0 145.5 32.5t81.5 92.5h277q-29 -158 -170 -251t-344 -93q-126 0 -232.5 34.5t-186 100.5t-124.5 170t-45 235q0 101 32.5 187t88.5 147t130 104.5t157 64.5t170 21
q250 0 393 -137.5t143 -371.5zM373 635h540q-6 98 -72 144t-167 46h-29q-107 0 -176 -49.5t-96 -140.5z" />
    <glyph glyph-name="ecircumflex" unicode="&#xea;" horiz-adv-x="1286" 
d="M881 1128l-215 144l-220 -144h-229l318 308h256l319 -308h-229zM1198 535v-109h-829q25 -111 103.5 -169t180.5 -58h29q86 0 145.5 32.5t81.5 92.5h277q-29 -158 -170 -251t-344 -93q-126 0 -232.5 34.5t-186 100.5t-124.5 170t-45 235q0 101 32.5 187t88.5 147
t130 104.5t157 64.5t170 21q250 0 393 -137.5t143 -371.5zM373 635h540q-6 98 -72 144t-167 46h-29q-107 0 -176 -49.5t-96 -140.5z" />
    <glyph glyph-name="edieresis" unicode="&#xeb;" horiz-adv-x="1286" 
d="M295 1423h270v-268h-270v268zM760 1423h270v-268h-270v268zM1198 535v-109h-829q25 -111 103.5 -169t180.5 -58h29q86 0 145.5 32.5t81.5 92.5h277q-29 -158 -170 -251t-344 -93q-126 0 -232.5 34.5t-186 100.5t-124.5 170t-45 235q0 101 32.5 187t88.5 147t130 104.5
t157 64.5t170 21q250 0 393 -137.5t143 -371.5zM373 635h540q-6 98 -72 144t-167 46h-29q-107 0 -176 -49.5t-96 -140.5z" />
    <glyph glyph-name="igrave" unicode="&#xec;" horiz-adv-x="563" 
d="M387 1128h-199l-245 308h311zM418 0h-273v1024h273v-1024z" />
    <glyph glyph-name="iacute" unicode="&#xed;" horiz-adv-x="563" 
d="M383 1128h-199l133 308h312zM418 0h-273v1024h273v-1024z" />
    <glyph glyph-name="icircumflex" unicode="&#xee;" horiz-adv-x="563" 
d="M66 1128h-230l318 308h256l319 -308h-229l-215 144zM418 0h-273v1024h273v-1024z" />
    <glyph glyph-name="idieresis" unicode="&#xef;" horiz-adv-x="563" 
d="M184 1155h-270v268h270v-268zM649 1155h-270v268h270v-268zM418 0h-273v1024h273v-1024z" />
    <glyph glyph-name="eth" unicode="&#xf0;" horiz-adv-x="1406" 
d="M1182 1350l-160 -103q142 -103 213.5 -256t71.5 -342q0 -339 -163.5 -504t-457.5 -165q-270 0 -436 137.5t-166 365.5q0 95 30 176t82.5 138.5t123.5 98t154.5 60t174.5 19.5q205 0 346 -105q-55 162 -186 240l-164 -104l-90 135l63 41q-107 20 -270 20h-16v232
q308 0 528 -95l232 152zM668 205h28q137 0 227.5 72t90.5 198q0 139 -89 207t-229 68h-28q-63 0 -117 -16t-97.5 -48t-68.5 -87t-25 -126q0 -125 89.5 -196.5t218.5 -71.5z" />
    <glyph glyph-name="ntilde" unicode="&#xf1;" horiz-adv-x="1353" 
d="M905 1128q-28 0 -61 7.5t-57 16t-72 26.5l-74 28q-13 5 -36.5 15t-38.5 14t-34 4q-33 0 -50 -26t-17 -64h-197v57q0 96 70 167t166 71q30 0 57 -4.5t42 -9.5t39.5 -15t35.5 -14l70 -27q12 -4 38 -16t45.5 -18.5t34.5 -6.5q33 0 49.5 25.5t16.5 64.5h196v-57
q0 -101 -58 -169.5t-165 -68.5zM418 0h-273v1024h273v-150q121 170 362 170q214 0 326.5 -115.5t112.5 -305.5v-623h-273v573q0 117 -51.5 184.5t-155.5 67.5h-28q-118 0 -205.5 -87t-87.5 -222v-516z" />
    <glyph glyph-name="ograve" unicode="&#xf2;" horiz-adv-x="1368" 
d="M788 1128h-198l-246 308h311zM684 -20q-269 0 -435.5 145.5t-166.5 386.5t166.5 386.5t435.5 145.5q268 0 435 -145.5t167 -386.5t-167 -386.5t-435 -145.5zM670 199h28q137 0 225.5 85t88.5 228t-88.5 228t-225.5 85h-28q-138 0 -226 -84.5t-88 -228.5t88 -228.5
t226 -84.5z" />
    <glyph glyph-name="oacute" unicode="&#xf3;" horiz-adv-x="1368" 
d="M784 1128h-198l133 308h311zM684 -20q-269 0 -435.5 145.5t-166.5 386.5t166.5 386.5t435.5 145.5q268 0 435 -145.5t167 -386.5t-167 -386.5t-435 -145.5zM670 199h28q137 0 225.5 85t88.5 228t-88.5 228t-225.5 85h-28q-138 0 -226 -84.5t-88 -228.5t88 -228.5
t226 -84.5z" />
    <glyph glyph-name="ocircumflex" unicode="&#xf4;" horiz-adv-x="1368" 
d="M467 1128h-229l317 308h256l319 -308h-229l-215 144zM684 -20q-269 0 -435.5 145.5t-166.5 386.5t166.5 386.5t435.5 145.5q268 0 435 -145.5t167 -386.5t-167 -386.5t-435 -145.5zM670 199h28q137 0 225.5 85t88.5 228t-88.5 228t-225.5 85h-28q-138 0 -226 -84.5
t-88 -228.5t88 -228.5t226 -84.5z" />
    <glyph glyph-name="otilde" unicode="&#xf5;" horiz-adv-x="1368" 
d="M891 1128q-28 0 -61 7.5t-58 16t-72 26.5l-73 28q-13 5 -36.5 15t-38.5 14t-34 4q-33 0 -50 -26t-17 -64h-197v57q0 96 69.5 167t165.5 71q30 0 57.5 -4.5t42 -9.5t40 -15t35.5 -14l69 -27q12 -4 38.5 -16t46 -18.5t34.5 -6.5q33 0 49.5 25.5t16.5 64.5h196v-57
q0 -101 -58 -169.5t-165 -68.5zM684 -20q-269 0 -435.5 145.5t-166.5 386.5t166.5 386.5t435.5 145.5q268 0 435 -145.5t167 -386.5t-167 -386.5t-435 -145.5zM670 199h28q137 0 225.5 85t88.5 228t-88.5 228t-225.5 85h-28q-138 0 -226 -84.5t-88 -228.5t88 -228.5
t226 -84.5z" />
    <glyph glyph-name="odieresis" unicode="&#xf6;" horiz-adv-x="1368" 
d="M586 1155h-271v268h271v-268zM1051 1155h-271v268h271v-268zM684 -20q-269 0 -435.5 145.5t-166.5 386.5t166.5 386.5t435.5 145.5q268 0 435 -145.5t167 -386.5t-167 -386.5t-435 -145.5zM670 199h28q137 0 225.5 85t88.5 228t-88.5 228t-225.5 85h-28
q-138 0 -226 -84.5t-88 -228.5t88 -228.5t226 -84.5z" />
    <glyph glyph-name="divide" unicode="&#xf7;" horiz-adv-x="1359" 
d="M823 737h-286v277h286v-277zM1247 410h-1134v235h1134v-235zM823 41h-286v276h286v-276z" />
    <glyph glyph-name="oslash" unicode="&#xf8;" horiz-adv-x="1380" 
d="M1161 1098l148 -176l-113 -105q94 -126 94 -305q0 -241 -167 -386.5t-435 -145.5q-180 0 -321 69l-131 -123l-148 176l100 93q-102 133 -102 317q0 241 166.5 386.5t435.5 145.5q190 0 334 -75zM360 512q0 -72 25 -133l455 420q-59 26 -138 26h-28q-138 0 -226 -84.5
t-88 -228.5zM1016 512q0 66 -21 119l-444 -412q53 -20 123 -20h28q137 0 225.5 85t88.5 228z" />
    <glyph glyph-name="ugrave" unicode="&#xf9;" horiz-adv-x="1335" 
d="M768 1128h-199l-245 308h311zM561 -20q-211 0 -318.5 107.5t-107.5 297.5v639h273v-592q0 -116 48 -174.5t150 -58.5h29q117 0 200 82t83 217v526h272v-1024h-272v166q-44 -81 -138.5 -133.5t-218.5 -52.5z" />
    <glyph glyph-name="uacute" unicode="&#xfa;" horiz-adv-x="1335" 
d="M764 1128h-199l133 308h312zM561 -20q-211 0 -318.5 107.5t-107.5 297.5v639h273v-592q0 -116 48 -174.5t150 -58.5h29q117 0 200 82t83 217v526h272v-1024h-272v166q-44 -81 -138.5 -133.5t-218.5 -52.5z" />
    <glyph glyph-name="ucircumflex" unicode="&#xfb;" horiz-adv-x="1335" 
d="M446 1128h-229l318 308h256l319 -308h-229l-215 144zM561 -20q-211 0 -318.5 107.5t-107.5 297.5v639h273v-592q0 -116 48 -174.5t150 -58.5h29q117 0 200 82t83 217v526h272v-1024h-272v166q-44 -81 -138.5 -133.5t-218.5 -52.5z" />
    <glyph glyph-name="udieresis" unicode="&#xfc;" horiz-adv-x="1335" 
d="M565 1155h-270v268h270v-268zM1030 1155h-270v268h270v-268zM561 -20q-211 0 -318.5 107.5t-107.5 297.5v639h273v-592q0 -116 48 -174.5t150 -58.5h29q117 0 200 82t83 217v526h272v-1024h-272v166q-44 -81 -138.5 -133.5t-218.5 -52.5z" />
    <glyph glyph-name="yacute" unicode="&#xfd;" horiz-adv-x="1280" 
d="M752 1128h-199l133 308h311zM543 -414h-465v234h360q46 0 64 18t18 64v174l-495 948h299l338 -655l315 655h299l-483 -946v-242q0 -131 -62 -190.5t-188 -59.5z" />
    <glyph glyph-name="thorn" unicode="&#xfe;" horiz-adv-x="1419" 
d="M418 -410h-273v1844h273v-539q55 70 155 109.5t226 39.5q150 0 271 -63t193 -185t72 -284q0 -103 -27 -189.5t-75.5 -149t-115.5 -106.5t-146.5 -65.5t-167.5 -21.5q-137 0 -234.5 42.5t-150.5 112.5v-545zM733 199h29q134 0 216.5 82t82.5 231t-82.5 231t-216.5 82h-29
q-138 0 -226.5 -82.5t-88.5 -230.5t88.5 -230.5t226.5 -82.5z" />
    <glyph glyph-name="ydieresis" unicode="&#xff;" horiz-adv-x="1280" 
d="M553 1155h-270v268h270v-268zM1018 1155h-270v268h270v-268zM543 -414h-465v234h360q46 0 64 18t18 64v174l-495 948h299l338 -655l315 655h299l-483 -946v-242q0 -131 -62 -190.5t-188 -59.5z" />
    <glyph glyph-name="Amacron" unicode="&#x100;" horiz-adv-x="1656" 
d="M465 1792h727v-225h-727v225zM1655 0h-305l-154 336h-741l-154 -336h-299l670 1434h315zM825 1141l-256 -555h512z" />
    <glyph glyph-name="amacron" unicode="&#x101;" horiz-adv-x="1251" 
d="M963 1157h-727v215h727v-215zM504 -20q-201 0 -313.5 84t-112.5 219q0 85 32.5 149.5t91.5 104t134 61.5t168 27l348 24v25q0 73 -61.5 112t-172.5 39h-32q-84 0 -139 -31t-64 -87h-277q15 148 151 242.5t343 94.5q246 0 380 -107t134 -282v-430q0 -99 14 -225h-251
q-15 76 -15 162q-38 -75 -134 -128.5t-224 -53.5zM524 199h29q75 0 140.5 19t112 63.5t46.5 107.5v64l-283 -21q-217 -16 -217 -123q0 -110 172 -110z" />
    <glyph glyph-name="Abreve" unicode="&#x102;" horiz-adv-x="1656" 
d="M829 1526q-169 0 -272 84t-106 223h225q7 -55 48 -84t105 -29t105.5 29t48.5 84h225q-3 -139 -106.5 -223t-272.5 -84zM1655 0h-305l-154 336h-741l-154 -336h-299l670 1434h315zM825 1141l-256 -555h512z" />
    <glyph glyph-name="abreve" unicode="&#x103;" horiz-adv-x="1251" 
d="M600 1128q-170 0 -277 86.5t-110 233.5h229q9 -121 158 -121t158 121h229q-3 -147 -110 -233.5t-277 -86.5zM504 -20q-201 0 -313.5 84t-112.5 219q0 85 32.5 149.5t91.5 104t134 61.5t168 27l348 24v25q0 73 -61.5 112t-172.5 39h-32q-84 0 -139 -31t-64 -87h-277
q15 148 151 242.5t343 94.5q246 0 380 -107t134 -282v-430q0 -99 14 -225h-251q-15 76 -15 162q-38 -75 -134 -128.5t-224 -53.5zM524 199h29q75 0 140.5 19t112 63.5t46.5 107.5v64l-283 -21q-217 -16 -217 -123q0 -110 172 -110z" />
    <glyph glyph-name="Aogonek" unicode="&#x104;" horiz-adv-x="1656" 
d="M1593 -287h93v-164h-134q-108 0 -182 58.5t-74 146.5q0 151 166 246h-112l-154 336h-741l-154 -336h-299l670 1434h315l668 -1434q-35 -20 -57.5 -35t-53.5 -40t-47 -52.5t-16 -56.5q0 -50 34.5 -76.5t77.5 -26.5zM825 1141l-256 -555h512z" />
    <glyph glyph-name="aogonek" unicode="&#x105;" horiz-adv-x="1251" 
d="M1067 -287h92v-164h-133q-108 0 -182 58.5t-74 146.5q0 151 166 246h-59q-15 76 -15 162q-38 -75 -134 -128.5t-224 -53.5q-201 0 -313.5 84t-112.5 219q0 85 32.5 149.5t91.5 104t134 61.5t168 27l348 24v25q0 73 -61.5 112t-172.5 39h-32q-84 0 -139 -31t-64 -87h-277
q15 148 151 242.5t343 94.5q246 0 380 -107t134 -282v-430q0 -99 14 -225q-35 -20 -57.5 -35t-53.5 -40t-47 -52.5t-16 -56.5q0 -50 34.5 -76.5t78.5 -26.5zM852 389v64l-283 -21q-217 -16 -217 -123q0 -110 172 -110h29q75 0 140.5 19t112 63.5t46.5 107.5z" />
    <glyph glyph-name="Cacute" unicode="&#x106;" horiz-adv-x="1681" 
d="M987 1526h-188l102 297h322zM891 -20q-183 0 -334 55t-252 153t-156 233.5t-55 295.5q0 157 56.5 292.5t158.5 234t252.5 154.5t329.5 56q154 0 282.5 -39.5t215.5 -107.5t140.5 -155.5t69.5 -188.5h-296q-27 114 -135.5 177.5t-260.5 63.5h-33q-227 0 -361 -138.5
t-134 -348.5t134 -349t361 -139h33q153 0 260.5 62t135.5 180h296q-34 -221 -222.5 -356t-485.5 -135z" />
    <glyph glyph-name="cacute" unicode="&#x107;" horiz-adv-x="1275" 
d="M774 1128h-199l134 308h311zM674 -20q-145 0 -257.5 39t-185 110t-110 168t-37.5 215q0 112 40.5 209t114.5 169t186 113t249 41q220 0 362.5 -101.5t167.5 -276.5h-276q-15 74 -80 116.5t-160 42.5h-29q-145 0 -223 -90t-78 -223t78 -223t223 -90h29q92 0 157 45t83 114
h276q-25 -167 -169.5 -272.5t-360.5 -105.5z" />
    <glyph glyph-name="Ccircumflex" unicode="&#x108;" horiz-adv-x="1681" 
d="M707 1526h-230l266 297h295l267 -297h-230l-184 123zM891 -20q-183 0 -334 55t-252 153t-156 233.5t-55 295.5q0 157 56.5 292.5t158.5 234t252.5 154.5t329.5 56q154 0 282.5 -39.5t215.5 -107.5t140.5 -155.5t69.5 -188.5h-296q-27 114 -135.5 177.5t-260.5 63.5h-33
q-227 0 -361 -138.5t-134 -348.5t134 -349t361 -139h33q153 0 260.5 62t135.5 180h296q-34 -221 -222.5 -356t-485.5 -135z" />
    <glyph glyph-name="ccircumflex" unicode="&#x109;" horiz-adv-x="1275" 
d="M457 1128h-230l318 308h256l319 -308h-229l-215 144zM674 -20q-145 0 -257.5 39t-185 110t-110 168t-37.5 215q0 112 40.5 209t114.5 169t186 113t249 41q220 0 362.5 -101.5t167.5 -276.5h-276q-15 74 -80 116.5t-160 42.5h-29q-145 0 -223 -90t-78 -223t78 -223
t223 -90h29q92 0 157 45t83 114h276q-25 -167 -169.5 -272.5t-360.5 -105.5z" />
    <glyph glyph-name="Cdotaccent" unicode="&#x10a;" horiz-adv-x="1681" 
d="M1036 1554h-293v285h293v-285zM891 -20q-183 0 -334 55t-252 153t-156 233.5t-55 295.5q0 157 56.5 292.5t158.5 234t252.5 154.5t329.5 56q154 0 282.5 -39.5t215.5 -107.5t140.5 -155.5t69.5 -188.5h-296q-27 114 -135.5 177.5t-260.5 63.5h-33q-227 0 -361 -138.5
t-134 -348.5t134 -349t361 -139h33q153 0 260.5 62t135.5 180h296q-34 -221 -222.5 -356t-485.5 -135z" />
    <glyph glyph-name="cdotaccent" unicode="&#x10b;" horiz-adv-x="1275" 
d="M819 1149h-293v285h293v-285zM674 -20q-145 0 -257.5 39t-185 110t-110 168t-37.5 215q0 112 40.5 209t114.5 169t186 113t249 41q220 0 362.5 -101.5t167.5 -276.5h-276q-15 74 -80 116.5t-160 42.5h-29q-145 0 -223 -90t-78 -223t78 -223t223 -90h29q92 0 157 45
t83 114h276q-25 -167 -169.5 -272.5t-360.5 -105.5z" />
    <glyph glyph-name="Ccaron" unicode="&#x10c;" horiz-adv-x="1681" 
d="M1038 1526h-295l-266 297h230l184 -123l184 123h230zM891 -20q-183 0 -334 55t-252 153t-156 233.5t-55 295.5q0 157 56.5 292.5t158.5 234t252.5 154.5t329.5 56q154 0 282.5 -39.5t215.5 -107.5t140.5 -155.5t69.5 -188.5h-296q-27 114 -135.5 177.5t-260.5 63.5h-33
q-227 0 -361 -138.5t-134 -348.5t134 -349t361 -139h33q153 0 260.5 62t135.5 180h296q-34 -221 -222.5 -356t-485.5 -135z" />
    <glyph glyph-name="ccaron" unicode="&#x10d;" horiz-adv-x="1275" 
d="M801 1128h-256l-318 308h230l219 -144l215 144h229zM674 -20q-145 0 -257.5 39t-185 110t-110 168t-37.5 215q0 112 40.5 209t114.5 169t186 113t249 41q220 0 362.5 -101.5t167.5 -276.5h-276q-15 74 -80 116.5t-160 42.5h-29q-145 0 -223 -90t-78 -223t78 -223t223 -90
h29q92 0 157 45t83 114h276q-25 -167 -169.5 -272.5t-360.5 -105.5z" />
    <glyph glyph-name="Dcaron" unicode="&#x10e;" horiz-adv-x="1716" 
d="M967 1526h-295l-266 297h229l184 -123l185 123h229zM868 0h-686v1434h686q348 0 549 -190.5t201 -526.5t-201 -526.5t-549 -190.5zM465 1184v-934h383q239 0 362 118.5t123 348.5t-123 348.5t-362 118.5h-383z" />
    <glyph glyph-name="dcaron" unicode="&#x10f;" horiz-adv-x="1695" 
d="M621 -20q-150 0 -271.5 63t-193.5 185t-72 284q0 103 27 189.5t75.5 149t115.5 106.5t146.5 65.5t167.5 21.5q137 0 234.5 -42.5t150.5 -112.5v545h273v-1434h-273v129q-55 -70 -154.5 -109.5t-225.5 -39.5zM1470 928h-77v153h67q107 0 107 80v2h-123v271h287v-271
q0 -103 -73 -169t-188 -66zM657 199h29q138 0 226.5 82.5t88.5 230.5t-88.5 230.5t-226.5 82.5h-29q-134 0 -216.5 -82t-82.5 -231t82.5 -231t216.5 -82z" />
    <glyph glyph-name="Dcroat" unicode="&#x110;" horiz-adv-x="1796" 
d="M262 1434h686q348 0 549 -190.5t201 -526.5t-201 -526.5t-549 -190.5h-686v594h-223v246h223v594zM545 250h383q239 0 362 118.5t123 348.5t-123 348.5t-362 118.5h-383v-344h368v-246h-368v-344z" />
    <glyph glyph-name="dcroat" unicode="&#x111;" horiz-adv-x="1419" 
d="M1274 1311h188v-191h-188v-1120h-273v129q-55 -70 -154.5 -109.5t-225.5 -39.5q-150 0 -271.5 63t-193.5 185t-72 284q0 103 27 189.5t75.5 149t115.5 106.5t146.5 65.5t167.5 21.5q137 0 234.5 -42.5t150.5 -112.5v231h-374v191h374v123h273v-123zM657 199h29
q138 0 226.5 82.5t88.5 230.5t-88.5 230.5t-226.5 82.5h-29q-134 0 -216.5 -82t-82.5 -231t82.5 -231t216.5 -82z" />
    <glyph glyph-name="Emacron" unicode="&#x112;" horiz-adv-x="1562" 
d="M453 1792h727v-225h-727v225zM465 612v-362h1005v-250h-1288v1434h1268v-250h-985v-322h862v-250h-862z" />
    <glyph glyph-name="emacron" unicode="&#x113;" horiz-adv-x="1286" 
d="M299 1372h727v-215h-727v215zM1198 535v-109h-829q25 -111 103.5 -169t180.5 -58h29q86 0 145.5 32.5t81.5 92.5h277q-29 -158 -170 -251t-344 -93q-126 0 -232.5 34.5t-186 100.5t-124.5 170t-45 235q0 101 32.5 187t88.5 147t130 104.5t157 64.5t170 21
q250 0 393 -137.5t143 -371.5zM373 635h540q-6 98 -72 144t-167 46h-29q-107 0 -176 -49.5t-96 -140.5z" />
    <glyph glyph-name="Ebreve" unicode="&#x114;" horiz-adv-x="1562" 
d="M817 1526q-169 0 -272.5 84t-106.5 223h226q7 -55 48 -84t105 -29t105.5 29t48.5 84h225q-3 -139 -106.5 -223t-272.5 -84zM465 612v-362h1005v-250h-1288v1434h1268v-250h-985v-322h862v-250h-862z" />
    <glyph glyph-name="ebreve" unicode="&#x115;" horiz-adv-x="1286" 
d="M664 1128q-170 0 -277.5 86.5t-110.5 233.5h230q9 -121 158 -121q148 0 157 121h230q-3 -147 -110 -233.5t-277 -86.5zM1198 535v-109h-829q25 -111 103.5 -169t180.5 -58h29q86 0 145.5 32.5t81.5 92.5h277q-29 -158 -170 -251t-344 -93q-126 0 -232.5 34.5t-186 100.5
t-124.5 170t-45 235q0 101 32.5 187t88.5 147t130 104.5t157 64.5t170 21q250 0 393 -137.5t143 -371.5zM373 635h540q-6 98 -72 144t-167 46h-29q-107 0 -176 -49.5t-96 -140.5z" />
    <glyph glyph-name="Edotaccent" unicode="&#x116;" horiz-adv-x="1562" 
d="M670 1839h293v-285h-293v285zM465 612v-362h1005v-250h-1288v1434h1268v-250h-985v-322h862v-250h-862z" />
    <glyph glyph-name="edotaccent" unicode="&#x117;" horiz-adv-x="1286" 
d="M516 1434h293v-285h-293v285zM1198 535v-109h-829q25 -111 103.5 -169t180.5 -58h29q86 0 145.5 32.5t81.5 92.5h277q-29 -158 -170 -251t-344 -93q-126 0 -232.5 34.5t-186 100.5t-124.5 170t-45 235q0 101 32.5 187t88.5 147t130 104.5t157 64.5t170 21
q250 0 393 -137.5t143 -371.5zM373 635h540q-6 98 -72 144t-167 46h-29q-107 0 -176 -49.5t-96 -140.5z" />
    <glyph glyph-name="Eogonek" unicode="&#x118;" horiz-adv-x="1562" 
d="M1409 -287h92v-164h-133q-108 0 -182 58.5t-74 146.5q0 151 166 246h-1096v1434h1268v-250h-985v-322h862v-250h-862v-362h1005v-250q-35 -20 -57.5 -35t-53.5 -40t-47 -52.5t-16 -56.5q0 -50 34.5 -76.5t78.5 -26.5z" />
    <glyph glyph-name="eogonek" unicode="&#x119;" horiz-adv-x="1286" 
d="M1198 535v-109h-829q25 -111 103.5 -169t180.5 -58h29q86 0 145.5 32.5t81.5 92.5h277q-23 -122 -113 -206.5t-227 -117.5q-35 -20 -57.5 -35t-53.5 -40t-47 -52.5t-16 -56.5q0 -50 34.5 -76.5t77.5 -26.5h93v-164h-134q-108 0 -182 58.5t-74 146.5q0 133 136 228
q-240 13 -389.5 152.5t-149.5 385.5q0 101 32.5 187t88.5 147t130 104.5t157 64.5t170 21q250 0 393 -137.5t143 -371.5zM373 635h540q-6 98 -72 144t-167 46h-29q-107 0 -176 -49.5t-96 -140.5z" />
    <glyph glyph-name="Ecaron" unicode="&#x11a;" horiz-adv-x="1562" 
d="M1231 1823l-266 -297h-295l-267 297h230l184 -123l184 123h230zM465 612v-362h1005v-250h-1288v1434h1268v-250h-985v-322h862v-250h-862z" />
    <glyph glyph-name="ecaron" unicode="&#x11b;" horiz-adv-x="1286" 
d="M1110 1436l-319 -308h-256l-318 308h229l220 -144l215 144h229zM1198 535v-109h-829q25 -111 103.5 -169t180.5 -58h29q86 0 145.5 32.5t81.5 92.5h277q-29 -158 -170 -251t-344 -93q-126 0 -232.5 34.5t-186 100.5t-124.5 170t-45 235q0 101 32.5 187t88.5 147
t130 104.5t157 64.5t170 21q250 0 393 -137.5t143 -371.5zM373 635h540q-6 98 -72 144t-167 46h-29q-107 0 -176 -49.5t-96 -140.5z" />
    <glyph glyph-name="Gcircumflex" unicode="&#x11c;" horiz-adv-x="1773" 
d="M725 1526h-229l266 297h295l266 -297h-229l-185 123zM905 -20q-249 0 -433.5 93.5t-281 259.5t-96.5 384q0 161 56.5 296.5t160 233t256.5 152.5t340 55q168 0 303.5 -39t225 -108t140 -162t58.5 -203h-297q-4 37 -19 72t-47 70.5t-77 61.5t-114.5 42t-155.5 16h-33
q-234 0 -373 -129t-139 -358q0 -228 140.5 -358t371.5 -130h33q107 0 197 23.5t146 61t86.5 82t30.5 89.5v17h-471v250h547q94 0 144.5 -51.5t50.5 -145.5v-555h-271v160q-24 -30 -60.5 -58.5t-93.5 -57.5t-141.5 -46.5t-183.5 -17.5z" />
    <glyph glyph-name="gcircumflex" unicode="&#x11d;" horiz-adv-x="1390" 
d="M442 1128h-229l317 308h256l320 -308h-229l-215 144zM637 -451q-258 0 -410.5 93t-171.5 245h281q20 -58 95.5 -88t191.5 -30h28q142 0 232 71.5t90 206.5v107q-130 -154 -357 -154q-83 0 -159.5 19t-144.5 60.5t-118.5 102t-80 148t-29.5 192.5q0 130 44 232t119.5 164
t168.5 94t198 32q237 0 359 -149v129h272v-1001q0 -100 -39 -185.5t-114 -150t-191.5 -101.5t-263.5 -37zM641 219h29q121 0 212 84t91 219q0 136 -87 219.5t-206 83.5h-29q-127 0 -210 -75.5t-83 -227.5q0 -153 79 -228t204 -75z" />
    <glyph glyph-name="Gbreve" unicode="&#x11e;" horiz-adv-x="1773" 
d="M909 1526q-169 0 -272.5 84t-106.5 223h226q7 -55 48 -84t105 -29t105.5 29t48.5 84h225q-3 -139 -106.5 -223t-272.5 -84zM905 -20q-249 0 -433.5 93.5t-281 259.5t-96.5 384q0 161 56.5 296.5t160 233t256.5 152.5t340 55q168 0 303.5 -39t225 -108t140 -162t58.5 -203
h-297q-4 37 -19 72t-47 70.5t-77 61.5t-114.5 42t-155.5 16h-33q-234 0 -373 -129t-139 -358q0 -228 140.5 -358t371.5 -130h33q107 0 197 23.5t146 61t86.5 82t30.5 89.5v17h-471v250h547q94 0 144.5 -51.5t50.5 -145.5v-555h-271v160q-24 -30 -60.5 -58.5t-93.5 -57.5
t-141.5 -46.5t-183.5 -17.5z" />
    <glyph glyph-name="gbreve" unicode="&#x11f;" horiz-adv-x="1390" 
d="M659 1128q-170 0 -277 86.5t-110 233.5h230q9 -121 157 -121q149 0 158 121h230q-3 -147 -110.5 -233.5t-277.5 -86.5zM637 -451q-258 0 -410.5 93t-171.5 245h281q20 -58 95.5 -88t191.5 -30h28q142 0 232 71.5t90 206.5v107q-130 -154 -357 -154q-83 0 -159.5 19
t-144.5 60.5t-118.5 102t-80 148t-29.5 192.5q0 130 44 232t119.5 164t168.5 94t198 32q237 0 359 -149v129h272v-1001q0 -100 -39 -185.5t-114 -150t-191.5 -101.5t-263.5 -37zM641 219h29q121 0 212 84t91 219q0 136 -87 219.5t-206 83.5h-29q-127 0 -210 -75.5
t-83 -227.5q0 -153 79 -228t204 -75z" />
    <glyph glyph-name="Gdotaccent" unicode="&#x120;" horiz-adv-x="1773" 
d="M1055 1554h-293v285h293v-285zM905 -20q-249 0 -433.5 93.5t-281 259.5t-96.5 384q0 161 56.5 296.5t160 233t256.5 152.5t340 55q168 0 303.5 -39t225 -108t140 -162t58.5 -203h-297q-4 37 -19 72t-47 70.5t-77 61.5t-114.5 42t-155.5 16h-33q-234 0 -373 -129
t-139 -358q0 -228 140.5 -358t371.5 -130h33q107 0 197 23.5t146 61t86.5 82t30.5 89.5v17h-471v250h547q94 0 144.5 -51.5t50.5 -145.5v-555h-271v160q-24 -30 -60.5 -58.5t-93.5 -57.5t-141.5 -46.5t-183.5 -17.5z" />
    <glyph glyph-name="gdotaccent" unicode="&#x121;" horiz-adv-x="1390" 
d="M805 1149h-293v285h293v-285zM637 -451q-258 0 -410.5 93t-171.5 245h281q20 -58 95.5 -88t191.5 -30h28q142 0 232 71.5t90 206.5v107q-130 -154 -357 -154q-83 0 -159.5 19t-144.5 60.5t-118.5 102t-80 148t-29.5 192.5q0 130 44 232t119.5 164t168.5 94t198 32
q237 0 359 -149v129h272v-1001q0 -100 -39 -185.5t-114 -150t-191.5 -101.5t-263.5 -37zM641 219h29q121 0 212 84t91 219q0 136 -87 219.5t-206 83.5h-29q-127 0 -210 -75.5t-83 -227.5q0 -153 79 -228t204 -75z" />
    <glyph glyph-name="uni0122" unicode="&#x122;" horiz-adv-x="1773" 
d="M905 -20q-249 0 -433.5 93.5t-281 259.5t-96.5 384q0 161 56.5 296.5t160 233t256.5 152.5t340 55q168 0 303.5 -39t225 -108t140 -162t58.5 -203h-297q-4 37 -19 72t-47 70.5t-77 61.5t-114.5 42t-155.5 16h-33q-234 0 -373 -129t-139 -358q0 -228 140.5 -358
t371.5 -130h33q107 0 197 23.5t146 61t86.5 82t30.5 89.5v17h-471v250h547q94 0 144.5 -51.5t50.5 -145.5v-555h-271v160q-24 -30 -60.5 -58.5t-93.5 -57.5t-141.5 -46.5t-183.5 -17.5zM793 -633h-78v154h67q107 0 107 80v2h-123v270h287v-270q0 -103 -72.5 -169.5
t-187.5 -66.5z" />
    <glyph glyph-name="uni0123" unicode="&#x123;" horiz-adv-x="1390" 
d="M770 1671h78v-153h-68q-106 0 -106 -80v-2h123v-271h-287v271q0 103 72.5 169t187.5 66zM637 -451q-258 0 -410.5 93t-171.5 245h281q20 -58 95.5 -88t191.5 -30h28q142 0 232 71.5t90 206.5v107q-130 -154 -357 -154q-83 0 -159.5 19t-144.5 60.5t-118.5 102t-80 148
t-29.5 192.5q0 130 44 232t119.5 164t168.5 94t198 32q237 0 359 -149v129h272v-1001q0 -100 -39 -185.5t-114 -150t-191.5 -101.5t-263.5 -37zM641 219h29q121 0 212 84t91 219q0 136 -87 219.5t-206 83.5h-29q-127 0 -210 -75.5t-83 -227.5q0 -153 79 -228t204 -75z" />
    <glyph glyph-name="Hcircumflex" unicode="&#x124;" horiz-adv-x="1746" 
d="M690 1526h-229l266 297h295l266 -297h-229l-185 123zM465 0h-283v1434h283v-590h817v590h283v-1434h-283v594h-817v-594z" />
    <glyph glyph-name="hcircumflex" unicode="&#x125;" horiz-adv-x="1353" 
d="M461 1497h-230l318 307h256l319 -307h-229l-215 143zM418 0h-273v1434h273v-560q120 170 362 170q211 0 325 -116t114 -305v-623h-273v573q0 117 -51.5 184.5t-155.5 67.5h-28q-118 0 -205.5 -87t-87.5 -222v-516z" />
    <glyph glyph-name="Hbar" unicode="&#x126;" horiz-adv-x="1857" 
d="M1620 1243h182v-235h-182v-1008h-283v594h-817v-594h-282v1008h-183v235h183v191h282v-191h817v191h283v-191zM520 844h817v164h-817v-164z" />
    <glyph glyph-name="hbar" unicode="&#x127;" horiz-adv-x="1353" 
d="M780 1044q211 0 325 -116t114 -305v-623h-273v573q0 117 -51.5 184.5t-155.5 67.5h-28q-118 0 -205.5 -87t-87.5 -222v-516h-273v1120h-188v191h188v123h273v-123h375v-191h-375v-246q120 170 362 170z" />
    <glyph glyph-name="Itilde" unicode="&#x128;" horiz-adv-x="647" 
d="M549 1526q-49 0 -91.5 11.5t-111.5 37.5l-74 29q-12 4 -36 14.5t-38.5 14t-33.5 3.5q-43 0 -65.5 -26t-22.5 -64h-197v58q0 96 76 166.5t180 70.5q30 0 57 -4.5t42 -9.5t39.5 -15t35.5 -14l70 -26q12 -4 38.5 -16t46 -18.5t34.5 -6.5q43 0 64.5 25.5t21.5 64.5h196v-58
q0 -101 -61 -169t-170 -68zM465 0h-283v1434h283v-1434z" />
    <glyph glyph-name="itilde" unicode="&#x129;" horiz-adv-x="563" 
d="M489 1128q-28 0 -61 7.5t-57 16t-72 26.5l-74 28q-13 5 -36 15t-38 14t-34 4q-33 0 -50.5 -26t-17.5 -64h-196v57q0 96 69.5 167t165.5 71q30 0 57 -4.5t42 -9.5t39.5 -15t35.5 -14l70 -27q12 -4 38.5 -16t46 -18.5t34.5 -6.5q33 0 49 25.5t16 64.5h197v-57
q0 -101 -58.5 -169.5t-165.5 -68.5zM418 0h-273v1024h273v-1024z" />
    <glyph glyph-name="Imacron" unicode="&#x12a;" horiz-adv-x="647" 
d="M692 1567h-727v225h727v-225zM465 0h-283v1434h283v-1434z" />
    <glyph glyph-name="imacron" unicode="&#x12b;" horiz-adv-x="563" 
d="M645 1157h-727v215h727v-215zM418 0h-273v1024h273v-1024z" />
    <glyph glyph-name="Ibreve" unicode="&#x12c;" horiz-adv-x="647" 
d="M330 1526q-169 0 -272.5 84t-106.5 223h225q7 -55 48.5 -84t105.5 -29t105 29t48 84h226q-3 -139 -106.5 -223t-272.5 -84zM465 0h-283v1434h283v-1434z" />
    <glyph glyph-name="ibreve" unicode="&#x12d;" horiz-adv-x="563" 
d="M283 1128q-170 0 -277 86.5t-110 233.5h229q9 -121 158 -121q148 0 157 121h230q-3 -147 -110 -233.5t-277 -86.5zM418 0h-273v1024h273v-1024z" />
    <glyph glyph-name="Iogonek" unicode="&#x12e;" horiz-adv-x="647" 
d="M403 -287h93v-164h-134q-108 0 -182 58.5t-74 146.5q0 151 166 246h-90v1434h283v-1434q-35 -20 -57.5 -35t-53.5 -40t-47 -52.5t-16 -56.5q0 -50 34.5 -76.5t77.5 -26.5z" />
    <glyph glyph-name="iogonek" unicode="&#x12f;" horiz-adv-x="563" 
d="M135 1434h293v-285h-293v285zM356 -287h93v-164h-134q-108 0 -182 58.5t-74 146.5q0 151 166 246h-80v1024h273v-1024q-35 -20 -57.5 -35t-53.5 -40t-47 -52.5t-16 -56.5q0 -50 34.5 -76.5t77.5 -26.5z" />
    <glyph glyph-name="Idotaccent" unicode="&#x130;" horiz-adv-x="647" 
d="M475 1554h-293v285h293v-285zM465 0h-283v1434h283v-1434z" />
    <glyph glyph-name="dotlessi" unicode="&#x131;" horiz-adv-x="563" 
d="M418 0h-273v1024h273v-1024z" />
    <glyph glyph-name="IJ" unicode="&#x132;" horiz-adv-x="1384" 
d="M834 0h-662v260h614q78 0 111 32.5t33 110.5v1031h282v-1076q0 -185 -91.5 -271.5t-286.5 -86.5zM455 424h-283v1010h283v-1010z" />
    <glyph glyph-name="ij" unicode="&#x133;" horiz-adv-x="1148" 
d="M428 1149h-293v285h293v-285zM1014 1149h-293v285h293v-285zM768 -410h-623v230h504q46 0 64 18t18 64v1122h273v-1198q0 -102 -65 -169t-171 -67zM418 0h-273v1024h273v-1024z" />
    <glyph glyph-name="Jcircumflex" unicode="&#x134;" horiz-adv-x="993" 
d="M512 1526h-229l266 297h295l266 -297h-229l-185 123zM442 0h-381v260h334q78 0 111 32.5t33 110.5v1031h282v-1076q0 -184 -92 -271t-287 -87z" />
    <glyph glyph-name="jcircumflex" unicode="&#x135;" horiz-adv-x="583" 
d="M86 1128h-229l317 308h256l320 -308h-230l-215 144zM203 -410h-449v230h330q46 0 64 18t18 64v1122h272v-1198q0 -102 -65 -169t-170 -67z" />
    <glyph glyph-name="uni0136" unicode="&#x136;" horiz-adv-x="1613" 
d="M1595 1434l-716 -611l749 -823h-373l-585 647l-205 -174v-473h-283v1434h283v-633l739 633h391zM848 -397h-123v270h287v-270q0 -103 -72.5 -169.5t-187.5 -66.5h-78v154h67q107 0 107 80v2z" />
    <glyph glyph-name="uni0137" unicode="&#x137;" horiz-adv-x="1261" 
d="M1245 1024l-536 -424l557 -600h-340l-410 449l-98 -78v-371h-273v1434h273v-787l463 377h364zM616 -397h-122v270h286v-270q0 -103 -72.5 -169.5t-187.5 -66.5h-78v154h68q106 0 106 80v2z" />
    <glyph glyph-name="Lacute" unicode="&#x139;" horiz-adv-x="1466" 
d="M406 1526h-189l102 297h322zM1425 0h-1243v1434h283v-1184h960v-250z" />
    <glyph glyph-name="lacute" unicode="&#x13a;" horiz-adv-x="563" 
d="M387 1538h-199l134 307h311zM418 0h-273v1434h273v-1434z" />
    <glyph glyph-name="uni013B" unicode="&#x13b;" horiz-adv-x="1466" 
d="M1425 0h-1243v1434h283v-1184h960v-250zM688 -633h-78v154h68q106 0 106 80v2h-122v270h286v-270q0 -103 -72.5 -169.5t-187.5 -66.5z" />
    <glyph glyph-name="uni013C" unicode="&#x13c;" horiz-adv-x="563" 
d="M418 0h-273v1434h273v-1434zM166 -633h-78v154h68q106 0 106 80v2h-123v270h287v-270q0 -103 -72.5 -169.5t-187.5 -66.5z" />
    <glyph glyph-name="Lcaron" unicode="&#x13d;" horiz-adv-x="1468" 
d="M1425 0h-1243v1434h283v-1184h960v-250zM834 928h-78v153h67q107 0 107 80v2h-123v271h287v-271q0 -103 -72.5 -169t-187.5 -66z" />
    <glyph glyph-name="lcaron" unicode="&#x13e;" horiz-adv-x="821" 
d="M418 0h-273v1434h273v-1434zM596 928h-78v153h68q106 0 106 80v2h-123v271h287v-271q0 -103 -72.5 -169t-187.5 -66z" />
    <glyph glyph-name="Ldot" unicode="&#x13f;" horiz-adv-x="1468" 
d="M1425 0h-1243v1434h283v-1184h960v-250zM1198 604h-328v301h328v-301z" />
    <glyph glyph-name="ldot" unicode="&#x140;" horiz-adv-x="890" 
d="M418 0h-273v1434h273v-1434zM891 563h-328v301h328v-301z" />
    <glyph glyph-name="Lslash" unicode="&#x141;" horiz-adv-x="1550" 
d="M549 602v-352h960v-250h-1243v467l-192 -90v276l192 90v691h283v-557l500 235v-274z" />
    <glyph glyph-name="lslash" unicode="&#x142;" horiz-adv-x="737" 
d="M508 1014l182 98v-246l-182 -98v-768h-272v623l-170 -93v246l170 92v566h272v-420z" />
    <glyph glyph-name="Nacute" unicode="&#x143;" horiz-adv-x="1740" 
d="M881 1823h321l-235 -297h-189zM1276 381v1053h283v-1434h-349l-745 1071v-1071h-283v1434h361z" />
    <glyph glyph-name="nacute" unicode="&#x144;" horiz-adv-x="1353" 
d="M799 1128h-199l133 308h311zM418 0h-273v1024h273v-150q121 170 362 170q214 0 326.5 -115.5t112.5 -305.5v-623h-273v573q0 117 -51.5 184.5t-155.5 67.5h-28q-118 0 -205.5 -87t-87.5 -222v-516z" />
    <glyph glyph-name="uni0145" unicode="&#x145;" horiz-adv-x="1740" 
d="M1276 381v1053h283v-1434h-349l-745 1071v-1071h-283v1434h361zM850 -397h-123v270h287v-270q0 -103 -72.5 -169.5t-187.5 -66.5h-78v154h67q107 0 107 80v2z" />
    <glyph glyph-name="uni0146" unicode="&#x146;" horiz-adv-x="1353" 
d="M418 0h-273v1024h273v-150q121 170 362 170q214 0 326.5 -115.5t112.5 -305.5v-623h-273v573q0 117 -51.5 184.5t-155.5 67.5h-28q-118 0 -205.5 -87t-87.5 -222v-516zM561 -633h-78v154h68q106 0 106 80v2h-122v270h286v-270q0 -103 -72.5 -169.5t-187.5 -66.5z" />
    <glyph glyph-name="Ncaron" unicode="&#x147;" horiz-adv-x="1740" 
d="M1284 1823l-266 -297h-295l-266 297h229l184 -123l185 123h229zM1276 381v1053h283v-1434h-349l-745 1071v-1071h-283v1434h361z" />
    <glyph glyph-name="ncaron" unicode="&#x148;" horiz-adv-x="1353" 
d="M825 1128h-256l-317 308h229l219 -144l215 144h230zM418 0h-273v1024h273v-150q121 170 362 170q214 0 326.5 -115.5t112.5 -305.5v-623h-273v573q0 117 -51.5 184.5t-155.5 67.5h-28q-118 0 -205.5 -87t-87.5 -222v-516z" />
    <glyph glyph-name="Eng" unicode="&#x14a;" horiz-adv-x="1740" 
d="M1272 -410h-328v230h238q94 0 94 94v104l-811 1065v-1083h-283v1434h348l746 -979v979h283v-1557q0 -126 -78.5 -206.5t-208.5 -80.5z" />
    <glyph glyph-name="eng" unicode="&#x14b;" horiz-adv-x="1353" 
d="M983 -414h-340v234h221q49 0 65.5 17.5t16.5 64.5v671q0 117 -51.5 184.5t-155.5 67.5h-28q-118 0 -205.5 -87t-87.5 -222v-516h-273v1024h273v-150q112 170 362 170q214 0 326.5 -115.5t112.5 -305.5v-787q0 -250 -236 -250z" />
    <glyph glyph-name="Omacron" unicode="&#x14c;" horiz-adv-x="1812" 
d="M1270 1567h-727v225h727v-225zM907 -20q-233 0 -416.5 87.5t-290 256t-106.5 393.5t106.5 393.5t290 256t416.5 87.5t416 -87.5t289 -256t106 -393.5t-106 -393.5t-289 -256t-416 -87.5zM891 229h33q140 0 254.5 56.5t185 169t70.5 262.5q0 113 -41 206t-111 154t-162 94
t-196 33h-33q-104 0 -196.5 -33t-163 -94t-111.5 -154t-41 -206q0 -150 71 -262.5t186 -169t255 -56.5z" />
    <glyph glyph-name="omacron" unicode="&#x14d;" horiz-adv-x="1368" 
d="M1047 1157h-728v215h728v-215zM684 -20q-269 0 -435.5 145.5t-166.5 386.5t166.5 386.5t435.5 145.5q268 0 435 -145.5t167 -386.5t-167 -386.5t-435 -145.5zM670 199h28q137 0 225.5 85t88.5 228t-88.5 228t-225.5 85h-28q-138 0 -226 -84.5t-88 -228.5t88 -228.5
t226 -84.5z" />
    <glyph glyph-name="Obreve" unicode="&#x14e;" horiz-adv-x="1812" 
d="M907 1526q-169 0 -272.5 84t-106.5 223h226q7 -55 48 -84t105 -29t105.5 29t48.5 84h225q-3 -139 -106.5 -223t-272.5 -84zM907 -20q-233 0 -416.5 87.5t-290 256t-106.5 393.5t106.5 393.5t290 256t416.5 87.5t416 -87.5t289 -256t106 -393.5t-106 -393.5t-289 -256
t-416 -87.5zM891 229h33q140 0 254.5 56.5t185 169t70.5 262.5q0 113 -41 206t-111 154t-162 94t-196 33h-33q-104 0 -196.5 -33t-163 -94t-111.5 -154t-41 -206q0 -150 71 -262.5t186 -169t255 -56.5z" />
    <glyph glyph-name="obreve" unicode="&#x14f;" horiz-adv-x="1368" 
d="M684 1128q-170 0 -277 86.5t-110 233.5h229q9 -121 158 -121t158 121h229q-3 -147 -110 -233.5t-277 -86.5zM684 -20q-269 0 -435.5 145.5t-166.5 386.5t166.5 386.5t435.5 145.5q268 0 435 -145.5t167 -386.5t-167 -386.5t-435 -145.5zM670 199h28q137 0 225.5 85
t88.5 228t-88.5 228t-225.5 85h-28q-138 0 -226 -84.5t-88 -228.5t88 -228.5t226 -84.5z" />
    <glyph glyph-name="Ohungarumlaut" unicode="&#x150;" horiz-adv-x="1812" 
d="M774 1526h-188l102 297h322zM1229 1526h-189l103 297h321zM907 -20q-233 0 -416.5 87.5t-290 256t-106.5 393.5t106.5 393.5t290 256t416.5 87.5t416 -87.5t289 -256t106 -393.5t-106 -393.5t-289 -256t-416 -87.5zM891 229h33q140 0 254.5 56.5t185 169t70.5 262.5
q0 113 -41 206t-111 154t-162 94t-196 33h-33q-104 0 -196.5 -33t-163 -94t-111.5 -154t-41 -206q0 -150 71 -262.5t186 -169t255 -56.5z" />
    <glyph glyph-name="ohungarumlaut" unicode="&#x151;" horiz-adv-x="1368" 
d="M584 1128h-199l133 308h311zM975 1128h-199l133 308h312zM684 -20q-269 0 -435.5 145.5t-166.5 386.5t166.5 386.5t435.5 145.5q268 0 435 -145.5t167 -386.5t-167 -386.5t-435 -145.5zM670 199h28q137 0 225.5 85t88.5 228t-88.5 228t-225.5 85h-28q-138 0 -226 -84.5
t-88 -228.5t88 -228.5t226 -84.5z" />
    <glyph glyph-name="OE" unicode="&#x152;" horiz-adv-x="2826" 
d="M907 -20q-233 0 -416.5 87.5t-290 256t-106.5 393.5t106.5 393.5t290 256t416.5 87.5q339 0 539 -178v158h1268v-250h-996v-322h873v-250h-873v-362h1016v-250h-1288v164q-199 -184 -539 -184zM891 229h33q143 0 260 56.5t188.5 169t71.5 262.5q0 113 -41.5 206
t-112.5 154t-165 94t-201 33h-33q-104 0 -196.5 -33t-163 -94t-111.5 -154t-41 -206q0 -150 71 -262.5t186 -169t255 -56.5z" />
    <glyph glyph-name="oe" unicode="&#x153;" horiz-adv-x="2246" 
d="M682 -20q-268 0 -434 145.5t-166 386.5t166 386.5t434 145.5q160 0 284 -56t197 -157q76 103 199.5 158t259.5 55q250 0 393.5 -138t143.5 -371v-109h-830q25 -111 104 -169t181 -58h28q87 0 146.5 32.5t81.5 92.5h276q-29 -158 -170 -251t-344 -93q-152 0 -274.5 53.5
t-196.5 156.5q-73 -101 -196 -155.5t-283 -54.5zM668 197h28q136 0 225 86t89 229t-88.5 228t-223.5 85h-28q-138 0 -227 -85t-89 -228q0 -144 88 -229.5t226 -85.5zM1333 635h541q-6 98 -72.5 144t-167.5 46h-28q-107 0 -176.5 -49.5t-96.5 -140.5z" />
    <glyph glyph-name="Racute" unicode="&#x154;" horiz-adv-x="1611" 
d="M885 1526h-189l103 297h321zM465 0h-283v1434h799q214 0 351.5 -111t137.5 -281q0 -130 -67 -223.5t-162 -126.5q110 0 155.5 -50.5t45.5 -160.5v-481h-283v420q0 72 -26.5 97.5t-98.5 25.5h-569v-543zM465 1184v-391h485q102 0 158.5 51.5t56.5 144.5q0 88 -57.5 141.5
t-157.5 53.5h-485z" />
    <glyph glyph-name="racute" unicode="&#x155;" horiz-adv-x="903" 
d="M590 1128h-199l133 308h312zM418 0h-273v1024h263v-195q35 101 98 148t176 47h178v-244h-192q-121 0 -185.5 -67.5t-64.5 -198.5v-514z" />
    <glyph glyph-name="uni0156" unicode="&#x156;" horiz-adv-x="1611" 
d="M465 0h-283v1434h799q214 0 351.5 -111t137.5 -281q0 -130 -67 -223.5t-162 -126.5q110 0 155.5 -50.5t45.5 -160.5v-481h-283v420q0 72 -26.5 97.5t-98.5 25.5h-569v-543zM465 1184v-391h485q102 0 158.5 51.5t56.5 144.5q0 88 -57.5 141.5t-157.5 53.5h-485zM696 -633
h-78v154h68q107 0 107 80v2h-123v270h286v-270q0 -103 -72.5 -169.5t-187.5 -66.5z" />
    <glyph glyph-name="uni0157" unicode="&#x157;" horiz-adv-x="903" 
d="M418 0h-273v1024h263v-195q35 101 98 148t176 47h178v-244h-192q-121 0 -185.5 -67.5t-64.5 -198.5v-514zM166 -633h-78v154h68q106 0 106 80v2h-123v270h287v-270q0 -103 -72.5 -169.5t-187.5 -66.5z" />
    <glyph glyph-name="Rcaron" unicode="&#x158;" horiz-adv-x="1611" 
d="M936 1526h-295l-266 297h229l184 -123l185 123h229zM465 0h-283v1434h799q214 0 351.5 -111t137.5 -281q0 -130 -67 -223.5t-162 -126.5q110 0 155.5 -50.5t45.5 -160.5v-481h-283v420q0 72 -26.5 97.5t-98.5 25.5h-569v-543zM465 1184v-391h485q102 0 158.5 51.5
t56.5 144.5q0 88 -57.5 141.5t-157.5 53.5h-485z" />
    <glyph glyph-name="rcaron" unicode="&#x159;" horiz-adv-x="903" 
d="M616 1128h-256l-317 308h229l220 -144l215 144h229zM418 0h-273v1024h263v-195q35 101 98 148t176 47h178v-244h-192q-121 0 -185.5 -67.5t-64.5 -198.5v-514z" />
    <glyph glyph-name="Sacute" unicode="&#x15a;" horiz-adv-x="1505" 
d="M854 1526h-188l102 297h322zM766 -20q-327 0 -510.5 127.5t-187.5 373.5h297q6 -124 107 -188t276 -64h32q166 0 246 44.5t80 119.5q0 70 -61.5 112.5t-200.5 65.5l-223 37q-250 42 -362 139t-112 283q0 85 36.5 160t108 134.5t191 94.5t273.5 35q295 0 468 -125
t195 -346h-297q-15 105 -107 163t-243 58h-33q-144 0 -225.5 -44t-81.5 -111q0 -73 53 -111t174 -59l230 -37q502 -82 502 -439q0 -204 -161.5 -313.5t-463.5 -109.5z" />
    <glyph glyph-name="sacute" unicode="&#x15b;" horiz-adv-x="1175" 
d="M682 1128h-199l133 308h312zM582 -20q-239 0 -372 95.5t-142 262.5h276q6 -69 68 -104t155 -35h29q205 0 205 84q0 32 -32.5 52.5t-117.5 37.5l-170 33q-181 36 -272.5 109t-91.5 210q0 100 63 173.5t167 109.5t235 36q246 0 374 -94.5t140 -263.5h-277q-6 61 -64.5 100
t-158.5 39h-29q-84 0 -130 -22t-46 -58q0 -32 31 -51t121 -37l159 -30q182 -34 277.5 -111.5t95.5 -218.5q0 -146 -126.5 -231.5t-366.5 -85.5z" />
    <glyph glyph-name="Scircumflex" unicode="&#x15c;" horiz-adv-x="1505" 
d="M573 1526h-229l266 297h295l266 -297h-229l-184 123zM766 -20q-327 0 -510.5 127.5t-187.5 373.5h297q6 -124 107 -188t276 -64h32q166 0 246 44.5t80 119.5q0 70 -61.5 112.5t-200.5 65.5l-223 37q-250 42 -362 139t-112 283q0 85 36.5 160t108 134.5t191 94.5t273.5 35
q295 0 468 -125t195 -346h-297q-15 105 -107 163t-243 58h-33q-144 0 -225.5 -44t-81.5 -111q0 -73 53 -111t174 -59l230 -37q502 -82 502 -439q0 -204 -161.5 -313.5t-463.5 -109.5z" />
    <glyph glyph-name="scircumflex" unicode="&#x15d;" horiz-adv-x="1175" 
d="M365 1128h-230l318 308h256l319 -308h-229l-215 144zM582 -20q-239 0 -372 95.5t-142 262.5h276q6 -69 68 -104t155 -35h29q205 0 205 84q0 32 -32.5 52.5t-117.5 37.5l-170 33q-181 36 -272.5 109t-91.5 210q0 100 63 173.5t167 109.5t235 36q246 0 374 -94.5
t140 -263.5h-277q-6 61 -64.5 100t-158.5 39h-29q-84 0 -130 -22t-46 -58q0 -32 31 -51t121 -37l159 -30q182 -34 277.5 -111.5t95.5 -218.5q0 -146 -126.5 -231.5t-366.5 -85.5z" />
    <glyph glyph-name="Scedilla" unicode="&#x15e;" horiz-adv-x="1505" 
d="M659 879l230 -37q502 -82 502 -439q0 -194 -145.5 -302.5t-420.5 -118.5v-74q83 0 142 -50.5t59 -144.5q0 -98 -71 -156.5t-181 -58.5h-188v154h198q40 0 64 15.5t24 45.5q0 25 -20.5 43.5t-56.5 18.5h-117v207q-288 18 -447 144t-163 355h297q6 -124 107 -188t276 -64
h32q166 0 246 44.5t80 119.5q0 70 -61.5 112.5t-200.5 65.5l-223 37q-250 42 -362 139t-112 283q0 85 36.5 160t108 134.5t191 94.5t273.5 35q295 0 468 -125t195 -346h-297q-15 105 -107 163t-243 58h-33q-144 0 -225.5 -44t-81.5 -111q0 -73 53 -111t174 -59z" />
    <glyph glyph-name="scedilla" unicode="&#x15f;" horiz-adv-x="1175" 
d="M543 657l159 -30q182 -34 277.5 -111.5t95.5 -218.5q0 -137 -110.5 -221t-319.5 -94v-74q83 0 142 -50.5t59 -144.5q0 -98 -71 -156.5t-181 -58.5h-188v154h198q40 0 64 15.5t24 45.5q0 25 -21 43.5t-57 18.5h-116v209q-200 17 -311 110t-119 244h276q6 -69 68 -104
t155 -35h29q205 0 205 84q0 32 -32.5 52.5t-117.5 37.5l-170 33q-181 36 -272.5 109t-91.5 210q0 100 63 173.5t167 109.5t235 36q246 0 374 -94.5t140 -263.5h-277q-6 61 -64.5 100t-158.5 39h-29q-84 0 -130 -22t-46 -58q0 -32 31 -51t121 -37z" />
    <glyph glyph-name="Scaron" unicode="&#x160;" horiz-adv-x="1505" 
d="M905 1526h-295l-266 297h229l185 -123l184 123h229zM766 -20q-327 0 -510.5 127.5t-187.5 373.5h297q6 -124 107 -188t276 -64h32q166 0 246 44.5t80 119.5q0 70 -61.5 112.5t-200.5 65.5l-223 37q-250 42 -362 139t-112 283q0 85 36.5 160t108 134.5t191 94.5t273.5 35
q295 0 468 -125t195 -346h-297q-15 105 -107 163t-243 58h-33q-144 0 -225.5 -44t-81.5 -111q0 -73 53 -111t174 -59l230 -37q502 -82 502 -439q0 -204 -161.5 -313.5t-463.5 -109.5z" />
    <glyph glyph-name="scaron" unicode="&#x161;" horiz-adv-x="1175" 
d="M709 1128h-256l-318 308h230l219 -144l215 144h229zM582 -20q-239 0 -372 95.5t-142 262.5h276q6 -69 68 -104t155 -35h29q205 0 205 84q0 32 -32.5 52.5t-117.5 37.5l-170 33q-181 36 -272.5 109t-91.5 210q0 100 63 173.5t167 109.5t235 36q246 0 374 -94.5t140 -263.5
h-277q-6 61 -64.5 100t-158.5 39h-29q-84 0 -130 -22t-46 -58q0 -32 31 -51t121 -37l159 -30q182 -34 277.5 -111.5t95.5 -218.5q0 -146 -126.5 -231.5t-366.5 -85.5z" />
    <glyph glyph-name="uni0162" unicode="&#x162;" horiz-adv-x="1519" 
d="M901 1184v-1184h-67v-92q83 0 141.5 -50.5t58.5 -144.5q0 -98 -71 -156.5t-181 -58.5h-188v154h199q40 0 64 15.5t24 45.5q0 25 -21 43.5t-57 18.5h-117v225h-68v1184h-577v250h1438v-250h-578z" />
    <glyph glyph-name="uni0163" unicode="&#x163;" horiz-adv-x="964" 
d="M909 225v-225h-331v-92q83 0 141.5 -50.5t58.5 -144.5q0 -98 -71 -156.5t-181 -58.5h-188v154h199q40 0 64 15.5t24 45.5q0 25 -21 43.5t-57 18.5h-117v237q-154 38 -154 213v580h-247v219h247v332h273v-332h315v-219h-315v-498q0 -46 18 -64t64 -18h278z" />
    <glyph glyph-name="Tcaron" unicode="&#x164;" horiz-adv-x="1519" 
d="M907 1526h-295l-266 297h229l185 -123l184 123h230zM901 0h-283v1184h-577v250h1438v-250h-578v-1184z" />
    <glyph glyph-name="tcaron" unicode="&#x165;" horiz-adv-x="1171" 
d="M1032 928h-78v153h68q106 0 106 80v2h-122v271h286v-271q0 -103 -72.5 -169t-187.5 -66zM909 0h-370q-263 0 -263 225v580h-247v219h247v332h273v-332h315v-219h-315v-498q0 -46 18 -64t64 -18h278v-225z" />
    <glyph glyph-name="Tbar" unicode="&#x166;" horiz-adv-x="1581" 
d="M1509 1434v-250h-577v-289h446v-236h-446v-659h-283v659h-446v236h446v289h-577v250h1437z" />
    <glyph glyph-name="tbar" unicode="&#x167;" horiz-adv-x="989" 
d="M651 225h279v-225h-371q-262 0 -262 225v248h-248v191h248v141h-248v219h248v332h272v-332h316v-219h-316v-141h316v-191h-316v-166q0 -46 18 -64t64 -18z" />
    <glyph glyph-name="Utilde" unicode="&#x168;" horiz-adv-x="1634" 
d="M1036 1526q-49 0 -91 11.5t-111 37.5l-74 29q-12 4 -29.5 11.5t-27 11t-24 6.5t-28.5 3q-43 0 -65.5 -26t-22.5 -64h-196v58q0 96 76 166.5t180 70.5q30 0 57 -4.5t42 -9.5t39.5 -15t35.5 -14l69 -26q12 -4 38.5 -16t46 -18.5t34.5 -6.5q43 0 64.5 25.5t21.5 64.5h197
v-58q0 -101 -61.5 -169t-170.5 -68zM817 -20q-321 0 -486 155t-165 430v869h283v-852q0 -172 90 -262.5t262 -90.5h33q172 0 262 90.5t90 262.5v852h282v-869q0 -273 -167.5 -429t-483.5 -156z" />
    <glyph glyph-name="utilde" unicode="&#x169;" horiz-adv-x="1335" 
d="M870 1128q-28 0 -61 7.5t-57 16t-72 26.5l-74 28q-13 5 -36 15t-38 14t-34 4q-33 0 -50.5 -26t-17.5 -64h-197v57q0 96 70 167t166 71q30 0 57 -4.5t42 -9.5t39.5 -15t35.5 -14l70 -27q12 -4 38 -16t45.5 -18.5t34.5 -6.5q33 0 49.5 25.5t16.5 64.5h197v-57
q0 -101 -58.5 -169.5t-165.5 -68.5zM561 -20q-211 0 -318.5 107.5t-107.5 297.5v639h273v-592q0 -116 48 -174.5t150 -58.5h29q117 0 200 82t83 217v526h272v-1024h-272v166q-44 -81 -138.5 -133.5t-218.5 -52.5z" />
    <glyph glyph-name="Umacron" unicode="&#x16a;" horiz-adv-x="1634" 
d="M1180 1567h-727v225h727v-225zM817 -20q-321 0 -486 155t-165 430v869h283v-852q0 -172 90 -262.5t262 -90.5h33q172 0 262 90.5t90 262.5v852h282v-869q0 -273 -167.5 -429t-483.5 -156z" />
    <glyph glyph-name="umacron" unicode="&#x16b;" horiz-adv-x="1335" 
d="M1026 1157h-727v215h727v-215zM561 -20q-211 0 -318.5 107.5t-107.5 297.5v639h273v-592q0 -116 48 -174.5t150 -58.5h29q117 0 200 82t83 217v526h272v-1024h-272v166q-44 -81 -138.5 -133.5t-218.5 -52.5z" />
    <glyph glyph-name="Ubreve" unicode="&#x16c;" horiz-adv-x="1634" 
d="M817 1526q-169 0 -272.5 84t-106.5 223h226q7 -55 48 -84t105 -29t105.5 29t48.5 84h225q-3 -139 -106.5 -223t-272.5 -84zM817 -20q-321 0 -486 155t-165 430v869h283v-852q0 -172 90 -262.5t262 -90.5h33q172 0 262 90.5t90 262.5v852h282v-869q0 -273 -167.5 -429
t-483.5 -156z" />
    <glyph glyph-name="ubreve" unicode="&#x16d;" horiz-adv-x="1335" 
d="M664 1128q-170 0 -277.5 86.5t-110.5 233.5h230q9 -121 158 -121q148 0 157 121h230q-3 -147 -110 -233.5t-277 -86.5zM561 -20q-211 0 -318.5 107.5t-107.5 297.5v639h273v-592q0 -116 48 -174.5t150 -58.5h29q117 0 200 82t83 217v526h272v-1024h-272v166
q-44 -81 -138.5 -133.5t-218.5 -52.5z" />
    <glyph glyph-name="Uring" unicode="&#x16e;" horiz-adv-x="1634" 
d="M817 1495q-109 0 -182.5 64.5t-73.5 160.5q0 90 74.5 158t181.5 68t181.5 -68t74.5 -158q0 -96 -73.5 -160.5t-182.5 -64.5zM817 1638q42 0 71.5 24.5t29.5 57.5t-29.5 57.5t-71.5 24.5t-72 -24.5t-30 -57.5t30 -57.5t72 -24.5zM817 -20q-321 0 -486 155t-165 430v869
h283v-852q0 -172 90 -262.5t262 -90.5h33q172 0 262 90.5t90 262.5v852h282v-869q0 -273 -167.5 -429t-483.5 -156z" />
    <glyph glyph-name="uring" unicode="&#x16f;" horiz-adv-x="1335" 
d="M664 1128q-117 0 -191 66t-74 166q0 93 75 162t190 69t189.5 -69t74.5 -162q0 -100 -73.5 -166t-190.5 -66zM666 1272q44 0 74 26t30 62t-30 62t-74 26q-43 0 -75 -26.5t-32 -61.5t32 -61.5t75 -26.5zM561 -20q-211 0 -318.5 107.5t-107.5 297.5v639h273v-592
q0 -116 48 -174.5t150 -58.5h29q117 0 200 82t83 217v526h272v-1024h-272v166q-44 -81 -138.5 -133.5t-218.5 -52.5z" />
    <glyph glyph-name="Uhungarumlaut" unicode="&#x170;" horiz-adv-x="1634" 
d="M684 1526h-188l102 297h322zM1139 1526h-189l103 297h321zM817 -20q-321 0 -486 155t-165 430v869h283v-852q0 -172 90 -262.5t262 -90.5h33q172 0 262 90.5t90 262.5v852h282v-869q0 -273 -167.5 -429t-483.5 -156z" />
    <glyph glyph-name="uhungarumlaut" unicode="&#x171;" horiz-adv-x="1335" 
d="M563 1128h-198l133 308h311zM954 1128h-198l133 308h311zM561 -20q-211 0 -318.5 107.5t-107.5 297.5v639h273v-592q0 -116 48 -174.5t150 -58.5h29q117 0 200 82t83 217v526h272v-1024h-272v166q-44 -81 -138.5 -133.5t-218.5 -52.5z" />
    <glyph glyph-name="Uogonek" unicode="&#x172;" horiz-adv-x="1634" 
d="M1186 582v852h282v-869q0 -224 -113.5 -371t-330.5 -194q-35 -20 -57.5 -35t-53.5 -40t-47 -52.5t-16 -56.5q0 -50 34.5 -76.5t78.5 -26.5h92v-164h-133q-108 0 -182 58.5t-74 146.5q0 133 133 226q-313 4 -473 158.5t-160 426.5v869h283v-852q0 -172 90 -262.5
t262 -90.5h33q172 0 262 90.5t90 262.5z" />
    <glyph glyph-name="uogonek" unicode="&#x173;" horiz-adv-x="1335" 
d="M1128 -287h93v-164h-134q-108 0 -182 58.5t-74 146.5q0 151 166 246h-79v166q-44 -81 -138.5 -133.5t-218.5 -52.5q-211 0 -318.5 107.5t-107.5 297.5v639h273v-592q0 -116 48 -174.5t150 -58.5h29q117 0 200 82t83 217v526h272v-1024q-35 -20 -57.5 -35t-53.5 -40
t-47 -52.5t-16 -56.5q0 -50 34.5 -76.5t77.5 -26.5z" />
    <glyph glyph-name="Wcircumflex" unicode="&#x174;" horiz-adv-x="2195" 
d="M1286 1526l-184 123l-184 -123h-230l266 297h295l267 -297h-230zM1579 373l293 1061h295l-424 -1434h-344l-299 1063l-307 -1063h-347l-409 1434h295l295 -1051l301 1051h358z" />
    <glyph glyph-name="wcircumflex" unicode="&#x175;" horiz-adv-x="1822" 
d="M1128 1128l-215 144l-219 -144h-229l317 308h256l320 -308h-230zM1294 336l228 688h282l-372 -1024h-283l-238 688l-239 -688h-281l-373 1024h283l236 -676l227 676h293z" />
    <glyph glyph-name="Ycircumflex" unicode="&#x176;" horiz-adv-x="1497" 
d="M936 1526l-184 123l-185 -123h-229l266 297h295l266 -297h-229zM752 864l403 570h324l-588 -809v-625h-283v623l-590 811h326z" />
    <glyph glyph-name="ycircumflex" unicode="&#x177;" horiz-adv-x="1280" 
d="M434 1128h-229l317 308h256l320 -308h-230l-215 144zM543 -414h-465v234h360q46 0 64 18t18 64v174l-495 948h299l338 -655l315 655h299l-483 -946v-242q0 -131 -62 -190.5t-188 -59.5z" />
    <glyph glyph-name="Ydieresis" unicode="&#x178;" horiz-adv-x="1497" 
d="M379 1812h270v-245h-270v245zM854 1812h270v-245h-270v245zM752 864l403 570h324l-588 -809v-625h-283v623l-590 811h326z" />
    <glyph glyph-name="Zacute" unicode="&#x179;" horiz-adv-x="1480" 
d="M752 1823h321l-235 -297h-189zM1370 1184l-897 -934h918v-250h-1301v250l897 934h-876v250h1259v-250z" />
    <glyph glyph-name="zacute" unicode="&#x17a;" horiz-adv-x="1193" 
d="M627 1436h311l-246 -308h-198zM1083 799l-618 -559h649v-240h-1026v225l619 559h-609v240h985v-225z" />
    <glyph glyph-name="Zdotaccent" unicode="&#x17b;" horiz-adv-x="1480" 
d="M594 1839h293v-285h-293v285zM1370 1184l-897 -934h918v-250h-1301v250l897 934h-876v250h1259v-250z" />
    <glyph glyph-name="zdotaccent" unicode="&#x17c;" horiz-adv-x="1193" 
d="M444 1434h293v-285h-293v285zM1083 799l-618 -559h649v-240h-1026v225l619 559h-609v240h985v-225z" />
    <glyph glyph-name="Zcaron" unicode="&#x17d;" horiz-adv-x="1480" 
d="M1155 1823l-266 -297h-295l-266 297h229l184 -123l185 123h229zM1370 1184l-897 -934h918v-250h-1301v250l897 934h-876v250h1259v-250z" />
    <glyph glyph-name="zcaron" unicode="&#x17e;" horiz-adv-x="1193" 
d="M1038 1436l-319 -308h-256l-318 308h230l219 -144l215 144h229zM1083 799l-618 -559h649v-240h-1026v225l619 559h-609v240h985v-225z" />
    <glyph glyph-name="florin" unicode="&#x192;" horiz-adv-x="1040" 
d="M999 1194h-188q-81 0 -112.5 -30t-43.5 -109l-14 -97h301v-233h-338l-112 -745q-32 -208 -124.5 -299t-277.5 -91h-207v240h166q84 0 119 31t47 108l117 756h-223v233h260l12 86q33 210 120 300t267 90h231v-240z" />
    <glyph glyph-name="AEacute" unicode="&#x1fc;" horiz-adv-x="2394" 
d="M1511 1823h322l-236 -297h-188zM1440 614l51 -368h846v-246h-1084l-47 338h-700l-238 -338h-299l1012 1434h1233v-246h-852l45 -328h745v-246h-712zM1092 1167l-410 -579h489z" />
    <glyph glyph-name="aeacute" unicode="&#x1fd;" horiz-adv-x="2093" 
d="M1145 1128h-199l133 308h312zM504 -20q-202 0 -314 83.5t-112 219.5q0 85 32.5 149.5t91.5 104t134 61.5t168 27l348 24v25q0 73 -61.5 112t-172.5 39h-32q-84 0 -139 -31t-64 -87h-277q15 148 151 242.5t343 94.5q306 0 430 -170q83 83 198 126.5t240 43.5
q250 0 393.5 -138t143.5 -371v-109h-829q25 -111 103.5 -169t180.5 -58h29q86 0 145.5 32.5t81.5 92.5h277q-29 -158 -170 -251t-344 -93q-152 0 -275 49.5t-200 144.5q-147 -194 -500 -194zM1180 635h540q-6 98 -72 144t-167 46h-29q-107 0 -176 -49.5t-96 -140.5zM524 199
h29q75 0 140.5 19t112 63.5t46.5 107.5v64l-283 -21q-217 -16 -217 -123q0 -110 172 -110z" />
    <glyph glyph-name="Oslashacute" unicode="&#x1fe;" horiz-adv-x="1837" 
d="M930 1823h321l-235 -297h-189zM1575 1534l178 -184l-176 -172q154 -194 154 -461q0 -225 -106 -393.5t-289 -256t-416 -87.5q-262 0 -459 110l-197 -190l-178 184l176 172q-156 189 -156 461q0 224 107 393t290.5 256.5t416.5 87.5q259 0 458 -111zM391 717
q0 -148 72 -266l719 700q-112 53 -246 53h-33q-104 0 -196.5 -33t-163 -94t-111.5 -154t-41 -206zM1446 717q0 149 -72 264l-717 -698q114 -54 246 -54h33q140 0 254.5 56.5t185 169t70.5 262.5z" />
    <glyph glyph-name="oslashacute" unicode="&#x1ff;" horiz-adv-x="1380" 
d="M723 1436h311l-246 -308h-198zM1161 1098l148 -176l-113 -105q94 -126 94 -305q0 -241 -167 -386.5t-435 -145.5q-180 0 -321 69l-131 -123l-148 176l100 93q-102 133 -102 317q0 241 166.5 386.5t435.5 145.5q190 0 334 -75zM360 512q0 -72 25 -133l455 420
q-59 26 -138 26h-28q-138 0 -226 -84.5t-88 -228.5zM1016 512q0 66 -21 119l-444 -412q53 -20 123 -20h28q137 0 225.5 85t88.5 228z" />
    <glyph glyph-name="uni0218" unicode="&#x218;" horiz-adv-x="1505" 
d="M766 -20q-327 0 -510.5 127.5t-187.5 373.5h297q6 -124 107 -188t276 -64h32q166 0 246 44.5t80 119.5q0 70 -61.5 112.5t-200.5 65.5l-223 37q-250 42 -362 139t-112 283q0 85 36.5 160t108 134.5t191 94.5t273.5 35q295 0 468 -125t195 -346h-297q-15 105 -107 163
t-243 58h-33q-144 0 -225.5 -44t-81.5 -111q0 -73 53 -111t174 -59l230 -37q502 -82 502 -439q0 -204 -161.5 -313.5t-463.5 -109.5zM635 -633h-78v154h68q106 0 106 80v2h-123v270h287v-270q0 -103 -72.5 -169.5t-187.5 -66.5z" />
    <glyph glyph-name="uni0219" unicode="&#x219;" horiz-adv-x="1175" 
d="M582 -20q-239 0 -372 95.5t-142 262.5h276q6 -69 68 -104t155 -35h29q205 0 205 84q0 32 -32.5 52.5t-117.5 37.5l-170 33q-181 36 -272.5 109t-91.5 210q0 100 63 173.5t167 109.5t235 36q246 0 374 -94.5t140 -263.5h-277q-6 61 -64.5 100t-158.5 39h-29
q-84 0 -130 -22t-46 -58q0 -32 31 -51t121 -37l159 -30q182 -34 277.5 -111.5t95.5 -218.5q0 -146 -126.5 -231.5t-366.5 -85.5zM455 -633h-78v154h67q107 0 107 80v2h-123v270h287v-270q0 -103 -72.5 -169.5t-187.5 -66.5z" />
    <glyph glyph-name="uni021A" unicode="&#x21a;" horiz-adv-x="1519" 
d="M901 0h-283v1184h-577v250h1438v-250h-578v-1184zM643 -633h-78v154h68q106 0 106 80v2h-123v270h287v-270q0 -103 -72.5 -169.5t-187.5 -66.5z" />
    <glyph glyph-name="uni021B" unicode="&#x21b;" horiz-adv-x="964" 
d="M909 0h-370q-263 0 -263 225v580h-247v219h247v332h273v-332h315v-219h-315v-498q0 -46 18 -64t64 -18h278v-225zM387 -633h-78v154h68q106 0 106 80v2h-123v270h287v-270q0 -103 -72.5 -169.5t-187.5 -66.5z" />
    <glyph glyph-name="uni0226" unicode="&#x226;" horiz-adv-x="1656" 
d="M682 1839h293v-285h-293v285zM1655 0h-305l-154 336h-741l-154 -336h-299l670 1434h315zM825 1141l-256 -555h512z" />
    <glyph glyph-name="uni0227" unicode="&#x227;" horiz-adv-x="1251" 
d="M745 1149h-292v285h292v-285zM504 -20q-201 0 -313.5 84t-112.5 219q0 85 32.5 149.5t91.5 104t134 61.5t168 27l348 24v25q0 73 -61.5 112t-172.5 39h-32q-84 0 -139 -31t-64 -87h-277q15 148 151 242.5t343 94.5q246 0 380 -107t134 -282v-430q0 -99 14 -225h-251
q-15 76 -15 162q-38 -75 -134 -128.5t-224 -53.5zM524 199h29q75 0 140.5 19t112 63.5t46.5 107.5v64l-283 -21q-217 -16 -217 -123q0 -110 172 -110z" />
    <glyph glyph-name="uni0232" unicode="&#x232;" horiz-adv-x="1497" 
d="M387 1792h727v-225h-727v225zM752 864l403 570h324l-588 -809v-625h-283v623l-590 811h326z" />
    <glyph glyph-name="uni0233" unicode="&#x233;" horiz-adv-x="1280" 
d="M1014 1157h-727v215h727v-215zM543 -414h-465v234h360q46 0 64 18t18 64v174l-495 948h299l338 -655l315 655h299l-483 -946v-242q0 -131 -62 -190.5t-188 -59.5z" />
    <glyph glyph-name="uni0237" unicode="&#x237;" horiz-adv-x="583" 
d="M203 -410h-449v230h330q46 0 64 18t18 64v1122h272v-1198q0 -102 -65 -169t-170 -67z" />
    <glyph glyph-name="uni02BC" unicode="&#x2bc;" horiz-adv-x="634" 
d="M240 881h-125v157h114q123 0 123 129v21h-159v301h327v-332q0 -114 -74.5 -195t-205.5 -81z" />
    <glyph glyph-name="circumflex" unicode="&#x2c6;" horiz-adv-x="983" 
d="M274 1128h-229l317 308h256l320 -308h-229l-215 144z" />
    <glyph glyph-name="caron" unicode="&#x2c7;" horiz-adv-x="1015" 
d="M635 1128h-256l-318 308h230l219 -144l215 144h229z" />
    <glyph glyph-name="breve" unicode="&#x2d8;" horiz-adv-x="864" 
d="M432 1128q-170 0 -277 86.5t-110 233.5h229q9 -121 158 -121t158 121h229q-3 -147 -110 -233.5t-277 -86.5z" />
    <glyph glyph-name="dotaccent" unicode="&#x2d9;" horiz-adv-x="411" 
d="M352 1149h-293v285h293v-285z" />
    <glyph glyph-name="ring" unicode="&#x2da;" horiz-adv-x="647" 
d="M324 1128q-117 0 -191 66t-74 166q0 93 75 162t190 69t189.5 -69t74.5 -162q0 -100 -73.5 -166t-190.5 -66zM326 1272q44 0 74 26t30 62t-30 62t-74 26q-43 0 -75 -26.5t-32 -61.5t32 -61.5t75 -26.5z" />
    <glyph glyph-name="ogonek" unicode="&#x2db;" horiz-adv-x="507" 
d="M446 -451h-133q-108 0 -182 58.5t-74 146.5q0 53 21.5 100t58 80.5t71.5 56t75 40.5l133 -31q-35 -20 -57.5 -35t-53.5 -40t-47 -52.5t-16 -56.5q0 -50 34.5 -76.5t77.5 -26.5h92v-164z" />
    <glyph glyph-name="tilde" unicode="&#x2dc;" horiz-adv-x="958" 
d="M686 1128q-28 0 -61 7.5t-57 16t-72 26.5l-74 28q-13 5 -36.5 15t-38.5 14t-34 4q-33 0 -50 -26t-17 -64h-197v57q0 96 70 167t166 71q30 0 57 -4.5t42 -9.5t39.5 -15t35.5 -14l69 -27q12 -4 38.5 -16t46 -18.5t34.5 -6.5q33 0 49.5 25.5t16.5 64.5h196v-57
q0 -101 -58 -169.5t-165 -68.5z" />
    <glyph glyph-name="hungarumlaut" unicode="&#x2dd;" horiz-adv-x="976" 
d="M268 1128h-198l133 308h311zM659 1128h-198l133 308h311z" />
    <glyph glyph-name="uni0394" unicode="&#x394;" horiz-adv-x="1644" 
d="M670 1434h305l624 -1250v-184h-1554v184zM1294 240l-471 929l-473 -929h944z" />
    <glyph glyph-name="uni03A9" unicode="&#x3a9;" horiz-adv-x="1873" 
d="M774 0h-635v240h252q-124 92 -193 217t-69 301q0 202 105.5 361.5t290 247t413.5 87.5t413.5 -87.5t290 -247t105.5 -361.5q0 -178 -71 -302t-201 -216h262v-240h-635v240q166 41 265 168t99 317q0 225 -139 352t-379 127h-20q-240 0 -379 -127t-139 -352
q0 -189 100 -316.5t264 -168.5v-240z" />
    <glyph glyph-name="uni03BC" unicode="&#x3bc;" horiz-adv-x="1345" 
d="M412 -410h-267v1434h267v-588q0 -122 64 -181.5t159 -59.5h16q144 0 213.5 77.5t69.5 219.5v532h266v-1024h-266v137q-122 -157 -350 -157q-92 0 -172 22v-412z" />
    <glyph glyph-name="pi" unicode="&#x3c0;" horiz-adv-x="1677" 
d="M571 0h-272v805h-266v219h1548v-219h-268v-504q0 -46 18 -64t64 -18h186v-219h-283q-113 0 -185.5 56t-72.5 159v590h-469v-805z" />
    <glyph glyph-name="Wgrave" unicode="&#x1e80;" horiz-adv-x="2195" 
d="M1096 1823l102 -297h-188l-236 297h322zM1579 373l293 1061h295l-424 -1434h-344l-299 1063l-307 -1063h-347l-409 1434h295l295 -1051l301 1051h358z" />
    <glyph glyph-name="wgrave" unicode="&#x1e81;" horiz-adv-x="1822" 
d="M883 1436l133 -308h-199l-246 308h312zM1294 336l228 688h282l-372 -1024h-283l-238 688l-239 -688h-281l-373 1024h283l236 -676l227 676h293z" />
    <glyph glyph-name="Wacute" unicode="&#x1e82;" horiz-adv-x="2195" 
d="M1112 1823h322l-236 -297h-188zM1579 373l293 1061h295l-424 -1434h-344l-299 1063l-307 -1063h-347l-409 1434h295l295 -1051l301 1051h358z" />
    <glyph glyph-name="wacute" unicode="&#x1e83;" horiz-adv-x="1822" 
d="M946 1436h311l-245 -308h-199zM1294 336l228 688h282l-372 -1024h-283l-238 688l-239 -688h-281l-373 1024h283l236 -676l227 676h293z" />
    <glyph glyph-name="Wdieresis" unicode="&#x1e84;" horiz-adv-x="2195" 
d="M729 1812h270v-245h-270v245zM1204 1812h271v-245h-271v245zM1579 373l293 1061h295l-424 -1434h-344l-299 1063l-307 -1063h-347l-409 1434h295l295 -1051l301 1051h358z" />
    <glyph glyph-name="wdieresis" unicode="&#x1e85;" horiz-adv-x="1822" 
d="M543 1423h270v-268h-270v268zM1008 1423h270v-268h-270v268zM1294 336l228 688h282l-372 -1024h-283l-238 688l-239 -688h-281l-373 1024h283l236 -676l227 676h293z" />
    <glyph glyph-name="uni1E9E" unicode="&#x1e9e;" horiz-adv-x="1576" 
d="M1210 750q117 -24 196 -121t79 -228q0 -96 -36 -173.5t-99.5 -126.5t-147 -75t-180.5 -26h-381v250h340q102 0 160.5 45.5t58.5 126.5q0 87 -58 133.5t-161 46.5h-340v250h268q94 0 146.5 43t52.5 127q0 72 -54 117t-145 45h-444v-1184h-283v1434h758q197 0 325 -103
t128 -276q0 -102 -51 -181.5t-132 -123.5z" />
    <glyph glyph-name="Ygrave" unicode="&#x1ef2;" horiz-adv-x="1497" 
d="M745 1823l103 -297h-189l-235 297h321zM752 864l403 570h324l-588 -809v-625h-283v623l-590 811h326z" />
    <glyph glyph-name="ygrave" unicode="&#x1ef3;" horiz-adv-x="1280" 
d="M756 1128h-199l-246 308h312zM543 -414h-465v234h360q46 0 64 18t18 64v174l-495 948h299l338 -655l315 655h299l-483 -946v-242q0 -131 -62 -190.5t-188 -59.5z" />
    <glyph glyph-name="uni2002" unicode="&#x2002;" horiz-adv-x="1024" 
 />
    <glyph glyph-name="uni2003" unicode="&#x2003;" horiz-adv-x="2048" 
 />
    <glyph glyph-name="uni2009" unicode="&#x2009;" horiz-adv-x="256" 
 />
    <glyph glyph-name="uni200A" unicode="&#x200a;" horiz-adv-x="153" 
 />
    <glyph glyph-name="endash" unicode="&#x2013;" horiz-adv-x="1400" 
d="M1264 508h-1127v223h1127v-223z" />
    <glyph glyph-name="emdash" unicode="&#x2014;" horiz-adv-x="2179" 
d="M2042 508h-1905v223h1905v-223z" />
    <glyph glyph-name="uni2015" unicode="&#x2015;" horiz-adv-x="2179" 
d="M2042 508h-1905v223h1905v-223z" />
    <glyph glyph-name="quoteleft" unicode="&#x2018;" horiz-adv-x="641" 
d="M416 1454h125v-158h-115q-123 0 -123 -129v-20h160v-301h-328v332q0 114 74.5 195t206.5 81z" />
    <glyph glyph-name="quoteright" unicode="&#x2019;" horiz-adv-x="634" 
d="M240 881h-125v157h114q123 0 123 129v21h-159v301h327v-332q0 -114 -74.5 -195t-205.5 -81z" />
    <glyph glyph-name="quotesinglbase" unicode="&#x201a;" horiz-adv-x="618" 
d="M195 -307h-125v157h114q123 0 123 130v20h-160v301h328v-332q0 -114 -74.5 -195t-205.5 -81z" />
    <glyph glyph-name="quotedblleft" unicode="&#x201c;" horiz-adv-x="1153" 
d="M416 1454h125v-158h-115q-123 0 -123 -129v-20h160v-301h-328v332q0 114 74.5 195t206.5 81zM928 1454h125v-158h-115q-123 0 -123 -129v-20h160v-301h-328v332q0 114 74.5 195t206.5 81z" />
    <glyph glyph-name="quotedblright" unicode="&#x201d;" horiz-adv-x="1146" 
d="M240 881h-125v157h114q123 0 123 129v21h-159v301h327v-332q0 -114 -74.5 -195t-205.5 -81zM752 881h-125v157h114q123 0 123 129v21h-159v301h327v-332q0 -114 -74.5 -195t-205.5 -81z" />
    <glyph glyph-name="quotedblbase" unicode="&#x201e;" horiz-adv-x="1130" 
d="M195 -307h-125v157h114q123 0 123 130v20h-160v301h328v-332q0 -114 -74.5 -195t-205.5 -81zM707 -307h-125v157h114q123 0 123 130v20h-160v301h328v-332q0 -114 -74.5 -195t-205.5 -81z" />
    <glyph glyph-name="dagger" unicode="&#x2020;" horiz-adv-x="1282" 
d="M774 -174h-266v1106h-399v225h399v451h266v-451h400v-225h-400v-1106z" />
    <glyph glyph-name="daggerdbl" unicode="&#x2021;" horiz-adv-x="1282" 
d="M776 -174h-270v450h-400v226h400v430h-400v225h400v451h270v-451h400v-225h-400v-430h400v-226h-400v-450z" />
    <glyph glyph-name="bullet" unicode="&#x2022;" horiz-adv-x="1196" 
d="M598 297q-188 0 -314 122.5t-126 297.5t126 297.5t314 122.5t314 -122.5t126 -297.5t-126 -297.5t-314 -122.5z" />
    <glyph glyph-name="ellipsis" unicode="&#x2026;" horiz-adv-x="1855" 
d="M467 0h-328v301h328v-301zM1092 0h-328v301h328v-301zM1716 0h-327v301h327v-301z" />
    <glyph glyph-name="perthousand" unicode="&#x2030;" horiz-adv-x="2611" 
d="M848 1028q0 -81 -22.5 -153t-67.5 -131.5t-121.5 -94.5t-175.5 -35t-175.5 35t-121.5 94.5t-67.5 131.5t-22.5 153t22.5 153.5t67.5 132.5t121.5 95t175.5 35t175.5 -35t121.5 -95t67.5 -132.5t22.5 -153.5zM391 0l1024 1434h260l-1024 -1434h-260zM295 1028
q0 -108 41.5 -166.5t120.5 -58.5h8q79 0 120.5 58.5t41.5 166.5t-41.5 167.5t-120.5 59.5h-8q-79 0 -120.5 -59.5t-41.5 -167.5zM2150 819q99 0 175.5 -35t121.5 -95t67.5 -132.5t22.5 -153.5q0 -64 -13.5 -123t-44 -112.5t-74.5 -92.5t-109.5 -62t-145.5 -23
q-178 0 -276 106q-98 -106 -277 -106q-80 0 -145.5 23t-109.5 62t-74.5 92.5t-44 112.5t-13.5 123q0 81 22.5 153.5t67.5 132.5t121.5 95t175.5 35q179 0 277 -106q98 106 276 106zM1593 178h9q79 0 120 58.5t41 166.5q0 109 -41 168.5t-120 59.5h-9q-79 0 -120 -59.5
t-41 -168.5q0 -108 41 -166.5t120 -58.5zM2146 178h8q79 0 120.5 58.5t41.5 166.5t-41.5 168t-120.5 60h-8q-79 0 -120 -59.5t-41 -168.5q0 -108 41 -166.5t120 -58.5z" />
    <glyph glyph-name="guilsinglleft" unicode="&#x2039;" horiz-adv-x="794" 
d="M713 1024l-328 -438l332 -443h-309l-338 441l338 440h305z" />
    <glyph glyph-name="guilsinglright" unicode="&#x203a;" horiz-adv-x="794" 
d="M82 1024h305l338 -440l-338 -441h-309l332 443z" />
    <glyph glyph-name="fraction" unicode="&#x2044;" horiz-adv-x="380" 
d="M-178 0h-211l948 1434h211z" />
    <glyph glyph-name="uni2070" unicode="&#x2070;" horiz-adv-x="929" 
d="M465 840q-80 0 -145.5 23t-109.5 62t-74.5 92.5t-44 112.5t-13.5 123q0 81 22.5 153.5t67.5 132.5t121.5 95t175.5 35t175.5 -35t121.5 -95t67.5 -132.5t22.5 -153.5q0 -64 -13.5 -123t-44 -112.5t-74.5 -92.5t-109.5 -62t-145.5 -23zM461 1028h8q79 0 120.5 58.5
t41.5 166.5t-41.5 168t-120.5 60h-8q-79 0 -120.5 -60t-41.5 -168t41.5 -166.5t120.5 -58.5z" />
    <glyph glyph-name="uni2074" unicode="&#x2074;" horiz-adv-x="897" 
d="M702 850h-198v127h-443v223l398 459h243v-510h129v-172h-129v-127zM504 1430l-256 -281h256v281z" />
    <glyph glyph-name="uni2075" unicode="&#x2075;" horiz-adv-x="851" 
d="M410 840q-143 0 -241 70t-108 186h230q11 -32 46 -54t79 -22h8q56 0 91.5 28.5t35.5 69.5q0 42 -33.5 68t-89.5 26h-8q-82 0 -109 -34h-221l90 481h578v-180h-418l-29 -138q35 25 72.5 36.5t97.5 11.5q114 0 200.5 -70t86.5 -191q0 -133 -98 -210.5t-260 -77.5z" />
    <glyph glyph-name="uni2076" unicode="&#x2076;" horiz-adv-x="880" 
d="M449 840q-169 0 -270 101.5t-101 272.5q0 209 110 332t289 123q147 0 231 -67.5t95 -176.5h-213q-10 28 -38.5 46t-72.5 18h-12q-73 0 -124 -57t-60 -138q76 82 211 82q127 0 212 -71.5t85 -182.5q0 -124 -95 -203t-247 -79zM438 1020h8q55 0 91 27t36 67
q0 39 -35.5 63.5t-91.5 24.5h-8q-52 0 -89.5 -26t-37.5 -64q0 -40 36 -66t91 -26z" />
    <glyph glyph-name="uni2077" unicode="&#x2077;" horiz-adv-x="763" 
d="M418 850h-232v27q0 188 62.5 318.5t232.5 279.5h-430v184h674v-160q-177 -146 -242 -281.5t-65 -330.5v-37z" />
    <glyph glyph-name="uni2078" unicode="&#x2078;" horiz-adv-x="858" 
d="M430 840q-148 0 -242 62t-94 159q0 67 42.5 116.5t119.5 69.5q-174 54 -174 201q0 96 101.5 158.5t246.5 62.5t245.5 -62t100.5 -159q0 -148 -176 -201q78 -20 120 -69.5t42 -116.5q0 -97 -92.5 -159t-239.5 -62zM424 1337h10q56 0 90.5 20t34.5 56t-34.5 56t-90.5 20
h-10q-58 0 -91.5 -20t-33.5 -56t33.5 -56t91.5 -20zM424 1020h10q50 0 80.5 20t30.5 52t-31 52.5t-80 20.5h-10q-52 0 -82.5 -20t-30.5 -53t30.5 -52.5t82.5 -19.5z" />
    <glyph glyph-name="uni2079" unicode="&#x2079;" horiz-adv-x="878" 
d="M401 842q-147 0 -230.5 67t-94.5 176h213q10 -28 38 -45.5t72 -17.5h13q73 0 124 57t60 138q-76 -82 -211 -82q-127 0 -212 71.5t-85 182.5q0 124 95 203t247 79q169 0 270 -102t101 -273q0 -208 -110.5 -331t-289.5 -123zM432 1309h8q52 0 89.5 26t37.5 64q0 40 -36 66
t-91 26h-8q-55 0 -91 -27t-36 -67q0 -39 35.5 -63.5t91.5 -24.5z" />
    <glyph glyph-name="uni20A9" unicode="&#x20a9;" horiz-adv-x="2195" 
d="M1872 1434h295l-187 -629h174v-205h-233l-178 -600h-344l-168 600h-264l-174 -600h-347l-172 600h-231v205h174l-180 629h295l176 -629h240l180 629h358l174 -629h238zM1100 1063l-74 -258h148zM565 600l62 -217l61 217h-123zM1516 600l63 -227l61 227h-124z" />
    <glyph glyph-name="Euro" unicode="&#x20ac;" horiz-adv-x="1671" 
d="M942 219h21q141 0 222.5 59.5t96.5 172.5h283q-25 -221 -187 -346t-424 -125q-207 0 -359.5 89.5t-232.5 256.5l-262 -52v230l197 37q-11 58 -14 135l-183 -35v229l199 37q47 258 220 402.5t435 144.5t424 -125t187 -346h-283q-15 113 -96.5 172t-222.5 59h-21
q-122 0 -210.5 -65t-133.5 -186l401 75v-225l-440 -84v-12q0 -73 8 -125l346 65v-225l-270 -53q104 -160 299 -160z" />
    <glyph glyph-name="uni20BF" unicode="&#x20bf;" horiz-adv-x="1593" 
d="M1485 389q0 -156 -109 -260t-278 -125v-250h-209v246h-246v-246h-209v246h-252v1434h252v245h209v-245h246v245h209v-254q158 -25 255 -123t97 -247q0 -117 -64.5 -203.5t-162.5 -122.5q115 -26 188.5 -115.5t73.5 -224.5zM1165 1024q0 72 -53 116t-145 44h-502v-332h502
q95 0 146.5 43.5t51.5 128.5zM465 250h516q101 0 160 48t59 130q0 86 -57.5 130t-161.5 44h-516v-352z" />
    <glyph glyph-name="uni2105" unicode="&#x2105;" horiz-adv-x="1718" 
d="M403 840q-156 0 -252 77t-96 224t96 225t252 78q77 0 136 -19.5t94.5 -54t55 -73.5t26.5 -85h-207q-24 68 -111 68h-8q-66 0 -95.5 -39t-29.5 -100q0 -60 29.5 -98.5t95.5 -38.5h8q89 0 111 61h207q-8 -45 -28 -83t-55 -71t-93.5 -52t-135.5 -19zM487 0h-211l949 1434
h211zM1319 -10q-158 0 -252 85t-94 216t94 217t252 86t252 -86t94 -217t-94 -216t-252 -85zM1315 154h8q62 0 97.5 36t35.5 101q0 66 -35.5 102.5t-97.5 36.5h-8q-62 0 -97.5 -36.5t-35.5 -102.5q0 -65 35.5 -101t97.5 -36z" />
    <glyph glyph-name="uni2113" unicode="&#x2113;" horiz-adv-x="1052" 
d="M520 514v-197q0 -46 17 -63.5t63 -17.5h268v-236h-399q-219 0 -219 215v137l-154 -92v277l154 90v477q0 168 99.5 259t281.5 91q100 0 174 -31t115.5 -85t61 -118.5t19.5 -140.5q0 -275 -321 -469zM618 1219q-46 0 -72 -28t-26 -73v-332q118 74 163.5 139.5t45.5 147.5
q0 69 -30 107.5t-81 38.5z" />
    <glyph glyph-name="uni2116" unicode="&#x2116;" horiz-adv-x="2498" 
d="M2050 840q-158 0 -252 85t-94 216t94 217t252 86t252 -86t94 -217t-94 -216t-252 -85zM551 1434l733 -1053v1053h283v-1434h-348l-746 1071v-1071h-283v1434h361zM2054 1280h-8q-62 0 -97.5 -36.5t-35.5 -102.5q0 -65 35.5 -101t97.5 -36h8q62 0 97.5 36t35.5 101
q0 66 -35.5 102.5t-97.5 36.5zM2386 553h-670v164h670v-164z" />
    <glyph glyph-name="uni2117" unicode="&#x2117;" horiz-adv-x="2140" 
d="M1071 -80q-274 0 -496.5 103t-349.5 286t-127 410t127 410t349.5 286t496.5 103t496 -103t348.5 -286t126.5 -410t-126.5 -410t-348.5 -286t-496 -103zM1071 98q213 0 392 79.5t284.5 222.5t105.5 319t-105.5 319t-284.5 222t-392 79q-214 0 -393.5 -79t-285 -222
t-105.5 -319t105.5 -319t285 -222.5t393.5 -79.5zM985 338h-215v780h404q128 0 207 -75t79 -189t-78.5 -186t-207.5 -72h-189v-258zM985 936v-164h176q35 0 59.5 22.5t24.5 59.5t-26 59.5t-62 22.5h-172z" />
    <glyph glyph-name="trademark" unicode="&#x2122;" horiz-adv-x="2322" 
d="M397 1229h-317v205h870v-205h-317v-574h-236v574zM1624 991l223 443h312v-779h-232v465l-237 -465h-131l-246 478v-478h-232v779h312z" />
    <glyph glyph-name="uni2126" unicode="&#x2126;" horiz-adv-x="1867" 
d="M770 0h-635v240h252q-124 92 -193 217t-69 301q0 202 105.5 361.5t290 247t413.5 87.5t413.5 -87.5t290 -247t105.5 -361.5q0 -178 -71 -302t-202 -216h263v-240h-635v240q166 41 265 168t99 317q0 225 -139 352t-379 127h-20q-240 0 -379 -127t-139 -352
q0 -189 100 -316.5t264 -168.5v-240z" />
    <glyph glyph-name="uni2153" unicode="&#x2153;" horiz-adv-x="1953" 
d="M559 625h-215v551l-285 -183v230l318 211h182v-809zM508 0h-211l948 1434h211zM1477 -10q-144 0 -242 63.5t-98 175.5h221q1 -27 36.5 -44t80.5 -17h10q56 0 88.5 22t32.5 58q0 35 -32 54.5t-87 19.5h-107v172h107q55 0 83.5 19.5t28.5 53.5q0 33 -27.5 53.5t-80.5 20.5
h-10q-42 0 -73 -16.5t-36 -40.5h-221q0 111 97 173t239 62q138 0 236 -62t98 -169q0 -134 -129 -178q135 -51 135 -191q0 -74 -51 -127t-129 -77.5t-170 -24.5z" />
    <glyph glyph-name="uni2154" unicode="&#x2154;" horiz-adv-x="2074" 
d="M752 625h-668v172l342 274q62 49 78 71q18 24 18 48q0 32 -28.5 53t-77.5 21h-8q-45 0 -76 -26t-33 -62h-219q7 122 104.5 195t245.5 73q75 0 138 -22t102.5 -56.5t61.5 -75.5t22 -82q0 -73 -41.5 -128t-132.5 -128l-185 -145l357 2v-184zM666 0h-211l948 1434h211z
M1634 -10q-144 0 -242 63.5t-98 175.5h222q1 -27 36 -44t80 -17h10q56 0 88.5 22t32.5 58q0 35 -31.5 54.5t-86.5 19.5h-107v172h107q55 0 83.5 19.5t28.5 53.5q0 33 -27.5 53.5t-80.5 20.5h-11q-42 0 -72.5 -16.5t-35.5 -40.5h-221q0 111 97 173t239 62q89 0 163.5 -26
t122 -79.5t47.5 -125.5q0 -134 -129 -178q136 -51 136 -191q0 -74 -51.5 -127t-129.5 -77.5t-170 -24.5z" />
    <glyph glyph-name="uni2155" unicode="&#x2155;" horiz-adv-x="1961" 
d="M559 625h-215v551l-285 -183v230l318 211h182v-809zM508 0h-211l948 1434h211zM1477 -10q-143 0 -241 70t-108 186h230q11 -32 46 -54t79 -22h8q56 0 91.5 28.5t35.5 69.5q0 42 -33.5 68t-89.5 26h-8q-82 0 -109 -34h-221l90 481h578v-180h-418l-29 -137q65 47 170 47
q114 0 200.5 -69.5t86.5 -190.5q0 -133 -98 -211t-260 -78z" />
    <glyph glyph-name="uni2156" unicode="&#x2156;" horiz-adv-x="2082" 
d="M752 625h-668v172l342 274q62 49 78 71q18 24 18 48q0 32 -28.5 53t-77.5 21h-8q-45 0 -76 -26t-33 -62h-219q7 122 104.5 195t245.5 73q75 0 138 -22t102.5 -56.5t61.5 -75.5t22 -82q0 -73 -41.5 -128t-132.5 -128l-185 -145l357 2v-184zM666 0h-211l948 1434h211z
M1634 -10q-143 0 -240.5 70t-107.5 186h230q11 -32 45.5 -54t78.5 -22h9q56 0 91.5 28.5t35.5 69.5q0 42 -33.5 68t-89.5 26h-8q-82 0 -109 -34h-221l90 481h577v-180h-417l-29 -137q65 47 170 47q114 0 200.5 -69.5t86.5 -190.5q0 -133 -98.5 -211t-260.5 -78z" />
    <glyph glyph-name="uni2157" unicode="&#x2157;" horiz-adv-x="2080" 
d="M410 614q-144 0 -242 64t-98 176h221q1 -27 36.5 -44t80.5 -17h10q56 0 88.5 21.5t32.5 57.5q0 35 -32 54.5t-87 19.5h-107v172h107q54 0 83 20t29 54q0 33 -27.5 53.5t-80.5 20.5h-10q-42 0 -73 -17t-36 -41h-221q0 111 97 173.5t239 62.5q89 0 164 -26t122.5 -80
t47.5 -126q0 -134 -129 -178q135 -51 135 -190q0 -109 -103 -169.5t-247 -60.5zM668 0h-211l948 1434h211zM1636 -10q-143 0 -240.5 70t-107.5 186h230q11 -32 45.5 -54t78.5 -22h9q56 0 91.5 28.5t35.5 69.5q0 42 -33.5 68t-89.5 26h-8q-82 0 -109 -34h-221l90 481h578
v-180h-418l-29 -137q65 47 170 47q114 0 200.5 -69.5t86.5 -190.5q0 -133 -98.5 -211t-260.5 -78z" />
    <glyph glyph-name="uni2158" unicode="&#x2158;" horiz-adv-x="2113" 
d="M700 625h-198v127h-443v223l398 459h243v-510h129v-172h-129v-127zM719 0h-211l948 1434h211zM502 1204l-256 -280h256v280zM1688 -10q-143 0 -241 70t-108 186h230q11 -32 46 -54t79 -22h8q56 0 91.5 28.5t35.5 69.5q0 42 -33.5 68t-89.5 26h-8q-82 0 -109 -34h-221
l90 481h578v-180h-418l-29 -137q65 47 170 47q114 0 200.5 -69.5t86.5 -190.5q0 -133 -98 -211t-260 -78z" />
    <glyph glyph-name="uni2159" unicode="&#x2159;" horiz-adv-x="1964" 
d="M559 625h-215v551l-285 -183v230l318 211h182v-809zM508 0h-211l948 1434h211zM1483 -10q-169 0 -270 102t-101 273q0 209 110 331.5t289 122.5q147 0 231 -67.5t95 -176.5h-213q-10 28 -38.5 46t-72.5 18h-12q-73 0 -124 -57t-60 -138q76 82 211 82q127 0 212 -71.5
t85 -182.5q0 -124 -95 -203t-247 -79zM1473 170h8q55 0 91 27t36 67q0 39 -35.5 63.5t-91.5 24.5h-8q-52 0 -89.5 -26t-37.5 -64q0 -40 36 -66t91 -26z" />
    <glyph glyph-name="uni215A" unicode="&#x215a;" horiz-adv-x="2088" 
d="M408 614q-143 0 -241 70t-108 186h230q11 -32 45.5 -53.5t79.5 -21.5h8q56 0 91.5 28.5t35.5 69.5q0 42 -33.5 68t-89.5 26h-8q-33 0 -64.5 -9.5t-44.5 -25.5h-221l90 482h578v-181h-418l-29 -137q65 47 170 47q114 0 200.5 -69.5t86.5 -190.5q0 -133 -98 -211t-260 -78z
M674 0h-211l948 1434h211zM1649 -10q-169 0 -270 102t-101 273q0 209 110 331.5t289 122.5q147 0 231 -67.5t95 -176.5h-213q-10 28 -38.5 46t-72.5 18h-12q-73 0 -124 -57t-60 -138q76 82 211 82q127 0 212 -71.5t85 -182.5q0 -124 -95 -203t-247 -79zM1638 170h9
q55 0 91 27t36 67q0 39 -35.5 63.5t-91.5 24.5h-9q-52 0 -89.5 -26t-37.5 -64q0 -40 36 -66t91 -26z" />
    <glyph glyph-name="oneeighth" unicode="&#x215b;" horiz-adv-x="1970" 
d="M559 625h-215v551l-285 -183v230l318 211h182v-809zM508 0h-211l948 1434h211zM1497 -10q-148 0 -242 62t-94 159q0 67 42.5 116.5t119.5 69.5q-174 54 -174 201q0 96 101.5 158.5t246.5 62.5t245.5 -62t100.5 -159q0 -148 -176 -201q78 -20 120 -69.5t42 -116.5
q0 -97 -92.5 -159t-239.5 -62zM1491 487h10q56 0 90.5 20t34.5 56t-34.5 56t-90.5 20h-10q-58 0 -91.5 -20t-33.5 -56t33.5 -56t91.5 -20zM1491 170h10q50 0 80.5 20t30.5 52t-31 52.5t-80 20.5h-10q-52 0 -82.5 -20t-30.5 -53t30.5 -52.5t82.5 -19.5z" />
    <glyph glyph-name="threeeighths" unicode="&#x215c;" horiz-adv-x="2088" 
d="M410 614q-144 0 -242 64t-98 176h221q1 -27 36.5 -44t80.5 -17h10q56 0 88.5 21.5t32.5 57.5q0 35 -32 54.5t-87 19.5h-107v172h107q54 0 83 20t29 54q0 33 -27.5 53.5t-80.5 20.5h-10q-42 0 -73 -17t-36 -41h-221q0 111 97 173.5t239 62.5q89 0 164 -26t122.5 -80
t47.5 -126q0 -134 -129 -178q135 -51 135 -190q0 -109 -103 -169.5t-247 -60.5zM668 0h-211l948 1434h211zM1657 -10q-148 0 -242 62t-94 159q0 67 42.5 116.5t119.5 69.5q-174 54 -174 201q0 96 101.5 158.5t246.5 62.5t245.5 -62t100.5 -159q0 -148 -176 -201
q78 -20 120 -69.5t42 -116.5q0 -97 -92.5 -159t-239.5 -62zM1651 487h10q56 0 90.5 20t34.5 56t-34.5 56t-90.5 20h-10q-58 0 -91.5 -20t-33.5 -56t33.5 -56t91.5 -20zM1651 170h10q50 0 80.5 20t30.5 52t-31 52.5t-80 20.5h-10q-52 0 -82.5 -20t-30.5 -53t30.5 -52.5
t82.5 -19.5z" />
    <glyph glyph-name="fiveeighths" unicode="&#x215d;" horiz-adv-x="2095" 
d="M408 614q-143 0 -241 70t-108 186h230q11 -32 45.5 -53.5t79.5 -21.5h8q56 0 91.5 28.5t35.5 69.5q0 42 -33.5 68t-89.5 26h-8q-33 0 -64.5 -9.5t-44.5 -25.5h-221l90 482h578v-181h-418l-29 -137q65 47 170 47q114 0 200.5 -69.5t86.5 -190.5q0 -133 -98 -211t-260 -78z
M674 0h-211l948 1434h211zM1663 -10q-148 0 -242 62t-94 159q0 67 42.5 116.5t119.5 69.5q-174 54 -174 201q0 96 101.5 158.5t246.5 62.5t245.5 -62t100.5 -159q0 -148 -176 -201q78 -20 120 -69.5t42 -116.5q0 -97 -92.5 -159t-239.5 -62zM1657 487h10q56 0 90.5 20
t34.5 56t-34.5 56t-90.5 20h-10q-58 0 -91.5 -20t-33.5 -56t33.5 -56t91.5 -20zM1657 170h10q50 0 80.5 20t30.5 52t-31 52.5t-80 20.5h-10q-52 0 -82.5 -20t-30.5 -53t30.5 -52.5t82.5 -19.5z" />
    <glyph glyph-name="seveneighths" unicode="&#x215e;" horiz-adv-x="1863" 
d="M416 625h-232v26q0 188 62.5 318.5t232.5 279.5h-430v185h674v-160q-177 -146 -242 -281.5t-65 -330.5v-37zM487 0h-211l949 1434h211zM1477 -10q-148 0 -242 62t-94 159q0 67 42.5 116.5t119.5 69.5q-175 54 -175 201q0 96 102 158.5t247 62.5t245.5 -62t100.5 -159
q0 -148 -176 -201q78 -20 119.5 -69.5t41.5 -116.5q0 -97 -92 -159t-239 -62zM1470 487h11q56 0 90.5 20t34.5 56t-34.5 56t-90.5 20h-11q-58 0 -91 -20t-33 -56t33 -56t91 -20zM1470 170h11q49 0 79.5 20t30.5 52t-30.5 52.5t-79.5 20.5h-11q-52 0 -82 -20t-30 -53
t30 -52.5t82 -19.5z" />
    <glyph glyph-name="uni215F" unicode="&#x215f;" horiz-adv-x="1067" 
d="M559 625h-215v551l-285 -183v230l318 211h182v-809zM508 0h-211l948 1434h211z" />
    <glyph glyph-name="uni2160" unicode="&#x2160;" horiz-adv-x="1169" 
d="M1061 0h-952v215h342v1004h-342v215h952v-215h-344v-1004h344v-215z" />
    <glyph glyph-name="uni2161" unicode="&#x2161;" horiz-adv-x="1875" 
d="M1767 0h-1658v215h342v1004h-342v215h1658v-215h-344v-1004h344v-215zM717 1219v-1004h440v1004h-440z" />
    <glyph glyph-name="uni2162" unicode="&#x2162;" horiz-adv-x="2582" 
d="M2474 0h-2365v215h342v1004h-342v215h2365v-215h-344v-1004h344v-215zM717 1219v-1004h440v1004h-440zM1423 1219v-1004h441v1004h-441z" />
    <glyph glyph-name="uni2163" unicode="&#x2163;" horiz-adv-x="2625" 
d="M2226 0h-2109v215h342v1004h-342v215h1382v-215h-235l385 -1008l391 1008h-244v215h758v-215h-256l-391 -1004h319v-215zM725 1219v-1004h659l-387 1004h-272z" />
    <glyph glyph-name="uni2164" unicode="&#x2164;" horiz-adv-x="1953" 
d="M1554 0h-1177v215h336l-387 1004h-256v215h757v-215h-235l385 -1008l391 1008h-244v215h758v-215h-256l-391 -1004h319v-215z" />
    <glyph glyph-name="uni2165" unicode="&#x2165;" horiz-adv-x="2621" 
d="M2505 0h-2128v215h336l-387 1004h-256v215h757v-215h-235l385 -1008l391 1008h-244v215h1381v-215h-344v-1004h344v-215zM1626 1219l-391 -1004h659v1004h-268z" />
    <glyph glyph-name="uni2166" unicode="&#x2166;" horiz-adv-x="3328" 
d="M3211 0h-2834v215h336l-387 1004h-256v215h757v-215h-235l385 -1008l391 1008h-244v215h2087v-215h-344v-1004h344v-215zM1626 1219l-391 -1004h659v1004h-268zM2161 1219v-1004h440v1004h-440z" />
    <glyph glyph-name="uni2167" unicode="&#x2167;" horiz-adv-x="4034" 
d="M3918 0h-3541v215h336l-387 1004h-256v215h757v-215h-235l385 -1008l391 1008h-244v215h2794v-215h-344v-1004h344v-215zM1626 1219l-391 -1004h659v1004h-268zM2161 1219v-1004h440v1004h-440zM2867 1219v-1004h441v1004h-441z" />
    <glyph glyph-name="uni2168" unicode="&#x2168;" horiz-adv-x="2500" 
d="M2400 0h-2291v215h342v1004h-342v215h2271v-215h-273l-397 -494l412 -510h278v-215zM717 1219v-1004h268l408 504l-404 500h-272zM1313 1219l239 -299l242 299h-481zM1548 524l-250 -309h500z" />
    <glyph glyph-name="uni2169" unicode="&#x2169;" horiz-adv-x="1902" 
d="M1802 0h-1702v215h287l408 504l-404 500h-270v215h1661v-215h-273l-397 -494l412 -510h278v-215zM715 1219l241 -299l240 299h-481zM950 524l-250 -309h500z" />
    <glyph glyph-name="uni216C" unicode="&#x216c;" horiz-adv-x="1705" 
d="M1624 0h-1515v215h323v1004h-323v215h911v-215h-322v-1004h660v338h266v-553z" />
    <glyph glyph-name="uni216D" unicode="&#x216d;" horiz-adv-x="1771" 
d="M846 -20q-215 0 -382 87t-262.5 255.5t-95.5 394.5q0 169 60.5 309t164.5 233t244.5 144t301.5 51q302 0 485 -147v127h266v-471h-254q-30 88 -106.5 152t-165.5 92t-180 28h-21q-244 0 -384 -135.5t-140 -374.5q0 -251 136.5 -388.5t383.5 -137.5h21q145 0 265 69.5
t181 202.5h254v-471h-266v139q-89 -78 -233.5 -118.5t-272.5 -40.5z" />
    <glyph glyph-name="uni216E" unicode="&#x216e;" horiz-adv-x="1904" 
d="M975 0h-866v215h321v1004h-321v215h866q178 0 329.5 -49t261 -139.5t171 -224.5t61.5 -298q0 -224 -106.5 -389t-292 -249.5t-424.5 -84.5zM696 1219v-1004h258q282 0 429 123.5t147 386.5q0 494 -576 494h-258z" />
    <glyph glyph-name="uni216F" unicode="&#x216f;" horiz-adv-x="2605" 
d="M860 0h-751v215h321v1004h-321v215h749l455 -1123l446 1123h738v-215h-322v-1004h322v-215h-750v215h166v950l-471 -1165h-271l-479 1165v-950h168v-215z" />
    <glyph glyph-name="arrowleft" unicode="&#x2190;" horiz-adv-x="1939" 
d="M856 264l-178 -180l-637 637l637 633l178 -180l-328 -320h1350v-270h-1350z" />
    <glyph glyph-name="arrowup" unicode="&#x2191;" horiz-adv-x="1617" 
d="M944 0h-270v1026l-320 -328l-180 179l637 636l633 -636l-180 -179l-320 328v-1026z" />
    <glyph glyph-name="arrowright" unicode="&#x2192;" horiz-adv-x="1939" 
d="M1083 1176l179 180l636 -637l-636 -633l-179 180l328 320h-1350v270h1350z" />
    <glyph glyph-name="arrowdown" unicode="&#x2193;" horiz-adv-x="1617" 
d="M674 1434h270v-1026l320 327l180 -178l-637 -637l-633 637l180 178l320 -327v1026z" />
    <glyph glyph-name="uni2196" unicode="&#x2196;" horiz-adv-x="1376" 
d="M1274 459l-191 -191l-727 725l6 -458h-253v899l899 -2l-2 -254l-457 6z" />
    <glyph glyph-name="uni2197" unicode="&#x2197;" horiz-adv-x="1376" 
d="M293 268l-191 191l725 727l-458 -6v254h899l-2 -899l-254 2l6 456z" />
    <glyph glyph-name="uni2198" unicode="&#x2198;" horiz-adv-x="1376" 
d="M102 975l191 190l727 -725l-6 459h254v-899l-899 2l2 254l456 -6z" />
    <glyph glyph-name="uni2199" unicode="&#x2199;" horiz-adv-x="1378" 
d="M1085 1165l191 -190l-725 -727l459 6v-254h-899l2 899l254 -2l-7 -457z" />
    <glyph glyph-name="uni21A4" unicode="&#x21a4;" horiz-adv-x="2072" 
d="M877 264l-179 -180l-637 637l637 633l179 -180l-328 -320h1079v379h270v-1028h-270v379h-1079z" />
    <glyph glyph-name="uni21A5" unicode="&#x21a5;" horiz-adv-x="1751" 
d="M1389 0h-1029v272h379v754l-319 -328l-180 179l637 636l632 -636l-180 -179l-319 328v-754h379v-272z" />
    <glyph glyph-name="uni21A6" unicode="&#x21a6;" horiz-adv-x="2072" 
d="M1196 1178l178 180l637 -637l-637 -633l-178 180l328 320h-1080v-379h-270v1028h270v-379h1080z" />
    <glyph glyph-name="uni21A7" unicode="&#x21a7;" horiz-adv-x="1751" 
d="M362 1434h1029v-273h-379v-753l319 327l180 -178l-637 -637l-632 637l180 178l319 -327v753h-379v273z" />
    <glyph glyph-name="uni21B0" unicode="&#x21b0;" horiz-adv-x="2052" 
d="M1878 0h-270v584h-1080l328 -320l-178 -180l-637 637l637 633l178 -180l-328 -320h1350v-854z" />
    <glyph glyph-name="uni21B1" unicode="&#x21b1;" horiz-adv-x="2052" 
d="M444 0h-270v850h1350l-328 319l178 185l637 -637l-637 -637l-178 180l328 320h-1080v-580z" />
    <glyph glyph-name="uni21B2" unicode="&#x21b2;" horiz-adv-x="2052" 
d="M1608 1434h270v-850h-1350l328 -320l-178 -184l-637 637l637 637l178 -180l-328 -320h1080v580z" />
    <glyph glyph-name="uni21B3" unicode="&#x21b3;" horiz-adv-x="2052" 
d="M174 1434h270v-584h1080l-328 319l178 181l637 -637l-637 -633l-178 180l328 320h-1350v854z" />
    <glyph glyph-name="partialdiff" unicode="&#x2202;" horiz-adv-x="1366" 
d="M545 1454q178 0 316.5 -64t224.5 -178t130 -264.5t44 -329.5q0 -304 -161.5 -471t-428.5 -167t-427.5 141t-160.5 373q0 142 76.5 258t200.5 178.5t266 62.5q228 0 344 -116q-14 91 -57.5 159.5t-106 107t-132 57t-145.5 18.5q-74 0 -158.5 -11t-133.5 -24v235
q120 35 309 35zM668 223h10q134 0 223.5 68.5t89.5 200.5q0 123 -88.5 195.5t-224.5 72.5h-21q-129 0 -216 -70.5t-87 -195.5q0 -128 91.5 -199.5t222.5 -71.5z" />
    <glyph glyph-name="uni2206" unicode="&#x2206;" horiz-adv-x="1701" 
d="M698 1434h306l624 -1250v-184h-1554v184zM1323 240l-471 929l-473 -929h944z" />
    <glyph glyph-name="product" unicode="&#x220f;" horiz-adv-x="1738" 
d="M594 0h-270v1194h-252v240h1595v-240h-252v-1194h-270v1194h-551v-1194z" />
    <glyph glyph-name="summation" unicode="&#x2211;" horiz-adv-x="1339" 
d="M106 1434h1117v-240h-752l422 -477l-428 -477h758v-240h-1117v205l451 512l-451 522v195z" />
    <glyph glyph-name="minus" unicode="&#x2212;" horiz-adv-x="1429" 
d="M1282 410h-1135v235h1135v-235z" />
    <glyph glyph-name="uni2215" unicode="&#x2215;" horiz-adv-x="1048" 
d="M348 0h-282l643 1434h282z" />
    <glyph glyph-name="uni2219" unicode="&#x2219;" horiz-adv-x="1294" 
d="M647 297q-188 0 -314 122.5t-126 297.5t126 297.5t314 122.5t314 -122.5t126 -297.5t-126 -297.5t-314 -122.5z" />
    <glyph glyph-name="radical" unicode="&#x221a;" horiz-adv-x="1617" 
d="M870 1434h711v-240h-502l-297 -1194h-350l-389 1024h270l283 -770z" />
    <glyph glyph-name="infinity" unicode="&#x221e;" horiz-adv-x="1986" 
d="M539 348q-186 0 -308 110t-122 279t122 279t308 110q155 0 260 -50.5t196 -155.5q89 105 194 155.5t259 50.5q186 0 308 -110t122 -279t-122 -279t-308 -110q-155 0 -260.5 51t-196.5 156q-89 -105 -194 -156t-258 -51zM557 563h10q143 0 275 170q-74 95 -137.5 136.5
t-137.5 41.5h-10q-78 0 -135 -46.5t-57 -127.5t57 -127.5t135 -46.5zM1419 563h11q78 0 135 46.5t57 127.5t-57 127.5t-135 46.5h-11q-142 0 -274 -170q75 -95 137.5 -136.5t136.5 -41.5z" />
    <glyph glyph-name="integral" unicode="&#x222b;" horiz-adv-x="974" 
d="M223 -205h-186v236h151q92 0 128 36t36 128v870q0 196 97 282.5t301 86.5h188v-236h-152q-92 0 -127.5 -36t-35.5 -128v-870q0 -196 -98 -282.5t-302 -86.5z" />
    <glyph glyph-name="approxequal" unicode="&#x2248;" horiz-adv-x="1390" 
d="M965 569q-79 0 -254.5 49.5t-208.5 49.5q-39 0 -60.5 -20t-21.5 -58h-266v82q0 106 82 179t198 73q71 0 168 -25t178 -49.5t113 -24.5q39 0 60.5 20t21.5 58h266v-82q0 -107 -80 -179.5t-196 -72.5zM965 123q-79 0 -254.5 49t-208.5 49q-39 0 -60.5 -20t-21.5 -58h-266
v82q0 106 82 179t198 73q71 0 168 -24.5t178 -49t113 -24.5q39 0 60.5 20t21.5 58h266v-82q0 -107 -80 -179.5t-196 -72.5z" />
    <glyph glyph-name="notequal" unicode="&#x2260;" 
d="M1325 850v-236h-418l-76 -174h494v-235h-598l-76 -174h-264l76 174h-313v235h417l76 174h-493v236h598l75 174h264l-75 -174h313z" />
    <glyph glyph-name="lessequal" unicode="&#x2264;" horiz-adv-x="1449" 
d="M131 836l1176 239v-256l-799 -145l799 -146v-260l-1176 240v328zM1307 0h-1176v231h1176v-231z" />
    <glyph glyph-name="greaterequal" unicode="&#x2265;" horiz-adv-x="1449" 
d="M143 815v260l1176 -239v-328l-1176 -240v256l801 146zM1319 0h-1176v231h1176v-231z" />
    <glyph glyph-name="angleleft" unicode="&#x2329;" horiz-adv-x="868" 
d="M848 -174h-285l-538 891l538 891h285l-533 -887z" />
    <glyph glyph-name="angleright" unicode="&#x232a;" horiz-adv-x="868" 
d="M20 1608h285l539 -891l-539 -891h-285l533 887z" />
    <glyph glyph-name="uni2460" unicode="&#x2460;" horiz-adv-x="2148" 
d="M1075 -80q-274 0 -496.5 103t-349.5 286t-127 410t127 410t349.5 286t496.5 103t496 -103t348.5 -286t126.5 -410t-126.5 -410t-348.5 -286t-496 -103zM1075 98q213 0 390 79.5t280.5 222.5t103.5 319t-103.5 319t-280.5 222t-390 79q-214 0 -391.5 -79t-281 -222
t-103.5 -319t103.5 -319t281 -222.5t391.5 -79.5zM1217 322h-216v550l-284 -182v230l317 210h183v-808z" />
    <glyph glyph-name="uni2461" unicode="&#x2461;" horiz-adv-x="2148" 
d="M1075 -80q-274 0 -496.5 103t-349.5 286t-127 410t127 410t349.5 286t496.5 103t496 -103t348.5 -286t126.5 -410t-126.5 -410t-348.5 -286t-496 -103zM1075 98q213 0 390 79.5t280.5 222.5t103.5 319t-103.5 319t-280.5 222t-390 79q-214 0 -391.5 -79t-281 -222
t-103.5 -319t103.5 -319t281 -222.5t391.5 -79.5zM1401 324h-668v172l342 274q62 49 78 71q18 25 18 48q0 32 -28.5 53t-77.5 21h-8q-45 0 -76 -26.5t-33 -62.5h-219q7 122 104.5 195.5t245.5 73.5q75 0 138 -22t102.5 -56.5t61.5 -75.5t22 -82q0 -73 -41.5 -128
t-132.5 -128l-185 -145l357 2v-184z" />
    <glyph glyph-name="uni2462" unicode="&#x2462;" horiz-adv-x="2148" 
d="M1075 -80q-274 0 -496.5 103t-349.5 286t-127 410t127 410t349.5 286t496.5 103t496 -103t348.5 -286t126.5 -410t-126.5 -410t-348.5 -286t-496 -103zM1075 98q213 0 390 79.5t280.5 222.5t103.5 319t-103.5 319t-280.5 222t-390 79q-214 0 -391.5 -79t-281 -222
t-103.5 -319t103.5 -319t281 -222.5t391.5 -79.5zM1061 313q-144 0 -242 64t-98 176h221q1 -27 36.5 -44t80.5 -17h10q56 0 88.5 21.5t32.5 57.5q0 35 -32 54.5t-87 19.5h-106v172h106q55 0 84 20t29 54q0 32 -28 53t-81 21h-10q-42 0 -73 -17t-36 -41h-221q0 111 97 173.5
t239 62.5q89 0 164 -26t122.5 -80t47.5 -126q0 -134 -129 -178q135 -51 135 -190q0 -109 -103 -169.5t-247 -60.5z" />
    <glyph glyph-name="uni2463" unicode="&#x2463;" horiz-adv-x="2148" 
d="M1075 -80q-274 0 -496.5 103t-349.5 286t-127 410t127 410t349.5 286t496.5 103t496 -103t348.5 -286t126.5 -410t-126.5 -410t-348.5 -286t-496 -103zM1075 98q213 0 390 79.5t280.5 222.5t103.5 319t-103.5 319t-280.5 222t-390 79q-214 0 -391.5 -79t-281 -222
t-103.5 -319t103.5 -319t281 -222.5t391.5 -79.5zM1274 322h-199v127h-442v223l397 458h244v-509h129v-172h-129v-127zM1075 901l-256 -280h256v280z" />
    <glyph glyph-name="uni2464" unicode="&#x2464;" horiz-adv-x="2148" 
d="M1075 -80q-274 0 -496.5 103t-349.5 286t-127 410t127 410t349.5 286t496.5 103t496 -103t348.5 -286t126.5 -410t-126.5 -410t-348.5 -286t-496 -103zM1075 98q213 0 390 79.5t280.5 222.5t103.5 319t-103.5 319t-280.5 222t-390 79q-214 0 -391.5 -79t-281 -222
t-103.5 -319t103.5 -319t281 -222.5t391.5 -79.5zM1038 311q-143 0 -240.5 70t-107.5 186h230q11 -32 45 -53.5t79 -21.5h9q56 0 91.5 28.5t35.5 69.5q0 42 -33.5 68t-89.5 26h-8q-33 0 -64.5 -9.5t-44.5 -25.5h-221l90 481h577v-180h-417l-29 -137q65 47 170 47
q114 0 200.5 -69.5t86.5 -190.5q0 -133 -98.5 -211t-260.5 -78z" />
    <glyph glyph-name="uni2465" unicode="&#x2465;" horiz-adv-x="2148" 
d="M1075 -80q-274 0 -496.5 103t-349.5 286t-127 410t127 410t349.5 286t496.5 103t496 -103t348.5 -286t126.5 -410t-126.5 -410t-348.5 -286t-496 -103zM1075 98q213 0 390 79.5t280.5 222.5t103.5 319t-103.5 319t-280.5 222t-390 79q-214 0 -391.5 -79t-281 -222
t-103.5 -319t103.5 -319t281 -222.5t391.5 -79.5zM1049 311q-169 0 -270 102t-101 273q0 209 110 332t289 123q147 0 231 -67.5t95 -176.5h-213q-10 28 -38.5 46t-72.5 18h-12q-73 0 -124 -57t-60 -138q76 82 211 82q127 0 212 -71.5t85 -182.5q0 -124 -95.5 -203.5
t-246.5 -79.5zM1038 492h9q55 0 91 27t36 67q0 39 -35.5 63.5t-91.5 24.5h-9q-52 0 -89.5 -26t-37.5 -64q0 -40 36 -66t91 -26z" />
    <glyph glyph-name="uni2466" unicode="&#x2466;" horiz-adv-x="2148" 
d="M1075 -80q-274 0 -496.5 103t-349.5 286t-127 410t127 410t349.5 286t496.5 103t496 -103t348.5 -286t126.5 -410t-126.5 -410t-348.5 -286t-496 -103zM1075 98q213 0 390 79.5t280.5 222.5t103.5 319t-103.5 319t-280.5 222t-390 79q-214 0 -391.5 -79t-281 -222
t-103.5 -319t103.5 -319t281 -222.5t391.5 -79.5zM1104 322h-232v26q0 188 62.5 318.5t232.5 279.5h-430v184h674v-159q-177 -146 -242 -282t-65 -331v-36z" />
    <glyph glyph-name="uni2467" unicode="&#x2467;" horiz-adv-x="2148" 
d="M1075 -80q-274 0 -496.5 103t-349.5 286t-127 410t127 410t349.5 286t496.5 103t496 -103t348.5 -286t126.5 -410t-126.5 -410t-348.5 -286t-496 -103zM1075 98q213 0 390 79.5t280.5 222.5t103.5 319t-103.5 319t-280.5 222t-390 79q-214 0 -391.5 -79t-281 -222
t-103.5 -319t103.5 -319t281 -222.5t391.5 -79.5zM1073 311q-148 0 -242 62t-94 159q0 67 42.5 117t119.5 70q-174 54 -174 201q0 96 101.5 158.5t246.5 62.5t245.5 -62t100.5 -159q0 -148 -176 -201q78 -20 120 -70t42 -117q0 -97 -92.5 -159t-239.5 -62zM1067 809h10
q56 0 90.5 20t34.5 56t-34.5 56t-90.5 20h-10q-58 0 -91.5 -20t-33.5 -56t33.5 -56t91.5 -20zM1067 492h10q50 0 80.5 19.5t30.5 51.5t-31 53t-80 21h-10q-52 0 -82.5 -20.5t-30.5 -53.5q0 -32 30.5 -51.5t82.5 -19.5z" />
    <glyph glyph-name="uni2468" unicode="&#x2468;" horiz-adv-x="2148" 
d="M1075 -80q-274 0 -496.5 103t-349.5 286t-127 410t127 410t349.5 286t496.5 103t496 -103t348.5 -286t126.5 -410t-126.5 -410t-348.5 -286t-496 -103zM1075 98q213 0 390 79.5t280.5 222.5t103.5 319t-103.5 319t-280.5 222t-390 79q-214 0 -391.5 -79t-281 -222
t-103.5 -319t103.5 -319t281 -222.5t391.5 -79.5zM1047 313q-147 0 -231 67.5t-95 176.5h213q10 -28 38 -45.5t72 -17.5h13q73 0 124 56.5t60 137.5q-76 -82 -211 -82q-127 0 -212 71.5t-85 182.5q0 124 95.5 203.5t246.5 79.5q169 0 270 -102t101 -273q0 -209 -110 -332
t-289 -123zM1077 780h8q52 0 89.5 26t37.5 64q0 40 -36 66.5t-91 26.5h-8q-55 0 -91 -27.5t-36 -67.5q0 -39 35.5 -63.5t91.5 -24.5z" />
    <glyph glyph-name="uni24EA" unicode="&#x24ea;" horiz-adv-x="2148" 
d="M1075 -80q-274 0 -496.5 103t-349.5 286t-127 410t127 410t349.5 286t496.5 103t496 -103t348.5 -286t126.5 -410t-126.5 -410t-348.5 -286t-496 -103zM1075 98q213 0 390 79.5t280.5 222.5t103.5 319t-103.5 319t-280.5 222t-390 79q-214 0 -391.5 -79t-281 -222
t-103.5 -319t103.5 -319t281 -222.5t391.5 -79.5zM1073 311q-99 0 -175.5 35t-121.5 94.5t-67.5 131.5t-22.5 153t22.5 153.5t67.5 132.5t121.5 95t175.5 35t175.5 -35t121.5 -95t67.5 -132.5t22.5 -153.5t-22.5 -153t-67.5 -131.5t-121.5 -94.5t-175.5 -35zM1069 500h8
q79 0 120.5 58.5t41.5 166.5t-41.5 167.5t-120.5 59.5h-8q-79 0 -120.5 -59.5t-41.5 -167.5t41.5 -166.5t120.5 -58.5z" />
    <glyph glyph-name="uni24FF" unicode="&#x24ff;" horiz-adv-x="2121" 
d="M1075 -80q-274 0 -496.5 103t-349.5 286t-127 410t127 410t349.5 286t496.5 103t496 -103t348.5 -286t126.5 -410t-126.5 -410t-348.5 -286t-496 -103zM1075 313q99 0 175.5 35t121.5 94.5t67.5 131.5t22.5 153t-22.5 153.5t-67.5 132.5t-121.5 95t-175.5 35t-175.5 -35
t-121.5 -95t-67.5 -132.5t-22.5 -153.5t22.5 -153t67.5 -131.5t121.5 -94.5t175.5 -35zM1079 502h-8q-79 0 -120.5 58.5t-41.5 166.5t41.5 167.5t120.5 59.5h8q79 0 120.5 -59.5t41.5 -167.5t-41.5 -166.5t-120.5 -58.5z" />
    <glyph glyph-name="triagup" unicode="&#x25b2;" horiz-adv-x="1720" 
d="M1690 0h-1659l829 1475z" />
    <glyph glyph-name="lozenge" unicode="&#x25ca;" horiz-adv-x="1513" 
d="M889 0h-254l-563 717l563 717h254l553 -717zM385 719l377 -471l368 461l-374 479z" />
    <glyph glyph-name="uni2776" unicode="&#x2776;" horiz-adv-x="2121" 
d="M1075 -80q-274 0 -496.5 103t-349.5 286t-127 410t127 410t349.5 286t496.5 103t496 -103t348.5 -286t126.5 -410t-126.5 -410t-348.5 -286t-496 -103zM1004 874v-550h215v809h-183l-317 -211v-230z" />
    <glyph glyph-name="uni2777" unicode="&#x2777;" horiz-adv-x="2121" 
d="M1075 -80q-274 0 -496.5 103t-349.5 286t-127 410t127 410t349.5 286t496.5 103t496 -103t348.5 -286t126.5 -410t-126.5 -410t-348.5 -286t-496 -103zM735 498v-172h668v184l-356 -2l184 145q91 73 132.5 128t41.5 128q0 41 -22 82t-61.5 75.5t-102.5 56.5t-138 22
q-148 0 -245.5 -73t-104.5 -195h219q2 36 33 62t76 26h8q49 0 78 -21t29 -53q0 -7 -1.5 -14t-3.5 -12.5t-7 -13l-8 -12t-11 -12t-11.5 -11t-13 -11.5t-13 -11t-14.5 -11.5t-14 -10.5z" />
    <glyph glyph-name="uni2778" unicode="&#x2778;" horiz-adv-x="2121" 
d="M1075 -80q-274 0 -496.5 103t-349.5 286t-127 410t127 410t349.5 286t496.5 103t496 -103t348.5 -286t126.5 -410t-126.5 -410t-348.5 -286t-496 -103zM1063 315q144 0 247 60.5t103 169.5q0 139 -135 190q129 44 129 178q0 72 -47.5 126t-122.5 80t-164 26
q-142 0 -239 -62.5t-97 -173.5h221q5 24 36 41t73 17h10q53 0 81 -21t28 -53q0 -34 -29 -54t-84 -20h-106v-172h106q55 0 87 -19.5t32 -54.5q0 -36 -32.5 -57.5t-88.5 -21.5h-10q-45 0 -80.5 17t-36.5 44h-221q0 -112 98 -176t242 -64z" />
    <glyph glyph-name="uni2779" unicode="&#x2779;" horiz-adv-x="2121" 
d="M1075 -80q-274 0 -496.5 103t-349.5 286t-127 410t127 410t349.5 286t496.5 103t496 -103t348.5 -286t126.5 -410t-126.5 -410t-348.5 -286t-496 -103zM1077 451v-127h199v127h129v172h-129v510h-244l-397 -459v-223h442zM1077 623h-256l256 280v-280z" />
    <glyph glyph-name="uni277A" unicode="&#x277a;" horiz-adv-x="2121" 
d="M1075 -80q-274 0 -496.5 103t-349.5 286t-127 410t127 410t349.5 286t496.5 103t496 -103t348.5 -286t126.5 -410t-126.5 -410t-348.5 -286t-496 -103zM1040 313q162 0 260.5 78t98.5 211q0 121 -86.5 190.5t-200.5 69.5q-105 0 -170 -47l29 137h418v181h-578l-90 -482
h221q13 16 44.5 25.5t64.5 9.5h8q56 0 89.5 -26t33.5 -68q0 -41 -35.5 -69.5t-91.5 -28.5h-8q-45 0 -79.5 21.5t-45.5 53.5h-230q10 -116 107.5 -186t240.5 -70z" />
    <glyph glyph-name="uni277B" unicode="&#x277b;" horiz-adv-x="2121" 
d="M1075 -80q-274 0 -496.5 103t-349.5 286t-127 410t127 410t349.5 286t496.5 103t496 -103t348.5 -286t126.5 -410t-126.5 -410t-348.5 -286t-496 -103zM1051 313q151 0 246.5 79.5t95.5 203.5q0 111 -85 182.5t-212 71.5q-135 0 -211 -82q9 81 60 138t124 57h12
q44 0 72.5 -18t38.5 -46h213q-11 109 -95 176.5t-231 67.5q-179 0 -289 -123t-110 -332q0 -171 101 -273t270 -102zM1049 494h-9q-55 0 -91 26t-36 66q0 38 37.5 64t89.5 26h9q56 0 91.5 -24.5t35.5 -63.5q0 -40 -36 -67t-91 -27z" />
    <glyph glyph-name="uni277C" unicode="&#x277c;" horiz-adv-x="2121" 
d="M1075 -80q-274 0 -496.5 103t-349.5 286t-127 410t127 410t349.5 286t496.5 103t496 -103t348.5 -286t126.5 -410t-126.5 -410t-348.5 -286t-496 -103zM874 350v-26h232v36q0 195 65 331t242 282v160h-674v-185h430q-170 -149 -232.5 -279.5t-62.5 -318.5z" />
    <glyph glyph-name="uni277D" unicode="&#x277d;" horiz-adv-x="2121" 
d="M1075 -80q-274 0 -496.5 103t-349.5 286t-127 410t127 410t349.5 286t496.5 103t496 -103t348.5 -286t126.5 -410t-126.5 -410t-348.5 -286t-496 -103zM1075 313q147 0 239.5 62.5t92.5 159.5q0 67 -42 116.5t-120 69.5q176 53 176 201q0 97 -100.5 159t-245.5 62
t-246.5 -62.5t-101.5 -158.5q0 -147 174 -201q-77 -20 -119.5 -69.5t-42.5 -116.5q0 -97 94.5 -159.5t241.5 -62.5zM1079 811h-10q-58 0 -91.5 20t-33.5 56t33.5 56t91.5 20h10q56 0 90.5 -20t34.5 -56t-34.5 -56t-90.5 -20zM1079 494h-10q-52 0 -82.5 19.5t-30.5 51.5
q0 33 30.5 53.5t82.5 20.5h10q49 0 80 -21t31 -53t-30.5 -51.5t-80.5 -19.5z" />
    <glyph glyph-name="uni277E" unicode="&#x277e;" horiz-adv-x="2121" 
d="M1075 -80q-274 0 -496.5 103t-349.5 286t-127 410t127 410t349.5 286t496.5 103t496 -103t348.5 -286t126.5 -410t-126.5 -410t-348.5 -286t-496 -103zM1049 315q179 0 289 123t110 332q0 171 -101 273t-270 102q-151 0 -246.5 -79.5t-95.5 -203.5q0 -111 85 -182.5
t212 -71.5q135 0 211 82q-9 -81 -60 -137.5t-124 -56.5h-12q-44 0 -72.5 17.5t-38.5 45.5h-213q11 -109 95 -176.5t231 -67.5zM1087 782h-8q-56 0 -91.5 24.5t-35.5 63.5q0 40 36 67.5t91 27.5h8q55 0 91 -26.5t36 -66.5q0 -38 -37.5 -64t-89.5 -26z" />
    <glyph glyph-name="uni300A" unicode="&#x300a;" horiz-adv-x="1318" 
d="M825 -174h-282l-518 891l518 891h282l-512 -887zM1296 -174h-282l-518 891l518 891h282l-512 -887z" />
    <glyph glyph-name="uni300B" unicode="&#x300b;" horiz-adv-x="1318" 
d="M23 1608h282l518 -891l-518 -891h-282l512 887zM494 1608h282l518 -891l-518 -891h-282l512 887z" />
    <glyph glyph-name="uni300C" unicode="&#x300c;" horiz-adv-x="761" 
d="M406 791h-273v940h588v-220h-315v-720z" />
    <glyph glyph-name="uni300D" unicode="&#x300d;" horiz-adv-x="802" 
d="M403 643h273v-940h-588v219h315v721z" />
    <glyph glyph-name="uni300E" unicode="&#x300e;" horiz-adv-x="993" 
d="M600 623h-477v1108h829v-412h-352v-696zM297 1581v-809h129v696h352v113h-481z" />
    <glyph glyph-name="uni300F" unicode="&#x300f;" horiz-adv-x="1034" 
d="M420 811h477v-1108h-829v412h352v696zM723 -147v809h-129v-697h-352v-112h481z" />
    <glyph glyph-name="uni3010" unicode="&#x3010;" horiz-adv-x="894" 
d="M901 -297h-725v2028h725q-228 -211 -341.5 -474t-113.5 -538q0 -272 112.5 -536t342.5 -480z" />
    <glyph glyph-name="uni3011" unicode="&#x3011;" horiz-adv-x="894" 
d="M-6 1733h725v-2028h-725q228 211 341.5 474t113.5 538q0 272 -112.5 536t-342.5 480z" />
    <glyph glyph-name="uni3014" unicode="&#x3014;" horiz-adv-x="811" 
d="M817 -297h-330l-352 328v1372l352 328h330l-411 -392v-1245z" />
    <glyph glyph-name="uni3015" unicode="&#x3015;" horiz-adv-x="811" 
d="M-6 1733h330l352 -328v-1372l-352 -328h-330l412 391v1245z" />
    <glyph glyph-name="uniE000" unicode="&#xe000;" horiz-adv-x="1105" 
d="M963 307h-820v819h820v-819zM297 973v-512h512v512h-512z" />
    <glyph glyph-name="uniE001" unicode="&#xe001;" horiz-adv-x="1413" 
d="M1270 154h-1127v1126h1127v-1126zM297 1126v-819h819v819h-819z" />
    <glyph glyph-name="uniE002" unicode="&#xe002;" horiz-adv-x="1802" 
d="M1618 0h-1434v1434h1434v-1434zM338 1280v-1126h1126v1126h-1126z" />
    <glyph glyph-name="uniE003" unicode="&#xe003;" horiz-adv-x="1105" 
d="M963 307h-820v819h820v-819zM297 973v-512h512v512h-512zM655 614h-204v205h204v-205z" />
    <glyph glyph-name="uniE004" unicode="&#xe004;" horiz-adv-x="1413" 
d="M1270 154h-1127v1126h1127v-1126zM297 1126v-819h819v819h-819zM963 461h-512v512h512v-512zM604 819v-205h205v205h-205z" />
    <glyph glyph-name="uniE005" unicode="&#xe005;" horiz-adv-x="1802" 
d="M1618 0h-1434v1434h1434v-1434zM338 1280v-1126h1126v1126h-1126zM1311 307h-819v819h819v-819zM645 973v-512h512v512h-512zM1004 614h-205v205h205v-205z" />
    <glyph glyph-name="uniE006" unicode="&#xe006;" horiz-adv-x="1105" 
d="M963 307h-820v819h820v-819z" />
    <glyph glyph-name="uniE007" unicode="&#xe007;" horiz-adv-x="1413" 
d="M1270 154h-1127v1126h1127v-1126z" />
    <glyph glyph-name="uniE008" unicode="&#xe008;" horiz-adv-x="1802" 
d="M1618 0h-1434v1434h1434v-1434z" />
    <glyph glyph-name="uniE00A" unicode="&#xe00a;" horiz-adv-x="888" 
d="M819 -297h-317q-121 0 -206 69t-85 187q0 105 74 184q-166 36 -166 224v700q0 197 166 233q-74 79 -74 175q0 118 83 187t204 69h321v-215h-244q-40 0 -67 -20.5t-27 -53.5v-17q0 -33 26.5 -53t67.5 -20h91v-215h-150q-127 0 -127 -119v-602q0 -119 127 -119h150v-215
h-93q-40 0 -66 -20.5t-26 -53.5v-16q0 -33 26 -53.5t66 -20.5h246v-215z" />
    <glyph glyph-name="uniE00B" unicode="&#xe00b;" horiz-adv-x="888" 
d="M70 1731h317q121 0 206 -69t85 -187q0 -106 -74 -185q166 -36 166 -223v-700q0 -198 -166 -234q74 -79 74 -174q0 -118 -83 -187t-204 -69h-321v215h243q41 0 68 20.5t27 53.5v16q0 33 -27 53.5t-68 20.5h-90v215h150q127 0 127 119v602q0 119 -127 119h-150v215h92
q41 0 67 20t26 53v17q0 33 -26.5 53.5t-66.5 20.5h-245v215z" />
    <glyph glyph-name="uniE010" unicode="&#xe010;" horiz-adv-x="1187" 
d="M594 225q-99 0 -190.5 39t-157.5 105t-105 157.5t-39 190.5q0 133 66 246t179.5 179t246.5 66t246 -66t179 -179t66 -246t-66 -246.5t-179 -179.5t-246 -66zM594 379q140 0 239 99.5t99 238.5t-99 238.5t-239 99.5t-239 -99.5t-99 -238.5t99 -238.5t239 -99.5z" />
    <glyph glyph-name="uniE011" unicode="&#xe011;" horiz-adv-x="1495" 
d="M748 72q-174 0 -323 87t-236 235.5t-87 322.5t87 322.5t236 235.5t323 87t322.5 -87t235.5 -235.5t87 -322.5t-87 -322.5t-235.5 -235.5t-322.5 -87zM748 225q133 0 246 66t179 179.5t66 246.5t-66 246t-179 179t-246 66t-246.5 -66t-179.5 -179t-66 -246
q0 -99 39 -190.5t105 -157.5t157.5 -105t190.5 -39z" />
    <glyph glyph-name="uniE012" unicode="&#xe012;" horiz-adv-x="1802" 
d="M901 -82q-161 0 -309 63.5t-255.5 171t-171 255.5t-63.5 309q0 162 63.5 310t171 255t255.5 170.5t309 63.5q162 0 310 -63.5t255 -170.5t170.5 -255t63.5 -310q0 -161 -63.5 -309t-170.5 -255.5t-255 -171t-310 -63.5zM901 72q174 0 322.5 87t235.5 235.5t87 322.5
t-87 322.5t-235.5 235.5t-322.5 87t-322.5 -87t-235.5 -235.5t-87 -322.5t87 -322.5t235.5 -235.5t322.5 -87z" />
    <glyph glyph-name="uniE013" unicode="&#xe013;" horiz-adv-x="1187" 
d="M594 225q-99 0 -190.5 39t-157.5 105t-105 157.5t-39 190.5q0 133 66 246t179.5 179t246.5 66t246 -66t179 -179t66 -246t-66 -246.5t-179 -179.5t-246 -66zM594 379q140 0 239 99.5t99 238.5t-99 238.5t-239 99.5t-239 -99.5t-99 -238.5t99 -238.5t239 -99.5zM594 532
q-75 0 -129.5 55t-54.5 130q0 76 54.5 130t129.5 54q76 0 130 -53.5t54 -130.5q0 -75 -54 -130t-130 -55z" />
    <glyph glyph-name="uniE014" unicode="&#xe014;" horiz-adv-x="1495" 
d="M748 72q-174 0 -323 87t-236 235.5t-87 322.5t87 322.5t236 235.5t323 87t322.5 -87t235.5 -235.5t87 -322.5t-87 -322.5t-235.5 -235.5t-322.5 -87zM748 225q133 0 246 66t179 179.5t66 246.5t-66 246t-179 179t-246 66t-246.5 -66t-179.5 -179t-66 -246
q0 -99 39 -190.5t105 -157.5t157.5 -105t190.5 -39zM748 379q-140 0 -239 99.5t-99 238.5t99 238.5t239 99.5q139 0 238 -99t99 -239t-99 -239t-238 -99zM748 532q76 0 130 55t54 130q0 77 -54 130.5t-130 53.5q-75 0 -130 -54t-55 -130q0 -75 55 -130t130 -55z" />
    <glyph glyph-name="uniE015" unicode="&#xe015;" horiz-adv-x="1802" 
d="M901 -82q-161 0 -309 63.5t-255.5 171t-171 255.5t-63.5 309q0 162 63.5 310t171 255t255.5 170.5t309 63.5q162 0 310 -63.5t255 -170.5t170.5 -255t63.5 -310q0 -161 -63.5 -309t-170.5 -255.5t-255 -171t-310 -63.5zM901 72q174 0 322.5 87t235.5 235.5t87 322.5
t-87 322.5t-235.5 235.5t-322.5 87t-322.5 -87t-235.5 -235.5t-87 -322.5t87 -322.5t235.5 -235.5t322.5 -87zM901 225q-133 0 -246 66t-179 179.5t-66 246.5t66 246t179 179t246 66t246.5 -66t179.5 -179t66 -246q0 -99 -39 -190.5t-105 -157.5t-157.5 -105t-190.5 -39z
M901 379q139 0 238.5 99.5t99.5 238.5t-99.5 238.5t-238.5 99.5t-238.5 -99.5t-99.5 -238.5t99.5 -238.5t238.5 -99.5zM901 532q-75 0 -129.5 55t-54.5 130q0 76 54.5 130t129.5 54q77 0 130.5 -53.5t53.5 -130.5q0 -75 -54 -130t-130 -55z" />
    <glyph glyph-name="uniE016" unicode="&#xe016;" horiz-adv-x="1310" 
d="M655 225q-133 0 -246 66t-179 179.5t-66 246.5t66 246t179 179t246 66t246.5 -66t179.5 -179t66 -246q0 -99 -39 -190.5t-105 -157.5t-157.5 -105t-190.5 -39z" />
    <glyph glyph-name="uniE017" unicode="&#xe017;" horiz-adv-x="1433" 
d="M717 102q-124 0 -238 49t-196.5 131.5t-131.5 196.5t-49 238q0 166 82.5 307.5t224.5 224t308 82.5t307.5 -82.5t224 -224t82.5 -307.5t-82.5 -308t-224 -224.5t-307.5 -82.5z" />
    <glyph glyph-name="uniE018" unicode="&#xe018;" horiz-adv-x="1679" 
d="M840 -20q-150 0 -286.5 58.5t-235.5 157.5t-157.5 235t-58.5 286t58.5 286t157.5 235t235.5 157.5t286.5 58.5q200 0 369.5 -99t268.5 -268.5t99 -369.5t-99 -369.5t-268.5 -268.5t-369.5 -99z" />
    <glyph glyph-name="uniF8FF" unicode="&#xf8ff;" horiz-adv-x="1961" 
d="M1942 1446q58 0 110 -12t74 -31q-1 -4 -1.5 -19t-2 -25t-4.5 -13q-18 -15 -62 -15q-45 0 -69 8q2 -55 -12.5 -103t-52.5 -81.5t-93 -28.5q-18 -58 -57.5 -99.5t-91.5 -61.5t-101 -28.5t-102 -8.5q-40 0 -56 2q0 -1 7 -23.5t18 -62t22.5 -87.5t23.5 -109t19 -116
q5 -6 29 -33.5t40 -45t43.5 -45.5t53.5 -52q44 -39 78 -84t45 -75q4 -8 4 -23q0 -30 -39 -37q-44 26 -84.5 65.5t-90.5 97t-85 91.5q-2 -10 -2 -31q0 -72 25 -184t28 -141q-31 -25 -59 -25q-24 0 -27 19q-27 45 -44 138t-25 183t-10 99q-49 2 -331.5 -29t-412.5 -62
q-1 -47 16 -91t44.5 -82t56.5 -74.5t57.5 -83.5t42.5 -93q-15 -22 -41 -22q-17 0 -35 12q-20 11 -42.5 37.5t-54 72t-42.5 60.5q-23 30 -48.5 86t-37.5 64q-20 -60 -37.5 -107.5t-35.5 -92t-32.5 -68.5t-23.5 -23h-16q-45 0 -45 37q0 58 37 165t90 199q-14 2 -105.5 9
t-168.5 24.5t-124 54.5q-10 13 -20 29q12 15 25 26t21.5 16.5t25.5 15.5t26 16q29 39 106.5 97.5t108.5 102.5q-12 10 -59 32t-85.5 48.5t-47.5 55.5q4 4 18 39q9 7 65.5 -15t121.5 -55q2 15 4 51t5.5 60t10.5 34q3 7 22 14t36 10l18 3q8 -5 15 -14.5t7 -16.5
q2 -16 -10.5 -83.5t-9.5 -102.5q52 4 135.5 30t167 56t225 63t293.5 50q-41 71 -41 157q0 77 35 115q132 1 202 -48.5t70 -127.5q0 -34 -12 -68q40 3 83.5 28t49.5 50q-19 18 -47 33.5t-45 30.5t-27 43q-32 35 -32 79q0 36 23.5 67t64.5 46q25 10 57 10q62 0 100.5 -48
t38.5 -122q0 -27 -2 -39q49 23 49 170q0 10 -1 32t-1 32q16 2 50 2zM1751 1204q6 15 6 35q0 33 -20 60.5t-56 37.5q-12 -21 -12 -41q0 -34 26.5 -61.5t55.5 -30.5zM1485 1042q3 1 7.5 4.5t12.5 21.5t8 44q-57 57 -116 57q-8 -28 -8 -49q0 -59 24 -80q6 -6 21 -6q3 0 51 8z
M618 459q68 6 216.5 30t299 43t265.5 19q-6 38 -20.5 89t-18.5 69q-5 27 -9 59.5t-6 49t-10 36.5t-22 37q-150 -14 -276.5 -41t-195.5 -52.5t-149 -55t-129 -42.5q13 -45 25.5 -102.5t20.5 -96t9 -42.5zM475 461q25 0 35 2q-11 28 -27.5 90t-31.5 96q-19 -17 -60 -51
t-65.5 -59t-42.5 -56q139 -22 192 -22z" />
    <glyph glyph-name="G.ss02" horiz-adv-x="1757" 
d="M930 -20q-192 0 -350 55t-264 152.5t-164 233t-58 296.5q0 160 57 296t161.5 233.5t257.5 152.5t337 55q168 0 303.5 -39t225 -108t140 -162t58.5 -203h-297q-18 124 -123.5 193t-289.5 69h-33q-229 0 -370.5 -130.5t-141.5 -356.5q0 -228 146.5 -358t396.5 -130h18
q209 0 315.5 74.5t106.5 192.5v6h-442v250h727v-230q0 -260 -188.5 -401t-528.5 -141z" />
    <glyph glyph-name="Gbreve.ss02" horiz-adv-x="1757" 
d="M930 1526q-169 0 -272.5 84t-106.5 223h225q7 -55 48.5 -84t105.5 -29t105 29t48 84h226q-3 -139 -106.5 -223t-272.5 -84zM930 -20q-192 0 -350 55t-264 152.5t-164 233t-58 296.5q0 160 57 296t161.5 233.5t257.5 152.5t337 55q168 0 303.5 -39t225 -108t140 -162
t58.5 -203h-297q-18 124 -123.5 193t-289.5 69h-33q-229 0 -370.5 -130.5t-141.5 -356.5q0 -228 146.5 -358t396.5 -130h18q209 0 315.5 74.5t106.5 192.5v6h-442v250h727v-230q0 -260 -188.5 -401t-528.5 -141z" />
    <glyph glyph-name="Gcircumflex.ss02" horiz-adv-x="1757" 
d="M745 1526h-229l266 297h295l266 -297h-229l-184 123zM930 -20q-192 0 -350 55t-264 152.5t-164 233t-58 296.5q0 160 57 296t161.5 233.5t257.5 152.5t337 55q168 0 303.5 -39t225 -108t140 -162t58.5 -203h-297q-18 124 -123.5 193t-289.5 69h-33q-229 0 -370.5 -130.5
t-141.5 -356.5q0 -228 146.5 -358t396.5 -130h18q209 0 315.5 74.5t106.5 192.5v6h-442v250h727v-230q0 -260 -188.5 -401t-528.5 -141z" />
    <glyph glyph-name="uni0122.ss02" horiz-adv-x="1757" 
d="M930 -20q-192 0 -350 55t-264 152.5t-164 233t-58 296.5q0 160 57 296t161.5 233.5t257.5 152.5t337 55q168 0 303.5 -39t225 -108t140 -162t58.5 -203h-297q-18 124 -123.5 193t-289.5 69h-33q-229 0 -370.5 -130.5t-141.5 -356.5q0 -228 146.5 -358t396.5 -130h18
q209 0 315.5 74.5t106.5 192.5v6h-442v250h727v-230q0 -260 -188.5 -401t-528.5 -141zM813 -633h-78v154h68q106 0 106 80v2h-123v270h287v-270q0 -103 -72.5 -169.5t-187.5 -66.5z" />
    <glyph glyph-name="Gdotaccent.ss02" horiz-adv-x="1757" 
d="M1075 1554h-293v285h293v-285zM930 -20q-192 0 -350 55t-264 152.5t-164 233t-58 296.5q0 160 57 296t161.5 233.5t257.5 152.5t337 55q168 0 303.5 -39t225 -108t140 -162t58.5 -203h-297q-18 124 -123.5 193t-289.5 69h-33q-229 0 -370.5 -130.5t-141.5 -356.5
q0 -228 146.5 -358t396.5 -130h18q209 0 315.5 74.5t106.5 192.5v6h-442v250h727v-230q0 -260 -188.5 -401t-528.5 -141z" />
    <glyph glyph-name="R.ss03" horiz-adv-x="1656" 
d="M465 0h-283v1434h826q211 0 345 -110t134 -280q0 -144 -80.5 -240t-187.5 -122q35 -1 61 -5.5t47 -17t34.5 -25t28 -39t23.5 -49.5t25 -65l168 -481h-297l-146 424q-21 46 -37 66t-44.5 30t-80.5 10h-536v-530zM465 1184v-404h512q105 0 165 57.5t60 155.5
q0 85 -60.5 138t-164.5 53h-512z" />
    <glyph glyph-name="Racute.ss03" horiz-adv-x="1656" 
d="M907 1526h-188l102 297h322zM465 0h-283v1434h826q211 0 345 -110t134 -280q0 -144 -80.5 -240t-187.5 -122q35 -1 61 -5.5t47 -17t34.5 -25t28 -39t23.5 -49.5t25 -65l168 -481h-297l-146 424q-21 46 -37 66t-44.5 30t-80.5 10h-536v-530zM465 1184v-404h512
q105 0 165 57.5t60 155.5q0 85 -60.5 138t-164.5 53h-512z" />
    <glyph glyph-name="Rcaron.ss03" horiz-adv-x="1656" 
d="M958 1526h-294l-267 297h230l184 -123l184 123h230zM465 0h-283v1434h826q211 0 345 -110t134 -280q0 -144 -80.5 -240t-187.5 -122q35 -1 61 -5.5t47 -17t34.5 -25t28 -39t23.5 -49.5t25 -65l168 -481h-297l-146 424q-21 46 -37 66t-44.5 30t-80.5 10h-536v-530z
M465 1184v-404h512q105 0 165 57.5t60 155.5q0 85 -60.5 138t-164.5 53h-512z" />
    <glyph glyph-name="uni0156.ss03" horiz-adv-x="1656" 
d="M465 0h-283v1434h826q211 0 345 -110t134 -280q0 -144 -80.5 -240t-187.5 -122q35 -1 61 -5.5t47 -17t34.5 -25t28 -39t23.5 -49.5t25 -65l168 -481h-297l-146 424q-21 46 -37 66t-44.5 30t-80.5 10h-536v-530zM465 1184v-404h512q105 0 165 57.5t60 155.5
q0 85 -60.5 138t-164.5 53h-512zM772 -633h-78v154h68q106 0 106 80v2h-123v270h287v-270q0 -103 -72.5 -169.5t-187.5 -66.5z" />
    <glyph glyph-name="a.ss01" horiz-adv-x="1419" 
d="M621 -20q-150 0 -271.5 63t-193.5 185t-72 284q0 103 27 189.5t75.5 149t115.5 106.5t146.5 65.5t167.5 21.5q137 0 234.5 -42.5t150.5 -112.5v135h273v-1024h-273v129q-55 -70 -154.5 -109.5t-225.5 -39.5zM657 199h29q138 0 226.5 82.5t88.5 230.5t-88.5 230.5
t-226.5 82.5h-29q-134 0 -216.5 -82t-82.5 -231t82.5 -231t216.5 -82z" />
    <glyph glyph-name="aacute.ss01" horiz-adv-x="1419" 
d="M786 1128h-198l133 308h311zM621 -20q-150 0 -271.5 63t-193.5 185t-72 284q0 103 27 189.5t75.5 149t115.5 106.5t146.5 65.5t167.5 21.5q137 0 234.5 -42.5t150.5 -112.5v135h273v-1024h-273v129q-55 -70 -154.5 -109.5t-225.5 -39.5zM657 199h29q138 0 226.5 82.5
t88.5 230.5t-88.5 230.5t-226.5 82.5h-29q-134 0 -216.5 -82t-82.5 -231t82.5 -231t216.5 -82z" />
    <glyph glyph-name="abreve.ss01" horiz-adv-x="1419" 
d="M686 1128q-170 0 -277 86.5t-110 233.5h229q9 -121 158 -121t158 121h229q-3 -147 -110 -233.5t-277 -86.5zM621 -20q-150 0 -271.5 63t-193.5 185t-72 284q0 103 27 189.5t75.5 149t115.5 106.5t146.5 65.5t167.5 21.5q137 0 234.5 -42.5t150.5 -112.5v135h273v-1024
h-273v129q-55 -70 -154.5 -109.5t-225.5 -39.5zM657 199h29q138 0 226.5 82.5t88.5 230.5t-88.5 230.5t-226.5 82.5h-29q-134 0 -216.5 -82t-82.5 -231t82.5 -231t216.5 -82z" />
    <glyph glyph-name="acircumflex.ss01" horiz-adv-x="1419" 
d="M469 1128h-229l317 308h256l320 -308h-230l-215 144zM621 -20q-150 0 -271.5 63t-193.5 185t-72 284q0 103 27 189.5t75.5 149t115.5 106.5t146.5 65.5t167.5 21.5q137 0 234.5 -42.5t150.5 -112.5v135h273v-1024h-273v129q-55 -70 -154.5 -109.5t-225.5 -39.5zM657 199
h29q138 0 226.5 82.5t88.5 230.5t-88.5 230.5t-226.5 82.5h-29q-134 0 -216.5 -82t-82.5 -231t82.5 -231t216.5 -82z" />
    <glyph glyph-name="adieresis.ss01" horiz-adv-x="1419" 
d="M588 1155h-271v268h271v-268zM1053 1155h-271v268h271v-268zM621 -20q-150 0 -271.5 63t-193.5 185t-72 284q0 103 27 189.5t75.5 149t115.5 106.5t146.5 65.5t167.5 21.5q137 0 234.5 -42.5t150.5 -112.5v135h273v-1024h-273v129q-55 -70 -154.5 -109.5t-225.5 -39.5z
M657 199h29q138 0 226.5 82.5t88.5 230.5t-88.5 230.5t-226.5 82.5h-29q-134 0 -216.5 -82t-82.5 -231t82.5 -231t216.5 -82z" />
    <glyph glyph-name="uni0227.ss01" horiz-adv-x="1419" 
d="M831 1149h-292v285h292v-285zM621 -20q-150 0 -271.5 63t-193.5 185t-72 284q0 103 27 189.5t75.5 149t115.5 106.5t146.5 65.5t167.5 21.5q137 0 234.5 -42.5t150.5 -112.5v135h273v-1024h-273v129q-55 -70 -154.5 -109.5t-225.5 -39.5zM657 199h29q138 0 226.5 82.5
t88.5 230.5t-88.5 230.5t-226.5 82.5h-29q-134 0 -216.5 -82t-82.5 -231t82.5 -231t216.5 -82z" />
    <glyph glyph-name="agrave.ss01" horiz-adv-x="1419" 
d="M791 1128h-199l-246 308h311zM621 -20q-150 0 -271.5 63t-193.5 185t-72 284q0 103 27 189.5t75.5 149t115.5 106.5t146.5 65.5t167.5 21.5q137 0 234.5 -42.5t150.5 -112.5v135h273v-1024h-273v129q-55 -70 -154.5 -109.5t-225.5 -39.5zM657 199h29q138 0 226.5 82.5
t88.5 230.5t-88.5 230.5t-226.5 82.5h-29q-134 0 -216.5 -82t-82.5 -231t82.5 -231t216.5 -82z" />
    <glyph glyph-name="amacron.ss01" horiz-adv-x="1419" 
d="M1049 1157h-727v215h727v-215zM621 -20q-150 0 -271.5 63t-193.5 185t-72 284q0 103 27 189.5t75.5 149t115.5 106.5t146.5 65.5t167.5 21.5q137 0 234.5 -42.5t150.5 -112.5v135h273v-1024h-273v129q-55 -70 -154.5 -109.5t-225.5 -39.5zM657 199h29q138 0 226.5 82.5
t88.5 230.5t-88.5 230.5t-226.5 82.5h-29q-134 0 -216.5 -82t-82.5 -231t82.5 -231t216.5 -82z" />
    <glyph glyph-name="aogonek.ss01" horiz-adv-x="1419" 
d="M1212 -287h93v-164h-134q-108 0 -182 58.5t-74 146.5q0 151 166 246h-80v129q-55 -70 -154.5 -109.5t-225.5 -39.5q-150 0 -271.5 63t-193.5 185t-72 284q0 103 27 189.5t75.5 149t115.5 106.5t146.5 65.5t167.5 21.5q137 0 234.5 -42.5t150.5 -112.5v135h273v-1024
q-35 -20 -57.5 -35t-53.5 -40t-47 -52.5t-16 -56.5q0 -50 34.5 -76.5t77.5 -26.5zM657 199h29q138 0 226.5 82.5t88.5 230.5t-88.5 230.5t-226.5 82.5h-29q-134 0 -216.5 -82t-82.5 -231t82.5 -231t216.5 -82z" />
    <glyph glyph-name="aring.ss01" horiz-adv-x="1419" 
d="M686 1128q-117 0 -190.5 66t-73.5 166q0 93 74.5 162t189.5 69t189.5 -69t74.5 -162q0 -100 -73.5 -166t-190.5 -66zM688 1272q44 0 74.5 26t30.5 62t-30.5 62t-74.5 26q-43 0 -74.5 -26.5t-31.5 -61.5t31.5 -61.5t74.5 -26.5zM621 -20q-150 0 -271.5 63t-193.5 185
t-72 284q0 103 27 189.5t75.5 149t115.5 106.5t146.5 65.5t167.5 21.5q137 0 234.5 -42.5t150.5 -112.5v135h273v-1024h-273v129q-55 -70 -154.5 -109.5t-225.5 -39.5zM657 199h29q138 0 226.5 82.5t88.5 230.5t-88.5 230.5t-226.5 82.5h-29q-134 0 -216.5 -82t-82.5 -231
t82.5 -231t216.5 -82z" />
    <glyph glyph-name="atilde.ss01" horiz-adv-x="1419" 
d="M893 1128q-28 0 -61 7.5t-58 16t-72 26.5l-73 28q-13 5 -36.5 15t-38.5 14t-34 4q-33 0 -50 -26t-17 -64h-197v57q0 96 70 167t166 71q30 0 57 -4.5t42 -9.5t39.5 -15t35.5 -14l69 -27q12 -4 38.5 -16t46 -18.5t34.5 -6.5q33 0 49.5 25.5t16.5 64.5h196v-57
q0 -101 -58 -169.5t-165 -68.5zM621 -20q-150 0 -271.5 63t-193.5 185t-72 284q0 103 27 189.5t75.5 149t115.5 106.5t146.5 65.5t167.5 21.5q137 0 234.5 -42.5t150.5 -112.5v135h273v-1024h-273v129q-55 -70 -154.5 -109.5t-225.5 -39.5zM657 199h29q138 0 226.5 82.5
t88.5 230.5t-88.5 230.5t-226.5 82.5h-29q-134 0 -216.5 -82t-82.5 -231t82.5 -231t216.5 -82z" />
    <glyph glyph-name="i.loclTRK" horiz-adv-x="563" 
d="M428 1149h-293v285h293v-285zM418 0h-273v1024h273v-1024z" />
    <glyph glyph-name="y.ss04" horiz-adv-x="1290" 
d="M653 326l332 698h299l-553 -1161q-44 -92 -76.5 -142.5t-76 -82.5t-92.5 -42t-130 -10h-319v234h276q56 0 86 18t62 84l45 94l-504 1008h307z" />
    <glyph glyph-name="yacute.ss04" horiz-adv-x="1290" 
d="M680 1436h311l-246 -308h-198zM653 326l332 698h299l-553 -1161q-44 -92 -76.5 -142.5t-76 -82.5t-92.5 -42t-130 -10h-319v234h276q56 0 86 18t62 84l45 94l-504 1008h307z" />
    <glyph glyph-name="ycircumflex.ss04" horiz-adv-x="1290" 
d="M862 1128l-215 144l-219 -144h-229l317 308h256l320 -308h-230zM653 326l332 698h299l-553 -1161q-44 -92 -76.5 -142.5t-76 -82.5t-92.5 -42t-130 -10h-319v234h276q56 0 86 18t62 84l45 94l-504 1008h307z" />
    <glyph glyph-name="ydieresis.ss04" horiz-adv-x="1290" 
d="M276 1423h271v-268h-271v268zM741 1423h271v-268h-271v268zM653 326l332 698h299l-553 -1161q-44 -92 -76.5 -142.5t-76 -82.5t-92.5 -42t-130 -10h-319v234h276q56 0 86 18t62 84l45 94l-504 1008h307z" />
    <glyph glyph-name="ygrave.ss04" horiz-adv-x="1290" 
d="M616 1436l134 -308h-199l-246 308h311zM653 326l332 698h299l-553 -1161q-44 -92 -76.5 -142.5t-76 -82.5t-92.5 -42t-130 -10h-319v234h276q56 0 86 18t62 84l45 94l-504 1008h307z" />
    <glyph glyph-name="uni0233.ss04" horiz-adv-x="1290" 
d="M281 1372h727v-215h-727v215zM653 326l332 698h299l-553 -1161q-44 -92 -76.5 -142.5t-76 -82.5t-92.5 -42t-130 -10h-319v234h276q56 0 86 18t62 84l45 94l-504 1008h307z" />
    <glyph glyph-name="I_S_B_N" horiz-adv-x="5249" 
d="M4047 0h-283v872q0 275 164.5 428.5t486.5 153.5q321 0 491.5 -154.5t170.5 -427.5v-872h-283v856q0 171 -92.5 259.5t-269.5 88.5h-33q-172 0 -262 -88.5t-90 -259.5v-856zM1434 0h-1250v1434h283v-1184h956q139 0 192.5 37t53.5 106q0 71 -60.5 111.5t-211.5 64.5
l-223 37q-267 44 -375.5 143.5t-108.5 301.5q0 59 16 111.5t55 103t98.5 87.5t152 59t209.5 22h1800q130 0 235 -45t167.5 -132t62.5 -202q0 -117 -65.5 -203.5t-162.5 -122.5q114 -26 188.5 -116t74.5 -224q0 -175 -129 -282t-326 -107h-868v852h790q213 0 213 172
q0 73 -55 116.5t-158 43.5h-1747q-148 0 -207 -38t-59 -104q0 -70 54 -106.5t183 -56.5l230 -37q512 -83 512 -432q0 -410 -520 -410zM2480 602v-352h526q230 0 230 178q0 79 -60.5 126.5t-169.5 47.5h-526z" />
    <glyph glyph-name="a.sups" horiz-adv-x="772" 
d="M268 840q-87 0 -147 46.5t-60 125.5q0 76 55.5 123.5t155.5 56.5l205 20v17q0 67 -96 67h-8q-86 0 -101 -45h-190q5 88 82.5 140.5t216.5 52.5q137 0 215 -59.5t78 -178.5v-227q0 -74 8 -129h-182q-5 19 -8 74q-77 -84 -224 -84zM324 987h8q65 0 107 26t42 74v17
l-159 -19q-26 -3 -45 -16.5t-19 -32.5q0 -49 66 -49z" />
    <glyph glyph-name="a.sups.ss01" horiz-adv-x="878" 
d="M360 840q-120 0 -208.5 82t-88.5 221t89.5 220t212.5 81q128 0 206 -74v64h203v-584h-209v76q-30 -35 -82 -60.5t-123 -25.5zM410 1004h14q68 0 107.5 37t39.5 100t-40 102t-107 39h-14q-61 0 -99.5 -38t-38.5 -103q0 -63 38.5 -100t99.5 -37z" />
    <glyph glyph-name="b.sups" horiz-adv-x="878" 
d="M520 840q-133 0 -207 82v-72h-209v809h203v-297q74 82 213 82q126 0 210.5 -81t84.5 -222t-84.5 -221t-210.5 -80zM455 1004h12q59 0 99 36.5t40 100.5q0 62 -40.5 100.5t-98.5 38.5h-12q-67 0 -107.5 -38.5t-40.5 -100.5q0 -64 40 -100.5t108 -36.5z" />
    <glyph glyph-name="c.sups" horiz-adv-x="782" 
d="M412 840q-156 0 -252.5 77t-96.5 224t96.5 225t252.5 78q77 0 136 -19.5t94 -54t54.5 -73.5t26.5 -85h-207q-24 68 -110 68h-9q-66 0 -95.5 -39t-29.5 -100q0 -60 29.5 -98.5t95.5 -38.5h9q88 0 110 61h207q-8 -46 -27.5 -83.5t-55 -71t-93.5 -52t-135 -18.5z" />
    <glyph glyph-name="d.sups" horiz-adv-x="878" 
d="M358 840q-126 0 -210.5 80t-84.5 221t84.5 222t210.5 81q139 0 213 -82v297h203v-809h-209v72q-74 -82 -207 -82zM420 1004h12q59 0 99 36.5t40 100.5q0 62 -40.5 100.5t-98.5 38.5h-12q-67 0 -107.5 -38.5t-40.5 -100.5q0 -64 40 -100.5t108 -36.5z" />
    <glyph glyph-name="e.sups" horiz-adv-x="788" 
d="M401 840q-149 0 -244.5 82.5t-95.5 214.5q0 136 92.5 221.5t241.5 85.5q150 0 239 -88t89 -232v-28h-465q12 -107 139 -107h9q49 0 80.5 13.5t39.5 37.5h195q-11 -87 -98.5 -143.5t-221.5 -56.5zM258 1202h266q-9 90 -125 90h-8q-55 0 -91 -22.5t-42 -67.5z" />
    <glyph glyph-name="f.sups" horiz-adv-x="591" 
d="M373 850h-209v416h-125v168h125v43q0 182 182 182h246v-154h-174q-25 0 -35 -13.5t-10 -41.5v-16h188v-168h-188v-416z" />
    <glyph glyph-name="g.sups" horiz-adv-x="856" 
d="M393 584q-131 0 -219.5 52.5t-101.5 156.5h209q10 -27 40 -41.5t70 -14.5h12q152 0 152 119v92q-57 -90 -205 -90q-126 0 -206.5 80t-80.5 213t76.5 213t198.5 80q145 0 205 -96v86h209v-572q0 -115 -92 -196.5t-267 -81.5zM397 1018h15q61 0 96 35.5t35 99.5
q0 61 -35.5 96t-95.5 35h-15q-59 0 -92 -34t-33 -97q0 -64 33 -99.5t92 -35.5z" />
    <glyph glyph-name="h.sups" horiz-adv-x="862" 
d="M313 850h-209v809h209v-307q60 92 207 92q128 0 187 -75.5t59 -203.5v-315h-209v307q0 60 -28 92.5t-78 32.5h-9q-55 0 -92 -37.5t-37 -101.5v-293z" />
    <glyph glyph-name="i.sups" horiz-adv-x="417" 
d="M319 1505h-221v154h221v-154zM313 850h-209v584h209v-584z" />
    <glyph glyph-name="j.sups" horiz-adv-x="421" 
d="M322 1505h-222v154h222v-154zM133 614h-270v164h162q52 0 66.5 14.5t14.5 67.5v574h209v-641q0 -92 -44.5 -135.5t-137.5 -43.5z" />
    <glyph glyph-name="k.sups" horiz-adv-x="835" 
d="M309 850h-205v809h205v-426l228 201h256l-265 -238l277 -346h-264l-162 211l-70 -64v-147z" />
    <glyph glyph-name="l.sups" horiz-adv-x="417" 
d="M313 850h-209v809h209v-809z" />
    <glyph glyph-name="m.sups" horiz-adv-x="1253" 
d="M313 850h-209v584h209v-78q64 88 201 88q65 0 117 -26t80 -77q66 103 223 103q105 0 164 -64.5t59 -167.5v-362h-209v319q0 53 -26 82t-68 29h-8q-46 0 -78.5 -34t-32.5 -79v-317h-209v319q0 53 -26 82t-68 29h-8q-46 0 -78.5 -34t-32.5 -79v-317z" />
    <glyph glyph-name="n.sups" horiz-adv-x="862" 
d="M313 850h-209v584h209v-82q60 92 207 92q128 0 187 -75.5t59 -203.5v-315h-209v307q0 60 -28 92.5t-78 32.5h-9q-55 0 -92 -37.5t-37 -101.5v-293z" />
    <glyph glyph-name="o.sups" horiz-adv-x="815" 
d="M408 840q-158 0 -252.5 85.5t-94.5 215.5q0 131 94.5 217t252.5 86t252 -86t94 -217t-94 -216t-252 -85zM403 1004h9q62 0 97.5 36t35.5 101q0 66 -35.5 102.5t-97.5 36.5h-9q-62 0 -97.5 -36.5t-35.5 -102.5q0 -65 35.5 -101t97.5 -36z" />
    <glyph glyph-name="p.sups" horiz-adv-x="880" 
d="M309 625h-203v809h209v-72q74 82 207 82q126 0 210.5 -80t84.5 -221t-84.5 -222t-210.5 -81q-139 0 -213 82v-297zM459 1004h10q60 0 99.5 39.5t39.5 99.5q0 59 -39.5 98t-99.5 39h-10q-64 0 -107 -39t-43 -98q0 -60 42.5 -99.5t107.5 -39.5z" />
    <glyph glyph-name="q.sups" horiz-adv-x="880" 
d="M774 625h-203v297q-74 -82 -213 -82q-126 0 -210.5 81t-84.5 222t84.5 221t210.5 80q133 0 207 -82v72h209v-809zM412 1004h10q64 0 106.5 39.5t42.5 99.5q0 59 -42.5 98t-106.5 39h-10q-60 0 -100 -39t-40 -98q0 -60 40 -99.5t100 -39.5z" />
    <glyph glyph-name="r.sups" horiz-adv-x="600" 
d="M313 850h-209v584h215v-109q34 113 168 113h78v-176h-131q-121 0 -121 -144v-268z" />
    <glyph glyph-name="s.sups" horiz-adv-x="757" 
d="M383 840q-155 0 -236 50.5t-90 156.5h207q2 -31 31 -50.5t82 -19.5h8q92 0 92 41q0 18 -17.5 28.5t-56.5 18.5l-137 29q-85 18 -135.5 54.5t-50.5 106.5q0 64 43.5 108t108.5 62.5t145 18.5q297 0 317 -203h-202q-3 66 -109 66h-10q-86 0 -86 -37q0 -28 69 -41l148 -33
q90 -20 135 -59.5t45 -112.5q0 -66 -44 -109t-108.5 -59t-148.5 -16z" />
    <glyph glyph-name="t.sups" horiz-adv-x="636" 
d="M569 850h-217q-182 0 -182 182v234h-135v168h135v184h209v-184h172v-168h-172v-164q0 -52 14.5 -66t67.5 -14h108v-172z" />
    <glyph glyph-name="u.sups" horiz-adv-x="862" 
d="M342 840q-128 0 -187 72.5t-59 199.5v322h209v-314q0 -59 28 -89t79 -30h8q55 0 92 35.5t37 98.5v299h209v-584h-209v82q-60 -92 -207 -92z" />
    <glyph glyph-name="v.sups" horiz-adv-x="804" 
d="M537 850h-269l-258 584h219l179 -404l180 404h207z" />
    <glyph glyph-name="w.sups" horiz-adv-x="1077" 
d="M434 850h-182l-217 584h205l102 -312l113 312h192l109 -312l98 312h186l-215 -584h-161l-121 332z" />
    <glyph glyph-name="x.sups" horiz-adv-x="796" 
d="M260 850h-221l248 293l-246 291h223l135 -160l136 160h221l-246 -291l248 -293h-223l-138 162z" />
    <glyph glyph-name="y.sups" horiz-adv-x="800" 
d="M342 614h-268v164h172q42 0 57.5 12.5t15.5 45.5v41l-325 557h235l179 -332l178 332h221l-297 -508v-144q0 -88 -40 -128t-128 -40z" />
    <glyph glyph-name="y.sups.ss04" horiz-adv-x="788" 
d="M274 614h-245v164h180q21 0 33.5 1t20 6.5t9.5 7.5t6.5 14t6.5 16l20 43l-307 568h223l187 -349l163 349h215l-331 -703q-31 -64 -75.5 -90.5t-105.5 -26.5z" />
    <glyph glyph-name="z.sups" horiz-adv-x="776" 
d="M702 850h-626v133l309 283h-303v168h602v-138l-307 -278h325v-168z" />
    <glyph glyph-name="zero.zero" horiz-adv-x="1570" 
d="M784 1454q142 0 263 -45.5t214 -134t146 -231.5t53 -326t-52.5 -326t-145.5 -231.5t-214 -134t-264 -45.5t-263.5 45.5t-213 134t-144.5 231.5t-52 326t52.5 326t144.5 231.5t213 134t263 45.5zM799 1214h-29q-52 0 -102 -13.5t-101.5 -49t-89.5 -89.5t-62 -143t-24 -202
q0 -128 31 -223l616 630q-95 90 -239 90zM770 219h29q53 0 103 13.5t101.5 49t90 90t62.5 143.5t24 202t-27 213l-614 -627q96 -84 231 -84z" />
    <glyph glyph-name="zero.osf" horiz-adv-x="1425" 
d="M713 -20q-168 0 -307 66t-221.5 188.5t-82.5 277.5t83 277.5t222 188.5t306 66t305.5 -66t221.5 -188.5t83 -277.5t-82.5 -277.5t-221 -188.5t-306.5 -66zM709 199h14q136 0 231 83.5t95 229.5t-95 229.5t-231 83.5h-21q-136 0 -230.5 -83.5t-94.5 -229.5t97 -229.5
t235 -83.5z" />
    <glyph glyph-name="one.osf" horiz-adv-x="940" 
d="M764 0h-256v715l-420 -326v264l481 371h195v-1024z" />
    <glyph glyph-name="two.osf" horiz-adv-x="1163" 
d="M772 393l-313 -174h565v-219h-899v295l516 285q79 44 107 69.5t28 69.5q0 46 -50 76t-132 30h-16q-78 0 -131 -41.5t-54 -105.5h-272q0 154 131.5 260t333.5 106q208 0 336.5 -88.5t128.5 -228.5q0 -108 -65.5 -180.5t-213.5 -153.5z" />
    <glyph glyph-name="three.osf" horiz-adv-x="1370" 
d="M680 -430q-259 0 -423 113.5t-173 302.5h281q10 -93 93.5 -145t205.5 -52h26q132 0 213.5 56.5t81.5 150.5q0 91 -74.5 145t-205.5 54h-220v229h220q130 0 200 54.5t70 146.5q0 91 -77 145.5t-208 54.5h-26q-116 0 -194.5 -56.5t-84.5 -143.5h-276q5 181 163 300t408 119
q261 0 415 -107.5t154 -283.5q0 -56 -16 -105t-41.5 -85t-60.5 -66.5t-68.5 -50.5t-71.5 -35q111 -33 190 -116.5t79 -208.5q0 -192 -158 -304t-422 -112z" />
    <glyph glyph-name="four.osf" horiz-adv-x="1476" 
d="M1153 -410h-268v410h-805v260l766 764h307v-805h260v-219h-260v-410zM885 737l-523 -518h523v518z" />
    <glyph glyph-name="five.osf" horiz-adv-x="1351" 
d="M700 485q260 0 410 -121t150 -317q0 -217 -161 -346t-437 -129q-165 0 -294.5 46t-212 142t-94.5 232h277q18 -92 104.5 -146.5t204.5 -54.5h29q144 0 227.5 70.5t83.5 179.5q0 99 -83.5 162t-217.5 63h-29q-76 0 -150 -29t-114 -81h-280l174 870h934v-219h-734l-81 -397
q132 75 294 75z" />
    <glyph glyph-name="six.osf" 
d="M782 946q157 0 285.5 -58t205.5 -167.5t77 -249.5q0 -220 -169 -355.5t-438 -135.5q-295 0 -464.5 181.5t-169.5 508.5q0 169 57.5 316.5t154 249t226.5 160t272 58.5q226 0 373.5 -102.5t185.5 -286.5h-272q-24 79 -95.5 124.5t-179.5 45.5h-20q-164 0 -281.5 -118.5
t-154.5 -319.5q73 71 180 110t227 39zM737 199h21q133 0 225 72.5t92 189.5q0 118 -92 192t-225 74h-21q-131 0 -228 -75.5t-97 -188.5q0 -112 97 -188t228 -76z" />
    <glyph glyph-name="seven.osf" horiz-adv-x="1292" 
d="M39 805v219h1198v-240q-328 -162 -481.5 -438.5t-153.5 -714.5v-41h-274v60q0 398 153.5 692t421.5 463h-864z" />
    <glyph glyph-name="eight.osf" horiz-adv-x="1372" 
d="M686 -20q-235 0 -382.5 107t-147.5 284q0 117 77 205.5t175 119.5q-51 12 -101.5 40t-96 70.5t-73.5 106t-28 136.5q0 178 161 291.5t416 113.5q257 0 417.5 -112t160.5 -293q0 -73 -28 -136.5t-73.5 -106t-95 -70.5t-100.5 -40q97 -31 174.5 -119.5t77.5 -205.5
q0 -177 -148 -284t-385 -107zM672 813h28q135 0 212 55.5t77 155.5q0 97 -78 154t-211 57h-28q-133 0 -211 -57t-78 -154q0 -100 77 -155.5t212 -55.5zM672 199h28q112 0 178 54t66 138q0 94 -65 148.5t-179 54.5h-28q-112 0 -177 -54.5t-65 -148.5q0 -84 66 -138t176 -54z
" />
    <glyph glyph-name="nine.osf" horiz-adv-x="1445" 
d="M713 1047q295 0 465 -182t170 -509q0 -169 -57.5 -316.5t-154.5 -249t-227 -160t-272 -58.5q-226 0 -373.5 102.5t-185.5 286.5h272q24 -79 95.5 -124.5t179.5 -45.5h20q164 0 281.5 118.5t154.5 319.5q-73 -71 -180 -110t-227 -39q-157 0 -285.5 58t-205.5 167.5
t-77 249.5q0 220 169.5 356t437.5 136zM698 299h21q131 0 228 75.5t97 188.5q0 112 -97 188t-228 76h-21q-133 0 -225 -72.5t-92 -189.5q0 -118 92 -192t225 -74z" />
    <glyph glyph-name="zero.osf.zero" horiz-adv-x="1425" 
d="M713 1044q167 0 305.5 -66t221.5 -188.5t83 -277.5t-82.5 -277.5t-221 -188.5t-306.5 -66t-307 66t-221.5 188.5t-82.5 277.5t83 277.5t222 188.5t306 66zM723 825h-21q-136 0 -230.5 -83.5t-94.5 -229.5q0 -87 37 -156l454 441q-70 28 -145 28zM709 199h14
q136 0 231 83.5t95 229.5q0 87 -37 156l-453 -439q68 -30 150 -30z" />
    <glyph glyph-name="zero.tf" 
d="M737 -20q-133 0 -247.5 45.5t-203 134t-139.5 231.5t-51 326t51 326t140 231.5t203.5 134t246.5 45.5t246.5 -45.5t203.5 -134t140 -231.5t51 -326t-51 -326t-139.5 -231.5t-203 -134t-247.5 -45.5zM723 219h29q47 0 92.5 13.5t93 49t82.5 90t57.5 143.5t22.5 202
t-22.5 202t-57.5 143t-82.5 89.5t-92.5 49t-93 13.5h-29q-39 0 -76.5 -10t-78 -31.5t-74 -60t-61 -91.5t-43 -131t-15.5 -173q0 -113 22.5 -202t58 -143.5t83 -90t92.5 -49t92 -13.5z" />
    <glyph glyph-name="one.tf" 
d="M967 1434v-1184h407v-250h-1253v250h573v852l-389 -322v293l430 361h232z" />
    <glyph glyph-name="two.tf" 
d="M905 537l-461 -287h873v-250h-1159v365l604 376q146 92 205 154.5t59 136.5q0 82 -73.5 132t-196.5 50h-29q-120 0 -191.5 -65.5t-76.5 -163.5h-287q6 211 163 340t406 129q252 0 409 -109t157 -298q0 -82 -26.5 -151t-83 -131t-123.5 -113.5t-169 -114.5z" />
    <glyph glyph-name="three.tf" 
d="M731 -20q-264 0 -431.5 113t-176.5 302h287q14 -83 99 -129.5t204 -46.5h28q137 0 221.5 52t84.5 143q0 83 -78 133.5t-213 50.5h-205v240h205q135 0 207.5 52t72.5 140q0 83 -80 133.5t-215 50.5h-28q-111 0 -188.5 -51.5t-88.5 -128.5h-286q5 181 166 300.5t415 119.5
q267 0 426.5 -107.5t159.5 -283.5q0 -69 -22 -127t-60 -98t-79.5 -67t-90.5 -46q110 -32 186 -117t76 -209q0 -195 -162.5 -307t-433.5 -112z" />
    <glyph glyph-name="four.tf" 
d="M1102 1434v-906h264v-237h-264v-291h-273v291h-720v272l673 871h320zM829 1110l-450 -582h450v582z" />
    <glyph glyph-name="five.tf" 
d="M782 924q247 0 392 -130t145 -339q0 -218 -160 -346.5t-432 -128.5q-258 0 -418 107t-186 312h287q23 -85 105 -132.5t194 -47.5h28q139 0 220 64t81 166q0 105 -80.5 170t-209.5 65h-29q-77 0 -151 -31t-113 -90h-287l180 871h934v-250h-725l-70 -340q127 80 295 80z
" />
    <glyph glyph-name="six.tf" 
d="M778 975q111 0 207 -31.5t169.5 -91.5t116 -155t42.5 -214q0 -228 -156.5 -365.5t-415.5 -137.5q-137 0 -246 39.5t-189 119.5t-122.5 209t-42.5 301q0 226 86.5 410.5t238.5 289.5t337 105q229 0 370 -103.5t164 -285.5h-286q-12 62 -70 105.5t-166 43.5h-29
q-123 0 -221.5 -99.5t-138.5 -266.5q139 127 352 127zM721 219h29q119 0 199.5 68.5t80.5 185.5q0 130 -79 196t-201 66h-29q-116 0 -198.5 -66t-82.5 -194q0 -116 83 -186t198 -70z" />
    <glyph glyph-name="seven.tf" 
d="M80 1184v250h1300v-267q-694 -342 -694 -1126v-41h-280v59q0 190 45.5 363t128 313t189 252t235.5 197h-924z" />
    <glyph glyph-name="eight.tf" 
d="M737 -20q-237 0 -387.5 107t-150.5 282q0 120 75.5 208.5t178.5 118.5q-55 12 -106.5 40t-96.5 70.5t-72.5 106t-27.5 136.5q0 177 164 291t423 114q260 0 424 -112t164 -293q0 -73 -27.5 -136.5t-72.5 -106t-96.5 -70.5t-106.5 -40q103 -30 178.5 -118.5t75.5 -208.5
q0 -175 -151 -282t-388 -107zM723 823h29q134 0 213 54.5t79 144.5q0 93 -77.5 142.5t-214.5 49.5h-29q-137 0 -215 -50t-78 -142q0 -90 79.5 -144.5t213.5 -54.5zM723 219h29q111 0 177 51t66 131q0 82 -65.5 132.5t-177.5 50.5h-29q-112 0 -178 -50.5t-66 -132.5
q0 -79 66.5 -130.5t177.5 -51.5z" />
    <glyph glyph-name="nine.tf" 
d="M733 1454q137 0 246 -39.5t189 -120t122.5 -209.5t42.5 -301q0 -226 -86.5 -410.5t-238 -289t-336.5 -104.5q-229 0 -370.5 103.5t-164.5 285.5h287q12 -62 69.5 -106t165.5 -44h29q123 0 222 100t139 267q-139 -127 -353 -127q-111 0 -206.5 31.5t-169 91t-116 154.5
t-42.5 214q0 229 156.5 366.5t414.5 137.5zM725 698h29q116 0 198 66t82 194q0 117 -82.5 186.5t-197.5 69.5h-29q-119 0 -200 -68t-81 -185q0 -130 79.5 -196.5t201.5 -66.5z" />
    <glyph glyph-name="zero.tf.zero" 
d="M737 1454q132 0 246.5 -45.5t203.5 -134t140 -231.5t51 -326t-51 -326t-139.5 -231.5t-203 -134t-247.5 -45.5t-247.5 45.5t-203 134t-139.5 231.5t-51 326t51 326t140 231.5t203.5 134t246.5 45.5zM752 1214h-29q-39 0 -76.5 -10t-78 -31.5t-74 -60t-61 -91.5t-43 -131
t-15.5 -173q0 -107 18 -187l594 578q-93 106 -235 106zM723 219h29q47 0 92.5 13.5t93 49t82.5 90t57.5 143.5t22.5 202q0 89 -17 176l-589 -571q95 -103 229 -103z" />
    <glyph glyph-name="zero.subs" horiz-adv-x="929" 
d="M465 -246q-99 0 -175.5 35t-121.5 94.5t-67.5 131.5t-22.5 153t22.5 153.5t67.5 132.5t121.5 95t175.5 35t175.5 -35t121.5 -95t67.5 -132.5t22.5 -153.5t-22.5 -153t-67.5 -131.5t-121.5 -94.5t-175.5 -35zM461 -57h8q79 0 120.5 58.5t41.5 166.5t-41.5 167.5
t-120.5 59.5h-8q-79 0 -120.5 -59.5t-41.5 -167.5t41.5 -166.5t120.5 -58.5z" />
    <glyph glyph-name="one.subs" horiz-adv-x="686" 
d="M559 -236h-215v551l-285 -182v229l318 211h182v-809z" />
    <glyph glyph-name="two.subs" horiz-adv-x="843" 
d="M752 -233h-668v172l342 274q62 49 78 71q18 24 18 48q0 32 -28.5 53t-77.5 21h-8q-45 0 -76 -26.5t-33 -62.5h-219q7 122 104.5 195.5t245.5 73.5q75 0 138 -22t102.5 -56.5t61.5 -75.5t22 -82q0 -73 -41.5 -128t-132.5 -128l-185 -145l357 2v-184z" />
    <glyph glyph-name="three.subs" horiz-adv-x="845" 
d="M410 -244q-144 0 -242 64t-98 176h221q1 -27 36.5 -44.5t80.5 -17.5h10q56 0 88.5 22t32.5 58q0 35 -32 54.5t-87 19.5h-107v172h107q54 0 83 20t29 54q0 33 -27.5 53.5t-80.5 20.5h-10q-42 0 -73 -17t-36 -41h-221q0 111 97 173.5t239 62.5q89 0 164 -26t122.5 -80
t47.5 -126q0 -134 -129 -178q135 -51 135 -190q0 -109 -103 -169.5t-247 -60.5z" />
    <glyph glyph-name="four.subs" horiz-adv-x="897" 
d="M700 -236h-198v127h-443v224l398 458h243v-510h129v-172h-129v-127zM502 344l-256 -281h256v281z" />
    <glyph glyph-name="five.subs" horiz-adv-x="851" 
d="M410 -246q-143 0 -241 70t-108 186h230q11 -32 46 -54t79 -22h8q56 0 91.5 29t35.5 70q0 42 -33.5 68t-89.5 26h-8q-33 0 -64.5 -9.5t-44.5 -25.5h-221l90 481h578v-180h-418l-29 -137q65 47 170 47q114 0 200.5 -69.5t86.5 -190.5q0 -133 -98 -211t-260 -78z" />
    <glyph glyph-name="six.subs" horiz-adv-x="880" 
d="M449 -246q-169 0 -270 102t-101 273q0 209 110 332t289 123q147 0 231 -67.5t95 -176.5h-213q-10 28 -38.5 45.5t-72.5 17.5h-12q-73 0 -124 -56.5t-60 -137.5q76 82 211 82q127 0 212 -71.5t85 -182.5q0 -124 -95.5 -203.5t-246.5 -79.5zM438 -66h8q55 0 91 27.5
t36 67.5q0 39 -35.5 63.5t-91.5 24.5h-8q-52 0 -89.5 -26t-37.5 -64q0 -40 36 -66.5t91 -26.5z" />
    <glyph glyph-name="seven.subs" horiz-adv-x="763" 
d="M418 -236h-232v27q0 188 62.5 318.5t232.5 279.5h-430v184h674v-159q-177 -146 -242 -282t-65 -331v-37z" />
    <glyph glyph-name="eight.subs" horiz-adv-x="858" 
d="M430 -246q-148 0 -242 62t-94 159q0 67 42.5 117t119.5 70q-174 54 -174 200q0 97 101.5 159.5t246.5 62.5t245.5 -62.5t100.5 -159.5q0 -147 -176 -200q78 -20 120 -70t42 -117q0 -97 -92.5 -159t-239.5 -62zM424 252h10q56 0 90.5 20t34.5 56t-34.5 55.5t-90.5 19.5
h-10q-58 0 -91.5 -19.5t-33.5 -55.5t33.5 -56t91.5 -20zM424 -66h10q50 0 80.5 20t30.5 52t-31 53t-80 21h-10q-52 0 -82.5 -20.5t-30.5 -53.5t30.5 -52.5t82.5 -19.5z" />
    <glyph glyph-name="nine.subs" horiz-adv-x="878" 
d="M401 -244q-147 0 -230.5 67.5t-94.5 176.5h213q10 -28 38 -45.5t72 -17.5h13q73 0 124 56.5t60 137.5q-76 -82 -211 -82q-127 0 -212 71.5t-85 182.5q0 124 95.5 203.5t246.5 79.5q169 0 270 -102t101 -273q0 -209 -110.5 -332t-289.5 -123zM432 223h8q52 0 89.5 26
t37.5 64q0 40 -36 66.5t-91 26.5h-8q-55 0 -91 -27.5t-36 -67.5q0 -39 35.5 -63.5t91.5 -24.5z" />
    <glyph glyph-name="zero.subs.zero" horiz-adv-x="929" 
d="M465 584q99 0 175.5 -35t121.5 -95t67.5 -132.5t22.5 -153.5t-22.5 -153t-67.5 -131.5t-121.5 -94.5t-175.5 -35t-175.5 35t-121.5 94.5t-67.5 131.5t-22.5 153t22.5 153.5t67.5 132.5t121.5 95t175.5 35zM469 395h-8q-79 0 -120.5 -59.5t-41.5 -167.5q0 -10 1 -29t1 -26
l270 243q-42 39 -102 39zM461 -57h8q79 0 120.5 58.5t41.5 166.5q0 37 -2 53l-269 -244q40 -34 101 -34z" />
    <glyph glyph-name="zero.dnom" horiz-adv-x="929" 
d="M465 -10q-80 0 -145.5 23t-109.5 62t-74.5 92.5t-44 112.5t-13.5 123q0 81 22.5 153.5t67.5 132.5t121.5 95t175.5 35t175.5 -35t121.5 -95t67.5 -132.5t22.5 -153.5q0 -64 -13.5 -123t-44 -112.5t-74.5 -92.5t-109.5 -62t-145.5 -23zM461 178h8q79 0 120.5 58.5
t41.5 166.5t-41.5 168t-120.5 60h-8q-79 0 -120.5 -60t-41.5 -168t41.5 -166.5t120.5 -58.5z" />
    <glyph glyph-name="one.dnom" horiz-adv-x="686" 
d="M561 0h-215v551l-285 -182v229l318 211h182v-809z" />
    <glyph glyph-name="two.dnom" horiz-adv-x="843" 
d="M752 0h-668v172l342 274q62 49 78 71q18 24 18 48q0 32 -28.5 53t-77.5 21h-8q-45 0 -76 -26t-33 -62h-219q7 122 104.5 195t245.5 73q147 0 235.5 -73.5t88.5 -161.5q0 -73 -41.5 -128t-132.5 -128l-185 -146l357 2v-184z" />
    <glyph glyph-name="three.dnom" horiz-adv-x="845" 
d="M410 -10q-144 0 -242 63.5t-98 175.5h221q1 -27 36.5 -44t80.5 -17h10q56 0 88.5 22t32.5 58q0 35 -32 54.5t-87 19.5h-107v172h107q55 0 83.5 19.5t28.5 53.5q0 33 -27.5 53.5t-80.5 20.5h-10q-42 0 -73 -16.5t-36 -40.5h-221q0 111 97 173t239 62q138 0 236 -62
t98 -169q0 -134 -129 -178q135 -51 135 -191q0 -74 -51 -127t-129 -77.5t-170 -24.5z" />
    <glyph glyph-name="four.dnom" horiz-adv-x="897" 
d="M700 0h-198v127h-443v223l398 459h243v-510h129v-172h-129v-127zM502 580l-256 -281h256v281z" />
    <glyph glyph-name="five.dnom" horiz-adv-x="851" 
d="M410 -10q-143 0 -241 70t-108 186h230q11 -32 46 -54t79 -22h8q56 0 91.5 28.5t35.5 69.5q0 42 -33.5 68t-89.5 26h-8q-82 0 -109 -34h-221l90 481h578v-180h-418l-29 -137q65 47 170 47q114 0 200.5 -69.5t86.5 -190.5q0 -133 -98 -211t-260 -78z" />
    <glyph glyph-name="six.dnom" horiz-adv-x="880" 
d="M451 -10q-169 0 -270 102t-101 273q0 209 110 331.5t289 122.5q147 0 231 -67.5t95 -176.5h-213q-10 28 -38.5 46t-72.5 18h-12q-73 0 -124 -57t-60 -138q76 82 211 82q127 0 212 -71.5t85 -182.5q0 -124 -95 -203t-247 -79zM440 170h9q55 0 90.5 27t35.5 67t-35 64
t-91 24h-9q-52 0 -89.5 -26t-37.5 -64q0 -40 36 -66t91 -26z" />
    <glyph glyph-name="seven.dnom" horiz-adv-x="763" 
d="M416 0h-232v27q0 188 62.5 318.5t232.5 279.5h-430v184h674v-160q-177 -146 -242 -281.5t-65 -330.5v-37z" />
    <glyph glyph-name="eight.dnom" horiz-adv-x="858" 
d="M430 -10q-148 0 -242 62t-94 159q0 67 42.5 116.5t119.5 69.5q-174 54 -174 201q0 96 101.5 158.5t246.5 62.5t245.5 -62t100.5 -159q0 -148 -176 -201q78 -20 120 -69.5t42 -116.5q0 -97 -92.5 -159t-239.5 -62zM424 487h10q56 0 90.5 20t34.5 56t-34.5 56t-90.5 20h-10
q-58 0 -91.5 -20t-33.5 -56t33.5 -56t91.5 -20zM424 170h10q50 0 80.5 20t30.5 52t-31 52.5t-80 20.5h-10q-52 0 -82.5 -20t-30.5 -53t30.5 -52.5t82.5 -19.5z" />
    <glyph glyph-name="nine.dnom" horiz-adv-x="878" 
d="M401 -8q-147 0 -230.5 67.5t-94.5 176.5h213q10 -28 38 -46t72 -18h13q73 0 124 57t60 138q-76 -82 -211 -82q-127 0 -212 71.5t-85 182.5q0 124 95 203t247 79q169 0 270 -102t101 -273q0 -208 -110.5 -331t-289.5 -123zM432 459h8q52 0 89.5 26t37.5 64q0 40 -36 66
t-91 26h-8q-55 0 -91 -27t-36 -67q0 -39 35.5 -63.5t91.5 -24.5z" />
    <glyph glyph-name="zero.dnom.zero" horiz-adv-x="929" 
d="M465 819q99 0 175.5 -35t121.5 -95t67.5 -132.5t22.5 -153.5q0 -64 -13.5 -123t-44 -112.5t-74.5 -92.5t-109.5 -62t-145.5 -23t-145.5 23t-109.5 62t-74.5 92.5t-44 112.5t-13.5 123q0 81 22.5 153.5t67.5 132.5t121.5 95t175.5 35zM469 631h-8q-79 0 -120.5 -60
t-41.5 -168q0 -11 1 -29t1 -26l270 244q-42 39 -102 39zM461 178h8q79 0 120.5 58.5t41.5 166.5q0 38 -2 54l-269 -244q41 -35 101 -35z" />
    <glyph glyph-name="zero.numr" horiz-adv-x="929" 
d="M465 614q-99 0 -175.5 35t-121.5 94.5t-67.5 131.5t-22.5 153t22.5 153.5t67.5 132.5t121.5 95t175.5 35t175.5 -35t121.5 -95t67.5 -132.5t22.5 -153.5t-22.5 -153t-67.5 -131.5t-121.5 -94.5t-175.5 -35zM461 803h8q79 0 120.5 58.5t41.5 166.5t-41.5 167.5
t-120.5 59.5h-8q-79 0 -120.5 -59.5t-41.5 -167.5t41.5 -166.5t120.5 -58.5z" />
    <glyph glyph-name="one.numr" horiz-adv-x="686" 
d="M559 625h-215v551l-285 -183v230l318 211h182v-809z" />
    <glyph glyph-name="two.numr" horiz-adv-x="843" 
d="M752 625h-668v172l342 274q62 49 78 71q18 24 18 48q0 32 -28.5 53t-77.5 21h-8q-45 0 -76 -26t-33 -62h-219q7 122 104.5 195t245.5 73q75 0 138 -22t102.5 -56.5t61.5 -75.5t22 -82q0 -73 -41.5 -128t-132.5 -128l-185 -145l357 2v-184z" />
    <glyph glyph-name="three.numr" horiz-adv-x="845" 
d="M410 614q-144 0 -242 64t-98 176h221q1 -27 36.5 -44t80.5 -17h10q56 0 88.5 21.5t32.5 57.5q0 35 -32 54.5t-87 19.5h-107v172h107q54 0 83 20t29 54q0 33 -27.5 53.5t-80.5 20.5h-10q-42 0 -73 -17t-36 -41h-221q0 111 97 173.5t239 62.5q89 0 164 -26t122.5 -80
t47.5 -126q0 -134 -129 -178q135 -51 135 -190q0 -109 -103 -169.5t-247 -60.5z" />
    <glyph glyph-name="four.numr" horiz-adv-x="897" 
d="M700 625h-198v127h-443v223l398 459h243v-510h129v-172h-129v-127zM502 1204l-256 -280h256v280z" />
    <glyph glyph-name="five.numr" horiz-adv-x="851" 
d="M408 614q-143 0 -241 70t-108 186h230q11 -32 45.5 -53.5t79.5 -21.5h8q56 0 91.5 28.5t35.5 69.5q0 42 -33.5 68t-89.5 26h-8q-33 0 -64.5 -9.5t-44.5 -25.5h-221l90 482h578v-181h-418l-29 -137q65 47 170 47q114 0 200.5 -69.5t86.5 -190.5q0 -133 -98 -211t-260 -78z
" />
    <glyph glyph-name="six.numr" horiz-adv-x="880" 
d="M449 614q-169 0 -270 102t-101 273q0 209 110 332t289 123q147 0 231 -67.5t95 -176.5h-213q-10 28 -38.5 46t-72.5 18h-12q-73 0 -124 -57t-60 -138q76 82 211 82q127 0 212 -71.5t85 -182.5q0 -124 -95.5 -203.5t-246.5 -79.5zM438 795h8q55 0 91 27t36 67
q0 39 -35.5 63.5t-91.5 24.5h-8q-52 0 -89.5 -26t-37.5 -64q0 -40 36 -66t91 -26z" />
    <glyph glyph-name="seven.numr" horiz-adv-x="763" 
d="M416 625h-232v26q0 188 62.5 318.5t232.5 279.5h-430v185h674v-160q-177 -146 -242 -281.5t-65 -330.5v-37z" />
    <glyph glyph-name="eight.numr" horiz-adv-x="858" 
d="M430 614q-147 0 -241.5 62.5t-94.5 159.5q0 67 42.5 116.5t119.5 69.5q-174 54 -174 201q0 96 101.5 158.5t246.5 62.5t245.5 -62t100.5 -159q0 -148 -176 -201q78 -20 120 -69.5t42 -116.5q0 -97 -92.5 -159.5t-239.5 -62.5zM424 1112h10q56 0 90.5 20t34.5 56t-34.5 56
t-90.5 20h-10q-58 0 -91.5 -20t-33.5 -56t33.5 -56t91.5 -20zM424 795h10q50 0 80.5 19.5t30.5 51.5t-31 53t-80 21h-10q-52 0 -82.5 -20.5t-30.5 -53.5q0 -32 30.5 -51.5t82.5 -19.5z" />
    <glyph glyph-name="nine.numr" horiz-adv-x="878" 
d="M401 616q-147 0 -230.5 67.5t-94.5 176.5h213q10 -28 38 -45.5t72 -17.5h13q73 0 124 56.5t60 137.5q-76 -82 -211 -82q-127 0 -212 71.5t-85 182.5q0 124 95.5 203.5t246.5 79.5q169 0 270 -102t101 -273q0 -209 -110.5 -332t-289.5 -123zM432 1083h8q52 0 89.5 26.5
t37.5 64.5q0 40 -36 66t-91 26h-8q-55 0 -91 -27.5t-36 -67.5q0 -39 35.5 -63.5t91.5 -24.5z" />
    <glyph glyph-name="zero.numr.zero" horiz-adv-x="929" 
d="M465 1444q99 0 175.5 -35t121.5 -95t67.5 -132.5t22.5 -153.5t-22.5 -153t-67.5 -131.5t-121.5 -94.5t-175.5 -35t-175.5 35t-121.5 94.5t-67.5 131.5t-22.5 153t22.5 153.5t67.5 132.5t121.5 95t175.5 35zM469 1255h-8q-79 0 -120.5 -59.5t-41.5 -167.5q0 -10 1 -29
t1 -26l270 244q-41 38 -102 38zM461 803h8q79 0 120.5 58.5t41.5 166.5q0 37 -2 53l-269 -243q41 -35 101 -35z" />
    <glyph glyph-name="uni2070.zero" horiz-adv-x="929" 
d="M465 1669q99 0 175.5 -35t121.5 -95t67.5 -132.5t22.5 -153.5q0 -64 -13.5 -123t-44 -112.5t-74.5 -92.5t-109.5 -62t-145.5 -23t-145.5 23t-109.5 62t-74.5 92.5t-44 112.5t-13.5 123q0 81 22.5 153.5t67.5 132.5t121.5 95t175.5 35zM469 1481h-8q-79 0 -120.5 -60
t-41.5 -168q0 -11 1 -29t1 -26l270 244q-42 39 -102 39zM461 1028h8q79 0 120.5 58.5t41.5 166.5q0 38 -2 54l-269 -244q41 -35 101 -35z" />
    <glyph glyph-name="exclamdown.case" horiz-adv-x="653" 
d="M164 1434h328v-301h-328v301zM254 1044h143l70 -563v-481h-283v481z" />
    <glyph glyph-name="questiondown.case" horiz-adv-x="1157" 
d="M592 1436h328v-301h-328v301zM623 1026h264v-219q0 -260 -240 -260h-125q-78 0 -125 -42t-47 -110q0 -62 46 -102.5t134 -40.5h541v-250h-559q-201 0 -320.5 107t-119.5 284q0 174 124.5 283.5t333.5 109.5h2q50 0 70.5 16.5t20.5 55.5v168z" />
    <glyph glyph-name="question.ss06" horiz-adv-x="1206" 
d="M639 410h-272v176q0 104 32.5 152t126.5 87l160 68q11 6 47.5 24.5t49 27t34 27t29.5 40t8 49.5q0 70 -62 111.5t-190 41.5q-123 0 -184 -39.5t-76 -130.5h-272q7 128 83.5 223t193 141t255.5 46q239 0 385 -103.5t146 -281.5q0 -62 -18.5 -115.5t-45.5 -90.5t-68.5 -70
t-77 -52.5t-81.5 -40.5l-146 -65q-38 -22 -47.5 -38t-9.5 -58v-129zM666 0h-328v301h328v-301z" />
    <glyph glyph-name="questiondown.ss06" horiz-adv-x="1193" 
d="M535 1024h327v-301h-327v301zM561 614h273v-176q0 -104 -33 -152t-127 -87l-160 -68q-11 -6 -47.5 -24.5t-49 -27t-34 -27t-29.5 -40t-8 -49.5q0 -70 62 -111.5t190 -41.5q123 0 184 39.5t76 130.5h272q-7 -128 -83.5 -223t-193 -141t-255.5 -46q-239 0 -384.5 103.5
t-145.5 281.5q0 77 25.5 139t72 105.5t90.5 71t102 53.5l146 65q38 22 47.5 38t9.5 58v129z" />
    <glyph glyph-name="questiondown.ss06.case" horiz-adv-x="1208" 
d="M541 1434h327v-301h-327v301zM567 1024h273v-176q0 -104 -33 -152.5t-127 -87.5l-160 -67q-11 -6 -47.5 -24.5t-49 -27t-34 -27t-29.5 -40t-8 -49.5q0 -70 62 -112t190 -42q123 0 184 39.5t76 130.5h273q-7 -128 -84 -223t-193.5 -140.5t-255.5 -45.5
q-239 0 -384.5 103.5t-145.5 281.5q0 62 18.5 115.5t45.5 90t68.5 69.5t77 52.5t81.5 40.5l145 66q38 22 47.5 38t9.5 58v129z" />
    <glyph glyph-name="period.tf" 
d="M901 0h-328v301h328v-301z" />
    <glyph glyph-name="comma.tf" 
d="M623 -307h-125v157h114q123 0 123 130v20h-160v301h328v-332q0 -114 -74.5 -195t-205.5 -81z" />
    <glyph glyph-name="colon.tf" 
d="M901 723h-328v301h328v-301zM901 0h-328v301h328v-301z" />
    <glyph glyph-name="semicolon.tf" 
d="M909 723h-327v301h327v-301zM629 -307h-125v157h114q123 0 123 130v20h-159v301h327v-332q0 -114 -74.5 -195t-205.5 -81z" />
    <glyph glyph-name="numbersign.tf" 
d="M1403 1106v-240h-244l-78 -303h236v-239h-297l-84 -324h-252l84 324h-246l-84 -324h-252l84 324h-200v239h262l78 303h-252v240h313l84 328h252l-84 -328h246l84 328h252l-84 -328h182zM584 563h245l78 303h-245z" />
    <glyph glyph-name="parenleft.case" horiz-adv-x="876" 
d="M764 240v-260q-183 9 -335 110.5t-238.5 267t-86.5 357.5t86.5 358.5t238.5 269t335 111.5v-260q-81 -17 -149 -53.5t-121.5 -93.5t-84 -141.5t-30.5 -188.5q0 -202 108 -323t277 -154z" />
    <glyph glyph-name="parenright.case" horiz-adv-x="876" 
d="M113 1194v260q183 -9 335 -110.5t238 -267t86 -357.5t-86 -358.5t-238 -269t-335 -111.5v260q81 17 149 53.5t121.5 93.5t84 141.5t30.5 188.5q0 202 -108 323t-277 154z" />
    <glyph glyph-name="braceleft.case" horiz-adv-x="927" 
d="M815 0h-260q-138 0 -206 78t-68 239v99q0 77 -22 105t-83 28h-72v336h72q61 0 83 28t22 105v98q0 161 68 239.5t206 78.5h260v-250h-143q-77 0 -99 -24t-22 -109v-140q0 -95 -46 -134.5t-128 -39.5v-39q174 0 174 -176v-139q0 -85 22 -109t99 -24h143v-250z" />
    <glyph glyph-name="braceright.case" horiz-adv-x="927" 
d="M113 1436h260q138 0 206 -78.5t68 -239.5v-98q0 -77 22 -105t83 -28h71v-336h-71q-61 0 -83 -28t-22 -105v-99q0 -161 -68 -239t-206 -78h-260v250h143q77 0 99 24t22 109v139q0 95 46 134.5t128 39.5v39q-174 0 -174 176v140q0 85 -22 109t-99 24h-143v250z" />
    <glyph glyph-name="bracketleft.case" horiz-adv-x="821" 
d="M707 0h-517v1434h517v-250h-246v-934h246v-250z" />
    <glyph glyph-name="bracketright.case" horiz-adv-x="821" 
d="M115 1434h516v-1434h-516v250h245v934h-245v250z" />
    <glyph glyph-name="edgeleft.case" horiz-adv-x="915" 
d="M803 0h-297q-131 0 -223.5 78.5t-92.5 193.5q0 77 31.5 130.5t79.5 78.5q-92 13 -146.5 79.5t-54.5 158.5v2q0 92 54 150.5t149 70.5q-48 27 -80.5 85t-32.5 136q0 116 87 193.5t217 77.5h309v-215h-238q-44 0 -74 -20.5t-30 -59.5v-2q0 -44 29.5 -68.5t74.5 -24.5h94
v-215h-159q-61 0 -95 -28.5t-34 -79.5v-2q0 -49 34 -82t95 -33h159v-215h-94q-45 0 -74.5 -23t-29.5 -65v-2q0 -40 29.5 -62t74.5 -22h238v-215z" />
    <glyph glyph-name="edgeright.case" horiz-adv-x="915" 
d="M113 1434h297q131 0 223 -79t92 -194q0 -77 -31.5 -130.5t-79.5 -78.5q92 -13 146.5 -79t54.5 -158v-2q0 -92 -54 -150.5t-149 -70.5q48 -27 80.5 -85.5t32.5 -136.5q0 -116 -86.5 -193t-216.5 -77h-309v215h237q45 0 75 20.5t30 59.5v2q0 44 -30 68t-75 24h-94v215h160
q61 0 95 29t34 80v2q0 49 -34 81.5t-95 32.5h-160v215h94q45 0 75 23.5t30 65.5v2q0 40 -30 62t-75 22h-237v215z" />
    <glyph glyph-name="hyphen.case" horiz-adv-x="970" 
d="M823 606h-676v223h676v-223z" />
    <glyph glyph-name="uni00AD.case" horiz-adv-x="970" 
d="M823 606h-676v223h676v-223z" />
    <glyph glyph-name="endash.case" horiz-adv-x="1421" 
d="M1274 606h-1127v223h1127v-223z" />
    <glyph glyph-name="emdash.case" horiz-adv-x="2199" 
d="M2052 606h-1905v223h1905v-223z" />
    <glyph glyph-name="uni2015.case" horiz-adv-x="2199" 
d="M2052 606h-1905v223h1905v-223z" />
    <glyph glyph-name="guillemotleft.case" horiz-adv-x="1374" 
d="M432 1157h305l-327 -438l331 -443h-309l-338 441zM1237 1157l-328 -438l332 -443h-309l-338 441l338 440h305z" />
    <glyph glyph-name="guillemotright.case" horiz-adv-x="1374" 
d="M133 1157h309l338 -440l-338 -441h-305l328 439zM633 1157h309l338 -440l-338 -441h-305l328 439z" />
    <glyph glyph-name="guilsinglleft.case" horiz-adv-x="874" 
d="M737 1157l-327 -438l331 -443h-309l-338 441l338 440h305z" />
    <glyph glyph-name="guilsinglright.case" horiz-adv-x="874" 
d="M137 1157h305l338 -440l-338 -441h-309l332 443z" />
    <glyph glyph-name="space.tf" 
 />
    <glyph glyph-name="uni20BF.tf" 
d="M1450 389q0 -156 -109 -260t-278 -125v-250h-209v246h-246v-246h-209v246h-252v1434h252v245h209v-245h246v245h209v-254q158 -25 255 -123t97 -247q0 -117 -64.5 -203.5t-162.5 -122.5q115 -26 188.5 -115.5t73.5 -224.5zM1130 1024q0 72 -53 116t-145 44h-502v-332h502
q95 0 146.5 43.5t51.5 128.5zM430 250h516q101 0 160 48t59 130q0 86 -57.5 130t-161.5 44h-516v-352z" />
    <glyph glyph-name="cent.tf" 
d="M915 799l-118 -600q86 4 146.5 48.5t78.5 110.5h276q-25 -167 -169.5 -272.5t-360.5 -105.5h-14l-45 -226h-213l49 254q-180 50 -273.5 182t-93.5 322q0 227 154 376.5t418 155.5l45 226h213l-50 -248q142 -39 231.5 -131.5t108.5 -224.5h-276q-18 89 -107 133zM453 512
q0 -88 35.5 -160t103.5 -112l115 583q-122 -17 -188 -104t-66 -207z" />
    <glyph glyph-name="currency.tf" 
d="M1278 682q0 -132 -70 -244l170 -162l-166 -165l-172 163q-140 -81 -307 -81q-169 0 -299 79l-170 -161l-166 165l164 158q-72 115 -72 248q0 128 68 236l-160 159l166 166l166 -160q137 78 303 78q174 0 309 -80l170 162l166 -166l-164 -164q64 -106 64 -231zM727 408h14
q130 0 208.5 74.5t78.5 199.5q0 119 -78.5 190.5t-208.5 71.5h-14q-131 0 -210 -72t-79 -190q0 -124 79 -199t210 -75z" />
    <glyph glyph-name="dollar.tf" 
d="M924 1174l-62 -332q451 -82 451 -439q0 -204 -145.5 -313.5t-417.5 -109.5h-48l-43 -226h-215l48 256q-175 48 -271.5 167t-99.5 304h268q6 -158 150 -219l65 348q-217 43 -314 140t-97 280q0 85 32.5 159.5t97 134.5t172 95t246.5 35h21l41 225h215l-47 -254
q164 -47 258 -161.5t108 -280.5h-266q-18 137 -147 191zM653 879l62 325q-125 -1 -195.5 -45t-70.5 -110q0 -73 48 -111t156 -59zM748 229h14q150 0 221.5 44.5t71.5 119.5q0 70 -55 112.5t-181 65.5l-8 2z" />
    <glyph glyph-name="Euro.tf" 
d="M821 219h19q237 0 264 232h280q-22 -221 -167 -346t-381 -125q-186 0 -322.5 87.5t-208.5 251.5l-219 -45v230l158 33q-11 76 -13 135l-145 -31v229l160 31q41 260 197 406.5t393 146.5q236 0 381 -125t167 -346h-280q-27 231 -264 231h-19q-104 0 -176 -65.5
t-106 -187.5l424 83v-225l-455 -92v-10q0 -65 6 -127l363 74v-226l-302 -61q82 -158 246 -158z" />
    <glyph glyph-name="florin.tf" 
d="M1212 1194h-188q-81 0 -112.5 -30t-43.5 -109l-14 -97h301v-233h-338l-112 -745q-32 -208 -124.5 -299t-277.5 -91h-207v240h166q84 0 119 31t47 108l117 756h-223v233h260l12 86q33 210 120 300t267 90h231v-240z" />
    <glyph glyph-name="sterling.tf" 
d="M565 240h785v-240h-1205v240h107q65 0 94 28t35 94l18 177l-254 -54v226l277 57l24 236q25 238 126.5 334t330.5 96h344v-240h-350q-90 0 -129 -42t-51 -159l-17 -166l295 62v-225l-319 -68l-21 -193q-7 -60 -24.5 -95.5t-65.5 -67.5z" />
    <glyph glyph-name="uni20A9.tf" 
d="M1372 801h92v-189h-118l-84 -612h-359l-96 612h-139l-95 -612h-360l-84 612h-119v189h92l-86 633h263l75 -633h121l96 633h338l101 -633h123l69 633h256zM737 1069l-41 -268h82zM377 612l31 -254l38 254h-69zM1038 612l43 -268l31 268h-74z" />
    <glyph glyph-name="yen.tf" 
d="M1147 1434h323l-395 -545l195 39v-226l-385 -75l-2 -2v-127l325 63v-225l-325 -64v-272h-283v217l-328 -63v225l328 63v127l-389 -75v225l278 55l-479 660h326l407 -570z" />
    <glyph glyph-name="plus.case" horiz-adv-x="1316" 
d="M795 221h-273v379h-430v236h430v378h273v-378h430v-236h-430v-379z" />
    <glyph glyph-name="minus.case" horiz-adv-x="1429" 
d="M1282 600h-1135v236h1135v-236z" />
    <glyph glyph-name="multiply.case" horiz-adv-x="1263" 
d="M813 713l328 -285l-158 -182l-354 307l-350 -305l-156 178l328 285l-330 286l158 181l354 -308l352 306l154 -179z" />
    <glyph glyph-name="divide.case" horiz-adv-x="1359" 
d="M823 928h-286v276h286v-276zM1247 600h-1134v236h1134v-236zM823 231h-286v277h286v-277z" />
    <glyph glyph-name="equal.case" horiz-adv-x="1470" 
d="M1323 805h-1176v235h1176v-235zM1323 395h-1176v236h1176v-236z" />
    <glyph glyph-name="notequal.case" horiz-adv-x="1503" 
d="M1339 1040v-235h-417l-76 -174h493v-236h-598l-75 -174h-265l76 174h-313v236h418l75 174h-493v235h598l76 174h264l-76 -174h313z" />
    <glyph glyph-name="greater.case" horiz-adv-x="1296" 
d="M168 915v273l1034 -348v-246l-1034 -348v266l663 203z" />
    <glyph glyph-name="less.case" horiz-adv-x="1296" 
d="M94 838l1034 348v-266l-663 -201l663 -203v-272l-1034 348v246z" />
    <glyph glyph-name="greaterequal.case" horiz-adv-x="1499" 
d="M170 1006v260l1176 -240v-328l-1176 -239v256l801 145zM1346 190h-1176v232h1176v-232z" />
    <glyph glyph-name="lessequal.case" horiz-adv-x="1499" 
d="M154 1026l1175 240v-256l-799 -146l799 -145v-260l-1175 239v328zM1329 190h-1175v232h1175v-232z" />
    <glyph glyph-name="plusminus.case" horiz-adv-x="1462" 
d="M866 539h-272v215h-430v235h430v225h272v-225h432v-235h-432v-215zM1298 190h-1134v234h1134v-234z" />
    <glyph glyph-name="approxequal.case" horiz-adv-x="1384" 
d="M967 760q-79 0 -254.5 49t-208.5 49q-39 0 -60.5 -20t-21.5 -58h-266v82q0 106 82 179t198 73q71 0 168 -24.5t178 -49t113 -24.5q39 0 60.5 20t21.5 58h266v-82q0 -107 -80 -179.5t-196 -72.5zM967 313q-79 0 -254.5 49.5t-208.5 49.5q-39 0 -60.5 -20t-21.5 -58h-266
v82q0 106 82 179t198 73q71 0 168 -25t178 -49.5t113 -24.5q39 0 60.5 20t21.5 58h266v-82q0 -107 -80 -179.5t-196 -72.5z" />
    <glyph glyph-name="logicalnot.case" horiz-adv-x="1345" 
d="M1188 426h-273v276h-786v236h1059v-512z" />
    <glyph glyph-name="multiply.case.tf" 
d="M920 711l327 -285l-157 -182l-355 307l-350 -305l-156 178l328 285l-330 286l158 181l354 -308l353 306l153 -179z" />
    <glyph glyph-name="plus.tf" 
d="M872 221h-272v379h-430v236h430v378h272v-378h431v-236h-431v-379z" />
    <glyph glyph-name="minus.tf" 
d="M1305 600h-1135v236h1135v-236z" />
    <glyph glyph-name="multiply.tf" 
d="M920 711l327 -285l-157 -182l-355 307l-350 -305l-156 178l328 285l-330 286l158 181l354 -308l353 306l153 -179z" />
    <glyph glyph-name="divide.tf" 
d="M881 930h-287v276h287v-276zM1305 602h-1135v236h1135v-236zM881 233h-287v277h287v-277z" />
    <glyph glyph-name="equal.tf" 
d="M1290 805h-1104v235h1104v-235zM1290 395h-1104v236h1104v-236z" />
    <glyph glyph-name="notequal.tf" 
d="M1288 1040v-235h-381l-76 -174h457v-236h-561l-76 -174h-264l76 174h-279v236h383l76 174h-459v235h564l75 174h264l-75 -174h276z" />
    <glyph glyph-name="greater.tf" 
d="M256 911v273l1034 -348v-246l-1034 -348v266l664 203z" />
    <glyph glyph-name="less.tf" 
d="M182 831l1035 349v-267l-664 -200l664 -203v-272l-1035 348v245z" />
    <glyph glyph-name="greaterequal.tf" 
d="M188 981v260l1115 -240v-327l-1115 -240v256l752 146zM1303 166h-1115v231h1115v-231z" />
    <glyph glyph-name="lessequal.tf" 
d="M172 1001l1114 240v-256l-751 -145l751 -146v-260l-1114 240v327zM1286 166h-1114v231h1114v-231z" />
    </font>
</defs>
</svg>
