<?xml version="1.0" standalone="no"?>
<!DOCTYPE svg PUBLIC "-//W3C//DTD SVG 1.1//EN" "http://www.w3.org/Graphics/SVG/1.1/DTD/svg11.dtd" >
<svg xmlns="http://www.w3.org/2000/svg" xmlns:xlink="http://www.w3.org/1999/xlink" version="1.1">
<metadata>
Created by FontForge 20170731 at Wed Jul  6 13:54:49 2022
 By Aleksey,,,
Copyright 2020 Dinamo (Johannes Breyer, Fabian Harb). All rights reserved.
</metadata>
<defs>
<font id="ABCFavorit-Light" horiz-adv-x="1228" >
  <font-face 
    font-family="ABC Favorit Light"
    font-weight="300"
    font-stretch="normal"
    units-per-em="2048"
    panose-1="2 11 3 4 3 2 2 6 2 3"
    ascent="1638"
    descent="-410"
    x-height="1024"
    cap-height="1434"
    bbox="-336 -512 4377 1878"
    underline-thickness="102"
    underline-position="-307"
    unicode-range="U+0020-FB02"
  />
<missing-glyph horiz-adv-x="1392" 
d="M1208 0h-1024v1434h1024v-1434zM307 1321v-1208h778v1208h-778z" />
    <glyph glyph-name="fi" unicode="fi" horiz-adv-x="1261" 
d="M412 0h-133v911h-236v113h236v225q0 99 46.5 142t147.5 43h256v-113h-235q-46 0 -64 -18t-18 -64v-215h686v-1024h-133v911h-553v-911zM1108 1208h-154v174h154v-174z" />
    <glyph glyph-name="fl" unicode="fl" horiz-adv-x="1261" 
d="M412 0h-133v911h-236v113h236v225q0 99 46.5 142t147.5 43h625v-1434h-133v1321h-471q-46 0 -64 -18t-18 -64v-215h266v-113h-266v-911z" />
    <glyph glyph-name="f_f" unicode="ff" horiz-adv-x="1404" 
d="M412 0h-133v911h-236v113h236v225q0 99 46.5 142t147.5 43h256v-113h-235q-46 0 -64 -18t-18 -64v-215h553v225q0 99 46.5 142t147.5 43h256v-113h-235q-46 0 -64 -18t-18 -64v-215h266v-113h-266v-911h-133v911h-553v-911z" />
    <glyph glyph-name="f_f_i" unicode="ffi" horiz-adv-x="1947" 
d="M412 0h-133v911h-236v113h236v225q0 99 46.5 142t147.5 43h256v-113h-235q-46 0 -64 -18t-18 -64v-215h553v225q0 99 46.5 142t147.5 43h256v-113h-235q-46 0 -64 -18t-18 -64v-215h686v-1024h-133v911h-553v-911h-133v911h-553v-911zM1794 1208h-154v174h154v-174z" />
    <glyph glyph-name="f_f_l" unicode="ffl" horiz-adv-x="1947" 
d="M412 0h-133v911h-236v113h236v225q0 99 46.5 142t147.5 43h256v-113h-235q-46 0 -64 -18t-18 -64v-215h553v225q0 99 46.5 142t147.5 43h625v-1434h-133v1321h-471q-46 0 -64 -18t-18 -64v-215h266v-113h-266v-911h-133v911h-553v-911z" />
    <glyph glyph-name="w_w_w.liga" unicode="www" horiz-adv-x="4255" 
d="M553 0h-176l-330 1024h137l285 -905l231 905h170l242 -918l279 918h137l284 -905l232 905h170l242 -918l278 918h137l285 -905l231 905h170l242 -918l279 918h131l-328 -1024h-178l-232 883l-231 -883h-176l-264 819l-263 -819h-178l-231 883l-232 -883h-176l-264 819
l-262 -819h-178l-232 883z" />
    <glyph glyph-name=".notdef" horiz-adv-x="1392" 
d="M1208 0h-1024v1434h1024v-1434zM307 1321v-1208h778v1208h-778z" />
    <glyph glyph-name=".null" horiz-adv-x="0" 
 />
    <glyph glyph-name="nonmarkingreturn" horiz-adv-x="682" 
 />
    <glyph glyph-name="space" unicode=" " horiz-adv-x="512" 
 />
    <glyph glyph-name="exclam" unicode="!" horiz-adv-x="495" 
d="M279 420h-62l-41 584v430h143v-430zM324 0h-154v174h154v-174z" />
    <glyph glyph-name="quotedbl" unicode="&#x22;" horiz-adv-x="700" 
d="M211 1004h-45l-39 266v164h133v-164zM528 1004h-45l-39 266v164h134v-164z" />
    <glyph glyph-name="numbersign" unicode="#" horiz-adv-x="1374" 
d="M1292 1044v-112h-245l-89 -430h248v-113h-272l-80 -389h-133l80 389h-365l-84 -389h-133l84 389h-221v113h246l92 430h-250v112h272l84 390h133l-84 -390h363l80 390h133l-80 -390h221zM461 502h364l88 430h-360z" />
    <glyph glyph-name="dollar" unicode="$" horiz-adv-x="1253" 
d="M719 788l43 -8q371 -74 371 -393q0 -189 -134.5 -298t-365.5 -109q-33 0 -49 2l-39 -228h-127l41 242q-184 37 -281.5 153.5t-97.5 301.5h139q0 -124 69.5 -206.5t192.5 -113.5l90 535l-77 16q-342 71 -342 362q0 174 134 292t357 118q41 0 59 -2l39 227h127l-41 -249
q150 -41 236 -149.5t92 -266.5h-139q-6 101 -62 174.5t-149 107.5zM532 825l64 -12l86 508h-29h-20q-150 0 -246 -78t-96 -196q0 -174 241 -222zM631 113h20q160 0 251 75.5t91 190.5q0 104 -66.5 166t-203.5 90l-29 6l-90 -528h27z" />
    <glyph glyph-name="percent" unicode="%" horiz-adv-x="1855" 
d="M408 614q-154 0 -243 112.5t-89 301.5t89 302.5t243 113.5t242.5 -113.5t88.5 -302.5t-88.5 -301.5t-242.5 -112.5zM563 0h-133l860 1434h133zM403 717h9q66 0 113.5 46.5t68 115t20.5 149.5t-20.5 150t-68 116t-113.5 47h-9q-66 0 -113.5 -47t-68 -116t-20.5 -150
t20.5 -149.5t68 -115t113.5 -46.5zM1450 -10q-154 0 -243 112t-89 301t89 302.5t243 113.5t243 -113.5t89 -302.5t-89 -301t-243 -112zM1446 92h8q66 0 113.5 46.5t68.5 115t21 149.5t-21 150t-68.5 116.5t-113.5 47.5h-8q-66 0 -113.5 -47.5t-68.5 -116.5t-21 -150
t21 -149.5t68.5 -115t113.5 -46.5z" />
    <glyph glyph-name="ampersand" unicode="&#x26;" horiz-adv-x="1314" 
d="M1020 0h-516q-166 0 -275.5 102.5t-109.5 276.5q0 124 63 217.5t172 130.5q-103 42 -164 128.5t-61 209.5q0 169 113 269t280 100h252v-134h-237q-113 0 -191 -68.5t-78 -187.5q0 -113 80 -181t201 -68h332v258h139v-258h235v-133h-235v-662zM551 133h330v529h-332
q-130 0 -210.5 -66.5t-80.5 -185.5q0 -133 80.5 -205t212.5 -72z" />
    <glyph glyph-name="quotesingle" unicode="'" horiz-adv-x="382" 
d="M211 1004h-45l-39 266v164h133v-164z" />
    <glyph glyph-name="parenleft" unicode="(" horiz-adv-x="696" 
d="M649 -184v-113q-159 7 -283.5 140t-192 361.5t-67.5 512.5q0 285 67.5 513.5t191.5 361t284 139.5v-113q-121 -9 -214.5 -127.5t-144 -320t-50.5 -453.5t50.5 -453.5t144 -320t214.5 -127.5z" />
    <glyph glyph-name="parenright" unicode=")" horiz-adv-x="696" 
d="M47 1618v113q159 -7 283.5 -140t192 -361.5t67.5 -512.5q0 -285 -67.5 -513.5t-191.5 -361t-284 -139.5v113q121 9 214.5 127t144.5 320t51 454t-51 454t-144.5 320t-214.5 127z" />
    <glyph glyph-name="asterisk" unicode="*" horiz-adv-x="878" 
d="M438 1094l-123 -213l-88 51l123 213h-246v102h246l-123 213l90 51l123 -213l123 213l88 -51l-123 -213h246v-102h-246l123 -213l-90 -51z" />
    <glyph glyph-name="plus" unicode="+" horiz-adv-x="1198" 
d="M666 31h-134v436h-440v123h440v434h134v-434h440v-123h-440v-436z" />
    <glyph glyph-name="comma" unicode="," horiz-adv-x="491" 
d="M154 -236h-82v82h61q123 0 123 123v31h-113v205h205v-246q0 -93 -50.5 -144t-143.5 -51z" />
    <glyph glyph-name="hyphen" unicode="-" horiz-adv-x="794" 
d="M653 563h-512v113h512v-113z" />
    <glyph glyph-name="period" unicode="." horiz-adv-x="491" 
d="M348 0h-205v205h205v-205z" />
    <glyph glyph-name="slash" unicode="/" horiz-adv-x="837" 
d="M213 0h-143l553 1434h143z" />
    <glyph glyph-name="zero" unicode="0" horiz-adv-x="1327" 
d="M664 -20q-259 0 -401 189.5t-142 547.5t142 547.5t401 189.5t400.5 -189.5t141.5 -547.5t-141.5 -547.5t-400.5 -189.5zM653 113h21q55 0 107 16.5t105 60t92.5 109.5t64 173.5t24.5 244.5t-24.5 244.5t-64 173.5t-92.5 109.5t-105 60t-107 16.5h-21q-55 0 -107 -16.5
t-105 -60t-92.5 -109.5t-64 -173.5t-24.5 -244.5t24.5 -244.5t64 -173.5t92.5 -109.5t105 -60t107 -16.5z" />
    <glyph glyph-name="one" unicode="1" horiz-adv-x="739" 
d="M59 1069l375 365h105v-1434h-133v1229l-347 -328v168z" />
    <glyph glyph-name="two" unicode="2" horiz-adv-x="1138" 
d="M801 662l-522 -525h753v-137h-928v143l576 584q120 121 156 187.5t36 158.5q0 101 -83.5 174.5t-204.5 73.5h-21q-137 0 -219.5 -83t-85.5 -222h-139q2 194 126.5 316t323.5 122q195 0 319 -108t124 -273q0 -121 -52 -212.5t-159 -198.5z" />
    <glyph glyph-name="three" unicode="3" horiz-adv-x="1169" 
d="M571 -20q-206 0 -326.5 100t-142.5 285h140q23 -120 106 -186t213 -66h21q137 0 229 73t92 201q0 120 -88.5 191t-222.5 71h-92v133h110q127 0 205 75.5t78 186.5q0 127 -87.5 202t-221.5 75h-21q-121 0 -202.5 -72.5t-92.5 -183.5h-139q9 168 133.5 278.5t310.5 110.5
q130 0 232.5 -44t164.5 -134.5t62 -214.5q0 -115 -66.5 -208t-168.5 -136q106 -35 175.5 -122.5t69.5 -213.5q0 -97 -39 -174.5t-104.5 -126t-149.5 -74.5t-178 -26z" />
    <glyph glyph-name="four" unicode="4" horiz-adv-x="1208" 
d="M907 0h-133v346h-715v152l693 936h155v-959h236v-129h-236v-346zM774 1270l-584 -795h584v795z" />
    <glyph glyph-name="five" unicode="5" horiz-adv-x="1161" 
d="M565 -20q-128 0 -233 43t-173.5 132.5t-78.5 213.5h139q17 -122 110 -189t226 -67h20q146 0 239 96t93 242q0 138 -86.5 225.5t-222.5 87.5h-20q-85 0 -171.5 -43t-136.5 -121h-137l172 834h727v-138h-612l-111 -512q113 113 299 113q196 0 317.5 -124t121.5 -312
q0 -210 -138.5 -345.5t-343.5 -135.5z" />
    <glyph glyph-name="six" unicode="6" horiz-adv-x="1241" 
d="M651 942q203 0 333 -130.5t130 -332.5q0 -226 -134.5 -362.5t-338.5 -136.5q-247 0 -384.5 187t-137.5 513q0 226 72 402.5t201.5 274t293.5 97.5q179 0 297 -94t152 -264h-140q-26 101 -108.5 163t-190.5 62h-20q-180 0 -300.5 -176.5t-133.5 -460.5q51 128 164 193
t245 65zM629 113h20q140 0 233 99t93 249q0 152 -89.5 250t-236.5 98h-20q-146 0 -243 -98.5t-97 -247.5q0 -151 97 -250.5t243 -99.5z" />
    <glyph glyph-name="seven" unicode="7" horiz-adv-x="1062" 
d="M47 1296v138h952v-164q-276 -174 -413 -471.5t-137 -757.5v-41h-140v59q0 452 148.5 771t402.5 466h-813z" />
    <glyph glyph-name="eight" unicode="8" horiz-adv-x="1155" 
d="M578 -20q-190 0 -309 104.5t-119 275.5q0 127 70.5 216.5t170.5 123.5q-109 33 -189.5 131.5t-80.5 223.5q0 179 127 289t330 110t329.5 -110t126.5 -289q0 -125 -80.5 -223.5t-189.5 -131.5q100 -34 171 -124t71 -216q0 -171 -119 -275.5t-309 -104.5zM567 776h21
q129 0 218 77.5t89 190.5q0 121 -87 199t-220 78h-21q-133 0 -220 -78t-87 -199q0 -113 89 -190.5t218 -77.5zM567 113h21q121 0 200.5 72.5t79.5 185.5q0 110 -80.5 186t-199.5 76h-21q-119 0 -199.5 -76t-80.5 -186q0 -113 79.5 -185.5t200.5 -72.5z" />
    <glyph glyph-name="nine" unicode="9" horiz-adv-x="1239" 
d="M600 1454q247 0 384.5 -187t137.5 -513q0 -226 -72 -402.5t-201.5 -274t-293.5 -97.5q-179 0 -297 94t-152 264h140q26 -101 109 -163t190 -62h20q180 0 300.5 176.5t133.5 460.5q-51 -128 -164 -193t-245 -65q-203 0 -333 130t-130 332q0 226 134.5 363t338.5 137z
M592 625h20q146 0 243 98.5t97 247.5q0 151 -97 250.5t-243 99.5h-20q-140 0 -233 -99t-93 -249q0 -152 89.5 -250t236.5 -98z" />
    <glyph glyph-name="colon" unicode=":" horiz-adv-x="487" 
d="M346 819h-205v205h205v-205zM346 0h-205v205h205v-205z" />
    <glyph glyph-name="semicolon" unicode=";" horiz-adv-x="555" 
d="M391 819h-205v205h205v-205zM197 -236h-82v82h61q123 0 123 123v31h-113v205h205v-246q0 -93 -50.5 -144t-143.5 -51z" />
    <glyph glyph-name="less" unicode="&#x3c;" horiz-adv-x="1105" 
d="M90 584l871 362v-149l-676 -267l676 -268v-156l-871 363v115z" />
    <glyph glyph-name="equal" unicode="=" horiz-adv-x="1314" 
d="M1163 645h-1011v133h1011v-133zM1163 274h-1011v134h1011v-134z" />
    <glyph glyph-name="greater" unicode="&#x3e;" horiz-adv-x="1105" 
d="M145 788v156l871 -362v-115l-871 -363v150l676 268z" />
    <glyph glyph-name="question" unicode="?" horiz-adv-x="927" 
d="M414 420h-133v260q0 92 35.5 128t127.5 36h41q110 0 168 67t58 166q0 97 -64 160t-182 63h-391v134h420q154 0 255 -100.5t101 -254.5q0 -166 -99 -267t-268 -101q-40 0 -54.5 -15t-14.5 -55v-221zM424 0h-154v174h154v-174z" />
    <glyph glyph-name="at" unicode="@" horiz-adv-x="1882" 
d="M1470 -256h-512q-144 0 -271.5 35t-233.5 108t-182.5 177.5t-119 250t-42.5 320.5q0 159 45.5 297.5t125 240.5t185.5 175.5t228 110t251 36.5q180 0 333 -56.5t261 -157t168.5 -244t60.5 -312.5q0 -110 -28 -201.5t-72.5 -151t-102.5 -100.5t-115.5 -59t-113.5 -18h-151
v157q-26 -71 -99.5 -124.5t-171.5 -53.5q-161 0 -267.5 119t-106.5 321q0 200 106.5 315t267.5 115q98 0 166.5 -46t104.5 -117v143h123v-717h18q37 0 73.5 8.5t80.5 36t77 71t55.5 122t22.5 180.5q0 296 -187.5 476.5t-502.5 180.5q-144 0 -272 -53t-223.5 -148.5
t-151 -237t-55.5 -308.5q0 -181 53 -327.5t148.5 -245t230 -152t295.5 -53.5h501v-113zM915 287h17q105 0 178.5 91t73.5 236q0 149 -75 233.5t-177 84.5h-17q-104 0 -173.5 -83.5t-69.5 -234.5q0 -148 68 -237.5t175 -89.5z" />
    <glyph glyph-name="A" unicode="A" horiz-adv-x="1386" 
d="M1368 0h-151l-160 395h-733l-160 -395h-148l588 1434h180zM690 1303l-313 -775h627z" />
    <glyph glyph-name="B" unicode="B" horiz-adv-x="1343" 
d="M811 0h-612v1434h598q173 0 284 -101t111 -274q0 -119 -67.5 -212t-161.5 -120q45 -8 88.5 -31t83.5 -61.5t64 -100.5t24 -139q0 -180 -117.5 -287.5t-294.5 -107.5zM342 1300v-507h440q119 0 193 67t74 187t-74 186.5t-193 66.5h-440zM342 659v-526h438q135 0 217 68.5
t82 195.5t-81 194.5t-216 67.5h-440z" />
    <glyph glyph-name="C" unicode="C" horiz-adv-x="1421" 
d="M766 -20q-150 0 -274 56t-207 155t-128.5 234t-45.5 292t45.5 292t128.5 234t207 155t274 56q235 0 388 -129.5t165 -331.5h-143q-8 66 -35.5 123.5t-75 104t-122 73.5t-167.5 27h-20q-159 0 -274.5 -83t-171.5 -218t-56 -303t56 -303t171.5 -218t274.5 -83h20
q122 0 211.5 47.5t133.5 119t55 160.5h143q-12 -202 -165 -331t-388 -129z" />
    <glyph glyph-name="D" unicode="D" horiz-adv-x="1447" 
d="M690 0h-491v1434h491q294 0 469.5 -193t175.5 -528q0 -334 -175 -523.5t-470 -189.5zM342 1300v-1167h328q251 0 386.5 151.5t135.5 432.5t-135.5 432t-386.5 151h-328z" />
    <glyph glyph-name="E" unicode="E" horiz-adv-x="1314" 
d="M1221 0h-1022v1434h1001v-134h-858v-495h735v-133h-735v-539h879v-133z" />
    <glyph glyph-name="F" unicode="F" horiz-adv-x="1208" 
d="M342 0h-143v1434h952v-134h-809v-538h705v-133h-705v-629z" />
    <glyph glyph-name="G" unicode="G" horiz-adv-x="1492" 
d="M778 -20q-206 0 -358.5 95t-230.5 260.5t-78 381.5t78 381.5t230.5 260.5t360.5 95q244 0 395 -131t175 -350h-144q-25 164 -135 256t-280 92h-21q-232 0 -374 -159.5t-142 -444.5q0 -286 143 -445t379 -159h21q85 0 161.5 26.5t137 75.5t96 125.5t35.5 169.5v74h-441
v133h441q133 0 133 -133v-584h-133v186q-67 -96 -185 -151t-264 -55z" />
    <glyph glyph-name="H" unicode="H" horiz-adv-x="1492" 
d="M342 0h-143v1434h143v-650h809v650h143v-1434h-143v651h-809v-651z" />
    <glyph glyph-name="I" unicode="I" horiz-adv-x="540" 
d="M342 0h-143v1434h143v-1434z" />
    <glyph glyph-name="J" unicode="J" horiz-adv-x="792" 
d="M279 0h-226v133h223q185 0 185 236v1065h143v-1059q0 -185 -84 -280t-241 -95z" />
    <glyph glyph-name="K" unicode="K" horiz-adv-x="1370" 
d="M1346 0h-179l-516 752l-309 -306v-446h-143v1434h143v-799l805 799h190l-583 -578z" />
    <glyph glyph-name="L" unicode="L" horiz-adv-x="1232" 
d="M1200 0h-1001v1434h143v-1301h858v-133z" />
    <glyph glyph-name="M" unicode="M" horiz-adv-x="1882" 
d="M946 106l500 1328h237v-1434h-141v1317l-500 -1317h-198l-504 1323v-1323h-141v1434h243z" />
    <glyph glyph-name="N" unicode="N" horiz-adv-x="1513" 
d="M1171 219v1215h144v-1434h-174l-799 1235v-1235h-143v1434h184z" />
    <glyph glyph-name="O" unicode="O" horiz-adv-x="1531" 
d="M766 -20q-141 0 -261.5 51t-207.5 144t-136.5 232.5t-49.5 309.5t49.5 309.5t136.5 232.5t207.5 144t261.5 51t261.5 -51t207.5 -144t136.5 -232.5t49.5 -309.5t-49.5 -309.5t-136.5 -232.5t-207.5 -144t-261.5 -51zM756 113h20q222 0 362 163.5t140 440.5t-140 440.5
t-362 163.5h-20q-222 0 -362 -163.5t-140 -440.5t140 -440.5t362 -163.5z" />
    <glyph glyph-name="P" unicode="P" horiz-adv-x="1298" 
d="M342 0h-143v1434h573q193 0 322 -112.5t129 -311.5q0 -133 -62 -230t-162.5 -143.5t-226.5 -46.5h-430v-590zM342 1300v-577h399q156 0 247 72.5t91 214.5t-91 216t-247 74h-399z" />
    <glyph glyph-name="Q" unicode="Q" horiz-adv-x="1531" 
d="M840 -16v-107q0 -54 24 -78t78 -24h303v-133h-334q-215 0 -215 217v125q-262 24 -423.5 219.5t-161.5 513.5q0 170 49.5 309.5t136.5 232.5t207.5 144t261.5 51t261.5 -51t207.5 -144t136.5 -232.5t49.5 -309.5q0 -316 -161 -512t-420 -221zM254 717q0 -277 140 -440.5
t362 -163.5h20q222 0 362 163.5t140 440.5t-140 440.5t-362 163.5h-20q-222 0 -362 -163.5t-140 -440.5z" />
    <glyph glyph-name="R" unicode="R" horiz-adv-x="1382" 
d="M342 0h-143v1434h585q189 0 314 -108.5t125 -274.5q0 -122 -58.5 -213t-158.5 -131q107 0 151.5 -44.5t44.5 -150.5v-512h-143v512q0 92 -92 92h-625v-604zM342 1300v-563h422q128 0 221.5 81.5t93.5 211.5q0 127 -83.5 198.5t-231.5 71.5h-422z" />
    <glyph glyph-name="S" unicode="S" horiz-adv-x="1265" 
d="M639 -20q-262 0 -407.5 123.5t-145.5 347.5h143q0 -160 112 -249t296 -89h20q159 0 248.5 75.5t89.5 190.5q0 99 -65 158.5t-201 87.5l-229 47q-342 71 -342 372q0 174 134 292t357 118q230 0 367 -118.5t145 -321.5h-143q-9 140 -108.5 223.5t-250.5 83.5h-20
q-148 0 -243 -78t-95 -196q0 -94 62.5 -151.5t175.5 -80.5l229 -45q371 -74 371 -383q0 -189 -134.5 -298t-365.5 -109z" />
    <glyph glyph-name="T" unicode="T" horiz-adv-x="1249" 
d="M696 0h-143v1300h-522v134h1188v-134h-523v-1300z" />
    <glyph glyph-name="U" unicode="U" horiz-adv-x="1413" 
d="M707 -20q-258 0 -390.5 143t-132.5 389v922h144v-902q0 -199 94.5 -309t273.5 -110h21q179 0 273.5 110t94.5 309v902h144v-922q0 -244 -135 -388t-387 -144z" />
    <glyph glyph-name="V" unicode="V" horiz-adv-x="1392" 
d="M705 160l514 1274h153l-590 -1434h-159l-613 1434h154z" />
    <glyph glyph-name="W" unicode="W" horiz-adv-x="1878" 
d="M1370 121l313 1313h144l-354 -1434h-218l-315 1284l-317 -1284h-217l-355 1434h146l321 -1323l318 1323h213z" />
    <glyph glyph-name="X" unicode="X" horiz-adv-x="1275" 
d="M721 735l528 -735h-170l-442 616l-447 -616h-165l528 731l-504 703h170l420 -584l422 584h166z" />
    <glyph glyph-name="Y" unicode="Y" horiz-adv-x="1216" 
d="M680 0h-143v594l-523 840h162l434 -709l434 709h158l-522 -840v-594z" />
    <glyph glyph-name="Z" unicode="Z" horiz-adv-x="1220" 
d="M1139 0h-1055v152l872 1148h-852v134h1014v-142l-878 -1159h899v-133z" />
    <glyph glyph-name="bracketleft" unicode="[" horiz-adv-x="651" 
d="M598 -297h-410v2028h410v-113h-276v-1802h276v-113z" />
    <glyph glyph-name="backslash" unicode="\" horiz-adv-x="837" 
d="M768 0h-143l-553 1434h143z" />
    <glyph glyph-name="bracketright" unicode="]" horiz-adv-x="651" 
d="M53 1731h410v-2028h-410v113h277v1802h-277v113z" />
    <glyph glyph-name="asciicircum" unicode="^" horiz-adv-x="1056" 
d="M608 1434l365 -850h-137l-310 729l-309 -729h-133l362 850h162z" />
    <glyph glyph-name="underscore" unicode="_" horiz-adv-x="1003" 
d="M942 -113h-881v113h881v-113z" />
    <glyph glyph-name="grave" unicode="`" horiz-adv-x="403" 
d="M342 1167h-100l-181 267h164z" />
    <glyph glyph-name="a" unicode="a" horiz-adv-x="1067" 
d="M428 -20q-136 0 -230 86.5t-94 216.5q0 65 22 117t56.5 85t82.5 56.5t94.5 34t97.5 14.5l323 24v41q0 131 -68.5 204t-187.5 73h-10q-103 0 -174.5 -51t-81.5 -144h-133q9 136 118.5 221.5t274.5 85.5q97 0 173.5 -31t124 -85t72.5 -123.5t25 -149.5v-430q0 -146 11 -225
h-123q-10 56 -10 164q-33 -75 -133.5 -129.5t-229.5 -54.5zM442 92h21q111 0 214 84t103 193v137l-297 -21q-111 -8 -178 -59.5t-67 -134.5q0 -85 58 -142t146 -57z" />
    <glyph glyph-name="b" unicode="b" horiz-adv-x="1198" 
d="M639 -20q-103 0 -200 50.5t-142 133.5v-164h-133v1434h133v-574q45 83 142 133.5t200 50.5q202 0 329.5 -144.5t127.5 -387.5t-127.5 -387.5t-329.5 -144.5zM625 92h10q80 0 143 34.5t102.5 93t60 133.5t20.5 159t-20.5 159t-60 133.5t-102.5 93t-143 34.5h-10
q-80 0 -144 -34.5t-103.5 -93t-60 -133.5t-20.5 -159t20.5 -159t60 -133.5t103.5 -93t144 -34.5z" />
    <glyph glyph-name="c" unicode="c" horiz-adv-x="1067" 
d="M573 -20q-148 0 -256 70.5t-161.5 190t-53.5 271.5t53.5 271.5t161.5 190t256 70.5q167 0 276 -94t124 -254h-133q-18 105 -86.5 170.5t-169.5 65.5h-21q-107 0 -183 -59.5t-110 -152.5t-34 -208t34 -208t110 -152.5t183 -59.5h21q99 0 167 66.5t89 169.5h133
q-28 -161 -132.5 -254.5t-267.5 -93.5z" />
    <glyph glyph-name="d" unicode="d" horiz-adv-x="1198" 
d="M559 -20q-202 0 -329.5 144.5t-127.5 387.5t127.5 387.5t329.5 144.5q103 0 200 -50.5t142 -133.5v574h133v-1434h-133v164q-45 -83 -142 -133.5t-200 -50.5zM563 92h10q80 0 144 34.5t103.5 93t60 133.5t20.5 159t-20.5 159t-60 133.5t-103.5 93t-144 34.5h-10
q-105 0 -180.5 -60t-110 -153t-34.5 -207t34.5 -207t110 -153t180.5 -60z" />
    <glyph glyph-name="e" unicode="e" horiz-adv-x="1077" 
d="M559 -20q-97 0 -179.5 34.5t-144.5 100.5t-97.5 168.5t-35.5 230.5q0 130 38 233t102.5 167t145.5 97t171 33q185 0 299.5 -130.5t114.5 -329.5v-82h-737q3 -205 94 -307.5t227 -102.5h12q212 0 269 201h133q-33 -151 -142.5 -232t-269.5 -81zM240 614h600
q-5 139 -79.5 228.5t-193.5 89.5h-20q-52 0 -99 -16t-91.5 -51t-75.5 -99t-41 -152z" />
    <glyph glyph-name="f" unicode="f" horiz-adv-x="718" 
d="M412 0h-133v911h-236v113h236v225q0 99 46.5 142t147.5 43h256v-113h-235q-46 0 -64 -18t-18 -64v-215h266v-113h-266v-911z" />
    <glyph glyph-name="g" unicode="g" horiz-adv-x="1181" 
d="M545 -451q-214 0 -330.5 84t-132.5 224h133q20 -95 104 -145t216 -50h20q68 0 125.5 20t104.5 61.5t73.5 111.5t26.5 163v166q-47 -87 -133.5 -135.5t-206.5 -48.5q-197 0 -320 136t-123 376q0 242 124 387t319 145q120 0 206.5 -48.5t133.5 -135.5v164h133v-1016
q0 -204 -127 -331.5t-346 -127.5zM549 113h20q141 0 228.5 105.5t87.5 293.5q0 190 -88 305t-228 115h-20q-139 0 -226 -115t-87 -305q0 -188 86 -293.5t227 -105.5z" />
    <glyph glyph-name="h" unicode="h" horiz-adv-x="1167" 
d="M297 0h-133v1434h133v-584q53 92 147.5 143t221.5 51q166 0 257 -101t91 -267v-676h-133v635q0 297 -246 297h-21q-126 0 -221.5 -104.5t-95.5 -274.5v-553z" />
    <glyph glyph-name="i" unicode="i" horiz-adv-x="460" 
d="M307 1208h-153v174h153v-174zM297 0h-133v1024h133v-1024z" />
    <glyph glyph-name="j" unicode="j" horiz-adv-x="477" 
d="M324 1208h-154v174h154v-174zM119 -338h-287v113h266q46 0 64 18t18 64v1167h133v-1178q0 -98 -46.5 -141t-147.5 -43z" />
    <glyph glyph-name="k" unicode="k" horiz-adv-x="1073" 
d="M297 0h-133v1434h133v-940l545 530h182l-426 -408l446 -616h-165l-375 524l-207 -196v-328z" />
    <glyph glyph-name="l" unicode="l" horiz-adv-x="460" 
d="M297 0h-133v1434h133v-1434z" />
    <glyph glyph-name="m" unicode="m" horiz-adv-x="1822" 
d="M297 0h-133v1024h133v-164q48 83 136 133.5t202 50.5q115 0 200 -55.5t123 -159.5q54 105 146.5 160t216.5 55q155 0 251.5 -97.5t96.5 -276.5v-670h-133v629q0 303 -236 303h-12q-99 0 -170 -60t-103 -153t-32 -207v-512h-133v629q0 303 -236 303h-12q-99 0 -170 -60
t-103 -153t-32 -207v-512z" />
    <glyph glyph-name="n" unicode="n" horiz-adv-x="1167" 
d="M297 0h-133v1024h133v-172q45 87 140 139.5t218 52.5q160 0 259.5 -97.5t99.5 -276.5v-670h-133v629q0 303 -246 303h-12q-80 0 -143.5 -34.5t-102.5 -93t-59.5 -133t-20.5 -159.5v-512z" />
    <glyph glyph-name="o" unicode="o" horiz-adv-x="1142" 
d="M571 -20q-201 0 -336 149t-135 383t135 383t336 149t336 -149t135 -383t-135 -383t-336 -149zM561 92h21q141 0 233 114t92 306t-92 306t-233 114h-21q-141 0 -233 -114t-92 -306t92 -306t233 -114z" />
    <glyph glyph-name="p" unicode="p" horiz-adv-x="1198" 
d="M297 -410h-133v1434h133v-164q45 83 142 133.5t200 50.5q202 0 329.5 -144.5t127.5 -387.5t-127.5 -387.5t-329.5 -144.5q-103 0 -200 50.5t-142 133.5v-574zM625 92h10q80 0 143 34.5t102.5 93t60 133.5t20.5 159t-20.5 159t-60 133.5t-102.5 93t-143 34.5h-10
q-80 0 -144 -34.5t-103.5 -93t-60 -133.5t-20.5 -159t20.5 -159t60 -133.5t103.5 -93t144 -34.5z" />
    <glyph glyph-name="q" unicode="q" horiz-adv-x="1198" 
d="M1034 -410h-133v574q-45 -83 -142 -133.5t-200 -50.5q-202 0 -329.5 144.5t-127.5 387.5t127.5 387.5t329.5 144.5q103 0 200 -50.5t142 -133.5v164h133v-1434zM563 92h10q80 0 144 34.5t103.5 93t60 133.5t20.5 159t-20.5 159t-60 133.5t-103.5 93t-144 34.5h-10
q-105 0 -180.5 -60t-110 -153t-34.5 -207t34.5 -207t110 -153t180.5 -60z" />
    <glyph glyph-name="r" unicode="r" horiz-adv-x="733" 
d="M297 0h-133v1024h123v-233q34 119 120 181t197 62h92v-123h-82q-148 0 -232.5 -110t-84.5 -303v-498z" />
    <glyph glyph-name="s" unicode="s" horiz-adv-x="976" 
d="M492 -20q-191 0 -295.5 90t-112.5 237h133q10 -103 82.5 -159t181.5 -56h21q107 0 169 49.5t62 134.5q0 62 -40 98.5t-140 59.5l-150 33q-61 13 -108 33t-87 51.5t-61.5 80t-21.5 111.5q0 140 106.5 220.5t260.5 80.5q93 0 166.5 -27t119 -73.5t70.5 -104t29 -122.5h-134
q-10 90 -75 152.5t-166 62.5h-21q-102 0 -162.5 -52t-60.5 -124q0 -68 43 -105t143 -59l160 -35q59 -13 103 -31.5t81.5 -49.5t57.5 -78.5t20 -110.5q0 -144 -101.5 -225.5t-272.5 -81.5z" />
    <glyph glyph-name="t" unicode="t" horiz-adv-x="729" 
d="M686 0h-225q-101 0 -148 43t-47 141v727h-235v113h235v332h133v-332h256v-113h-256v-716q0 -46 18 -64t64 -18h205v-113z" />
    <glyph glyph-name="u" unicode="u" horiz-adv-x="1146" 
d="M508 -20q-167 0 -260.5 101.5t-93.5 266.5v676h133v-635q0 -297 245 -297h21q119 0 208 104t89 275v553h133v-1024h-133v193q-40 -102 -128.5 -157.5t-213.5 -55.5z" />
    <glyph glyph-name="v" unicode="v" horiz-adv-x="1030" 
d="M516 121l336 903h139l-393 -1024h-166l-393 1024h141z" />
    <glyph glyph-name="w" unicode="w" horiz-adv-x="1568" 
d="M1112 106l279 918h131l-328 -1024h-178l-232 883l-231 -883h-176l-330 1024h137l285 -905l231 905h170z" />
    <glyph glyph-name="x" unicode="x" horiz-adv-x="1024" 
d="M190 0h-149l395 520l-381 504h156l303 -401l305 401h150l-381 -500l395 -524h-156l-317 420z" />
    <glyph glyph-name="y" unicode="y" horiz-adv-x="1064" 
d="M897 1024h139l-422 -989v-195q0 -93 -47 -135.5t-147 -42.5h-311v113h290q46 0 64 18t18 64v172l-434 995h146l352 -829z" />
    <glyph glyph-name="z" unicode="z" horiz-adv-x="966" 
d="M862 903l-639 -790h670v-113h-809v125l635 786h-625v113h768v-121z" />
    <glyph glyph-name="braceleft" unicode="{" horiz-adv-x="667" 
d="M610 -297h-133q-125 0 -180 76.5t-55 240.5v420q0 84 -21 114t-82 30h-51v266h51q61 0 82 29.5t21 113.5v420q0 164 55 241t180 77h133v-113h-112q-74 0 -98.5 -35t-24.5 -129v-543q0 -174 -164 -174v-41q164 0 164 -174v-542q0 -94 24.5 -129t98.5 -35h112v-113z" />
    <glyph glyph-name="bar" unicode="|" horiz-adv-x="509" 
d="M322 -174h-134v1782h134v-1782z" />
    <glyph glyph-name="braceright" unicode="}" horiz-adv-x="667" 
d="M57 1733h133q126 0 181 -77t55 -241v-420q0 -84 20.5 -113.5t81.5 -29.5h52v-266h-52q-61 0 -81.5 -30t-20.5 -114v-419q0 -164 -55 -241t-181 -77h-133v113h113q74 0 98.5 35t24.5 129v542q0 174 164 174v41q-164 0 -164 174v543q0 94 -24.5 129t-98.5 35h-113v113z" />
    <glyph glyph-name="asciitilde" unicode="~" horiz-adv-x="1001" 
d="M674 711q-10 0 -20.5 1t-21 3.5t-19 5t-19 7t-17 7t-17.5 8t-14.5 7.5t-14 7.5t-11.5 6.5l-78 45q-66 41 -96 41q-84 0 -84 -129h-102v20q0 106 52 160.5t138 54.5q59 0 146 -53l82 -49q3 -2 12.5 -7.5t12.5 -7t11 -6t11.5 -6t10.5 -4t11.5 -3.5t10.5 -2t12 -1
q84 0 84 129h102v-20q0 -101 -49.5 -158t-132.5 -57z" />
    <glyph glyph-name="uni00A0" unicode="&#xa0;" horiz-adv-x="512" 
 />
    <glyph glyph-name="exclamdown" unicode="&#xa1;" horiz-adv-x="454" 
d="M152 1024h153v-174h-153v174zM197 604h61l41 -584v-430h-143v430z" />
    <glyph glyph-name="cent" unicode="&#xa2;" horiz-adv-x="1077" 
d="M834 328h139q-28 -161 -133 -254.5t-269 -93.5q-24 0 -34 2l-39 -228h-125l43 248q-151 50 -233.5 187t-82.5 323q0 152 53.5 271.5t161.5 190t256 70.5h19l39 226h125l-41 -246q109 -34 176.5 -119.5t79.5 -208.5h-140q-10 66 -46.5 116.5t-92.5 76.5l-131 -776h2h21
q98 0 165.5 60.5t86.5 154.5zM240 512q0 -132 50.5 -233.5t147.5 -141.5l129 774h-6q-80 0 -142.5 -32t-100.5 -88t-58 -126.5t-20 -152.5z" />
    <glyph glyph-name="sterling" unicode="&#xa3;" horiz-adv-x="1140" 
d="M342 133h729v-133h-973v133h41q154 0 166 184l21 283l-228 -51v123l238 53l20 281q15 212 115.5 320t298.5 108h199v-134h-205q-134 0 -195.5 -77.5t-72.5 -227.5l-19 -237l287 63v-123l-297 -67l-23 -295q-6 -80 -28 -126t-74 -77z" />
    <glyph glyph-name="currency" unicode="&#xa4;" horiz-adv-x="1452" 
d="M1235 625q0 -169 -88 -310l188 -188l-90 -90l-184 176q-144 -131 -338 -131q-191 0 -334 127l-180 -172l-90 90l184 184q-92 137 -92 314q0 169 88 307l-180 180l90 90l178 -170q144 125 336 125q198 0 340 -129l182 174l90 -90l-186 -186q86 -131 86 -301zM723 215h10
q154 0 258.5 116t104.5 294q0 177 -104 288t-259 111h-20q-155 0 -259 -111t-104 -288t109 -293.5t264 -116.5z" />
    <glyph glyph-name="yen" unicode="&#xa5;" horiz-adv-x="1308" 
d="M1092 1434h157l-422 -684l260 57v-123l-346 -78l-14 -22v-148l299 68v-123l-299 -68v-313h-143v283l-299 -68v123l299 68v165l-361 -82v123l301 68l-463 754h162l434 -719z" />
    <glyph glyph-name="brokenbar" unicode="&#xa6;" horiz-adv-x="518" 
d="M326 881h-133v727h133v-727zM326 -174h-133v747h133v-747z" />
    <glyph glyph-name="section" unicode="&#xa7;" horiz-adv-x="1046" 
d="M559 -123h-387v133h406q87 0 129.5 39t42.5 109q0 51 -44 87.5t-141 73.5l-284 107q-95 35 -143 97t-48 136q0 78 50.5 149.5t142.5 127.5q-61 52 -91 104t-30 117q0 134 85.5 205.5t239.5 71.5h351v-134h-349q-89 0 -138.5 -35.5t-49.5 -107.5q0 -57 41.5 -93t138.5 -67
l187 -61q72 -23 121 -46.5t90.5 -57t61.5 -78.5t20 -103q0 -164 -193 -278q62 -49 91.5 -97.5t29.5 -117.5q0 -56 -18.5 -104.5t-56 -89t-103 -64t-152.5 -23.5zM463 504l180 -68q104 45 141 93.5t37 101.5q0 31 -14 57t-34 43.5t-55.5 35t-63.5 28t-72 24.5l-179 58
q-86 -35 -130 -90.5t-44 -110.5q0 -18 5.5 -34.5t13 -28t24 -24t27.5 -20t36.5 -18t38 -15.5t44.5 -16t45 -16z" />
    <glyph glyph-name="dieresis" unicode="&#xa8;" horiz-adv-x="634" 
d="M215 1208h-154v164h154v-164zM573 1208h-153v164h153v-164z" />
    <glyph glyph-name="copyright" unicode="&#xa9;" horiz-adv-x="1810" 
d="M905 -82q-162 0 -310 63.5t-255 170.5t-170.5 255t-63.5 310t63.5 310t170.5 255t255 170.5t310 63.5t310 -63.5t255 -170.5t170.5 -255t63.5 -310t-63.5 -310t-170.5 -255t-255 -170.5t-310 -63.5zM905 20q141 0 269.5 55.5t221 149t147 222.5t54.5 270q0 189 -92.5 349
t-252 253.5t-347.5 93.5t-347.5 -93.5t-252 -253.5t-92.5 -349q0 -141 54.5 -270t147 -222.5t221 -149t269.5 -55.5zM907 322q-159 0 -263.5 102.5t-104.5 292.5q0 183 101 294t267 111q130 0 216.5 -70t101.5 -194h-125q-14 68 -66.5 115t-124.5 47h-10
q-100 0 -167.5 -84.5t-67.5 -218.5q0 -133 67 -213t168 -80h10q75 0 131.5 45t69.5 117h125q-21 -123 -112.5 -193.5t-215.5 -70.5z" />
    <glyph glyph-name="ordfeminine" unicode="&#xaa;" horiz-adv-x="733" 
d="M289 840q-76 0 -125 47t-49 127q0 84 48.5 130t129.5 56l184 21v18q0 51 -34 82t-83 31h-6q-46 0 -82 -28.5t-36 -76.5h-113q4 93 72.5 145t164.5 52q95 0 162.5 -56.5t67.5 -152.5v-258q0 -84 6 -127h-102q-11 60 -11 102q-21 -55 -73 -83.5t-121 -28.5zM319 932h7
q64 0 107 37.5t44 105.5v66l-151 -17q-42 -5 -70.5 -31.5t-28.5 -70.5q0 -43 26 -66.5t66 -23.5z" />
    <glyph glyph-name="guillemotleft" unicode="&#xab;" horiz-adv-x="1003" 
d="M381 1024h151l-294 -438l299 -443h-156l-297 441zM911 1024l-295 -438l299 -443h-155l-297 441l297 440h151z" />
    <glyph glyph-name="logicalnot" unicode="&#xac;" horiz-adv-x="1218" 
d="M1063 266h-139v297h-772v133h911v-430z" />
    <glyph glyph-name="uni00AD" unicode="&#xad;" horiz-adv-x="794" 
d="M653 563h-512v113h512v-113z" />
    <glyph glyph-name="registered" unicode="&#xae;" horiz-adv-x="1810" 
d="M905 -82q-162 0 -310 63.5t-255 170.5t-170.5 255t-63.5 310t63.5 310t170.5 255t255 170.5t310 63.5t310 -63.5t255 -170.5t170.5 -255t63.5 -310t-63.5 -310t-170.5 -255t-255 -170.5t-310 -63.5zM905 20q141 0 269.5 55.5t221 149t147 222.5t54.5 270q0 189 -92.5 349
t-252 253.5t-347.5 93.5t-347.5 -93.5t-252 -253.5t-92.5 -349q0 -141 54.5 -270t147 -222.5t221 -149t269.5 -55.5zM764 342h-125v770h338q116 0 181 -59t65 -152q0 -82 -44 -133.5t-112 -60.5q78 -2 111.5 -38t33.5 -126v-201h-125v203q0 98 -110 98h-213v-301zM764 1010
v-269h162q80 0 126 33.5t46 97.5q0 76 -43 107t-129 31h-162z" />
    <glyph glyph-name="macron" unicode="&#xaf;" horiz-adv-x="686" 
d="M625 1208h-564v113h564v-113z" />
    <glyph glyph-name="degree" unicode="&#xb0;" horiz-adv-x="950" 
d="M475 696q-164 0 -271.5 108.5t-107.5 270.5t107.5 270.5t271.5 108.5q162 0 270.5 -108.5t108.5 -270.5t-108.5 -270.5t-270.5 -108.5zM475 815q104 0 178 76.5t74 183.5t-74 183.5t-178 76.5t-178 -76.5t-74 -183.5t74 -183.5t178 -76.5z" />
    <glyph glyph-name="plusminus" unicode="&#xb1;" horiz-adv-x="1306" 
d="M719 307h-131v287h-441v133h441v297h131v-297h440v-133h-440v-287zM1159 0h-1012v133h1012v-133z" />
    <glyph glyph-name="uni00B2" unicode="&#xb2;" horiz-adv-x="702" 
d="M623 850h-545v139l258 225q96 84 124.5 123t28.5 97q0 59 -38 96t-95 37h-10q-51 0 -95 -39t-44 -103h-125q0 110 80 177t192 67q114 0 187 -62.5t73 -172.5q0 -36 -10 -68.5t-22 -55.5t-38 -51.5t-41.5 -43t-49.5 -44.5l-252 -219h422v-102z" />
    <glyph glyph-name="uni00B3" unicode="&#xb3;" horiz-adv-x="716" 
d="M346 840q-114 0 -194 62t-80 171h125q3 -60 42 -95.5t101 -35.5h10q67 0 111.5 38t44.5 103q0 60 -39 93.5t-98 33.5h-90v97h94q58 0 92.5 32.5t34.5 92.5q0 66 -39 100.5t-105 34.5h-10q-61 0 -97.5 -33.5t-39.5 -89.5h-125q0 107 79 166t193 59q113 0 191 -59.5
t78 -165.5q0 -63 -30.5 -112.5t-82.5 -74.5q57 -23 88 -72t31 -114q0 -105 -85.5 -168t-199.5 -63z" />
    <glyph glyph-name="acute" unicode="&#xb4;" horiz-adv-x="403" 
d="M162 1167h-101l117 267h164z" />
    <glyph glyph-name="uni00B5" unicode="&#xb5;" horiz-adv-x="1202" 
d="M883 471v553h133v-1024h-133v193q-40 -102 -128.5 -157.5t-213.5 -55.5q-132 0 -222 65v-455h-133v1434h133v-635q0 -297 246 -297h21q119 0 208 104t89 275z" />
    <glyph glyph-name="paragraph" unicode="&#xb6;" horiz-adv-x="1261" 
d="M633 -410h-133v1076h-41q-173 0 -284.5 112.5t-111.5 272.5t109 271.5t274 111.5h709v-113h-123v-1731h-133v1731h-266v-1731z" />
    <glyph glyph-name="periodcentered" unicode="&#xb7;" horiz-adv-x="466" 
d="M326 594h-185v184h185v-184z" />
    <glyph glyph-name="cedilla" unicode="&#xb8;" horiz-adv-x="454" 
d="M188 -461h-127v113h129q44 0 72.5 23t28.5 67t-28.5 66t-72.5 22h-57v201h92v-123q68 2 118 -45t50 -121q0 -88 -54.5 -145.5t-150.5 -57.5z" />
    <glyph glyph-name="uni00B9" unicode="&#xb9;" horiz-adv-x="528" 
d="M401 850h-116v655l-240 -192v121l279 225h77v-809z" />
    <glyph glyph-name="ordmasculine" unicode="&#xba;" horiz-adv-x="741" 
d="M371 840q-123 0 -196 81.5t-73 219.5t73 220.5t196 82.5t195.5 -82.5t72.5 -220.5t-72.5 -219.5t-195.5 -81.5zM367 932h10q67 0 106 58t39 151t-40 152t-107 59h-8q-67 0 -107.5 -59.5t-40.5 -151.5t40.5 -150.5t107.5 -58.5z" />
    <glyph glyph-name="guillemotright" unicode="&#xbb;" horiz-adv-x="1001" 
d="M86 1024h156l297 -440l-297 -441h-152l295 439zM465 1024h156l297 -440l-297 -441h-152l295 439z" />
    <glyph glyph-name="onequarter" unicode="&#xbc;" horiz-adv-x="1757" 
d="M422 625h-117v655l-239 -193v121l278 226h78v-809zM510 0h-133l860 1434h133zM1575 0h-115v197h-379v114l367 498h127v-510h111v-102h-111v-197zM1460 659l-260 -360h260v360z" />
    <glyph glyph-name="onehalf" unicode="&#xbd;" horiz-adv-x="1802" 
d="M424 625h-117v655l-239 -193v121l278 226h78v-809zM467 0h-133l860 1434h133zM1710 0h-545v139l258 226q97 85 125.5 123.5t28.5 95.5q0 59 -38 96t-95 37h-10q-51 0 -95.5 -39t-44.5 -103h-125q0 110 80.5 177t192.5 67q114 0 187 -62.5t73 -172.5q0 -36 -10.5 -69
t-22 -55t-38.5 -51.5t-41.5 -42.5t-49.5 -44l-252 -220h422v-102z" />
    <glyph glyph-name="threequarters" unicode="&#xbe;" horiz-adv-x="1845" 
d="M362 614q-114 0 -194 62.5t-80 171.5h125q3 -60 42 -95.5t101 -35.5h11q67 0 111 38t44 103q0 60 -39 93.5t-98 33.5h-90v96h94q58 0 92.5 32.5t34.5 92.5q0 66 -38.5 100.5t-104.5 34.5h-11q-61 0 -97.5 -33t-39.5 -89h-125q0 107 79 166t194 59q113 0 190.5 -59.5
t77.5 -165.5q0 -63 -30.5 -112.5t-82.5 -74.5q57 -23 88 -72t31 -114q0 -105 -85.5 -168.5t-199.5 -63.5zM625 0h-133l860 1434h133zM1665 0h-115v197h-379v114l367 498h127v-510h111v-102h-111v-197zM1550 659l-260 -360h260v360z" />
    <glyph glyph-name="questiondown" unicode="&#xbf;" horiz-adv-x="907" 
d="M494 1024h153v-174h-153v174zM504 604h133v-260q0 -92 -36 -128t-128 -36h-41q-110 0 -167.5 -67t-57.5 -166q0 -97 64 -160t182 -63h391v-134h-420q-154 0 -255 100.5t-101 254.5q0 166 98.5 267t267.5 101q40 0 55 15t15 55v221z" />
    <glyph glyph-name="Agrave" unicode="&#xc0;" horiz-adv-x="1386" 
d="M647 1823l109 -256h-123l-170 256h184zM1368 0h-151l-160 395h-733l-160 -395h-148l588 1434h180zM690 1303l-313 -775h627z" />
    <glyph glyph-name="Aacute" unicode="&#xc1;" horiz-adv-x="1386" 
d="M741 1823h185l-170 -256h-123zM1368 0h-151l-160 395h-733l-160 -395h-148l588 1434h180zM690 1303l-313 -775h627z" />
    <glyph glyph-name="Acircumflex" unicode="&#xc2;" horiz-adv-x="1386" 
d="M883 1567l-189 147l-188 -147h-139l235 256h184l236 -256h-139zM1368 0h-151l-160 395h-733l-160 -395h-148l588 1434h180zM690 1303l-313 -775h627z" />
    <glyph glyph-name="Atilde" unicode="&#xc3;" horiz-adv-x="1386" 
d="M543 1710q-84 0 -84 -133h-103v47q0 85 51 142t130 57q72 0 131 -45l69 -52q5 -3 24.5 -18t28.5 -20.5t25.5 -12t32.5 -6.5q80 0 80 133h102v-47q0 -84 -51 -141.5t-125 -57.5q-36 0 -71.5 16.5t-92.5 57.5l-65 47q-46 33 -82 33zM1368 0h-151l-160 395h-733l-160 -395
h-148l588 1434h180zM690 1303l-313 -775h627z" />
    <glyph glyph-name="Adieresis" unicode="&#xc4;" horiz-adv-x="1386" 
d="M422 1761h164v-164h-164v164zM803 1761h164v-164h-164v164zM1368 0h-151l-160 395h-733l-160 -395h-148l588 1434h180zM690 1303l-313 -775h627z" />
    <glyph glyph-name="Aring" unicode="&#xc5;" horiz-adv-x="1386" 
d="M694 1554q-64 0 -113 47t-49 115t49 115t113 47t113 -47t49 -115t-49 -115t-113 -47zM696 1786q-28 0 -48.5 -21t-20.5 -49t20.5 -48.5t48.5 -20.5q27 0 46.5 20.5t19.5 48.5t-19.5 49t-46.5 21zM1368 0h-151l-160 395h-733l-160 -395h-148l588 1434h180zM690 1303
l-313 -775h627z" />
    <glyph glyph-name="AE" unicode="&#xc6;" horiz-adv-x="2015" 
d="M156 0h-162l850 1434h993v-134h-764l68 -495h635v-133h-617l72 -539h729v-133h-850l-53 395h-668zM930 1315l-463 -787h571z" />
    <glyph glyph-name="Ccedilla" unicode="&#xc7;" horiz-adv-x="1421" 
d="M756 113h20q122 0 211.5 47.5t133.5 119t55 160.5h143q-12 -192 -151 -319t-357 -139v-74q68 2 118 -45t50 -121q0 -88 -54.5 -145.5t-150.5 -57.5h-127v113h129q44 0 72.5 23t28.5 67t-28.5 66t-72.5 22h-57v152q-186 11 -325 110t-211 261t-72 364q0 157 45.5 292
t128.5 234t207 155t274 56q235 0 388 -129.5t165 -331.5h-143q-8 66 -35.5 123.5t-75 104t-122 73.5t-167.5 27h-20q-159 0 -274.5 -83t-171.5 -218t-56 -303t56 -303t171.5 -218t274.5 -83z" />
    <glyph glyph-name="Egrave" unicode="&#xc8;" horiz-adv-x="1314" 
d="M762 1567h-123l-170 256h184zM1221 0h-1022v1434h1001v-134h-858v-495h735v-133h-735v-539h879v-133z" />
    <glyph glyph-name="Eacute" unicode="&#xc9;" horiz-adv-x="1314" 
d="M762 1567h-123l109 256h184zM1221 0h-1022v1434h1001v-134h-858v-495h735v-133h-735v-539h879v-133z" />
    <glyph glyph-name="Ecircumflex" unicode="&#xca;" horiz-adv-x="1314" 
d="M889 1567l-189 147l-188 -147h-139l235 256h185l235 -256h-139zM342 672v-539h879v-133h-1022v1434h1001v-134h-858v-495h735v-133h-735z" />
    <glyph glyph-name="Edieresis" unicode="&#xcb;" horiz-adv-x="1314" 
d="M592 1597h-164v164h164v-164zM973 1597h-164v164h164v-164zM1221 0h-1022v1434h1001v-134h-858v-495h735v-133h-735v-539h879v-133z" />
    <glyph glyph-name="Igrave" unicode="&#xcc;" horiz-adv-x="540" 
d="M332 1567h-123l-170 256h184zM342 0h-143v1434h143v-1434z" />
    <glyph glyph-name="Iacute" unicode="&#xcd;" horiz-adv-x="540" 
d="M332 1567h-123l108 256h185zM342 0h-143v1434h143v-1434z" />
    <glyph glyph-name="Icircumflex" unicode="&#xce;" horiz-adv-x="540" 
d="M178 1823h184l236 -256h-139l-189 147l-188 -147h-139zM342 0h-143v1434h143v-1434z" />
    <glyph glyph-name="Idieresis" unicode="&#xcf;" horiz-adv-x="540" 
d="M162 1597h-164v164h164v-164zM543 1597h-164v164h164v-164zM342 0h-143v1434h143v-1434z" />
    <glyph glyph-name="Eth" unicode="&#xd0;" horiz-adv-x="1480" 
d="M231 1434h492q294 0 469.5 -193t175.5 -528q0 -334 -175 -523.5t-470 -189.5h-492v655h-204v123h204v656zM375 133h327q251 0 387 151.5t136 432.5t-136 432t-387 151h-327v-522h307v-123h-307v-522z" />
    <glyph glyph-name="Ntilde" unicode="&#xd1;" horiz-adv-x="1513" 
d="M627 1710q-84 0 -84 -133h-103v47q0 85 51 142t130 57q72 0 131 -45l69 -52q5 -3 24.5 -18t28.5 -20.5t25.5 -12t32.5 -6.5q80 0 80 133h102v-47q0 -84 -51 -141.5t-125 -57.5q-36 0 -71.5 16.5t-92.5 57.5l-65 47q-46 33 -82 33zM1171 219v1215h144v-1434h-174
l-799 1235v-1235h-143v1434h184z" />
    <glyph glyph-name="Ograve" unicode="&#xd2;" horiz-adv-x="1531" 
d="M827 1567h-122l-170 256h184zM766 -20q-141 0 -261.5 51t-207.5 144t-136.5 232.5t-49.5 309.5t49.5 309.5t136.5 232.5t207.5 144t261.5 51t261.5 -51t207.5 -144t136.5 -232.5t49.5 -309.5t-49.5 -309.5t-136.5 -232.5t-207.5 -144t-261.5 -51zM756 113h20
q222 0 362 163.5t140 440.5t-140 440.5t-362 163.5h-20q-222 0 -362 -163.5t-140 -440.5t140 -440.5t362 -163.5z" />
    <glyph glyph-name="Oacute" unicode="&#xd3;" horiz-adv-x="1531" 
d="M827 1567h-122l108 256h184zM766 -20q-141 0 -261.5 51t-207.5 144t-136.5 232.5t-49.5 309.5t49.5 309.5t136.5 232.5t207.5 144t261.5 51t261.5 -51t207.5 -144t136.5 -232.5t49.5 -309.5t-49.5 -309.5t-136.5 -232.5t-207.5 -144t-261.5 -51zM756 113h20
q222 0 362 163.5t140 440.5t-140 440.5t-362 163.5h-20q-222 0 -362 -163.5t-140 -440.5t140 -440.5t362 -163.5z" />
    <glyph glyph-name="Ocircumflex" unicode="&#xd4;" horiz-adv-x="1531" 
d="M954 1567l-188 147l-188 -147h-140l236 256h184l236 -256h-140zM766 1454q141 0 261.5 -51t207.5 -144t136.5 -232.5t49.5 -309.5t-49.5 -309.5t-136.5 -232.5t-207.5 -144t-261.5 -51t-261.5 51t-207.5 144t-136.5 232.5t-49.5 309.5t49.5 309.5t136.5 232.5t207.5 144
t261.5 51zM756 113h20q222 0 362 163.5t140 440.5t-140 440.5t-362 163.5h-20q-222 0 -362 -163.5t-140 -440.5t140 -440.5t362 -163.5z" />
    <glyph glyph-name="Otilde" unicode="&#xd5;" horiz-adv-x="1531" 
d="M926 1556q-36 0 -71.5 16.5t-92.5 57.5l-66 47q-46 33 -82 33q-84 0 -84 -133h-102v47q0 85 50.5 142t129.5 57q72 0 131 -45l70 -52q5 -3 24.5 -18t28.5 -20.5t25.5 -12t32.5 -6.5q79 0 79 133h103v-47q0 -84 -51 -141.5t-125 -57.5zM766 -20q-141 0 -261.5 51
t-207.5 144t-136.5 232.5t-49.5 309.5t49.5 309.5t136.5 232.5t207.5 144t261.5 51t261.5 -51t207.5 -144t136.5 -232.5t49.5 -309.5t-49.5 -309.5t-136.5 -232.5t-207.5 -144t-261.5 -51zM756 113h20q222 0 362 163.5t140 440.5t-140 440.5t-362 163.5h-20
q-222 0 -362 -163.5t-140 -440.5t140 -440.5t362 -163.5z" />
    <glyph glyph-name="Odieresis" unicode="&#xd6;" horiz-adv-x="1531" 
d="M657 1597h-163v164h163v-164zM1038 1597h-164v164h164v-164zM766 -20q-141 0 -261.5 51t-207.5 144t-136.5 232.5t-49.5 309.5t49.5 309.5t136.5 232.5t207.5 144t261.5 51t261.5 -51t207.5 -144t136.5 -232.5t49.5 -309.5t-49.5 -309.5t-136.5 -232.5t-207.5 -144
t-261.5 -51zM756 113h20q222 0 362 163.5t140 440.5t-140 440.5t-362 163.5h-20q-222 0 -362 -163.5t-140 -440.5t140 -440.5t362 -163.5z" />
    <glyph glyph-name="multiply" unicode="&#xd7;" horiz-adv-x="1095" 
d="M549 432l-332 -332l-96 97l332 331l-332 330l96 96l332 -329l330 329l96 -96l-330 -330l330 -331l-96 -97z" />
    <glyph glyph-name="Oslash" unicode="&#xd8;" horiz-adv-x="1548" 
d="M1405 1407l-139 -176q164 -201 164 -514q0 -170 -49.5 -309.5t-137 -232.5t-208 -144t-261.5 -51q-228 0 -395 129l-131 -166l-107 84l140 176q-162 199 -162 514q0 170 49.5 309.5t136.5 232.5t207.5 144t261.5 51q226 0 395 -127l129 164zM262 717q0 -244 109 -400
l712 902q-123 102 -299 102h-20q-222 0 -362 -163.5t-140 -440.5zM764 113h20q222 0 362 163.5t140 440.5q0 241 -110 401l-713 -903q127 -102 301 -102z" />
    <glyph glyph-name="Ugrave" unicode="&#xd9;" horiz-adv-x="1413" 
d="M768 1567h-123l-170 256h184zM707 -20q-258 0 -390.5 143t-132.5 389v922h144v-902q0 -199 94.5 -309t273.5 -110h21q179 0 273.5 110t94.5 309v902h144v-922q0 -244 -135 -388t-387 -144z" />
    <glyph glyph-name="Uacute" unicode="&#xda;" horiz-adv-x="1413" 
d="M768 1567h-123l109 256h184zM707 -20q-258 0 -390.5 143t-132.5 389v922h144v-902q0 -199 94.5 -309t273.5 -110h21q179 0 273.5 110t94.5 309v902h144v-922q0 -244 -135 -388t-387 -144z" />
    <glyph glyph-name="Ucircumflex" unicode="&#xdb;" horiz-adv-x="1413" 
d="M895 1567l-188 147l-189 -147h-139l235 256h185l235 -256h-139zM1085 532v902h144v-922q0 -244 -135 -388t-387 -144q-258 0 -390.5 143t-132.5 389v922h144v-902q0 -199 94.5 -309t273.5 -110h21q179 0 273.5 110t94.5 309z" />
    <glyph glyph-name="Udieresis" unicode="&#xdc;" horiz-adv-x="1413" 
d="M598 1597h-164v164h164v-164zM979 1597h-164v164h164v-164zM707 -20q-258 0 -390.5 143t-132.5 389v922h144v-902q0 -199 94.5 -309t273.5 -110h21q179 0 273.5 110t94.5 309v902h144v-922q0 -244 -135 -388t-387 -144z" />
    <glyph glyph-name="Yacute" unicode="&#xdd;" horiz-adv-x="1216" 
d="M672 1567h-123l108 256h185zM680 0h-143v594l-523 840h162l434 -709l434 709h158l-522 -840v-594z" />
    <glyph glyph-name="Thorn" unicode="&#xde;" horiz-adv-x="1327" 
d="M342 0h-143v1434h143v-308h453q195 0 311.5 -106.5t116.5 -300.5q0 -195 -117 -303.5t-311 -108.5h-453v-307zM342 993v-553h412q325 0 325 279q0 143 -83 208.5t-242 65.5h-412z" />
    <glyph glyph-name="germandbls" unicode="&#xdf;" horiz-adv-x="1105" 
d="M297 -379h-133v1405q0 205 105.5 316.5t295.5 111.5q170 0 278.5 -103.5t108.5 -263.5q0 -127 -63 -211.5t-144 -109.5q44 -7 88.5 -32.5t83 -68t63 -107.5t24.5 -142q0 -206 -114.5 -311t-320.5 -105h-118v123h131q151 0 219.5 79.5t68.5 215.5q0 131 -84 206.5
t-213 75.5h-122v113h102q66 0 118.5 24.5t84 64t47.5 84.5t16 91q0 111 -67.5 187.5t-176.5 76.5h-20q-52 0 -96.5 -17.5t-82 -54t-58.5 -102t-21 -153.5v-1393z" />
    <glyph glyph-name="agrave" unicode="&#xe0;" horiz-adv-x="1067" 
d="M573 1167h-100l-180 267h164zM428 -20q-136 0 -230 86.5t-94 216.5q0 65 22 117t56.5 85t82.5 56.5t94.5 34t97.5 14.5l323 24v41q0 131 -68.5 204t-187.5 73h-10q-103 0 -174.5 -51t-81.5 -144h-133q9 136 118.5 221.5t274.5 85.5q97 0 173.5 -31t124 -85t72.5 -123.5
t25 -149.5v-430q0 -146 11 -225h-123q-10 56 -10 164q-33 -75 -133.5 -129.5t-229.5 -54.5zM442 92h21q111 0 214 84t103 193v137l-297 -21q-111 -8 -178 -59.5t-67 -134.5q0 -85 58 -142t146 -57z" />
    <glyph glyph-name="aacute" unicode="&#xe1;" horiz-adv-x="1067" 
d="M573 1167h-100l117 267h164zM428 -20q-136 0 -230 86.5t-94 216.5q0 65 22 117t56.5 85t82.5 56.5t94.5 34t97.5 14.5l323 24v41q0 131 -68.5 204t-187.5 73h-10q-103 0 -174.5 -51t-81.5 -144h-133q9 136 118.5 221.5t274.5 85.5q97 0 173.5 -31t124 -85t72.5 -123.5
t25 -149.5v-430q0 -146 11 -225h-123q-10 56 -10 164q-33 -75 -133.5 -129.5t-229.5 -54.5zM442 92h21q111 0 214 84t103 193v137l-297 -21q-111 -8 -178 -59.5t-67 -134.5q0 -85 58 -142t146 -57z" />
    <glyph glyph-name="acircumflex" unicode="&#xe2;" horiz-adv-x="1067" 
d="M729 1167l-205 154l-205 -154h-122l260 267h135l260 -267h-123zM913 655v-430q0 -146 11 -225h-123q-10 56 -10 164q-33 -75 -133.5 -129.5t-229.5 -54.5q-136 0 -230 86.5t-94 216.5q0 65 22 117t56.5 85t82.5 56.5t94.5 34t97.5 14.5l323 24v41q0 131 -68.5 204
t-187.5 73h-10q-103 0 -174.5 -51t-81.5 -144h-133q9 136 118.5 221.5t274.5 85.5q97 0 173.5 -31t124 -85t72.5 -123.5t25 -149.5zM780 369v137l-297 -21q-111 -8 -178 -59.5t-67 -134.5q0 -85 58 -142t146 -57h21q111 0 214 84t103 193z" />
    <glyph glyph-name="atilde" unicode="&#xe3;" horiz-adv-x="1067" 
d="M684 1147q-36 0 -71.5 16.5t-92.5 57.5l-65 47q-44 32 -82 32q-84 0 -84 -133h-103v47q0 85 51 142t130 57q72 0 131 -45l69 -51q5 -3 24.5 -18t28.5 -20.5t25.5 -12t32.5 -6.5q80 0 80 133h102v-47q0 -84 -51 -141.5t-125 -57.5zM428 -20q-136 0 -230 86.5t-94 216.5
q0 65 22 117t56.5 85t82.5 56.5t94.5 34t97.5 14.5l323 24v41q0 131 -68.5 204t-187.5 73h-10q-103 0 -174.5 -51t-81.5 -144h-133q9 136 118.5 221.5t274.5 85.5q97 0 173.5 -31t124 -85t72.5 -123.5t25 -149.5v-430q0 -146 11 -225h-123q-10 56 -10 164
q-33 -75 -133.5 -129.5t-229.5 -54.5zM442 92h21q111 0 214 84t103 193v137l-297 -21q-111 -8 -178 -59.5t-67 -134.5q0 -85 58 -142t146 -57z" />
    <glyph glyph-name="adieresis" unicode="&#xe4;" horiz-adv-x="1067" 
d="M422 1208h-154v164h154v-164zM780 1208h-153v164h153v-164zM428 -20q-136 0 -230 86.5t-94 216.5q0 65 22 117t56.5 85t82.5 56.5t94.5 34t97.5 14.5l323 24v41q0 131 -68.5 204t-187.5 73h-10q-103 0 -174.5 -51t-81.5 -144h-133q9 136 118.5 221.5t274.5 85.5
q97 0 173.5 -31t124 -85t72.5 -123.5t25 -149.5v-430q0 -146 11 -225h-123q-10 56 -10 164q-33 -75 -133.5 -129.5t-229.5 -54.5zM442 92h21q111 0 214 84t103 193v137l-297 -21q-111 -8 -178 -59.5t-67 -134.5q0 -85 58 -142t146 -57z" />
    <glyph glyph-name="aring" unicode="&#xe5;" horiz-adv-x="1067" 
d="M524 1157q-69 0 -120.5 49.5t-51.5 122.5t51.5 122.5t120.5 49.5t120.5 -49.5t51.5 -122.5t-51.5 -122.5t-120.5 -49.5zM526 1237q37 0 62.5 27t25.5 65t-25.5 65t-62.5 27t-63.5 -27t-26.5 -65t26.5 -65t63.5 -27zM428 -20q-136 0 -230 86.5t-94 216.5q0 65 22 117
t56.5 85t82.5 56.5t94.5 34t97.5 14.5l323 24v41q0 131 -68.5 204t-187.5 73h-10q-103 0 -174.5 -51t-81.5 -144h-133q9 136 118.5 221.5t274.5 85.5q97 0 173.5 -31t124 -85t72.5 -123.5t25 -149.5v-430q0 -146 11 -225h-123q-10 56 -10 164q-33 -75 -133.5 -129.5
t-229.5 -54.5zM442 92h21q111 0 214 84t103 193v137l-297 -21q-111 -8 -178 -59.5t-67 -134.5q0 -85 58 -142t146 -57z" />
    <glyph glyph-name="ae" unicode="&#xe6;" horiz-adv-x="1734" 
d="M449 -20q-146 0 -245.5 86.5t-99.5 216.5q0 67 21 121t54.5 88t80 58t91.5 35t95 15l314 25v30q0 131 -65.5 204t-180.5 73h-10q-98 0 -167 -51t-79 -144h-133q9 136 116 221.5t267 85.5q122 0 208.5 -52t131.5 -142q63 95 160.5 144.5t208.5 49.5q185 0 299 -130.5
t114 -329.5v-82h-737q3 -205 94 -307.5t227 -102.5h13q211 0 268 201h133q-33 -151 -142 -232t-269 -81q-122 0 -221 54.5t-160 158.5q-56 -98 -156 -155.5t-231 -57.5zM897 614h600q-5 139 -79 228.5t-193 89.5h-21q-52 0 -99 -16t-91.5 -51t-75.5 -99t-41 -152zM453 92h20
q105 0 196 88.5t91 204.5v127l-287 -20q-106 -8 -170.5 -61.5t-64.5 -139.5q0 -85 61.5 -142t153.5 -57z" />
    <glyph glyph-name="ccedilla" unicode="&#xe7;" horiz-adv-x="1064" 
d="M561 92h21q99 0 167 66.5t89 169.5h133q-27 -153 -123 -246t-246 -102v-72q68 2 118 -45t50 -121q0 -88 -54.5 -145.5t-150.5 -57.5h-127v113h129q44 0 72.5 23t28.5 67t-28.5 66t-72.5 22h-57v154q-129 14 -222.5 87t-140.5 186t-47 255q0 152 53.5 271.5t161.5 190
t256 70.5q167 0 276 -94t124 -254h-133q-18 105 -86.5 170.5t-169.5 65.5h-21q-107 0 -183 -59.5t-110.5 -152.5t-34.5 -208t34.5 -208t110.5 -152.5t183 -59.5z" />
    <glyph glyph-name="egrave" unicode="&#xe8;" horiz-adv-x="1077" 
d="M608 1167h-100l-180 267h164zM559 -20q-97 0 -179.5 34.5t-144.5 100.5t-97.5 168.5t-35.5 230.5q0 130 38 233t102.5 167t145.5 97t171 33q185 0 299.5 -130.5t114.5 -329.5v-82h-737q3 -205 94 -307.5t227 -102.5h12q212 0 269 201h133q-33 -151 -142.5 -232
t-269.5 -81zM240 614h600q-5 139 -79.5 228.5t-193.5 89.5h-20q-52 0 -99 -16t-91.5 -51t-75.5 -99t-41 -152z" />
    <glyph glyph-name="eacute" unicode="&#xe9;" horiz-adv-x="1077" 
d="M608 1167h-100l117 267h163zM559 -20q-97 0 -179.5 34.5t-144.5 100.5t-97.5 168.5t-35.5 230.5q0 130 38 233t102.5 167t145.5 97t171 33q185 0 299.5 -130.5t114.5 -329.5v-82h-737q3 -205 94 -307.5t227 -102.5h12q212 0 269 201h133q-33 -151 -142.5 -232t-269.5 -81
zM240 614h600q-5 139 -79.5 228.5t-193.5 89.5h-20q-52 0 -99 -16t-91.5 -51t-75.5 -99t-41 -152z" />
    <glyph glyph-name="ecircumflex" unicode="&#xea;" horiz-adv-x="1077" 
d="M764 1167l-205 154l-205 -154h-123l261 267h135l260 -267h-123zM973 584v-82h-737q3 -205 94 -307.5t227 -102.5h12q212 0 269 201h133q-33 -151 -142.5 -232t-269.5 -81q-97 0 -179.5 34.5t-144.5 100.5t-97.5 168.5t-35.5 230.5q0 130 38 233t102.5 167t145.5 97
t171 33q185 0 299.5 -130.5t114.5 -329.5zM240 614h600q-5 139 -79.5 228.5t-193.5 89.5h-20q-52 0 -99 -16t-91.5 -51t-75.5 -99t-41 -152z" />
    <glyph glyph-name="edieresis" unicode="&#xeb;" horiz-adv-x="1077" 
d="M457 1208h-154v164h154v-164zM815 1208h-153v164h153v-164zM559 -20q-97 0 -179.5 34.5t-144.5 100.5t-97.5 168.5t-35.5 230.5q0 130 38 233t102.5 167t145.5 97t171 33q185 0 299.5 -130.5t114.5 -329.5v-82h-737q3 -205 94 -307.5t227 -102.5h12q212 0 269 201h133
q-33 -151 -142.5 -232t-269.5 -81zM240 614h600q-5 139 -79.5 228.5t-193.5 89.5h-20q-52 0 -99 -16t-91.5 -51t-75.5 -99t-41 -152z" />
    <glyph glyph-name="igrave" unicode="&#xec;" horiz-adv-x="460" 
d="M281 1167h-101l-180 267h164zM297 0h-133v1024h133v-1024z" />
    <glyph glyph-name="iacute" unicode="&#xed;" horiz-adv-x="460" 
d="M281 1167h-101l117 267h164zM297 0h-133v1024h133v-1024z" />
    <glyph glyph-name="icircumflex" unicode="&#xee;" horiz-adv-x="460" 
d="M164 1434h135l260 -267h-123l-205 154l-204 -154h-123zM297 0h-133v1024h133v-1024z" />
    <glyph glyph-name="idieresis" unicode="&#xef;" horiz-adv-x="460" 
d="M129 1208h-154v164h154v-164zM487 1208h-153v164h153v-164zM297 0h-133v1024h133v-1024z" />
    <glyph glyph-name="eth" unicode="&#xf0;" horiz-adv-x="1153" 
d="M967 1333l-142 -96q207 -229 207 -668q0 -272 -126.5 -430.5t-344.5 -158.5q-210 0 -335.5 145t-125.5 369q0 134 55 242t161 172.5t245 64.5q85 0 175.5 -37t154.5 -102q-31 208 -166 337l-170 -114l-57 82l139 96q-124 76 -297 76v123q242 0 405 -125l160 110zM561 92
h10q154 0 241 113.5t87 286.5q0 159 -87 263.5t-241 104.5h-20q-153 0 -235.5 -103t-82.5 -263q0 -173 87 -287.5t241 -114.5z" />
    <glyph glyph-name="ntilde" unicode="&#xf1;" horiz-adv-x="1167" 
d="M756 1147q-36 0 -71.5 16.5t-92.5 57.5l-66 47q-44 32 -82 32q-84 0 -84 -133h-102v47q0 85 50.5 142t129.5 57q72 0 131 -45l70 -51q5 -3 24.5 -18t28.5 -20.5t25.5 -12t32.5 -6.5q79 0 79 133h103v-47q0 -84 -51 -141.5t-125 -57.5zM297 0h-133v1024h133v-172
q45 87 140 139.5t218 52.5q160 0 259.5 -97.5t99.5 -276.5v-670h-133v629q0 303 -246 303h-12q-80 0 -143.5 -34.5t-102.5 -93t-59.5 -133t-20.5 -159.5v-512z" />
    <glyph glyph-name="ograve" unicode="&#xf2;" horiz-adv-x="1142" 
d="M621 1167h-101l-180 267h164zM571 -20q-201 0 -336 149t-135 383t135 383t336 149t336 -149t135 -383t-135 -383t-336 -149zM561 92h21q141 0 233 114t92 306t-92 306t-233 114h-21q-141 0 -233 -114t-92 -306t92 -306t233 -114z" />
    <glyph glyph-name="oacute" unicode="&#xf3;" horiz-adv-x="1142" 
d="M621 1167h-101l117 267h164zM571 -20q-201 0 -336 149t-135 383t135 383t336 149t336 -149t135 -383t-135 -383t-336 -149zM561 92h21q141 0 233 114t92 306t-92 306t-233 114h-21q-141 0 -233 -114t-92 -306t92 -306t233 -114z" />
    <glyph glyph-name="ocircumflex" unicode="&#xf4;" horiz-adv-x="1142" 
d="M776 1167l-205 154l-204 -154h-123l260 267h135l260 -267h-123zM571 1044q201 0 336 -149t135 -383t-135 -383t-336 -149t-336 149t-135 383t135 383t336 149zM561 92h21q141 0 233 114t92 306t-92 306t-233 114h-21q-141 0 -233 -114t-92 -306t92 -306t233 -114z" />
    <glyph glyph-name="otilde" unicode="&#xf5;" horiz-adv-x="1142" 
d="M731 1147q-36 0 -71.5 16.5t-92.5 57.5l-65 47q-44 32 -82 32q-84 0 -84 -133h-103v47q0 85 51 142t130 57q72 0 131 -45l69 -51q5 -3 24.5 -18t28.5 -20.5t25.5 -12t32.5 -6.5q80 0 80 133h102v-47q0 -84 -51 -141.5t-125 -57.5zM571 -20q-201 0 -336 149t-135 383
t135 383t336 149t336 -149t135 -383t-135 -383t-336 -149zM561 92h21q141 0 233 114t92 306t-92 306t-233 114h-21q-141 0 -233 -114t-92 -306t92 -306t233 -114z" />
    <glyph glyph-name="odieresis" unicode="&#xf6;" horiz-adv-x="1142" 
d="M469 1208h-154v164h154v-164zM827 1208h-153v164h153v-164zM571 -20q-201 0 -336 149t-135 383t135 383t336 149t336 -149t135 -383t-135 -383t-336 -149zM561 92h21q141 0 233 114t92 306t-92 306t-233 114h-21q-141 0 -233 -114t-92 -306t92 -306t233 -114z" />
    <glyph glyph-name="divide" unicode="&#xf7;" horiz-adv-x="1314" 
d="M735 778h-153v174h153v-174zM1163 461h-1011v133h1011v-133zM735 102h-153v174h153v-174z" />
    <glyph glyph-name="oslash" unicode="&#xf8;" horiz-adv-x="1153" 
d="M1040 1026l-112 -147q121 -146 121 -367q0 -234 -135 -383t-336 -149q-154 0 -271 88l-104 -138l-88 74l110 143q-119 148 -119 365q0 234 135.5 383t336.5 149q147 0 266 -86l102 134zM242 512q0 -153 61 -262l471 616q-81 66 -186 66h-21q-141 0 -233 -114t-92 -306z
M567 92h21q141 0 233 114t92 306q0 160 -63 264l-471 -616q81 -68 188 -68z" />
    <glyph glyph-name="ugrave" unicode="&#xf9;" horiz-adv-x="1146" 
d="M612 1167h-100l-180 267h164zM508 -20q-167 0 -260.5 101.5t-93.5 266.5v676h133v-635q0 -297 245 -297h21q119 0 208 104t89 275v553h133v-1024h-133v193q-40 -102 -128.5 -157.5t-213.5 -55.5z" />
    <glyph glyph-name="uacute" unicode="&#xfa;" horiz-adv-x="1146" 
d="M612 1167h-100l117 267h164zM508 -20q-167 0 -260.5 101.5t-93.5 266.5v676h133v-635q0 -297 245 -297h21q119 0 208 104t89 275v553h133v-1024h-133v193q-40 -102 -128.5 -157.5t-213.5 -55.5z" />
    <glyph glyph-name="ucircumflex" unicode="&#xfb;" horiz-adv-x="1146" 
d="M768 1167l-205 154l-205 -154h-122l260 267h135l260 -267h-123zM850 471v553h133v-1024h-133v193q-40 -102 -128.5 -157.5t-213.5 -55.5q-167 0 -260.5 101.5t-93.5 266.5v676h133v-635q0 -297 245 -297h21q119 0 208 104t89 275z" />
    <glyph glyph-name="udieresis" unicode="&#xfc;" horiz-adv-x="1146" 
d="M461 1208h-154v164h154v-164zM819 1208h-153v164h153v-164zM508 -20q-167 0 -260.5 101.5t-93.5 266.5v676h133v-635q0 -297 245 -297h21q119 0 208 104t89 275v553h133v-1024h-133v193q-40 -102 -128.5 -157.5t-213.5 -55.5z" />
    <glyph glyph-name="yacute" unicode="&#xfd;" horiz-adv-x="1064" 
d="M610 1434h164l-180 -267h-100zM897 1024h139l-422 -989v-195q0 -93 -47 -135.5t-147 -42.5h-311v113h290q46 0 64 18t18 64v172l-434 995h146l352 -829z" />
    <glyph glyph-name="thorn" unicode="&#xfe;" horiz-adv-x="1198" 
d="M297 -410h-133v1844h133v-574q45 83 142 133.5t200 50.5q202 0 329.5 -144.5t127.5 -387.5t-127.5 -387.5t-329.5 -144.5q-103 0 -200 50.5t-142 133.5v-574zM625 92h10q80 0 143 34.5t102.5 93t60 133.5t20.5 159t-20.5 159t-60 133.5t-102.5 93t-143 34.5h-10
q-80 0 -144 -34.5t-103.5 -93t-60 -133.5t-20.5 -159t20.5 -159t60 -133.5t103.5 -93t144 -34.5z" />
    <glyph glyph-name="ydieresis" unicode="&#xff;" horiz-adv-x="1064" 
d="M289 1372h153v-164h-153v164zM647 1372h154v-164h-154v164zM897 1024h139l-422 -989v-195q0 -93 -47 -135.5t-147 -42.5h-311v113h290q46 0 64 18t18 64v172l-434 995h146l352 -829z" />
    <glyph glyph-name="Amacron" unicode="&#x100;" horiz-adv-x="1386" 
d="M412 1710h563v-113h-563v113zM1368 0h-151l-160 395h-733l-160 -395h-148l588 1434h180zM690 1303l-313 -775h627z" />
    <glyph glyph-name="amacron" unicode="&#x101;" horiz-adv-x="1067" 
d="M805 1208h-563v113h563v-113zM428 -20q-136 0 -230 86.5t-94 216.5q0 65 22 117t56.5 85t82.5 56.5t94.5 34t97.5 14.5l323 24v41q0 131 -68.5 204t-187.5 73h-10q-103 0 -174.5 -51t-81.5 -144h-133q9 136 118.5 221.5t274.5 85.5q97 0 173.5 -31t124 -85t72.5 -123.5
t25 -149.5v-430q0 -146 11 -225h-123q-10 56 -10 164q-33 -75 -133.5 -129.5t-229.5 -54.5zM442 92h21q111 0 214 84t103 193v137l-297 -21q-111 -8 -178 -59.5t-67 -134.5q0 -85 58 -142t146 -57z" />
    <glyph glyph-name="Abreve" unicode="&#x102;" horiz-adv-x="1386" 
d="M694 1546q-134 0 -215.5 72.5t-81.5 204.5h113q14 -164 184 -164q171 0 185 164h112q0 -132 -81.5 -204.5t-215.5 -72.5zM1368 0h-151l-160 395h-733l-160 -395h-148l588 1434h180zM690 1303l-313 -775h627z" />
    <glyph glyph-name="abreve" unicode="&#x103;" horiz-adv-x="1067" 
d="M524 1147q-127 0 -206.5 75.5t-79.5 211.5h102q7 -90 56 -136.5t128 -46.5t128.5 46.5t56.5 136.5h102q0 -136 -80 -211.5t-207 -75.5zM428 -20q-136 0 -230 86.5t-94 216.5q0 65 22 117t56.5 85t82.5 56.5t94.5 34t97.5 14.5l323 24v41q0 131 -68.5 204t-187.5 73h-10
q-103 0 -174.5 -51t-81.5 -144h-133q9 136 118.5 221.5t274.5 85.5q97 0 173.5 -31t124 -85t72.5 -123.5t25 -149.5v-430q0 -146 11 -225h-123q-10 56 -10 164q-33 -75 -133.5 -129.5t-229.5 -54.5zM442 92h21q111 0 214 84t103 193v137l-297 -21q-111 -8 -178 -59.5
t-67 -134.5q0 -85 58 -142t146 -57z" />
    <glyph glyph-name="Aogonek" unicode="&#x104;" horiz-adv-x="1386" 
d="M1186 -199q0 -88 104 -88h56v-112h-84q-93 0 -149 44t-56 130q0 129 160 225l-160 395h-733l-160 -395h-148l588 1434h180l584 -1434q-182 -95 -182 -199zM690 1303l-313 -775h627z" />
    <glyph glyph-name="aogonek" unicode="&#x105;" horiz-adv-x="1067" 
d="M741 -199q0 -88 105 -88h55v-112h-84q-93 0 -149 44t-56 130q0 143 187 239q-8 60 -8 150q-33 -75 -133.5 -129.5t-229.5 -54.5q-136 0 -230 86.5t-94 216.5q0 65 22 117t56.5 85t82.5 56.5t94.5 34t97.5 14.5l323 24v41q0 131 -68.5 204t-187.5 73h-10
q-103 0 -174.5 -51t-81.5 -144h-133q9 136 118.5 221.5t274.5 85.5q97 0 173.5 -31t124 -85t72.5 -123.5t25 -149.5v-430q0 -146 11 -225q-183 -96 -183 -199zM780 369v137l-297 -21q-111 -8 -178 -59.5t-67 -134.5q0 -85 58 -142t146 -57h21q111 0 214 84t103 193z" />
    <glyph glyph-name="Cacute" unicode="&#x106;" horiz-adv-x="1421" 
d="M827 1567h-122l108 256h184zM766 -20q-150 0 -274 56t-207 155t-128.5 234t-45.5 292t45.5 292t128.5 234t207 155t274 56q235 0 388 -129.5t165 -331.5h-143q-8 66 -35.5 123.5t-75 104t-122 73.5t-167.5 27h-20q-159 0 -274.5 -83t-171.5 -218t-56 -303t56 -303
t171.5 -218t274.5 -83h20q122 0 211.5 47.5t133.5 119t55 160.5h143q-12 -202 -165 -331t-388 -129z" />
    <glyph glyph-name="cacute" unicode="&#x107;" horiz-adv-x="1067" 
d="M616 1167h-100l117 267h164zM573 -20q-148 0 -256 70.5t-161.5 190t-53.5 271.5t53.5 271.5t161.5 190t256 70.5q167 0 276 -94t124 -254h-133q-18 105 -86.5 170.5t-169.5 65.5h-21q-107 0 -183 -59.5t-110 -152.5t-34 -208t34 -208t110 -152.5t183 -59.5h21
q99 0 167 66.5t89 169.5h133q-28 -161 -132.5 -254.5t-267.5 -93.5z" />
    <glyph glyph-name="Ccircumflex" unicode="&#x108;" horiz-adv-x="1421" 
d="M954 1567l-188 147l-188 -147h-140l236 256h184l236 -256h-140zM756 113h20q122 0 211.5 47.5t133.5 119t55 160.5h143q-12 -202 -165 -331t-388 -129q-150 0 -274 56t-207 155t-128.5 234t-45.5 292t45.5 292t128.5 234t207 155t274 56q235 0 388 -129.5t165 -331.5
h-143q-8 66 -35.5 123.5t-75 104t-122 73.5t-167.5 27h-20q-159 0 -274.5 -83t-171.5 -218t-56 -303t56 -303t171.5 -218t274.5 -83z" />
    <glyph glyph-name="ccircumflex" unicode="&#x109;" horiz-adv-x="1067" 
d="M772 1167l-205 154l-205 -154h-122l260 267h135l260 -267h-123zM563 92h21q99 0 167 66.5t89 169.5h133q-28 -161 -132.5 -254.5t-267.5 -93.5q-148 0 -256 70.5t-161.5 190t-53.5 271.5t53.5 271.5t161.5 190t256 70.5q167 0 276 -94t124 -254h-133q-18 105 -86.5 170.5
t-169.5 65.5h-21q-107 0 -183 -59.5t-110 -152.5t-34 -208t34 -208t110 -152.5t183 -59.5z" />
    <glyph glyph-name="Cdotaccent" unicode="&#x10a;" horiz-adv-x="1421" 
d="M842 1597h-154v175h154v-175zM766 -20q-150 0 -274 56t-207 155t-128.5 234t-45.5 292t45.5 292t128.5 234t207 155t274 56q235 0 388 -129.5t165 -331.5h-143q-8 66 -35.5 123.5t-75 104t-122 73.5t-167.5 27h-20q-159 0 -274.5 -83t-171.5 -218t-56 -303t56 -303
t171.5 -218t274.5 -83h20q122 0 211.5 47.5t133.5 119t55 160.5h143q-12 -202 -165 -331t-388 -129z" />
    <glyph glyph-name="cdotaccent" unicode="&#x10b;" horiz-adv-x="1067" 
d="M643 1208h-154v174h154v-174zM573 -20q-148 0 -256 70.5t-161.5 190t-53.5 271.5t53.5 271.5t161.5 190t256 70.5q167 0 276 -94t124 -254h-133q-18 105 -86.5 170.5t-169.5 65.5h-21q-107 0 -183 -59.5t-110 -152.5t-34 -208t34 -208t110 -152.5t183 -59.5h21
q99 0 167 66.5t89 169.5h133q-28 -161 -132.5 -254.5t-267.5 -93.5z" />
    <glyph glyph-name="Ccaron" unicode="&#x10c;" horiz-adv-x="1421" 
d="M1094 1823l-236 -256h-184l-236 256h140l188 -148l188 148h140zM756 113h20q122 0 211.5 47.5t133.5 119t55 160.5h143q-12 -202 -165 -331t-388 -129q-150 0 -274 56t-207 155t-128.5 234t-45.5 292t45.5 292t128.5 234t207 155t274 56q235 0 388 -129.5t165 -331.5
h-143q-8 66 -35.5 123.5t-75 104t-122 73.5t-167.5 27h-20q-159 0 -274.5 -83t-171.5 -218t-56 -303t56 -303t171.5 -218t274.5 -83z" />
    <glyph glyph-name="ccaron" unicode="&#x10d;" horiz-adv-x="1067" 
d="M895 1434l-260 -267h-135l-260 267h122l205 -154l205 154h123zM563 92h21q99 0 167 66.5t89 169.5h133q-28 -161 -132.5 -254.5t-267.5 -93.5q-148 0 -256 70.5t-161.5 190t-53.5 271.5t53.5 271.5t161.5 190t256 70.5q167 0 276 -94t124 -254h-133q-18 105 -86.5 170.5
t-169.5 65.5h-21q-107 0 -183 -59.5t-110 -152.5t-34 -208t34 -208t110 -152.5t183 -59.5z" />
    <glyph glyph-name="Dcaron" unicode="&#x10e;" horiz-adv-x="1447" 
d="M1020 1823l-236 -256h-184l-235 256h139l188 -148l189 148h139zM199 1434h491q294 0 469.5 -193t175.5 -528q0 -334 -175 -523.5t-470 -189.5h-491v1434zM342 133h328q251 0 386.5 151.5t135.5 432.5t-135.5 432t-386.5 151h-328v-1167z" />
    <glyph glyph-name="dcaron" unicode="&#x10f;" horiz-adv-x="1234" 
d="M559 -20q-202 0 -329.5 144.5t-127.5 387.5t127.5 387.5t329.5 144.5q103 0 200 -50.5t142 -133.5v574h133v-1434h-133v164q-45 -83 -142 -133.5t-200 -50.5zM1147 1106h-21v72h11q92 0 92 82v20h-62v154h133v-174q0 -70 -42.5 -112t-110.5 -42zM563 92h10q80 0 144 34.5
t103.5 93t60 133.5t20.5 159t-20.5 159t-60 133.5t-103.5 93t-144 34.5h-10q-105 0 -180.5 -60t-110 -153t-34.5 -207t34.5 -207t110 -153t180.5 -60z" />
    <glyph glyph-name="Dcroat" unicode="&#x110;" horiz-adv-x="1480" 
d="M231 1434h492q294 0 469.5 -193t175.5 -528q0 -334 -175 -523.5t-470 -189.5h-492v655h-204v123h204v656zM375 133h327q251 0 387 151.5t136 432.5t-136 432t-387 151h-327v-522h307v-123h-307v-522z" />
    <glyph glyph-name="dcroat" unicode="&#x111;" horiz-adv-x="1198" 
d="M1034 1280h164v-102h-164v-1178h-133v164q-45 -83 -142 -133.5t-200 -50.5q-202 0 -329.5 144.5t-127.5 387.5t127.5 387.5t329.5 144.5q103 0 200 -50.5t142 -133.5v318h-328v102h328v154h133v-154zM563 92h10q80 0 144 34.5t103.5 93t60 133.5t20.5 159t-20.5 159
t-60 133.5t-103.5 93t-144 34.5h-10q-105 0 -180.5 -60t-110 -153t-34.5 -207t34.5 -207t110 -153t180.5 -60z" />
    <glyph glyph-name="Emacron" unicode="&#x112;" horiz-adv-x="1314" 
d="M981 1597h-563v113h563v-113zM1221 0h-1022v1434h1001v-134h-858v-495h735v-133h-735v-539h879v-133z" />
    <glyph glyph-name="emacron" unicode="&#x113;" horiz-adv-x="1077" 
d="M840 1208h-564v113h564v-113zM559 -20q-97 0 -179.5 34.5t-144.5 100.5t-97.5 168.5t-35.5 230.5q0 130 38 233t102.5 167t145.5 97t171 33q185 0 299.5 -130.5t114.5 -329.5v-82h-737q3 -205 94 -307.5t227 -102.5h12q212 0 269 201h133q-33 -151 -142.5 -232
t-269.5 -81zM240 614h600q-5 139 -79.5 228.5t-193.5 89.5h-20q-52 0 -99 -16t-91.5 -51t-75.5 -99t-41 -152z" />
    <glyph glyph-name="Ebreve" unicode="&#x114;" horiz-adv-x="1314" 
d="M700 1546q-134 0 -215.5 72.5t-81.5 204.5h113q14 -164 184 -164q171 0 185 164h112q0 -132 -81.5 -204.5t-215.5 -72.5zM1221 0h-1022v1434h1001v-134h-858v-495h735v-133h-735v-539h879v-133z" />
    <glyph glyph-name="ebreve" unicode="&#x115;" horiz-adv-x="1077" 
d="M559 1147q-127 0 -207 75.5t-80 211.5h103q7 -90 56 -136.5t128 -46.5t128 46.5t56 136.5h103q0 -136 -80 -211.5t-207 -75.5zM559 -20q-97 0 -179.5 34.5t-144.5 100.5t-97.5 168.5t-35.5 230.5q0 130 38 233t102.5 167t145.5 97t171 33q185 0 299.5 -130.5
t114.5 -329.5v-82h-737q3 -205 94 -307.5t227 -102.5h12q212 0 269 201h133q-33 -151 -142.5 -232t-269.5 -81zM240 614h600q-5 139 -79.5 228.5t-193.5 89.5h-20q-52 0 -99 -16t-91.5 -51t-75.5 -99t-41 -152z" />
    <glyph glyph-name="Edotaccent" unicode="&#x116;" horiz-adv-x="1314" 
d="M776 1597h-153v175h153v-175zM1221 0h-1022v1434h1001v-134h-858v-495h735v-133h-735v-539h879v-133z" />
    <glyph glyph-name="edotaccent" unicode="&#x117;" horiz-adv-x="1077" 
d="M635 1208h-154v174h154v-174zM559 -20q-97 0 -179.5 34.5t-144.5 100.5t-97.5 168.5t-35.5 230.5q0 130 38 233t102.5 167t145.5 97t171 33q185 0 299.5 -130.5t114.5 -329.5v-82h-737q3 -205 94 -307.5t227 -102.5h12q212 0 269 201h133q-33 -151 -142.5 -232
t-269.5 -81zM240 614h600q-5 139 -79.5 228.5t-193.5 89.5h-20q-52 0 -99 -16t-91.5 -51t-75.5 -99t-41 -152z" />
    <glyph glyph-name="Eogonek" unicode="&#x118;" horiz-adv-x="1314" 
d="M1221 133v-133q-183 -96 -183 -199q0 -88 105 -88h55v-112h-84q-93 0 -149 44t-56 130q0 132 160 225h-870v1434h1001v-134h-858v-495h735v-133h-735v-539h879z" />
    <glyph glyph-name="eogonek" unicode="&#x119;" horiz-adv-x="1077" 
d="M973 584v-82h-737q3 -205 94 -307.5t227 -102.5h12q212 0 269 201h133q-26 -114 -95.5 -188.5t-173.5 -106.5q-180 -94 -180 -197q0 -88 105 -88h55v-112h-84q-93 0 -149 44t-56 130q0 115 129 207q-186 13 -303 151.5t-117 380.5q0 130 38 233t102.5 167t145.5 97
t171 33q185 0 299.5 -130.5t114.5 -329.5zM240 614h600q-5 139 -79.5 228.5t-193.5 89.5h-20q-52 0 -99 -16t-91.5 -51t-75.5 -99t-41 -152z" />
    <glyph glyph-name="Ecaron" unicode="&#x11a;" horiz-adv-x="1314" 
d="M1028 1823l-235 -256h-185l-235 256h139l188 -148l189 148h139zM342 672v-539h879v-133h-1022v1434h1001v-134h-858v-495h735v-133h-735z" />
    <glyph glyph-name="ecaron" unicode="&#x11b;" horiz-adv-x="1077" 
d="M887 1434l-260 -267h-135l-261 267h123l205 -154l205 154h123zM973 584v-82h-737q3 -205 94 -307.5t227 -102.5h12q212 0 269 201h133q-33 -151 -142.5 -232t-269.5 -81q-97 0 -179.5 34.5t-144.5 100.5t-97.5 168.5t-35.5 230.5q0 130 38 233t102.5 167t145.5 97t171 33
q185 0 299.5 -130.5t114.5 -329.5zM240 614h600q-5 139 -79.5 228.5t-193.5 89.5h-20q-52 0 -99 -16t-91.5 -51t-75.5 -99t-41 -152z" />
    <glyph glyph-name="Gcircumflex" unicode="&#x11c;" horiz-adv-x="1492" 
d="M977 1567l-189 147l-188 -147h-139l235 256h185l235 -256h-139zM786 717h441q133 0 133 -133v-584h-133v186q-67 -96 -185 -151t-264 -55q-206 0 -358.5 95t-230.5 260.5t-78 381.5t78 381.5t230.5 260.5t360.5 95q244 0 395 -131t175 -350h-144q-25 164 -135 256
t-280 92h-21q-232 0 -374 -159.5t-142 -444.5q0 -286 143 -445t379 -159h21q85 0 161.5 26.5t137 75.5t96 125.5t35.5 169.5v74h-441v133z" />
    <glyph glyph-name="gcircumflex" unicode="&#x11d;" horiz-adv-x="1181" 
d="M778 1167l-205 154l-204 -154h-123l260 267h135l260 -267h-123zM885 860v164h133v-1016q0 -204 -127 -331.5t-346 -127.5q-214 0 -330.5 84t-132.5 224h133q20 -95 104 -145t216 -50h20q68 0 125.5 20t104.5 61.5t73.5 111.5t26.5 163v166q-47 -87 -133.5 -135.5
t-206.5 -48.5q-197 0 -320 136t-123 376q0 242 124 387t319 145q120 0 206.5 -48.5t133.5 -135.5zM549 113h20q141 0 228.5 105.5t87.5 293.5q0 190 -88 305t-228 115h-20q-139 0 -226 -115t-87 -305q0 -188 86 -293.5t227 -105.5z" />
    <glyph glyph-name="Gbreve" unicode="&#x11e;" horiz-adv-x="1492" 
d="M788 1546q-134 0 -215 72.5t-81 204.5h112q14 -164 184 -164q171 0 185 164h112q0 -132 -81.5 -204.5t-215.5 -72.5zM778 -20q-206 0 -358.5 95t-230.5 260.5t-78 381.5t78 381.5t230.5 260.5t360.5 95q244 0 395 -131t175 -350h-144q-25 164 -135 256t-280 92h-21
q-232 0 -374 -159.5t-142 -444.5q0 -286 143 -445t379 -159h21q85 0 161.5 26.5t137 75.5t96 125.5t35.5 169.5v74h-441v133h441q133 0 133 -133v-584h-133v186q-67 -96 -185 -151t-264 -55z" />
    <glyph glyph-name="gbreve" unicode="&#x11f;" horiz-adv-x="1181" 
d="M573 1147q-127 0 -206.5 75.5t-79.5 211.5h102q7 -90 56 -136.5t128 -46.5t128.5 46.5t56.5 136.5h102q0 -136 -80 -211.5t-207 -75.5zM545 -451q-214 0 -330.5 84t-132.5 224h133q20 -95 104 -145t216 -50h20q68 0 125.5 20t104.5 61.5t73.5 111.5t26.5 163v166
q-47 -87 -133.5 -135.5t-206.5 -48.5q-197 0 -320 136t-123 376q0 242 124 387t319 145q120 0 206.5 -48.5t133.5 -135.5v164h133v-1016q0 -204 -127 -331.5t-346 -127.5zM549 113h20q141 0 228.5 105.5t87.5 293.5q0 190 -88 305t-228 115h-20q-139 0 -226 -115t-87 -305
q0 -188 86 -293.5t227 -105.5z" />
    <glyph glyph-name="Gdotaccent" unicode="&#x120;" horiz-adv-x="1492" 
d="M864 1597h-153v175h153v-175zM778 -20q-206 0 -358.5 95t-230.5 260.5t-78 381.5t78 381.5t230.5 260.5t360.5 95q244 0 395 -131t175 -350h-144q-25 164 -135 256t-280 92h-21q-232 0 -374 -159.5t-142 -444.5q0 -286 143 -445t379 -159h21q85 0 161.5 26.5t137 75.5
t96 125.5t35.5 169.5v74h-441v133h441q133 0 133 -133v-584h-133v186q-67 -96 -185 -151t-264 -55z" />
    <glyph glyph-name="gdotaccent" unicode="&#x121;" horiz-adv-x="1181" 
d="M649 1208h-153v174h153v-174zM545 -451q-214 0 -330.5 84t-132.5 224h133q20 -95 104 -145t216 -50h20q68 0 125.5 20t104.5 61.5t73.5 111.5t26.5 163v166q-47 -87 -133.5 -135.5t-206.5 -48.5q-197 0 -320 136t-123 376q0 242 124 387t319 145q120 0 206.5 -48.5
t133.5 -135.5v164h133v-1016q0 -204 -127 -331.5t-346 -127.5zM549 113h20q141 0 228.5 105.5t87.5 293.5q0 190 -88 305t-228 115h-20q-139 0 -226 -115t-87 -305q0 -188 86 -293.5t227 -105.5z" />
    <glyph glyph-name="uni0122" unicode="&#x122;" horiz-adv-x="1492" 
d="M778 -20q-206 0 -358.5 95t-230.5 260.5t-78 381.5t78 381.5t230.5 260.5t360.5 95q244 0 395 -131t175 -350h-144q-25 164 -135 256t-280 92h-21q-232 0 -374 -159.5t-142 -444.5q0 -286 143 -445t379 -159h21q85 0 161.5 26.5t137 75.5t96 125.5t35.5 169.5v74h-441
v133h441q133 0 133 -133v-584h-133v186q-67 -96 -185 -151t-264 -55zM698 -512h-20v72h10q92 0 92 82v20h-61v154h133v-174q0 -70 -43 -112t-111 -42z" />
    <glyph glyph-name="uni0123" unicode="&#x123;" horiz-adv-x="1181" 
d="M659 1550h21v-71h-10q-92 0 -92 -82v-21h61v-153h-133v174q0 70 42.5 111.5t110.5 41.5zM545 -451q-214 0 -330.5 84t-132.5 224h133q20 -95 104 -145t216 -50h20q68 0 125.5 20t104.5 61.5t73.5 111.5t26.5 163v166q-47 -87 -133.5 -135.5t-206.5 -48.5q-197 0 -320 136
t-123 376q0 242 124 387t319 145q120 0 206.5 -48.5t133.5 -135.5v164h133v-1016q0 -204 -127 -331.5t-346 -127.5zM549 113h20q141 0 228.5 105.5t87.5 293.5q0 190 -88 305t-228 115h-20q-139 0 -226 -115t-87 -305q0 -188 86 -293.5t227 -105.5z" />
    <glyph glyph-name="Hcircumflex" unicode="&#x124;" horiz-adv-x="1492" 
d="M936 1567l-188 147l-189 -147h-139l235 256h185l235 -256h-139zM1151 784v650h143v-1434h-143v651h-809v-651h-143v1434h143v-650h809z" />
    <glyph glyph-name="hcircumflex" unicode="&#x125;" horiz-adv-x="1167" 
d="M827 1556l-204 154l-205 -154h-123l260 267h135l260 -267h-123zM666 1044q166 0 257 -101t91 -267v-676h-133v635q0 297 -246 297h-21q-126 0 -221.5 -104.5t-95.5 -274.5v-553h-133v1434h133v-584q53 92 147.5 143t221.5 51z" />
    <glyph glyph-name="Hbar" unicode="&#x126;" horiz-adv-x="1517" 
d="M1307 1188h143v-123h-143v-1065h-144v651h-809v-651h-143v1065h-143v123h143v246h143v-246h809v246h144v-246zM354 784h809v281h-809v-281z" />
    <glyph glyph-name="hbar" unicode="&#x127;" horiz-adv-x="1167" 
d="M666 1044q166 0 257 -101t91 -267v-676h-133v635q0 297 -246 297h-21q-126 0 -221.5 -104.5t-95.5 -274.5v-553h-133v1178h-146v102h146v154h133v-154h346v-102h-346v-328q53 92 147.5 143t221.5 51z" />
    <glyph glyph-name="Itilde" unicode="&#x128;" horiz-adv-x="540" 
d="M430 1556q-36 0 -71.5 16.5t-92.5 57.5l-65 47q-46 33 -82 33q-84 0 -84 -133h-103v47q0 85 51 142t130 57q72 0 131 -45l69 -52q5 -3 24.5 -18t28.5 -20.5t25.5 -12t32.5 -6.5q80 0 80 133h102v-47q0 -84 -51 -141.5t-125 -57.5zM342 0h-143v1434h143v-1434z" />
    <glyph glyph-name="itilde" unicode="&#x129;" horiz-adv-x="460" 
d="M391 1147q-36 0 -71.5 16.5t-92.5 57.5l-65 47q-44 32 -82 32q-84 0 -84 -133h-102v47q0 85 50.5 142t129.5 57q72 0 131 -45l69 -51q5 -3 24.5 -18t28.5 -20.5t25.5 -12t32.5 -6.5q80 0 80 133h102v-47q0 -84 -51 -141.5t-125 -57.5zM297 0h-133v1024h133v-1024z" />
    <glyph glyph-name="Imacron" unicode="&#x12a;" horiz-adv-x="540" 
d="M551 1597h-563v113h563v-113zM342 0h-143v1434h143v-1434z" />
    <glyph glyph-name="imacron" unicode="&#x12b;" horiz-adv-x="460" 
d="M512 1208h-563v113h563v-113zM297 0h-133v1024h133v-1024z" />
    <glyph glyph-name="Ibreve" unicode="&#x12c;" horiz-adv-x="540" 
d="M270 1546q-134 0 -215.5 72.5t-81.5 204.5h113q14 -164 184 -164q171 0 185 164h112q0 -132 -81.5 -204.5t-215.5 -72.5zM342 0h-143v1434h143v-1434z" />
    <glyph glyph-name="ibreve" unicode="&#x12d;" horiz-adv-x="460" 
d="M231 1147q-127 0 -206.5 75.5t-79.5 211.5h102q7 -90 56 -136.5t128 -46.5t128.5 46.5t56.5 136.5h102q0 -136 -80 -211.5t-207 -75.5zM297 0h-133v1024h133v-1024z" />
    <glyph glyph-name="Iogonek" unicode="&#x12e;" horiz-adv-x="540" 
d="M342 1434v-1434q-182 -95 -182 -199q0 -88 104 -88h55v-112h-83q-93 0 -149 44t-56 130q0 133 168 231v1428h143z" />
    <glyph glyph-name="iogonek" unicode="&#x12f;" horiz-adv-x="460" 
d="M154 1208v174h153v-174h-153zM164 10v1014h133v-1024q-182 -95 -182 -199q0 -88 104 -88h55v-112h-84q-93 0 -148.5 44t-55.5 130q0 139 178 235z" />
    <glyph glyph-name="Idotaccent" unicode="&#x130;" horiz-adv-x="540" 
d="M346 1597h-153v175h153v-175zM342 0h-143v1434h143v-1434z" />
    <glyph glyph-name="dotlessi" unicode="&#x131;" horiz-adv-x="460" 
d="M297 0h-133v1024h133v-1024z" />
    <glyph glyph-name="IJ" unicode="&#x132;" horiz-adv-x="1124" 
d="M610 0h-463v133h461q185 0 185 236v1065h143v-1059q0 -185 -84.5 -280t-241.5 -95zM291 379h-144v1055h144v-1055z" />
    <glyph glyph-name="ij" unicode="&#x133;" horiz-adv-x="972" 
d="M307 1208h-153v174h153v-174zM819 1208h-153v174h153v-174zM614 -338h-450v113h430q46 0 64 18t18 64v1167h133v-1178q0 -98 -47 -141t-148 -43zM297 0h-133v1024h133v-1024z" />
    <glyph glyph-name="Jcircumflex" unicode="&#x134;" horiz-adv-x="792" 
d="M440 1823h185l235 -256h-139l-189 147l-188 -147h-139zM461 369v1065h143v-1059q0 -185 -84 -280t-241 -95h-226v133h223q185 0 185 236z" />
    <glyph glyph-name="jcircumflex" unicode="&#x135;" horiz-adv-x="477" 
d="M180 1434h135l260 -267h-122l-205 154l-205 -154h-123zM180 -143v1167h133v-1178q0 -98 -46.5 -141t-147.5 -43h-287v113h266q46 0 64 18t18 64z" />
    <glyph glyph-name="uni0136" unicode="&#x136;" horiz-adv-x="1370" 
d="M1337 1434l-583 -578l592 -856h-179l-516 752l-309 -306v-446h-143v1434h143v-799l805 799h190zM705 -338h-62v154h133v-174q0 -70 -42.5 -112t-110.5 -42h-21v72h10q93 0 93 82v20z" />
    <glyph glyph-name="uni0137" unicode="&#x137;" horiz-adv-x="1073" 
d="M297 0h-133v1434h133v-940l545 530h182l-426 -408l446 -616h-165l-375 524l-207 -196v-328zM455 -512h-21v72h10q93 0 93 82v20h-62v154h133v-174q0 -70 -42.5 -112t-110.5 -42z" />
    <glyph glyph-name="Lacute" unicode="&#x139;" horiz-adv-x="1232" 
d="M338 1567h-123l109 256h184zM1200 0h-1001v1434h143v-1301h858v-133z" />
    <glyph glyph-name="lacute" unicode="&#x13a;" horiz-adv-x="460" 
d="M281 1556h-101l117 267h164zM297 0h-133v1434h133v-1434z" />
    <glyph glyph-name="uni013B" unicode="&#x13b;" horiz-adv-x="1232" 
d="M1200 0h-1001v1434h143v-1301h858v-133zM612 -512h-20v72h10q92 0 92 82v20h-61v154h133v-174q0 -70 -43 -112t-111 -42z" />
    <glyph glyph-name="uni013C" unicode="&#x13c;" horiz-adv-x="460" 
d="M297 0h-133v1434h133v-1434zM143 -512h-20v72h10q92 0 92 82v20h-61v154h133v-174q0 -70 -43 -112t-111 -42z" />
    <glyph glyph-name="Lcaron" unicode="&#x13d;" horiz-adv-x="1232" 
d="M1200 0h-1001v1434h143v-1301h858v-133zM596 1106h-21v72h11q92 0 92 82v20h-62v154h134v-174q0 -70 -43 -112t-111 -42z" />
    <glyph glyph-name="lcaron" unicode="&#x13e;" horiz-adv-x="497" 
d="M297 0h-133v1434h133v-1434zM408 1106h-21v72h10q92 0 92 82v20h-61v154h133v-174q0 -70 -42.5 -112t-110.5 -42z" />
    <glyph glyph-name="Ldot" unicode="&#x13f;" horiz-adv-x="1236" 
d="M1200 0h-1001v1434h143v-1301h858v-133zM989 645h-184v184h184v-184z" />
    <glyph glyph-name="ldot" unicode="&#x140;" horiz-adv-x="530" 
d="M297 0h-133v1434h133v-1434zM590 592h-184v184h184v-184z" />
    <glyph glyph-name="Lslash" unicode="&#x141;" horiz-adv-x="1282" 
d="M391 651v-518h858v-133h-1001v569l-195 -110v145l195 111v719h143v-639l397 225v-143z" />
    <glyph glyph-name="lslash" unicode="&#x142;" horiz-adv-x="571" 
d="M356 920l174 98v-133l-174 -99v-786h-133v709l-174 -99v135l174 99v590h133v-514z" />
    <glyph glyph-name="Nacute" unicode="&#x143;" horiz-adv-x="1513" 
d="M825 1823h185l-170 -256h-123zM1171 219v1215h144v-1434h-174l-799 1235v-1235h-143v1434h184z" />
    <glyph glyph-name="nacute" unicode="&#x144;" horiz-adv-x="1167" 
d="M645 1167h-100l117 267h163zM297 0h-133v1024h133v-172q45 87 140 139.5t218 52.5q160 0 259.5 -97.5t99.5 -276.5v-670h-133v629q0 303 -246 303h-12q-80 0 -143.5 -34.5t-102.5 -93t-59.5 -133t-20.5 -159.5v-512z" />
    <glyph glyph-name="uni0145" unicode="&#x145;" horiz-adv-x="1513" 
d="M1171 219v1215h144v-1434h-174l-799 1235v-1235h-143v1434h184zM752 -338h-62v154h133v-174q0 -70 -42.5 -112t-110.5 -42h-21v72h10q93 0 93 82v20z" />
    <glyph glyph-name="uni0146" unicode="&#x146;" horiz-adv-x="1167" 
d="M297 0h-133v1024h133v-172q45 87 140 139.5t218 52.5q160 0 259.5 -97.5t99.5 -276.5v-670h-133v629q0 303 -246 303h-12q-80 0 -143.5 -34.5t-102.5 -93t-59.5 -133t-20.5 -159.5v-512zM508 -512h-21v72h11q92 0 92 82v20h-62v154h134v-174q0 -70 -43 -112t-111 -42z
" />
    <glyph glyph-name="Ncaron" unicode="&#x147;" horiz-adv-x="1513" 
d="M1106 1823l-236 -256h-184l-235 256h139l188 -148l189 148h139zM1171 219v1215h144v-1434h-174l-799 1235v-1235h-143v1434h184z" />
    <glyph glyph-name="ncaron" unicode="&#x148;" horiz-adv-x="1167" 
d="M924 1434l-260 -267h-136l-260 267h123l205 -154l205 154h123zM655 1044q160 0 259.5 -97.5t99.5 -276.5v-670h-133v629q0 303 -246 303h-12q-80 0 -143.5 -34.5t-102.5 -93t-59.5 -133t-20.5 -159.5v-512h-133v1024h133v-172q45 87 140 139.5t218 52.5z" />
    <glyph glyph-name="Eng" unicode="&#x14a;" horiz-adv-x="1513" 
d="M1100 -358h-236v133h215q54 0 73 19t19 73v133l-829 1210v-1210h-143v1434h161l811 -1182v1182h144v-1577q0 -215 -215 -215z" />
    <glyph glyph-name="eng" unicode="&#x14b;" horiz-adv-x="1167" 
d="M655 1044q160 0 259.5 -97.5t99.5 -276.5v-824q0 -99 -46.5 -141.5t-148.5 -42.5h-205v113h185q47 0 64.5 18t17.5 64v772q0 303 -246 303h-12q-80 0 -143.5 -34.5t-102.5 -93t-59.5 -133t-20.5 -159.5v-512h-133v1024h133v-172q45 87 140 139.5t218 52.5z" />
    <glyph glyph-name="Omacron" unicode="&#x14c;" horiz-adv-x="1531" 
d="M1047 1597h-564v113h564v-113zM766 -20q-141 0 -261.5 51t-207.5 144t-136.5 232.5t-49.5 309.5t49.5 309.5t136.5 232.5t207.5 144t261.5 51t261.5 -51t207.5 -144t136.5 -232.5t49.5 -309.5t-49.5 -309.5t-136.5 -232.5t-207.5 -144t-261.5 -51zM756 113h20
q222 0 362 163.5t140 440.5t-140 440.5t-362 163.5h-20q-222 0 -362 -163.5t-140 -440.5t140 -440.5t362 -163.5z" />
    <glyph glyph-name="omacron" unicode="&#x14d;" horiz-adv-x="1142" 
d="M852 1208h-563v113h563v-113zM571 -20q-201 0 -336 149t-135 383t135 383t336 149t336 -149t135 -383t-135 -383t-336 -149zM561 92h21q141 0 233 114t92 306t-92 306t-233 114h-21q-141 0 -233 -114t-92 -306t92 -306t233 -114z" />
    <glyph glyph-name="Obreve" unicode="&#x14e;" horiz-adv-x="1531" 
d="M766 1546q-134 0 -215.5 72.5t-81.5 204.5h113q14 -164 184 -164t184 164h113q0 -132 -81.5 -204.5t-215.5 -72.5zM766 -20q-141 0 -261.5 51t-207.5 144t-136.5 232.5t-49.5 309.5t49.5 309.5t136.5 232.5t207.5 144t261.5 51t261.5 -51t207.5 -144t136.5 -232.5
t49.5 -309.5t-49.5 -309.5t-136.5 -232.5t-207.5 -144t-261.5 -51zM756 113h20q222 0 362 163.5t140 440.5t-140 440.5t-362 163.5h-20q-222 0 -362 -163.5t-140 -440.5t140 -440.5t362 -163.5z" />
    <glyph glyph-name="obreve" unicode="&#x14f;" horiz-adv-x="1142" 
d="M571 1147q-127 0 -206.5 75.5t-79.5 211.5h102q7 -90 56 -136.5t128 -46.5t128.5 46.5t56.5 136.5h102q0 -136 -80 -211.5t-207 -75.5zM571 -20q-201 0 -336 149t-135 383t135 383t336 149t336 -149t135 -383t-135 -383t-336 -149zM561 92h21q141 0 233 114t92 306
t-92 306t-233 114h-21q-141 0 -233 -114t-92 -306t92 -306t233 -114z" />
    <glyph glyph-name="Ohungarumlaut" unicode="&#x150;" horiz-adv-x="1531" 
d="M666 1567h-123l108 256h185zM1001 1567h-122l108 256h184zM766 -20q-141 0 -261.5 51t-207.5 144t-136.5 232.5t-49.5 309.5t49.5 309.5t136.5 232.5t207.5 144t261.5 51t261.5 -51t207.5 -144t136.5 -232.5t49.5 -309.5t-49.5 -309.5t-136.5 -232.5t-207.5 -144
t-261.5 -51zM756 113h20q222 0 362 163.5t140 440.5t-140 440.5t-362 163.5h-20q-222 0 -362 -163.5t-140 -440.5t140 -440.5t362 -163.5z" />
    <glyph glyph-name="ohungarumlaut" unicode="&#x151;" horiz-adv-x="1142" 
d="M416 1167h-101l117 267h164zM741 1167h-100l117 267h164zM571 -20q-201 0 -336 149t-135 383t135 383t336 149t336 -149t135 -383t-135 -383t-336 -149zM561 92h21q141 0 233 114t92 306t-92 306t-233 114h-21q-141 0 -233 -114t-92 -306t92 -306t233 -114z" />
    <glyph glyph-name="OE" unicode="&#x152;" horiz-adv-x="2392" 
d="M766 -20q-141 0 -261.5 51t-207.5 144t-136.5 232.5t-49.5 309.5t49.5 309.5t136.5 232.5t207.5 144t261.5 51q158 0 290 -63.5t220 -182.5v226h1001v-134h-858v-495h735v-133h-735v-539h879v-133h-1022v225q-88 -118 -220 -181.5t-290 -63.5zM756 113h20
q222 0 362 163.5t140 440.5t-140 440.5t-362 163.5h-20q-222 0 -362 -163.5t-140 -440.5t140 -440.5t362 -163.5z" />
    <glyph glyph-name="oe" unicode="&#x153;" horiz-adv-x="1884" 
d="M571 -20q-201 0 -336 149t-135 383t135 383t336 149q128 0 233.5 -63t168.5 -176q60 118 164 178.5t229 60.5q185 0 299.5 -130.5t114.5 -329.5v-82h-738q1 -105 28 -185.5t72 -128.5t101 -72t121 -24h12q212 0 269 201h133q-33 -151 -142.5 -232t-269.5 -81
q-130 0 -233 61t-162 178q-62 -113 -167.5 -176t-232.5 -63zM561 92h21q141 0 233 114t92 306t-92 306t-233 114h-21q-141 0 -233 -114t-92 -306t92 -306t233 -114zM1047 614h600q-5 139 -79.5 228.5t-193.5 89.5h-20q-52 0 -99 -16t-91.5 -51t-75.5 -99t-41 -152z" />
    <glyph glyph-name="Racute" unicode="&#x154;" horiz-adv-x="1382" 
d="M727 1567h-123l109 256h184zM342 0h-143v1434h585q189 0 314 -108.5t125 -274.5q0 -122 -58.5 -213t-158.5 -131q107 0 151.5 -44.5t44.5 -150.5v-512h-143v512q0 92 -92 92h-625v-604zM342 1300v-563h422q128 0 221.5 81.5t93.5 211.5q0 127 -83.5 198.5t-231.5 71.5
h-422z" />
    <glyph glyph-name="racute" unicode="&#x155;" horiz-adv-x="733" 
d="M459 1167h-101l117 267h164zM297 0h-133v1024h123v-233q34 119 120 181t197 62h92v-123h-82q-148 0 -232.5 -110t-84.5 -303v-498z" />
    <glyph glyph-name="uni0156" unicode="&#x156;" horiz-adv-x="1382" 
d="M342 0h-143v1434h585q189 0 314 -108.5t125 -274.5q0 -122 -58.5 -213t-158.5 -131q107 0 151.5 -44.5t44.5 -150.5v-512h-143v512q0 92 -92 92h-625v-604zM342 1300v-563h422q128 0 221.5 81.5t93.5 211.5q0 127 -83.5 198.5t-231.5 71.5h-422zM621 -512h-21v72h10
q92 0 92 82v20h-61v154h133v-174q0 -70 -42.5 -112t-110.5 -42z" />
    <glyph glyph-name="uni0157" unicode="&#x157;" horiz-adv-x="733" 
d="M297 0h-133v1024h123v-233q34 119 120 181t197 62h92v-123h-82q-148 0 -232.5 -110t-84.5 -303v-498zM141 -512h-20v72h10q92 0 92 82v20h-61v154h133v-174q0 -70 -43 -112t-111 -42z" />
    <glyph glyph-name="Rcaron" unicode="&#x158;" horiz-adv-x="1382" 
d="M993 1823l-235 -256h-185l-235 256h139l189 -148l188 148h139zM1006 707q107 0 151.5 -44.5t44.5 -150.5v-512h-143v512q0 92 -92 92h-625v-604h-143v1434h585q189 0 314 -108.5t125 -274.5q0 -122 -58.5 -213t-158.5 -131zM342 737h422q128 0 221.5 81.5t93.5 211.5
q0 127 -83.5 198.5t-231.5 71.5h-422v-563z" />
    <glyph glyph-name="rcaron" unicode="&#x159;" horiz-adv-x="733" 
d="M737 1434l-260 -267h-135l-260 267h123l205 -154l204 154h123zM287 1024v-233q34 119 120 181t197 62h92v-123h-82q-148 0 -232.5 -110t-84.5 -303v-498h-133v1024h123z" />
    <glyph glyph-name="Sacute" unicode="&#x15a;" horiz-adv-x="1265" 
d="M711 1567h-123l108 256h185zM639 -20q-262 0 -407.5 123.5t-145.5 347.5h143q0 -160 112 -249t296 -89h20q159 0 248.5 75.5t89.5 190.5q0 99 -65 158.5t-201 87.5l-229 47q-342 71 -342 372q0 174 134 292t357 118q230 0 367 -118.5t145 -321.5h-143
q-9 140 -108.5 223.5t-250.5 83.5h-20q-148 0 -243 -78t-95 -196q0 -94 62.5 -151.5t175.5 -80.5l229 -45q371 -74 371 -383q0 -189 -134.5 -298t-365.5 -109z" />
    <glyph glyph-name="sacute" unicode="&#x15b;" horiz-adv-x="976" 
d="M530 1167h-100l117 267h164zM492 -20q-191 0 -295.5 90t-112.5 237h133q10 -103 82.5 -159t181.5 -56h21q107 0 169 49.5t62 134.5q0 62 -40 98.5t-140 59.5l-150 33q-61 13 -108 33t-87 51.5t-61.5 80t-21.5 111.5q0 140 106.5 220.5t260.5 80.5q93 0 166.5 -27
t119 -73.5t70.5 -104t29 -122.5h-134q-10 90 -75 152.5t-166 62.5h-21q-102 0 -162.5 -52t-60.5 -124q0 -68 43 -105t143 -59l160 -35q59 -13 103 -31.5t81.5 -49.5t57.5 -78.5t20 -110.5q0 -144 -101.5 -225.5t-272.5 -81.5z" />
    <glyph glyph-name="Scircumflex" unicode="&#x15c;" horiz-adv-x="1265" 
d="M838 1567l-189 147l-188 -147h-139l235 256h184l236 -256h-139zM539 815l229 -45q371 -74 371 -383q0 -189 -134.5 -298t-365.5 -109q-262 0 -407.5 123.5t-145.5 347.5h143q0 -160 112 -249t296 -89h20q159 0 248.5 75.5t89.5 190.5q0 99 -65 158.5t-201 87.5l-229 47
q-342 71 -342 372q0 174 134 292t357 118q230 0 367 -118.5t145 -321.5h-143q-9 140 -108.5 223.5t-250.5 83.5h-20q-148 0 -243 -78t-95 -196q0 -94 62.5 -151.5t175.5 -80.5z" />
    <glyph glyph-name="scircumflex" unicode="&#x15d;" horiz-adv-x="976" 
d="M686 1167l-205 154l-205 -154h-122l260 267h135l260 -267h-123zM444 592l160 -35q59 -13 103 -31.5t81.5 -49.5t57.5 -78.5t20 -110.5q0 -144 -101.5 -225.5t-272.5 -81.5q-191 0 -295.5 90t-112.5 237h133q10 -103 82.5 -159t181.5 -56h21q107 0 169 49.5t62 134.5
q0 62 -40 98.5t-140 59.5l-150 33q-61 13 -108 33t-87 51.5t-61.5 80t-21.5 111.5q0 140 106.5 220.5t260.5 80.5q93 0 166.5 -27t119 -73.5t70.5 -104t29 -122.5h-134q-10 90 -75 152.5t-166 62.5h-21q-102 0 -162.5 -52t-60.5 -124q0 -68 43 -105t143 -59z" />
    <glyph glyph-name="Scedilla" unicode="&#x15e;" horiz-adv-x="1265" 
d="M539 815l229 -45q371 -74 371 -383q0 -179 -121.5 -286.5t-333.5 -118.5v-74q68 2 118 -45t50 -121q0 -88 -54.5 -145.5t-150.5 -57.5h-127v113h129q44 0 72.5 23t28.5 67t-28.5 66t-72.5 22h-57v152q-240 11 -373 133.5t-133 335.5h143q0 -160 112 -249t296 -89h20
q159 0 248.5 75.5t89.5 190.5q0 99 -65 158.5t-201 87.5l-229 47q-342 71 -342 372q0 174 134 292t357 118q230 0 367 -118.5t145 -321.5h-143q-9 140 -108.5 223.5t-250.5 83.5h-20q-148 0 -243 -78t-95 -196q0 -94 62.5 -151.5t175.5 -80.5z" />
    <glyph glyph-name="scedilla" unicode="&#x15f;" horiz-adv-x="976" 
d="M444 592l160 -35q59 -13 103 -31.5t81.5 -49.5t57.5 -78.5t20 -110.5q0 -136 -92 -217t-248 -90v-72q68 2 118 -45t50 -121q0 -88 -54.5 -145.5t-150.5 -57.5h-127v113h130q44 0 72 23t28 67t-28 66t-72 22h-58v152q-163 13 -252.5 101t-97.5 224h133q10 -103 82.5 -159
t181.5 -56h21q107 0 169 49.5t62 134.5q0 62 -40 98.5t-140 59.5l-150 33q-61 13 -108 33t-87 51.5t-61.5 80t-21.5 111.5q0 140 106.5 220.5t260.5 80.5q93 0 166.5 -27t119 -73.5t70.5 -104t29 -122.5h-134q-10 90 -75 152.5t-166 62.5h-21q-102 0 -162.5 -52t-60.5 -124
q0 -68 43 -105t143 -59z" />
    <glyph glyph-name="Scaron" unicode="&#x160;" horiz-adv-x="1265" 
d="M977 1823l-236 -256h-184l-235 256h139l188 -148l189 148h139zM539 815l229 -45q371 -74 371 -383q0 -189 -134.5 -298t-365.5 -109q-262 0 -407.5 123.5t-145.5 347.5h143q0 -160 112 -249t296 -89h20q159 0 248.5 75.5t89.5 190.5q0 99 -65 158.5t-201 87.5l-229 47
q-342 71 -342 372q0 174 134 292t357 118q230 0 367 -118.5t145 -321.5h-143q-9 140 -108.5 223.5t-250.5 83.5h-20q-148 0 -243 -78t-95 -196q0 -94 62.5 -151.5t175.5 -80.5z" />
    <glyph glyph-name="scaron" unicode="&#x161;" horiz-adv-x="976" 
d="M809 1434l-260 -267h-135l-260 267h122l205 -154l205 154h123zM444 592l160 -35q59 -13 103 -31.5t81.5 -49.5t57.5 -78.5t20 -110.5q0 -144 -101.5 -225.5t-272.5 -81.5q-191 0 -295.5 90t-112.5 237h133q10 -103 82.5 -159t181.5 -56h21q107 0 169 49.5t62 134.5
q0 62 -40 98.5t-140 59.5l-150 33q-61 13 -108 33t-87 51.5t-61.5 80t-21.5 111.5q0 140 106.5 220.5t260.5 80.5q93 0 166.5 -27t119 -73.5t70.5 -104t29 -122.5h-134q-10 90 -75 152.5t-166 62.5h-21q-102 0 -162.5 -52t-60.5 -124q0 -68 43 -105t143 -59z" />
    <glyph glyph-name="uni0162" unicode="&#x162;" horiz-adv-x="1249" 
d="M696 1300v-1300h-26v-92q68 2 118 -45t50 -121q0 -88 -54.5 -145.5t-150.5 -57.5h-127v113h129q44 0 72 23t28 67t-28 66t-72 22h-57v170h-25v1300h-522v134h1188v-134h-523z" />
    <glyph glyph-name="uni0163" unicode="&#x163;" horiz-adv-x="729" 
d="M686 113v-113h-219v-92q68 2 118 -45t50 -121q0 -88 -54.5 -145.5t-150.5 -57.5h-127v113h129q44 0 72 23t28 67t-28 66t-72 22h-57v180q-109 29 -109 174v727h-235v113h235v332h133v-332h256v-113h-256v-716q0 -46 18 -64t64 -18h205z" />
    <glyph glyph-name="Tcaron" unicode="&#x164;" horiz-adv-x="1249" 
d="M952 1823l-235 -256h-185l-235 256h139l189 -148l188 148h139zM31 1300v134h1188v-134h-523v-1300h-143v1300h-522z" />
    <glyph glyph-name="tcaron" unicode="&#x165;" horiz-adv-x="729" 
d="M614 1106h-20v72h10q92 0 92 82v20h-61v154h133v-174q0 -70 -43 -112t-111 -42zM686 0h-225q-101 0 -148 43t-47 141v727h-235v113h235v332h133v-332h256v-113h-256v-716q0 -46 18 -64t64 -18h205v-113z" />
    <glyph glyph-name="Tbar" unicode="&#x166;" horiz-adv-x="1314" 
d="M1251 1434v-134h-522v-462h389v-123h-389v-715h-143v715h-389v123h389v462h-523v134h1188z" />
    <glyph glyph-name="tbar" unicode="&#x167;" horiz-adv-x="765" 
d="M508 113h205v-113h-226q-101 0 -147.5 43t-46.5 141v363h-236v102h236v262h-236v113h236v332h133v-332h256v-113h-256v-262h256v-102h-256v-352q0 -46 18 -64t64 -18z" />
    <glyph glyph-name="Utilde" unicode="&#x168;" horiz-adv-x="1413" 
d="M866 1556q-36 0 -71.5 16.5t-92.5 57.5l-65 47q-46 33 -82 33q-84 0 -84 -133h-102v47q0 85 50.5 142t129.5 57q72 0 131 -45l70 -52q6 -4 24.5 -18.5t27.5 -20t25.5 -12t32.5 -6.5q80 0 80 133h102v-47q0 -84 -51 -141.5t-125 -57.5zM707 -20q-258 0 -390.5 143
t-132.5 389v922h144v-902q0 -199 94.5 -309t273.5 -110h21q179 0 273.5 110t94.5 309v902h144v-922q0 -244 -135 -388t-387 -144z" />
    <glyph glyph-name="utilde" unicode="&#x169;" horiz-adv-x="1146" 
d="M723 1147q-36 0 -71.5 16.5t-92.5 57.5l-65 47q-44 32 -82 32q-84 0 -84 -133h-103v47q0 85 51 142t130 57q72 0 131 -45l69 -51q5 -3 24.5 -18t28.5 -20.5t25.5 -12t32.5 -6.5q80 0 80 133h102v-47q0 -84 -51 -141.5t-125 -57.5zM508 -20q-167 0 -260.5 101.5
t-93.5 266.5v676h133v-635q0 -297 245 -297h21q119 0 208 104t89 275v553h133v-1024h-133v193q-40 -102 -128.5 -157.5t-213.5 -55.5z" />
    <glyph glyph-name="Umacron" unicode="&#x16a;" horiz-adv-x="1413" 
d="M987 1597h-563v113h563v-113zM707 -20q-258 0 -390.5 143t-132.5 389v922h144v-902q0 -199 94.5 -309t273.5 -110h21q179 0 273.5 110t94.5 309v902h144v-922q0 -244 -135 -388t-387 -144z" />
    <glyph glyph-name="umacron" unicode="&#x16b;" horiz-adv-x="1146" 
d="M844 1208h-563v113h563v-113zM508 -20q-167 0 -260.5 101.5t-93.5 266.5v676h133v-635q0 -297 245 -297h21q119 0 208 104t89 275v553h133v-1024h-133v193q-40 -102 -128.5 -157.5t-213.5 -55.5z" />
    <glyph glyph-name="Ubreve" unicode="&#x16c;" horiz-adv-x="1413" 
d="M707 1546q-134 0 -215.5 72.5t-81.5 204.5h112q14 -164 185 -164q170 0 184 164h113q0 -132 -81.5 -204.5t-215.5 -72.5zM707 -20q-258 0 -390.5 143t-132.5 389v922h144v-902q0 -199 94.5 -309t273.5 -110h21q179 0 273.5 110t94.5 309v902h144v-922q0 -244 -135 -388
t-387 -144z" />
    <glyph glyph-name="ubreve" unicode="&#x16d;" horiz-adv-x="1146" 
d="M563 1147q-127 0 -207 75.5t-80 211.5h103q7 -90 56 -136.5t128 -46.5t128.5 46.5t56.5 136.5h102q0 -136 -80 -211.5t-207 -75.5zM508 -20q-167 0 -260.5 101.5t-93.5 266.5v676h133v-635q0 -297 245 -297h21q119 0 208 104t89 275v553h133v-1024h-133v193
q-40 -102 -128.5 -157.5t-213.5 -55.5z" />
    <glyph glyph-name="Uring" unicode="&#x16e;" horiz-adv-x="1413" 
d="M707 1554q-64 0 -113 47t-49 115t49 115t113 47t112.5 -47t48.5 -115t-48.5 -115t-112.5 -47zM709 1647q27 0 46 20.5t19 48.5t-19 49t-46 21q-28 0 -49 -21t-21 -49t21 -48.5t49 -20.5zM707 -20q-258 0 -390.5 143t-132.5 389v922h144v-902q0 -199 94.5 -309t273.5 -110
h21q179 0 273.5 110t94.5 309v902h144v-922q0 -244 -135 -388t-387 -144z" />
    <glyph glyph-name="uring" unicode="&#x16f;" horiz-adv-x="1146" 
d="M563 1157q-69 0 -120.5 49.5t-51.5 122.5t51.5 122.5t120.5 49.5t120.5 -49.5t51.5 -122.5t-51.5 -122.5t-120.5 -49.5zM565 1237q37 0 62.5 27t25.5 65t-25.5 65t-62.5 27t-63.5 -27t-26.5 -65t26.5 -65t63.5 -27zM508 -20q-167 0 -260.5 101.5t-93.5 266.5v676h133
v-635q0 -297 245 -297h21q119 0 208 104t89 275v553h133v-1024h-133v193q-40 -102 -128.5 -157.5t-213.5 -55.5z" />
    <glyph glyph-name="Uhungarumlaut" unicode="&#x170;" horiz-adv-x="1413" 
d="M606 1567h-123l109 256h184zM942 1567h-123l109 256h184zM707 -20q-258 0 -390.5 143t-132.5 389v922h144v-902q0 -199 94.5 -309t273.5 -110h21q179 0 273.5 110t94.5 309v902h144v-922q0 -244 -135 -388t-387 -144z" />
    <glyph glyph-name="uhungarumlaut" unicode="&#x171;" horiz-adv-x="1146" 
d="M408 1167h-101l117 267h164zM733 1167h-100l117 267h163zM508 -20q-167 0 -260.5 101.5t-93.5 266.5v676h133v-635q0 -297 245 -297h21q119 0 208 104t89 275v553h133v-1024h-133v193q-40 -102 -128.5 -157.5t-213.5 -55.5z" />
    <glyph glyph-name="Uogonek" unicode="&#x172;" horiz-adv-x="1413" 
d="M1085 532v902h144v-922q0 -198 -90.5 -333t-261.5 -179q-183 -96 -183 -199q0 -88 105 -88h55v-112h-84q-93 0 -149 44t-56 130q0 114 127 205q-168 3 -283.5 71t-170 185t-54.5 276v922h144v-902q0 -199 94.5 -309t273.5 -110h21q179 0 273.5 110t94.5 309z" />
    <glyph glyph-name="uogonek" unicode="&#x173;" horiz-adv-x="1146" 
d="M983 1024v-1024q-182 -95 -182 -199q0 -88 104 -88h56v-112h-84q-93 0 -149 44t-56 130q0 139 178 235v183q-40 -102 -128.5 -157.5t-213.5 -55.5q-167 0 -260.5 101.5t-93.5 266.5v676h133v-635q0 -297 245 -297h21q119 0 208 104t89 275v553h133z" />
    <glyph glyph-name="Wcircumflex" unicode="&#x174;" horiz-adv-x="1878" 
d="M1128 1567l-188 147l-188 -147h-140l236 256h184l236 -256h-140zM1370 121l313 1313h144l-354 -1434h-218l-315 1284l-317 -1284h-217l-355 1434h146l321 -1323l318 1323h213z" />
    <glyph glyph-name="wcircumflex" unicode="&#x175;" horiz-adv-x="1568" 
d="M991 1167l-205 154l-204 -154h-123l260 267h135l260 -267h-123zM1112 106l279 918h131l-328 -1024h-178l-232 883l-231 -883h-176l-330 1024h137l285 -905l231 905h170z" />
    <glyph glyph-name="Ycircumflex" unicode="&#x176;" horiz-adv-x="1216" 
d="M799 1567l-189 147l-188 -147h-139l235 256h184l236 -256h-139zM610 725l434 709h158l-522 -840v-594h-143v594l-523 840h162z" />
    <glyph glyph-name="ycircumflex" unicode="&#x177;" horiz-adv-x="1064" 
d="M750 1167l-205 154l-205 -154h-123l260 267h135l260 -267h-122zM897 1024h139l-422 -989v-195q0 -93 -47 -135.5t-147 -42.5h-311v113h290q46 0 64 18t18 64v172l-434 995h146l352 -829z" />
    <glyph glyph-name="Ydieresis" unicode="&#x178;" horiz-adv-x="1216" 
d="M502 1597h-164v164h164v-164zM883 1597h-164v164h164v-164zM680 0h-143v594l-523 840h162l434 -709l434 709h158l-522 -840v-594z" />
    <glyph glyph-name="Zacute" unicode="&#x179;" horiz-adv-x="1220" 
d="M674 1567h-123l108 256h185zM1139 0h-1055v152l872 1148h-852v134h1014v-142l-878 -1159h899v-133z" />
    <glyph glyph-name="zacute" unicode="&#x17a;" horiz-adv-x="966" 
d="M555 1434h164l-180 -267h-101zM862 903l-639 -790h670v-113h-809v125l635 786h-625v113h768v-121z" />
    <glyph glyph-name="Zdotaccent" unicode="&#x17b;" horiz-adv-x="1220" 
d="M688 1597h-153v175h153v-175zM1139 0h-1055v152l872 1148h-852v134h1014v-142l-878 -1159h899v-133z" />
    <glyph glyph-name="zdotaccent" unicode="&#x17c;" horiz-adv-x="966" 
d="M412 1382h153v-174h-153v174zM862 903l-639 -790h670v-113h-809v125l635 786h-625v113h768v-121z" />
    <glyph glyph-name="Zcaron" unicode="&#x17d;" horiz-adv-x="1220" 
d="M940 1823l-235 -256h-185l-235 256h139l188 -148l189 148h139zM1118 1292l-878 -1159h899v-133h-1055v152l872 1148h-852v134h1014v-142z" />
    <glyph glyph-name="zcaron" unicode="&#x17e;" horiz-adv-x="966" 
d="M817 1434l-260 -267h-135l-260 267h123l204 -154l205 154h123zM862 903l-639 -790h670v-113h-809v125l635 786h-625v113h768v-121z" />
    <glyph glyph-name="florin" unicode="&#x192;" horiz-adv-x="849" 
d="M805 1300h-72q-116 0 -162 -54t-67 -191l-23 -144h267v-123h-285l-123 -808q-33 -211 -114.5 -300.5t-250.5 -89.5h-81v134h71q119 0 167 54.5t69 190.5l127 819h-230v123h248l23 150q32 209 109 291t245 82h82v-134z" />
    <glyph glyph-name="AEacute" unicode="&#x1fc;" horiz-adv-x="2015" 
d="M1331 1567h-123l109 256h184zM156 0h-162l850 1434h993v-134h-764l68 -495h635v-133h-617l72 -539h729v-133h-850l-53 395h-668zM930 1315l-463 -787h571z" />
    <glyph glyph-name="aeacute" unicode="&#x1fd;" horiz-adv-x="1734" 
d="M903 1167h-100l117 267h163zM449 -20q-146 0 -245.5 86.5t-99.5 216.5q0 67 21 121t54.5 88t80 58t91.5 35t95 15l314 25v30q0 131 -65.5 204t-180.5 73h-10q-98 0 -167 -51t-79 -144h-133q9 136 116 221.5t267 85.5q122 0 208.5 -52t131.5 -142q63 95 160.5 144.5
t208.5 49.5q185 0 299 -130.5t114 -329.5v-82h-737q3 -205 94 -307.5t227 -102.5h13q211 0 268 201h133q-33 -151 -142 -232t-269 -81q-122 0 -221 54.5t-160 158.5q-56 -98 -156 -155.5t-231 -57.5zM897 614h600q-5 139 -79 228.5t-193 89.5h-21q-52 0 -99 -16t-91.5 -51
t-75.5 -99t-41 -152zM453 92h20q105 0 196 88.5t91 204.5v127l-287 -20q-106 -8 -170.5 -61.5t-64.5 -139.5q0 -85 61.5 -142t153.5 -57z" />
    <glyph glyph-name="Oslashacute" unicode="&#x1fe;" horiz-adv-x="1548" 
d="M831 1823h185l-170 -256h-123zM1405 1407l-139 -176q164 -201 164 -514q0 -170 -49.5 -309.5t-137 -232.5t-208 -144t-261.5 -51q-228 0 -395 129l-131 -166l-107 84l140 176q-162 199 -162 514q0 170 49.5 309.5t136.5 232.5t207.5 144t261.5 51q226 0 395 -127l129 164
zM262 717q0 -244 109 -400l712 902q-123 102 -299 102h-20q-222 0 -362 -163.5t-140 -440.5zM764 113h20q222 0 362 163.5t140 440.5q0 241 -110 401l-713 -903q127 -102 301 -102z" />
    <glyph glyph-name="oslashacute" unicode="&#x1ff;" horiz-adv-x="1153" 
d="M635 1434h164l-181 -267h-100zM1040 1026l-112 -147q121 -146 121 -367q0 -234 -135 -383t-336 -149q-154 0 -271 88l-104 -138l-88 74l110 143q-119 148 -119 365q0 234 135.5 383t336.5 149q147 0 266 -86l102 134zM242 512q0 -153 61 -262l471 616q-81 66 -186 66h-21
q-141 0 -233 -114t-92 -306zM567 92h21q141 0 233 114t92 306q0 160 -63 264l-471 -616q81 -68 188 -68z" />
    <glyph glyph-name="uni0218" unicode="&#x218;" horiz-adv-x="1265" 
d="M639 -20q-262 0 -407.5 123.5t-145.5 347.5h143q0 -160 112 -249t296 -89h20q159 0 248.5 75.5t89.5 190.5q0 99 -65 158.5t-201 87.5l-229 47q-342 71 -342 372q0 174 134 292t357 118q230 0 367 -118.5t145 -321.5h-143q-9 140 -108.5 223.5t-250.5 83.5h-20
q-148 0 -243 -78t-95 -196q0 -94 62.5 -151.5t175.5 -80.5l229 -45q371 -74 371 -383q0 -189 -134.5 -298t-365.5 -109zM551 -512h-21v72h11q92 0 92 82v20h-62v154h134v-174q0 -70 -43 -112t-111 -42z" />
    <glyph glyph-name="uni0219" unicode="&#x219;" horiz-adv-x="976" 
d="M492 -20q-191 0 -295.5 90t-112.5 237h133q10 -103 82.5 -159t181.5 -56h21q107 0 169 49.5t62 134.5q0 62 -40 98.5t-140 59.5l-150 33q-61 13 -108 33t-87 51.5t-61.5 80t-21.5 111.5q0 140 106.5 220.5t260.5 80.5q93 0 166.5 -27t119 -73.5t70.5 -104t29 -122.5h-134
q-10 90 -75 152.5t-166 62.5h-21q-102 0 -162.5 -52t-60.5 -124q0 -68 43 -105t143 -59l160 -35q59 -13 103 -31.5t81.5 -49.5t57.5 -78.5t20 -110.5q0 -144 -101.5 -225.5t-272.5 -81.5zM393 -512h-20v72h10q92 0 92 82v20h-61v154h133v-174q0 -70 -43 -112t-111 -42z" />
    <glyph glyph-name="uni021A" unicode="&#x21a;" horiz-adv-x="1249" 
d="M696 0h-143v1300h-522v134h1188v-134h-523v-1300zM537 -512h-21v72h10q92 0 92 82v20h-61v154h133v-174q0 -70 -42.5 -112t-110.5 -42z" />
    <glyph glyph-name="uni021B" unicode="&#x21b;" horiz-adv-x="729" 
d="M686 0h-225q-101 0 -148 43t-47 141v727h-235v113h235v332h133v-332h256v-113h-256v-716q0 -46 18 -64t64 -18h205v-113zM334 -512h-21v72h11q92 0 92 82v20h-62v154h133v-174q0 -70 -42.5 -112t-110.5 -42z" />
    <glyph glyph-name="uni0226" unicode="&#x226;" horiz-adv-x="1386" 
d="M616 1772h154v-175h-154v175zM1368 0h-151l-160 395h-733l-160 -395h-148l588 1434h180zM690 1303l-313 -775h627z" />
    <glyph glyph-name="uni0227" unicode="&#x227;" horiz-adv-x="1067" 
d="M600 1208h-154v174h154v-174zM428 -20q-136 0 -230 86.5t-94 216.5q0 65 22 117t56.5 85t82.5 56.5t94.5 34t97.5 14.5l323 24v41q0 131 -68.5 204t-187.5 73h-10q-103 0 -174.5 -51t-81.5 -144h-133q9 136 118.5 221.5t274.5 85.5q97 0 173.5 -31t124 -85t72.5 -123.5
t25 -149.5v-430q0 -146 11 -225h-123q-10 56 -10 164q-33 -75 -133.5 -129.5t-229.5 -54.5zM442 92h21q111 0 214 84t103 193v137l-297 -21q-111 -8 -178 -59.5t-67 -134.5q0 -85 58 -142t146 -57z" />
    <glyph glyph-name="uni0232" unicode="&#x232;" horiz-adv-x="1216" 
d="M891 1597h-563v113h563v-113zM680 0h-143v594l-523 840h162l434 -709l434 709h158l-522 -840v-594z" />
    <glyph glyph-name="uni0233" unicode="&#x233;" horiz-adv-x="1064" 
d="M262 1321h563v-113h-563v113zM897 1024h139l-422 -989v-195q0 -93 -47 -135.5t-147 -42.5h-311v113h290q46 0 64 18t18 64v172l-434 995h146l352 -829z" />
    <glyph glyph-name="uni0237" unicode="&#x237;" horiz-adv-x="477" 
d="M119 -338h-287v113h266q46 0 64 18t18 64v1167h133v-1178q0 -98 -46.5 -141t-147.5 -43z" />
    <glyph glyph-name="circumflex" unicode="&#x2c6;" horiz-adv-x="778" 
d="M457 1434l260 -267h-123l-205 154l-205 -154h-123l261 267h135z" />
    <glyph glyph-name="caron" unicode="&#x2c7;" horiz-adv-x="778" 
d="M389 1280l205 154h123l-260 -267h-135l-261 267h123z" />
    <glyph glyph-name="breve" unicode="&#x2d8;" horiz-adv-x="696" 
d="M348 1147q-127 0 -207 75.5t-80 211.5h103q7 -90 56 -136.5t128 -46.5t128 46.5t56 136.5h103q0 -136 -80 -211.5t-207 -75.5z" />
    <glyph glyph-name="dotaccent" unicode="&#x2d9;" horiz-adv-x="276" 
d="M215 1208h-154v174h154v-174z" />
    <glyph glyph-name="ring" unicode="&#x2da;" horiz-adv-x="466" 
d="M233 1157q-69 0 -120.5 49.5t-51.5 122.5t51.5 122.5t120.5 49.5t121 -49.5t52 -122.5t-52 -122.5t-121 -49.5zM236 1237q37 0 62.5 27t25.5 65t-25.5 65t-62.5 27t-64 -27t-27 -65t27 -65t64 -27z" />
    <glyph glyph-name="ogonek" unicode="&#x2db;" horiz-adv-x="403" 
d="M319 -287v-112h-83q-93 0 -149 44t-56 130q0 48 21 90.5t56.5 74t66.5 51.5t65 36l102 -27q-182 -95 -182 -199q0 -88 104 -88h55z" />
    <glyph glyph-name="tilde" unicode="&#x2dc;" horiz-adv-x="796" 
d="M559 1147q-36 0 -71.5 16.5t-92.5 57.5l-65 47q-44 32 -82 32q-84 0 -84 -133h-103v47q0 85 51 142t130 57q72 0 131 -45l69 -51q5 -3 24.5 -18t28.5 -20.5t25.5 -12t32.5 -6.5q80 0 80 133h102v-47q0 -84 -51 -141.5t-125 -57.5z" />
    <glyph glyph-name="hungarumlaut" unicode="&#x2dd;" horiz-adv-x="729" 
d="M162 1167h-101l117 267h164zM487 1167h-100l117 267h164z" />
    <glyph glyph-name="uni0394" unicode="&#x394;" horiz-adv-x="1390" 
d="M606 1434h180l570 -1366v-68h-1323v68zM1174 133l-480 1161l-483 -1161h963z" />
    <glyph glyph-name="uni03A9" unicode="&#x3a9;" horiz-adv-x="1581" 
d="M627 0h-482v133h279q-289 212 -289 588q0 156 47.5 291.5t132.5 233t208 153t268 55.5q193 0 343 -95.5t231 -262t81 -375.5q0 -376 -289 -588h279v-133h-482v135q349 199 349 582q0 268 -141 436t-361 168h-21q-220 0 -360.5 -168t-140.5 -436q0 -384 348 -582v-135z
" />
    <glyph glyph-name="uni03BC" unicode="&#x3bc;" horiz-adv-x="1191" 
d="M1075 113h51v-113h-92q-174 0 -174 174v19q-40 -104 -119.5 -158.5t-191.5 -54.5q-75 0 -147 30.5t-105 81.5v-502h-133v1434h133v-635q0 -297 246 -297h20q119 0 208 104t89 275v553h133v-819q0 -47 18.5 -69.5t63.5 -22.5z" />
    <glyph glyph-name="pi" unicode="&#x3c0;" horiz-adv-x="1183" 
d="M344 0h-133v911h-133v113h1014v-113h-134v-716q0 -46 18 -64t64 -18h31v-113h-51q-101 0 -148 43t-47 141v727h-481v-911z" />
    <glyph glyph-name="Wgrave" unicode="&#x1e80;" horiz-adv-x="1878" 
d="M893 1823l108 -256h-122l-170 256h184zM1370 121l313 1313h144l-354 -1434h-218l-315 1284l-317 -1284h-217l-355 1434h146l321 -1323l318 1323h213z" />
    <glyph glyph-name="wgrave" unicode="&#x1e81;" horiz-adv-x="1568" 
d="M719 1434l117 -267h-101l-180 267h164zM1112 106l279 918h131l-328 -1024h-178l-232 883l-231 -883h-176l-330 1024h137l285 -905l231 905h170z" />
    <glyph glyph-name="Wacute" unicode="&#x1e82;" horiz-adv-x="1878" 
d="M987 1823h184l-170 -256h-122zM1370 121l313 1313h144l-354 -1434h-218l-315 1284l-317 -1284h-217l-355 1434h146l321 -1323l318 1323h213z" />
    <glyph glyph-name="wacute" unicode="&#x1e83;" horiz-adv-x="1568" 
d="M852 1434h164l-180 -267h-101zM1112 106l279 918h131l-328 -1024h-178l-232 883l-231 -883h-176l-330 1024h137l285 -905l231 905h170z" />
    <glyph glyph-name="Wdieresis" unicode="&#x1e84;" horiz-adv-x="1878" 
d="M668 1761h163v-164h-163v164zM1049 1761h163v-164h-163v164zM1370 121l313 1313h144l-354 -1434h-218l-315 1284l-317 -1284h-217l-355 1434h146l321 -1323l318 1323h213z" />
    <glyph glyph-name="wdieresis" unicode="&#x1e85;" horiz-adv-x="1568" 
d="M530 1372h154v-164h-154v164zM889 1372h153v-164h-153v164zM1112 106l279 918h131l-328 -1024h-178l-232 883l-231 -883h-176l-330 1024h137l285 -905l231 905h170z" />
    <glyph glyph-name="uni1E9E" unicode="&#x1e9e;" horiz-adv-x="1316" 
d="M342 0h-143v1434h534q166 0 275.5 -101.5t109.5 -273.5q0 -99 -51 -184t-139 -132q129 -28 206.5 -122t77.5 -226q0 -180 -117 -287.5t-294 -107.5h-234v133h203q135 0 217 68.5t82 195.5t-81 194.5t-216 67.5h-205v134h154q113 0 183.5 69.5t70.5 190.5q0 119 -73 183
t-193 64h-367v-1300z" />
    <glyph glyph-name="Ygrave" unicode="&#x1ef2;" horiz-adv-x="1216" 
d="M672 1567h-123l-170 256h184zM680 0h-143v594l-523 840h162l434 -709l434 709h158l-522 -840v-594z" />
    <glyph glyph-name="ygrave" unicode="&#x1ef3;" horiz-adv-x="1064" 
d="M477 1434l117 -267h-100l-181 267h164zM897 1024h139l-422 -989v-195q0 -93 -47 -135.5t-147 -42.5h-311v113h290q46 0 64 18t18 64v172l-434 995h146l352 -829z" />
    <glyph glyph-name="uni2002" unicode="&#x2002;" horiz-adv-x="1024" 
 />
    <glyph glyph-name="uni2003" unicode="&#x2003;" horiz-adv-x="2048" 
 />
    <glyph glyph-name="uni2009" unicode="&#x2009;" horiz-adv-x="256" 
 />
    <glyph glyph-name="uni200A" unicode="&#x200a;" horiz-adv-x="153" 
 />
    <glyph glyph-name="endash" unicode="&#x2013;" horiz-adv-x="1163" 
d="M1022 563h-881v113h881v-113z" />
    <glyph glyph-name="emdash" unicode="&#x2014;" horiz-adv-x="1818" 
d="M1677 563h-1536v113h1536v-113z" />
    <glyph glyph-name="uni2015" unicode="&#x2015;" horiz-adv-x="1818" 
d="M1677 563h-1536v113h1536v-113z" />
    <glyph glyph-name="quoteleft" unicode="&#x2018;" horiz-adv-x="507" 
d="M328 1434h82v-82h-62q-123 0 -123 -123v-31h113v-205h-205v246q0 93 51 144t144 51z" />
    <glyph glyph-name="quoteright" unicode="&#x2019;" horiz-adv-x="509" 
d="M197 993h-82v82h61q123 0 123 123v31h-113v205h205v-246q0 -93 -50.5 -144t-143.5 -51z" />
    <glyph glyph-name="quotesinglbase" unicode="&#x201a;" horiz-adv-x="491" 
d="M154 -236h-82v82h61q123 0 123 123v31h-113v205h205v-246q0 -93 -50.5 -144t-143.5 -51z" />
    <glyph glyph-name="quotedblleft" unicode="&#x201c;" horiz-adv-x="927" 
d="M328 1434h82v-82h-62q-123 0 -123 -123v-31h113v-205h-205v246q0 93 51 144t144 51zM748 1434h81v-82h-61q-123 0 -123 -123v-31h113v-205h-205v246q0 93 51 144t144 51z" />
    <glyph glyph-name="quotedblright" unicode="&#x201d;" horiz-adv-x="929" 
d="M197 993h-82v82h61q123 0 123 123v31h-113v205h205v-246q0 -93 -50.5 -144t-143.5 -51zM616 993h-81v82h61q123 0 123 123v31h-113v205h205v-246q0 -93 -51 -144t-144 -51z" />
    <glyph glyph-name="quotedblbase" unicode="&#x201e;" horiz-adv-x="911" 
d="M154 -236h-82v82h61q123 0 123 123v31h-113v205h205v-246q0 -93 -50.5 -144t-143.5 -51zM573 -236h-81v82h61q123 0 123 123v31h-113v205h205v-246q0 -93 -51 -144t-144 -51z" />
    <glyph glyph-name="dagger" unicode="&#x2020;" horiz-adv-x="1011" 
d="M571 -174h-133v1147h-375v112h375v523h133v-523h379v-112h-379v-1147z" />
    <glyph glyph-name="daggerdbl" unicode="&#x2021;" horiz-adv-x="1095" 
d="M993 1085v-112h-379v-512h379v-113h-379v-522h-133v522h-379v113h379v512h-379v112h379v523h133v-523h379z" />
    <glyph glyph-name="bullet" unicode="&#x2022;" horiz-adv-x="999" 
d="M500 369q-141 0 -244.5 103.5t-103.5 244.5t103.5 244.5t244.5 103.5t244.5 -103.5t103.5 -244.5t-103.5 -244.5t-244.5 -103.5z" />
    <glyph glyph-name="ellipsis" unicode="&#x2026;" horiz-adv-x="1536" 
d="M348 0h-205v205h205v-205zM870 0h-204v205h204v-205zM1393 0h-205v205h205v-205z" />
    <glyph glyph-name="perthousand" unicode="&#x2030;" horiz-adv-x="2392" 
d="M739 1028q0 -189 -88.5 -301.5t-242.5 -112.5t-243 112.5t-89 301.5t89 302.5t243 113.5t242.5 -113.5t88.5 -302.5zM430 0l860 1434h133l-860 -1434h-133zM403 717h9q66 0 113.5 46.5t68 115t20.5 149.5t-20.5 150t-68 116t-113.5 47h-9q-66 0 -113.5 -47t-68 -116
t-20.5 -150t20.5 -149.5t68 -115t113.5 -46.5zM1989 819q154 0 242.5 -113.5t88.5 -302.5t-88.5 -301t-242.5 -112q-182 0 -269 151q-90 -151 -270 -151q-154 0 -243 112t-89 301t89 302.5t243 113.5q180 0 270 -151q87 151 269 151zM1446 92h8q66 0 113.5 46.5t68.5 115
t21 149.5t-21 150t-68.5 116.5t-113.5 47.5h-8q-66 0 -113.5 -47.5t-68.5 -116.5t-21 -150t21 -149.5t68.5 -115t113.5 -46.5zM1985 92h8q66 0 113.5 46.5t68 115t20.5 149.5t-20.5 150t-68 116.5t-113.5 47.5h-8q-66 0 -113.5 -47.5t-68.5 -116.5t-21 -150t21 -149.5
t68.5 -115t113.5 -46.5z" />
    <glyph glyph-name="guilsinglleft" unicode="&#x2039;" horiz-adv-x="624" 
d="M532 1024l-294 -438l299 -443h-156l-297 441l297 440h151z" />
    <glyph glyph-name="guilsinglright" unicode="&#x203a;" horiz-adv-x="624" 
d="M92 1024h152l297 -440l-297 -441h-156l299 443z" />
    <glyph glyph-name="fraction" unicode="&#x2044;" horiz-adv-x="327" 
d="M-203 0h-133l860 1434h133z" />
    <glyph glyph-name="uni2070" unicode="&#x2070;" horiz-adv-x="823" 
d="M412 840q-154 0 -243 112t-89 301t89 302.5t243 113.5t242.5 -113.5t88.5 -302.5t-88.5 -301t-242.5 -112zM408 942h8q66 0 113.5 46.5t68 115t20.5 149.5t-20.5 150t-68 116.5t-113.5 47.5h-8q-66 0 -113.5 -47.5t-68.5 -116.5t-21 -150t21 -149.5t68.5 -115
t113.5 -46.5z" />
    <glyph glyph-name="uni2074" unicode="&#x2074;" horiz-adv-x="714" 
d="M541 850h-115v197h-379v114l367 498h127v-510h110v-102h-110v-197zM426 1509l-260 -360h260v360z" />
    <glyph glyph-name="uni2075" unicode="&#x2075;" horiz-adv-x="700" 
d="M342 840q-124 0 -200 58.5t-85 168.5h125q7 -61 51.5 -93t106.5 -32h8q65 0 107.5 46t42.5 118q0 70 -41 109.5t-107 39.5h-6q-89 0 -145 -69h-109l92 473h428v-103h-338l-53 -256q61 58 152 58q114 0 183 -69.5t69 -178.5q0 -123 -80.5 -196.5t-200.5 -73.5z" />
    <glyph glyph-name="uni2076" unicode="&#x2076;" horiz-adv-x="757" 
d="M377 840q-139 0 -218 103.5t-79 287.5q0 199 94 318.5t236 119.5q129 0 200.5 -68.5t71.5 -156.5h-121q-11 55 -50 88t-97 33h-13q-82 0 -141.5 -77.5t-69.5 -209.5q25 51 85.5 83t134.5 32q107 0 183.5 -73t76.5 -192q0 -126 -79 -207t-214 -81zM377 942h6
q71 0 118.5 49.5t47.5 124.5q0 76 -45.5 125t-116.5 49h-6q-71 0 -117.5 -49t-46.5 -125q0 -75 45 -124.5t115 -49.5z" />
    <glyph glyph-name="uni2077" unicode="&#x2077;" horiz-adv-x="616" 
d="M299 850h-125v74q0 226 83 384.5t214 247.5h-434v103h545v-109q-283 -235 -283 -626v-74z" />
    <glyph glyph-name="uni2078" unicode="&#x2078;" horiz-adv-x="737" 
d="M365 840q-113 0 -192 57.5t-79 159.5q0 130 137 190q-66 28 -107.5 79.5t-41.5 117.5q0 105 79.5 165t207.5 60t208 -60t80 -165q0 -67 -41 -118.5t-108 -78.5q129 -59 129 -190q0 -102 -79.5 -159.5t-192.5 -57.5zM360 1305h11q66 0 113.5 34t47.5 95q0 63 -45 98
t-112 35h-10q-67 0 -112.5 -35t-45.5 -98q0 -61 45 -95t108 -34zM360 942h11q60 0 100.5 35.5t40.5 97.5q0 58 -41 94.5t-100 36.5h-11q-59 0 -100 -36.5t-41 -94.5q0 -62 40.5 -97.5t100.5 -35.5z" />
    <glyph glyph-name="uni2079" unicode="&#x2079;" horiz-adv-x="759" 
d="M350 840q-129 0 -200.5 68.5t-71.5 156.5h121q11 -55 50 -88t97 -33h12q82 0 141.5 77.5t69.5 209.5q-25 -51 -85 -83t-134 -32q-107 0 -183.5 72.5t-76.5 191.5q0 126 79 207.5t214 81.5q139 0 218 -103.5t79 -287.5q0 -199 -94 -318.5t-236 -119.5zM373 1219h6
q71 0 117.5 49t46.5 125q0 75 -45 124.5t-115 49.5h-6q-71 0 -118.5 -49.5t-47.5 -124.5q0 -76 45.5 -125t116.5 -49z" />
    <glyph glyph-name="uni20A9" unicode="&#x20a9;" horiz-adv-x="1898" 
d="M1673 774h174v-112h-200l-164 -662h-217l-162 662h-307l-164 -662h-217l-164 662h-201v112h174l-164 660h146l160 -660h321l158 660h213l162 -660h315l158 660h143zM950 1284l-127 -510h252zM395 662l133 -551l134 551h-267zM1247 662l133 -541l129 541h-262z" />
    <glyph glyph-name="Euro" unicode="&#x20ac;" horiz-adv-x="1370" 
d="M784 113h21q136 0 216 79.5t95 227.5h139q-19 -208 -139 -324t-319 -116q-189 0 -320.5 114t-187.5 322l-201 -45v123l178 38q-12 80 -12 164l-166 -37v123l170 39q22 297 165 465t374 168q199 0 319 -116t139 -324h-139q-15 148 -95 227.5t-216 79.5h-21
q-158 0 -259 -124.5t-124 -344.5l422 96v-123l-430 -96v-12q0 -72 10 -154l334 76v-123l-311 -70q41 -159 134 -246t224 -87z" />
    <glyph glyph-name="uni20B4" unicode="&#x20b4;" horiz-adv-x="1304" 
d="M1077 973l152 12v-121l-1153 -98v121l850 71q22 56 22 121q0 117 -77 179.5t-193 62.5h-12q-76 0 -136 -23.5t-94 -60t-52 -73.5t-22 -72h-153q3 42 19.5 88t53 96t87.5 88.5t130 64t173 25.5q182 0 301 -101t119 -266q0 -65 -15 -114zM213 492l-96 -9v121l1057 92v-121
l-812 -69q-26 -56 -26 -127q0 -120 83 -193t218 -73h29q131 0 212 69.5t101 175.5h149q-7 -72 -41 -138t-92 -120.5t-148.5 -87t-199.5 -32.5q-208 0 -331 106.5t-123 275.5q0 74 20 130z" />
    <glyph glyph-name="uni20BD" unicode="&#x20bd;" horiz-adv-x="1308" 
d="M453 0h-144v379h-225v123h225v151h-227v131h227v650h492q95 0 174.5 -23t142 -69t98 -123t35.5 -177t-35.5 -176.5t-98 -122t-142 -68t-174.5 -22.5h-348v-151h485v-123h-485v-379zM453 1300v-516h317q162 0 250 59.5t88 198.5t-88 198.5t-250 59.5h-317z" />
    <glyph glyph-name="uni20BF" unicode="&#x20bf;" horiz-adv-x="1343" 
d="M1223 395q0 -164 -99.5 -268.5t-255.5 -122.5v-250h-127v246h-184v-246h-127v246h-231v1434h231v245h127v-245h184v245h127v-249q145 -21 234.5 -119.5t89.5 -251.5q0 -119 -67.5 -212t-161.5 -120q45 -8 88.5 -31t83.5 -61.5t64 -100.5t24 -139zM782 1300h-440v-507h440
q119 0 193 67t74 187t-74 186.5t-193 66.5zM342 133h438q135 0 217 68.5t82 195.5t-81 194.5t-216 67.5h-440v-526z" />
    <glyph glyph-name="uni2105" unicode="&#x2105;" horiz-adv-x="1445" 
d="M334 911q-122 0 -193 75.5t-71 219.5q0 145 73.5 227.5t194.5 82.5q97 0 168 -55t78 -148h-119q-6 51 -41 80.5t-82 29.5h-6q-75 0 -112.5 -62t-37.5 -155q0 -90 37 -146t113 -56h6q46 0 79 29t42 79h117q-10 -96 -79.5 -148.5t-166.5 -52.5zM352 0h-133l860 1434h133z
M1108 -20q-123 0 -195.5 81.5t-72.5 219.5t72.5 220.5t195.5 82.5t195.5 -82.5t72.5 -220.5t-72.5 -219.5t-195.5 -81.5zM1104 72h10q67 0 106.5 58t39.5 151t-40.5 152t-107.5 59h-8q-67 0 -107.5 -59.5t-40.5 -151.5t40.5 -150.5t107.5 -58.5z" />
    <glyph glyph-name="uni2113" unicode="&#x2113;" horiz-adv-x="856" 
d="M381 520v-270q0 -66 26 -91.5t91 -25.5h174v-133h-236q-194 0 -194 215v221l-154 -92v148l154 90v526q0 168 72.5 257t205.5 89q74 0 130 -28.5t88.5 -79.5t48.5 -114t16 -138q0 -165 -79.5 -290t-201.5 -198zM381 1128v-462l63 36q113 67 166.5 166.5t53.5 212.5
q0 117 -39 178.5t-105 61.5q-61 0 -100 -50t-39 -143z" />
    <glyph glyph-name="uni2116" unicode="&#x2116;" horiz-adv-x="2125" 
d="M1749 840q-123 0 -195.5 81.5t-72.5 219.5t72.5 220.5t195.5 82.5t195.5 -82.5t72.5 -220.5t-72.5 -219.5t-195.5 -81.5zM344 0h-143v1434h184l789 -1215v1215h143v-1434h-174l-799 1235v-1235zM1745 932h10q67 0 106.5 58t39.5 151t-40.5 152t-107.5 59h-8
q-67 0 -107.5 -59.5t-40.5 -151.5t40.5 -150.5t107.5 -58.5zM2015 625h-534v92h534v-92z" />
    <glyph glyph-name="uni2117" unicode="&#x2117;" horiz-adv-x="1810" 
d="M905 -82q-162 0 -310 63.5t-255 170.5t-170.5 255t-63.5 310t63.5 310t170.5 255t255 170.5t310 63.5t310 -63.5t255 -170.5t170.5 -255t63.5 -310t-63.5 -310t-170.5 -255t-255 -170.5t-310 -63.5zM905 20q141 0 269.5 55.5t221 149t147 222.5t54.5 270q0 189 -92.5 349
t-252 253.5t-347.5 93.5t-347.5 -93.5t-252 -253.5t-92.5 -349q0 -141 54.5 -270t147 -222.5t221 -149t269.5 -55.5zM805 342h-125v770h299q125 0 201.5 -58t76.5 -177q0 -118 -77 -175t-203 -57h-172v-303zM805 1010v-262h156q82 0 127 28.5t45 102.5t-45 102.5t-127 28.5
h-156z" />
    <glyph glyph-name="trademark" unicode="&#x2122;" horiz-adv-x="1925" 
d="M340 1331h-270v103h665v-103h-270v-676h-125v676zM1350 788l215 646h194v-779h-125v645l-213 -645h-143l-223 639v-639h-125v779h196z" />
    <glyph glyph-name="uni2126" unicode="&#x2126;" horiz-adv-x="1568" 
d="M621 0h-482v133h256q-130 71 -198 223t-68 361q0 170 49 309.5t136 232.5t207.5 144t262.5 51t262.5 -51t207.5 -144t136.5 -232.5t49.5 -309.5q0 -209 -68 -361t-198 -223h256v-133h-482v123q168 43 260 197t92 397q0 284 -135 444t-370 160h-21q-235 0 -370.5 -160
t-135.5 -444q0 -243 92.5 -397t260.5 -197v-123z" />
    <glyph glyph-name="uni2153" unicode="&#x2153;" horiz-adv-x="1777" 
d="M422 625h-117v655l-239 -193v121l278 226h78v-809zM455 0h-133l860 1434h133zM1399 -10q-114 0 -194.5 62t-80.5 171h125q3 -60 42.5 -95.5t101.5 -35.5h10q67 0 111.5 38t44.5 103q0 59 -39.5 93t-98.5 34h-90v97h94q58 0 92.5 32.5t34.5 92.5q0 66 -38.5 100.5
t-104.5 34.5h-10q-61 0 -97.5 -33.5t-39.5 -89.5h-125q0 107 79 166t193 59q113 0 190.5 -59.5t77.5 -165.5q0 -63 -30 -112t-82 -74q56 -23 87 -72.5t31 -114.5q0 -105 -85 -168t-199 -63z" />
    <glyph glyph-name="uni2154" unicode="&#x2154;" horiz-adv-x="1902" 
d="M649 625h-545v139l258 225q97 85 125.5 123.5t28.5 95.5q0 59 -38 96t-95 37h-10q-51 0 -95.5 -38.5t-44.5 -102.5h-124q0 110 80 177t192 67q114 0 187 -63t73 -173q0 -36 -10.5 -69t-22 -55t-38.5 -51.5t-41.5 -42.5t-49.5 -44l-252 -219h422v-102zM618 0h-133
l861 1434h133zM1528 -10q-114 0 -194.5 62t-80.5 171h125q3 -60 42.5 -95.5t101.5 -35.5h10q67 0 111.5 38t44.5 103q0 59 -39.5 93t-98.5 34h-90v97h94q58 0 92.5 32.5t34.5 92.5q0 66 -38.5 100.5t-104.5 34.5h-10q-61 0 -97.5 -33.5t-39.5 -89.5h-125q0 107 79 166
t193 59q113 0 190.5 -59.5t77.5 -165.5q0 -63 -30 -112t-82 -74q56 -23 87 -72.5t31 -114.5q0 -105 -85 -168t-199 -63z" />
    <glyph glyph-name="uni2155" unicode="&#x2155;" horiz-adv-x="1763" 
d="M422 625h-117v655l-239 -193v121l278 226h78v-809zM449 0h-134l861 1434h133zM1376 -10q-124 0 -199.5 58.5t-84.5 168.5h125q7 -61 51 -93t106 -32h8q65 0 107.5 46t42.5 118q0 70 -41 110t-107 40h-6q-88 0 -145 -70h-109l93 473h428v-102h-338l-54 -256q60 57 152 57
q114 0 183 -69.5t69 -178.5q0 -123 -80.5 -196.5t-200.5 -73.5z" />
    <glyph glyph-name="uni2156" unicode="&#x2156;" horiz-adv-x="1904" 
d="M649 625h-545v139l258 225q97 85 125.5 123.5t28.5 95.5q0 59 -38 96t-95 37h-10q-51 0 -95.5 -38.5t-44.5 -102.5h-124q0 110 80 177t192 67q114 0 187 -63t73 -173q0 -36 -10.5 -69t-22 -55t-38.5 -51.5t-41.5 -42.5t-49.5 -44l-252 -219h422v-102zM612 0h-133
l860 1434h134zM1522 -10q-124 0 -200 58.5t-85 168.5h125q7 -61 51.5 -93t106.5 -32h8q65 0 107 46t42 118q0 71 -40.5 110.5t-106.5 39.5h-6q-89 0 -146 -70h-108l92 473h428v-102h-338l-53 -256q60 57 151 57q114 0 183 -69.5t69 -178.5q0 -123 -80 -196.5t-200 -73.5z
" />
    <glyph glyph-name="uni2157" unicode="&#x2157;" horiz-adv-x="1908" 
d="M360 614q-114 0 -194 62.5t-80 171.5h125q3 -60 42 -95.5t101 -35.5h11q67 0 111 38t44 103q0 60 -39 93.5t-98 33.5h-90v96h94q58 0 92.5 32.5t34.5 92.5q0 66 -38.5 100.5t-104.5 34.5h-11q-61 0 -97.5 -33t-39.5 -89h-125q0 107 79 166t194 59q113 0 190.5 -59.5
t77.5 -165.5q0 -63 -30.5 -112.5t-82.5 -74.5q57 -23 88 -72t31 -114q0 -105 -85.5 -168.5t-199.5 -63.5zM596 0h-133l860 1434h133zM1526 -10q-124 0 -200 58.5t-85 168.5h125q7 -61 51.5 -93t106.5 -32h8q65 0 107 46t42 118q0 71 -40.5 110.5t-106.5 39.5h-6
q-89 0 -146 -70h-108l92 473h428v-102h-338l-53 -256q60 57 151 57q114 0 183 -69.5t69 -178.5q0 -123 -80 -196.5t-200 -73.5z" />
    <glyph glyph-name="uni2158" unicode="&#x2158;" horiz-adv-x="1918" 
d="M559 625h-115v196h-378v115l366 498h127v-510h111v-103h-111v-196zM614 0h-133l860 1434h134zM444 1284l-260 -360h260v360zM1530 -10q-124 0 -200 58.5t-85 168.5h125q7 -61 51.5 -93t106.5 -32h8q65 0 107.5 46t42.5 118q0 70 -41 110t-107 40h-6q-89 0 -146 -70h-108
l92 473h428v-102h-338l-53 -256q60 57 152 57q114 0 182.5 -69.5t68.5 -178.5q0 -123 -80 -196.5t-200 -73.5z" />
    <glyph glyph-name="uni2159" unicode="&#x2159;" horiz-adv-x="1751" 
d="M422 625h-117v655l-239 -193v121l278 226h78v-809zM446 0h-133l861 1434h133zM1358 -10q-139 0 -218 103.5t-79 287.5q0 199 94 318.5t236 119.5q129 0 200.5 -68.5t71.5 -156.5h-121q-11 55 -50 88t-97 33h-13q-82 0 -141.5 -77.5t-69.5 -209.5q25 51 85.5 83t134.5 32
q107 0 183.5 -72.5t76.5 -191.5q0 -126 -79 -207.5t-214 -81.5zM1358 92h6q71 0 118.5 49.5t47.5 124.5q0 76 -45.5 125t-116.5 49h-6q-71 0 -117.5 -49t-46.5 -125q0 -75 45 -124.5t115 -49.5z" />
    <glyph glyph-name="uni215A" unicode="&#x215a;" horiz-adv-x="1933" 
d="M354 614q-124 0 -199.5 58.5t-84.5 169.5h125q7 -61 51 -93t106 -32h8q65 0 107.5 46t42.5 118q0 70 -41 109.5t-107 39.5h-6q-89 0 -145 -69h-109l93 473h428v-103h-338l-54 -256q61 58 152 58q114 0 183 -69.5t69 -178.5q0 -123 -80.5 -197t-200.5 -74zM590 0h-133
l860 1434h133zM1544 -10q-139 0 -218 103.5t-79 287.5q0 199 94 318.5t236 119.5q129 0 200.5 -68.5t71.5 -156.5h-120q-11 55 -50.5 88t-97.5 33h-12q-82 0 -141.5 -77.5t-69.5 -209.5q25 51 85 83t134 32q107 0 183.5 -72.5t76.5 -191.5q0 -126 -79 -207.5t-214 -81.5z
M1544 92h6q71 0 118.5 49.5t47.5 124.5q0 76 -45.5 125t-116.5 49h-6q-71 0 -117.5 -49t-46.5 -125q0 -75 45 -124.5t115 -49.5z" />
    <glyph glyph-name="oneeighth" unicode="&#x215b;" horiz-adv-x="1814" 
d="M422 625h-117v655l-239 -193v121l278 226h78v-809zM451 0h-134l861 1434h133zM1434 -10q-113 0 -192 57.5t-79 159.5q0 130 137 190q-66 28 -107.5 79.5t-41.5 117.5q0 105 79.5 165t207.5 60t208 -60t80 -165q0 -67 -41 -118.5t-108 -78.5q129 -59 129 -190
q0 -102 -79.5 -159.5t-192.5 -57.5zM1430 455h10q66 0 114 34t48 95q0 63 -45.5 98t-112.5 35h-10q-67 0 -112.5 -35t-45.5 -98q0 -61 45.5 -95t108.5 -34zM1430 92h10q60 0 100.5 35.5t40.5 97.5q0 58 -41 94.5t-100 36.5h-10q-59 0 -100.5 -36.5t-41.5 -94.5
q0 -62 41 -97.5t101 -35.5z" />
    <glyph glyph-name="threeeighths" unicode="&#x215c;" horiz-adv-x="1937" 
d="M360 614q-114 0 -194 62.5t-80 171.5h125q3 -60 42 -95.5t101 -35.5h11q67 0 111 38t44 103q0 60 -39 93.5t-98 33.5h-90v96h94q58 0 92.5 32.5t34.5 92.5q0 66 -38.5 100.5t-104.5 34.5h-11q-61 0 -97.5 -33t-39.5 -89h-125q0 107 79 166t194 59q113 0 190.5 -59.5
t77.5 -165.5q0 -63 -30.5 -112.5t-82.5 -74.5q57 -23 88 -72t31 -114q0 -105 -85.5 -168.5t-199.5 -63.5zM600 0h-133l860 1434h133zM1563 -10q-113 0 -192 57.5t-79 159.5q0 66 37.5 114t100.5 76q-67 28 -108.5 79.5t-41.5 117.5q0 105 79.5 165t207.5 60t208 -60t80 -165
q0 -67 -41 -118.5t-108 -78.5q129 -59 129 -190q0 -102 -79.5 -159.5t-192.5 -57.5zM1559 455h10q66 0 114 34t48 95q0 63 -45.5 98t-112.5 35h-10q-67 0 -112.5 -35t-45.5 -98q0 -61 45.5 -95t108.5 -34zM1559 92h10q60 0 100.5 35.5t40.5 97.5q0 58 -41 94.5t-100 36.5
h-10q-59 0 -100.5 -36.5t-41.5 -94.5q0 -62 41 -97.5t101 -35.5z" />
    <glyph glyph-name="fiveeighths" unicode="&#x215d;" horiz-adv-x="1933" 
d="M354 614q-124 0 -199.5 58.5t-84.5 169.5h125q7 -61 51 -93t106 -32h8q65 0 107.5 46t42.5 118q0 70 -41 109.5t-107 39.5h-6q-89 0 -145 -69h-109l93 473h428v-103h-338l-54 -256q61 58 152 58q114 0 183 -69.5t69 -178.5q0 -123 -80.5 -197t-200.5 -74zM592 0h-133
l860 1434h133zM1556 -10q-113 0 -191.5 57.5t-78.5 159.5q0 130 137 190q-66 28 -107.5 79.5t-41.5 117.5q0 105 79.5 165t207.5 60t208 -60t80 -165q0 -67 -41 -118.5t-108 -78.5q129 -59 129 -190q0 -102 -80 -159.5t-193 -57.5zM1552 455h11q66 0 113.5 34t47.5 95
q0 63 -45 98t-112 35h-11q-67 0 -112 -35t-45 -98q0 -61 45 -95t108 -34zM1552 92h11q60 0 100.5 35.5t40.5 97.5q0 58 -41 94.5t-100 36.5h-11q-59 0 -100 -36.5t-41 -94.5q0 -62 40.5 -97.5t100.5 -35.5z" />
    <glyph glyph-name="seveneighths" unicode="&#x215e;" horiz-adv-x="1748" 
d="M328 625h-125v73q0 117 24 219.5t66.5 180t94 134.5t112.5 99h-434v103h544v-109q-282 -234 -282 -627v-73zM399 0h-133l860 1434h134zM1368 -10q-113 0 -191.5 57.5t-78.5 159.5q0 130 137 190q-67 28 -108.5 79.5t-41.5 117.5q0 105 79.5 165t207.5 60t208.5 -60
t80.5 -165q0 -67 -41.5 -118.5t-108.5 -78.5q129 -59 129 -190q0 -102 -79.5 -159.5t-192.5 -57.5zM1364 455h10q66 0 114 34t48 95q0 63 -45.5 98t-112.5 35h-10q-67 0 -112.5 -35t-45.5 -98q0 -61 45.5 -95t108.5 -34zM1364 92h10q60 0 101 35.5t41 97.5q0 58 -41.5 94.5
t-100.5 36.5h-10q-59 0 -100 -36.5t-41 -94.5q0 -62 40.5 -97.5t100.5 -35.5z" />
    <glyph glyph-name="uni215F" unicode="&#x215f;" horiz-adv-x="1351" 
d="M399 625h-116v655l-240 -193v121l279 226h77v-809zM487 0h-133l860 1434h134z" />
    <glyph glyph-name="uni2160" unicode="&#x2160;" horiz-adv-x="931" 
d="M840 0h-748v113h307v1208h-307v113h748v-113h-308v-1208h308v-113z" />
    <glyph glyph-name="uni2161" unicode="&#x2161;" horiz-adv-x="1515" 
d="M1423 0h-1331v113h307v1208h-307v113h1331v-113h-307v-1208h307v-113zM532 1321v-1208h451v1208h-451z" />
    <glyph glyph-name="uni2162" unicode="&#x2162;" horiz-adv-x="2099" 
d="M2007 0h-1915v113h307v1208h-307v113h1915v-113h-307v-1208h307v-113zM532 1321v-1208h451v1208h-451zM1116 1321v-1208h451v1208h-451z" />
    <glyph glyph-name="uni2163" unicode="&#x2163;" horiz-adv-x="2150" 
d="M1817 0h-1717v113h308v1208h-308v113h1114v-113h-245l385 -1104l403 1104h-246v113h574v-113h-195l-440 -1208h367v-113zM541 1321v-1208h714l-419 1208h-295z" />
    <glyph glyph-name="uni2164" unicode="&#x2164;" horiz-adv-x="1581" 
d="M1247 0h-928v113h367l-420 1208h-194v113h573v-113h-246l385 -1104l404 1104h-246v113h574v-113h-195l-440 -1208h366v-113z" />
    <glyph glyph-name="uni2165" unicode="&#x2165;" horiz-adv-x="2125" 
d="M2030 0h-1717v113h367l-420 1208h-194v113h573v-113h-246l385 -1104l404 1104h-246v113h1094v-113h-308v-1208h308v-113zM1315 1321l-441 -1208h715v1208h-274z" />
    <glyph glyph-name="uni2166" unicode="&#x2166;" horiz-adv-x="2711" 
d="M2615 0h-2302v113h367l-420 1208h-194v113h573v-113h-246l385 -1104l404 1104h-246v113h1679v-113h-307v-1208h307v-113zM1315 1321l-441 -1208h717v1208h-276zM1724 1321v-1208h451v1208h-451z" />
    <glyph glyph-name="uni2167" unicode="&#x2167;" horiz-adv-x="3295" 
d="M3199 0h-2886v113h367l-420 1208h-194v113h573v-113h-246l385 -1104l404 1104h-246v113h2263v-113h-307v-1208h307v-113zM1315 1321l-441 -1208h717v1208h-276zM1724 1321v-1208h451v1208h-451zM2308 1321v-1208h451v1208h-451z" />
    <glyph glyph-name="uni2168" unicode="&#x2168;" horiz-adv-x="2039" 
d="M1956 0h-1864v113h307v1208h-307v113h1843v-113h-180l-407 -596l419 -612h189v-113zM532 1321v-1208h240l420 612l-408 596h-252zM940 1321l330 -481l329 481h-659zM1270 612l-342 -499h684z" />
    <glyph glyph-name="uni2169" unicode="&#x2169;" horiz-adv-x="1540" 
d="M1456 0h-1372v113h188l420 612l-407 596h-181v113h1332v-113h-181l-407 -596l420 -612h188v-113zM440 1321l330 -481l330 481h-660zM770 612l-342 -499h684z" />
    <glyph glyph-name="uni216C" unicode="&#x216c;" horiz-adv-x="1388" 
d="M1300 0h-1208v113h287v1208h-287v113h707v-113h-287v-1208h655v399h133v-512z" />
    <glyph glyph-name="uni216D" unicode="&#x216d;" horiz-adv-x="1478" 
d="M768 -20q-150 0 -274 56t-207 155t-128.5 234t-45.5 292t45.5 292t128.5 234t207 155t274 56q145 0 256 -54.5t174 -154.5v189h133v-441h-133q-32 158 -148.5 253t-271.5 95h-20q-119 0 -217.5 -51t-162 -137.5t-98 -198.5t-34.5 -237t34.5 -237t98 -199t162 -138
t217.5 -51h20q158 0 274 92.5t146 255.5h133v-440h-133v178q-66 -96 -177 -147t-253 -51z" />
    <glyph glyph-name="uni216E" unicode="&#x216e;" horiz-adv-x="1568" 
d="M807 0h-715v113h287v1208h-287v113h709q297 0 475 -193t178 -522q0 -339 -176.5 -529t-470.5 -190zM512 1321v-1208h244q268 0 416.5 152.5t148.5 449.5q0 290 -142 448t-403 158h-264z" />
    <glyph glyph-name="uni216F" unicode="&#x216f;" horiz-adv-x="2146" 
d="M676 0h-584v113h287v1208h-287v113l512 2l471 -1278l471 1276h508v-113h-287v-1208h287v-113h-584v113h164v1198l-483 -1311h-156l-483 1311v-1198h164v-113z" />
    <glyph glyph-name="arrowleft" unicode="&#x2190;" horiz-adv-x="1597" 
d="M1546 786v-139h-1249l469 -469l-98 -98l-637 637l637 637l98 -99l-469 -469h1249z" />
    <glyph glyph-name="arrowup" unicode="&#x2191;" horiz-adv-x="1519" 
d="M829 0h-139v1249l-469 -469l-98 99l637 637l637 -637l-99 -99l-469 469v-1249z" />
    <glyph glyph-name="arrowright" unicode="&#x2192;" horiz-adv-x="1597" 
d="M51 647v139h1249l-469 469l99 99l637 -637l-637 -637l-99 98l469 469h-1249z" />
    <glyph glyph-name="arrowdown" unicode="&#x2193;" horiz-adv-x="1519" 
d="M690 1434h139v-1250l469 469l99 -98l-637 -637l-637 637l98 98l469 -469v1250z" />
    <glyph glyph-name="uni2196" unicode="&#x2196;" horiz-adv-x="1355" 
d="M1249 410l-98 -99l-883 885v-664h-139v900h901v-138h-663z" />
    <glyph glyph-name="uni2197" unicode="&#x2197;" horiz-adv-x="1357" 
d="M201 313l-99 99l885 882h-663v140h899v-902h-138v664z" />
    <glyph glyph-name="uni2198" unicode="&#x2198;" horiz-adv-x="1355" 
d="M104 1022l99 98l882 -884v663h140v-899h-901v137h663z" />
    <glyph glyph-name="uni2199" unicode="&#x2199;" horiz-adv-x="1357" 
d="M1153 1118l98 -98l-884 -883h663v-139h-899v901h137v-663z" />
    <glyph glyph-name="uni21A4" unicode="&#x21a4;" horiz-adv-x="1689" 
d="M1423 786v443h133v-1024h-133v442h-1116l469 -469l-98 -98l-637 637l637 637l98 -99l-469 -469h1116z" />
    <glyph glyph-name="uni21A5" unicode="&#x21a5;" horiz-adv-x="1519" 
d="M1395 879l-99 -99l-469 469v-1116h443v-133h-1024v133h442v1116l-469 -469l-98 99l637 637z" />
    <glyph glyph-name="uni21A6" unicode="&#x21a6;" horiz-adv-x="1710" 
d="M934 1255l98 99l637 -637l-637 -637l-98 98l469 469h-1116v-442h-133v1024h133v-443h1116z" />
    <glyph glyph-name="uni21A7" unicode="&#x21a7;" horiz-adv-x="1519" 
d="M827 184l469 469l99 -98l-637 -637l-637 637l98 98l469 -469v1116h-442v134h1024v-134h-443v-1116z" />
    <glyph glyph-name="uni21B0" unicode="&#x21b0;" horiz-adv-x="1689" 
d="M287 786h1249v-786h-139v647h-1110l469 -469l-99 -98l-637 637l637 637l99 -99z" />
    <glyph glyph-name="uni21B1" unicode="&#x21b1;" horiz-adv-x="1689" 
d="M934 1255l98 99l637 -637l-637 -637l-98 98l469 469h-1110v-647h-139v786h1249z" />
    <glyph glyph-name="uni21B2" unicode="&#x21b2;" horiz-adv-x="1689" 
d="M1397 786v648h139v-787h-1249l469 -469l-99 -98l-637 637l637 637l99 -99l-469 -469h1110z" />
    <glyph glyph-name="uni21B3" unicode="&#x21b3;" horiz-adv-x="1689" 
d="M934 1255l98 99l637 -637l-637 -637l-98 98l469 469h-1249v787h139v-648h1110z" />
    <glyph glyph-name="partialdiff" unicode="&#x2202;" horiz-adv-x="1167" 
d="M567 -20q-216 0 -340.5 140t-124.5 374q0 221 123.5 360t323.5 139q107 0 194 -36.5t140 -106.5l-6 47q-16 108 -61 191.5t-108 133t-134.5 74.5t-147.5 25q-103 0 -190 -31v133q96 31 206 31q118 0 216 -42t168 -117t118 -179.5t71 -229.5t23 -268q0 -320 -127.5 -479
t-343.5 -159zM563 113h10q139 0 232.5 98t93.5 281q0 185 -90.5 281.5t-235.5 96.5h-20q-143 0 -227 -95t-84 -281q0 -185 88.5 -283t232.5 -98z" />
    <glyph glyph-name="uni2206" unicode="&#x2206;" horiz-adv-x="1396" 
d="M1327 0h-1257v143l553 1291h151l553 -1291v-143zM698 1268l-487 -1135h973z" />
    <glyph glyph-name="product" unicode="&#x220f;" horiz-adv-x="1392" 
d="M418 0h-139v1300h-213v134h1259v-134h-211v-1300h-139v1300h-557v-1300z" />
    <glyph glyph-name="summation" unicode="&#x2211;" horiz-adv-x="1073" 
d="M969 0h-871v135l418 582l-418 588v129h871v-134h-699l422 -583l-422 -584h699v-133z" />
    <glyph glyph-name="minus" unicode="&#x2212;" horiz-adv-x="1310" 
d="M1161 461h-1011v133h1011v-133z" />
    <glyph glyph-name="uni2215" unicode="&#x2215;" horiz-adv-x="733" 
d="M160 0h-144l553 1434h144z" />
    <glyph glyph-name="uni2219" unicode="&#x2219;" horiz-adv-x="888" 
d="M444 369q-141 0 -244.5 103.5t-103.5 244.5t103.5 244.5t244.5 103.5t245 -103.5t104 -244.5t-104 -244.5t-245 -103.5z" />
    <glyph glyph-name="radical" unicode="&#x221a;" horiz-adv-x="1374" 
d="M575 0h-161l-359 1024h140l297 -862l294 1272h519v-127h-412z" />
    <glyph glyph-name="infinity" unicode="&#x221e;" horiz-adv-x="1738" 
d="M475 348q-155 0 -256.5 107.5t-101.5 281.5t101.5 281.5t256.5 107.5q37 0 70 -5t62.5 -17t53 -24t48.5 -34.5t42.5 -39t41.5 -48t37.5 -50.5t39.5 -56q42 60 63.5 88.5t61.5 71.5t74 63t85 35.5t110 15.5q155 0 256.5 -107.5t101.5 -281.5t-101.5 -281.5t-256.5 -107.5
q-59 0 -109.5 14.5t-85.5 34t-73.5 59.5t-62.5 71t-63 87q-39 -56 -63 -87.5t-62.5 -70.5t-74 -59t-86 -34.5t-109.5 -14.5zM475 481h10q91 0 159.5 63t148.5 193q-80 130 -148.5 193t-159.5 63h-10q-103 0 -161 -67t-58 -189t58 -189t161 -67zM1253 481h11q103 0 161 67
t58 189t-58 189t-161 67h-11q-48 0 -89.5 -17.5t-79 -54.5t-68.5 -78.5t-70 -105.5q39 -64 70 -105.5t68.5 -78.5t79 -54.5t89.5 -17.5z" />
    <glyph glyph-name="integral" unicode="&#x222b;" horiz-adv-x="800" 
d="M113 -205h-82v133h71q126 0 177 57t51 189v870q0 390 356 390h82v-134h-72q-126 0 -176.5 -56.5t-50.5 -188.5v-871q0 -389 -356 -389z" />
    <glyph glyph-name="approxequal" unicode="&#x2248;" horiz-adv-x="1263" 
d="M868 569q-58 0 -154 41.5t-181.5 83t-118.5 41.5q-129 0 -129 -145h-133v51q0 103 66 169.5t179 66.5q58 0 154 -41.5t182 -83t119 -41.5q72 0 100.5 35.5t28.5 99.5h133v-51q0 -103 -63 -164.5t-183 -61.5zM868 180q-58 0 -154 41.5t-181.5 83t-118.5 41.5
q-129 0 -129 -145h-133v51q0 102 66 168.5t179 66.5q58 0 154 -41t182 -82.5t119 -41.5q72 0 100.5 35.5t28.5 99.5h133v-51q0 -103 -63 -164.5t-183 -61.5z" />
    <glyph glyph-name="notequal" unicode="&#x2260;" horiz-adv-x="1314" 
d="M1163 778v-133h-395l-74 -237h469v-134h-510l-75 -243h-146l76 243h-356v134h397l74 237h-471v133h512l75 246h146l-76 -246h354z" />
    <glyph glyph-name="lessequal" unicode="&#x2264;" horiz-adv-x="1296" 
d="M137 733l1012 311v-147l-864 -240l864 -239v-152l-1012 312v155zM1149 51h-1012v133h1012v-133z" />
    <glyph glyph-name="greaterequal" unicode="&#x2265;" horiz-adv-x="1296" 
d="M147 893v151l1012 -311v-155l-1012 -312v148l865 239zM1159 51h-1012v133h1012v-133z" />
    <glyph glyph-name="angleleft" unicode="&#x2329;" horiz-adv-x="747" 
d="M674 -174h-146l-467 891l467 891h146l-467 -889z" />
    <glyph glyph-name="angleright" unicode="&#x232a;" horiz-adv-x="747" 
d="M74 1608h145l467 -891l-467 -891h-145l467 889z" />
    <glyph glyph-name="uni2460" unicode="&#x2460;" horiz-adv-x="1802" 
d="M901 -82q-162 0 -310 63.5t-255 170.5t-170.5 255t-63.5 310t63.5 310t170.5 255t255 170.5t310 63.5t310 -63.5t255 -170.5t170.5 -255t63.5 -310t-63.5 -310t-170.5 -255t-255 -170.5t-310 -63.5zM901 20q141 0 269.5 55.5t221 149t147 222.5t54.5 270q0 189 -92.5 349
t-252 253.5t-347.5 93.5t-347.5 -93.5t-252 -253.5t-92.5 -349q0 -141 54.5 -270t147 -222.5t221 -149t269.5 -55.5zM989 317h-117v656l-239 -193v121l278 225h78v-809z" />
    <glyph glyph-name="uni2461" unicode="&#x2461;" horiz-adv-x="1802" 
d="M901 -82q-162 0 -310 63.5t-255 170.5t-170.5 255t-63.5 310t63.5 310t170.5 255t255 170.5t310 63.5t310 -63.5t255 -170.5t170.5 -255t63.5 -310t-63.5 -310t-170.5 -255t-255 -170.5t-310 -63.5zM901 20q141 0 269.5 55.5t221 149t147 222.5t54.5 270q0 189 -92.5 349
t-252 253.5t-347.5 93.5t-347.5 -93.5t-252 -253.5t-92.5 -349q0 -141 54.5 -270t147 -222.5t221 -149t269.5 -55.5zM1163 317h-545v140l259 225q96 84 124.5 123t28.5 96q0 59 -38 96t-95 37h-10q-51 0 -95 -38.5t-44 -102.5h-125q0 110 80 177t192 67q114 0 187 -63
t73 -173q0 -36 -10.5 -69t-22 -55t-38.5 -51.5t-41.5 -42.5t-49.5 -44l-252 -219h422v-103z" />
    <glyph glyph-name="uni2462" unicode="&#x2462;" horiz-adv-x="1802" 
d="M901 -82q-162 0 -310 63.5t-255 170.5t-170.5 255t-63.5 310t63.5 310t170.5 255t255 170.5t310 63.5t310 -63.5t255 -170.5t170.5 -255t63.5 -310t-63.5 -310t-170.5 -255t-255 -170.5t-310 -63.5zM901 20q141 0 269.5 55.5t221 149t147 222.5t54.5 270q0 189 -92.5 349
t-252 253.5t-347.5 93.5t-347.5 -93.5t-252 -253.5t-92.5 -349q0 -141 54.5 -270t147 -222.5t221 -149t269.5 -55.5zM891 307q-114 0 -194.5 62.5t-80.5 171.5h125q3 -60 42.5 -95.5t101.5 -35.5h10q67 0 111.5 38t44.5 103q0 59 -39.5 93t-98.5 34h-90v96h95q58 0 92 32.5
t34 92.5q0 66 -38.5 100.5t-104.5 34.5h-10q-61 0 -97.5 -33.5t-39.5 -89.5h-125q0 107 79 166.5t193 59.5q113 0 190.5 -60t77.5 -166q0 -63 -30 -112t-82 -74q57 -23 88 -72t31 -114q0 -105 -85.5 -168.5t-199.5 -63.5z" />
    <glyph glyph-name="uni2463" unicode="&#x2463;" horiz-adv-x="1802" 
d="M901 -82q-162 0 -310 63.5t-255 170.5t-170.5 255t-63.5 310t63.5 310t170.5 255t255 170.5t310 63.5t310 -63.5t255 -170.5t170.5 -255t63.5 -310t-63.5 -310t-170.5 -255t-255 -170.5t-310 -63.5zM901 20q141 0 269.5 55.5t221 149t147 222.5t54.5 270q0 189 -92.5 349
t-252 253.5t-347.5 93.5t-347.5 -93.5t-252 -253.5t-92.5 -349q0 -141 54.5 -270t147 -222.5t221 -149t269.5 -55.5zM1042 317h-114v197h-379v115l366 497h127v-510h111v-102h-111v-197zM928 977l-260 -361h260v361z" />
    <glyph glyph-name="uni2464" unicode="&#x2464;" horiz-adv-x="1802" 
d="M901 -82q-162 0 -310 63.5t-255 170.5t-170.5 255t-63.5 310t63.5 310t170.5 255t255 170.5t310 63.5t310 -63.5t255 -170.5t170.5 -255t63.5 -310t-63.5 -310t-170.5 -255t-255 -170.5t-310 -63.5zM901 20q141 0 269.5 55.5t221 149t147 222.5t54.5 270q0 189 -92.5 349
t-252 253.5t-347.5 93.5t-347.5 -93.5t-252 -253.5t-92.5 -349q0 -141 54.5 -270t147 -222.5t221 -149t269.5 -55.5zM877 307q-124 0 -200 59t-85 169h125q7 -61 51 -93t106 -32h9q65 0 107 45.5t42 117.5q0 71 -40.5 110.5t-106.5 39.5h-6q-89 0 -146 -70h-108l92 473h428
v-102h-338l-53 -256q60 57 151 57q114 0 183 -69t69 -178q0 -123 -80 -197t-200 -74z" />
    <glyph glyph-name="uni2465" unicode="&#x2465;" horiz-adv-x="1802" 
d="M901 -82q-162 0 -310 63.5t-255 170.5t-170.5 255t-63.5 310t63.5 310t170.5 255t255 170.5t310 63.5t310 -63.5t255 -170.5t170.5 -255t63.5 -310t-63.5 -310t-170.5 -255t-255 -170.5t-310 -63.5zM901 20q141 0 269.5 55.5t221 149t147 222.5t54.5 270q0 189 -92.5 349
t-252 253.5t-347.5 93.5t-347.5 -93.5t-252 -253.5t-92.5 -349q0 -141 54.5 -270t147 -222.5t221 -149t269.5 -55.5zM877 307q-139 0 -218 103.5t-79 287.5q0 199 93.5 319t235.5 120q129 0 201 -69t72 -157h-121q-11 55 -50.5 88t-97.5 33h-12q-82 0 -141.5 -77.5
t-69.5 -209.5q25 51 85 83t134 32q107 0 183.5 -72.5t76.5 -191.5q0 -126 -78.5 -207.5t-213.5 -81.5zM877 410h6q71 0 118.5 49.5t47.5 124.5q0 76 -45.5 125t-116.5 49h-6q-71 0 -117.5 -49t-46.5 -125q0 -75 45 -124.5t115 -49.5z" />
    <glyph glyph-name="uni2466" unicode="&#x2466;" horiz-adv-x="1802" 
d="M901 -82q-162 0 -310 63.5t-255 170.5t-170.5 255t-63.5 310t63.5 310t170.5 255t255 170.5t310 63.5t310 -63.5t255 -170.5t170.5 -255t63.5 -310t-63.5 -310t-170.5 -255t-255 -170.5t-310 -63.5zM901 20q141 0 269.5 55.5t221 149t147 222.5t54.5 270q0 189 -92.5 349
t-252 253.5t-347.5 93.5t-347.5 -93.5t-252 -253.5t-92.5 -349q0 -141 54.5 -270t147 -222.5t221 -149t269.5 -55.5zM899 317h-125v74q0 117 24 219.5t66.5 180t94 134.5t112.5 99h-434v102h545v-108q-283 -235 -283 -627v-74z" />
    <glyph glyph-name="uni2467" unicode="&#x2467;" horiz-adv-x="1802" 
d="M901 -82q-162 0 -310 63.5t-255 170.5t-170.5 255t-63.5 310t63.5 310t170.5 255t255 170.5t310 63.5t310 -63.5t255 -170.5t170.5 -255t63.5 -310t-63.5 -310t-170.5 -255t-255 -170.5t-310 -63.5zM901 20q141 0 269.5 55.5t221 149t147 222.5t54.5 270q0 189 -92.5 349
t-252 253.5t-347.5 93.5t-347.5 -93.5t-252 -253.5t-92.5 -349q0 -141 54.5 -270t147 -222.5t221 -149t269.5 -55.5zM895 307q-113 0 -191.5 57.5t-78.5 159.5q0 66 37 114.5t100 76.5q-67 28 -108.5 79t-41.5 117q0 105 80 165.5t207 60.5q128 0 208.5 -60.5t80.5 -165.5
q0 -66 -41 -117t-109 -79q60 -28 94.5 -76.5t34.5 -114.5q0 -102 -79.5 -159.5t-192.5 -57.5zM891 772h10q66 0 114 34t48 95q0 63 -45.5 98t-112.5 35h-10q-67 0 -112.5 -35t-45.5 -98q0 -61 45.5 -95t108.5 -34zM891 410h10q60 0 100.5 35.5t40.5 97.5q0 58 -41 94.5
t-100 36.5h-10q-59 0 -100 -36.5t-41 -94.5q0 -62 40.5 -97.5t100.5 -35.5z" />
    <glyph glyph-name="uni2468" unicode="&#x2468;" horiz-adv-x="1802" 
d="M901 -82q-162 0 -310 63.5t-255 170.5t-170.5 255t-63.5 310t63.5 310t170.5 255t255 170.5t310 63.5t310 -63.5t255 -170.5t170.5 -255t63.5 -310t-63.5 -310t-170.5 -255t-255 -170.5t-310 -63.5zM901 20q141 0 269.5 55.5t221 149t147 222.5t54.5 270q0 189 -92.5 349
t-252 253.5t-347.5 93.5t-347.5 -93.5t-252 -253.5t-92.5 -349q0 -141 54.5 -270t147 -222.5t221 -149t269.5 -55.5zM883 307q-129 0 -201 68.5t-72 156.5h121q11 -55 50.5 -87.5t97.5 -32.5h12q82 0 141.5 77t69.5 209q-25 -51 -84.5 -82.5t-134.5 -31.5
q-107 0 -183.5 72.5t-76.5 191.5q0 126 78.5 207.5t213.5 81.5q138 0 217.5 -104t79.5 -288q0 -199 -93.5 -318.5t-235.5 -119.5zM905 686h6q71 0 117.5 49t46.5 125q0 75 -45 124.5t-115 49.5h-6q-71 0 -118.5 -49.5t-47.5 -124.5q0 -76 45.5 -125t116.5 -49z" />
    <glyph glyph-name="uni24EA" unicode="&#x24ea;" horiz-adv-x="1802" 
d="M901 -82q-162 0 -310 63.5t-255 170.5t-170.5 255t-63.5 310t63.5 310t170.5 255t255 170.5t310 63.5t310 -63.5t255 -170.5t170.5 -255t63.5 -310t-63.5 -310t-170.5 -255t-255 -170.5t-310 -63.5zM901 20q141 0 269.5 55.5t221 149t147 222.5t54.5 270q0 189 -92.5 349
t-252 253.5t-347.5 93.5t-347.5 -93.5t-252 -253.5t-92.5 -349q0 -141 54.5 -270t147 -222.5t221 -149t269.5 -55.5zM901 305q-154 0 -243 112.5t-89 301.5t89 302.5t243 113.5t243 -113.5t89 -302.5t-89 -301.5t-243 -112.5zM897 408h8q66 0 113.5 46.5t68.5 115t21 149.5
t-21 150t-68.5 116t-113.5 47h-8q-66 0 -113.5 -47t-68.5 -116t-21 -150t21 -149.5t68.5 -115t113.5 -46.5z" />
    <glyph glyph-name="uni24FF" unicode="&#x24ff;" horiz-adv-x="1802" 
d="M901 -82q-161 0 -309 63.5t-255.5 171t-171 255.5t-63.5 309q0 162 63.5 310t171 255t255.5 170.5t309 63.5q162 0 310 -63.5t255 -170.5t170.5 -255t63.5 -310q0 -161 -63.5 -309t-170.5 -255.5t-255 -171t-310 -63.5zM901 305q154 0 243 112.5t89 301.5t-89 302.5
t-243 113.5t-243 -113.5t-89 -302.5t89 -301.5t243 -112.5zM905 408h-8q-66 0 -113.5 46.5t-68.5 115t-21 149.5t21 150t68.5 116t113.5 47h8q66 0 113.5 -47t68.5 -116t21 -150t-21 -149.5t-68.5 -115t-113.5 -46.5z" />
    <glyph glyph-name="triagup" unicode="&#x25b2;" horiz-adv-x="1720" 
d="M1690 0h-1659l829 1475z" />
    <glyph glyph-name="lozenge" unicode="&#x25ca;" horiz-adv-x="1259" 
d="M707 0h-144l-491 717l491 717h144l481 -717zM236 717l399 -578l399 578l-399 588z" />
    <glyph glyph-name="uni2776" unicode="&#x2776;" horiz-adv-x="1802" 
d="M901 -82q-161 0 -309 63.5t-255.5 171t-171 255.5t-63.5 309q0 162 63.5 310t171 255t255.5 170.5t309 63.5q162 0 310 -63.5t255 -170.5t170.5 -255t63.5 -310q0 -161 -63.5 -309t-170.5 -255.5t-255 -171t-310 -63.5zM872 973v-656h117v809h-78l-278 -225v-121z" />
    <glyph glyph-name="uni2777" unicode="&#x2777;" horiz-adv-x="1802" 
d="M901 -82q-161 0 -309 63.5t-255.5 171t-171 255.5t-63.5 309q0 162 63.5 310t171 255t255.5 170.5t309 63.5q162 0 310 -63.5t255 -170.5t170.5 -255t63.5 -310q0 -161 -63.5 -309t-170.5 -255.5t-255 -171t-310 -63.5zM618 457v-140h545v103h-422l252 219q35 31 49.5 44
t41.5 42.5t38.5 51.5t22 55t10.5 69q0 110 -73 173t-187 63q-112 0 -192 -67t-80 -177h125q0 64 44 102.5t95 38.5h10q57 0 95 -37t38 -96q0 -57 -28.5 -96t-124.5 -123z" />
    <glyph glyph-name="uni2778" unicode="&#x2778;" horiz-adv-x="1802" 
d="M901 -82q-161 0 -309 63.5t-255.5 171t-171 255.5t-63.5 309q0 162 63.5 310t171 255t255.5 170.5t309 63.5q162 0 310 -63.5t255 -170.5t170.5 -255t63.5 -310q0 -161 -63.5 -309t-170.5 -255.5t-255 -171t-310 -63.5zM891 307q114 0 199.5 63.5t85.5 168.5
q0 65 -31 114t-88 72q52 25 82 74t30 112q0 106 -77.5 166t-190.5 60q-114 0 -193 -59.5t-79 -166.5h125q3 56 39.5 89.5t97.5 33.5h10q66 0 104.5 -34.5t38.5 -100.5q0 -60 -34 -92.5t-92 -32.5h-95v-96h90q59 0 98.5 -34t39.5 -93q0 -65 -44.5 -103t-111.5 -38h-10
q-62 0 -101.5 35.5t-42.5 95.5h-125q0 -109 80.5 -171.5t194.5 -62.5z" />
    <glyph glyph-name="uni2779" unicode="&#x2779;" horiz-adv-x="1802" 
d="M901 -82q-161 0 -309 63.5t-255.5 171t-171 255.5t-63.5 309q0 162 63.5 310t171 255t255.5 170.5t309 63.5q162 0 310 -63.5t255 -170.5t170.5 -255t63.5 -310q0 -161 -63.5 -309t-170.5 -255.5t-255 -171t-310 -63.5zM928 514v-197h114v197h111v102h-111v510h-127
l-366 -497v-115h379zM928 616h-260l260 361v-361z" />
    <glyph glyph-name="uni277A" unicode="&#x277a;" horiz-adv-x="1802" 
d="M901 -82q-161 0 -309 63.5t-255.5 171t-171 255.5t-63.5 309q0 162 63.5 310t171 255t255.5 170.5t309 63.5q162 0 310 -63.5t255 -170.5t170.5 -255t63.5 -310q0 -161 -63.5 -309t-170.5 -255.5t-255 -171t-310 -63.5zM877 307q120 0 200 74t80 197q0 109 -69 178
t-183 69q-91 0 -151 -57l53 256h338v102h-428l-92 -473h108q57 70 146 70h6q66 0 106.5 -39.5t40.5 -110.5q0 -72 -42 -117.5t-107 -45.5h-9q-62 0 -106 32t-51 93h-125q9 -110 85 -169t200 -59z" />
    <glyph glyph-name="uni277B" unicode="&#x277b;" horiz-adv-x="1802" 
d="M901 -82q-161 0 -309 63.5t-255.5 171t-171 255.5t-63.5 309q0 162 63.5 310t171 255t255.5 170.5t309 63.5q162 0 310 -63.5t255 -170.5t170.5 -255t63.5 -310q0 -161 -63.5 -309t-170.5 -255.5t-255 -171t-310 -63.5zM877 307q135 0 213.5 81.5t78.5 207.5
q0 119 -76.5 191.5t-183.5 72.5q-74 0 -134 -32t-85 -83q10 132 69.5 209.5t141.5 77.5h12q58 0 97.5 -33t50.5 -88h121q0 88 -72 157t-201 69q-142 0 -235.5 -120t-93.5 -319q0 -184 79 -287.5t218 -103.5zM883 410h-6q-70 0 -115 49.5t-45 124.5q0 76 46.5 125t117.5 49h6
q71 0 116.5 -49t45.5 -125q0 -75 -47.5 -124.5t-118.5 -49.5z" />
    <glyph glyph-name="uni277C" unicode="&#x277c;" horiz-adv-x="1802" 
d="M901 -82q-161 0 -309 63.5t-255.5 171t-171 255.5t-63.5 309q0 162 63.5 310t171 255t255.5 170.5t309 63.5q162 0 310 -63.5t255 -170.5t170.5 -255t63.5 -310q0 -161 -63.5 -309t-170.5 -255.5t-255 -171t-310 -63.5zM774 391v-74h125v74q0 392 283 627v108h-545v-102
h434q-61 -42 -112.5 -99t-94 -134.5t-66.5 -180t-24 -219.5z" />
    <glyph glyph-name="uni277D" unicode="&#x277d;" horiz-adv-x="1802" 
d="M901 -82q-161 0 -309 63.5t-255.5 171t-171 255.5t-63.5 309q0 162 63.5 310t171 255t255.5 170.5t309 63.5q162 0 310 -63.5t255 -170.5t170.5 -255t63.5 -310q0 -161 -63.5 -309t-170.5 -255.5t-255 -171t-310 -63.5zM895 307q113 0 192.5 57.5t79.5 159.5
q0 66 -34.5 114.5t-94.5 76.5q68 28 109 79t41 117q0 105 -80.5 165.5t-208.5 60.5q-127 0 -207 -60.5t-80 -165.5q0 -66 41.5 -117t108.5 -79q-63 -28 -100 -76.5t-37 -114.5q0 -102 78.5 -159.5t191.5 -57.5zM901 772h-10q-63 0 -108.5 34t-45.5 95q0 63 45.5 98t112.5 35
h10q67 0 112.5 -35t45.5 -98q0 -61 -48 -95t-114 -34zM901 410h-10q-60 0 -100.5 35.5t-40.5 97.5q0 58 41 94.5t100 36.5h10q59 0 100 -36.5t41 -94.5q0 -62 -40.5 -97.5t-100.5 -35.5z" />
    <glyph glyph-name="uni277E" unicode="&#x277e;" horiz-adv-x="1802" 
d="M901 -82q-161 0 -309 63.5t-255.5 171t-171 255.5t-63.5 309q0 162 63.5 310t171 255t255.5 170.5t309 63.5q162 0 310 -63.5t255 -170.5t170.5 -255t63.5 -310q0 -161 -63.5 -309t-170.5 -255.5t-255 -171t-310 -63.5zM883 307q142 0 235.5 119.5t93.5 318.5
q0 184 -79.5 288t-217.5 104q-135 0 -213.5 -81.5t-78.5 -207.5q0 -119 76.5 -191.5t183.5 -72.5q75 0 134.5 31.5t84.5 82.5q-10 -132 -69.5 -209t-141.5 -77h-12q-58 0 -97.5 32.5t-50.5 87.5h-121q0 -88 72 -156.5t201 -68.5zM911 686h-6q-71 0 -116.5 49t-45.5 125
q0 75 47.5 124.5t118.5 49.5h6q70 0 115 -49.5t45 -124.5q0 -76 -46.5 -125t-117.5 -49z" />
    <glyph glyph-name="uni300A" unicode="&#x300a;" horiz-adv-x="1124" 
d="M674 -174h-146l-467 891l467 891h146l-467 -889zM1051 -174h-146l-467 891l467 891h146l-467 -889z" />
    <glyph glyph-name="uni300B" unicode="&#x300b;" horiz-adv-x="1124" 
d="M74 1608h145l467 -891l-467 -891h-145l467 889zM451 1608h145l467 -891l-467 -891h-145l467 889z" />
    <glyph glyph-name="uni300C" unicode="&#x300c;" horiz-adv-x="598" 
d="M279 795h-129v936h409v-113h-280v-823z" />
    <glyph glyph-name="uni300D" unicode="&#x300d;" horiz-adv-x="593" 
d="M317 639h129v-936h-409v113h280v823z" />
    <glyph glyph-name="uni300E" unicode="&#x300e;" horiz-adv-x="894" 
d="M541 682h-387v1049h667v-338h-280v-711zM283 1618v-823h129v710h280v113h-409z" />
    <glyph glyph-name="uni300F" unicode="&#x300f;" horiz-adv-x="899" 
d="M354 752h387v-1049h-667v338h280v711zM612 -184v823h-129v-711h-280v-112h409z" />
    <glyph glyph-name="uni3010" unicode="&#x3010;" horiz-adv-x="731" 
d="M715 -297h-527v2028h527q-197 -211 -295 -474t-98 -538q0 -273 97 -536.5t296 -479.5z" />
    <glyph glyph-name="uni3011" unicode="&#x3011;" horiz-adv-x="729" 
d="M14 1733h527v-2028h-527q197 211 295.5 474t98.5 538q0 272 -97.5 536t-296.5 480z" />
    <glyph glyph-name="uni3014" unicode="&#x3014;" horiz-adv-x="616" 
d="M602 -297h-168l-295 332v1364l295 332h166l-328 -373v-1280z" />
    <glyph glyph-name="uni3015" unicode="&#x3015;" horiz-adv-x="616" 
d="M14 1733h168l295 -332v-1364l-295 -332h-166l328 373v1280z" />
    <glyph glyph-name="uniE000" unicode="&#xe000;" horiz-adv-x="1105" 
d="M963 307h-820v819h820v-819zM297 973v-512h512v512h-512z" />
    <glyph glyph-name="uniE001" unicode="&#xe001;" horiz-adv-x="1413" 
d="M1270 154h-1127v1126h1127v-1126zM297 1126v-819h819v819h-819z" />
    <glyph glyph-name="uniE002" unicode="&#xe002;" horiz-adv-x="1802" 
d="M1618 0h-1434v1434h1434v-1434zM338 1280v-1126h1126v1126h-1126z" />
    <glyph glyph-name="uniE003" unicode="&#xe003;" horiz-adv-x="1105" 
d="M963 307h-820v819h820v-819zM297 973v-512h512v512h-512zM655 614h-204v205h204v-205z" />
    <glyph glyph-name="uniE004" unicode="&#xe004;" horiz-adv-x="1413" 
d="M1270 154h-1127v1126h1127v-1126zM297 1126v-819h819v819h-819zM963 461h-512v512h512v-512zM604 819v-205h205v205h-205z" />
    <glyph glyph-name="uniE005" unicode="&#xe005;" horiz-adv-x="1802" 
d="M1618 0h-1434v1434h1434v-1434zM338 1280v-1126h1126v1126h-1126zM1311 307h-819v819h819v-819zM645 973v-512h512v512h-512zM1004 614h-205v205h205v-205z" />
    <glyph glyph-name="uniE006" unicode="&#xe006;" horiz-adv-x="1105" 
d="M963 307h-820v819h820v-819z" />
    <glyph glyph-name="uniE007" unicode="&#xe007;" horiz-adv-x="1413" 
d="M1270 154h-1127v1126h1127v-1126z" />
    <glyph glyph-name="uniE008" unicode="&#xe008;" horiz-adv-x="1802" 
d="M1618 0h-1434v1434h1434v-1434z" />
    <glyph glyph-name="uniE00A" unicode="&#xe00a;" horiz-adv-x="731" 
d="M668 -297h-185q-110 0 -188 72t-78 184q0 95 74 174q-166 36 -166 234v700q0 197 166 233q-74 79 -74 175q0 112 78 184t188 72h185v-113h-170q-67 0 -107.5 -37.5t-40.5 -97.5v-17q0 -60 40.5 -97.5t107.5 -37.5h37v-112h-99q-178 0 -178 -181v-643q0 -180 178 -180h99
v-113h-37q-67 0 -107.5 -37.5t-40.5 -97.5v-16q0 -60 40.5 -97.5t107.5 -37.5h170v-113z" />
    <glyph glyph-name="uniE00B" unicode="&#xe00b;" horiz-adv-x="731" 
d="M63 1731h185q110 0 188 -72t78 -184q0 -96 -74 -175q166 -36 166 -233v-700q0 -198 -166 -234q74 -79 74 -174q0 -112 -78 -184t-188 -72h-185v113h170q67 0 107.5 37.5t40.5 97.5v16q0 60 -40.5 97.5t-107.5 37.5h-36v113h98q178 0 178 180v643q0 181 -178 181h-98v112
h36q67 0 107.5 37.5t40.5 97.5v17q0 60 -40.5 97.5t-107.5 37.5h-170v113z" />
    <glyph glyph-name="uniE010" unicode="&#xe010;" horiz-adv-x="1187" 
d="M594 225q-99 0 -190.5 39t-157.5 105t-105 157.5t-39 190.5q0 133 66 246t179.5 179t246.5 66t246 -66t179 -179t66 -246t-66 -246.5t-179 -179.5t-246 -66zM594 379q140 0 239 99.5t99 238.5t-99 238.5t-239 99.5t-239 -99.5t-99 -238.5t99 -238.5t239 -99.5z" />
    <glyph glyph-name="uniE011" unicode="&#xe011;" horiz-adv-x="1495" 
d="M748 72q-174 0 -323 87t-236 235.5t-87 322.5t87 322.5t236 235.5t323 87t322.5 -87t235.5 -235.5t87 -322.5t-87 -322.5t-235.5 -235.5t-322.5 -87zM748 225q133 0 246 66t179 179.5t66 246.5t-66 246t-179 179t-246 66t-246.5 -66t-179.5 -179t-66 -246
q0 -99 39 -190.5t105 -157.5t157.5 -105t190.5 -39z" />
    <glyph glyph-name="uniE012" unicode="&#xe012;" horiz-adv-x="1802" 
d="M901 -82q-161 0 -309 63.5t-255.5 171t-171 255.5t-63.5 309q0 162 63.5 310t171 255t255.5 170.5t309 63.5q162 0 310 -63.5t255 -170.5t170.5 -255t63.5 -310q0 -161 -63.5 -309t-170.5 -255.5t-255 -171t-310 -63.5zM901 72q174 0 322.5 87t235.5 235.5t87 322.5
t-87 322.5t-235.5 235.5t-322.5 87t-322.5 -87t-235.5 -235.5t-87 -322.5t87 -322.5t235.5 -235.5t322.5 -87z" />
    <glyph glyph-name="uniE013" unicode="&#xe013;" horiz-adv-x="1187" 
d="M594 225q-99 0 -190.5 39t-157.5 105t-105 157.5t-39 190.5q0 133 66 246t179.5 179t246.5 66t246 -66t179 -179t66 -246t-66 -246.5t-179 -179.5t-246 -66zM594 379q140 0 239 99.5t99 238.5t-99 238.5t-239 99.5t-239 -99.5t-99 -238.5t99 -238.5t239 -99.5zM594 532
q-75 0 -129.5 55t-54.5 130q0 76 54.5 130t129.5 54q76 0 130 -53.5t54 -130.5q0 -75 -54 -130t-130 -55z" />
    <glyph glyph-name="uniE014" unicode="&#xe014;" horiz-adv-x="1495" 
d="M748 72q-174 0 -323 87t-236 235.5t-87 322.5t87 322.5t236 235.5t323 87t322.5 -87t235.5 -235.5t87 -322.5t-87 -322.5t-235.5 -235.5t-322.5 -87zM748 225q133 0 246 66t179 179.5t66 246.5t-66 246t-179 179t-246 66t-246.5 -66t-179.5 -179t-66 -246
q0 -99 39 -190.5t105 -157.5t157.5 -105t190.5 -39zM748 379q-140 0 -239 99.5t-99 238.5t99 238.5t239 99.5q139 0 238 -99t99 -239t-99 -239t-238 -99zM748 532q76 0 130 55t54 130q0 77 -54 130.5t-130 53.5q-75 0 -130 -54t-55 -130q0 -75 55 -130t130 -55z" />
    <glyph glyph-name="uniE015" unicode="&#xe015;" horiz-adv-x="1802" 
d="M901 -82q-161 0 -309 63.5t-255.5 171t-171 255.5t-63.5 309q0 162 63.5 310t171 255t255.5 170.5t309 63.5q162 0 310 -63.5t255 -170.5t170.5 -255t63.5 -310q0 -161 -63.5 -309t-170.5 -255.5t-255 -171t-310 -63.5zM901 72q174 0 322.5 87t235.5 235.5t87 322.5
t-87 322.5t-235.5 235.5t-322.5 87t-322.5 -87t-235.5 -235.5t-87 -322.5t87 -322.5t235.5 -235.5t322.5 -87zM901 225q-133 0 -246 66t-179 179.5t-66 246.5t66 246t179 179t246 66t246.5 -66t179.5 -179t66 -246q0 -99 -39 -190.5t-105 -157.5t-157.5 -105t-190.5 -39z
M901 379q139 0 238.5 99.5t99.5 238.5t-99.5 238.5t-238.5 99.5t-238.5 -99.5t-99.5 -238.5t99.5 -238.5t238.5 -99.5zM901 532q-75 0 -129.5 55t-54.5 130q0 76 54.5 130t129.5 54q77 0 130.5 -53.5t53.5 -130.5q0 -75 -54 -130t-130 -55z" />
    <glyph glyph-name="uniE016" unicode="&#xe016;" horiz-adv-x="1310" 
d="M655 225q-133 0 -246 66t-179 179.5t-66 246.5t66 246t179 179t246 66t246.5 -66t179.5 -179t66 -246q0 -99 -39 -190.5t-105 -157.5t-157.5 -105t-190.5 -39z" />
    <glyph glyph-name="uniE017" unicode="&#xe017;" horiz-adv-x="1433" 
d="M717 102q-124 0 -238 49t-196.5 131.5t-131.5 196.5t-49 238q0 166 82.5 307.5t224.5 224t308 82.5t307.5 -82.5t224 -224t82.5 -307.5t-82.5 -308t-224 -224.5t-307.5 -82.5z" />
    <glyph glyph-name="uniE018" unicode="&#xe018;" horiz-adv-x="1802" 
d="M901 -20q-200 0 -369.5 99t-268.5 268.5t-99 369.5t99 369.5t268.5 268.5t369.5 99t369.5 -99t268.5 -268.5t99 -369.5t-99 -369.5t-268.5 -268.5t-369.5 -99z" />
    <glyph glyph-name="uniF8FF" unicode="&#xf8ff;" horiz-adv-x="1675" 
d="M1655 1446q58 0 110 -12t74 -31q-1 -4 -1.5 -19t-2 -25t-4.5 -13q-18 -15 -62 -15q-45 0 -69 8q2 -55 -12.5 -103t-52.5 -81.5t-93 -28.5q-18 -58 -57.5 -99.5t-91.5 -61.5t-101 -28.5t-102 -8.5q-39 0 -55 2q0 -1 7 -23.5t18 -62t22.5 -87.5t23.5 -109t19 -116
q5 -6 29 -33.5t40 -45t43.5 -45.5t53.5 -52q43 -39 77 -84t45 -75q5 -10 5 -23q0 -30 -39 -37q-44 26 -84.5 65.5t-90.5 97t-85 91.5q-2 -10 -2 -31q0 -72 25 -184t28 -141q-31 -25 -60 -25q-23 0 -26 19q-27 45 -44 138t-25.5 183.5t-10.5 98.5q-64 3 -457 -91
q-1 -47 16 -91t44.5 -82t56.5 -74.5t57.5 -83.5t42.5 -93q-15 -22 -41 -22q-17 0 -35 12q-16 9 -35.5 30.5t-33.5 40.5t-37 52.5t-33 46.5q-23 30 -48.5 86t-37.5 64q-20 -60 -37.5 -107.5t-35.5 -92t-32.5 -68.5t-23.5 -23h-16q-45 0 -45 37q0 58 37 165t90 199
q-14 2 -105.5 9t-168.5 24.5t-124 54.5q-10 13 -20 29q12 15 25 26t21.5 16.5t25.5 15.5t26 16q29 39 106.5 97.5t108.5 102.5q-12 10 -59 32t-85.5 48.5t-47.5 55.5q4 4 18 39q9 7 65.5 -15t121.5 -55q2 15 4 51t5.5 60t10.5 34q3 7 22 14t36 10l18 3q8 -5 15 -14.5
t7 -16.5q2 -16 -10.5 -83.5t-9.5 -102.5q47 0 96.5 22.5t103.5 59t78 47.5q13 4 62 16.5t102 27t92 26.5q-41 71 -41 157q0 77 35 115q132 1 202.5 -48.5t70.5 -127.5q0 -31 -13 -68q40 3 83.5 28t49.5 50q-19 18 -46.5 33.5t-44.5 30.5t-27 43q-33 36 -33 79q0 36 23.5 67
t64.5 46q25 10 57 10q62 0 101 -48t39 -122q0 -27 -2 -39q49 23 49 170q0 10 -1 32t-1 32q16 2 49 2zM1464 1204q6 15 6 35q0 33 -19.5 60.5t-55.5 37.5q-13 -23 -13 -41q0 -34 26.5 -61.5t55.5 -30.5zM1198 1042q3 1 8 4.5t13 21.5t8 44q-57 57 -117 57q-8 -28 -8 -49
q0 -56 24 -80q6 -6 21 -6q3 0 51 8zM1073 553q6 0 19 -1t20 -1q-6 38 -20.5 89t-18.5 69q-5 27 -9 59.5t-6 49t-10 36.5t-22 37q-99 -22 -240 -96t-223 -95q13 -45 25.5 -102.5t20.5 -96t9 -42.5q63 3 141.5 27t158.5 45.5t155 21.5zM475 461q25 0 35 2q-11 28 -27.5 90
t-31.5 96q-19 -17 -60 -51t-65.5 -59t-42.5 -56q139 -22 192 -22z" />
    <glyph glyph-name="G.ss02" horiz-adv-x="1482" 
d="M780 -20q-209 0 -361.5 95t-230 260.5t-77.5 381.5t77.5 381.5t230 260.5t361.5 95q241 0 393.5 -131.5t176.5 -349.5h-144q-25 163 -136 255.5t-279 92.5h-21q-233 0 -374.5 -159t-141.5 -445t141.5 -445t374.5 -159h21q191 0 313.5 105t122.5 267v99h-447v133h580v-211
q0 -242 -161 -384t-419 -142z" />
    <glyph glyph-name="Gbreve.ss02" horiz-adv-x="1482" 
d="M782 1546q-134 0 -215.5 72.5t-81.5 204.5h113q14 -164 184 -164q171 0 185 164h112q0 -132 -81.5 -204.5t-215.5 -72.5zM780 -20q-209 0 -361.5 95t-230 260.5t-77.5 381.5t77.5 381.5t230 260.5t361.5 95q241 0 393.5 -131.5t176.5 -349.5h-144q-25 163 -136 255.5
t-279 92.5h-21q-233 0 -374.5 -159t-141.5 -445t141.5 -445t374.5 -159h21q191 0 313.5 105t122.5 267v99h-447v133h580v-211q0 -242 -161 -384t-419 -142z" />
    <glyph glyph-name="Gcircumflex.ss02" horiz-adv-x="1482" 
d="M971 1567l-189 147l-188 -147h-139l235 256h184l236 -256h-139zM780 584v133h580v-211q0 -242 -161 -384t-419 -142q-209 0 -361.5 95t-230 260.5t-77.5 381.5t77.5 381.5t230 260.5t361.5 95q241 0 393.5 -131.5t176.5 -349.5h-144q-25 163 -136 255.5t-279 92.5h-21
q-233 0 -374.5 -159t-141.5 -445t141.5 -445t374.5 -159h21q191 0 313.5 105t122.5 267v99h-447z" />
    <glyph glyph-name="uni0122.ss02" horiz-adv-x="1482" 
d="M780 -20q-209 0 -361.5 95t-230 260.5t-77.5 381.5t77.5 381.5t230 260.5t361.5 95q241 0 393.5 -131.5t176.5 -349.5h-144q-25 163 -136 255.5t-279 92.5h-21q-233 0 -374.5 -159t-141.5 -445t141.5 -445t374.5 -159h21q191 0 313.5 105t122.5 267v99h-447v133h580v-211
q0 -242 -161 -384t-419 -142zM694 -512h-20v72h10q92 0 92 82v20h-61v154h133v-174q0 -70 -43 -112t-111 -42z" />
    <glyph glyph-name="Gdotaccent.ss02" horiz-adv-x="1482" 
d="M858 1597h-153v175h153v-175zM780 -20q-209 0 -361.5 95t-230 260.5t-77.5 381.5t77.5 381.5t230 260.5t361.5 95q241 0 393.5 -131.5t176.5 -349.5h-144q-25 163 -136 255.5t-279 92.5h-21q-233 0 -374.5 -159t-141.5 -445t141.5 -445t374.5 -159h21q191 0 313.5 105
t122.5 267v99h-447v133h580v-211q0 -242 -161 -384t-419 -142z" />
    <glyph glyph-name="R.ss03" horiz-adv-x="1374" 
d="M342 0h-143v1434h585q190 0 314.5 -112t124.5 -275q0 -73 -24.5 -138t-64 -109.5t-84.5 -74.5t-92 -43q73 0 107 -35.5t61 -118.5l168 -528h-153l-158 487q-22 68 -55.5 92.5t-106.5 24.5h-479v-604zM342 1300v-563h422q140 0 227.5 75t87.5 204q0 135 -86.5 209.5
t-228.5 74.5h-422z" />
    <glyph glyph-name="Racute.ss03" horiz-adv-x="1374" 
d="M735 1567h-123l109 256h184zM342 0h-143v1434h585q190 0 314.5 -112t124.5 -275q0 -73 -24.5 -138t-64 -109.5t-84.5 -74.5t-92 -43q73 0 107 -35.5t61 -118.5l168 -528h-153l-158 487q-22 68 -55.5 92.5t-106.5 24.5h-479v-604zM342 1300v-563h422q140 0 227.5 75
t87.5 204q0 135 -86.5 209.5t-228.5 74.5h-422z" />
    <glyph glyph-name="Rcaron.ss03" horiz-adv-x="1374" 
d="M1001 1823l-235 -256h-184l-236 256h139l189 -148l188 148h139zM1126 528l168 -528h-153l-158 487q-22 68 -55.5 92.5t-106.5 24.5h-479v-604h-143v1434h585q190 0 314.5 -112t124.5 -275q0 -73 -24.5 -138t-64 -109.5t-84.5 -74.5t-92 -43q73 0 107 -35.5t61 -118.5z
M342 737h422q140 0 227.5 75t87.5 204q0 135 -86.5 209.5t-228.5 74.5h-422v-563z" />
    <glyph glyph-name="uni0156.ss03" horiz-adv-x="1374" 
d="M342 0h-143v1434h585q190 0 314.5 -112t124.5 -275q0 -73 -24.5 -138t-64 -109.5t-84.5 -74.5t-92 -43q73 0 107 -35.5t61 -118.5l168 -528h-153l-158 487q-22 68 -55.5 92.5t-106.5 24.5h-479v-604zM342 1300v-563h422q140 0 227.5 75t87.5 204q0 135 -86.5 209.5
t-228.5 74.5h-422zM625 -512h-21v72h10q93 0 93 82v20h-62v154h133v-174q0 -70 -42.5 -112t-110.5 -42z" />
    <glyph glyph-name="a.ss01" horiz-adv-x="1198" 
d="M559 -20q-202 0 -329.5 144.5t-127.5 387.5t127.5 387.5t329.5 144.5q103 0 200 -50.5t142 -133.5v164h133v-1024h-133v164q-45 -83 -142 -133.5t-200 -50.5zM563 92h10q80 0 144 34.5t103.5 93t60 133.5t20.5 159t-20.5 159t-60 133.5t-103.5 93t-144 34.5h-10
q-106 0 -182 -60t-110.5 -153t-34.5 -207t34.5 -207t110.5 -153t182 -60z" />
    <glyph glyph-name="aacute.ss01" horiz-adv-x="1198" 
d="M639 1167h-100l116 267h164zM559 -20q-202 0 -329.5 144.5t-127.5 387.5t127.5 387.5t329.5 144.5q103 0 200 -50.5t142 -133.5v164h133v-1024h-133v164q-45 -83 -142 -133.5t-200 -50.5zM563 92h10q80 0 144 34.5t103.5 93t60 133.5t20.5 159t-20.5 159t-60 133.5
t-103.5 93t-144 34.5h-10q-106 0 -182 -60t-110.5 -153t-34.5 -207t34.5 -207t110.5 -153t182 -60z" />
    <glyph glyph-name="abreve.ss01" horiz-adv-x="1198" 
d="M590 1147q-127 0 -207 75.5t-80 211.5h103q7 -90 56 -136.5t128 -46.5t128 46.5t56 136.5h103q0 -136 -80 -211.5t-207 -75.5zM559 -20q-202 0 -329.5 144.5t-127.5 387.5t127.5 387.5t329.5 144.5q103 0 200 -50.5t142 -133.5v164h133v-1024h-133v164
q-45 -83 -142 -133.5t-200 -50.5zM563 92h10q80 0 144 34.5t103.5 93t60 133.5t20.5 159t-20.5 159t-60 133.5t-103.5 93t-144 34.5h-10q-106 0 -182 -60t-110.5 -153t-34.5 -207t34.5 -207t110.5 -153t182 -60z" />
    <glyph glyph-name="acircumflex.ss01" horiz-adv-x="1198" 
d="M795 1167l-205 154l-205 -154h-123l260 267h135l261 -267h-123zM901 860v164h133v-1024h-133v164q-45 -83 -142 -133.5t-200 -50.5q-202 0 -329.5 144.5t-127.5 387.5t127.5 387.5t329.5 144.5q103 0 200 -50.5t142 -133.5zM563 92h10q80 0 144 34.5t103.5 93t60 133.5
t20.5 159t-20.5 159t-60 133.5t-103.5 93t-144 34.5h-10q-106 0 -182 -60t-110.5 -153t-34.5 -207t34.5 -207t110.5 -153t182 -60z" />
    <glyph glyph-name="adieresis.ss01" horiz-adv-x="1198" 
d="M487 1208h-153v164h153v-164zM846 1208h-154v164h154v-164zM559 -20q-202 0 -329.5 144.5t-127.5 387.5t127.5 387.5t329.5 144.5q103 0 200 -50.5t142 -133.5v164h133v-1024h-133v164q-45 -83 -142 -133.5t-200 -50.5zM563 92h10q80 0 144 34.5t103.5 93t60 133.5
t20.5 159t-20.5 159t-60 133.5t-103.5 93t-144 34.5h-10q-106 0 -182 -60t-110.5 -153t-34.5 -207t34.5 -207t110.5 -153t182 -60z" />
    <glyph glyph-name="uni0227.ss01" horiz-adv-x="1198" 
d="M666 1208h-154v174h154v-174zM559 -20q-202 0 -329.5 144.5t-127.5 387.5t127.5 387.5t329.5 144.5q103 0 200 -50.5t142 -133.5v164h133v-1024h-133v164q-45 -83 -142 -133.5t-200 -50.5zM563 92h10q80 0 144 34.5t103.5 93t60 133.5t20.5 159t-20.5 159t-60 133.5
t-103.5 93t-144 34.5h-10q-106 0 -182 -60t-110.5 -153t-34.5 -207t34.5 -207t110.5 -153t182 -60z" />
    <glyph glyph-name="agrave.ss01" horiz-adv-x="1198" 
d="M639 1167h-100l-181 267h164zM559 -20q-202 0 -329.5 144.5t-127.5 387.5t127.5 387.5t329.5 144.5q103 0 200 -50.5t142 -133.5v164h133v-1024h-133v164q-45 -83 -142 -133.5t-200 -50.5zM563 92h10q80 0 144 34.5t103.5 93t60 133.5t20.5 159t-20.5 159t-60 133.5
t-103.5 93t-144 34.5h-10q-106 0 -182 -60t-110.5 -153t-34.5 -207t34.5 -207t110.5 -153t182 -60z" />
    <glyph glyph-name="amacron.ss01" horiz-adv-x="1198" 
d="M870 1208h-563v113h563v-113zM559 -20q-202 0 -329.5 144.5t-127.5 387.5t127.5 387.5t329.5 144.5q103 0 200 -50.5t142 -133.5v164h133v-1024h-133v164q-45 -83 -142 -133.5t-200 -50.5zM563 92h10q80 0 144 34.5t103.5 93t60 133.5t20.5 159t-20.5 159t-60 133.5
t-103.5 93t-144 34.5h-10q-106 0 -182 -60t-110.5 -153t-34.5 -207t34.5 -207t110.5 -153t182 -60z" />
    <glyph glyph-name="aogonek.ss01" horiz-adv-x="1198" 
d="M1034 1024v-1024q-182 -95 -182 -199q0 -88 104 -88h56v-112h-84q-93 0 -149 44t-56 130q0 139 178 235v154q-45 -83 -142 -133.5t-200 -50.5q-202 0 -329.5 144.5t-127.5 387.5t127.5 387.5t329.5 144.5q103 0 200 -50.5t142 -133.5v164h133zM563 92h10q80 0 144 34.5
t103.5 93t60 133.5t20.5 159t-20.5 159t-60 133.5t-103.5 93t-144 34.5h-10q-106 0 -182 -60t-110.5 -153t-34.5 -207t34.5 -207t110.5 -153t182 -60z" />
    <glyph glyph-name="aring.ss01" horiz-adv-x="1198" 
d="M590 1157q-69 0 -120.5 49.5t-51.5 122.5t51.5 122.5t120.5 49.5t120.5 -49.5t51.5 -122.5t-51.5 -122.5t-120.5 -49.5zM592 1237q37 0 62.5 27t25.5 65t-25.5 65t-62.5 27t-63.5 -27t-26.5 -65t26.5 -65t63.5 -27zM559 -20q-202 0 -329.5 144.5t-127.5 387.5
t127.5 387.5t329.5 144.5q103 0 200 -50.5t142 -133.5v164h133v-1024h-133v164q-45 -83 -142 -133.5t-200 -50.5zM563 92h10q80 0 144 34.5t103.5 93t60 133.5t20.5 159t-20.5 159t-60 133.5t-103.5 93t-144 34.5h-10q-106 0 -182 -60t-110.5 -153t-34.5 -207t34.5 -207
t110.5 -153t182 -60z" />
    <glyph glyph-name="atilde.ss01" horiz-adv-x="1198" 
d="M750 1147q-36 0 -71.5 16.5t-92.5 57.5l-66 47q-44 32 -82 32q-84 0 -84 -133h-102v47q0 85 50.5 142t129.5 57q72 0 131 -45l70 -51q6 -4 24.5 -18.5t27.5 -20t25.5 -12t32.5 -6.5q80 0 80 133h103v-47q0 -84 -51 -141.5t-125 -57.5zM559 -20q-202 0 -329.5 144.5
t-127.5 387.5t127.5 387.5t329.5 144.5q103 0 200 -50.5t142 -133.5v164h133v-1024h-133v164q-45 -83 -142 -133.5t-200 -50.5zM563 92h10q80 0 144 34.5t103.5 93t60 133.5t20.5 159t-20.5 159t-60 133.5t-103.5 93t-144 34.5h-10q-106 0 -182 -60t-110.5 -153t-34.5 -207
t34.5 -207t110.5 -153t182 -60z" />
    <glyph glyph-name="i.loclTRK" horiz-adv-x="460" 
d="M307 1208h-153v174h153v-174zM297 0h-133v1024h133v-1024z" />
    <glyph glyph-name="y.ss04" horiz-adv-x="1048" 
d="M547 215l334 809h139l-469 -1139q-46 -108 -100.5 -155t-145.5 -47h-233v112h207q62 0 93.5 37t73.5 137l35 86l-450 969h145z" />
    <glyph glyph-name="yacute.ss04" horiz-adv-x="1048" 
d="M594 1434h164l-180 -267h-101zM547 215l334 809h139l-469 -1139q-46 -108 -100.5 -155t-145.5 -47h-233v112h207q62 0 93.5 37t73.5 137l35 86l-450 969h145z" />
    <glyph glyph-name="ycircumflex.ss04" horiz-adv-x="1048" 
d="M733 1167l-205 154l-204 -154h-123l260 267h135l260 -267h-123zM547 215l334 809h139l-469 -1139q-46 -108 -100.5 -155t-145.5 -47h-233v112h207q62 0 93.5 37t73.5 137l35 86l-450 969h145z" />
    <glyph glyph-name="ydieresis.ss04" horiz-adv-x="1048" 
d="M272 1372h154v-164h-154v164zM631 1372h153v-164h-153v164zM547 215l334 809h139l-469 -1139q-46 -108 -100.5 -155t-145.5 -47h-233v112h207q62 0 93.5 37t73.5 137l35 86l-450 969h145z" />
    <glyph glyph-name="ygrave.ss04" horiz-adv-x="1048" 
d="M461 1434l117 -267h-101l-180 267h164zM547 215l334 809h139l-469 -1139q-46 -108 -100.5 -155t-145.5 -47h-233v112h207q62 0 93.5 37t73.5 137l35 86l-450 969h145z" />
    <glyph glyph-name="uni0233.ss04" horiz-adv-x="1048" 
d="M246 1321h563v-113h-563v113zM547 215l334 809h139l-469 -1139q-46 -108 -100.5 -155t-145.5 -47h-233v112h207q62 0 93.5 37t73.5 137l35 86l-450 969h145z" />
    <glyph glyph-name="I_S_B_N" horiz-adv-x="4560" 
d="M3475 0h-143v922q0 244 135 388t387 144q258 0 390.5 -143t132.5 -389v-922h-144v901q0 199 -94.5 309.5t-273.5 110.5h-21q-179 0 -274 -110.5t-95 -309.5v-901zM1192 0h-993v1434h143v-1301h881q169 0 253.5 68t84.5 188q0 112 -81.5 174.5t-226.5 91.5l-204 41
q-74 15 -129 38.5t-102 63t-72 101.5t-25 145q0 177 134.5 283.5t356.5 106.5h1387q166 0 275.5 -101.5t109.5 -273.5q0 -119 -67.5 -212t-161.5 -120q98 -6 179 -100t81 -232q0 -180 -117.5 -287.5t-294.5 -107.5h-612v793h583q119 0 193 67t74 187t-74 186.5t-193 66.5
h-1372q-158 0 -248 -64.5t-90 -180.5q0 -102 56.5 -152.5t160.5 -71.5l205 -40q86 -17 156.5 -45.5t131.5 -73t95.5 -111.5t34.5 -151q0 -186 -128.5 -298t-383.5 -112zM2134 659v-526h438q135 0 217 68.5t82 195.5t-81 194.5t-216 67.5h-440z" />
    <glyph glyph-name="ordfeminine.ss01" horiz-adv-x="745" 
d="M336 840q-111 0 -172.5 86.5t-61.5 216.5q0 129 64.5 215t177.5 86q65 0 114.5 -30t65.5 -64v84h109v-584h-109v82q-73 -92 -188 -92zM369 932q72 0 111.5 58.5t39.5 152.5q0 93 -39.5 151t-111.5 58t-113 -58t-41 -151t41 -152t113 -59z" />
    <glyph glyph-name="a.sups" horiz-adv-x="645" 
d="M244 840q-76 0 -125 47t-49 127q0 84 48.5 130t129.5 56l184 21v18q0 51 -34 82t-83 31h-6q-46 0 -82.5 -28.5t-36.5 -76.5h-112q4 93 72.5 145t164.5 52q95 0 162.5 -56.5t67.5 -152.5v-258q0 -84 6 -127h-102q-11 60 -11 102q-21 -55 -73 -83.5t-121 -28.5zM274 932h7
q64 0 107 37.5t44 105.5v66l-151 -17q-42 -5 -70.5 -31.5t-28.5 -70.5q0 -43 26 -66.5t66 -23.5z" />
    <glyph glyph-name="a.sups.ss01" horiz-adv-x="706" 
d="M346 840q-111 0 -172 86.5t-61 216.5q0 129 64 215t177 86q65 0 115 -30t66 -64v84h108v-584h-108v82q-73 -92 -189 -92zM379 932q72 0 111.5 58.5t39.5 152.5q0 93 -39.5 151t-111.5 58t-113 -58t-41 -151t41 -152t113 -59z" />
    <glyph glyph-name="b.sups" horiz-adv-x="712" 
d="M403 840q-116 0 -178 98v-88h-116v809h116v-307q24 43 73 67.5t103 24.5q113 0 178.5 -85.5t65.5 -213.5q0 -129 -64.5 -217t-177.5 -88zM377 932q71 0 111 59.5t40 153.5q0 93 -39.5 150t-111.5 57t-111 -57.5t-39 -151.5t39.5 -152.5t110.5 -58.5z" />
    <glyph glyph-name="c.sups" horiz-adv-x="643" 
d="M332 840q-122 0 -193 75.5t-71 219.5q0 145 73.5 227t194.5 82q97 0 168 -55t78 -148h-119q-6 51 -41 81t-82 30h-6q-75 0 -112.5 -62t-37.5 -155q0 -91 37 -147t113 -56h6q46 0 79 29t42 79h117q-10 -96 -79.5 -148t-166.5 -52z" />
    <glyph glyph-name="d.sups" horiz-adv-x="712" 
d="M303 840q-112 0 -173.5 85.5t-61.5 215.5q0 129 65 216t178 87q54 0 103 -25.5t73 -68.5v309h117v-809h-117v86q-65 -96 -184 -96zM336 932q71 0 110 57.5t39 151.5t-39 152.5t-110 58.5q-72 0 -112 -58.5t-40 -152.5q0 -93 40 -151t112 -58z" />
    <glyph glyph-name="e.sups" horiz-adv-x="655" 
d="M336 840q-123 0 -196.5 81t-73.5 207q0 138 74.5 227t197.5 89q117 0 184.5 -85t67.5 -218q0 -27 -2 -41h-418q7 -79 51 -123.5t115 -44.5h10q44 0 82 25.5t51 70.5h96q-12 -92 -78 -140t-161 -48zM172 1188h311q-5 67 -40 115.5t-101 48.5h-10q-65 0 -107 -44t-53 -120z
" />
    <glyph glyph-name="f.sups" horiz-adv-x="421" 
d="M254 850h-117v496h-110v88h110v73q0 68 38.5 110t107.5 42h159v-84h-120q-37 0 -52.5 -17.5t-15.5 -58.5v-65h143v-88h-143v-496z" />
    <glyph glyph-name="g.sups" horiz-adv-x="702" 
d="M322 604q-113 0 -178 49.5t-70 137.5h112q14 -48 46 -71.5t94 -23.5h6q74 0 112.5 37.5t38.5 126.5v76q-21 -37 -68 -66.5t-114 -29.5q-106 0 -169.5 88t-63.5 215q0 129 64 215t179 86q51 0 97 -20.5t75 -57.5v68h111v-590q0 -114 -66 -177t-206 -63zM334 932
q72 0 111.5 58.5t39.5 152.5q0 93 -39.5 151t-111.5 58q-73 0 -114.5 -58t-41.5 -151t41.5 -152t114.5 -59z" />
    <glyph glyph-name="h.sups" horiz-adv-x="714" 
d="M225 850h-116v809h116v-316q66 101 191 101q94 0 146 -61.5t52 -159.5v-373h-116v352q0 70 -32.5 110t-84.5 40h-12q-59 0 -101.5 -53t-42.5 -128v-321z" />
    <glyph glyph-name="i.sups" horiz-adv-x="329" 
d="M227 1530h-125v129h125v-129zM221 850h-112v584h112v-584z" />
    <glyph glyph-name="j.sups" horiz-adv-x="329" 
d="M227 1530h-125v129h125v-129zM74 614h-140v97h111q35 0 49.5 15t14.5 52v656h112v-672q0 -65 -38.5 -106.5t-108.5 -41.5z" />
    <glyph glyph-name="k.sups" horiz-adv-x="665" 
d="M631 850h-135l-177 270l-98 -106v-164h-112v809h112v-504l248 279h145l-221 -236z" />
    <glyph glyph-name="l.sups" horiz-adv-x="329" 
d="M221 850h-112v809h112v-809z" />
    <glyph glyph-name="m.sups" horiz-adv-x="1079" 
d="M225 850h-116v584h116v-95q18 43 67.5 74t110.5 31q136 0 181 -121q65 121 198 121q96 0 146.5 -62.5t50.5 -169.5v-362h-117v352q0 72 -28 111t-82 39h-7q-60 0 -101.5 -54.5t-41.5 -126.5v-321h-117v352q0 72 -28 111t-82 39h-6q-65 0 -104.5 -53.5t-39.5 -131.5v-317z
" />
    <glyph glyph-name="n.sups" horiz-adv-x="714" 
d="M225 850h-116v584h116v-91q67 101 193 101q93 0 144.5 -61.5t51.5 -159.5v-373h-116v352q0 72 -31.5 111t-85.5 39h-12q-59 0 -101.5 -53t-42.5 -128v-321z" />
    <glyph glyph-name="o.sups" horiz-adv-x="667" 
d="M334 840q-123 0 -195.5 81.5t-72.5 219.5t72.5 220.5t195.5 82.5t195.5 -82.5t72.5 -220.5t-72.5 -219.5t-195.5 -81.5zM330 932h10q67 0 106 58t39 151t-40 152t-107 59h-8q-67 0 -107.5 -59.5t-40.5 -151.5t40.5 -150.5t107.5 -58.5z" />
    <glyph glyph-name="p.sups" horiz-adv-x="712" 
d="M225 625h-116v809h116v-88q65 98 185 98q112 0 173.5 -86.5t61.5 -216.5q0 -128 -65.5 -214.5t-178.5 -86.5q-55 0 -103.5 23.5t-72.5 66.5v-305zM377 932q72 0 111.5 58t39.5 151q0 94 -39.5 152.5t-111.5 58.5q-71 0 -110.5 -60.5t-39.5 -154.5q0 -93 39 -149t111 -56z
" />
    <glyph glyph-name="q.sups" horiz-adv-x="712" 
d="M604 625h-117v305q-24 -43 -72.5 -66.5t-103.5 -23.5q-113 0 -178 85.5t-65 213.5q0 131 63.5 218t183.5 87q43 0 94.5 -25t77.5 -69v84h117v-809zM336 932q72 0 110.5 56t38.5 149q0 95 -39 155t-110 60t-111.5 -59.5t-40.5 -153.5q0 -93 40 -150t112 -57z" />
    <glyph glyph-name="r.sups" horiz-adv-x="448" 
d="M221 850h-112v584h112v-117q22 60 71 93.5t116 33.5h16v-105h-33q-88 0 -129 -60.5t-41 -152.5v-276z" />
    <glyph glyph-name="s.sups" horiz-adv-x="616" 
d="M309 840q-117 0 -181.5 52.5t-64.5 147.5h113q0 -51 34 -79.5t95 -28.5h12q53 0 87 19.5t34 56.5q0 59 -94 79l-98 21q-81 16 -124.5 52.5t-43.5 105.5q0 83 62.5 130.5t168.5 47.5t169 -53t63 -144h-113q0 49 -33 77t-84 28h-12q-51 0 -81 -20t-30 -54q0 -32 21 -47
t82 -27l82 -16q87 -17 131.5 -61t44.5 -109q0 -84 -65.5 -131t-174.5 -47z" />
    <glyph glyph-name="t.sups" horiz-adv-x="462" 
d="M416 850h-140q-71 0 -109 40t-38 103v353h-113v88h113v184h115v-184h159v-88h-159v-324q0 -40 17.5 -60t62.5 -20h92v-92z" />
    <glyph glyph-name="u.sups" horiz-adv-x="708" 
d="M295 840q-93 0 -144 61.5t-51 159.5v373h117v-353q0 -70 31 -109.5t80 -39.5h12q59 0 101 52.5t42 127.5v322h117v-584h-117v102q-17 -45 -66.5 -78.5t-121.5 -33.5z" />
    <glyph glyph-name="v.sups" horiz-adv-x="610" 
d="M307 977l170 457h111l-221 -584h-123l-221 584h114z" />
    <glyph glyph-name="w.sups" horiz-adv-x="937" 
d="M653 985l135 449h107l-184 -584h-103l-139 459l-133 -459h-103l-196 584h115l131 -437l133 437h116z" />
    <glyph glyph-name="x.sups" horiz-adv-x="630" 
d="M170 850h-127l211 291l-207 293h129l141 -205l144 205h125l-209 -289l211 -295h-131l-142 205z" />
    <glyph glyph-name="y.sups" horiz-adv-x="624" 
d="M219 614h-153v97h122q62 0 62 63v127l-240 533h121l178 -420l187 420h120l-249 -533v-143q0 -62 -40.5 -103t-107.5 -41z" />
    <glyph glyph-name="y.sups.ss04" horiz-adv-x="622" 
d="M154 614h-129v97h102q28 0 44.5 15t35.5 56l47 107l-246 545h121l182 -416l183 416h120l-301 -672q-21 -45 -31 -64.5t-29 -43t-42 -32t-57 -8.5z" />
    <glyph glyph-name="z.sups" horiz-adv-x="591" 
d="M530 850h-467v63l310 428h-303v93h440v-80l-303 -408h323v-96z" />
    <glyph glyph-name="zero.zero" horiz-adv-x="1327" 
d="M664 1454q259 0 400.5 -189.5t141.5 -547.5t-141.5 -547.5t-400.5 -189.5t-401 189.5t-142 547.5t142 547.5t401 189.5zM674 1321h-21q-55 0 -107 -16.5t-105 -60t-92.5 -109.5t-64 -173.5t-24.5 -244.5q0 -168 37 -297l672 731q-56 89 -134.5 129.5t-160.5 40.5z
M653 113h21q55 0 107 16.5t105 60t92.5 109.5t64 173.5t24.5 244.5q0 168 -37 297l-672 -731q56 -89 134.5 -129.5t160.5 -40.5z" />
    <glyph glyph-name="zero.osf" horiz-adv-x="1265" 
d="M633 -20q-141 0 -260 66t-190.5 189t-71.5 277t71.5 277t190.5 189t260 66t260 -66t190.5 -189t71.5 -277t-71.5 -277t-190.5 -189t-260 -66zM629 92h14q70 0 137 28.5t121.5 80.5t87.5 133t33 178t-33 178t-87.5 133t-121.5 80.5t-137 28.5h-20q-70 0 -137 -28.5
t-121.5 -80.5t-87.5 -133t-33 -178t34 -178t89.5 -133t123.5 -80.5t138 -28.5z" />
    <glyph glyph-name="one.osf" horiz-adv-x="747" 
d="M82 655l377 369h102v-1024h-129v834l-350 -336v157z" />
    <glyph glyph-name="two.osf" horiz-adv-x="948" 
d="M653 442l-407 -323h569v-119h-694v166l450 362q80 64 105.5 113t25.5 107q0 76 -60 130t-140 54h-19q-96 0 -157.5 -53.5t-71.5 -169.5h-133q7 162 108 248.5t265 86.5q149 0 245.5 -85.5t96.5 -210.5q0 -88 -43 -159t-140 -147z" />
    <glyph glyph-name="three.osf" horiz-adv-x="1161" 
d="M573 -430q-203 0 -333 100.5t-148 284.5h133q17 -129 108 -200.5t228 -71.5h21q138 0 233.5 77t95.5 211q0 125 -87 203t-220 78h-112v113h112q134 0 215.5 76t81.5 200q0 135 -90.5 213t-226.5 78h-21q-129 0 -214 -76.5t-97 -200.5h-133q9 172 136.5 280.5t319.5 108.5
q129 0 232.5 -46t165 -136.5t61.5 -210.5q0 -123 -65.5 -211.5t-171.5 -126.5q108 -32 177.5 -122t69.5 -220q0 -186 -133 -293.5t-338 -107.5z" />
    <glyph glyph-name="four.osf" horiz-adv-x="1183" 
d="M893 -410h-129v410h-690v145l667 879h152v-911h235v-113h-235v-410zM764 862l-565 -749h565v749z" />
    <glyph glyph-name="five.osf" horiz-adv-x="1138" 
d="M600 487q196 0 316 -124t120 -312q0 -212 -137.5 -346.5t-343.5 -134.5q-197 0 -331 101t-154 288h135q18 -131 112 -203.5t228 -72.5h20q149 0 243.5 101.5t94.5 256.5q0 147 -87 240.5t-226 93.5h-21q-95 0 -175.5 -49t-139.5 -142h-133l174 840h727v-119h-621
l-118 -557q117 139 317 139z" />
    <glyph glyph-name="six.osf" horiz-adv-x="1241" 
d="M668 942q196 0 320 -132.5t124 -332.5q0 -225 -136 -361t-339 -136q-250 0 -384 176t-134 524q0 226 71 402.5t199.5 274t292.5 97.5q184 0 304.5 -94t152.5 -264h-133q-25 109 -113.5 177t-202.5 68h-20q-180 0 -300 -181t-130 -472q59 126 175 190t253 64zM629 92h20
q146 0 238 101.5t92 267.5t-86.5 267t-230.5 101h-21q-161 0 -259.5 -100t-98.5 -266q0 -169 93 -270t253 -101z" />
    <glyph glyph-name="seven.osf" horiz-adv-x="1042" 
d="M37 905v119h952v-133q-287 -174 -422 -472.5t-135 -787.5v-41h-133v60q0 913 524 1255h-786z" />
    <glyph glyph-name="eight.osf" horiz-adv-x="1155" 
d="M811 702q89 -46 142 -134t53 -189q0 -184 -118 -291.5t-310 -107.5q-191 0 -309.5 108t-118.5 291q0 100 52.5 189t141.5 134q-109 46 -166 138.5t-57 208.5q0 180 127 292.5t330 112.5t329.5 -112.5t126.5 -292.5q0 -116 -56.5 -207.5t-166.5 -139.5zM256 1047
q0 -125 86.5 -203t224.5 -78h21q138 0 224.5 78t86.5 203q0 134 -86 214t-225 80h-21q-139 0 -225 -80t-86 -214zM567 92h21q126 0 205 79t79 206q0 121 -78.5 193.5t-205.5 72.5h-21q-127 0 -205.5 -72.5t-78.5 -193.5q0 -127 79 -206t205 -79z" />
    <glyph glyph-name="nine.osf" horiz-adv-x="1216" 
d="M590 1044q250 0 384 -176t134 -524q0 -226 -71 -402.5t-199.5 -274t-292.5 -97.5q-184 0 -304.5 94t-152.5 264h133q25 -109 113.5 -177t202.5 -68h20q180 0 300 181t130 472q-59 -126 -175 -190t-253 -64q-196 0 -320 132.5t-124 332.5q0 225 136 361t339 136zM565 195
h21q161 0 259.5 100t98.5 266q0 169 -93 270t-253 101h-20q-146 0 -238 -101.5t-92 -267.5t86.5 -267t230.5 -101z" />
    <glyph glyph-name="zero.osf.zero" horiz-adv-x="1265" 
d="M633 1044q141 0 260 -66t190.5 -189t71.5 -277t-71.5 -277t-190.5 -189t-260 -66t-260 66t-190.5 189t-71.5 277t71.5 277t190.5 189t260 66zM244 512q0 -142 73 -252l551 592q-103 80 -225 80h-20q-70 0 -137 -28.5t-121.5 -80.5t-87.5 -133t-33 -178zM629 92h14
q70 0 137 28.5t121.5 80.5t87.5 133t33 178q0 141 -72 252l-551 -592q107 -80 230 -80z" />
    <glyph glyph-name="zero.tf" 
d="M614 -20q-249 0 -385.5 189.5t-136.5 547.5t136.5 547.5t385.5 189.5q251 0 388 -189.5t137 -547.5t-137 -547.5t-388 -189.5zM604 113h21q53 0 102.5 16.5t100 60t87.5 109.5t60.5 173.5t23.5 244.5t-23.5 244.5t-60.5 173.5t-87.5 109.5t-100 60t-102.5 16.5h-21
q-53 0 -102 -16.5t-99.5 -60t-87.5 -109.5t-60.5 -173.5t-23.5 -244.5t23.5 -244.5t60.5 -173.5t87.5 -109.5t99.5 -60t102 -16.5z" />
    <glyph glyph-name="one.tf" 
d="M739 1434v-1301h391v-133h-1003v133h479v1096l-346 -328v168l375 365h104z" />
    <glyph glyph-name="two.tf" 
d="M846 662l-522 -525h753v-137h-927v143l575 584q120 122 156.5 188t36.5 158q0 101 -84 174.5t-205 73.5h-21q-137 0 -219.5 -83t-85.5 -222h-139q2 194 126.5 316t323.5 122q195 0 319 -108t124 -273q0 -121 -52 -212.5t-159 -198.5z" />
    <glyph glyph-name="three.tf" 
d="M602 -20q-206 0 -326.5 100t-142.5 285h139q23 -120 106.5 -186t213.5 -66h20q137 0 229.5 73t92.5 201q0 120 -88.5 191t-222.5 71h-93v133h111q127 0 205 75.5t78 186.5q0 127 -88 202t-222 75h-20q-121 0 -202.5 -72.5t-92.5 -183.5h-139q9 168 133.5 278.5
t310.5 110.5q130 0 232.5 -44t164.5 -134.5t62 -214.5q0 -115 -67 -208t-169 -136q106 -35 176 -122.5t70 -213.5q0 -97 -39 -174.5t-104.5 -126t-149.5 -74.5t-178 -26z" />
    <glyph glyph-name="four.tf" 
d="M924 0h-133v346h-715v131l704 957h144v-959h217v-129h-217v-346zM791 1241l-558 -766h558v766z" />
    <glyph glyph-name="five.tf" 
d="M598 -20q-128 0 -233 43t-173.5 132.5t-78.5 213.5h139q17 -122 110 -189t226 -67h20q146 0 239 96t93 242q0 138 -86.5 225.5t-222.5 87.5h-21q-85 0 -171 -43t-136 -121h-137l172 834h727v-138h-612l-111 -512q113 113 299 113q196 0 317 -124t121 -312
q0 -210 -138 -345.5t-343 -135.5z" />
    <glyph glyph-name="six.tf" 
d="M645 942q203 0 333 -130.5t130 -332.5q0 -226 -134.5 -362.5t-338.5 -136.5q-247 0 -384.5 187t-137.5 513q0 226 72 402.5t201.5 274t293.5 97.5q179 0 296.5 -94t151.5 -264h-139q-26 101 -108.5 163t-190.5 62h-20q-180 0 -300.5 -176.5t-133.5 -460.5q51 128 164 193
t245 65zM623 113h20q140 0 233 99t93 249q0 152 -89.5 250t-236.5 98h-20q-146 0 -243 -98.5t-97 -247.5q0 -151 97 -250.5t243 -99.5z" />
    <glyph glyph-name="seven.tf" 
d="M113 1294v140h983v-164q-280 -170 -413.5 -466.5t-133.5 -762.5v-41h-139v59q0 456 141.5 773t396.5 462h-835z" />
    <glyph glyph-name="eight.tf" 
d="M614 -20q-190 0 -309 104.5t-119 275.5q0 126 71 216t171 124q-109 33 -189.5 131.5t-80.5 223.5q0 179 126.5 289t329.5 110t330 -110t127 -289q0 -125 -80.5 -223.5t-189.5 -131.5q100 -34 170.5 -123.5t70.5 -216.5q0 -171 -119 -275.5t-309 -104.5zM604 776h21
q129 0 218 77.5t89 190.5q0 121 -87 199t-220 78h-21q-133 0 -220 -78t-87 -199q0 -113 89 -190.5t218 -77.5zM604 113h21q121 0 200.5 72.5t79.5 185.5q0 110 -80.5 186t-199.5 76h-21q-119 0 -199.5 -76t-80.5 -186q0 -113 79.5 -185.5t200.5 -72.5z" />
    <glyph glyph-name="nine.tf" 
d="M594 1454q247 0 384.5 -187t137.5 -513q0 -226 -72 -402.5t-201.5 -274t-293.5 -97.5q-179 0 -297 94t-152 264h140q26 -101 109 -163t190 -62h20q180 0 300.5 176.5t133.5 460.5q-51 -128 -164 -193t-245 -65q-203 0 -333 130t-130 332q0 226 134.5 363t338.5 137z
M586 625h20q146 0 243 98.5t97 247.5q0 151 -97 250.5t-243 99.5h-20q-140 0 -233 -99t-93 -249q0 -152 89.5 -250t236.5 -98z" />
    <glyph glyph-name="zero.tf.zero" 
d="M614 1454q251 0 388 -189.5t137 -547.5t-137 -547.5t-388 -189.5q-249 0 -385.5 189.5t-136.5 547.5t136.5 547.5t385.5 189.5zM625 1321h-21q-53 0 -102 -16.5t-99.5 -60t-87.5 -109.5t-60.5 -173.5t-23.5 -244.5q0 -158 33 -283l645 709q-53 93 -128.5 135.5
t-155.5 42.5zM604 113h21q53 0 102.5 16.5t100 60t87.5 109.5t60.5 173.5t23.5 244.5q0 159 -32 284l-648 -710q53 -93 129 -135.5t156 -42.5z" />
    <glyph glyph-name="zero.subs" horiz-adv-x="823" 
d="M412 -246q-154 0 -243 112.5t-89 301.5t89 302.5t243 113.5t242.5 -113.5t88.5 -302.5t-88.5 -301.5t-242.5 -112.5zM408 -143h8q66 0 113.5 46.5t68 115t20.5 149.5t-20.5 150t-68 116t-113.5 47h-8q-66 0 -113.5 -47t-68.5 -116t-21 -150t21 -149.5t68.5 -115
t113.5 -46.5z" />
    <glyph glyph-name="one.subs" horiz-adv-x="528" 
d="M401 -236h-116v656l-240 -193v121l279 225h77v-809z" />
    <glyph glyph-name="two.subs" horiz-adv-x="702" 
d="M623 -236h-545v140l258 225q96 84 124.5 123t28.5 96q0 59 -38 96t-95 37h-10q-51 0 -95 -38.5t-44 -102.5h-125q0 110 80 177t192 67q114 0 187 -63t73 -173q0 -36 -10 -68.5t-22 -55t-38.5 -51.5t-41.5 -43t-49 -44l-252 -219h422v-103z" />
    <glyph glyph-name="three.subs" horiz-adv-x="716" 
d="M346 -246q-114 0 -194 62.5t-80 171.5h125q3 -60 42 -95.5t101 -35.5h10q67 0 111.5 38t44.5 103q0 60 -39 93.5t-98 33.5h-90v96h94q58 0 92.5 32.5t34.5 92.5q0 66 -39 100.5t-105 34.5h-10q-61 0 -97.5 -33.5t-39.5 -89.5h-125q0 107 79 166.5t193 59.5q113 0 191 -60
t78 -166q0 -63 -30.5 -112t-82.5 -74q57 -23 88 -72t31 -114q0 -105 -85.5 -168.5t-199.5 -63.5z" />
    <glyph glyph-name="four.subs" horiz-adv-x="714" 
d="M541 -236h-115v197h-379v115l367 497h127v-510h110v-102h-110v-197zM426 424l-260 -361h260v361z" />
    <glyph glyph-name="five.subs" horiz-adv-x="700" 
d="M342 -246q-124 0 -200 59t-85 169h125q7 -61 51.5 -93t106.5 -32h8q65 0 107.5 45.5t42.5 117.5q0 70 -41 110t-107 40h-6q-88 0 -145 -70h-109l92 473h428v-102h-338l-53 -256q60 57 152 57q114 0 183 -69t69 -178q0 -123 -80.5 -197t-200.5 -74z" />
    <glyph glyph-name="six.subs" horiz-adv-x="757" 
d="M377 -246q-139 0 -218 103.5t-79 287.5q0 199 94 319t236 120q129 0 200.5 -69t71.5 -157h-121q-11 55 -50 88t-97 33h-13q-82 0 -141.5 -77t-69.5 -209q25 51 85 82.5t135 31.5q107 0 183.5 -72.5t76.5 -191.5q0 -126 -79 -207.5t-214 -81.5zM377 -143h6
q71 0 118.5 49.5t47.5 124.5q0 76 -45.5 125t-116.5 49h-6q-71 0 -117.5 -49t-46.5 -125q0 -75 45 -124.5t115 -49.5z" />
    <glyph glyph-name="seven.subs" horiz-adv-x="616" 
d="M299 -236h-125v74q0 117 24 219.5t66.5 180t94 134.5t112.5 99h-434v102h545v-108q-283 -235 -283 -627v-74z" />
    <glyph glyph-name="eight.subs" horiz-adv-x="737" 
d="M365 -246q-113 0 -192 57.5t-79 159.5q0 66 37 114.5t100 76.5q-66 28 -107.5 79t-41.5 117q0 105 80 165.5t207 60.5t207.5 -60.5t80.5 -165.5q0 -67 -41 -118t-108 -78q60 -28 94.5 -76.5t34.5 -114.5q0 -102 -79.5 -159.5t-192.5 -57.5zM360 219h11q66 0 113.5 34
t47.5 95q0 63 -45 98t-112 35h-10q-67 0 -112.5 -35t-45.5 -98q0 -61 45 -95t108 -34zM360 -143h11q60 0 100.5 35.5t40.5 97.5q0 58 -41 94.5t-100 36.5h-11q-59 0 -100 -36.5t-41 -94.5q0 -62 40.5 -97.5t100.5 -35.5z" />
    <glyph glyph-name="nine.subs" horiz-adv-x="759" 
d="M350 -246q-129 0 -200.5 69t-71.5 157h121q11 -55 50 -88t97 -33h12q82 0 141.5 77t69.5 209q-25 -51 -84.5 -82.5t-134.5 -31.5q-107 0 -183.5 72.5t-76.5 191.5q0 126 79 207.5t214 81.5q139 0 218 -103.5t79 -287.5q0 -199 -94 -319t-236 -120zM373 133h6
q71 0 117.5 49t46.5 125q0 75 -45 124.5t-115 49.5h-6q-71 0 -118.5 -49.5t-47.5 -124.5q0 -76 45.5 -125t116.5 -49z" />
    <glyph glyph-name="zero.subs.zero" horiz-adv-x="823" 
d="M412 584q154 0 242.5 -113.5t88.5 -302.5t-88.5 -301.5t-242.5 -112.5t-243 112.5t-89 301.5t89 302.5t243 113.5zM416 481h-8q-66 0 -113.5 -47t-68.5 -116t-21 -150q0 -63 16 -129l336 362q-54 80 -141 80zM408 -143h8q66 0 113.5 46.5t68 115t20.5 149.5q0 65 -16 131
l-336 -362q54 -80 142 -80z" />
    <glyph glyph-name="zero.dnom" horiz-adv-x="823" 
d="M412 -10q-154 0 -243 112t-89 301t89 302.5t243 113.5t242.5 -113.5t88.5 -302.5t-88.5 -301t-242.5 -112zM408 92h8q66 0 113.5 46.5t68 115t20.5 149.5t-20.5 150t-68 116.5t-113.5 47.5h-8q-66 0 -113.5 -47.5t-68.5 -116.5t-21 -150t21 -149.5t68.5 -115t113.5 -46.5
z" />
    <glyph glyph-name="one.dnom" horiz-adv-x="528" 
d="M401 0h-116v655l-240 -192v121l279 225h77v-809z" />
    <glyph glyph-name="two.dnom" horiz-adv-x="702" 
d="M625 0h-545v139l258 226q97 85 125.5 123.5t28.5 95.5q0 59 -38.5 96t-95.5 37h-10q-51 0 -95 -39t-44 -103h-125q0 110 80 177t192 67q114 0 187 -62.5t73 -172.5q0 -36 -10 -68.5t-22 -55t-38.5 -51.5t-41.5 -43t-49 -44l-252 -220h422v-102z" />
    <glyph glyph-name="three.dnom" horiz-adv-x="716" 
d="M346 -10q-114 0 -194 62t-80 171h125q3 -60 42 -95.5t101 -35.5h10q67 0 111.5 38t44.5 103q0 60 -39 93.5t-98 33.5h-90v97h94q58 0 92.5 32.5t34.5 92.5q0 66 -39 100.5t-105 34.5h-10q-61 0 -97.5 -33.5t-39.5 -89.5h-125q0 107 79 166t193 59q113 0 191 -59.5
t78 -165.5q0 -63 -30.5 -112t-82.5 -74q57 -23 88 -72.5t31 -114.5q0 -105 -85.5 -168t-199.5 -63z" />
    <glyph glyph-name="four.dnom" horiz-adv-x="714" 
d="M541 0h-115v197h-379v114l367 498h127v-510h110v-102h-110v-197zM426 659l-260 -360h260v360z" />
    <glyph glyph-name="five.dnom" horiz-adv-x="700" 
d="M342 -10q-124 0 -200 58.5t-85 168.5h125q7 -61 51.5 -93t106.5 -32h8q65 0 107.5 46t42.5 118q0 70 -41 110t-107 40h-6q-88 0 -145 -70h-109l92 473h428v-102h-338l-53 -256q60 57 152 57q114 0 183 -69.5t69 -178.5q0 -123 -80.5 -196.5t-200.5 -73.5z" />
    <glyph glyph-name="six.dnom" horiz-adv-x="757" 
d="M377 -10q-139 0 -218 103.5t-79 287.5q0 199 94 318.5t236 119.5q129 0 200.5 -68.5t71.5 -156.5h-121q-11 55 -50 88t-97 33h-13q-82 0 -141.5 -77.5t-69.5 -209.5q25 51 85.5 83t134.5 32q107 0 183.5 -72.5t76.5 -191.5q0 -126 -79 -207.5t-214 -81.5zM377 92h6
q71 0 118.5 49.5t47.5 124.5q0 76 -45.5 125t-116.5 49h-6q-71 0 -117.5 -49t-46.5 -125q0 -75 45 -124.5t115 -49.5z" />
    <glyph glyph-name="seven.dnom" horiz-adv-x="616" 
d="M299 0h-125v74q0 117 24 219.5t66.5 180t94 134.5t112.5 99h-434v102h545v-109q-283 -235 -283 -626v-74z" />
    <glyph glyph-name="eight.dnom" horiz-adv-x="737" 
d="M365 -10q-113 0 -192 57.5t-79 159.5q0 130 137 190q-66 28 -107.5 79.5t-41.5 117.5q0 105 79.5 165t207.5 60t208 -60t80 -165q0 -67 -41 -118.5t-108 -78.5q129 -59 129 -190q0 -102 -79.5 -159.5t-192.5 -57.5zM360 455h11q66 0 113.5 34t47.5 95q0 63 -45 98
t-112 35h-10q-67 0 -112.5 -35t-45.5 -98q0 -61 45 -95t108 -34zM360 92h11q60 0 100.5 35.5t40.5 97.5q0 58 -41 94.5t-100 36.5h-11q-59 0 -100 -36.5t-41 -94.5q0 -62 40.5 -97.5t100.5 -35.5z" />
    <glyph glyph-name="nine.dnom" horiz-adv-x="759" 
d="M350 -10q-129 0 -200.5 68.5t-71.5 156.5h121q11 -55 50 -88t97 -33h12q82 0 141.5 77.5t69.5 209.5q-25 -51 -85 -83t-134 -32q-107 0 -183.5 72.5t-76.5 191.5q0 126 79 207.5t214 81.5q139 0 218 -103.5t79 -287.5q0 -199 -94 -318.5t-236 -119.5zM373 369h6
q71 0 117.5 49t46.5 125q0 75 -45 124.5t-115 49.5h-6q-71 0 -118.5 -49.5t-47.5 -124.5q0 -76 45.5 -125t116.5 -49z" />
    <glyph glyph-name="zero.dnom.zero" horiz-adv-x="823" 
d="M412 819q154 0 242.5 -113.5t88.5 -302.5t-88.5 -301t-242.5 -112t-243 112t-89 301t89 302.5t243 113.5zM416 717h-8q-66 0 -113.5 -47.5t-68.5 -116.5t-21 -150q0 -63 16 -129l336 363q-54 80 -141 80zM408 92h8q66 0 113.5 46.5t68 115t20.5 149.5q0 66 -16 132
l-336 -363q54 -80 142 -80z" />
    <glyph glyph-name="zero.numr" horiz-adv-x="823" 
d="M412 614q-154 0 -243 112.5t-89 301.5t89 302.5t243 113.5t242.5 -113.5t88.5 -302.5t-88.5 -301.5t-242.5 -112.5zM408 717h8q66 0 113.5 46.5t68 115t20.5 149.5t-20.5 150t-68 116t-113.5 47h-8q-66 0 -113.5 -47t-68.5 -116t-21 -150t21 -149.5t68.5 -115
t113.5 -46.5z" />
    <glyph glyph-name="one.numr" horiz-adv-x="528" 
d="M403 625h-116v655l-240 -193v121l279 226h77v-809z" />
    <glyph glyph-name="two.numr" horiz-adv-x="702" 
d="M625 625h-545v139l258 225q97 85 125.5 123.5t28.5 95.5q0 59 -38.5 96t-95.5 37h-10q-51 0 -95 -38.5t-44 -102.5h-125q0 110 80 177t192 67q114 0 187 -63t73 -173q0 -36 -10 -68.5t-22 -55t-38.5 -51.5t-41.5 -43t-49 -44l-252 -219h422v-102z" />
    <glyph glyph-name="three.numr" horiz-adv-x="716" 
d="M346 614q-114 0 -194 62.5t-80 171.5h125q3 -60 42 -95.5t101 -35.5h10q67 0 111.5 38t44.5 103q0 60 -39 93.5t-98 33.5h-90v96h94q58 0 92.5 32.5t34.5 92.5q0 66 -39 100.5t-105 34.5h-10q-61 0 -97.5 -33t-39.5 -89h-125q0 107 79 166t193 59q113 0 191 -59.5
t78 -165.5q0 -63 -30.5 -112.5t-82.5 -74.5q57 -23 88 -72t31 -114q0 -105 -85.5 -168.5t-199.5 -63.5z" />
    <glyph glyph-name="four.numr" horiz-adv-x="714" 
d="M541 625h-115v196h-379v115l367 498h127v-510h110v-103h-110v-196zM426 1284l-260 -360h260v360z" />
    <glyph glyph-name="five.numr" horiz-adv-x="700" 
d="M342 614q-124 0 -200 59t-85 169h125q7 -61 51.5 -93t106.5 -32h8q65 0 107.5 46t42.5 118q0 70 -41 109.5t-107 39.5h-6q-89 0 -145 -69h-109l92 473h428v-103h-338l-53 -256q61 58 152 58q114 0 183 -69.5t69 -178.5q0 -123 -80.5 -197t-200.5 -74z" />
    <glyph glyph-name="six.numr" horiz-adv-x="757" 
d="M377 614q-138 0 -217.5 104t-79.5 288q0 199 94 318.5t236 119.5q129 0 200.5 -68.5t71.5 -156.5h-121q-11 55 -50 87.5t-97 32.5h-13q-82 0 -141.5 -77t-69.5 -209q25 51 85 82.5t135 31.5q107 0 183.5 -72.5t76.5 -191.5q0 -126 -79 -207.5t-214 -81.5zM377 717h6
q71 0 118.5 49.5t47.5 124.5q0 76 -45.5 125t-116.5 49h-6q-71 0 -117.5 -49t-46.5 -125q0 -75 45 -124.5t115 -49.5z" />
    <glyph glyph-name="seven.numr" horiz-adv-x="616" 
d="M299 625h-125v73q0 117 24 219.5t66.5 180t94 134.5t112.5 99h-434v103h545v-109q-283 -235 -283 -627v-73z" />
    <glyph glyph-name="eight.numr" horiz-adv-x="737" 
d="M365 614q-113 0 -192 57.5t-79 159.5q0 66 37 114.5t100 76.5q-66 28 -107.5 79.5t-41.5 117.5q0 105 79.5 165t207.5 60t208 -60t80 -165q0 -67 -41 -118.5t-108 -78.5q60 -28 94.5 -76.5t34.5 -114.5q0 -102 -79.5 -159.5t-192.5 -57.5zM360 1079h11q66 0 113.5 34
t47.5 95q0 63 -45 98t-112 35h-10q-67 0 -112.5 -35t-45.5 -98q0 -61 45 -95t108 -34zM360 717h11q60 0 100.5 35.5t40.5 97.5q0 58 -41 94.5t-100 36.5h-11q-59 0 -100 -36.5t-41 -94.5q0 -62 40.5 -97.5t100.5 -35.5z" />
    <glyph glyph-name="nine.numr" horiz-adv-x="759" 
d="M350 614q-129 0 -200.5 69t-71.5 157h121q11 -55 50 -88t97 -33h12q82 0 141.5 77.5t69.5 209.5q-25 -51 -85 -83t-134 -32q-107 0 -183.5 72.5t-76.5 191.5q0 126 79 207.5t214 81.5q139 0 218 -103.5t79 -287.5q0 -199 -94 -319t-236 -120zM373 993h6q71 0 117.5 49
t46.5 125q0 75 -45 124.5t-115 49.5h-6q-71 0 -118.5 -49.5t-47.5 -124.5q0 -76 45.5 -125t116.5 -49z" />
    <glyph glyph-name="zero.numr.zero" horiz-adv-x="823" 
d="M412 1444q154 0 242.5 -113.5t88.5 -302.5t-88.5 -301.5t-242.5 -112.5t-243 112.5t-89 301.5t89 302.5t243 113.5zM416 1341h-8q-66 0 -113.5 -47t-68.5 -116t-21 -150q0 -63 16 -129l336 363q-53 79 -141 79zM408 717h8q66 0 113.5 46.5t68 115t20.5 149.5
q0 65 -16 131l-336 -362q54 -80 142 -80z" />
    <glyph glyph-name="uni2070.zero" horiz-adv-x="823" 
d="M412 1669q154 0 242.5 -113.5t88.5 -302.5t-88.5 -301t-242.5 -112t-243 112t-89 301t89 302.5t243 113.5zM416 1567h-8q-66 0 -113.5 -47.5t-68.5 -116.5t-21 -150q0 -63 16 -129l336 363q-54 80 -141 80zM408 942h8q66 0 113.5 46.5t68 115t20.5 149.5q0 65 -16 131
l-336 -362q54 -80 142 -80z" />
    <glyph glyph-name="exclamdown.case" horiz-adv-x="520" 
d="M184 1434h154v-174h-154v174zM229 1014h62l41 -584v-430h-144v430z" />
    <glyph glyph-name="questiondown.case" horiz-adv-x="923" 
d="M502 1436h153v-174h-153v174zM512 1016h133v-260q0 -92 -36 -128t-128 -36h-41q-109 0 -167 -67.5t-58 -166.5q0 -97 64 -160t182 -63h391v-133h-420q-154 0 -255 100t-101 254q0 166 98.5 267.5t267.5 101.5q40 0 55 15t15 55v221z" />
    <glyph glyph-name="question.ss06" horiz-adv-x="995" 
d="M481 420h-139v184q0 125 113 166l69 25q59 21 99 41.5t79 52.5t58.5 78.5t19.5 107.5q0 105 -74 175.5t-206 70.5q-125 0 -203 -64.5t-88 -181.5h-139q5 119 64 206t153.5 130t212.5 43q177 0 298.5 -106t121.5 -273q0 -136 -69.5 -228.5t-166.5 -127.5l-68 -25
q-87 -31 -111 -54.5t-24 -70.5v-149zM489 0h-153v174h153v-174z" />
    <glyph glyph-name="questiondown.ss06" horiz-adv-x="980" 
d="M500 1024h153v-174h-153v174zM508 604h139v-184q0 -126 -112 -166l-70 -25q-59 -21 -99 -41.5t-79 -52.5t-58.5 -78.5t-19.5 -107.5q0 -105 74 -175.5t206 -70.5q125 0 203 64.5t88 181.5h140q-5 -119 -64 -206t-154 -130t-213 -43q-177 0 -298 106t-121 273
q0 136 69 229t166 127l68 25q87 31 111 54.5t24 70.5v149z" />
    <glyph glyph-name="questiondown.ss06.case" horiz-adv-x="995" 
d="M508 1434h154v-174h-154v174zM516 1014h139v-185q0 -125 -112 -165l-70 -25q-59 -21 -99 -41.5t-79 -53t-58.5 -79t-19.5 -107.5q0 -105 74 -175t207 -70q125 0 202.5 64t87.5 181h140q-5 -119 -64 -205.5t-153.5 -129.5t-212.5 -43q-177 0 -298.5 105.5t-121.5 272.5
q0 136 69.5 229.5t165.5 127.5l68 24q87 31 111 54.5t24 70.5v150z" />
    <glyph glyph-name="period.tf" 
d="M717 0h-205v205h205v-205z" />
    <glyph glyph-name="comma.tf" 
d="M522 -236h-82v82h62q123 0 123 123v31h-113v205h205v-246q0 -93 -51 -144t-144 -51z" />
    <glyph glyph-name="colon.tf" 
d="M717 819h-205v205h205v-205zM717 0h-205v205h205v-205z" />
    <glyph glyph-name="semicolon.tf" 
d="M727 819h-205v205h205v-205zM532 -236h-81v82h61q123 0 123 123v31h-113v205h205v-246q0 -93 -51 -144t-144 -51z" />
    <glyph glyph-name="numbersign.tf" 
d="M1165 1044v-112h-204l-89 -432h252v-113h-276l-80 -387h-133l80 387h-324l-84 -387h-133l84 387h-197v113h220l94 432h-273v112h295l84 390h133l-84 -390h322l80 390h133l-80 -390h180zM414 500h325l88 432h-319z" />
    <glyph glyph-name="parenleft.case" horiz-adv-x="700" 
d="M608 113v-133q-217 30 -354 230t-137 507t137 507t354 230v-133q-161 -29 -254.5 -192t-93.5 -412t93.5 -411t254.5 -193z" />
    <glyph glyph-name="parenright.case" horiz-adv-x="700" 
d="M92 1321v133q217 -30 354.5 -230t137.5 -507t-137.5 -507t-354.5 -230v133q161 29 254.5 192t93.5 412t-93.5 411t-254.5 193z" />
    <glyph glyph-name="braceleft.case" horiz-adv-x="729" 
d="M629 0h-133q-126 0 -181 76.5t-55 240.5v123q0 78 -20.5 105.5t-81.5 27.5h-52v287h52q61 0 81.5 27.5t20.5 105.5v123q0 164 55 241t181 77h133v-134h-82q-87 0 -115.5 -32.5t-28.5 -120.5v-236q0 -174 -163 -174v-41q163 0 163 -174v-235q0 -88 28.5 -121t115.5 -33h82
v-133z" />
    <glyph glyph-name="braceright.case" horiz-adv-x="729" 
d="M100 1436h133q126 0 181 -77t55 -241v-123q0 -78 20.5 -105.5t81.5 -27.5h52v-287h-52q-61 0 -81.5 -27.5t-20.5 -105.5v-123q0 -164 -55 -240.5t-181 -76.5h-133v133h82q87 0 115.5 33t28.5 121v235q0 174 163 174v41q-163 0 -163 174v236q0 88 -28.5 121t-115.5 33h-82
v133z" />
    <glyph glyph-name="bracketleft.case" horiz-adv-x="669" 
d="M569 0h-368v1434h368v-134h-225v-1167h225v-133z" />
    <glyph glyph-name="bracketright.case" horiz-adv-x="669" 
d="M100 1434h369v-1434h-369v133h226v1167h-226v134z" />
    <glyph glyph-name="edgeleft.case" horiz-adv-x="741" 
d="M633 0h-174q-114 0 -188 72t-74 184q0 125 79 180q-80 34 -125 111t-45 170t45 169t125 111q-39 27 -59 75.5t-20 105.5q0 112 74 184t188 72h174v-144h-164q-60 0 -99.5 -34t-39.5 -91q0 -61 37.5 -96t101.5 -35h41v-143h-82q-84 0 -136 -45.5t-52 -128.5
q0 -77 52.5 -125.5t135.5 -48.5h82v-144h-41q-61 0 -100 -34.5t-39 -96.5q0 -57 39.5 -91t99.5 -34h164v-143z" />
    <glyph glyph-name="edgeright.case" horiz-adv-x="741" 
d="M109 1434h174q114 0 188 -72t74 -184q0 -57 -20.5 -105.5t-59.5 -75.5q80 -35 125 -111t45 -169t-45 -170t-125 -111q39 -27 59.5 -75t20.5 -105q0 -112 -74 -184t-188 -72h-174v143h163q60 0 100 34t40 91q0 61 -38 96t-102 35h-41v144h82q84 0 136.5 45.5t52.5 128.5
q0 77 -53 125.5t-136 48.5h-82v143h41q61 0 100.5 34.5t39.5 96.5q0 57 -40 91t-100 34h-163v144z" />
    <glyph glyph-name="hyphen.case" horiz-adv-x="811" 
d="M662 662h-512v112h512v-112z" />
    <glyph glyph-name="uni00AD.case" horiz-adv-x="811" 
d="M662 662h-512v112h512v-112z" />
    <glyph glyph-name="endash.case" horiz-adv-x="1179" 
d="M1030 662h-880v112h880v-112z" />
    <glyph glyph-name="emdash.case" horiz-adv-x="1835" 
d="M1686 662h-1536v112h1536v-112z" />
    <glyph glyph-name="uni2015.case" horiz-adv-x="1835" 
d="M1686 662h-1536v112h1536v-112z" />
    <glyph glyph-name="guillemotleft.case" horiz-adv-x="1071" 
d="M399 1157h152l-295 -438l299 -443h-156l-297 441zM930 1157l-295 -438l299 -443h-156l-297 441l297 440h152z" />
    <glyph glyph-name="guillemotright.case" horiz-adv-x="1071" 
d="M137 1157h156l297 -440l-297 -441h-152l295 439zM516 1157h156l297 -440l-297 -441h-152l295 439z" />
    <glyph glyph-name="guilsinglleft.case" horiz-adv-x="692" 
d="M551 1157l-295 -438l299 -443h-156l-297 441l297 440h152z" />
    <glyph glyph-name="guilsinglright.case" horiz-adv-x="692" 
d="M141 1157h152l297 -440l-297 -441h-156l299 443z" />
    <glyph glyph-name="space.tf" 
 />
    <glyph glyph-name="cent.tf" 
d="M909 328h140q-28 -161 -133 -254.5t-269 -93.5q-25 0 -35 2l-39 -228h-124l43 248q-151 50 -233.5 187t-82.5 323q0 152 53.5 271.5t161.5 190t256 70.5h19l39 226h124l-41 -246q109 -34 176.5 -119.5t79.5 -208.5h-139q-10 66 -46.5 116.5t-92.5 76.5l-131 -776h2h20
q98 0 165.5 60.5t86.5 154.5zM315 512q0 -132 50.5 -233.5t148.5 -141.5l129 774h-6q-80 0 -142.5 -32t-101 -88t-58.5 -127t-20 -152z" />
    <glyph glyph-name="currency.tf" 
d="M1073 625q0 -149 -86 -269l154 -145l-86 -86l-154 145q-123 -96 -285 -96q-159 0 -288 98l-156 -147l-86 86l158 149q-84 117 -84 265q0 138 76 254l-150 151l86 86l150 -143q124 102 294 102q166 0 291 -98l148 139l86 -86l-146 -147q78 -115 78 -258zM616 307h11
q131 0 219 89.5t88 228.5q0 142 -87.5 229.5t-219.5 87.5h-21q-132 0 -219.5 -87.5t-87.5 -229.5q0 -138 92.5 -228t224.5 -90z" />
    <glyph glyph-name="dollar.tf" 
d="M707 788l43 -8q370 -74 370 -393q0 -189 -134 -298t-365 -109q-34 0 -50 2l-39 -228h-126l40 242q-184 37 -281 153.5t-97 301.5h139q0 -124 69.5 -206.5t192.5 -113.5l90 535l-78 16q-342 71 -342 362q0 174 134.5 292t357.5 118q41 0 59 -2l39 227h127l-41 -249
q150 -41 236 -149.5t92 -266.5h-139q-6 101 -62 174.5t-149 107.5zM520 825l64 -12l86 508h-29h-20q-150 0 -246 -78t-96 -196q0 -174 241 -222zM618 113h21q160 0 251 75.5t91 190.5q0 104 -66.5 166t-203.5 90l-29 6l-90 -528h26z" />
    <glyph glyph-name="Euro.tf" 
d="M690 113h21q135 0 210.5 78.5t90.5 228.5h139q-19 -209 -135 -324.5t-314 -115.5q-185 0 -301 112t-161 320l-185 -41v123l166 36q-10 85 -10 164l-156 -35v123l158 35q18 306 139.5 471.5t349.5 165.5q198 0 314 -115.5t135 -324.5h-139q-15 150 -90.5 228.5
t-210.5 78.5h-21q-299 0 -336 -471l365 82v-123l-369 -84v-8q0 -83 6 -156l277 62v-123l-260 -58q68 -329 317 -329z" />
    <glyph glyph-name="florin.tf" 
d="M989 1300h-71q-116 0 -162.5 -54t-67.5 -191l-22 -144h266v-123h-285l-123 -808q-33 -211 -114 -300.5t-250 -89.5h-82v134h72q119 0 166.5 54t68.5 191l127 819h-229v123h247l23 150q32 209 109 291t245 82h82v-134z" />
    <glyph glyph-name="uni20B4.tf" 
d="M1038 973l152 12v-121l-1153 -98v121l850 71q22 56 22 121q0 117 -77 179.5t-193 62.5h-12q-76 0 -136 -23.5t-93.5 -60.5t-51.5 -73.5t-22 -71.5h-154q3 42 19.5 88t53 96t87.5 88.5t130 64t173 25.5q182 0 301 -101t119 -266q0 -65 -15 -114zM174 492l-96 -9v121
l1057 92v-121l-811 -69q-27 -58 -27 -127q0 -120 83 -193t218 -73h29q131 0 212 69.5t101 175.5h150q-7 -72 -41 -138t-92.5 -120.5t-149 -87t-199.5 -32.5q-208 0 -331 106.5t-123 275.5q0 74 20 130z" />
    <glyph glyph-name="uni20BD.tf" 
d="M412 0h-144v379h-225v123h225v151h-227v131h227v650h492q95 0 174.5 -23t142 -69t98 -123t35.5 -177t-35.5 -176.5t-98 -122t-142 -68t-174.5 -22.5h-348v-151h485v-123h-485v-379zM412 1300v-516h317q162 0 250 59.5t88 198.5t-88 198.5t-250 59.5h-317z" />
    <glyph glyph-name="sterling.tf" 
d="M385 133h729v-133h-973v133h41q154 0 166 184l21 283l-228 -51v123l238 53l20 281q15 212 115.5 320t298.5 108h199v-134h-205q-134 0 -195.5 -77.5t-72.5 -227.5l-19 -237l287 63v-123l-297 -67l-23 -295q-6 -80 -28 -126t-74 -77z" />
    <glyph glyph-name="yen.tf" 
d="M1053 1434h157l-422 -684l261 57v-123l-347 -78l-14 -22v-148l299 68v-123l-299 -68v-313h-143v283l-299 -68v123l299 68v165l-361 -82v123l301 68l-462 754h161l434 -719z" />
    <glyph glyph-name="uni20A9.tf" 
d="M1067 774h162v-112h-170l-55 -662h-179l-209 885l-225 -885h-184l-45 662h-162v112h154l-45 660h133l77 -1264l211 854h177l192 -842l86 1252h137z" />
    <glyph glyph-name="uni20BF.tf" 
d="M1163 395q0 -164 -99 -268.5t-255 -122.5v-250h-127v246h-184v-246h-127v246h-232v1434h232v245h127v-245h184v245h127v-249q145 -21 234.5 -119.5t89.5 -251.5q0 -119 -67.5 -212t-162.5 -120q45 -8 88.5 -31t83.5 -61.5t64 -100.5t24 -139zM723 1300h-440v-507h440
q119 0 192.5 67t73.5 187t-73.5 186.5t-192.5 66.5zM283 133h438q135 0 217 68.5t82 195.5t-81 194.5t-216 67.5h-440v-526z" />
    <glyph glyph-name="plus.case" horiz-adv-x="1193" 
d="M664 221h-134v436h-440v123h440v434h134v-434h440v-123h-440v-436z" />
    <glyph glyph-name="minus.case" horiz-adv-x="1314" 
d="M1163 651h-1011v133h1011v-133z" />
    <glyph glyph-name="multiply.case" horiz-adv-x="1091" 
d="M547 623l-332 -332l-96 96l332 332l-332 330l96 96l332 -330l330 330l96 -96l-330 -330l330 -332l-96 -96z" />
    <glyph glyph-name="divide.case" horiz-adv-x="1306" 
d="M731 969h-153v174h153v-174zM1159 651h-1012v133h1012v-133zM731 293h-153v174h153v-174z" />
    <glyph glyph-name="equal.case" horiz-adv-x="1314" 
d="M1163 836h-1011v133h1011v-133zM1163 465h-1011v133h1011v-133z" />
    <glyph glyph-name="notequal.case" horiz-adv-x="1314" 
d="M1163 969v-133h-395l-74 -238h469v-133h-510l-75 -244h-146l76 244h-356v133h397l74 238h-471v133h512l75 245h146l-76 -245h354z" />
    <glyph glyph-name="greater.case" horiz-adv-x="1099" 
d="M145 979v156l871 -363v-115l-871 -362v149l676 269z" />
    <glyph glyph-name="less.case" horiz-adv-x="1103" 
d="M86 774l870 363v-150l-675 -266l675 -268v-156l-870 362v115z" />
    <glyph glyph-name="greaterequal.case" horiz-adv-x="1347" 
d="M176 1083v152l1012 -311v-156l-1012 -311v147l864 240zM1188 242h-1012v133h1012v-133z" />
    <glyph glyph-name="lessequal.case" horiz-adv-x="1347" 
d="M160 924l1011 311v-148l-864 -239l864 -240v-151l-1011 311v156zM1171 242h-1011v133h1011v-133z" />
    <glyph glyph-name="plusminus.case" horiz-adv-x="1351" 
d="M741 498h-131v286h-440v134h440v296h131v-296h441v-134h-441v-286zM1182 190h-1012v134h1012v-134z" />
    <glyph glyph-name="approxequal.case" horiz-adv-x="1267" 
d="M872 760q-58 0 -154 41.5t-181.5 83t-118.5 41.5q-129 0 -129 -146h-133v51q0 103 66 169.5t179 66.5q58 0 154 -41.5t182 -83t119 -41.5q72 0 100.5 35.5t28.5 99.5h133v-51q0 -103 -63 -164t-183 -61zM872 371q-58 0 -154 41.5t-181.5 83t-118.5 41.5q-129 0 -129 -146
h-133v51q0 103 66 169.5t179 66.5q58 0 154 -41.5t182 -83t119 -41.5q72 0 100.5 35.5t28.5 99.5h133v-51q0 -103 -63 -164t-183 -61z" />
    <glyph glyph-name="logicalnot.case" horiz-adv-x="1222" 
d="M1059 457h-139v297h-773v133h912v-430z" />
    </font>
</defs>
</svg>
